<svg xmlns="http://www.w3.org/2000/svg" viewBox="0 0 148.26 17.645">
  <path d="M69.614 7.217v-1.57H66.17v11.646h3.561v-5.084c0-2.32 1.288-3.164 2.718-3.164a4.853 4.853 0 011.125.117V5.648a3.508 3.508 0 00-.937-.117 3.289 3.289 0 00-3.023 1.686zm-18.276 2.835l-1.546-.3c-.516-.093-.913-.375-.913-.867a1.135 1.135 0 011.267-1.012 1.531 1.531 0 011.663 1.429l2.952-.539c-.117-1.359-1.289-3.468-4.663-3.468-2.6 0-4.475 1.734-4.475 3.866 0 1.641.985 3.047 3.468 3.586l1.336.3c.867.188 1.148.54 1.148.96 0 .516-.445 1.008-1.36 1.008a1.658 1.658 0 01-1.827-1.569l-3.023.539c.094 1.289 1.266 3.655 4.921 3.655 3.117 0 4.639-1.945 4.639-3.936-.002-1.705-1.173-3.16-3.586-3.652zm10.169-7.8H58.32v1.5a1.71 1.71 0 01-1.8 1.9h-.585v3.117h2.062v4.991a3.534 3.534 0 003.889 3.748 4.237 4.237 0 001.851-.327v-2.953a4.4 4.4 0 01-.937.117c-.773 0-1.289-.258-1.289-1.218V8.768h2.273V5.651h-2.273zM31.007.331h-3.514v6.233c-.282-.445-1.149-1.2-3.139-1.2-3.3 0-5.647 2.6-5.647 6.069a5.763 5.763 0 005.764 6.116 3.755 3.755 0 003.116-1.383 7.949 7.949 0 00.094 1.125h3.421a22.337 22.337 0 01-.094-2.086zm-6.091 14.036a2.629 2.629 0 01-2.625-2.905 2.636 2.636 0 115.248 0 2.628 2.628 0 01-2.621 2.902zM-.002 17.296h3.748V.68H-.002zM12.906 5.345a3.816 3.816 0 00-3.257 1.641V5.65H6.206v11.646h3.561v-6.679a1.89 1.89 0 011.921-2.038 1.8 1.8 0 011.9 2.016v6.7h3.558V9.983c0-2.554-1.309-4.64-4.238-4.64zm25.287-.047a6.18 6.18 0 00.258 12.349 5.23 5.23 0 005.365-3.7l-2.97-.848a2.249 2.249 0 01-2.343 1.524 2.521 2.521 0 01-2.648-2.25h8.108a7.515 7.515 0 00.07-1.1c-.004-3.751-2.231-5.974-5.838-5.974zm-2.273 4.78a2.219 2.219 0 012.32-1.969 2.088 2.088 0 012.343 1.969zm95.53 7.217h3.562V.328h-3.562zm-7.212-11.927a4.182 4.182 0 00-3.373 1.383V.33h-3.492v16.965h3.444v-1.312a3.758 3.758 0 003.281 1.57c3.256 0 5.553-2.554 5.553-6.116.001-3.493-2.037-6.071-5.411-6.071zm-.773 9a2.645 2.645 0 01-2.648-2.905 2.649 2.649 0 112.648 2.905zM86.459 5.651h-3.561v6.632a1.857 1.857 0 01-1.945 1.991 1.809 1.809 0 01-1.875-2.015V5.651h-3.561v7.358a4.271 4.271 0 004.428 4.546 3.623 3.623 0 003.116-1.429 8.374 8.374 0 00.094 1.172h3.421a18.133 18.133 0 01-.118-2.086zm61.8 5.624c0-3.749-2.226-5.975-5.834-5.975a6.18 6.18 0 00.258 12.349 5.231 5.231 0 005.366-3.7l-2.976-.844a2.251 2.251 0 01-2.344 1.524 2.52 2.52 0 01-2.647-2.25h8.107a7.373 7.373 0 00.071-1.108zm-8.108-1.2a2.219 2.219 0 012.32-1.969 2.089 2.089 0 012.344 1.969zM113.046-.001a2.086 2.086 0 102.109 2.086 2.085 2.085 0 00-2.109-2.086zM94.49 14.363a2.665 2.665 0 01-2.718-2.883 2.638 2.638 0 012.671-2.905 2.29 2.29 0 012.343 1.734l3.187-.961a5.445 5.445 0 00-5.6-4.053 6.011 6.011 0 00-6.139 6.186 6.075 6.075 0 006.256 6.163 5.515 5.515 0 005.554-4.053l-3.14-.961a2.4 2.4 0 01-2.411 1.734zm16.8 2.929h3.561V5.647h-3.561zm-4.8-15.044h-3.186v1.5a1.711 1.711 0 01-1.8 1.9h-.586v3.117h2.062v4.991a3.534 3.534 0 003.889 3.748 4.248 4.248 0 001.852-.327v-2.953a4.407 4.407 0 01-.937.117c-.774 0-1.289-.258-1.289-1.218V8.764h2.273V5.647h-2.273z" fill="#282828"/>
</svg>
