<svg xmlns="http://www.w3.org/2000/svg" viewBox="0 0 106.014 36">
  <path class="a" d="M0 0h35.365v36H0zM70.649 0h35.365v36H70.649z"/>
  <path class="a" d="M29.181 15.735c-.11-.346-.269-.616-.354-.949-.3-.334-.342-.864-.622-1.21.036-.308-.28-.383-.255-.678h-.062c-.292-.494-.463-1.024-.755-1.518a7.409 7.409 0 00-.646-.95c-.354-.641-.805-1.295-1.208-1.948a6.106 6.106 0 00-.671-.913c.025-.21-.157-.2-.17-.4-.219-.419-.719-.3-1.17-.32-.085.073-.183.222-.329.209-.391.68-1.036 1.136-1.4 1.863-.11.2-.28.505-.5.592.011.21-.134.346-.257.507a.93.93 0 00.11.765c.159.122.268.333.391.419-.11.013-.025.21-.183.148-.073.073-.183.2-.257.259.037.173-.206.135-.146.3-.061.321-.452.148-.586.148-.231.111-.365-.184-.622-.086-.048-.184-.354.013-.4-.173-.1-.036-.342.075-.391-.086-.316.062-.524-.135-.842-.062-.11-.2-.475.013-.56-.184v.037c-.038-.075-.268.025-.317-.086-.488.036-.842-.21-1.233-.124v-.062h-.853l-.049-.086a4.829 4.829 0 01-1.146-.062c-.049.111-.146-.086-.146.062-.073-.025-.2.049-.232-.062-.123.111-.524.037-.647.062a3.7 3.7 0 00-1.378.024v.062a1.936 1.936 0 00-1.2.95c-.061.025-.11.037-.085.124a3.347 3.347 0 00-.329.74c-.134.209.036.592-.147.765.037.3-.061.53-.023.827-.134.481-.208.962-.378 1.418-.257.013-.257.272-.5.3-.036.246-.354.21-.439.419-.159-.037-.17.186-.329.173a2.154 2.154 0 01-.4.419c-.049.037-.061.2-.183.173-.085.186-.206.395-.318.593h.025c.1.344.183.716.269 1.011a3.43 3.43 0 00.317 1.456c.085.013.256.075.269.173h.085c.036.013.036.062.036.086.049.013.11-.024.147.037a4.2 4.2 0 00-.061 1.826 3.706 3.706 0 00.524.778c.049.061.208-.026.17.111.147.06.318.06.414.184.221-.073.331.124.562.062.17.16.5.049.756.086a2.811 2.811 0 00.414 1.629c.074.2.342.346.4.53a.112.112 0 01.147.086c.3-.011.341.248.645.235a2 2 0 001.049-.259c.183.37.208.642.354 1 .135.02.143.16.205.253a.762.762 0 00.331.285 1.689 1.689 0 001.013.029 6.021 6.021 0 001.131-.219c.8-.232 1.671.12 2.38-.314a3.548 3.548 0 00.556-.425 3.743 3.743 0 00.57-.579 4.826 4.826 0 01.557-.742c.177-.168.346-.349.524-.516s.423-.284.616-.442.3-.372.544-.441c.085-.024.024-.173.146-.148.183-.235.465-.357.684-.592.121-.246.414-.321.548-.592.195-.037.244-.3.415-.346.024-.124.208-.124.208-.248a3.47 3.47 0 001.2-1.714c.024-.148.208-.173.208-.321-.1-.284-.049-.58-.123-.8.025-.173.244-.037.293-.124.3.049.3-.308.561-.32.048-.026.11.036.085.086h.085c.049 0 .121-.013.121.061h.208c0 .21.329.1.463.086v-.062a3.534 3.534 0 001.7-.887c.2-.086.365-.359.56-.346.058-.213.259-.289.4-.421a.493.493 0 00.1-.122 5.705 5.705 0 00-.594-1.509z"/>
  <path class="b" d="M18.6 19.387l.007-.011a.232.232 0 01.186.011z"/>
  <path class="c" d="M9.68 20.24c.39.011.121-.346.121-.507a8.638 8.638 0 00-.622-1.948c-.1-.21-.17-.481-.341-.593-.354.321-.707.556-1.061.889-.147.507.134.913.182 1.382.049.173 0 .432.147.505.036.025.024.062.024.086h.085a.119.119 0 01.146.062c.013.024.219.21.354.062a3.527 3.527 0 00.965.062zm14.427.259l-.011.017c-.005.033-.002.036.011-.017zm1.354-3.368a5.485 5.485 0 00-.354-.716c-.378-.445-.634-1.112-1.049-1.506-.28-.481-.512-.8-.792-1.245a7.969 7.969 0 01-.94-1.159c-.269-.161-.414-.494-.67-.618-.013.111-.123.086-.208.086-.11.161-.329.21-.317.42a9.081 9.081 0 011.28 1.653c.4.789.976 1.665 1.293 2.491.123.567.548.79.756 1.3.342.135.257.8.732.592a1.737 1.737 0 00.622-.616 2.361 2.361 0 00-.351-.682zM24.4 19.376c-.11-.135-.013-.37-.085-.53a2.737 2.737 0 00-.44-.766c-.17.037-.146-.2-.231-.246-.073-.075-.1-.2-.208-.235a13.3 13.3 0 01-1.11-2.01 6.744 6.744 0 00-.609-1.1 4.931 4.931 0 00-.83-1.209c-.293-.086-.293-.432-.671-.382-.048-.013-.146.024-.146-.062l-.378-.062v-.024l-.378-.062v-.037c-.061 0-.244.026-.268-.111a2.462 2.462 0 01-.817-.122c-.11-.025-.293.073-.317-.086-.414.1-.67-.173-1.061-.124v-.049c-.207-.024-.475.049-.609-.062-.5.062-.72-.111-1.208-.086v-.062h-1.17c-.316-.284-.573.161-.963-.037v-.025l-.354-.062v-.061c-.2.036-.512-.075-.611.1-.042.026-.078-.024-.088-.042-.074.1-.195.05-.293.062v.062c-.293-.049-.341.284-.622.259a1.193 1.193 0 01-.439.419 3.968 3.968 0 00-.11.765c-.11.569-.257 1-.329 1.58a8.867 8.867 0 01-.257.975c-.024.395-.39.864-.085 1.27.024.2.17.346.17.593a9.343 9.343 0 01.475 1.578 5.259 5.259 0 00.234.729c.28.308.5.16.963.186v-.062c.123 0 .1-.137.232-.086-.085-.161.146-.173.146-.334a3.872 3.872 0 00-.269-2.22c-.049-.271-.255-.383-.146-.7a1.393 1.393 0 01.439-.248c.219.062.219-.16.439-.111a7.863 7.863 0 011.025-.678c-.011-.16.159-.222.269-.246l.378.778c.085.16.206.284.293.444s.28.259.414.381a3.141 3.141 0 001.573 1.037c.011.137.244-.036.208.148.085.013.195-.024.267.024v.062c.11 0 .257-.013.293.086 0-.024-.011-.062.025-.086a.092.092 0 01.037.086c.085.013.182-.024.255.037v.024c.524-.062 1.207.148 1.549-.173.28.049.5-.186.792-.062v.024h.085v.037c.183-.037.244.135.293.235.11.222-.072.284-.049.505-.089.042-.128.124-.187.184a.239.239 0 01-.2.075c-.1.173-.4.062-.609.1a.105.105 0 01-.087-.1.336.336 0 01-.228-.075h-.194c-.091.144-.326.051-.492.075-.013.135-.147.086-.232.1-.219-.16-.5-.074-.792-.061-.052-.117-.211-.062-.286-.112a.086.086 0 01-.032-.036l-.354-.062v-.062c-.1-.013-.206.024-.293-.025-.085-.124-.269-.111-.378-.235-.267-.025-.329-.37-.585-.3-.085.1-.073.246-.123.382-.167.127-.164.229-.1.333s.166.2.226.321c.049.062.012.21.121.2a2.062 2.062 0 01-.036.864h.208c.048.2.329-.012.378.173.036 0 .1.025.121-.024.073.086.268-.013.257.148a.916.916 0 01.535.321.5.5 0 01.293.395c.123.333-.11.592-.121.913a3.29 3.29 0 01.882.505l.081.062c.036.135.146.16.232.235a1.571 1.571 0 01.292 1.591l-.11.062c-.061.246-.341.382-.524.443-.1.186-.28-.1-.293.037-.024-.025-.049-.037-.036-.062a.22.22 0 01-.255-.124c-.147-.3.231-.468.341-.7a1.162 1.162 0 00-.11-.84 2.33 2.33 0 00-.792-.592.182.182 0 00-.166-.111c-.125-.011-.271.037-.335-.124.037-.111.037-.259.123-.32.183-.383-.073-.691-.232-.95a.831.831 0 01-.475-.173l-.611.024c-.159.025-.329-.148-.378 0-.024-.024-.072-.049-.061-.086l-.061.062-.123-.124a.562.562 0 01.062-.567.718.718 0 00-.172-.616 2.642 2.642 0 01-.378-.359h-.182c-.281-.16-.66-.062-.989-.086-.024.086 0 .235-.1.272-.074.073.061.209-.11.2v.122c-.2.1-.1.432-.416.383-.219.333-.694.124-1.048.186-.331-.013-.354-.42-.733-.272v.062c-.048.049-.121.013-.182.024v.062c-.195 0-.268.21-.463.124-.219.173-.7-.111-.756.346a1.3 1.3 0 00.341 1.369c.159-.05.172.073.293.111a1 1 0 01.391.209c.11.037.3-.073.341.086h.183a.163.163 0 00.04.037c.117.078.261-.043.338.111.915.037.073 1.135.5 1.6.049.173.2.259.257.383.109-.037.072.085.121.122.147.037.195.148.318.235.1.013.219-.024.293.025v.037c.049-.086.1.024.121.024.025-.16.257-.062.378-.086-.036-.111.11-.062.123-.124a1.545 1.545 0 01.316-.148c.1-.258.5-.184.586-.406.219-.062.293-.259.524-.272v-.062c.025-.049.087-.012.123-.024v-.062c.011-.036.061-.025.085-.025v-.062c.036-.049.1-.025.146-.025.037-.16.219-.049.268-.246.257-.024.306-.272.525-.345.061-.111.146-.186.292-.1.293.037.183.432.208.629-.134.173-.2.432-.439.408v.062c-.024.062-.085.024-.123.037v.049c-.195.062-.316.259-.548.272-.244.271-.609.308-.828.567-.135.344.121.554.121.851a.166.166 0 01.061.148c.183.813.817.073 1.342.233.378-.012.584-.209 1-.147v-.05c.268.024.475-.173.694-.184a1.069 1.069 0 00.915-.086 1.136 1.136 0 00.4-.359c.231-.049.293-.233.439-.357a1.1 1.1 0 01.244-.235v-.062c.012-.036.049-.025.085-.025.049-.209.244-.3.378-.468.227-.491.742-.772 1.136-1.1a5.741 5.741 0 00.791-.74 4.728 4.728 0 00.416-.3.458.458 0 01.292-.271 2.888 2.888 0 01.416-.445 2.035 2.035 0 00.378-.468 4.414 4.414 0 00.976-1.2 2.49 2.49 0 01.157-.635c.1-.135.208-.333.1-.468l.013-.026c.012-.006.022-.015.038-.006zm-11.817-1.542c-.085.395.269.641.146 1.012-.024.1.013.246.172.233s.4-.122.622 0c.1-.135.4.037.488-.147a.813.813 0 00.206-.914c-.121-.222-.329-.233-.4-.505-.244-.16-.475-.062-.768-.086v.062c-.244-.049-.293.21-.549.111.009.085-.052.22.083.233z"/>
  <path class="a" d="M21.095 19.88c.244-.037.244.148.354.272-.085.2-.159.616-.439.641l-.5.037c0-.135-.17-.049-.206-.124-.2-.122-.476-.308-.317-.654a1.372 1.372 0 011.049-.259zM67.108 15.569c-.756-1.616-.993-3.554-1.881-5.17a9.446 9.446 0 00-.567-1.412c-.214-.107-.26-.478-.391-.681-.426-.443-.473-1.054-1.052-1.293-.025-.144-.2-.108-.225-.228h-.094c-.131-.048-.3-.059-.368-.18-.2-.095-.058.169-.2.18-.036-.023-.023-.059-.023-.095-.118.167-.4.059-.592.095v.047c-.1.06-.214.025-.321.036v.06c-.248-.083-.176.251-.424.167-.107.083-.2.168-.309.264l-.059-.1a.123.123 0 01-.142.1v.047c-.284.036-.189.228-.45.288.013.167-.26.119-.235.286-.059-.011-.26.192-.391.288a2.172 2.172 0 00-.4.813c-.166-.024-.166.156-.344.108-.2.167-.45.262-.51.55a.75.75 0 00-.2.719c.343.25-.107.417-.248.6-.3 0-.628.12-.792.061-1.077.119-2.272.011-3.324.083-.048 0-.1-.048-.083-.083h-1.086a.1.1 0 01-.082-.085c-.521.06-.947-.107-1.443-.083v-.036l-.628-.059v-.028c-.176-.023-.437.072-.544-.084-.342.1-.46-.191-.815-.083a.089.089 0 01-.036.083l-.048-.083v.048a1.072 1.072 0 00-.8.288c-.307-.049-.319.323-.567.347v.059c-.248.083-.3.3-.533.407.035.192-.166.131-.225.228a4.223 4.223 0 01-.769.825c.047.156-.083.156-.119.264-.177.18-.39.3-.567.491.036.287-.155.419-.166.681a1.483 1.483 0 01-.567.383v.048c-.024.06-.083.024-.118.036v.06c-.024.047-.071.011-.107.024v.059c-.048.047-.118.011-.177.024a2.451 2.451 0 01-.449.406.6.6 0 00-.51.347c-.071.036.025.2-.118.169a2.733 2.733 0 00.059.837h.059c.048.049.012.133.025.192a1.157 1.157 0 01-.4.324c.011.083-.155.072-.048.167l-.426.288c-.064.128-.218.222-.323.328a.513.513 0 00-.08.1c-.224.083-.235.311-.426.43-.094.036-.023.239-.165.228.035.2-.3.2-.2.383-.437.466-.686 1.066-1.136 1.627a1.84 1.84 0 01-.283.527 1.657 1.657 0 00-.036 1.688c.071.395.437.453.746.573a5.161 5.161 0 01-.71 1.149h-.059v.06c-.036.036-.036.12-.118.083a.873.873 0 01-.332.467 1.05 1.05 0 00.084.8c.071.12.177.167.248.347h.059c.048.2.189.275.367.395.047.049.023.121.118.085.035.023.023.059.023.1.2-.036.261.108.4.144.355-.036.792.059 1.052-.1.072-.023.237-.192.307-.023-.023.215.225.323.178.55a1.222 1.222 0 00.9.539v.059l1.113-.023.059.311c.166.347.378.682.792.742.071.12.237.047.284.144.342.12.59-.108.97-.108.2-.061.378-.251.615-.264v-.059c.034-.049.094-.013.141-.025.036-.083.155-.167.2-.228.26-.072.378-.263.544-.43.307-.216.626-.431.934-.658.071-.06.059-.228.2-.18a2.168 2.168 0 00.309-.347c.271-.251.555-.336.768-.658.438-.311.887-.85 1.361-1.208.036-.168.237-.191.26-.335a.777.777 0 01.792-.286v-.06a.489.489 0 01.366 0v.06c.166-.144.355-.1.462-.2.366.168.628-.179 1.077-.143v-.085a2 2 0 00.733-.179c.355-.013.628-.324.994-.371a.158.158 0 01.142-.06v-.059c.048-.048.118-.012.177-.025v-.059c.177-.036.307-.12.509-.167 0-.036-.013-.072.023-.085a9.5 9.5 0 001.077-.67 9.209 9.209 0 001.312-1.316 9.066 9.066 0 00.592-.719c.118-.1.1-.264.261-.311.105-.586.638-.8.958-1.244h.094v-.049c.107 0 .095-.131.225-.095.107-.131.3-.12.366-.288.141-.035.248-.156.426-.107v-.061c.023-.048.071-.024.118-.024.011-.19.26.013.284-.179a.53.53 0 01.531.228 2 2 0 00.687.2c.2-.156.2.167.426.061v-.055l.533-.06v-.023a1.419 1.419 0 00.815-.449 5.863 5.863 0 01.781-.724l-.035-.036a3.363 3.363 0 01.544-.539c.047-.035.011-.155.118-.12.071-.228.248-.334.367-.55.136-.147-.019-.35-.089-.458z"/>
  <path class="c" d="M61.678 17.149c-.189-.228-.248-.526-.449-.8a2.709 2.709 0 00-.344-.651 1.169 1.169 0 01-.118-.269 5.706 5.706 0 01-.39-.7c-.189-.095-.154-.466-.4-.573-.059-.1-.094-.252-.2-.288-.013-.25-.225-.37-.307-.575-.25-.264-.4-.717-.687-.969a2.672 2.672 0 00-.567-.838c-.189.036-.3.168-.473.228-.024.191-.273-.011-.284.18l-3.1.024h-.166a7.172 7.172 0 00-1.111-.061c-.084-.072-.237.036-.309-.083h-1.052c-.048 0-.095-.049-.082-.083l-.687-.025v-.06a12.11 12.11 0 01-1.4-.083v-.036c-.153-.011-.355.049-.473-.059-.094.12-.3.023-.378.1-.082.047-.214.108-.248.168s-.1.023-.143.023a1.94 1.94 0 00-.485.383c-.023.048-.071.012-.118.025-.248.311-.46.61-.757.921-.107.167-.332.3-.4.49-.236.108-.378.371-.544.538-.071.1.036.252-.082.324-.025.25-.32.264-.426.455a5.25 5.25 0 01-.876.575c-.065.163-.3.138-.383.269a.141.141 0 00-.019.042c-.025.059-.1.023-.143.034v.061c-.023.047-.094.011-.142.024-.059.156-.273.036-.248.264-.083.431.271.609.473.861.248-.131.342.228.46.108.011.023.036.036.024.059.105.024.283-.072.319.083.153.085.107-.143.248-.083a.062.062 0 01.082.083h.059v-.059c.118.023.2-.167.225-.047.036-.025.048-.072.1-.061.011.012.035.025.023.061l.059-.12c.141 0 .166-.121.308-.121-.012-.143.154-.047.177-.167a1.317 1.317 0 00.508-.491c.233-.1.317-.409.557-.531l.012-.007.006.007h.127a.175.175 0 01.175-.1c.023-.18.284.025.319-.167.166 0 .307-.216.532-.144v-.06a2.519 2.519 0 01.51-.2c.059-.156.282-.167.46-.167v-.06c.024-.047.1-.012.143-.024.011.024.071.049.059.085.2.011.237.239.307.406.118-.036.13.06.2.108a3.217 3.217 0 01.354.33.52.52 0 01.072.137c.189-.025.3.239.45.227.071.047.082.108.118.167.212-.106.283.2.449.144.048.011.118.06.082.119h.1c.048-.011.059.048.048.083h.094a.066.066 0 01.084.085c.094.011.2-.024.283.035v.049h.084c.059 0 .142.011.118.1.094.024.26-.072.283.083l.107-.083c.071.18.4-.023.462.168-.012-.036.034-.06.047-.085.142.168.426.049.6 0a.889.889 0 01.165.455c-.13.132-.071.491-.342.491-.012.156-.237.059-.367.083 0 .036.012.072-.024.083a.177.177 0 01-.2-.083c0 .036.012.072-.023.083-.143-.156-.439-.048-.664-.083-.082-.108-.283-.036-.426-.061a1.424 1.424 0 00-.709-.25c-.118-.144-.307-.167-.391-.323-.426-.1-.567-.479-.934-.624-.084-.035 0-.214-.143-.142-.2-.288-.437-.395-.663-.671a6.734 6.734 0 01-1.075.491c-.084.18-.309.119-.427.264-.141-.011-.165.119-.307.108a2.033 2.033 0 01-.4.49c-.013.036-.048.036-.084.036-.094.252-.4.192-.508.432-.332.023-.64.347-1.054.226-.153-.012-.3.144-.449.025-.166.036-.4-.072-.485.083-.26-.215-.733-.25-.97-.514-.32.18-.485.574-.851.777a11.027 11.027 0 00-1.018 1.149 1.929 1.929 0 01-.235.514 10.859 10.859 0 00-.842 1.233c-.177.1-.154.383-.319.491.011.144-.107.167-.143.264.024.167-.048.383.059.514a.946.946 0 01.307.311c.059.072.214-.023.237.1a.545.545 0 01.51 0c.105.156.271.263.283.478a3.05 3.05 0 01-.457.88c-.23.32-.5.61-.761.9a1.469 1.469 0 00.225 1.125c.153.144.473.036.567.167l.059-.083c.155-.047.355-.1.391-.311.248-.011.26-.347.567-.264.107.083.225.036.284.167.3.06.331.4.4.635.046.359.413.539.626.8.2-.049.651.119.733-.144.036-.047.118-.011.166-.024.107-.059.107-.226.26-.226a4.874 4.874 0 01.733-.516 4.479 4.479 0 00.544-.407c-.023-.226.309-.1.309-.287.023-.047.082-.024.119-.024-.059-.215.212-.2.26-.287.011-.036.048-.036.082-.036v-.059c.166.012.2-.192.343-.192v-.1c-.011-.06.059-.047.107-.047.153-.347.472-.371.649-.694a.34.34 0 00.04-.1c.021-.066.049-.133.137-.125.084-.288.3-.48.309-.719a9.3 9.3 0 00.852-.61c.189-.011.141-.192.319-.228v-.059c.142.011.166-.2.307-.191v-.06c.166 0 .13-.215.26-.264a.429.429 0 01.45.18h.082c.284.719-.544.9-.815 1.316a1.325 1.325 0 00-.261.227c-.287.024-.442.265-.562.533-.062.14-.115.286-.172.413h-.059a5.936 5.936 0 01-.745.9 3.054 3.054 0 00-.758.658 1.331 1.331 0 00-.343.228c-.058.144-.212.06-.26.228-.3.024-.39.288-.592.43-.105-.023-.118.06-.177.1-.224.179-.449.323-.674.478-.13.072-.271.168-.284.288.083.239.272.347.391.49.082.024.189-.048.236.06a1.149 1.149 0 00.615-.06.551.551 0 01.426-.167c.1-.18.248-.2.344-.347.237.119.118-.3.367-.167v-.06a5.287 5.287 0 00.462-.264c-.107-.251.177-.083.224-.251.213-.12.237-.335.426-.491.321.048.355-.3.628-.323a2.7 2.7 0 01.449-.372c.166-.108.189-.252.367-.288.036-.215.213-.262.343-.395-.071-.3.344-.12.319-.406a1.434 1.434 0 00.376-.677 1.542 1.542 0 01.24-.472c.118.011.189-.156.26-.025a4.307 4.307 0 011.052-.095c.059-.072.143-.024.2 0a2.325 2.325 0 01.852-.168c.011-.192.319.013.367-.167.355-.024.626-.156.875-.18a.683.683 0 00.486-.2c.189.025.26-.131.4-.192.248.072.284-.239.51-.18a6.649 6.649 0 01.875-.454c-.023-.18.214-.013.225-.144.047-.144.166-.239.284-.2.189-.2.426-.288.6-.516a1.286 1.286 0 00.39-.323v-.047a1.241 1.241 0 00.284-.264c.023-.132.2-.083.177-.263a.705.705 0 00.344-.372 1.149 1.149 0 01.141-.2c.2-.131.107-.527.39-.6.036-.06-.011-.2.118-.169.072-.192.273-.3.426-.406.025-.072.048-.216.166-.168.023-.251.343-.047.343-.323l.023.036.344-.263c.189.095.153-.192.342-.083.048-.18.32-.1.4-.264-.04-.129-.231-.212-.171-.392zm1.053-1.783c-.118-.167-.225-.347-.344-.514-.023-.4-.4-.719-.592-1.03-.048-.431-.4-.622-.508-1.041h-.059c0-.227-.225-.227-.225-.431-.153-.049-.107-.288-.237-.311-.107-.155-.142-.312-.248-.491a1.325 1.325 0 01-.462-.6c-.105-.023-.13-.228-.189-.263-.023-.048-.082-.083-.059-.143-.189-.049-.094-.216-.224-.311-.143 0-.059-.216-.2-.24.048-.226-.389-.167-.426-.047-.2 0-.094.311-.2.395v.144a.838.838 0 00.166.228.1.1 0 01.035.1c.13-.036.071.155.166.142a6.057 6.057 0 01.319.539 3.972 3.972 0 01.733 1.005c.132.432.426.48.51.9.13 0 .1.167.141.25.248.061.214.372.367.491 0 .2.213.156.177.372a1.783 1.783 0 01.284.431 17.055 17.055 0 01.852 1.758c.189.216.2.516.367.743l.143-.061c.342.047.342-.144.508-.347-.251-.544-.535-1.105-.795-1.668z"/>
  <path class="a" d="M56.769 14.731a.1.1 0 00.082.1.852.852 0 01.651.575c-.082.155.178.25 0 .37.189.18.248.443.462.574.023.276.39.48.449.779.107.323.51.67.26 1.053a.575.575 0 01-.426.2c-.023-.059-.071-.108-.141-.083a4.361 4.361 0 00-.71-1.172 5.958 5.958 0 00-.508-.815 30.815 30.815 0 01-.628-.622.937.937 0 01.025-.814c.2-.012.255-.192.484-.145zM46.004 18.573c.012-.036.048-.036.084-.036.165.227.449.527.283.838-.035.011-.094-.024-.118.024v.059c-.189-.048-.3.227-.426 0-.2.036-.284.216-.366.347-.166.12-.367.168-.367.432h-.082a95.8 95.8 0 00-1.621 1.663c-.177-.049-.107.25-.284.2a3.406 3.406 0 00-.344.371c-.2.156-.271.275-.449.395.012.239-.3.251-.426.323-.012-.155-.177-.036-.225-.144a.652.652 0 01-.142-.49c.094 0 .059-.12.107-.168a1.384 1.384 0 00.59-.55c.249-.023.2-.275.426-.371s.261-.431.521-.49v-.049c.214-.035.237-.275.366-.382l.248-.252c.143-.059.189-.239.284-.323.13.059.107-.085.141-.144a3.3 3.3 0 00.344-.371 4.729 4.729 0 00.686-.861c.095-.011.143-.156.2-.228a.645.645 0 01.57.207zM48.795 20.428a.494.494 0 01-.034.624c-.118.275-.6-.072-.651.323l-.118.06c-.153.3-.5.454-.674.742-.237-.011-.214.239-.344.311a4.6 4.6 0 01-.567.467c-.155.18-.366.358-.509.514-.035.013-.094-.023-.119.024v.059c-.023 0-.071 0-.082.036v.049c-.308.131-.414.454-.686.575-.048.023-.013.083-.025.12-.071.072-.237 0-.225.143-.035 0-.071-.012-.082.024v.06a.1.1 0 00-.094.036c-.036.2-.355.107-.391.37a4.323 4.323 0 00-.792.658c-.059 0-.225-.047-.237.083h-.39c-.107-.083-.131-.262-.2-.395.036-.072.059-.251.166-.264.071-.191.319-.167.4-.37.059-.013.13.023.165-.036a.7.7 0 00.177-.228 6.3 6.3 0 00.651-.514c.214-.085.319-.36.569-.432.082-.167.366-.2.426-.431a2.008 2.008 0 00.485-.406c.3-.156.4-.467.709-.6a3.628 3.628 0 01.509-.6l.023.023c.308-.455.829-.814 1.172-1.292a.855.855 0 01.768.267zM102.225 14.515c-.045-.1.012-.258-.133-.3-.077-.461-.245-.789-.358-1.251-.2-.108-.1-.382-.179-.589a.328.328 0 00-.105-.141c-.111-.252-.222-.479-.319-.756a1.377 1.377 0 00-.212-.454c-.231-.284-.2-.776-.541-.976.011-.248-.165-.416-.24-.629-.1-.177-.245-.259-.248-.457-.15-.192-.2-.478-.412-.612-.177-.131-.078-.436-.319-.5.105-.452-.377-.3-.358-.72-.023-.026-.144-.069-.1-.153a.924.924 0 00-.4-.315c-.045.183-.365-.03-.446.151-.227-.109-.241.187-.468.065-.12.229-.48.125-.6.392-.205-.059-.194.213-.387.192-.075.294-.426.2-.557.419-.159.017-.215.176-.351.194v.085c-.2.066-.105.4-.348.392a1.515 1.515 0 00-.208.793c.006.148.216.331 0 .445-.222.063-.283.308-.424.462-.3.183-.333.626-.681.759a.727.727 0 00-.172.559 3.492 3.492 0 00-.31.419.43.43 0 01-.388.167v.061c-.113.057-.244.014-.355.021v.049a.091.091 0 01-.088.033c-.053-.163-.277-.075-.41-.105-.084.217-.193-.059-.354-.017v.049c-.015.037-.051.035-.087.033-.011-.024-.036-.039-.021-.062-.1.045-.3-.15-.357.045l-.058-.089c-.11 0-.229-.036-.271.073-.01-.037-.059-.052-.045-.088-.121-.019-.257.013-.352-.053v-.062l-.186.089-.045-.1-.125.056v-.025l-.46-.083v-.029l-.644-.066a.578.578 0 00-.473-.047 3.225 3.225 0 01-.937.192v.06c-.267-.025-.384.131-.649.056v.062c-.063.046-.159.006-.232.014v.062c-.063.046-.16.017-.246.013v.062c-.208 0-.333.07-.553.061v.062c-.088.058-.2.015-.294.023.027.186-.219-.023-.215.163-.066-.164-.089.069-.206-.01v.062c-.052.047-.135.006-.209.014a.462.462 0 01-.444.128v.061c-.027.049-.1.021-.147.019v.062c-.027.06-.1.02-.148.03v.049c-.049.01-.115.105-.173.029 0 .025.009.075-.027.085-.108-.03-.165.128-.194.226-.214.114-.3.431-.432.609.012.31-.275.421-.275.691a4.5 4.5 0 00-.388 1.02c-.129.154-.084.49-.351.465-.106.18-.439 0-.478.3a1.589 1.589 0 00-.686.325.355.355 0 00-.244.137.286.286 0 01-.3.1c-.013.282-.313.183-.476.274a.3.3 0 01-.277.173v.06c-.014.037-.05.023-.086.022v.062c-.17-.033-.264.16-.365.217-.026.048-.1.02-.147.017a4.375 4.375 0 01-.694.511c.037.249-.183.288-.335.392-.118.18-1.87 1.112-2 1.253-.182-.033-.134.266-.281.284v.049a3.8 3.8 0 00-.655.439c-.058.194-.279.222-.312.4-.211.089-.348.4-.583.479a3.034 3.034 0 00-.03 1.382c.02.091.046.186.076.287.257.248.436.589.9.574v.061c.209-.027.338.115.559.076.146-.24 2.152-.851 2.25-1.143a5.024 5.024 0 00.944-.5 5.506 5.506 0 01.771-.422 3.459 3.459 0 01.688-.387c.12-.229.378-.242.521-.445a8.454 8.454 0 011.031-.644c.048.027.009.086.019.124a1.573 1.573 0 00-.4.451c-.244-.023-.24.433-.522.458-.284.357-.646.526-.98.868l-.048.047a1.669 1.669 0 01-.5.433v.062c-.027.047-.073.009-.111.019v.062c-.026.049-.087.02-.123.019-.03.123-.166.141-.216.2-.031.109-.061.232-.217.176-.4.635-.935 1.228-1.4 1.885a1.226 1.226 0 01-.489.57c.1.153-.118.439.061.534a1.536 1.536 0 00.336.942 2.151 2.151 0 01.374.363l.146.007a.105.105 0 01.081.1.679.679 0 01.316.04v.06l.414.02c.105-.193.45.033.556-.16.166-.153.455-.052.553-.32.153.118.144-.216.322-.108v-.086a3.1 3.1 0 00.758-.557c.078-.108.214-.138.279-.222.073-.01.1-.144.2-.089.021-.184.231-.249.406-.327v-.062c.016-.062.073-.022.111-.032.2-.275.492-.36.677-.648.221-.014.163-.363.429-.3.114.166.063.472.228.628a1.089 1.089 0 00.537.556c.062.238.339.04.339.313l.193.046c.068.386.566.163.782.246l.065-.1c.205.059.313-.171.567-.122.156.341.349.906.8.963.03.138.219.023.224.184.108.042.307-.061.325.1.209-.014.521.1.614-.058.192.084.179-.177.358-.094 0-.161.169-.2.281-.259.136-.3.505-.384.726-.682.063-.035.009-.184.128-.143.046-.194.252-.186.312-.393.313-.194.391-.278.8-.171v.024c.1.029.385.117.466-.029.036.014.021.05.02.088.045-.2.3.027.338-.17.229.049.254-.21.45-.238.234-.039.3-.245.479-.335v-.062c.026-.047.085-.009.123-.019.434-.436 1-.979 1.443-1.416a2.206 2.206 0 01.514-.543 1.416 1.416 0 00.143-.24.568.568 0 01.323-.331 1.459 1.459 0 01.375-.49c.468-.608.9-1.168 1.4-1.823.036-.258.307-.32.375-.49a3.9 3.9 0 00.98-.868c.36-.118.5-.593.826-.7.032-.145.218-.223.273-.344.176-.016.258-.163.356-.281a.408.408 0 01.188-.14c.023.026.071.053.056.089.183-.016.434.1.528-.062.08.14.051-.046.146.007.036 0 .032.1.036.026.116-.118.331-.046.411-.19.2.121.19-.176.394-.068v-.062c.026-.049.1-.007.147-.017.087-.292.55-.308.615-.651 0-.161.238-.125.162-.327a2 2 0 00.046-1.908z"/>
  <path class="c" d="M78.398 22.271c-.053-.138.211-.052.157-.2.244 0 .316-.245.537-.272a1.043 1.043 0 00.453-.3c.023.015.048.027.033.063.019-.135.238-.15.269-.259.349.091.284-.357.6-.33.059-.207.327-.219.408-.364.013-.036.049-.022.085-.02.043-.121.14-.117.182-.239.348-.12.417-.56.82-.579.025.026.071.053.058.089.015-.049-.019-.112.032-.147.286.137.209-.324.508-.186v-.05c.039-.059.1-.02.147-.029.124-.056.084-.219.078-.356a7.126 7.126 0 01-.473-1.948l-.065.095a.77.77 0 00-.473.213c-.432.091-.631.428-1.051.544-.16.314-.566.344-.758.557-.6.133-.7.609-1.155.946-.318.294-2.361 1.459-2.693 1.777-.075.045-.058.194-.215.163-.143.179-.51.458-.595.713a1.329 1.329 0 00.279 1.125c.185-.016.424.069.551-.036s.3.088.335-.133c.156.044 1.775-.919 1.946-.837zm6.512-.079a1.707 1.707 0 01-1.049-.025v-.024l-.182-.009a.1.1 0 01-.081-.091.572.572 0 01-.365-.312c-.1-.141.01-.47-.211-.455-.572.468-1.081.95-1.628 1.431h-.085c-.033.2-.332.318-.462.485-.221.039-.207.236-.452.275v.062a2.367 2.367 0 00-.949 1.017c-.306.271-.445.635-.751.916-.208.3-.593.429-.649.86a1.173 1.173 0 00.212.455c.035.013.022.05.02.086.157.032.219.258.43.193.163.182.485.085.726.132v-.06c.218.035.323-.134.485-.187.017-.124.225-.114.267-.223.074-.292.423-.19.5-.458.319-.023.424-.462.781-.52.063-.059.011-.246.154-.177.2-.14.3-.395.547-.469a6.3 6.3 0 01.587-.564c.09-.1.179-.19.281-.284.015-.06.073-.022.111-.032.075-.318.458-.4.533-.717.232-.013.244-.272.453-.3.241-.363.512-.684.772-1.005zM98.471 16.6a4.216 4.216 0 00-.928-1.056c-.189-.4-.584-.559-.8-.89a4.082 4.082 0 00-.426-.317c-.073-.262-.42-.167-.418-.464-.566-.435-1.107-.9-1.673-1.326l-.27.284c-.26.075-.606.194-.866.256a8.635 8.635 0 01-1.735.03c-.038.01-.084-.04-.083-.091l-.522-.049v-.062c-.369.082-.576-.2-.932-.167v-.025c-.227-.121-.553.073-.788-.122-.188.1-.487-.023-.639.118-.277-.1-.374.167-.687.055-.105.167-.319.022-.385.154-.216-.072-.371.12-.551.036-.033.2-.279-.024-.3.171a5.059 5.059 0 00-1.015.3c-.215-.109-.2.187-.419.078.013.236-.27.013-.325.158-.284.6-.53 1.161-.814 1.766a9.975 9.975 0 01-.772 1.421 6.476 6.476 0 00.469 2.566l.009.068a4.222 4.222 0 01.2 1.7c.072.04.138.167.237.158.037-.01.1.017.082.066.026-.023.052-.072.088-.058.011.013.036.039.022.062l.125-.055c.006.124.143.081.227.1.127-.105.4-.081.37-.341.348-.107.319-.553.418-.87h.036a4.973 4.973 0 00.032-.672 4.35 4.35 0 00-.286-1.5h-.038c-.086-.226-.042-.409-.117-.624.078-.107.109-.278.257-.284l.046.063c.133-.5.125.192.413.045-.114.34.3.323.264.629.131.056.15-.091.179-.164.215.1.215-.176.417-.066.048-.233.394-.069.57-.184 0-.086.1-.094.175-.078.16.242.413.315.5.554l.064-.059c.214.145.349.374.655.364.111.252.423.094.547.321.131.081.453-.04.542.137l.768.036a1.531 1.531 0 00.769-.285l.082.091c.032-.16.259-.05.394-.069v-.06a.5.5 0 01.378.017v.062h.085a.871.871 0 01-.006.655.934.934 0 01-.541.357c-.118.193-.434.166-.658.229-.153-.118-.426-.032-.6-.115 0-.073-.143-.081-.2-.157a1.46 1.46 0 01-.843.022v-.06c-.157-.033-.406.055-.472-.109-.084-.016-.2.016-.254-.036v-.062a.438.438 0 01-.384-.166h-.085c-.049.01-.146-.019-.105-.091-.073 0-.17-.022-.179-.108a.749.749 0 01-.39-.278c-.274.135-.134-.278-.382-.166a.649.649 0 01-.41.154c-.042.1-.137.043-.21.052v.062c-.063.046-.159 0-.232.013a6.344 6.344 0 01.066.9 6.237 6.237 0 01-.152 1.506 4.937 4.937 0 011.586-.791c.068-.132.254.049.276-.135.217.059.43-.066.584.027.157.032.417-.055.459.108a1.8 1.8 0 01.383.166c.069.1.188.181.244.284h.061c.037.261.25.419.114.708l.817.039c.023.037.071.053.056.1h.085c.061-.009.159.007.118.092.214.134.484.1.595.324a1.163 1.163 0 01.391 1.056c-.127.13-.126.364-.256.52a.552.552 0 01-.615.1 1.449 1.449 0 00-.016-.989c-.27.024-.157-.3-.466-.219-.014-.2-.293 0-.307-.2l-.065.083a2.277 2.277 0 00-1.056.135c-.056-.114-.12-.3-.043-.385-.029-.187.118-.451-.1-.549-.118-.079-.222-.232-.365-.312l-.547-.026a.372.372 0 01-.3.085v.049c-.237.1-.517.112-.661.328a1.753 1.753 0 00-.843.528l-.035-.039a7.383 7.383 0 00-1.308 1.1c-.063.059-.069.194-.179.164v.062a.1.1 0 01-.1.032c-.128.118-.186.325-.36.392-.115.389-.372.909-.1 1.367.085 0 .092.1.078.176h.1c.036.014.021.063.02.088.023.037.007.124.082.091.048 0 .071.052.056.1h.085c.049-.01.071.04.056.089l.146.006c.091.166.351.079.521.111.084.042.14-.117.189-.138.064-.047.147-.019.232-.014v-.062c.027-.061.075-.021.111-.032.081-.168.322-.1.4-.278l.022.039c.426-.475.719-1.017 1.114-1.405.114-.094.152-.376.312-.393v-.062c.222-.063.522-.235.733-.027.052.472-.469.645-.595 1.009-.045.158-.229.2-.248.347-.336.132-.366.538-.535.778h-.062c.016.2-.16.3-.25.4a1.372 1.372 0 00.347.671c0 .16.3.026.2.243.079-.144.279.05.3-.047.007.111.118.092.2.108.068-.145.26-.086.349-.168a.59.59 0 01.365-.243c-.01-.049.043-.145.128-.117-.014-.248.292-.258.374-.452.248-.088.217-.459.512-.52l.225-.372c.18-.215.274-.408.442-.6.1.055.205.059.224.183.192.072.252.346.449.318a2.723 2.723 0 00.59-.083v-.062c.027-.06.087-.02.124-.032a.654.654 0 01.429-.325c.1-.206.283-.308.424-.462.248-.075.276-.419.583-.478.074-.281.38-.291.491-.57s.434-.412.531-.68c.177-.14.212-.36.436-.461a5.3 5.3 0 01.43-.6 2.043 2.043 0 01.44-.547c.161-.245.346-.524.511-.8.078-.128.15-.256.215-.379.421-.141.7-.573 1.041-.866.2.083.046-.22.24-.174v-.062c.195 0 .136-.289.368-.3a.536.536 0 01.331-.305 5.079 5.079 0 01.439-.523c.222-.04.281-.259.423-.426-.207-.06-.207-.332-.374-.426zm1.218-1.018a19.442 19.442 0 00-.922-1.722c-.169-.033-.123-.24-.215-.344a1.5 1.5 0 01-.359-.423c-.4-.526-.752-.924-1.167-1.45-.254-.049-.254-.321-.4-.439-.027-.174-.225-.134-.241-.333-.144-.03-.232-.233-.316-.287l-.079-.151c-.176-.4-.355.033-.589.1-.147.264-.383.327-.55.53-.149.03-.208.262-.307.318.02.088-.043.134-.071.207.1.166.39.278.505.431.373.13.574.534.824.694l.024-.024c.055.127.251.111.28.272a1.247 1.247 0 00.544.409c-.036.233.26.184.277.345a3.193 3.193 0 01.664.687c.287.137.393.5.678.648.006.161.261.161.253.37.372.376.6.708.88 1.043.188-.128.232-.287.436-.474-.04-.118-.047-.315-.154-.407z"/>
</svg>
