<svg xmlns="http://www.w3.org/2000/svg" viewBox="0 0 114.603 36">
  <defs>
    <style>
      .a{fill:#282828}
    </style>
  </defs>
  <path class="a" d="M57.609 21.2a7.386 7.386 0 01-.429 2.645 5.1 5.1 0 01-1.2 1.871 4.9 4.9 0 01-1.859 1.12 7.475 7.475 0 01-2.419.369 6.639 6.639 0 01-3.276-.739 7.688 7.688 0 01-2.18-1.763l2.311-2.573a6.624 6.624 0 001.442 1.227 3.039 3.039 0 001.608.441 2.111 2.111 0 001.644-.655 3.084 3.084 0 00.6-2.109V10.286h3.765zM83.568 26.967l-1.525-3.741H74.99l-1.525 3.741h-3.741l7.149-16.8h3.383l7.149 16.8zm-5.052-12.391l-2.216 5.41h4.432zM110.313 26.966l-3.741-5.719-3.765 5.719h-4.17l5.814-8.483-5.576-8.2h4.29l3.5 5.409 3.527-5.409h4.17l-5.576 8.149 5.814 8.531z"/>
  <g>
    <path class="a" d="M21.968 6.271c-4.544 5.383-5.485 6.113-6.43 6.043s-3.195-3.33-5.916-6.166-3.771-2.707-4.31-1.309 4.76 8.969 4.951 9.8-2.166.156-2.166.156c-.84.1-1.43 2.211-.668 2.756l3.724 1.329s-4.014 7.241-4.849 8.592a4.3 4.3 0 012.413 1.4l6.671-6.823s4.732 5.517 7.29 6.706 1.831-1.627 1.831-1.627l-3.531-6.763 4.626.2a4.881 4.881 0 01.369-3.435l-5.809-1.81 3.8-7.555a1.7 1.7 0 00-1.996-1.494z"/>
    <g opacity=".75">
      <path class="a" d="M8.094 14.791a4.06 4.06 0 10-.668 2.756c-.762-.545-.171-2.66.668-2.756zM29.218 3.985a3.985 3.985 0 10-7.25 2.284 1.7 1.7 0 011.992 1.493 3.985 3.985 0 005.258-3.777zM6.301 27.467a4.308 4.308 0 103.467 4.225 4.312 4.312 0 00-3.467-4.225z"/>
      <circle class="a" cx="4.864" cy="4.864" transform="translate(25.444 14.468)" r="4.864"/>
    </g>
  </g>
</svg>
