<?xml version="1.0" encoding="utf-8"?>
<!-- Generator: Adobe Illustrator 24.2.1, SVG Export Plug-In . SVG Version: 6.00 Build 0)  -->
<svg version="1.1" id="Layer_1" xmlns="http://www.w3.org/2000/svg" xmlns:xlink="http://www.w3.org/1999/xlink" x="0px" y="0px"
	 width="145.5px" height="120.1px" viewBox="0 0 145.5 120.1" enable-background="new 0 0 145.5 120.1" xml:space="preserve">
<path stroke="#222222" stroke-miterlimit="10" d="M144.2,51.7c-2.4-7.2-11.2-10.5-14.5-17.3c-1.6-3.3-1.9-7.2-3.6-10.5
	c-3.7-7-12.9-8.9-19.2-13.8c-2.8-2.2-5.2-5.1-8.6-6.3c-2.3-0.8-4.8-0.6-7.3-0.7c-6.6-0.2-12.9-2.5-19.5-2.7
	c-7.2-0.1-14.1,2.3-20.9,4.7c-5.7,2-11.3,4-17,6c-2.5,0.9-5.1,1.9-6.6,4c-0.9,1.3-1.3,2.8-1.8,4.3c-1,3.1-2.4,7.6-5.9,8
	c-3.7,0.3-7.2,1.9-9.3,5.1c-2,3-2.5,6.7-3.1,10.3c-1.5,9.7-3.7,19.4-6.5,28.8C0.7,82.7,3.1,93.8,7.6,104c0.9,2.2,2,4.3,3.5,6.1
	c3.6,4.2,9.4,5.8,14.8,6.9c19.5,3.9,39.9,3.5,59.2-1.1c4.2-1,8.4-2.2,12.7-2.4c4.9-0.2,9.7,0.8,14.5,1s10.1-0.6,13.7-3.7
	c3.9-3.4,5.3-8.9,5-14.1c-0.1-2.6-0.6-5.3,0.3-7.7c1.3-3.2,4.7-5,7.2-7.4c5.5-5.4,6.1-14,6.4-21.8C145,57.1,145.1,54.3,144.2,51.7z"
	/>
<g>
	<path fill="#F7AEA8" d="M126.4,55.4c0,0.7,0.3,1.3,0.9,1.7c0.7,0.4,1,1.1,1,1.9c0,0.5,0.1,1.1,0.2,1.6c0.1,0,0.1,0,0.2,0
		c0-0.2,0.1-0.4,0.1-0.6c0.1-0.7,0-1.5,0.2-2.1c0.2-1,0.1-1.8-0.4-2.7c-0.4-0.6-0.8-1.2-1.2-1.8c-0.4,0.7-0.7,1.2-0.9,1.7
		C126.4,55.1,126.4,55.3,126.4,55.4z M13.2,38.6c0.3,0.2,0.7,0.5,1,0.7c0.1,0,0.2,0,0.3,0c0.2,0,0.4,0,0.7,0c0.9,0,1.9,0.1,2.8,0.1
		c0.3,0,0.6,0.1,0.6-0.3c0-0.3,0.1-0.7,0.2-1.2c-1.2,0-2.4,0-3.6,0c-0.6,0-0.6,0.2-0.4,0.7c0,0.1,0,0.3,0,0.4
		c-0.2-0.1-0.4-0.1-0.5-0.2c-0.3-0.4-0.4-0.8-0.2-1.3c-0.1,0-0.2-0.1-0.3-0.1c-0.4-0.3-0.7-0.3-1,0.1C12.7,38,12.9,38.4,13.2,38.6z
		 M55.8,79.4c0,0.1,0.1,0.1,0.1,0.2c0.6,0,1.2,0,1.8,0c0.3,0,0.6-0.2,0.6-0.6c0-1,0-1.9,0-3C57.5,77.2,56.6,78.3,55.8,79.4z
		 M9.1,69.2c0.1,0.7,0.3,1.3,0.4,2c0.1,0,0.2,0,0.3-0.1c-0.2-0.7-0.3-1.3-0.5-2C9.2,69.1,9.2,69.2,9.1,69.2z M131.2,58.6
		c0.4-0.4,0.8-0.8,1.2-1.2c0.6-0.7,0.7-1.6,0.5-2.4h-1.2c-0.6,1.7-1.2,3.4-1.8,5.1C130.4,59.6,130.8,59.1,131.2,58.6z M129.9,65.2
		c-0.1-0.5-0.1-1.1-0.2-1.6c-0.3,0.1-0.6,0.1-0.8,0.2C128.9,64.5,129.2,65,129.9,65.2z M129.5,58.5c0.1,0,0.1,0,0.2,0
		c0.3-0.7,0.5-1.4,0.8-2c0.4-0.7,0.4-1.4,0.2-2.1c-0.7-0.2-1.3-0.3-2.1-0.5C129.6,55.3,130.3,56.7,129.5,58.5z M129.1,62.1
		c-0.1,0.4-0.2,0.8-0.2,1.2c0.1,0,0.2,0,0.2,0.1c0.1-0.4,0.2-0.8,0.3-1.2L129.1,62.1z M99.1,73.7c1-1.5,1.9-3,2.8-4.6
		c1-1.6,1.9-3.2,2.8-4.8c0.6-0.9,1-2,1.7-2.8c0.5-0.6,0.7-1.1,0.7-1.8c0-1.1,0-2.2,0-3.4c-4.3,7-8.5,14-12.8,21
		c0.8,0.1,1.4,0.2,2,0.2c0.1,0,0.3-0.2,0.4-0.3c0.3-0.4,0.5-0.9,0.8-1.3C98,75.2,98.6,74.5,99.1,73.7z M133.6,64.9
		c-0.2-0.1-0.2-0.4-0.3-0.6c-0.4-0.9-0.4-2.1-1.5-2.7c-0.3-0.2-0.3-0.6-0.1-0.9c0.7-0.9,1.4-1.9,2.2-2.8c0.6-0.7,0.7-1.5,1.1-2.2
		c-0.5-0.2-1-0.4-1.5-0.6c0,0.2,0.1,0.4,0.1,0.6c0.1,0.5-0.4,2-0.7,2.4c-0.7,0.7-1.4,1.5-2.1,2.3c-0.1,0.2-0.3,0.3-0.4,0.5
		c-0.1,0.5-0.7,1.1,0.1,1.6c0.1,0,0.1,0.2,0.1,0.4c0,1,0,2.1,0.6,3c0.1,0.1,0.1,0.3,0.1,0.4c-0.3,1.3,0.4,2.2,1,3.2
		c0.1-0.1,0.1-0.1,0.1-0.2c0.5-1.2,0.9-2.4,1.4-3.6C133.9,65.4,134,65.2,133.6,64.9z M20,35.3c0.1,0.1,0.2,0.3,0.4,0.4
		c0.4,0.1,0.8,0.1,1.2,0c0.2,0,0.4-0.1,0.6-0.2c0,0,0-0.1,0-0.1c-0.7-0.1-1.4-0.1-2.1-0.2C20.1,35.3,20.1,35.3,20,35.3z M136,55.9
		c0-0.1-0.1-0.2-0.2-0.4c-0.2,0.5-0.5,0.9-0.5,1.3c-0.1,0.5-0.4,0.9-0.7,1.2c-0.4,0.4-0.8,0.7-1.1,1.1c-0.4,0.5-0.6,1-1,1.5
		c-0.3,0.3-0.2,0.6,0.1,0.8c0.5,0.4,0.8,0.9,1,1.6c0.1,0.4,0.4,0.7,0.5,1.1c0.1,0,0.2,0,0.2-0.1c-0.1-0.5-0.2-1-0.3-1.5
		c-0.2-1.1,0.1-2.1,0.8-2.9C136.2,58.1,136.3,57.8,136,55.9z M131.9,71.1c-0.3-0.8-0.6-1.6-0.9-2.4c-0.1-0.3-0.4-0.7-0.5-1
		c-0.2-0.8-0.7-1.4-1.3-1.9c-1-0.7-1.2-1.7-1-2.8c0.1-0.5,0.2-1.1,0-1.4c-0.4-0.8-0.5-1.5-0.6-2.3c0-1.1-0.2-1.4-1.3-1.6
		c-0.4-0.1-0.7-0.2-0.5-0.8c0.1-0.1,0-0.3,0-0.5c-0.1-0.8-0.2-1.5,0.3-2.2c0.2-0.2,0.1-0.6,0.2-0.9c0.1-0.5-0.5-1.2,0.3-1.6
		c0,0,0-0.1,0-0.2c0.1-0.3,0.1-0.6,0.2-0.9c0.2-0.9,0.2-1.2-0.6-1.6c-0.5-0.3-0.5-0.5-0.2-0.9c0.3-0.3,0.3-0.5,0-0.8
		c-0.3-0.3-0.5-0.1-0.8,0.1c-0.5,0.4-1.5,0.4-1.9,0c-0.4-0.4-0.4-1.1,0.1-1.8c0.1-0.2,0.2-0.5,0.3-0.7c0.1-0.3,0.1-0.6,0.1-1
		c0-0.2-0.1-0.4-0.2-0.6c0,0-0.3,0-0.5,0.1c-0.5,0.3-1.4,0.2-1.6-0.2c-0.4-0.8-1.2-1.7-0.3-2.6c-0.5-0.6-0.5-1.2,0-1.7
		c0.4-0.4,0.2-0.6,0-0.9c-0.2-0.3-0.5-0.4-0.9-0.1c-0.1,0-0.1,0.1-0.2,0.1c-0.3-1.7-1.4-3.2-2.5-4.5c-2.5-3.1-5.3-6.1-8.3-8.8
		c-2.4-2.2-4.9-4.2-8-5.1c-1.5-0.4-3.1-0.5-4.6-1.1c-1.3-0.5-2.4-1.4-3.7-2c0,0,0.1-0.1,0.1-0.1c0.2-0.2,0.4-0.4,0.6-0.3
		c0.2,0,0.3,0.3,0.5,0.5c0.3,0.3,0.5,0.7,0.9,1c0.6,0.4,0.9,0.2,1.2-0.5c-0.3-0.1-0.7-0.1-0.8-0.3c-0.2-0.5-0.5-1-0.5-1.6
		c0-0.6,0-0.7-0.6-0.5c-0.2,0.1-0.5,0.2-0.7,0.2c-0.2,0-0.5,0.1-0.7,0c-0.6-0.4-1.1-0.4-1.5,0.2c0,0.1-0.2,0.1-0.2,0.2
		c-0.1,0.2-0.4,0.5-0.3,0.7c0,0,0.1,0.1,0.1,0.1c-1.5,0-3,0.5-4.3-0.2c-0.6-0.3-1-0.9-1.6-1.2c-2.4-1.3-5.6,1.3-8,0
		c-0.5-0.3-0.8-0.7-1.3-0.9c-2-1-4.8,0.8-6.4-0.6c0.6-0.3,1.1-0.7,1.7-1c-1.7,0.1-3.3,0.3-5,0.4c-3.1-1.1-6.4-1.4-9.7-0.8
		c0.2,1.4-1.3,2.5-2.6,3.1c-1.3,0.6-2.9,1.3-3.2,2.7c-1.4-0.9-3.1-1.3-4.7-1c-2.1,0.4-3.8,1.8-5.4,3.1c-1.6,1.3-3.1,2.6-4.7,3.8
		c0.2,0.6-0.4,1.2-1,1.4c-0.6,0.2-1.3,0.1-1.9,0.2c-1.5,0.3-2.3,1.9-3.1,3.2c-0.5,0.8-1.1,1.6-1.9,2.1c-0.6,0.3-1.6,0.2-2,0.8
		c-0.3,0.5-0.1,1.3-0.1,1.9c-0.2,0-0.3,0-0.5,0.1c-0.3,0-0.7-0.2-1.1-0.3c0,0,0,0.1,0,0.2c-0.1,0.9-0.8,1.2-1.4,0.6
		c-0.5-0.4-0.9-0.5-1.4-0.3c-0.1,0-0.3,0-0.4,0c-1.2-0.1-2.4,0-3.2,1.1c0,0.1-0.1,0.1-0.2,0.1c-0.3,0.2-0.5,0.2-0.8-0.1
		c-0.4-0.5-0.6-0.5-1.1,0c-0.8,0.9-0.8,2-0.9,3.1c0.6,0,1.2,0,1.8,0c0.4,0,0.6-0.1,0.6-0.5c0-0.2,0-0.3,0-0.5c0-0.2,0.1-0.3,0.2-0.5
		c0.1,0.2,0.3,0.3,0.3,0.5c0.1,0.3-0.1,0.8,0.1,0.9c0.2,0.2,0.6,0.1,1,0.1c0.1,0,0.2,0,0.3,0c0.9,0.1,1.9,0.1,2.9,0.2
		c0-0.4,0.1-0.8,0.1-1.2c-0.2,0-0.4,0-0.6,0c-1.1,0.3-1.9,0.1-2.2-1.1C19,35,19,34.8,18.9,34.6c0.3-0.1,0.6-0.2,0.8-0.2
		c0.7,0,1.4,0.2,2.1,0.2c1.1,0,2.2,0,3.3,0c-0.1,0.2-0.2,0.5-0.4,0.7c0,0-0.1,0-0.1,0c0,0,0,0,0.1,0c-0.1,0.3-0.3,0.5-0.4,0.8
		c0,0,0,0.1-0.1,0.1c-0.5,0-0.9,0-1.4,0c-0.1,0-0.3,0.1-0.3,0.2c-0.1,0.3-0.1,0.6-0.2,1.1h1.1c-0.1,0.2-0.2,0.4-0.3,0.6h-3.5
		c-0.2,0.4-0.3,0.8-0.6,1.3h3.3c-0.1,0.2-0.2,0.4-0.3,0.6c-2.4,0-4.7-0.1-7.1-0.1c-0.7,0-0.8,0.1-0.6,0.8c0.1,0.7,0.3,1.3-0.3,1.9
		c-0.1,0.1-0.1,0.3,0,0.4c0.3,0.9-0.2,1.5-0.9,2c0.2,0.8-0.2,1.6-1,2c-0.6,0.3-0.8,2.1-0.2,2.5c0.1,0,0.1,0.1,0.2,0.1
		c1,0.3,1.3,1.1,0.7,1.9c-0.3,0.4-0.6,0.8-0.7,1c0.2,0.4,0.4,0.6,0.6,0.9c0.2,0.4,0.2,1-0.1,1.2c-0.6,0.3-1,0.7-1.2,1.4
		c-0.3,1-0.6,2.1-0.4,3.2c0.1,0.4,0.1,0.9,0.1,1.3c-0.2,1.8-0.8,3.4-1.4,5.1c-0.4,0.9-0.4,1.8-0.1,2.7c0.2,0.5,0.5,1,0.5,1.6
		c0.1,1.1,0.1,2.2,0.2,3.2c0,0.3,0,0.5,0.1,0.8c0.2,0.6,0.5,1.1,0.6,1.7c0.4,1.4,0.7,2.9,1,4.3c0.1,0.4,0,0.9,0.2,1.1
		c0.2,0.2,0.7,0.1,1.1,0.1c3.9,0,7.8-0.4,11.7-0.8c2.4-0.3,4.9-0.7,7.3-1c0.4-0.1,0.6-0.2,0.5-0.7c-0.1-1.1,0-2.2-0.1-3.4
		c-0.1-2.1-0.1-4.1-0.2-6.2c0-1.9-0.1-3.8-0.1-5.7c0-0.4,0-0.8,0-1.2c0.2,0.1,0.4,0.2,0.6,0.2c0,2.2,0.1,4.4,0.1,6.6
		c0,1.4,0,2.8,0,4.1l0.2,0c0-0.4,0.1-0.8,0.1-1.2c0-1.7-0.1-3.4-0.1-5.1c0-1.4,0-2.9,0-4.3c0.3,0.1,0.6,0.2,0.8,0.2c0,0,0,0,0,0.1
		c-0.1,0.2-0.3,0.4-0.3,0.5c0,0.8,0.1,1.7,0.1,2.5c0,0.3,0,0.6,0,0.9c0.1-0.1,0.2-0.1,0.2-0.1c0.8-1.1,1.7-2.3,2.5-3.4
		c0.3,0,0.5,0.1,0.8,0.1c-0.2,0.3-0.5,0.7-0.7,1c-0.7,0.9-1.3,1.8-2,2.7c-0.3,0.4-0.7,0.8-0.7,1.3c-0.1,1.1,0,2.3,0,3.4
		c0,0.8-0.1,1.7-0.2,2.5c0.1,0,0.1,0,0.2,0.1c0.2-0.3,0.4-0.7,0.6-1c0.5-0.6,1-1.1,1.4-1.7c1.1-1.7,2.2-3.5,3.3-5.2
		c0.6-0.9,1.2-1.8,1.8-2.7c2.6,0.1,5.2,0.1,7.8,0.1c-3.6,5.5-7.3,11-11,16.5c1,0,1.7,0,2.5,0c0.1,0,0.2-0.1,0.3-0.2
		c0.6-0.9,1.3-1.8,1.9-2.6c1.5-2.3,3-4.6,4.5-6.8c0.9-1.4,1.9-2.7,2.9-4.1c0.6-0.9,1.3-1.8,1.9-2.7c0.2,0,0.5,0,0.7,0
		c-3.7,5.5-7.4,11-11.2,16.6c0.3,0.1,0.5,0.1,0.7,0.1c0.6,0,1.2,0,1.8,0c0.3,0,0.6-0.2,0.7-0.4c0.4-0.5,0.7-1,1-1.5
		c0.5-0.9,1.1-1.7,1.6-2.5c0.9-1.3,1.8-2.6,2.7-3.9c0.7-1,1.3-2,2-3c0.8-1,1.6-2,2.3-3.1c0.5-0.8,1-1.6,1.5-2.4c0.5,0,0.9,0,1.4,0
		c0.7,0,1.4,0,2.1-0.1v10c1.4-0.1,2.7-0.1,4-0.2c2.1-0.1,4.2-0.2,6.3-0.4c0.1,0,0.4-0.3,0.4-0.4c0-0.6,0-1.3,0-1.9
		c0-2.2-0.1-4.4-0.1-6.6c0-0.4,0-0.7,0-1.1c0.7-0.1,1.4-0.1,2.2-0.2c0,1.7,0,3.5,0,5.2c0,1.6,0.2,3.1,0.3,4.7c0,0.1,0.3,0.3,0.5,0.3
		c1.4,0,2.8-0.1,4.3-0.2c1.6-0.1,3.2-0.3,4.8-0.4c0.3,0,0.6,0,0.6-0.4c0-1.6,0-3.2,0-4.9c0-0.8,0-1.6,0-2.4c0-1.1,0-2.1,0-3.2
		c1.3-0.2,2.6-0.5,3.9-0.8c0,1.1,0,2.2,0,3.3c0,1.6,0.1,3.2,0.2,4.8c0,0.9,0.1,1.8,0.1,2.7c0,0.8,0,1.6,0,2.5c0,1.1-0.1,2.1-0.1,3.2
		c0,0.1,0.3,0.2,0.4,0.4c0.1-0.2,0.3-0.3,0.3-0.5c0-0.3-0.1-0.5-0.1-0.8c0-1.1,0-2.1,0-3.2c0-1.7-0.1-3.4-0.1-5.2c0-1.1,0-2.2,0-3.3
		c0-1.3-0.2-2.7-0.2-4c0.2-0.1,0.5-0.1,0.7-0.2c0,0.3,0,0.7,0,1c0,1.1,0.1,2.2,0.1,3.3c0,0.1,0.1,0.3,0.1,0.4c0,0,0,0,0.1,0
		c0-1.6,0-3.1-0.1-4.7c0.3-0.1,0.7-0.2,1-0.2c1.7-0.4,3.4-0.9,5.1-1.5c-0.3,0.4-0.5,0.8-0.8,1.3c-0.9,1.5-1.6,3-2.5,4.5
		c-0.5,0.8-0.9,1.6-1.8,1.9v3.9c0.2-0.1,0.3-0.1,0.3-0.2c1-1.3,2-2.6,2.8-3.9c1.2-1.8,2.3-3.8,3.4-5.7c0.5-0.9,1-1.8,1.5-2.7
		c0.3-0.1,0.7-0.3,1-0.4c-0.6,1-1.1,1.9-1.7,2.9c-1.1,1.9-2.2,3.9-3.3,5.8c-1,1.7-2.2,3.2-3.3,4.8c-0.2,0.3-0.5,0.7-0.5,1.1
		c-0.1,1.4,0,2.9,0,4.3c0.1,0,0.1,0,0.2,0.1c0.2-0.4,0.4-0.7,0.7-1.1c1.2-1.9,2.4-3.7,3.6-5.6c1.3-2,2.5-4.1,3.8-6.1
		c1.6-2.5,3.2-4.9,4.8-7.4c0.2-0.3,0.3-0.5,0.5-0.8c1.8-0.9,3.7-1.9,5.4-3c0,2.1-0.1,4.2-0.1,6.2c0,3.5,0.1,7,0.1,10.5
		c0,0.8,0,1.7-0.1,2.5c-0.1,1.7-0.2,3.3-0.4,5c-0.1,0.5,0.2,0.6,0.6,0.5c0.5-0.1,1.1-0.2,1.6-0.2c3.5-0.2,7-0.2,10.5-0.5
		c3.6-0.3,7.3-0.7,10.9-0.4c0.1,0,0.1,0,0.2,0c0.3,0,0.7-0.1,1-0.1c0.1,0,0.3-0.1,0.3-0.2c0-0.4,0.1-0.7,0-1.1
		C132.4,72.9,132.2,72,131.9,71.1z M87.9,66.2c0,0.2-0.1,0.4-0.1,0.6c0,1.9,0,3.7,0,5.6c0,0.7-0.5,1.6,0.5,2.3
		c-0.1-2.9-0.2-5.7-0.3-8.5C88,66.2,88,66.2,87.9,66.2z M107.1,62c-0.1,0-0.1,0-0.2-0.1c-0.2,0.2-0.4,0.4-0.5,0.7
		c-0.5,1-1.1,2-1.6,3c-0.9,1.5-1.8,3.1-2.7,4.6c-1.3,2.1-2.7,4.2-4,6.3c-0.2,0.3-0.4,0.7-0.6,1c0,0,0.1,0.1,0.1,0.1
		c0.3,0,0.6-0.1,0.9-0.1c0.9,0.1,1.7-0.1,2-1.1c0,0,0,0,0,0c0.8-1.2,1.5-2.3,2.3-3.5c1.3-2.1,2.5-4.3,3.9-6.5
		c0.3-0.6,0.6-1.1,0.5-1.8c-0.1-0.7,0-1.3,0-2C107.1,62.4,107.1,62.2,107.1,62z M58.5,70.7c-2,3-4,5.9-6.1,9
		c0.8-0.1,1.5-0.1,2.2-0.2c0.2,0,0.4-0.2,0.5-0.3c0.9-1.1,1.8-2.3,2.6-3.5c0.4-0.5,0.9-1,0.9-1.7c0-0.7,0.1-1.4,0.1-2.2
		c0-0.4,0-0.7,0-1.1C58.6,70.8,58.6,70.7,58.5,70.7z M105.8,77.2c0.9-0.1,1-0.3,0.8-1.4C106.3,76.4,106,76.8,105.8,77.2z"/>
	<path fill="#F7AEA8" d="M120.2,38.9c0-0.1,0-0.2,0-0.3c0.1,0,0.1,0.1,0.2,0.1C120.3,38.8,120.3,38.8,120.2,38.9z"/>
	<path d="M136.3,55.7c-0.1-0.2-0.3-0.4-0.4-0.6c-0.3-0.2-0.6-0.4-0.9-0.6c0,0,0,0,0,0c0,0.1,0.1,0.2,0.1,0.4
		c-0.5,0.1-0.7-0.1-0.8-0.3c-0.1,0-0.2,0-0.3,0c-0.1,0-0.2-0.1-0.4-0.1c0,0.1,0.1,0.3,0.1,0.5c-0.2-0.1-0.4-0.1-0.5-0.2
		c0.1-0.1,0.1-0.2,0.2-0.4c0,0-0.1,0-0.1,0c-0.1,0-0.2,0.1-0.2,0.1c-0.5,0.3-0.9,0.1-1.3-0.1c-0.4-0.2-0.5-0.5-0.4-0.9
		c0-0.1-0.1-0.3-0.2-0.5c0,0,0,0,0-0.1c-0.2-0.1-0.5-0.2-0.7-0.3c0,0.3,0,0.5,0,0.8c-0.8,0.1-1.3-0.1-1.8-1.1
		c-0.1,0.3-0.3,0.6-0.4,0.9c-0.7-0.5-1-1.7-0.6-2.5c0.4-0.8,0.1-1.6-0.6-2.1c-0.1-0.1-0.2-0.3-0.2-0.4c0.1-0.7-0.1-1.2-0.6-1.6
		c-0.5-0.3-0.9-0.2-1.5,0.2c-0.2,0.1-0.5,0.1-0.7,0c-0.1-0.1-0.2-0.5-0.2-0.6c0.3-0.6,0.5-1.2,0.6-1.9c0.1-0.8-0.2-1.8-1-2.2
		c-0.4-0.2-0.7-0.2-0.7,0.3c0,0.4-0.3,0.3-0.5,0.2c-0.6-0.3-0.8-1.5-0.3-1.9c0.4-0.3,0.5-0.5,0-0.8c-0.5-0.3-0.4-0.6,0.1-0.9
		c0.4-0.2,0.4-0.5,0.2-0.8c-0.2-0.3-0.3-0.7-0.5-0.9c-0.2-0.3-0.5-0.5-0.9-0.7c-0.2-0.1-0.4,0.2-0.7,0.2c-0.1,0-0.3,0.1-0.4,0.1
		c-0.2,0-0.4-0.1-0.6-0.2c0.1-0.2,0.1-0.5,0.3-0.7c0.4-0.4,0.4-0.7-0.2-1c-0.6-0.3-0.6-0.4-0.4-1.1c0-0.1,0-0.4-0.1-0.5
		c-0.1-0.1-0.4,0-0.5,0.1c-0.1,0.1-0.2,0.3-0.3,0.5c-0.1-0.1-0.2-0.1-0.3-0.2c0.1-0.2,0.1-0.4,0.2-0.6c0.5-0.6,0.4-0.8-0.1-1.3
		c-0.9-0.7-1-0.7-1.5-0.1c-0.3,0.3-0.5,0.3-0.8,0.1c-0.2-0.2-0.4-0.4-0.6-0.7c0,0,0.1-0.1,0.1-0.1c0.4,0.1,0.8,0.4,1.1-0.2
		c-0.2-0.1-0.3-0.2-0.5-0.2c-0.9-0.4-1.2-1-0.8-1.9c0.1-0.3,0.1-0.6-0.3-0.6c-0.6-0.1-1.2-0.2-1.7-0.3c-0.2,0-0.5-0.1-0.6-0.2
		c-0.1-0.2-0.1-0.6,0.1-0.7c0.1-0.1,0.2-0.3,0.3-0.4c-0.1-0.1-0.2-0.3-0.3-0.4c-0.1-0.2-0.2-0.5-0.3-0.7c-0.1-0.2-0.3-0.4-0.4-0.5
		c-0.1-0.1-0.2-0.2-0.2-0.4c0,0-0.1,0-0.1,0c-0.1-0.1-0.2,0-0.5-0.1c0.2,0.4,0.4,0.6,0.6,0.9c-0.4,0.2-0.6,0-0.6-0.3
		c0-0.3,0-0.6-0.1-0.9c-0.1-0.4-0.3-0.5-0.6-0.2c-0.1,0.1-0.2,0.2-0.3,0.3c-0.4,0.4-1.4,0.4-1.7,0c-0.1-0.2-0.2-0.5-0.1-0.7
		c0.4-0.7,0.3-1.1-0.5-1.5c-0.4-0.2-0.8-0.3-1-0.6c-0.4-0.4-0.6-0.4-0.9,0c-0.2-0.1-0.4-0.1-0.6-0.2c-0.5-0.1-1-0.6-0.9-1.2
		c0.1-1.2-0.4-1.9-1.6-2c-0.5,0-1,0.1-1.1,0.7c-0.1,0.5-1,1-1.5,0.9c-0.5,0-0.5-0.6-0.7-0.9c-0.1-0.2,0.1-0.5,0-0.8
		c0-0.2-0.1-0.4-0.1-0.6c-0.1-0.1-0.2-0.1-0.4-0.2c-0.2,0.1-0.2,0.3-0.3,0.5c0,0-0.1,0-0.1,0.1c-0.2,0-0.3,0-0.5,0
		c-0.4,0-0.8-0.1-0.8-0.6c0-0.2,0.1-0.7,0.1-0.7c0,0,0.1,0,0.1,0c-0.3-0.2-0.6-0.5-0.7-0.8c0,0,0,0-0.1,0c-0.6,0-0.8-0.4-0.8-0.9
		c0-0.2,0-0.4,0-0.6c0-0.7-0.2-0.9-0.9-0.9c-0.2,0-0.5,0-0.7,0.1c-0.5,0.3-1,0.2-1.4-0.2c-0.1-0.1-0.2-0.1-0.3-0.2
		c-0.3-0.3-0.5-0.1-0.6,0.2c-0.1,0.1-0.1,0.3-0.2,0.4c-0.2,0.4-1,0.7-1.3,0.6c-0.2-0.1-0.4-0.3-0.8-0.4c0,0,0-0.2-0.1-0.2
		c-0.1-0.1-0.4-0.2-0.5-0.1c-0.1,0-0.2,0.3-0.2,0.5c0,0.3,0,0.6,0,0.9c-0.3-0.1-0.5-0.3-0.8-0.4c-0.2-0.1-0.3-0.1-0.5-0.2
		c0,0.2-0.2,0.4-0.1,0.5c0.2,0.4,0.1,0.7,0,1.1c-0.1,0.5-0.4,0.6-0.8,0.7c-0.4,0-0.9-0.2-0.9-0.6c0-0.9-0.5-1.5-1.1-2
		c0,0,0-0.1-0.1-0.1c-0.3-0.4-0.6-0.4-1-0.2c-0.2,0.1-0.4,0.2-0.7,0.2c-0.5,0.1-1,0-1.3,0.6c0,0.1-0.4,0.1-0.5,0
		c-0.6-0.3-1.2-0.6-1.8-0.9c-0.2-0.1-0.4-0.2-0.6-0.3c-0.1-0.1-0.3-0.2-0.4-0.2c-0.1,0.1-0.2,0.3-0.3,0.4c-0.1,0.2-0.1,0.5-0.3,0.6
		c-0.7,0.5-1,0.4-1.6-0.2c-1.1-1.3-2.2-1.5-3.7-0.8c-0.6,0.3-1.1,0-1.3-0.6c-0.2-0.6-0.3-0.6-0.8-0.3c-0.5,0.5-1,0.5-1.4,0.1
		c0.1-0.1,0.3-0.2,0.4-0.4c0.1-0.1,0.1-0.3,0.1-0.4c-0.3-0.4-0.7-0.8-1.1-1.2c-0.1-0.1-0.1-0.1-0.2-0.1c-0.1,0-0.2,0-0.3-0.1
		c-0.1,0.2-0.2,0.4-0.2,0.5c0.2,0.5,0,1-0.3,1.4c-0.5,0.8-1.5,0.8-2,0c-0.2-0.3-0.3-0.7-0.5-1c-0.1-0.1-0.2-0.2-0.3-0.3
		c-0.1,0.1-0.2,0.3-0.2,0.4c0,0.8,0.9,1.9,1.6,2.1c0.8,0.2,1.3-0.2,1.8-0.7c0.2,0.1,0.3,0.2,0.4,0.3c0.6,0.6,1.2,0.8,1.9,0.2
		c0.1,0,0.3,0,0.4,0.1c0.7,1,1.7,0.9,2.5,0.4c0.2-0.1,0.4-0.2,0.6-0.2c0.7,0.2,1.5,0.3,2,1c0.3,0.4,1,0.8,1.4,0.7
		c0.5-0.1,1.2-0.1,1.5-0.8c0-0.1,0.3-0.1,0.4-0.1c0.6,0.3,1.1,0.5,1.7,0.9c0.6,0.4,0.7,0.4,1.2,0c0.2-0.2,0.5-0.3,0.8-0.4
		c0.5-0.1,0.9-0.1,1.5-0.2c0.5,0.3,0.9,0.8,0.9,1.6c0,0.6,0.7,1,1.3,1.1c0.8,0,1.3-0.3,1.6-0.9c0.1-0.2,0.3-0.5,0.5-0.6
		c0.3-0.2,0.7-0.2,1-0.4c0.3-0.2,0.6-0.2,0.9,0c0,0.8,0.1,1.1,0.9,1.4c0.5,0.2,1.1,0.1,1.4,0.6c0,0.1,0.4,0,0.6-0.2
		c0.2-0.2,0.4-0.4,0.5-0.6c0.6,1,2,1.7,2.6,1.5c0.5,0.2,0.8,0.5,1.1,0.5c0.8,0,1.2,0.3,1.4,1c0,0.1,0,0.1,0.1,0.2
		c0.3,0.7,0.8,1,1.5,0.6c0.6-0.3,1.1-0.8,1.7-1.2c0.3-0.3,1.1-0.3,1.2,0.1c0.1,0.4,0.1,0.9,0.2,1.3c0,0.3,0,0.6,0.2,0.7
		c0.5,0.4,0.8,1.1,1.7,0.9c0.1,0,0.1,0.1,0.2,0.1c0.4,0.4,0.6,0.3,0.9-0.2c0.4,0.3,0.8,0.5,1.2,0.8c-0.4,0.9-0.3,1.5,0.2,1.9
		c0.5,0.4,1.8,0.4,2.4,0c0,0.1,0.1,0.2,0.1,0.3c0,0.9,0.4,1.1,1.2,0.9c0.2-0.1,0.4,0,0.6,0c-0.1,0.2-0.1,0.4-0.2,0.6
		c-0.4,0.6-0.5,1.2-0.1,1.8c0.4,0.6,0.8,0.5,1.4,0.4c0.6-0.2,0.9,0.2,0.9,0.8c0,0.4,0.1,0.8,0.2,1.2c0,0.1,0.1,0.3,0,0.4
		c-0.1,0.6,0.1,1.1,0.6,1.4c0.1,0.1,0.3,0.2,0.3,0.4c0.1,0.5,0.1,1,0.2,1.6c0,0.1,0.1,0.2,0.2,0.3c0.1,0,0.1,0,0.2,0
		c0-0.4,0.1-0.7,0.1-1.1c0-0.2,0-0.6,0.1-0.7c0.4-0.1,0.8-0.7,1.4-0.2c-0.5,0.3-0.5,0.8-0.3,1.2c0.1,0.4,0.5,0.7,0.8,1
		c-0.4,0-0.9,0.1-1.4,0.1c-1.6,0-3.1-0.1-4.7-0.1c-1,0-1,0-1.1-1c0-0.3,0-0.5,0-0.8c0-0.3,0.1-0.5,0.5-0.5c0.8,0,1.7-0.1,2.5-0.1
		c0.2,0,0.3-0.2,0.5-0.3c-0.2-0.1-0.3-0.3-0.5-0.3c-0.3,0-0.6,0.1-1,0.1c0-0.4,0.1-0.8,0-1.2c0-0.2-0.2-0.3-0.2-0.5
		c-0.1,0.2-0.3,0.3-0.3,0.5c-0.1,0.3,0,0.6,0,0.8c0,0.3-0.1,0.5-0.4,0.5c-1.2,0-2.4,0.1-3.7,0.1c-1.1,0-2.2-0.1-3.3-0.1
		c-0.4,0-0.8,0-1.3-0.1c0.1-0.3,0.2-0.5,0.2-0.8c0.1-0.6,0.2-0.9,0.9-0.6c0.1,0,0.3-0.2,0.5-0.2c-0.2-0.1-0.3-0.4-0.5-0.4
		c-0.6,0-1.3,0.1-1.9,0.1c-0.6,0-1.2,0-1.8,0c0.1-0.4,0.3-0.7,0.3-0.9c0-0.2-0.1-0.4-0.2-0.6c-0.1,0.2-0.3,0.3-0.4,0.5
		c-0.1,0.3,0,0.6,0,1c-1.4-0.1-2.7-0.1-4.1-0.2c0.1-0.4,0.1-0.7,0.1-1c0-0.2-0.2-0.3-0.3-0.5c-0.1,0.2-0.3,0.3-0.4,0.5
		c0,0.4,0.1,0.7,0.1,1.1h-3.7c0-0.5,0-0.9-0.1-1.3c0-0.2-0.1-0.4-0.2-0.6c-0.1,0.2-0.4,0.3-0.4,0.5c-0.1,0.4,0,0.9,0,1.3
		c-1.6,0.4-3.3-0.5-5,0.3c0.5,0.1,0.9,0.2,1.3,0.2c0.5,0,0.7,0,0.7,0.5c0,0.2,0,0.4,0.1,0.5c0,0.1,0.2,0.3,0.2,0.4
		c0.1-0.1,0.3-0.2,0.3-0.4c0.1-1,0.1-1,1.1-1.1c0,0,0.1,0,0.1,0c0.9,0,1.8,0,2.8,0c0,0.6,0,1.1,0.1,1.6l0.2,0
		c0.5-0.4,0.3-1.1,0.6-1.6h4c0,0.4,0.1,0.7,0.1,1c0.1,0.4-0.1,0.6-0.5,0.6c-0.3,0-0.7,0-1.1,0c-0.7,0-1,0.3-0.9,1
		c0,0.3,0,0.6,0.1,0.9c0,0.1,0.2,0.3,0.3,0.4c0.1-0.1,0.2-0.3,0.3-0.4c0-0.3,0.1-0.6,0-0.9c0-0.4,0.2-0.5,0.5-0.5c1,0,2,0,2.9,0
		c0.1,0,0.4,0.1,0.4,0.2c0,0.7,0,1.3,0,2c-1.5-0.1-2.8-0.2-4.2-0.2c-0.9,0-1.8-0.1-2.7-0.1c-0.3,0-0.5,0-0.7-0.3
		c-0.4-0.5-0.5-0.6-1.1-0.2c-0.3,0.2-0.6,0.4-1,0.6c0-0.5,0.1-0.9,0.1-1.2c0-0.2-0.2-0.3-0.3-0.5c-0.1,0.2-0.3,0.4-0.4,0.6
		c0,0.1,0.1,0.3,0.1,0.4c0,0.4-0.1,0.7-0.6,0.7c-0.6,0-1.3,0-1.9,0.1c-0.4,0-0.8,0-0.9-0.5c0-0.3-0.2-0.7-0.2-1
		c0-0.6,0.5-0.3,0.8-0.5c0.2-0.1,0.2-0.3,0.3-0.4c-0.2-0.1-0.5-0.4-0.6-0.3c-0.8,0.5-1.7,0.2-2.6,0.3c0.1-0.2,0.1-0.4,0.1-0.6
		c0-0.3,0-0.6-0.1-0.9c0,0-0.3-0.1-0.3,0c-0.1,0.3-0.1,0.5-0.2,0.8c0,0,0,0.1,0,0.1c0,0.4-0.1,0.6-0.6,0.5c-0.5-0.1-0.9,0-1.4-0.1
		c-0.8,0-1.6,0-2.3,0c0-0.5,0-1,0-1.4c0-0.1-0.2-0.3-0.3-0.4c-0.1,0.2-0.3,0.3-0.3,0.5c0,0.2,0.1,0.5,0.1,0.8
		c0.1,0.5-0.1,0.7-0.6,0.7c-1.1-0.1-2.2-0.1-3.3-0.2c-0.1,0-0.2,0-0.2,0c0-0.5-0.1-0.9,0-1.4c0-0.1,0.2-0.3,0.2-0.3
		c0.5,0,1,0,1.5,0.1c0.3,0.1,0.5,0.1,0.8-0.3c-0.1-0.1-0.2-0.2-0.3-0.2c-1.3,0-2.6,0-4,0c0-0.4,0-0.7,0-1.1c0-0.1-0.2-0.3-0.2-0.4
		c-0.1,0.1-0.3,0.2-0.4,0.4c-0.1,0.2,0,0.4,0,0.5c0,0.4-0.1,0.5-0.5,0.5c-0.6,0-1.3,0-1.9,0c-0.7,0-1.4,0-2.1-0.1
		c0-0.5,0.1-0.8,0.1-1.2c0-0.1-0.1-0.3-0.2-0.3c-0.1,0-0.3,0.1-0.3,0.2c0,0.2,0,0.5,0,0.7c0.1,0.4-0.1,0.7-0.6,0.6
		c-0.6,0-1.1,0-1.7,0c-2.1,0-4.2,0-6.4,0.1c-0.4,0-0.6-0.1-0.6-0.5c0-0.4,0-0.8,0-1.2c0-0.1-0.1-0.3-0.2-0.4
		c-0.1,0.1-0.3,0.2-0.4,0.3c-0.1,0.2-0.1,0.5-0.1,0.8c0,0.3,0.1,0.6,0.1,0.9h-5.1c0-0.2,0.1-0.4,0.1-0.6c0-0.3,0.1-0.7,0-1.1
		c0-0.2-0.1-0.5-0.2-0.5c-0.3,0-0.5,0.2-0.4,0.5c0.1,0.6,0.1,1.1,0.2,1.7c-0.2,0-0.3,0-0.4,0c-1.1,0-2.3,0.1-3.4,0
		c-2.6-0.1-5.2-0.2-7.9-0.4c-1.5-0.1-3.1-0.2-4.6-0.3c-0.9-0.1-1.8-0.2-2.7-0.3c-0.3,0-0.6,0-0.9,0.1l0,0.2c2.2,0.9,4.5,0.4,6.8,0.9
		c-0.6,0.5,0.1,0.9,0,1.3c-0.2,0.1-0.4,0.2-0.5,0.3c0,0.1,0,0.1,0,0.2c1.3,0.1,2.6,0.2,3.8,0.3c0,0.4,0,0.8,0,1.2c0,0.3,0,0.6,0,0.9
		c0,0.1-0.2,0.3-0.3,0.3c-0.7,0-1.5,0.1-2.2,0.1c-0.2,0-0.3-0.3-0.5-0.4c-0.4-0.2-0.7-0.6-1.2-0.6c-0.4-0.1-0.8,0.2-1,0.7
		c0,0.1-0.3,0.2-0.4,0.2c-0.1,0-0.3-0.2-0.3-0.4c0-0.3,0.1-0.6,0-0.9c0-0.2-0.2-0.3-0.3-0.5c-0.1,0.2-0.3,0.4-0.3,0.6
		c0,0.4,0.1,0.8,0.1,1.2h-4.3c0-0.4,0-0.8,0.1-1.2c0-0.2,0.3-0.4,0.5-0.4c0.5,0,0.9,0.1,1.4,0.1c0.2,0,0.4-0.2,0.5-0.2
		c-0.2-0.2-0.3-0.4-0.5-0.5c-0.1-0.1-0.3,0.1-0.5,0.1c-1,0.2-2.1,0.1-3.2,0C30.9,32.2,31,32,31,32c0.3-0.5,0.3-1,0.2-1.6
		c-0.1-0.4-0.3-0.4-0.6-0.2c-0.1,0.1-0.2,0.4-0.2,0.6c0,0.5,0,1-0.1,1.7c-0.8-0.2-1.4-0.4-2-0.5c-0.2,0-0.5-0.1-0.6-0.1
		c-0.5,0.6-1,0.1-1.5,0c0.1-0.5,0.2-0.8,0.3-1.2c0,0,0.1,0.1,0.1,0.1c0.6-0.4,1.1-0.8,1.8-1c0.6-0.2,1-0.6,1.2-1.2
		c0.1-0.3,0.1-0.6,0.2-0.9c0-0.1,0-0.2,0-0.2c0.7-0.4,1.2-1.1,1.6-1.8c0,0,0.1-0.1,0.1-0.1c0.4-0.2,0.8-0.4,1.3-0.5
		c0.3-0.1,0.7-0.2,1.1-0.2c1.2,0.2,1.9-0.4,1.8-1.6c0-0.1,0-0.2,0.1-0.3c0.2,0,0.5,0.1,0.6,0c0.5-0.3,0.9-0.7,1.3-1.1
		c0.4-0.5,0.7-1.1,1.4-1.2c0.2,0,0.4-0.2,0.6-0.3c0.3-0.5,0.7-0.6,1.2-0.7c0.5-0.1,1-0.4,1-1.1c0-0.1,0.2-0.2,0.3-0.3
		c0.3-0.2,0.6-0.4,1.1-0.7c0.8,0.2,1.5-0.1,1.9-0.9c0.7,0,1.2-0.1,2-0.1c0.4,0.5,1,0.9,1.9,0.6c0.1,0,0.3,0,0.4,0.1
		c0.9,0.2,1.4-0.1,1.6-0.9c0.1-0.5,0.3-0.7,0.9-0.5c0.6,0.2,0.9-0.1,1-0.7c0-0.3,0.2-0.5,0.5-0.5c0.4-0.1,0.9-0.2,1.3-0.4
		c0.3-0.1,0.5-0.4,0.8-0.6c0.8-0.5,1-0.6,0.7-1.6c0-0.1,0-0.2,0-0.4c0.6,0,1.2-0.1,1.7-0.1c0.5,0,1,0.3,1.5,0.3
		c0.5,0,0.9-0.1,1.4-0.2c0.1,0,0.2,0,0.3,0c0.3,0.1,0.5,0.2,0.8,0.3c0.7,0.3,1.6,0.1,2-0.5c0.1-0.2,0-0.6-0.1-0.9
		c-0.2-0.3-0.5-0.2-0.7,0c-0.1,0.1-0.2,0.1-0.4,0.1c-0.5,0-0.8,0.2-0.6,0.8c-0.3-0.1-0.5-0.2-0.7-0.3c0,0,0.1-0.1,0.1-0.1
		c0-0.2,0-0.5-0.2-0.6c-0.3-0.3-1.1,0-1.2,0.4c-0.1,0.5-0.4,0.5-0.7,0.5c-0.4,0-0.8,0-1.2-0.2c-0.8-0.3-1.5-0.2-2.3-0.1
		c-0.5,0.1-0.7,0.4-0.7,0.9c0.1,0.9,0.1,0.9-0.7,1.3c-0.1,0-0.2,0.1-0.2,0.1C54.3,14,53.7,14,53.2,14c-0.5,0-0.8,0.3-0.8,0.7
		c-0.1,0.6-0.4,0.6-0.8,0.4c-0.7-0.2-0.9-0.1-1,0.6c0,0.8-0.3,1-0.9,1c-0.2-0.6-0.3-0.6-0.9-0.3c-0.4,0.2-0.7,0.1-0.9-0.2
		c-0.1-0.2-0.2-0.4-0.2-0.6c-0.4,0-0.8,0-1.2-0.1c-0.1,0.2-0.2,0.3-0.4,0.4c-0.3,0.1-0.7,0.1-1-0.2c-0.3,0.2-0.6,0.3-0.9,0.4
		c0,0.1,0,0.1,0,0.2c0.1,0.5-0.1,0.6-0.5,0.6c-0.3,0-0.6-0.2-0.9-0.3c0,0,0,0,0,0c-0.2,0.1-0.4,0.2-0.6,0.4c0,0,0,0,0,0
		c0.1,0.7-0.2,0.7-0.7,0.8c-0.4,0-0.7,0.2-0.5,0.6c0.2,0.5,0,0.6-0.4,0.7c-0.6,0.1-1.1,0.3-1.4,0.9c-0.2,0.3-0.4,0.4-0.6,0.4
		c-0.2,0.3-0.5,0.5-0.9,0.7c0,0,0,0,0.1,0.1c0,0-0.1,0.3-0.2,0.4c-0.2,0.3-0.5,0.5-0.7,0.8c-0.2,0.2-0.5,0.3-0.8,0.1
		c-0.4-0.3-0.6-0.1-0.7,0.3c-0.1,0.4-0.1,0.8-0.2,1.2c-0.1,0.5-0.4,0.7-0.8,0.6c-0.7-0.2-1.4-0.2-2,0.3c-0.1,0.1-0.2,0.1-0.4,0
		c-0.3,0.1-0.7,0.2-1,0.3c0,0,0,0.1,0,0.1c0,0.6-0.2,1-0.7,1.4c-0.3,0.2-0.5,0.3-0.6,0.4c-0.1,0.4-0.4,0.7-0.7,1
		c0.1,0.1,0.1,0.3,0.1,0.4c-0.1,0.7-1.9,1.8-2.6,1.7c-0.1,0-0.2-0.1-0.3-0.1c-0.2,0-0.5,0-0.7,0c0.1,0.2,0.1,0.4,0.1,0.7
		c0,0.3,0.2,0.7,0,0.9c-0.2,0.2-0.6,0.2-0.9,0.2c-0.2,0-0.3-0.2-0.5-0.3c-0.2-0.1-0.5-0.1-0.8-0.1c0,0.2,0,0.5,0,0.7
		c0,0.3,0.1,0.6,0.2,0.9c-0.1,0-0.1,0.1-0.2,0.1c-0.1-0.1-0.3-0.1-0.4-0.2c-0.9-0.9-2.1-0.2-3-0.5c-0.1,0-0.2,0.1-0.3,0.1
		c-0.2,0.1-0.4,0.2-0.6,0.1c-0.5-0.2-0.8,0.2-1.1,0.5c-0.2,0.2-0.3,0.3-0.5,0.5c-0.2,0.2-0.4,0.2-0.6,0c-0.3-0.3-0.6-0.3-0.9-0.2
		c-0.7,0.3-1.1,0.8-1.4,1.5c-0.3,0.7-0.4,1.4-0.7,2.1c-0.7-0.2-1.3,0-1.6,0.7c-0.3,0.7,0,1.3,0.6,2h-0.2c0.2,0.2,0.3,0.5,0.4,0.8
		c0.1,0.1,0.1,0.1,0.2,0.2c0.1-0.2,0.1-0.4,0.2-0.5c0.1,0.1,0.2,0.1,0.3,0.2c0.1,0.5,0.1,1.1,0.1,1.6c0,0.2-0.2,0.4-0.4,0.5
		c-0.5,0.2-0.6,0.3-0.3,0.8c0.5,0.7,0.4,1-0.4,1.3c-0.4,0.2-0.7,0.5-0.4,1c0.2,0.3,0.2,0.7-0.1,0.8c-0.6,0.2-0.8,0.8-1.1,1.2
		c-0.2,0.2-0.2,0.5-0.2,0.8c0,0.6,0,1.1,0.1,1.7c0,0.2,0.2,0.5,0.3,0.7c0.2-0.1,0.4-0.2,0.6-0.2c0.1,0,0.4,0,0.4,0.1
		c0.1,0.2,0.1,0.6,0,0.7c-0.3,0.5-0.8,0.8-1.1,1.3c-0.1,0.2-0.4,0.4-0.4,0.5c0,0.2,0.2,0.4,0.4,0.5c0.1,0.1,0.3,0,0.4,0.1
		c0.2,0.1,0.4,0.2,0.5,0.3c0,0.1-0.1,0.3-0.3,0.5c-0.1,0.1-0.3,0.1-0.4,0.2c-0.4,0.1-0.6,0.3-0.6,0.8c0,0.2-0.2,0.5-0.2,0.7
		c-0.2-0.2-0.3-0.3-0.4-0.4c-0.1,0.4-0.1,0.8-0.2,1.2c0.2,0.1,0.4,0.1,0.6,0.1c-0.1,0.4-0.2,0.8-0.3,1.2c0,0.3,0,0.7,0,1
		c0,0.5,0.1,1,0.2,1.5c0,0.2-0.1,0.5-0.2,0.5C9.7,61.1,10,61.6,9.9,62c-0.2,0.6,0.1,1.4-0.6,1.8c0,0-0.1,0.2,0,0.2
		c0.2,0.3,0.1,0.6,0,0.9c0.2,0.8,0,1.6-0.5,2.2c0,0.2,0,0.4,0,0.7c-0.1-0.1-0.2-0.2-0.3-0.3c-0.2,0.1-0.4,0.3-0.6,0.4
		C7.9,68,8,68.1,8.1,68.2c0.3,0.4,0.5,0.9,0.6,1.4c0.1,0.7,0.2,1.5,0.6,1.9C9.8,72,9.7,72.5,9.7,73c0,0.4,0,0.8,0.1,1.2
		c0.1,0.5,0.4,1,0.6,1.5c0.1,0.3,0.2,0.6,0.3,0.9c0.3,1.2,0.6,2.4,0.8,3.7c0.1,0.5,0,0.7-0.2,0.8c0,0.1,0,0.1,0.1,0.2
		c0.1,0.2,0.1,0.4,0.1,0.6c0.1,0,0.3,0.1,0.4,0.1c0.1,0,0.2,0,0.2,0c0.5-0.4,1.1-0.3,1.6-0.3c3.7,0.1,7.5-0.3,11.2-0.8
		c2.3-0.3,4.6-0.7,6.9-1c0.6-0.1,1-0.1,1.4,0.5c0.4,0.7,1,0.9,1.8,0.5c0.1-0.1,0.2-0.1,0.3-0.1c1.6-0.1,3.2-0.2,4.8-0.2
		c0.6,0,1.1,0.1,1.7,0.1c1.2,0,2.3,0,3.5,0c1.9,0,3.8,0,5.7,0c1.9-0.1,3.8-0.2,5.6-0.3c0.6,0,1.3-0.1,1.9-0.2c0.3,0,0.5-0.2,0.6-0.5
		c0.1-0.2,0.4-0.3,0.6-0.4c0.1-0.1,0.3,0,0.5,0c1.3-0.5,2.8-0.3,4.2-0.4c2.9-0.2,5.9-0.3,8.8-0.5c1.9-0.1,3.7-0.3,5.6-0.4
		c1.2-0.1,2.4-0.2,3.5-0.3c0.7,0,1.4-0.1,2.1-0.1c1,0.1,2,0.2,3,0.4c0.2,0,0.4,0.2,0.5,0.3c0.3,0.3,0.5,0.7,1,0.6
		c0.4-0.1,0.8-0.1,1.3-0.2c1.9-0.4,3.8-0.1,5.8-0.1c0.1,0,0.3,0,0.4,0.1c0.4,0.2,0.8,0.1,1.3,0.1c0.8-0.1,1.7-0.1,2.5-0.1
		c1.7-0.1,3.3-0.1,5-0.2c0.5,0,1,0,1.5-0.1c0.4-0.1,1-0.1,1.2-0.7c0,0,0.1,0,0.2-0.1c0.4-0.1,0.7-0.2,1.1-0.2
		c3.1-0.2,6.2-0.3,9.2-0.4c0.9,0,1.8-0.2,2.6-0.2c1.9-0.1,3.8-0.3,5.8-0.4c1.2,0,2.4,0,3.6,0.1c0.6,0.1,1.1,0.2,1.6-0.1
		c0.3-0.2,0.8,0,0.8,0.5c0,0.4,0.1,0.9,0.2,1.3c0,0.4,0.2,0.7,0.6,0.9c0.3,0.1,1.1-0.3,1.3-0.6c0.2-0.3,0.2-0.6,0-1
		c-0.2-0.3-0.4-0.6-0.5-0.8c0.1,0,0.2,0,0.3,0c-0.1-0.2-0.2-0.4-0.3-0.5c-0.1-0.2-0.2-0.4-0.3-0.6c-0.2-0.1-0.3-0.3-0.3-0.5
		c0-0.2,0.1-0.4,0.1-0.6c0,0,0,0,0,0c0-0.2,0-0.5,0.1-0.7c0-0.4-0.1-0.7-0.3-1.1c-0.4-0.6-0.5-1.3-0.5-2.1c0.1-0.8,0.4-1.4,0.7-2.1
		c0.5-1,0.7-2.2,1.1-3.3c0.3-0.7,0.2-1.5,0-2.2c-0.2-0.9,0.1-1.7,0.6-2.5c0.4-0.6,0.8-1.3,1.1-2c0-0.1,0.1-0.1,0.1-0.2
		c0.1-0.2,0.1-0.4,0.2-0.5c0-0.1,0.1-0.2,0.1-0.3c0,0,0,0.1,0,0.1c0,0,0.1-0.1,0.1-0.1C136.8,56.6,136.5,56.1,136.3,55.7z
		 M95.1,17.3c-0.3-0.2-0.6-0.6-0.9-1c-0.2-0.2-0.3-0.5-0.5-0.5c-0.2,0-0.4,0.2-0.6,0.3c-0.1,0.1-0.2,0.3-0.3,0.4
		c-0.5-0.1-0.9-0.1-1.3-0.2c-0.3-0.1-0.6-0.3-0.7-0.6c-0.1-0.2,0.2-0.5,0.3-0.7c0-0.1,0.2-0.1,0.2-0.2c0.4-0.6,0.9-0.6,1.5-0.2
		c0.2,0.1,0.5,0,0.7,0c0.3,0,0.5-0.2,0.7-0.2c0.6-0.2,0.6-0.1,0.6,0.5c0,0.5,0.3,1.1,0.5,1.6c0.1,0.2,0.5,0.2,0.8,0.3
		C96,17.5,95.7,17.7,95.1,17.3z M131.6,55h1.2c0.2,0.9,0.1,1.7-0.5,2.4c-0.4,0.4-0.8,0.8-1.2,1.2c-0.4,0.5-0.8,1-1.3,1.5
		C130.5,58.4,131,56.7,131.6,55z M129.8,63.6c0,0.5,0.1,1,0.2,1.6c-0.7-0.2-1-0.6-1-1.4C129.2,63.7,129.5,63.7,129.8,63.6z
		 M128.9,63.3l0.2-1.2c0.1,0,0.2,0,0.3,0.1c-0.1,0.4-0.2,0.8-0.3,1.2C129,63.4,128.9,63.3,128.9,63.3z M130.7,54.3
		c0.2,0.7,0.2,1.4-0.2,2.1c-0.4,0.6-0.5,1.4-0.8,2c-0.1,0-0.1,0-0.2,0c0.8-1.7,0.1-3.2-0.9-4.7C129.4,54,130,54.1,130.7,54.3z
		 M127.4,53.3c0.4,0.7,0.8,1.2,1.2,1.8c0.5,0.8,0.6,1.7,0.4,2.7c-0.2,0.7-0.1,1.4-0.2,2.1c0,0.2,0,0.4-0.1,0.6c-0.1,0-0.1,0-0.2,0
		c-0.1-0.5-0.1-1.1-0.2-1.6c-0.1-0.8-0.3-1.4-1-1.9c-0.6-0.4-1-0.9-0.9-1.7c0-0.1,0-0.3,0.1-0.4C126.7,54.5,127,54,127.4,53.3z
		 M118.5,37.6c-0.9,0.1-1,0.1-1-0.5C118.3,37,118.3,37,118.5,37.6z M108.4,37.5c0.5-0.6,1.8-0.8,2.9-0.4
		C110.4,37.6,109.4,37.4,108.4,37.5z M109.2,38.4c-0.2,0-0.4,0-0.5,0.1c-0.1,0-0.2,0.1-0.4,0.1c0-0.2-0.1-0.3-0.1-0.5
		c0.3,0,0.5-0.1,0.7-0.1C109,38,109.1,38.2,109.2,38.4z M112.3,37.9c0.1,0,0.2,0.2,0.2,0.2c0,0.1-0.1,0.3-0.1,0.3
		c-0.8,0.1-1.6,0.1-2.3-0.1c0-0.1,0-0.2,0-0.3C110.7,38,111.5,37.9,112.3,37.9z M112,37.3c0-0.1,0-0.1,0-0.2c0.6-0.2,1.3-0.1,1.9,0
		c0,0.1,0,0.1,0,0.2H112z M113.8,37.7c0.4,0,0.8,0.1,1.1,0.1c0.5,0,0.8,0.1,0.6,0.7h-2.4C113.1,37.8,113.2,37.7,113.8,37.7z
		 M114.7,37.4c0-0.1,0-0.2,0-0.3c0.6,0,1.1,0,1.7,0c0.1,0,0.1,0.1,0.2,0.2c-0.1,0.1-0.2,0.2-0.3,0.2
		C115.8,37.5,115.3,37.5,114.7,37.4z M118.4,38c0,0.1,0,0.2,0,0.3c0,0.1,0,0.2,0,0.3c-0.6,0-1.2,0-1.8,0c-0.1,0-0.2-0.3-0.4-0.6
		H118.4z M106.1,33.2c0-0.1,0.3-0.4,0.4-0.4c1.2,0,2.3,0.1,3.5,0.2c0,0.5,0.1,1.1,0.1,1.7c0,0.1-0.2,0.4-0.3,0.4c-1.3,0-2.5,0-3.8,0
		c0,0-0.1,0-0.1-0.1C106,34.5,106,33.9,106.1,33.2z M105.3,32.9c0.1,0,0.1,0,0.2,0.1c0,0.7,0,1.4,0,2c0,0.1-0.2,0.3-0.3,0.3
		c-0.4,0-0.8,0-1.3,0c0.3-0.8-0.2-1.1-0.8-1.4c-0.4-0.2-0.8,0-1,0.3c-0.1,0.2-0.1,0.5-0.2,0.9c-0.9,0.2-1.1,0-0.9-1
		c0.2-1.3,0.2-1.3,1.5-1.3C103.4,32.8,104.3,32.8,105.3,32.9z M99.5,32.4c-0.2,0-0.4,0-0.7,0c0.1-0.6,0.1-1,0.2-1.5h3.9
		C103,30.9,103,31,103,31c0.1,1.4,0.1,1.4-1.3,1.3C101,32.3,100.3,32.4,99.5,32.4z M81.6,33.7c0.1-0.8,0.1-0.9,0.9-0.9
		c1.1,0,2.3,0.2,3.6,0.3c-0.2,0.4-0.3,0.7-0.4,1c-0.3,0.9-1,0.9-1.8,0.9c-0.8,0-1.6,0-2.4,0C81.5,34.4,81.6,34.1,81.6,33.7z
		 M76.5,32.7c0.5,0,0.6,0.1,0.6,0.6c0,0.5,0.1,0.9,0.2,1.4c0.1,0,0.2,0,0.2,0c0-0.3,0.1-0.6,0.1-0.9c0-1,0-1,0.9-0.9
		c0.6,0,1.2,0,1.8,0c0.5,0,0.7,0.1,0.6,0.6c0,0.4,0,0.9,0,1.4c-0.8,0.1-1.6,0.2-2.4,0.2c-0.8,0-1.6,0-2.4,0c-0.4,0-0.6-0.1-0.7-0.4
		c-0.2-0.4-0.5-0.7-1-0.6c-0.5,0.1-0.8,0.4-0.9,0.8c-0.1,0.4-0.3,0.4-0.5,0.3c-0.2-0.4-0.4-0.7-0.5-1c-0.1-0.2-0.1-0.3-0.1-0.5
		c0.2-1,0.4-1.1,1.8-1C75.1,32.7,75.8,32.7,76.5,32.7z M70.7,30.8c0-0.1,0.1-0.3,0.2-0.3c0.7-0.1,1.5-0.1,2.1,0.1
		c0.6-0.1,1-0.2,1.6-0.3v1.7h-4C70.6,31.6,70.6,31.2,70.7,30.8z M72.1,32.6c0,0.6,0.1,1-0.5,1.3c-0.4,0.2-0.7,0.7-0.3,1.3
		c-1-0.1-1.8-0.1-2.8-0.2c0-0.5,0-1,0-1.5c0-0.1-0.2-0.2-0.2-0.4c-0.1,0.1-0.3,0.2-0.3,0.4c0,0.3,0,0.6,0,0.9c0,0.4-0.2,0.5-0.5,0.5
		c-0.6,0-1.1-0.1-1.7-0.1c-1,0-2.1,0-3.1,0c0.1-0.8,0.1-1.5,0.2-2.3H72.1z M60.5,30.6c2.5-0.1,5.1-0.1,7.6-0.2c0.5,0,1,0,1.4,0
		c0.3,0,0.4,0.2,0.4,0.5c0,1,0,1-1,1.1c-1.2,0-2.3,0-3.5,0c-0.4,0-0.4-0.2-0.3-0.5c0-0.3,0.2-0.7-0.2-0.8c-0.5,0-0.3,0.5-0.3,0.8
		c0,0.1,0,0.2,0,0.5c-0.9,0-1.7,0-2.6,0c-0.3,0-0.5,0-0.8-0.1C60.4,31.7,60.3,31.5,60.5,30.6z M62.2,32.5v2.1h-4.4
		c0.1-0.7,0.1-1.4,0.2-2.1H62.2z M55.6,30.4h4.3c0,0.5,0.1,0.9,0.1,1.4h-4.6C55.4,31.3,55.5,30.9,55.6,30.4z M53,32.8
		c0-0.3,0.1-0.5,0.4-0.5c1.3,0,2.5,0.1,3.8,0.1c0,0.6,0.1,1.1,0.1,1.7c0,0.3-0.1,0.5-0.4,0.5c-1.2,0-2.4,0-3.5,0
		c-0.4,0-0.5-0.2-0.4-0.5C53,33.7,53,33.2,53,32.8z M45.6,30.7c0-0.3,0.1-0.5,0.4-0.5c2.7,0,5.4,0.1,8,0.1c0.6,0,1.1,0.6,0.8,1.2
		c0,0.1-0.3,0.2-0.4,0.2c-1.5-0.1-3-0.1-4.6-0.2c0-0.3,0-0.6-0.1-0.8c0-0.1-0.3-0.2-0.4-0.3c-0.1,0.2-0.2,0.3-0.2,0.5
		c0,0.2,0.1,0.4,0.2,0.6c-0.7,0-1.3,0-1.9,0c-0.5,0-1,0-1.5,0C45.5,31.5,45.7,31.1,45.6,30.7z M50.6,34.5c-0.9,0-1.7,0-2.6,0
		c-1.3,0-2.7,0-4,0c-0.5,0-0.6-0.2-0.6-0.6c0.1-0.6,0.1-1.2,0.2-1.9c1.2,0,2.5,0,3.8,0c1.2,0,2.4,0.1,3.6,0.1c1.4,0,1.6,0.2,1.6,1.8
		c-0.4-0.2-0.5-0.9-1.1-0.6C51.1,33.6,50.5,33.8,50.6,34.5z M40.3,31.3C40.3,31.3,40.3,31.3,40.3,31.3c-0.1-0.5-0.2-0.9-0.3-1.4
		c0.7,0,1.5,0,2.3,0c0.8,0.1,1.7,0.2,2.5,0.3c0.5,0.1,0.3,0.5,0.3,0.8c0,0.1-0.2,0.4-0.3,0.4C43.3,31.5,41.8,31.4,40.3,31.3z
		 M36.3,35.1c2.3,0,4.5,0.1,6.8,0.1c1.9,0,3.8-0.1,5.7-0.1c0.8,0,1.7,0.1,2.5,0.2c1.1,0,2.1,0,3.2,0c2.8,0,5.7,0.1,8.5,0.2
		c2.7,0.1,5.4,0.3,8.1,0.4c2,0.1,4-0.1,5.9-0.1c2.6,0,5.1-0.1,7.7-0.1c1.6,0,3.2-0.1,4.9-0.1c0.3,0,0.6,0.1,0.9,0.1c0,0,0-0.1,0-0.1
		c0.6-0.1,1.1-0.2,1.7-0.2c2.1,0.1,4.1,0.1,6.2,0.2c3.5,0.2,7,0.4,10.5,0.2c2.6-0.1,5.2,0,7.8,0c0.4,0,0.7,0,1.1-0.1
		c0.3,0,0.6,0,0.6,0.6c-1.5,0-3,0-4.4,0c-2,0-4.1-0.1-6.1-0.1c-2.5,0-5,0.1-7.5,0.1c-2.5,0-5-0.3-7.5-0.3c-1.7,0-3.4,0.1-5,0.1
		c-2,0-4,0.1-6,0.1c-1.6,0-3.1,0.1-4.7,0c-2.5,0-5-0.1-7.4-0.2c-0.5,0-1,0.1-1.5,0.1c-1.9-0.1-3.8-0.4-5.7-0.5c-2-0.1-4,0.1-6,0.1
		c-1,0-2,0-3,0c-1.4,0-2.8,0-4.2,0c-1.9,0-3.8,0-5.8,0c-1.1,0-2.2,0-3.4,0c-0.2,0-0.3-0.1-0.5-0.1c-0.2,0-0.3,0-0.5,0
		c-0.1,0-0.2,0.1-0.3,0.1c-1.1-0.1-2.3-0.2-3.4-0.2c-0.4,0-0.9,0.1-1.3,0.1c-1.6,0-3.3,0-4.9-0.1c-1.1,0-2.2,0-3.4,0
		c-0.3,0-0.6,0-0.8-0.2c1.2-0.1,2.4-0.1,3.6-0.2C31,35.1,33.6,35.1,36.3,35.1z M108.3,37.4c-1,0-2,0.1-2.9,0.1c-0.6,0-1.2,0-1.8,0
		c-0.2,0-0.3-0.2-0.4-0.3c0-0.1,0.1-0.2,0.1-0.2c1.6,0,3.2,0,4.8,0C108.1,37.1,108.1,37.2,108.3,37.4z M93.3,37.1
		c-0.1,0-0.2-0.1-0.4-0.1c0-0.1,0-0.1,0-0.2c2.9,0,5.8,0.1,8.7,0.4c0.1,0.3,0.1,0.5-0.3,0.5C98.6,37.4,96,37.3,93.3,37.1z M97,38.2
		c0,1-7.6,12.4-8.6,13.3v-4.9c0.4-0.4,0.7-0.8,1-1.1c0.8-1.2,1.6-2.5,2.5-3.7c0.7-1.1,1.4-2.1,2.1-3.2c0.4-0.7,0.8-0.9,1.6-0.8
		c0.4,0.1,0.9,0.1,1.3,0.2C96.9,38.1,96.9,38.2,97,38.2z M78.2,38.5c0.4,0,0.7,0,1.1,0c0.4,0,0.9,0,1.4,0c0,0.4,0,0.7-0.1,1.1
		c-0.9,0-1.7,0-2.5,0c-0.1,0-0.3-0.2-0.2-0.3C77.9,39,77.7,38.5,78.2,38.5z M80.4,37.8c-0.1,0-0.1-0.2-0.2-0.2
		c-0.2-0.2-0.4-0.3-0.6-0.5l-0.2,0.1c0,0.2,0,0.4-0.1,0.6c-0.8,0-1.7,0-2.5,0c-0.1,0-0.3-0.3-0.4-0.5c0.2-0.1,0.3-0.3,0.5-0.3
		c1.6,0,3.3-0.1,4.9-0.1c0.6,0,0.4,0.5,0.6,0.9C81.8,37.8,81.1,37.8,80.4,37.8z M74.5,38.2c1,0.1,1.9,0.1,2.9,0.2
		c-0.1,0.4-0.1,0.6-0.2,0.8c-0.1,0.1-0.2,0.3-0.4,0.3c-0.8,0-1.5,0-2.3,0V38.2z M73.2,37.9c0.1-0.3,0.1-0.6,0.2-0.9h2.5
		c0.1,0.3,0.1,0.5,0.2,0.8C75.1,37.8,74.2,37.8,73.2,37.9z M69.7,37.5c0-0.2-0.2-0.3-0.3-0.4c-0.2,0.1-0.5,0.3-0.4,0.4
		c0.1,0.6-0.2,0.6-0.6,0.6c-0.6,0-1.1,0-1.7,0c-0.5,0-0.5-0.4-0.5-0.7c0-0.3,0.2-0.6,0.6-0.6c0.8,0.1,1.7,0,2.5,0c1,0,2.1,0,3.2,0
		c0,0.5-0.1,0.8-0.1,1.2h-2.7C69.7,37.8,69.8,37.7,69.7,37.5z M60.2,37.8c-0.5,0-0.6-0.1-0.5-0.6c0.1-0.2,0.4-0.5-0.1-0.5
		c-0.2,0-0.5,0.2-0.6,0.4C59,37.3,59,37.6,59,37.8h-0.7c0-0.6-0.4-0.6-0.9-0.6c-1.5,0-3,0-4.6,0c-0.1-0.7,0.1-0.8,0.7-0.8
		c2.9,0,5.8,0,8.7,0c0.2,0,0.5,0,0.7,0.1c0,0.4,0,0.8,0.1,1.3c-0.6,0-1.1,0-1.7,0C61,37.8,60.6,37.8,60.2,37.8z M60.3,39.8
		c0,0.1-0.3,0.3-0.5,0.3c-0.4,0-0.9,0-1.3-0.1c-0.1,0-0.2-0.2-0.2-0.3c0-0.4,0-0.7,0-1.3c0.6,0,1.2,0,1.8,0c0.1,0,0.1,0,0.1,0
		C60.2,38.9,60.3,39.3,60.3,39.8z M34,65.6c0-0.8-0.1-1.7-0.1-2.5c0-0.2,0.1-0.4,0.3-0.5c0.6-0.8,1.1-1.6,1.7-2.4
		c0.8-1.2,1.7-2.4,2.5-3.6c1-1.4,1.9-2.8,2.8-4.1c0.8-1.2,1.6-2.5,2.5-3.7c0.5-0.7,1.1-1.3,1.7-2c1.2-1.6,2.5-3.2,3.6-4.9
		c0.9-1.2,1.7-2.5,2.5-3.7c0.1-0.1,0.2-0.3,0.4-0.3c0.9,0,1.8,0,2.7,0.1l0.1,0.2c-0.3,0.5-0.7,1-1.1,1.5c-1.1,1.5-2.3,2.9-3.4,4.4
		c-1.7,2.4-3.4,4.8-5.1,7.2c-1.3,1.8-2.7,3.7-4,5.5c-1.2,1.7-2.2,3.4-3.4,5.1c-1.1,1.6-2.3,3.2-3.5,4.8c0,0-0.1,0-0.2,0.1
		C34,66.1,34,65.9,34,65.6z M40.8,37.3c0.7,0,1.5,0,2.4,0c-3.1,4.2-6.1,8.3-9.1,12.4c0,0-0.1,0-0.1,0c0-1,0-2.1,0-3.1
		c0-0.2,0-0.4,0-0.7c0-0.1,0-0.2,0.1-0.3c1.1-1.4,2.2-2.7,3.3-4.1c0.7-0.8,1.3-1.7,1.9-2.6c0.4-0.5,0.8-0.9,1.2-1.4
		C40.6,37.4,40.7,37.3,40.8,37.3z M40.5,36.6c0.3-0.1,0.6-0.2,1-0.2c1.7,0,3.4,0,5.1,0.1c1.3,0,2.6,0,3.9-0.1c0.6,0,0.8,0.2,0.8,0.8
		C47.7,37,44.1,36.8,40.5,36.6C40.5,36.6,40.5,36.6,40.5,36.6z M61,38.6c0.1-0.2,0.3-0.4,0.5-0.3c0.9,0,1.8,0.1,2.8,0.1
		c0.1,0,0.3,0.3,0.3,0.4c-0.1,0.4,0.3,1.1-0.3,1.1c-1.1,0.1-2.2,0.1-3.4,0.1c-0.1,0-0.1,0-0.2-0.1C60.8,39.5,60.9,39,61,38.6z
		 M64.2,37.9c-0.5,0-0.5-0.4-0.5-0.8c0-0.3,0-0.7,0.5-0.7c0.5,0,1,0,1.6,0V38C65.3,38,64.7,37.9,64.2,37.9z M66.2,38.5
		c0.5,0,0.7,0.2,0.7,0.8c0,0.5-0.2,0.7-1,0.6c-0.3,0-0.6,0.1-0.6-0.5C65.3,38.5,65.2,38.5,66.2,38.5z M38.6,36.4c0,0.1,0,0.2,0,0.3
		c-1.5,0.4-3-0.1-4.4-0.2c0-0.1,0-0.1,0-0.2C35.7,36.3,37.2,36.3,38.6,36.4z M31.8,37.3c-0.1-0.1-0.2-0.3-0.3-0.4
		c-0.1,0.1-0.3,0.3-0.4,0.4c0,0-0.1,0.1-0.1,0.2c-1,0-1.9,0.1-2.9,0.1v-1.3h4.5c-0.1,0.5-0.3,0.9-0.4,1.4
		C32.1,37.5,31.9,37.4,31.8,37.3z M32.2,38.2v1.2c-0.6,0-1.2,0.1-1.8,0.1c-0.4,0-0.5-0.2-0.3-0.5c0.1-0.3,0.2-0.6,0.3-0.9
		C30.9,38.1,31.5,38.1,32.2,38.2z M22.4,37.5c0.1-0.5,0.1-0.8,0.2-1.1c0-0.1,0.2-0.2,0.3-0.2c1.5,0,2.9,0,4.4,0c0.1,0,0.1,0,0.2,0
		c0,0.4,0,0.8,0.1,1.3H22.4z M24.2,38.1c0,0.5-0.1,0.9-0.1,1.3h-4.9c0.2-0.5,0.4-0.9,0.6-1.3H24.2z M25.4,38.1c0.6,0,1.2,0,1.8,0
		c0.7,0,1.4,0,2.1,0c0.1,0,0.2,0,0.4,0c-0.2,0.5-0.2,0.9-0.4,1.2c-0.1,0.1-0.3,0.2-0.5,0.2c-1.1,0-2.3,0-3.4,0
		c-0.4,0-0.7-0.1-0.7-0.5C24.7,38.6,25.1,38.1,25.4,38.1z M15.7,34.1c0.4-0.5,0.7-0.5,1.1,0c0.2,0.3,0.5,0.3,0.8,0.1
		c0.1,0,0.1-0.1,0.2-0.1c0.8-1.1,2-1.1,3.2-1.1c0.1,0,0.3,0,0.4,0c0.5-0.2,1-0.1,1.4,0.3c0.7,0.6,1.3,0.2,1.4-0.6c0-0.1,0-0.2,0-0.2
		c0.4,0.1,0.8,0.3,1.1,0.3c1.9-0.3,3.8-0.1,5.7,0.1c0.3,0,0.5,0,0.9,0c0,0.4-0.1,0.8,0,1.1c0.1,0.6-0.2,0.7-0.7,0.6
		c-0.8,0-1.5,0-2.3,0c-0.3,0-0.5-0.1-0.5-0.4c0-0.3,0-0.5,0-0.8c0-0.2-0.1-0.3-0.2-0.4C28.2,33,28,33.1,28,33.2c0,0.4,0,0.8,0,1.3
		c-0.1,0-0.1,0.1-0.2,0.1c-2,0-3.9,0.1-5.9,0.1c-0.7,0-1.4-0.2-2.1-0.2c-0.3,0-0.6,0.1-0.8,0.2c0.1,0.2,0.1,0.4,0.2,0.6
		c0.3,1.2,1.1,1.4,2.2,1.1c0.2,0,0.4,0,0.6,0c0,0.4-0.1,0.8-0.1,1.2c-1-0.1-1.9-0.1-2.9-0.2c-0.1,0-0.2,0-0.3,0
		c-0.3,0-0.8,0.1-1-0.1c-0.2-0.2,0-0.6-0.1-0.9c0-0.2-0.2-0.3-0.3-0.5c-0.1,0.2-0.2,0.3-0.2,0.5c0,0.2,0,0.3,0,0.5
		c0,0.4-0.2,0.5-0.6,0.5c-0.6-0.1-1.1,0-1.8,0C14.9,36.1,14.9,35,15.7,34.1z M22.2,35.5c-0.2,0.1-0.4,0.2-0.6,0.2
		c-0.4,0-0.8,0-1.2,0c-0.1,0-0.3-0.2-0.4-0.4c0,0,0.1-0.1,0.1-0.1l2.1,0.2C22.2,35.5,22.2,35.5,22.2,35.5z M13.2,38.6
		c-0.4-0.2-0.6-0.6-0.3-1c0.2-0.4,0.6-0.4,1-0.1c0.1,0.1,0.2,0.1,0.3,0.1c-0.2,0.5-0.1,0.9,0.2,1.3c0.1,0.1,0.3,0.1,0.5,0.2
		c0-0.1,0.1-0.3,0-0.4c-0.2-0.6-0.1-0.7,0.4-0.7c1.2,0,2.3,0,3.6,0c-0.1,0.5-0.1,0.8-0.2,1.2c-0.1,0.4-0.4,0.4-0.6,0.3
		c-0.9,0-1.9-0.1-2.8-0.1c-0.2,0-0.4,0-0.7,0c-0.1,0-0.2,0-0.3,0C13.9,39.1,13.6,38.8,13.2,38.6z M9.5,71.2c-0.1-0.7-0.3-1.3-0.4-2
		c0.1,0,0.2,0,0.2-0.1c0.2,0.7,0.3,1.3,0.5,2C9.7,71.2,9.6,71.2,9.5,71.2z M32.2,79.1c-2.4,0.3-4.8,0.8-7.3,1
		c-3.9,0.4-7.8,0.8-11.7,0.8c-0.4,0-0.9,0.1-1.1-0.1c-0.2-0.2-0.1-0.7-0.2-1.1c-0.3-1.4-0.6-2.9-1-4.3c-0.1-0.6-0.4-1.1-0.6-1.7
		c-0.1-0.2,0-0.5-0.1-0.8c-0.1-1.1-0.1-2.2-0.2-3.2c-0.1-0.5-0.3-1.1-0.5-1.6c-0.4-0.9-0.3-1.8,0.1-2.7c0.7-1.6,1.3-3.3,1.4-5.1
		c0-0.4,0-0.8-0.1-1.3c-0.2-1.1,0.1-2.1,0.4-3.2c0.2-0.7,0.6-1.1,1.2-1.4c0.3-0.1,0.3-0.8,0.1-1.2c-0.2-0.3-0.3-0.5-0.6-0.9
		c0.1-0.2,0.4-0.6,0.7-1c0.6-0.8,0.3-1.7-0.7-1.9c-0.1,0-0.1,0-0.2-0.1c-0.5-0.4-0.4-2.1,0.2-2.5c0.8-0.4,1.1-1.2,1-2
		c0.7-0.5,1.1-1.1,0.9-2c0-0.1,0-0.3,0-0.4c0.6-0.6,0.4-1.3,0.3-1.9c-0.1-0.7-0.1-0.8,0.6-0.8c4.4,0.1,8.9,0.2,13.3,0.2
		c1.1,0,2.2-0.1,3.4-0.1c0.1,0,0.2,0,0.3,0c0,0.2,0,0.3,0,0.4c0.1,2.8,0.1,5.5,0.2,8.3c0,2,0.1,4,0.2,6c0,2.8,0,5.6,0.1,8.4
		c0,1.9,0,3.8,0.1,5.7c0,2.1,0.1,4.1,0.2,6.2c0,1.1,0,2.2,0.1,3.4C32.8,78.8,32.7,79,32.2,79.1z M33.4,72.9l-0.2,0
		c0-1.4,0-2.8,0-4.1c0-2.8-0.1-5.6-0.2-8.4c0-2,0-4,0-6c0-1.7-0.1-3.5-0.1-5.2c0-1.8-0.1-3.6-0.1-5.4c0-1-0.1-2,0-2.9
		c0.1-1.2,0.2-2.3,0.3-3.5c0-0.1,0.1-0.3,0.2-0.4c0,1.4,0,2.8,0,4.1c0,2.3,0.1,4.7,0.1,7c0,3.1,0,6.1,0,9.2c0,1.5,0,2.9,0.1,4.4
		c0,1.6,0,3.3,0,4.9c0,1.7,0.1,3.4,0.1,5.1C33.5,72.1,33.4,72.5,33.4,72.9z M33.9,42.8c-0.1-1.2,0.5-2,1.2-2.8
		c0.6-0.7,1.1-1.5,1.7-2.3c0.1-0.1,0.2-0.3,0.3-0.3c0.9-0.1,1.8-0.1,2.9-0.2c-2,2.5-3.9,4.9-5.8,7.3c0,0-0.1,0-0.1,0
		C33.9,43.9,33.9,43.4,33.9,42.8z M34.7,72.9c-0.2,0.3-0.4,0.7-0.6,1c-0.1,0-0.1,0-0.2-0.1c0.1-0.8,0.2-1.7,0.2-2.5
		c0-1.1-0.1-2.3,0-3.4c0-0.4,0.4-0.9,0.7-1.3c0.6-0.9,1.3-1.8,2-2.7c0.7-0.9,1.3-1.8,1.9-2.7c0.7-1,1.2-2,1.9-3
		c0.9-1.4,1.9-2.8,2.9-4.2c1.4-2,2.9-3.9,4.3-5.8c0.6-0.9,1.2-1.8,1.8-2.7c0.8-1.1,1.6-2.1,2.4-3.2c1.1-1.4,2.1-2.9,3.2-4.3
		c0,0,0,0,0,0c0.2-0.3,1.9-0.3,2,0c0.1,0.1,0.1,0.3,0,0.5c-1,1.7-1.9,3.5-3,5.2c-0.6,1-1.4,1.9-2,2.9c-2.2,3.2-4.3,6.5-6.4,9.7
		c-1.4,2.1-2.8,4.2-4.2,6.3c-0.7,1.1-1.5,2.2-2.2,3.4c-1.1,1.7-2.2,3.5-3.3,5.2C35.8,71.8,35.2,72.3,34.7,72.9z M40.5,79.7
		c-0.8,0-1.5,0-2.5,0c6.6-10,13.1-19.8,19.7-29.6c0.1,0,0.1,0,0.2,0c0.1,1.2,0.3,2.3,0.2,3.5c0,0.5-0.5,1-0.8,1.4
		c-1.7,2.6-3.5,5.3-5.2,7.9c-0.7,1-1.4,2-2.1,3c-1,1.4-1.9,2.7-2.9,4.1c-1.5,2.3-3,4.6-4.5,6.8c-0.6,0.9-1.2,1.8-1.9,2.7
		C40.7,79.6,40.6,79.7,40.5,79.7z M50,71.6c-0.9,1.3-1.8,2.6-2.7,3.9c-0.6,0.8-1.1,1.7-1.6,2.5c-0.3,0.5-0.6,1.1-1,1.5
		c-0.2,0.2-0.5,0.3-0.7,0.4c-0.6,0.1-1.2,0-1.8,0c-0.2,0-0.4-0.1-0.7-0.1c5.6-8.3,11.2-16.6,16.8-24.9c0,0.2,0.1,0.4,0.1,0.5
		c0,0.6-0.1,1.3,0.1,1.9c0.4,1.5-0.6,2.4-1.2,3.4c-0.9,1.6-1.9,3.1-2.9,4.7c-0.7,1.1-1.6,2.1-2.3,3.1C51.3,69.6,50.7,70.6,50,71.6z
		 M58.3,79c0,0.4-0.3,0.5-0.6,0.6c-0.6,0-1.2,0-1.8,0c0-0.1-0.1-0.1-0.1-0.2c0.8-1.1,1.6-2.2,2.5-3.4C58.3,77.1,58.4,78,58.3,79z
		 M58.7,71.9c0,0.7-0.1,1.4-0.1,2.2c0,0.8-0.5,1.2-0.9,1.7c-0.8,1.2-1.7,2.3-2.6,3.5c-0.1,0.2-0.3,0.3-0.5,0.3
		c-0.7,0.1-1.4,0.2-2.2,0.2c2.1-3.1,4.1-6.1,6.1-9c0.1,0,0.1,0,0.2,0C58.7,71.1,58.7,71.5,58.7,71.9z M59.1,57.7
		c-0.1-1.9-0.2-3.8-0.3-5.6c-0.1-1-0.2-2-0.3-3c-0.1-1.2,0-2.3,0-3.5c0-0.5,0.1-1,0.1-1.6c1.7,0,3.4,0,5,0c0.8,0,1.5-0.1,2.3-0.1
		c1.2,0,2.3,0,3.5,0.1c0.4,0,0.5,0.2,0.4,0.6c-0.1,0.4,0,0.8,0,1.2c0,3.1,0.1,6.2,0.1,9.4c0,0.6,0,1.3-0.2,1.9
		c-0.3,1.2-1.3,1.4-2.4,1.5c-1.5,0.2-3.1,0.1-4.6,0c-1-0.1-2-0.1-3-0.1C59.2,58.3,59.1,58.1,59.1,57.7z M70,72.1
		c0,0.1-0.2,0.4-0.4,0.4c-2.1,0.1-4.2,0.3-6.3,0.4c-1.3,0.1-2.6,0.1-4,0.2v-13c3.5,0.1,7,0.4,10.6,0c0,1.2,0,2.4,0,3.5
		c0,2.2,0,4.4,0.1,6.6C70.1,70.9,70.1,71.5,70,72.1z M70.9,39c-0.1,0.7-0.1,0.7-0.8,0.8c-0.9,0-1.7,0-2.6,0c0.1-0.4,0.1-0.8,0.2-1.2
		c0.2,0,0.5,0,0.7-0.1c0.6,0,1.3,0,1.9-0.1C70.7,38.4,71,38.4,70.9,39z M71.5,39.5c0-0.3,0.1-0.7,0.3-0.9c0.2-0.2,0.6-0.1,0.9-0.1
		c0.3,0,0.5,0,0.9,0.1c0,0.1,0,0.3,0.1,0.4c0.3,0.6,0.3,0.6-0.4,0.6c-0.4,0-0.8,0.1-1.3,0.1C71.8,39.7,71.5,39.5,71.5,39.5z
		 M82.6,71.4c0,0.4-0.3,0.4-0.6,0.4c-1.6,0.1-3.2,0.3-4.8,0.4c-1.4,0.1-2.8,0.2-4.3,0.2c-0.2,0-0.5-0.2-0.5-0.3
		c-0.1-1.6-0.3-3.1-0.3-4.7c-0.1-2.3,0-4.7-0.1-7c0-0.4,0.1-0.5,0.5-0.5c1.8,0,3.6,0.1,5.4,0.1c1.2,0,2.4,0,3.7,0
		c0.3,0,0.5-0.3,0.9-0.5c0,1.5,0,3,0,4.6c0,0.8,0,1.6,0,2.4C82.6,68.2,82.6,69.8,82.6,71.4z M82.4,55.4c0,0.1-0.1,0.2-0.1,0.3
		c0,1.4-0.8,1.9-2,2c-1.9,0.3-3.8,0.4-5.8,0.2c-0.8-0.1-1.6,0-2.5,0c0-1.1,0-2,0-3c0-2.6-0.1-5.2-0.1-7.8c0-1.1-0.1-2.1-0.1-3.2
		c0-0.1,0.2-0.4,0.3-0.4c1.6-0.1,3.1-0.1,4.7-0.1c1.8,0,3.6,0,5.3,0.1c0.1,0,0.1,0,0.3,0.1c0,1,0,2,0,3c0,2.7,0,5.3,0,8
		C82.7,54.9,82.5,55.2,82.4,55.4z M81.7,39.5c-0.1,0-0.3-0.3-0.3-0.4c0-0.3,0.1-0.7,0.3-0.7c0.5-0.1,1-0.1,1.5-0.1
		c0.9,0.1,0.9,0.2,1,1.2C83.3,39.6,82.5,39.6,81.7,39.5z M83.2,37.6c-0.1,0-0.1-0.3-0.1-0.4c0.1-0.1,0.3-0.3,0.4-0.3
		c0.7,0,1.3,0.1,2,0.1c0,0.3-0.1,0.5-0.1,0.7c0.4,0.2,0.6,0,0.6-0.4c0-0.3,0.2-0.4,0.5-0.4c1.3-0.1,2.7-0.1,4-0.2
		c0.3,0,0.6,0.1,0.5,0.6c-0.5,0-1,0.1-1.5,0.1c-0.6,0.1-1.3,0.2-1.9,0.3c-0.2,0-0.3,0.2-0.5,0.4c-0.3,0.4-1.1,0.6-1.5,0.2
		c-0.3-0.3-0.6-0.3-0.9-0.2C84.1,38.3,83.7,37.7,83.2,37.6z M85.4,39.7c-0.4,0.1-0.6-0.1-0.6-0.5c0-0.2,0-0.4,0-0.5
		c0.7,0.1,1.3,0.1,2,0.2v0.8C86.3,39.7,85.8,39.6,85.4,39.7z M86.7,42.7l-0.2,0v-1.9c0.1,0,0.1,0,0.2,0
		C86.8,41.5,86.7,42.1,86.7,42.7z M86.7,44.8v2.5l-0.1,0L86.7,44.8C86.6,44.8,86.7,44.8,86.7,44.8z M87.1,76.9
		c-0.1-0.1-0.4-0.2-0.4-0.4c0-1.1,0.1-2.1,0.1-3.2c0-0.8,0-1.6,0-2.5c0-0.9-0.1-1.8-0.1-2.7c-0.1-1.6-0.2-3.2-0.2-4.8
		c0-2.7-0.1-5.3-0.1-8c0-1.6,0.1-3.3,0.2-4.9c0-0.7-0.1-1.3-0.1-2c0.1,0,0.2,0,0.2,0c0,0.6,0,1.3,0,1.9c0,1.6,0.1,3.2,0.2,4.8
		c0,1.6,0,3.2,0,4.8c0,1.3,0.2,2.7,0.2,4c0,1.1,0,2.2,0,3.3c0,1.7,0.1,3.4,0.1,5.2c0,1.1,0,2.1,0,3.2c0,0.3,0.1,0.5,0.1,0.8
		C87.4,76.5,87.2,76.7,87.1,76.9z M87.7,60.8c0-1.8-0.1-3.6-0.1-5.4c0-1.6-0.1-3.3-0.2-4.9c0-2.6-0.1-5.2-0.1-7.8
		c0-1.2,0.2-2.5,0.2-3.7c0,0,0,0,0,0c0.1,8.5,0.2,17,0.3,25.5c0,0,0,0-0.1,0c0-0.1-0.1-0.3-0.1-0.4C87.7,63,87.7,61.9,87.7,60.8z
		 M87.9,72.4c-0.1-1.9,0-3.7,0-5.6c0-0.2,0-0.4,0.1-0.6c0.1,0,0.1,0,0.2,0c0.1,2.8,0.2,5.6,0.3,8.5C87.5,74.1,88,73.2,87.9,72.4z
		 M88.7,56.1c-0.1,0-0.2-0.1-0.2-0.1c0-1-0.1-2.1-0.1-3.1c0-0.1,0-0.2,0.1-0.3c1-1.4,1.9-2.7,2.9-4.1c1.1-1.6,2.2-3.1,3.2-4.7
		c1.1-1.7,2.1-3.6,3.1-5.3c0.1-0.1,0.2-0.2,0.3-0.2c0.6,0,1.2,0,1.9,0c-1.9,3.2-4,5.9-5.9,8.9C92.3,50.1,90.5,53.1,88.7,56.1z
		 M88.8,65.6c0.9-0.2,1.3-1.1,1.8-1.9c0.9-1.5,1.7-3,2.5-4.5c0.9-1.5,1.9-3,2.9-4.5c1.2-1.9,2.4-3.9,3.6-5.8c1.6-2.5,3.3-5.1,5-7.6
		c0.6-0.9,1.1-1.8,1.7-2.7c0.1-0.2,0.4-0.4,0.5-0.3c0.3,0.1,0.6,0.3,0.7,0.5c0.1,0.6,0.1,1.3,0.1,1.9c0,0.1,0,0.1-0.1,0.2
		c-0.9,0.2-0.9,1.3-1.4,1.8c-0.7,0.8-1.3,1.8-2,2.7c-0.7,0.9-1.3,1.8-1.9,2.8c-1.2,1.8-2.5,3.7-3.6,5.6c-1.2,2-2.3,4-3.4,6
		c-1.1,1.9-2.2,3.8-3.4,5.7c-0.9,1.4-1.9,2.6-2.8,3.9c0,0-0.1,0.1-0.3,0.2V65.6z M89.8,74.5c-0.2,0.4-0.4,0.7-0.7,1.1
		c-0.1,0-0.1,0-0.2-0.1c0-1.4,0-2.9,0-4.3c0-0.4,0.3-0.8,0.5-1.1c1.1-1.6,2.3-3.2,3.3-4.8c1.2-1.9,2.2-3.8,3.3-5.8
		c1.3-2.2,2.5-4.3,3.8-6.4c0.8-1.2,1.6-2.4,2.4-3.7c0.5-0.9,1-1.8,1.6-2.6c1.1-1.6,2.4-3.1,3.5-4.6c0,0.6,0,1.3,0,2
		c0,0.3-0.2,0.6-0.1,0.8c0.3,1.4-0.6,2.4-1.2,3.4c-1.4,2.4-2.7,4.7-4.2,7c-1.6,2.5-3.2,4.9-4.8,7.4c-1.3,2-2.5,4.1-3.8,6.1
		C92.2,70.8,91,72.6,89.8,74.5z M96.7,77.3c-0.1,0.1-0.3,0.3-0.4,0.3c-0.6,0-1.2-0.1-2-0.2c4.3-7,8.5-14,12.8-21c0,1.2,0,2.3,0,3.4
		c0,0.7-0.2,1.2-0.7,1.8c-0.7,0.8-1.2,1.8-1.7,2.8c-0.9,1.6-1.9,3.2-2.8,4.8c-0.9,1.5-1.9,3.1-2.8,4.6c-0.5,0.8-1.1,1.5-1.6,2.3
		C97.2,76.4,97,76.9,96.7,77.3z M105.8,77.2c0.3-0.5,0.5-0.9,0.8-1.4C106.8,76.9,106.7,77.2,105.8,77.2z M107.1,64.6
		c0.1,0.7-0.2,1.2-0.5,1.8c-1.3,2.1-2.6,4.3-3.9,6.5c-0.7,1.2-1.5,2.4-2.3,3.5c0,0,0,0,0,0c-0.3,1-1.1,1.2-2,1.1
		c-0.3,0-0.6,0-0.9,0.1c0,0-0.1-0.1-0.1-0.1c0.2-0.3,0.4-0.7,0.6-1c1.3-2.1,2.7-4.2,4-6.3c0.9-1.5,1.8-3.1,2.7-4.6
		c0.6-1,1.1-2,1.6-3c0.1-0.2,0.3-0.4,0.5-0.7c0.1,0,0.1,0,0.2,0.1c0,0.2,0,0.4,0,0.6C107.1,63.3,107.1,64,107.1,64.6z M132.6,74.9
		c0,0.1-0.2,0.2-0.3,0.2c-0.3,0.1-0.7,0.1-1,0.1c-0.1,0-0.1,0-0.2,0c-3.7-0.3-7.3,0.1-10.9,0.4c-3.5,0.3-7,0.3-10.5,0.5
		c-0.5,0-1.1,0.1-1.6,0.2c-0.4,0-0.6,0-0.6-0.5c0.2-1.7,0.3-3.3,0.4-5c0.1-0.8,0.1-1.7,0.1-2.5c0-3.5-0.1-7-0.1-10.5
		c0-2.9,0-5.8,0.1-8.7c0.1-2.9,0.3-5.7,0.4-8.6c0-0.5,0-0.9,0-1.4c1.3,0,2.5-0.1,3.8-0.1c0.4,0,0.9-0.1,1.3-0.1
		c1.5,0.1,3,0.2,4.5,0.2c0.7,0,1.4-0.1,2-0.1c0.1,0,0.2-0.2,0.4-0.3c-0.2-0.1-0.4-0.3-0.6-0.3c-0.4,0.1-0.6,0-0.6-0.3
		c0.4-0.2,0.8-0.2,1.2-0.5c0.4-0.2,0.7-0.2,0.9,0.1c0.2,0.3,0.4,0.6,0,0.9c-0.5,0.5-0.4,1.1,0,1.7c-0.9,1-0.1,1.8,0.3,2.6
		c0.2,0.4,1.1,0.5,1.6,0.2c0.1-0.1,0.4-0.1,0.5-0.1c0.1,0.2,0.2,0.4,0.2,0.6c0,0.3,0,0.7-0.1,1c-0.1,0.2-0.1,0.5-0.3,0.7
		c-0.4,0.7-0.5,1.4-0.1,1.8c0.4,0.4,1.4,0.4,1.9,0c0.2-0.2,0.5-0.4,0.8-0.1c0.2,0.3,0.2,0.5,0,0.8c-0.3,0.3-0.3,0.6,0.2,0.9
		c0.8,0.5,0.9,0.7,0.6,1.6c-0.1,0.3-0.1,0.6-0.2,0.9c0,0.1,0,0.2,0,0.2c-0.8,0.4-0.2,1.1-0.3,1.6c0,0.3,0,0.7-0.2,0.9
		c-0.6,0.7-0.5,1.4-0.3,2.2c0,0.2,0.1,0.4,0,0.5c-0.3,0.5,0.1,0.7,0.5,0.8c1.1,0.3,1.3,0.5,1.3,1.6c0,0.8,0.1,1.6,0.6,2.3
		c0.2,0.4,0,1,0,1.4c-0.2,1.1,0,2.1,1,2.8c0.7,0.5,1.1,1.1,1.3,1.9c0.1,0.4,0.3,0.7,0.5,1c0.3,0.8,0.6,1.6,0.9,2.4
		c0.3,0.9,0.5,1.8,0.7,2.8C132.7,74.2,132.6,74.6,132.6,74.9z M133.8,65.8c-0.5,1.2-0.9,2.4-1.4,3.6c0,0-0.1,0.1-0.1,0.2
		c-0.6-1-1.3-2-1-3.2c0-0.1,0-0.3-0.1-0.4c-0.7-0.9-0.7-1.9-0.6-3c0-0.1,0-0.3-0.1-0.4c-0.8-0.5-0.2-1.1-0.1-1.6
		c0-0.2,0.2-0.4,0.4-0.5c0.7-0.8,1.4-1.5,2.1-2.3c0.3-0.3,0.9-1.9,0.7-2.4c-0.1-0.2-0.1-0.4-0.1-0.6c0.5,0.2,1,0.4,1.5,0.6
		c-0.4,0.7-0.5,1.6-1.1,2.2c-0.8,0.8-1.5,1.8-2.2,2.8c-0.2,0.3-0.3,0.7,0.1,0.9c1,0.6,1.1,1.8,1.5,2.7c0.1,0.2,0.2,0.5,0.3,0.6
		C134,65.2,133.9,65.4,133.8,65.8z M134.9,59.6c-0.7,0.8-1,1.8-0.8,2.9c0.1,0.5,0.2,1,0.3,1.5c-0.1,0-0.2,0-0.2,0.1
		c-0.2-0.4-0.5-0.7-0.5-1.1c-0.1-0.7-0.4-1.2-1-1.6c-0.3-0.3-0.4-0.5-0.1-0.8c0.4-0.5,0.6-1,1-1.5c0.3-0.4,0.7-0.7,1.1-1.1
		c0.3-0.3,0.6-0.7,0.7-1.2c0.1-0.4,0.3-0.8,0.5-1.3c0.1,0.2,0.2,0.3,0.2,0.4C136.3,57.8,136.2,58.1,134.9,59.6z"/>
	<path d="M60.5,23.1c0.2-0.8,0.4-1.5,0.6-2.3c0.1-0.2,0.3-0.5,0.5-0.6c0.1-0.1,0.4-0.1,0.4,0c0.1,0.1,0.1,0.3,0.1,0.4
		c-0.4,1.5-0.7,2.9-1.1,4.4c-0.1,0.4-0.2,0.8-0.7,0.7c-0.6-0.1-0.6-0.5-0.7-0.9c-0.1-0.8-0.1-1.7-0.1-2.5c0-0.3-0.1-0.6-0.2-1
		c-0.1,0-0.1,0-0.2,0c-0.2,0.6-0.3,1.3-0.5,1.9c-0.1,0.6-0.2,1.2-0.4,1.7c0,0.2-0.1,0.3-0.2,0.4c-0.1,0.1-0.3,0.2-0.4,0.2
		c-0.1,0-0.2-0.2-0.3-0.3c-0.3-1.2-0.5-2.4-0.7-3.6c-0.1-0.5-0.2-1.1-0.2-1.6c0-0.2,0.1-0.4,0.2-0.5c0.1-0.1,0.3,0,0.5,0
		c0.4,0.2,0.5,0.5,0.5,0.9c0,0.8,0.1,1.6,0.2,2.3c0.1,0,0.1,0,0.2,0c0.1-0.6,0.2-1.2,0.3-1.9c0.1-0.3,0.2-0.7,0.3-1
		c0.1-0.5,0.6-0.6,0.9-0.5c0.2,0,0.4,0.5,0.4,0.7c0.2,0.9,0.3,1.8,0.4,2.8C60.4,23.1,60.5,23.1,60.5,23.1z"/>
	<path d="M62.7,21.4c0.9,0,1,0.1,1,0.9c0,0.8,0.1,1.6,0.2,2.3c0.4-0.8,0.5-1.6,0.4-2.4c-0.1-0.8,0-0.9,0.9-0.8c0.1,1,0.3,2,0.4,3.1
		c0.1,0,0.1,0,0.2,0c0-0.7-0.1-1.3-0.1-2c0-0.2-0.1-0.3,0-0.5c0-0.2,0.1-0.5,0.3-0.6c0.1-0.1,0.4,0.1,0.6,0.2
		c0.2,0.1,0.4,0.1,0.6,0.1c0.3,0,0.5,0,0.8,0.1c0.2,0.1,0.4,0.3,0.3,0.4c0,0.2-0.3,0.4-0.4,0.4c-0.5,0-0.7,0.2-0.7,0.6
		c0,0.6-0.1,1.1-0.1,1.7c0,0.4-0.2,0.7-0.3,1.1c-0.6-0.2-1.1-0.4-1.6-0.5c0-0.1,0-0.1,0-0.2c-0.1,0.1-0.3,0.2-0.3,0.3
		c-0.2,0.5-0.6,0.5-1,0.5c-0.2,0-0.4-0.4-0.6-0.6C62.5,24.3,62.7,22.8,62.7,21.4z"/>
	<path d="M75.1,24.4c0,0.3,0,0.7,0,1c0,0.5-0.3,0.7-0.8,0.5c-0.1-0.1-0.3-0.3-0.3-0.4c-0.1-1.4-0.1-2.8-0.1-4.3c0-0.3,0-0.6,0.4-0.6
		c0.4,0,0.5,0.2,0.5,0.6c0,0.6,0.1,1.2,0.2,1.8c0.5-0.4,0.8-0.7,1.2-1c0.1-0.1,0.3-0.1,0.3-0.1c0.1,0.1,0.2,0.3,0.2,0.4
		c-0.1,0.3-0.2,0.6-0.4,0.8c-0.2,0.3-0.2,0.6-0.1,0.9c0.2,0.4,0.3,0.8,0.5,1.1c0.1,0.4,0.2,0.7-0.2,0.9c-0.4,0.1-0.6-0.2-0.8-0.5
		c-0.1-0.4-0.3-0.8-0.4-1.2C75.2,24.4,75.1,24.4,75.1,24.4z"/>
	<path d="M85,23.2c-0.6,0.3-0.9,0.7-0.9,1.2c0,0.4,0.1,0.8,0,1.2c0,0.2-0.3,0.4-0.4,0.6c-0.1-0.2-0.4-0.4-0.4-0.6c0-1.5,0-3,0.1-4.5
		c0-0.2,0.3-0.3,0.4-0.5c0.1,0.2,0.3,0.4,0.3,0.6c0,0.4,0,0.8-0.1,1.2c0.4,0,0.8-0.1,1.1,0c0.2,0.1,0.5,0.4,0.6,0.6
		c0.1,0.9,0.1,1.8,0.1,2.6c0,0.2-0.3,0.3-0.4,0.5c-0.1-0.2-0.2-0.4-0.3-0.6c0-0.5,0-1,0-1.5C85.2,23.8,85.1,23.5,85,23.2z"/>
	<path d="M87.3,24.7c0.1,0.2,0.1,0.4,0.2,0.5c0.1,0.1,0.2,0.3,0.4,0.3c0.1,0,0.2-0.2,0.3-0.3c0.1-0.1,0.1-0.2,0.2-0.3
		c0.2-0.3,0.4-0.2,0.5,0.1c0.2,0.4-0.2,1.2-0.6,1.3c-0.4,0.2-1.2,0-1.5-0.4c-0.7-1-0.4-2.8,0.5-3.5c0.5-0.4,1.1-0.3,1.4,0.3
		c0.1,0.2,0.2,0.4,0.2,0.6c0.3,1,0.1,1.3-1,1.2C87.8,24.6,87.6,24.7,87.3,24.7z"/>
	<path d="M68.6,24c0.2,0.3,0.4,0.6,0.6,0.8c0.1,0.1,0.3,0.1,0.4,0.1c0-0.1,0-0.3-0.1-0.4c-0.1-0.2-0.4-0.3-0.5-0.4
		c-0.2-0.4-0.6-0.8-0.6-1.3c0-0.3,0.3-0.8,0.6-1c0.4-0.2,0.9-0.5,1.4,0c0.1,0.1,0.2,0.2,0.3,0.3c0.1,0.3,0,0.5-0.3,0.4
		c-0.1,0-0.2-0.1-0.3-0.1c-0.2,0-0.4,0.2-0.6,0.2c0.1,0.2,0.1,0.4,0.3,0.5c0.5,0.4,0.9,0.7,0.9,1.4c0,0.6-0.3,1.1-0.9,1.3
		c-0.6,0.2-1,0-1.3-0.6c-0.1-0.1-0.2-0.3-0.3-0.4C67.9,24.5,68,24.2,68.6,24z"/>
	<path d="M78.3,25.2c0.6-0.7,0.6-1.5,0.7-2.2c0-0.1,0-0.2,0-0.3c0.1-0.1,0.2-0.3,0.4-0.4c0.1,0,0.3,0.2,0.3,0.3
		c0.1,0.3,0.1,0.5,0.2,0.8c0.1,0.7,0.2,1.5,0.2,2.2c0,0.2-0.2,0.4-0.3,0.7c-0.2-0.1-0.4-0.2-0.7-0.4c0,0-0.1,0-0.2,0.1
		c-0.8,0.4-1.3,0-1.4-0.9c-0.1-0.8-0.1-1.5-0.2-2.3c0-0.1,0-0.3,0-0.4c0.1-0.1,0.2-0.3,0.3-0.3c0.1,0,0.3,0.1,0.3,0.3
		c0.1,0.3,0.1,0.6,0.1,0.9C77.9,23.8,78,24.4,78.3,25.2z"/>
	<path d="M81.7,23.4c-0.4,0.5-0.5,0.9-0.3,1.4c0,0.2,0.3,0.3,0.5,0.4c0.1,0,0.2-0.2,0.4-0.4c0.1-0.1,0.3-0.3,0.3-0.3
		c0.1,0,0.3,0.2,0.4,0.4c0.1,0.3-0.2,1-0.5,1.2c-0.3,0.2-1.1,0-1.4-0.3c-0.7-0.8-0.7-1.7-0.5-2.7c0-0.1,0-0.2,0.1-0.3
		c0.2-0.3,0.4-0.9,0.7-0.9c0.3-0.1,0.9,0.2,1.1,0.5c0.3,0.3,0.3,0.9,0.4,1.3c0,0.1-0.2,0.3-0.3,0.3c-0.1,0-0.3-0.1-0.5-0.2
		C81.9,23.8,81.8,23.6,81.7,23.4z"/>
	<path d="M71.6,21.7c0.1-0.3,0.2-0.7,0.4-0.8c0.5-0.1,0.6,0.4,0.6,0.7c0.3,0.1,0.5,0.2,0.7,0.3c-0.1,0.2-0.2,0.6-0.3,0.7
		c-0.8,0.5-0.5,1.3-0.5,2c0,0.2,0.3,0.4,0.4,0.4c0.3,0.2,0.6,0.4,0.3,0.7c-0.2,0.2-0.7,0.3-0.9,0.2c-0.4-0.2-0.7-0.6-0.6-1.1
		c0-0.7-0.1-1.3-0.1-1.9c-0.3-0.2-0.5-0.3-0.9-0.5C71.2,22.2,71.5,22,71.6,21.7C71.7,21.8,71.6,21.7,71.6,21.7z"/>
	<path d="M34.5,30.9c0.1-0.3,0.1-0.5,0.2-0.6c0.1-0.1,0.2-0.2,0.3-0.2c0.1,0,0.2,0.2,0.3,0.3c0.1,0.5,0.1,1,0.2,1.5
		c0,0.1,0,0.2-0.1,0.2c-0.1,0-0.2,0-0.3-0.1C34.9,31.7,34.7,31.2,34.5,30.9z"/>
	<path d="M43,27c0.1,0.2,0.2,0.3,0.3,0.5c0.1,0.4,0.2,0.8,0.2,1.2c0,0.1-0.1,0.3-0.1,0.4C43.2,29.1,43,29.1,43,29
		c-0.1-0.5-0.2-1-0.3-1.5C42.7,27.4,42.8,27.3,43,27z"/>
	<path d="M37.7,28.8c-0.4,0.2-0.7,0-0.8-0.5c0-0.2,0-0.4,0-0.6c0.1-0.2,0.3-0.3,0.5-0.5c0,0.2,0,0.4,0.1,0.6
		C37.6,28.1,37.6,28.4,37.7,28.8z"/>
	<path d="M77.1,28.3c0.1-0.1,0.2-0.3,0.4-0.4c0.1,0.1,0.3,0.3,0.3,0.4c0.1,0.3,0.2,0.7,0.2,1c0,0.1-0.1,0.2-0.1,0.4
		c-0.1-0.1-0.3-0.1-0.3-0.2C77.4,29.1,77.2,28.8,77.1,28.3z"/>
	<path d="M110.7,30.3c-0.3-0.6-0.2-1.1-0.1-1.7c0-0.1,0.2-0.1,0.3-0.2c0.1,0.1,0.2,0.3,0.2,0.4c-0.1,0.5-0.2,1-0.3,1.5
		C110.8,30.3,110.8,30.3,110.7,30.3z"/>
	<path d="M76.8,20.9c0.3-0.2,0.5-0.5,0.6-0.4c0.2,0.1,0.5,0.4,0.5,0.5c0,0.2-0.3,0.4-0.5,0.6C77.3,21.3,77.1,21.2,76.8,20.9z"/>
	<path d="M108.7,31.3c-0.2,0.3-0.5,0.9-0.6,0.8c-0.5-0.1-0.2-0.6-0.2-0.9c0-0.2,0.2-0.4,0.3-0.5C108.4,30.9,108.5,31,108.7,31.3z"/>
	<path d="M47,29.4c0-0.5,0-0.9,0-1.4c0-0.1,0.2-0.3,0.3-0.4c0.1,0.1,0.3,0.3,0.3,0.4C47.5,28.6,47.4,29.1,47,29.4z"/>
	<path d="M79.6,20.4c0.1,0.2,0.4,0.4,0.4,0.5c-0.1,0.2-0.3,0.4-0.5,0.5c-0.1,0-0.4-0.3-0.4-0.4c0-0.2,0.2-0.4,0.3-0.6
		C79.4,20.4,79.5,20.4,79.6,20.4z"/>
	<path d="M106.7,30c-0.5-0.5-0.6-1.1-0.4-1.4c0.1-0.1,0.2-0.1,0.3-0.2c0.1,0.1,0.2,0.2,0.2,0.3C106.8,29.1,106.7,29.4,106.7,30z"/>
	<path d="M47.3,34.3c-0.1-0.5-0.2-1.1-0.2-1.6c0-0.1,0.2-0.2,0.3-0.4c0.1,0.1,0.2,0.2,0.2,0.3c0,0.6-0.1,1.1-0.2,1.6
		C47.4,34.3,47.3,34.3,47.3,34.3z"/>
</g>
<path fill="#F7AEA8" d="M60.8,101.6c-0.5-0.3-1-0.5-1.8-0.5c-0.4,0-0.7,0-0.9,0l-0.6,0c-0.2,0-0.3,0-0.5,0c-1.4-0.3-1.5-0.7-1.4-1.1
	c0.1-0.6,0.3-0.8,0.6-0.9c0.3-0.2,0.7-0.3,1.4-0.3c0.1,0,0.2,0,0.4,0c0.9,0,1.7,0.2,2.3,0.6l0.2,0.1h0.1c0.3,0,0.5-0.3,0.6-0.6
	c0.1-0.3,0-0.5-0.3-0.7c-0.5-0.3-0.8-0.3-1.3-0.4l-0.2,0c-0.5-0.1-1.1-0.2-1.7-0.2l-0.1,0c-0.9,0-1.5,0.2-1.8,0.4
	c-0.8,0.4-1.2,0.9-1.3,1.8c-0.2,1.3,0.9,2.3,2,2.5c0.6,0.1,0.8,0.1,1.3,0.1c0.3,0,0.6,0,1.2,0c0.4,0,1,0,1.3,0.2
	c0.3,0.2,0.4,0.5,0.5,1.1c0,0.7-0.6,1.3-1,1.4c-0.4,0.1-0.7,0.1-0.9,0.1c-0.1,0-0.2,0-0.4,0c-0.2,0-0.3,0-0.5,0l-0.4,0
	c-1,0-2-0.4-2.5-0.9c-0.1-0.1-0.2-0.1-0.3-0.1c-0.3,0-0.5,0.3-0.6,0.5c-0.1,0.3,0,0.5,0.2,0.7c0.5,0.4,1,0.6,1.4,0.7
	c0.5,0.2,1.6,0.3,2.2,0.3l0.2,0c0.2,0,0.4,0,0.6,0c0.4,0,0.6,0,1.3-0.2c0.9-0.3,1.9-1.4,1.9-2.4C61.9,102.8,61.5,102,60.8,101.6z
	 M50.8,104.4l-0.1-0.1c-0.4-0.3-1-0.8-1.5-1.3c0,0-0.3-0.3-0.3-0.3c0,0,0,0,0,0c0.8-0.1,1.7-0.4,2.1-1c0.5-0.7,0.5-0.9,0.5-1.5
	l0-0.2c0-1.1-0.6-2.4-3.4-2.4c-0.2,0-0.4,0-0.6,0c-0.6,0-0.8,0-0.9,0c-0.1,0-0.1,0-0.2,0c-0.1,0-0.4,0-1.2,0c-0.4,0-0.7,0.1-0.9,0.3
	c-0.1,0.1-0.2,0.3-0.1,0.4c0.1,0.9,0.1,1.6,0.1,2.5l0,0.4c0,0.8-0.1,1.8-0.1,2.7c0,0.4,0,0.6,0,0.8c0,0.2,0,0.5,0,1
	c0,0.3,0.3,0.5,0.6,0.5c0.2,0,0.4-0.1,0.5-0.2c0.1-0.1,0.1-0.2,0.1-0.3c0-0.7,0-1.3,0-1.9l0-0.3c0-0.5,0.1-0.7,0.1-0.7l0.4,0
	c0.5,0,1.2,0,1.5,0.2c0.4,0.2,0.8,0.5,1.3,1c0.2,0.2,0.4,0.4,0.6,0.6c0.3,0.3,0.5,0.5,0.8,0.8c0.3,0.2,0.3,0.3,0.4,0.4
	c0.1,0.1,0.2,0.2,0.4,0.4c0.1,0.1,0.3,0.2,0.5,0.2c0.3,0,0.6-0.1,0.7-0.3c0.1-0.1,0.1-0.3,0-0.4C51.7,105,51.2,104.7,50.8,104.4z
	 M47.7,101.8c-0.4,0-0.7,0-1-0.1c-0.3,0-0.6-0.1-1-0.1c-0.2,0-0.3,0-0.3-0.1c-0.1-0.1-0.1-0.4,0-0.7l0-0.1c0-0.5,0.1-1.1,0.1-1.7
	c0-0.5,0.2-0.5,0.4-0.5c0.1,0,0.1,0,0.2,0c0.5,0.1,0.7,0.1,1,0.1c0.2,0,0.5,0,0.9,0c0.2,0,0.5,0,0.7,0c1.1,0,1.5,0.2,1.5,1.5
	c0,0.4-0.1,1-0.4,1.1c-0.2,0.1-0.3,0.2-0.4,0.2c-0.2,0.1-0.4,0.2-0.8,0.3C48.3,101.8,48,101.8,47.7,101.8z M88.1,98.7
	c0.2,0,0.4-0.1,0.5-0.2c0.1-0.1,0.2-0.3,0.2-0.6c0-0.6-0.4-0.7-0.6-0.7l-0.1,0c-0.4,0-0.7,0.2-0.8,0.6c0,0.2,0,0.4,0.2,0.6
	C87.7,98.6,87.9,98.7,88.1,98.7z M40.9,100.2c0-0.3,0-0.6,0-0.8c0-0.4,0-0.8,0-1.4c0-0.1,0-0.3-0.1-0.4c-0.1-0.1-0.3-0.2-0.6-0.2
	c-0.2,0-0.4,0.1-0.5,0.2c-0.1,0.1-0.1,0.2-0.1,0.4c0,0.4,0,0.7,0.1,1c0,0.4,0.1,0.7,0.1,1.2l0,0.4c0,0.6,0,1,0,1.7
	c0,0.2,0,0.4,0,0.5c0,0.4,0,0.7-0.3,1.1c-0.6,1.1-1.5,1.1-2.6,1.1l-0.5,0c-0.4,0-0.6,0-1.2-0.3c-0.7-0.3-0.9-0.9-1.1-1.9
	c-0.1-0.7-0.1-0.8-0.1-1c0-0.2,0-0.4,0-0.8l0-0.5c0-0.4,0-0.7,0-1.2c0-0.2,0-0.3,0-0.5c0-0.2,0-0.4,0-0.6c0-0.3-0.3-0.5-0.6-0.5
	c-0.2,0-0.3,0.1-0.4,0.2c-0.1,0.1-0.2,0.2-0.1,0.4c0,0.4,0,0.6,0,1c0,0.7-0.1,1.8,0,2.5c0,0.8,0.1,1.3,0.2,1.8
	c0.2,0.9,0.5,1.8,1.8,2.3c0.9,0.3,1.1,0.4,2.1,0.4c1.1,0,2.7-0.2,3.7-2c0.3-0.6,0.4-1.3,0.4-2c0-0.2,0-0.3,0-0.5c0-0.5,0-0.6,0-0.8
	C40.9,100.7,40.9,100.6,40.9,100.2z M29.9,97.3c-0.3,0-0.7,0.2-0.8,0.6c-0.3,2.1-0.5,2.7-1.2,4.5c-0.2,0.5-0.3,1-0.4,1.5
	c0,0.1,0,0.1,0,0.1c-0.2-0.4-0.4-0.7-0.5-1c-0.2-0.3-0.3-0.5-0.5-0.9c-0.2-0.3-0.3-0.5-0.4-0.7c-0.1-0.2-0.3-0.5-0.4-0.8l-0.1-0.1
	c-0.4-0.9-0.6-1.3-0.9-2.2c-0.2-0.5-0.5-0.8-0.8-0.8c-0.3,0-0.5,0.2-0.5,0.5c0,0.2,0,0.3,0,0.5c0,0.1,0,0.3,0,0.4
	c0,0.2-0.1,0.3-0.1,0.5c0,0.1-0.1,0.3-0.1,0.5c-0.2,0.9-0.3,1.4-0.5,2.2l-0.2,0.7c0,0.2-0.1,0.3-0.2,0.5c0,0-0.2,0.5-0.2,0.6
	c-0.1-0.1-0.1-0.2-0.2-0.4c-0.1-0.3-0.3-0.6-0.5-1c-0.2-0.4-0.3-0.7-0.4-1c-0.1-0.3-0.2-0.7-0.4-1.1l-0.3-0.7
	c-0.3-0.7-0.6-1.2-0.8-1.9c-0.1-0.4-0.4-0.5-0.7-0.5c-0.2,0-0.3,0.1-0.4,0.2c-0.1,0.1-0.1,0.3-0.1,0.4c0.1,0.3,0.2,0.5,0.3,0.9
	l0.1,0.3c0.2,0.5,0.3,0.8,0.5,1.2c0.1,0.2,0.2,0.4,0.3,0.7c0.3,0.6,0.5,1.1,0.8,1.7c0,0,0.5,1,0.5,1.2c0.2,0.5,0.3,0.7,0.5,1.5
	c0.1,0.3,0.5,0.5,0.9,0.5c0.4,0,0.6-0.1,0.6-0.4c0-0.3,0.1-0.6,0.1-0.8c0.1-0.6,0.1-1,0.3-1.7c0.1-0.3,0.2-0.5,0.3-0.7
	c0.1-0.1,0.1-0.3,0.2-0.4c0.2-0.4,0.3-1,0.4-1.8c0,0,0,0.1,0.1,0.1c0.4,0.8,0.6,1.4,1,2.3c0.2,0.4,0.4,0.7,0.5,1
	c0.2,0.4,0.4,0.8,0.7,1.3c0.2,0.4,0.2,0.4,0.3,0.9c0.1,0.3,0.4,0.6,0.7,0.6c0.3,0,0.5-0.2,0.5-0.4c0.4-1.5,0.7-2.3,1-3.2
	c0.2-0.6,0.5-1.3,0.7-2.2c0.3-1,0.4-1.6,0.6-2.6c0-0.1,0-0.3-0.1-0.4C30.3,97.4,30.1,97.3,29.9,97.3z M86.1,98.8L86.1,98.8
	c0.3,0,0.5-0.1,0.6-0.3c0.1-0.2,0.2-0.3,0.1-0.6c0-0.4-0.3-0.7-0.8-0.7c0,0,0,0,0,0c-0.2,0-0.4,0.1-0.5,0.2
	c-0.1,0.1-0.2,0.3-0.2,0.5C85.4,98.5,85.7,98.8,86.1,98.8z M111.9,99.3l0-0.4c0-0.5,0-0.8-0.1-1.4c0-0.2-0.2-0.4-0.5-0.4
	c-0.3,0-0.7,0.2-0.7,0.5c0,0.2,0,0.3,0,0.5c0,0.2,0.1,0.5,0.1,1.1c0,0.5,0,0.9,0,1.3c0,0.4-0.1,0.7-0.1,1.2c0,0.1,0,0.2,0,0.2
	c0,0,0,0-0.1,0l-0.5,0c-0.3,0-0.6,0-0.9,0c-0.2,0-0.5,0-0.8,0l-0.2,0c-0.4,0-0.6,0-0.9,0.1c-0.1,0-0.2,0-0.4,0c-0.2,0-0.3,0-0.5,0
	l-1.1,0c0-0.3,0-0.6,0-0.9s0-0.6,0-0.8c0-0.2,0-0.4,0-0.7c0-0.2,0-0.4,0-0.6c0-0.3,0-0.7,0-1.1c0-0.2-0.2-0.4-0.6-0.4
	c-0.1,0-0.3,0-0.5,0.2l-0.1,0.2l0,0.1c0,0.4,0,0.7,0,0.9c0,0.2,0,0.4,0,0.6c0,0.3,0,0.5,0,0.8c0,0.3,0,0.5,0,0.8c0,0.5,0,0.8,0,1.2
	c0,0.5-0.1,1,0,1.7c0,0.2,0,0.4,0,0.6c0,0.5,0,1,0.2,1.4c0.1,0.1,0.2,0.2,0.4,0.2c0.2,0,0.5,0,0.6-0.2l0.1-0.1l0-0.1
	c0-0.2-0.1-0.3-0.1-0.5c-0.1-0.4-0.1-0.6-0.1-1.2l0-0.2c0-0.3,0-0.5,0-0.7l1,0c0.3,0,0.6,0,0.8,0c0.3,0,0.6,0,0.8,0
	c0.2,0,0.3,0,0.5,0c0.7,0,1.2-0.1,1.5-0.1c0.5,0,0.7,0,0.7,0c0,0,0,0,0,0c0,0.1,0,0.3,0,0.4c0,0.2,0,0.5,0,0.7c0,0.3,0,0.5,0,0.6
	c0,0.2,0,0.4,0,0.7c0,0.1,0,0.2,0.1,0.3c0.1,0.1,0.3,0.2,0.5,0.2c0.4,0,0.6-0.2,0.6-0.4c0-0.3,0-0.6,0-0.9c0-0.3,0-0.6,0-0.9
	c0-0.5,0-0.8,0-1.2c0-0.3,0-0.5,0-0.9c0-0.4,0-0.8,0-1.1C111.9,100.3,111.9,99.8,111.9,99.3z M100.7,103.7l-0.2,0l-0.1,0.1
	c-0.5,0.6-0.8,0.8-1.5,1c-0.3,0.1-1.1,0.2-1.7,0.2h0c-0.7-0.1-1.1-0.2-1.4-0.5c-0.6-0.5-0.8-1-0.8-2.1c-0.1-1,0-1.2,0.3-1.8l0.1-0.2
	c0.3-0.7,0.5-1.1,1.1-1.4c0.5-0.2,1.3-0.4,2.1-0.4c0.3,0,0.6,0,0.8,0.1c0.2,0.1,0.4,0.2,0.6,0.3c0.1,0.1,0.3,0.2,0.4,0.3
	c0.1,0.1,0.2,0.1,0.3,0.1c0.2,0,0.4-0.1,0.5-0.3c0.1-0.2,0.1-0.3,0-0.4c-0.5-0.5-0.9-0.7-1.4-0.9l-0.3-0.1c-0.4-0.1-0.9-0.2-1.4-0.2
	c-0.1,0-0.2,0-0.2,0c-1.3,0.1-2.4,0.8-3,1.4c-0.7,0.7-1.1,2-1.1,3.5c0,1.2,0.4,1.9,1.2,2.8c0.6,0.6,1.7,1,2.9,1l0.2,0
	c0.5,0,1.4-0.2,1.8-0.4c0.7-0.2,0.8-0.4,1-0.7c0.1-0.1,0.2-0.2,0.3-0.3c0.2-0.1,0.2-0.4,0.1-0.6C101.2,103.9,101,103.7,100.7,103.7z
	 M70.1,97.6c-0.1,0-0.3,0-0.5,0c-0.3,0-0.6,0-0.8,0c-0.2,0-0.4,0-0.6,0l-0.1,0c-0.8,0-1.3,0-2.2-0.1l-0.4,0c-0.2,0-0.4,0-0.7,0
	c-0.4,0-0.7-0.1-1.1-0.1l-0.3,0c-0.2,0-0.3,0.1-0.4,0.2c-0.1,0.1-0.1,0.3-0.1,0.4c0,0.4,0.3,0.7,0.6,0.7c0.2,0,0.4,0,0.5,0
	c0.1,0,0.2,0,0.4,0l0.2,0c0.2,0,0.4,0,0.7,0c0.2,0,0.5,0,0.7,0c0.1,0,0.1,0,0.2,0c0.1,0,0.2,0,0.2,0.4c0,0.2,0,0.5-0.1,0.7
	s-0.1,0.5-0.1,0.8c0,0.5,0,1,0,1.5l0,0.6c0,0.4,0,0.7,0,1.1l0,0.5c0,0.4,0,0.9-0.1,1.4c0,0.1,0,0.3,0.1,0.4c0.2,0.2,0.4,0.3,0.6,0.3
	c0.4,0,0.6-0.2,0.6-0.5c0-0.6,0-1,0-1.4c0-0.3-0.1-0.6-0.1-1.1c0-0.8,0-1.8,0-2.7l0-1.2c0-0.2,0-0.6,0-0.7c0,0,0.1,0,0.2,0
	c0.4,0,0.7,0,1.1,0c0.3,0,0.4,0,0.6,0.1c0.2,0,0.3,0,0.6,0.1c0.3,0,0.4-0.3,0.5-0.6C70.6,97.8,70.4,97.6,70.1,97.6z M118.1,103.1
	c0.3,0,1.4,0,1.4,0c0.4,0,0.7,0,1.1,0c0.3,0,0.6,0,0.9,0c0.2,0,0.4-0.2,0.4-0.5c0-0.3-0.2-0.6-0.4-0.6c-0.8,0-1.4,0-2,0l-1.3,0
	c-0.2,0-0.5,0-0.8,0c-0.2,0-0.3,0-0.5,0c-0.3,0-0.4,0-0.4-0.1c0-0.7,0-1.5,0-2.3c0-0.4,0-0.9,0-0.9c0,0,0.1,0,0.1,0
	c0.1,0,0.2,0,0.3,0c0.2,0,0.4,0,0.6,0l0.2,0c0.2,0,0.3,0,0.4,0c0.3,0,0.6,0,0.9,0c0.2,0,0.4,0,0.5,0c0.3,0,0.5,0,0.8,0
	c0.3,0,0.6,0,0.9,0c0.2,0,0.4-0.2,0.4-0.5s-0.2-0.6-0.5-0.6c-0.5,0-0.9,0-1.2,0c-0.2,0-0.4,0-0.6,0c-0.3,0-0.5,0-0.8,0
	c-0.3,0-0.6,0.1-1,0.1l-0.3,0c-0.4,0-0.6,0-1.2-0.1c-0.1,0-0.1,0-0.2,0c-0.2,0-0.4,0.1-0.5,0.2c-0.1,0.1-0.2,0.3-0.1,0.6
	c0,0.4,0,0.6,0,0.9c0,0.1,0,0.3,0,0.5c0,2.4,0,3.3,0.1,5.7c0,0.2,0.1,0.9,0.7,0.9c0,0,0,0,0,0c0.3,0,0.5,0,0.7,0c0.3,0,0.5,0,0.8,0
	c0.5,0,0.8,0,1.1,0c0.3,0,0.6,0,0.9,0c0.2,0,0.4,0,0.6,0c0.3,0,0.5,0,0.9,0c0.3,0,0.5-0.3,0.5-0.7c0-0.4-0.2-0.6-0.4-0.6
	c-0.3,0-0.6,0-1,0c-0.3,0-0.5,0-0.7,0l-0.5,0c-0.3,0-0.6,0-1,0c-0.1,0-0.3,0-0.5,0c-0.3,0-0.6,0-1,0c0,0,0-0.6,0-0.6
	c0-0.5-0.1-0.9-0.1-1.2c0.1,0,0.5-0.1,1.1-0.1L118.1,103.1z M79.4,104.2c-0.5-0.4-1.1-0.9-1.7-1.5c-0.3-0.3-0.5-0.5-0.7-0.7
	l-0.2-0.2c-0.2-0.2-0.2-0.2-0.2-0.2c0,0,0.1-0.1,0.2-0.2c0.2-0.2,0.4-0.4,0.6-0.6c0.1-0.1,0.2-0.2,0.4-0.4l0.3-0.3
	c0.2-0.2,0.4-0.4,0.7-0.7c0.2-0.2,0.4-0.3,0.6-0.4c0.2-0.1,0.3-0.2,0.5-0.3c0.2-0.1,0.2-0.4,0.2-0.6c-0.1-0.3-0.4-0.6-0.7-0.6
	l-0.2,0l-0.1,0.1c-0.4,0.4-0.8,0.8-1.3,1.2c-0.3,0.3-0.5,0.5-0.7,0.7c-0.1,0.1-0.2,0.2-0.3,0.4c-0.3,0.3-0.5,0.5-0.8,0.7
	c-0.1,0.1-0.3,0.2-0.5,0.4c-0.2,0.2-0.3,0.3-0.5,0.4c-0.2,0.2-0.4,0.4-0.8,0.7c0-0.1-0.1-0.4-0.1-1.1c0-0.3,0-0.6,0-0.8
	c0-0.3,0-0.6,0-1c0-0.2,0-0.3,0-0.5c0-0.3,0-0.5,0-0.9c0-0.3-0.3-0.5-0.6-0.5c-0.4,0-0.6,0.2-0.6,0.5c0,0.3,0,0.5,0.1,0.7
	c0,0.2,0.1,0.4,0.1,0.6c0,0.4,0,0.9,0,1.4c0,0.4,0,0.8,0,1.1c0,0.5,0,0.7,0,0.9c0,0.2,0,0.4,0,0.8c0,0.2,0,0.4,0,0.6
	c0,0.3,0,0.5,0,0.8c0,0.3,0,0.4,0,0.5c0,0.1,0,0.2,0,0.4c0,0.1,0,0.2,0.3,0.3c0.1,0,0.2,0.1,0.3,0.1c0.1,0,0.3,0,0.4-0.2l0.1-0.2
	l0-0.3c0-0.1,0-0.2,0-0.5l0-0.1c0-0.7,0-1,0-1.4c0-0.1,0.2-0.3,0.5-0.5c0.1-0.1,0.2-0.2,0.3-0.3c0.1-0.1,0.2-0.2,0.3-0.3
	c0.2-0.1,0.3-0.2,0.3-0.2c0.1,0,0.3,0.2,0.5,0.4c0.1,0.1,0.3,0.2,0.4,0.4c0.3,0.2,0.5,0.4,0.6,0.6c0.3,0.3,0.6,0.6,1,0.9
	c0.3,0.2,0.5,0.4,0.7,0.7c0.2,0.3,0.5,0.5,0.8,0.8c0.1,0.1,0.2,0.1,0.4,0.1c0.3,0,0.6-0.1,0.7-0.4c0.1-0.1,0-0.3-0.1-0.4
	C80.5,105,80,104.6,79.4,104.2z M91.2,100.2c0-0.3,0-0.6,0-0.8c0-0.4,0-0.8,0-1.4c0-0.1,0-0.3-0.1-0.4c-0.1-0.1-0.3-0.2-0.6-0.2
	c-0.2,0-0.4,0.1-0.5,0.2c-0.1,0.1-0.1,0.2-0.1,0.4c0,0.4,0,0.7,0.1,1c0,0.4,0.1,0.7,0.1,1.2l0,0.4c0,0.6,0,1,0,1.7
	c0,0.2,0,0.4,0,0.5c0,0.4,0,0.7-0.3,1.1c-0.6,1.1-1.5,1.1-2.6,1.1l-0.5,0c-0.4,0-0.6,0-1.2-0.3c-0.7-0.3-0.9-0.9-1.1-1.9
	c-0.1-0.7-0.1-0.8-0.1-1c0-0.2,0-0.4,0-0.8l0-0.5c0-0.4,0-0.7,0-1.2c0-0.2,0-0.3,0-0.5c0-0.2,0-0.4,0-0.6c0-0.3-0.3-0.5-0.6-0.5
	c-0.2,0-0.3,0.1-0.4,0.2c-0.1,0.1-0.2,0.2-0.1,0.4c0,0.4,0,0.6,0,1c0,0.7-0.1,1.8,0,2.5c0,0.8,0.1,1.3,0.2,1.8
	c0.2,0.9,0.5,1.8,1.8,2.3c0.9,0.3,1.1,0.4,2.1,0.4c1.1,0,2.7-0.2,3.7-2c0.3-0.6,0.4-1.3,0.4-2c0-0.2,0-0.3,0-0.5c0-0.5,0-0.6,0-0.8
	C91.2,100.7,91.2,100.6,91.2,100.2z"/>
</svg>
