<?xml version="1.0" encoding="utf-8"?>
<!-- Generator: Adobe Illustrator 24.2.1, SVG Export Plug-In . SVG Version: 6.00 Build 0)  -->
<svg version="1.1" id="Layer_1" xmlns="http://www.w3.org/2000/svg" xmlns:xlink="http://www.w3.org/1999/xlink" x="0px" y="0px"
	 width="87.9px" height="50px" viewBox="0 0 87.9 50" enable-background="new 0 0 87.9 50" xml:space="preserve">
<g>
	<g>
		<g>
			<path fill="#F7AEA8" d="M87.4,26.1c-0.4-0.9-0.4-1.6-0.2-2.5c0.7-3.5,0.2-6.9-1.7-10.1c-1.8-3-4.3-5.6-7.6-7.9
				C76,4.3,74.1,3.4,72,2.7c-5.8-2-11.7-2.3-18.2-2.5C48.1-0.1,42.4,0,36.9,0.1l-2.6,0C28.9,0.2,23.4,0.2,18,1.4
				c-2,0.4-4.1,1.1-6.2,2c-0.7,0.3-1.3,0.6-1.9,1c-3.1,2.1-4.7,5.3-5.6,7.6c-0.9,2.3-0.8,4.7,0.2,6.9c-0.3,0.4-0.7,0.8-1,1.3
				c-1.7,2.2-1.9,4.3-0.4,6.6c-0.1,0.1-0.2,0.2-0.3,0.2c-0.9,0.8-1.6,1.6-2.1,2.5c-1.3,2.1-0.2,4.1,0.3,5.1l0.2,0.3
				c1.4,2.6,3.4,5,6,7.1c2.1,1.7,4.2,3.3,6.5,4.4c4.4,2.2,9.1,3,13.1,3.6c0.7,0.1,1.4,0.1,2,0l0.1,0c0.9,0,1.7-0.1,2.6-0.1
				c1.5-0.1,3.1-0.2,4.7-0.2c2.3,0,4.7,0,6.9,0c3.6,0,7.4,0,11.1-0.1c9.1-0.3,16.3-1.9,22.8-5l0.2-0.1c1.1-0.5,2.3-1.1,3.4-1.8
				c1-0.6,1.8-1.3,2.4-2.1c2.4-2.7,3.9-5.5,4.6-8.4C87.9,30.5,88.3,28.3,87.4,26.1z"/>
		</g>
	</g>
	<g>
		<path d="M6.1,27.4c-0.5-0.7-0.8-1.2-1.1-1.7c-1.1-1.7-1-2.8,0.2-4.3c0.6-0.8,1.2-1.5,1.8-2.3c-0.2-0.4-0.3-0.7-0.4-1
			c-0.9-1.8-1-3.6-0.3-5.4c1.3-3.2,3-6,6.4-7.4c1.9-0.8,3.8-1.4,5.8-1.8c5.4-1.1,10.9-1.2,16.4-1.2c6.3-0.1,12.6-0.2,18.9,0
			c5.9,0.2,11.9,0.5,17.6,2.4c1.9,0.6,3.6,1.5,5.3,2.7c2.8,2,5.2,4.3,7,7.3c1.6,2.6,2.1,5.5,1.4,8.5c-0.3,1.3-0.2,2.5,0.4,3.8
			c0.6,1.5,0.4,3.1,0.1,4.7c-0.7,2.9-2.2,5.4-4.1,7.5c-1.4,1.6-3.4,2.6-5.4,3.5C69,46,61.6,47.2,54,47.4c-6,0.2-12,0-18,0.1
			c-2.4,0-4.9,0.2-7.3,0.3c-0.6,0-1.1,0.1-1.7,0c-4.3-0.6-8.5-1.5-12.4-3.4c-2.2-1.1-4.2-2.6-6.2-4.2c-2.2-1.8-4.1-3.9-5.5-6.4
			c-0.5-1-1.3-2.1-0.6-3.3c0.5-0.7,1.1-1.4,1.7-2C4.6,28.1,5.2,27.9,6.1,27.4z M25.9,25.8L25.9,25.8c0.7,0.2,1.4,0.6,2.2,0.6
			c0.5,0,1.2-0.3,1.4-0.7c0.2-0.4,0.1-1.2-0.3-1.5c-1.3-1.3-2.4-2.9-4.1-4c-3-2-5.9-2.3-9.1-1c-1.6,0.6-2.1,2.1-1,3.4
			c1.1,1.2,2.4,2.2,3.8,3.1c0.7,0.4,1.6,0.6,2.4,0.6C22.8,26.2,24.3,25.9,25.9,25.8z M8.6,12.2c0.6-0.5,1.3-1.1,1.9-1.6
			c2.4-1.9,5.3-2.7,8.2-3.7c2.5-0.8,5-0.9,7.6-1.1c4.8-0.4,9.5-1.3,14.4-0.8c3.9,0.4,7.9,0.4,11.9,0.8c3.7,0.4,7.3,1,10.9,1.6
			c3.3,0.5,6.4,1.8,9.3,3.6c1.5,0.9,3.1,1.9,4.5,3c1.7,1.3,3.1,2.8,4.2,4.7c0.5,1,0.7,2.1,0.2,3.1c-0.8,1.6-1.3,3.1-0.4,4.8
			c0.5,0.9,0,1.6-1.1,1.6c-0.7,0-1.5-0.1-2.1-0.4c-3.1-1.2-6.3-1.9-9.7-1.3c-2.8,0.5-5.7,1.1-8.5,1.8c-4.4,1.2-8.9,1.5-13.5,1.7
			c-3.6,0.1-7.3,0.1-10.9,0.4c-5.1,0.4-10.2,0.6-15.3-0.1c-3.6-0.5-7.2-0.7-10.8-1c-1.2-0.1-2.5,0.1-3.7,0.4
			c-1.6,0.5-2.2,1.8-1.3,3.2c1.2,1.9,2.4,3.8,4,5.3c3.9,3.8,8.5,6.3,14,7.3c1.2,0.2,2.3,0.6,3.5,0.6c2.6,0.1,5.3,0,8-0.1
			c4.1-0.2,8.3,0,12.4,0c1.5,0,3,0.2,4.6,0.2c1.2,0,2.5-0.2,3.7-0.3c2-0.2,4-0.2,5.9-0.5c4.8-0.7,9.6-1.8,14-4
			c1.9-1,4.1-1.6,5.4-3.4c1-1.3,1.9-2.7,2.7-4.1c1.1-2.2,1.7-4.6,0.9-7.1c-0.4-1.3-0.4-2.4-0.2-3.7c0.5-2.2,0.3-4.3-0.5-6.3
			c-1-2.7-3-4.7-5-6.6c-3.3-3.1-7.4-4.5-11.7-5.4c-2.5-0.5-5.2-0.7-7.7-0.8c-4.8-0.3-9.5-0.5-14.3-0.5c-4.8,0-9.5,0.2-14.3,0.4
			c-5.4,0.2-10.7,0.4-15.8,2.6C11.5,7.8,9.7,9.6,8.6,12.2z M74.1,13.9c0-0.1,0.1-0.2,0.1-0.4c-1.8-0.9-3.6-1.9-5.4-2.7
			c-3.8-1.7-8-2.2-12.1-2.6C52.8,7.8,48.9,7.6,45,7.3c-5.1-0.5-10.2-0.5-15.3,0.1c-4.9,0.6-9.9,0.8-14.6,2.8c-2,0.8-3.7,2-5.1,3.5
			c-0.6,0.6-1,1.5-1.3,2.3c-0.3,0.7-0.2,1.5,0.5,2.3c1.7-2.4,4.4-2.1,6.6-2.8c0.5-0.9,0.8-1.6,1.3-2.3c0.9-1.3,2.4-1.5,3.9-1.8
			c0.8-0.1,1.7-0.3,2.4-0.7c1.6-1,3.2-1.5,5-1.1c1.6,0.4,3.5,0.5,4.6,2.2c0,0.1,0.3,0,0.4,0c0.6-1.9,0.6-1.7,2.5-2.5
			c3-1.2,6-0.9,9-0.8c1.6,0,3.2,0.2,5.1,0.3c0.8-1.4,2.3-0.4,3.7-0.4c1.8,0,2.3,1.6,3.1,2.7c0.2-0.1,0.3-0.1,0.4-0.2
			c0.6-0.9,1.4-1.6,2.7-1.5c1.2,0.1,2.3,0.3,3.2,1c0.8,0.7,1.3,1.7,2.2,2.4c0.5,0.4,0.9,0.7,1.5,0.7c2.3-0.1,4.6,0,6.9,0.4
			C73.8,14,74,14,74.1,13.9z M65.1,16.6c1.6,0.4,2.8,1.3,2.6,3.2c-0.2,1.4-1.3,2-2.4,2.2c0.8,0.9,1.6,1.8,2.2,2.6
			c2.3,0.1,4.6,0.1,6.8,0.2c0.3,0,0.8-0.2,1-0.5c0.6-1.1,1.2-2.2,1.5-3.4c0.6-2.5-1.1-4.2-3-4.7c-2.5-0.7-5-0.7-7.6-0.8
			C65.4,15.2,65.2,15.7,65.1,16.6z M43.4,28c-0.4-0.3-0.5-0.4-0.7-0.5c-0.2-0.1-0.3-0.1-0.5-0.1c-2,0.5-3.9-0.1-5.9-0.3
			c-0.8-0.1-1.4-0.1-2,0.4c-0.6,0.5-1.3,0.6-2,0.1c-0.3-0.2-0.7-0.4-1.1-0.6c-1.4,1.2-2.9,1.3-4.6,0.8c-1.4-0.4-2.8-0.4-4.2,0.1
			c-0.4,0.2-1,0.1-1.5,0.1c-2-0.1-3.6-0.9-5-2.3c-0.8-0.9-1.8-1.4-2.7-1.1c-0.7,0.7-1.1,1.2-1.6,1.6c-0.5,0.4-1.3,0.3-1.7,1.1
			c10.8,1.9,21.6,1.9,32.4,1.1C42.6,28.5,42.9,28.2,43.4,28z M38.2,21.6c0.7,2.1,2.3,3.2,4.1,4.2c0.7,0.4,2.8-0.6,3.1-1.3
			c0.8-1.5-0.4-4-2.2-4.5c0,0.2,0,0.3,0,0.5c0.1,1-0.4,2.5-1.1,2.8c-1,0.4-1.9,0.1-2.6-0.6C39.1,22.2,38.7,21.9,38.2,21.6z M45.1,18
			c-3.1-1.2-6.3-1.5-9.5-0.7c-1.5,0.4-2.9,1.3-4.3,2c-0.2,0.1-0.2,0.6-0.3,1c0.3,0.1,0.6,0.2,0.9,0.2c0.2,0,0.4-0.1,0.6-0.3
			c1.8-1.2,3.9-1.5,6-1.7C40.7,18.2,42.9,18.1,45.1,18z M57.7,24.4c-1.7,1.2-3.5,2.1-5.4,2.4C50.7,27,49,27,47.4,27
			c-1,0-1.8,0.3-2.6,1.4c0.9,0,1.6,0.1,2.3,0c2.4-0.2,4.8-0.2,7.1-0.7c1.9-0.4,3.7-1.6,5.5-2.4C59.1,25,58.4,24.8,57.7,24.4z
			 M43.8,10.7c-0.1-0.1-0.1-0.2-0.2-0.4c-0.6,0-1.3,0.1-1.8,0c-2-0.6-3.8,0.3-5.6,0.7c-0.9,0.2-1.3,1.1-0.6,1.8
			c0.7,0.7,1.6,1.5,2.6,1.8c1.4,0.5,3,0.6,4.5,0.9c0.7,0.1,1.4,0.2,2.5,0.4c-0.4-0.4-0.5-0.5-0.6-0.6c-1.1-0.8-2.4-0.6-3.6-0.8
			c-0.7-0.1-1.4-0.1-2-0.4c-0.9-0.4-1.3-1.4-1-2.5c0.3-0.9,1-0.9,1.8-0.8c0.9,0.1,1.8,0.2,2.7,0.2C42.8,11,43.3,10.8,43.8,10.7z
			 M28,14.6c-0.7-0.5-1-0.8-1.3-0.9c-1.7-0.3-3.3-0.6-5-0.7c-0.9,0-1.9,0.4-2.8,0.7c-0.7,0.3-1.1,0.9-0.9,1.6
			c0.1,0.3,0.3,0.6,0.6,0.7c0.1,0.1,0.5-0.1,0.7-0.3c1.8-1.9,3.4-2.3,5.9-1.3C26,14.8,26.7,15.1,28,14.6z M63.8,14.9
			c-2.6,1.6-4.3,5.7-3.8,8.4c0.6,0,1.2,0,1.8,0c-0.1-1.7-0.5-3.2-0.2-4.6C61.9,17.4,63,16.2,63.8,14.9z M55.3,19.8
			c-1.3-3.2-5.8-5.5-8.3-4.4c0,0.3,0,0.5,0.1,0.8c0.2,0.5,0.4,1,0.6,1.6c1.3-2.2,2.1-2.3,4-0.8C52.8,17.9,54.1,18.8,55.3,19.8z
			 M55.9,17.1c1.1-0.7,2-1.3,2.9-2c0.3-0.2,0.4-0.8,0.4-1.2c0-0.2-0.6-0.4-1-0.4c-0.3,0-0.7,0-1,0.2c-1,0.5-2,1-3.2,1.6
			C54.7,16,55.2,16.5,55.9,17.1z M76.9,25.5c0.5,0.1,1.1,0.3,1.3,0.2c0.4-0.4,0.8-1,0.8-1.5c0-0.9,0.1-1.7,0.6-2.4
			c0.9-1.3,0.5-2.4-0.7-3.6c-0.1,1.3,0,2.5-0.3,3.6C78.3,22.9,77.6,24,76.9,25.5z M56.6,22.9c-0.6,0.2-0.8,0.4-1.1,0.4
			c-1.8,0.6-3.3-0.2-3.9-2c-0.5-1.6-0.7-1.6-2.4-1.1c0.9,0.9,1.7,1.9,2.6,2.7c0.6,0.5,1.3,1,2,1.3C55,24.7,55.8,24.3,56.6,22.9z
			 M53.3,13.9c-1.6-1.3-2.9-2.3-4.3-3.3c-0.5-0.3-1-0.4-1.5,0.1c1,1,2,2.1,3,2.9c0.4,0.4,1.1,0.6,1.7,0.7
			C52.4,14.4,52.8,14.1,53.3,13.9z M40.6,12.5c0.7,0.7,1.6,0.4,2.4,0.7c0.8,0.3,1.6,0.7,2.5,1.1c0.6-0.4,1.2-0.8,1.8-1.2
			c-0.7-0.9-2-1.5-2.8-1c-1.1,0.8-2.1,0.5-3.2,0.3C41.2,12.4,40.9,12.5,40.6,12.5z M8,26.2c0-2,0.6-3.7,0.5-5.6
			C5.7,22.3,5.6,23.5,8,26.2z M10.9,24.8c0-1.2,0-2.4,0.2-3.6c0.2-1.1,0.6-2.2,1-3.3c-0.5,0-0.8,0.2-0.9,0.4
			c-0.3,0.7-0.5,1.4-0.6,2.1c-0.3,1.2-0.5,2.4-0.7,3.7C9.6,24.9,10.1,25.1,10.9,24.8z M31.4,24.6c1.2,1.7,1.6,1.7,2.9,0.7
			c0.9-0.8,1.6-1.7,1.5-3.2C34.8,23.8,33,24,31.4,24.6z M55.6,12.8c-0.8-2.6-2-3.4-4.2-2.4c1.3,0.9,2.4,1.8,3.6,2.6
			C55.2,13.1,55.4,12.9,55.6,12.8z M58.8,11.6c0.7,0.4,1.4,0.6,1.7,1.1c0.4,0.4,0.6,1.1,0.9,1.7c0.4-0.4,0.8-0.8,1.1-1.1
			C62.2,11.4,61,10.8,58.8,11.6z M65.7,25.2c0-1.2-0.8-1.5-1.4-1.7c-0.9,0.9-1.6,1.6-2.5,2.5C63.3,26.1,64.5,25.7,65.7,25.2z
			 M34.1,13.7c-2,0.7-2.1,1-1,2.5c0.8-0.3,1.6-0.5,2.6-0.9C35.1,14.7,34.6,14.2,34.1,13.7z M26.6,19c0.3-2-1-3.2-2.9-2.8
			C24.2,17.6,25.1,18.5,26.6,19z M28.3,12.6c0.5,1,1.4,0.8,2.2,0.8c0.3,0,0.7-0.4,0.7-0.6c0-0.3-0.2-0.8-0.4-1
			C29.8,11.2,29,11.5,28.3,12.6z M65.9,19.7c0.1-1.5-1.3-1.4-2.1-2.2c-0.3,0.5-0.6,0.9-0.9,1.5C64,19.2,64.7,20.2,65.9,19.7z
			 M48.5,22.2c-0.4,0.8-0.7,1.5-0.2,2c0.6,0.7,1.4,0.5,2.3,0.2C49.9,23.7,49.3,23,48.5,22.2z M30.4,22.8c0.1-0.1,0.2-0.2,0.3-0.3
			c-0.7-1.1-1.4-2.1-2.2-3.4c-0.1,0.4-0.5,1-0.3,1.2C28.8,21.3,29.4,22.3,30.4,22.8z M31.4,17.2c-0.1-0.4-0.2-0.8-0.4-1.1
			c-0.2-0.4-0.5-1.1-0.8-1.1c-0.8,0-0.5,0.8-0.7,1.3c0,0.1,0,0.2,0,0.5C30,16.8,30.5,17.6,31.4,17.2z M53.1,20.5
			c0.4,1,0.8,1.7,1.7,1.5c0.2,0,0.4-0.2,0.5-0.4c0-0.2-0.1-0.5-0.2-0.5C54.5,20.9,54,20.7,53.1,20.5z M58.1,20
			c0.4-0.6,0.8-1.1,0.3-1.6c-0.3-0.4-0.8-0.7-1.3,0.1C57.4,18.9,57.7,19.3,58.1,20z M37.6,24c-0.2,0.6-0.3,1-0.5,1.4
			c0.8,0.3,1.4,0.5,2.3,0.3C38.8,25.1,38.3,24.7,37.6,24z M39.6,20.1c0.4,1.1,1,1.6,1.5,1.3c0.1-0.1,0.3-0.4,0.3-0.5
			C41.3,20.3,40.7,20,39.6,20.1z M49.6,17.4c0.1,1.1,0.5,1.3,1.5,1.1C50.5,18,50.1,17.8,49.6,17.4z M16.1,17.5
			c0-0.1-0.1-0.3-0.1-0.4c-0.6,0.2-1.2,0.4-1.9,0.5c0,0.1,0.1,0.2,0.1,0.3C14.8,17.8,15.4,17.6,16.1,17.5z M21,16.4
			c0,0.1,0,0.2,0,0.3c0.3,0,0.6,0,0.8,0c0-0.1,0-0.3,0-0.3C21.6,16.4,21.3,16.4,21,16.4z M26.8,11.6c0-0.1,0-0.2-0.1-0.3
			c-0.2,0.1-0.5,0.1-0.7,0.2c0,0.1,0,0.2,0.1,0.3C26.3,11.8,26.6,11.7,26.8,11.6z"/>
		<path fill="#F7AEA8" d="M8.6,12.2c1.1-2.6,2.9-4.4,5.5-5.6C19.2,4.4,24.5,4.2,29.9,4c4.8-0.2,9.5-0.4,14.3-0.4
			c4.8,0,9.5,0.3,14.3,0.5c2.6,0.1,5.2,0.3,7.7,0.8c4.3,0.9,8.4,2.3,11.7,5.4c2,1.9,3.9,3.9,5,6.6c0.8,2.1,1,4.2,0.5,6.3
			c-0.3,1.2-0.2,2.4,0.2,3.7c0.7,2.5,0.2,4.9-0.9,7.1c-0.7,1.4-1.7,2.8-2.7,4.1c-1.3,1.8-3.5,2.5-5.4,3.4c-4.4,2.2-9.2,3.3-14,4
			c-2,0.3-3.9,0.3-5.9,0.5c-1.2,0.1-2.5,0.3-3.7,0.3c-1.5,0-3-0.2-4.6-0.2c-4.1-0.1-8.3-0.2-12.4,0c-2.7,0.1-5.3,0.2-8,0.1
			c-1.2-0.1-2.3-0.4-3.5-0.6c-5.4-1-10.1-3.5-14-7.3c-1.6-1.5-2.8-3.4-4-5.3c-0.9-1.4-0.3-2.7,1.3-3.2c1.2-0.4,2.5-0.5,3.7-0.4
			c3.6,0.2,7.2,0.5,10.8,1c5.1,0.7,10.2,0.5,15.3,0.1c3.6-0.3,7.2-0.3,10.9-0.4c4.5-0.2,9-0.5,13.5-1.7c2.8-0.7,5.6-1.3,8.5-1.8
			c3.3-0.6,6.5,0.1,9.7,1.3c0.7,0.3,1.4,0.4,2.1,0.4c1.1,0,1.5-0.7,1.1-1.6c-0.9-1.8-0.5-3.2,0.4-4.8c0.5-1,0.4-2.1-0.2-3.1
			c-1-1.9-2.5-3.4-4.2-4.7c-1.4-1.1-3-2.1-4.5-3c-2.9-1.8-6-3-9.3-3.6c-3.6-0.6-7.3-1.2-10.9-1.6C48.6,5.5,44.6,5.5,40.7,5
			c-4.9-0.5-9.6,0.3-14.4,0.8c-2.5,0.2-5.1,0.3-7.6,1.1c-2.8,1-5.8,1.7-8.2,3.7C9.9,11.1,9.3,11.6,8.6,12.2z M17.5,31.1
			c-0.6,1.7-0.5,3.4-0.2,5.1c0.2,1.1,0.5,1.2,1.4,1.1c0-1.7,0-3.5,0-5.2C18.7,31.4,18.4,31,17.5,31.1z M54.6,37.2
			c-0.1-2.4-1.4-3.8-3.4-4c0,0.4-0.1,1.1,0.1,1.2C52.4,35.2,53,36.6,54.6,37.2z M25.6,36.8c-0.2-1-0.3-1.9-0.5-2.9
			c0-0.2,0-0.4-0.1-0.5c-0.2-0.2-0.4-0.5-0.6-0.5c-0.3,0.1-0.7,0.3-0.7,0.5c-0.1,0.7-0.1,1.5,0,2.2C23.9,36.7,24.1,36.8,25.6,36.8z
			 M30.7,36.9c0.1-1.1-0.2-2-0.7-2.8c-0.1-0.2-0.5-0.3-0.7-0.3c-0.2,0.1-0.4,0.4-0.5,0.6C28.7,35.2,29.6,36.5,30.7,36.9z M58.3,33.2
			c-0.6-0.2-1.2-0.7-1.5-0.6c-0.7,0.3-0.3,1,0,1.4c0.3,0.5,0.8,0.9,1.3,0.6C58.3,34.5,58.2,33.8,58.3,33.2z M36.5,34.2
			c0-1.3-0.2-1.8-0.8-1.7c-0.5,0.1-0.8,0.4-0.7,1C35.2,34.3,35.7,34.5,36.5,34.2z M61.1,33.1c0-0.6,0.1-1-0.1-1.2
			c-0.2-0.2-0.8-0.3-1-0.2c-0.5,0.2-0.6,0.8-0.2,1.1C60,33,60.5,32.9,61.1,33.1z"/>
		<path fill="#F7AEA8" d="M74.1,13.9C74,14,73.8,14,73.7,14c-2.3-0.3-4.6-0.5-6.9-0.4c-0.6,0-1-0.2-1.5-0.7
			c-0.9-0.7-1.4-1.7-2.2-2.4c-0.9-0.7-2-1-3.2-1c-1.3-0.1-2,0.6-2.7,1.5c-0.1,0.1-0.2,0.1-0.4,0.2c-0.8-1.1-1.3-2.7-3.1-2.7
			c-1.4,0-2.9-1-3.7,0.4c-1.9-0.1-3.5-0.3-5.1-0.3c-3,0-6.1-0.3-9,0.8c-1.9,0.7-2,0.6-2.5,2.5c-0.1,0-0.4,0.1-0.4,0
			c-1.1-1.7-2.9-1.8-4.6-2.2c-1.8-0.4-3.4,0.1-5,1.1c-0.7,0.4-1.6,0.6-2.4,0.7c-1.5,0.2-3,0.5-3.9,1.8c-0.5,0.7-0.8,1.4-1.3,2.3
			c-2.2,0.7-4.9,0.3-6.6,2.8c-0.7-0.8-0.8-1.5-0.5-2.3c0.3-0.8,0.7-1.7,1.3-2.3c1.5-1.5,3.2-2.7,5.1-3.5c4.7-2,9.7-2.2,14.6-2.8
			C34.8,6.7,39.9,6.8,45,7.3c3.9,0.4,7.8,0.5,11.7,0.9c4.1,0.5,8.2,1,12.1,2.6c1.9,0.8,3.6,1.8,5.4,2.7
			C74.1,13.7,74.1,13.8,74.1,13.9z"/>
		<path fill="#F7AEA8" d="M65.1,16.6c0.1-0.8,0.2-1.4,1.1-1.3c2.5,0.1,5.1,0.1,7.6,0.8c1.9,0.6,3.6,2.2,3,4.7
			c-0.3,1.2-0.9,2.3-1.5,3.4c-0.1,0.3-0.6,0.5-1,0.5c-2.3,0-4.5-0.1-6.8-0.2c-0.7-0.8-1.5-1.7-2.2-2.6c1.1-0.3,2.3-0.8,2.4-2.2
			C68,17.9,66.8,17,65.1,16.6z M72.9,22.6c1.4-0.4,1.8-1.3,2.2-2.1c0.8-1.6-0.8-4.2-2.5-4.2c-0.2,0-0.6,0.2-0.7,0.3
			c-0.1,0.2,0,0.5,0.2,0.7c0.3,0.4,0.7,0.7,1.1,1.1c-0.7,1.1-2.2,0.7-2.9,2.1c1.1,0.1,2.1,0.1,3,0.2C73.2,21.3,73.1,21.8,72.9,22.6z
			"/>
		<path fill="#F7AEA8" d="M43.4,28c-0.5,0.2-0.8,0.5-1.1,0.5c-10.8,0.8-21.6,0.8-32.4-1.1c0.3-0.8,1.2-0.7,1.7-1.1
			c0.5-0.4,0.9-0.9,1.6-1.6c0.9-0.3,1.9,0.2,2.7,1.1c1.4,1.4,3,2.2,5,2.3c0.5,0,1.1,0.1,1.5-0.1c1.4-0.6,2.8-0.6,4.2-0.1
			c1.7,0.5,3.2,0.4,4.6-0.8c0.4,0.2,0.8,0.4,1.1,0.6c0.7,0.4,1.4,0.4,2-0.1c0.6-0.5,1.3-0.5,2-0.4c1.9,0.2,3.9,0.8,5.9,0.3
			c0.1,0,0.3,0,0.5,0.1C42.9,27.6,43,27.7,43.4,28z"/>
		<path fill="#F7AEA8" d="M25.9,25.8c-1.6,0.2-3.1,0.4-4.7,0.4c-0.8,0-1.8-0.1-2.4-0.6c-1.4-0.9-2.7-1.9-3.8-3.1
			c-1.2-1.2-0.6-2.7,1-3.4c3.2-1.3,6.2-1,9.1,1c1.6,1.1,2.7,2.7,4.1,4c0.3,0.3,0.5,1.1,0.3,1.5c-0.2,0.4-0.9,0.7-1.4,0.7
			C27.3,26.4,26.6,26,25.9,25.8c0.1-0.1,0.3-0.1,0.4-0.1c1.3-0.3,1.6-1,0.8-2c-0.2-0.3-0.5-0.6-0.8-0.9c-0.9-0.9-1.8-1.8-2.7-2.8
			c-0.5-0.5-0.9-0.7-1.5-0.3c-0.3,0.2-0.6,0.3-0.8,0.4c-0.2-0.1-0.3-0.1-0.4-0.2c-0.6-0.6-1.3-1.3-2.2-0.8c-0.9,0.4-1.2,1.3-1.4,2.2
			c0,0.3-0.1,0.6-0.1,0.8c0.1,1.9,1.5,3,3.3,2.5c0.4-0.1,0.9-0.3,1.3-0.2C23.3,24.8,24.6,25.3,25.9,25.8z"/>
		<path fill="#F7AEA8" d="M38.2,21.6c0.4,0.3,0.9,0.6,1.3,1c0.8,0.7,1.6,1,2.6,0.6c0.7-0.3,1.2-1.8,1.1-2.8c0-0.2,0-0.3,0-0.5
			c1.8,0.5,3,3,2.2,4.5c-0.4,0.7-2.4,1.6-3.1,1.3C40.6,24.8,38.9,23.7,38.2,21.6z"/>
		<path fill="#F7AEA8" d="M45.1,18c-2.2,0.2-4.4,0.2-6.6,0.5c-2.1,0.2-4.1,0.5-6,1.7c-0.2,0.1-0.4,0.3-0.6,0.3
			c-0.3,0-0.6-0.1-0.9-0.2c0.1-0.3,0.1-0.9,0.3-1c1.4-0.7,2.8-1.6,4.3-2C38.8,16.4,42,16.8,45.1,18z"/>
		<path fill="#F7AEA8" d="M57.7,24.4c0.7,0.3,1.4,0.6,1.9,0.9c-1.8,0.8-3.6,1.9-5.5,2.4c-2.3,0.5-4.7,0.5-7.1,0.7
			c-0.7,0.1-1.4,0-2.3,0c0.8-1.1,1.6-1.4,2.6-1.4c1.6,0,3.3,0.1,4.9-0.2C54.2,26.5,56,25.6,57.7,24.4z"/>
		<path fill="#F7AEA8" d="M43.8,10.7c-0.5,0.1-1,0.4-1.5,0.4c-0.9,0-1.8-0.1-2.7-0.2c-0.8-0.1-1.5-0.1-1.8,0.8c-0.3,1,0.1,2.1,1,2.5
			c0.6,0.2,1.3,0.3,2,0.4c1.2,0.1,2.5,0,3.6,0.8c0.1,0.1,0.2,0.2,0.6,0.6c-1-0.2-1.8-0.3-2.5-0.4c-1.5-0.3-3.1-0.4-4.5-0.9
			c-1-0.3-1.8-1.1-2.6-1.8c-0.7-0.7-0.3-1.6,0.6-1.8c1.8-0.5,3.6-1.4,5.6-0.7c0.6,0.2,1.2,0,1.8,0C43.7,10.4,43.7,10.5,43.8,10.7z"
			/>
		<path fill="#F7AEA8" d="M28,14.6c-1.3,0.5-2.1,0.2-2.9-0.1c-2.5-1-4.1-0.6-5.9,1.3c-0.2,0.2-0.5,0.4-0.7,0.3
			c-0.2-0.1-0.5-0.4-0.6-0.7c-0.1-0.8,0.2-1.4,0.9-1.6c0.9-0.3,1.8-0.7,2.8-0.7c1.7,0.1,3.3,0.4,5,0.7C27.1,13.8,27.4,14.2,28,14.6z
			"/>
		<path fill="#F7AEA8" d="M63.8,14.9c-0.8,1.3-1.8,2.4-2.2,3.8c-0.3,1.4,0.1,3,0.2,4.6c-0.6,0-1.2,0-1.8,0
			C59.4,20.6,61.1,16.5,63.8,14.9z"/>
		<path fill="#F7AEA8" d="M55.3,19.8c-1.2-1-2.5-1.9-3.7-2.9c-1.9-1.5-2.7-1.3-4,0.8c-0.2-0.6-0.4-1.1-0.6-1.6
			C47,15.9,47,15.6,47,15.4C49.5,14.3,54,16.6,55.3,19.8z"/>
		<path fill="#F7AEA8" d="M55.9,17.1c-0.6-0.6-1.2-1.1-1.9-1.7c1.2-0.6,2.2-1.1,3.2-1.6c0.3-0.1,0.7-0.2,1-0.2c0.4,0,0.9,0.2,1,0.4
			c0.1,0.4-0.1,0.9-0.4,1.2C57.9,15.8,56.9,16.4,55.9,17.1z"/>
		<path fill="#F7AEA8" d="M76.9,25.5c0.7-1.5,1.3-2.6,1.7-3.8c0.3-1.1,0.2-2.3,0.3-3.6c1.2,1.2,1.5,2.3,0.7,3.6
			c-0.5,0.8-0.5,1.5-0.6,2.4c0,0.5-0.4,1.1-0.8,1.5C78,25.8,77.4,25.6,76.9,25.5z"/>
		<path fill="#F7AEA8" d="M56.6,22.9c-0.8,1.5-1.6,1.8-2.8,1.4c-0.7-0.3-1.4-0.7-2-1.3c-0.9-0.8-1.7-1.8-2.6-2.7
			c1.7-0.6,1.9-0.5,2.4,1.1c0.6,1.8,2.1,2.5,3.9,2C55.8,23.2,56.1,23.1,56.6,22.9z"/>
		<path fill="#F7AEA8" d="M53.3,13.9c-0.5,0.2-0.8,0.5-1.1,0.5c-0.6-0.1-1.2-0.4-1.7-0.7c-1-0.9-2-1.9-3-2.9
			c0.5-0.5,1.1-0.4,1.5-0.1C50.3,11.6,51.6,12.6,53.3,13.9z"/>
		<path fill="#F7AEA8" d="M40.6,12.5c0.3,0,0.6-0.2,0.8-0.1c1.1,0.2,2.1,0.5,3.2-0.3c0.7-0.5,2,0.1,2.8,1c-0.6,0.4-1.3,0.8-1.8,1.2
			c-0.9-0.4-1.7-0.8-2.5-1.1C42.2,12.9,41.3,13.2,40.6,12.5z"/>
		<path fill="#F7AEA8" d="M8,26.2c-2.4-2.7-2.3-3.9,0.5-5.6C8.5,22.5,7.9,24.2,8,26.2z"/>
		<path fill="#F7AEA8" d="M10.9,24.8c-0.8,0.3-1.3,0.1-1.2-0.8c0.2-1.2,0.4-2.4,0.7-3.7c0.2-0.7,0.4-1.4,0.6-2.1
			c0.1-0.2,0.4-0.4,0.9-0.4c-0.3,1.1-0.8,2.2-1,3.3C10.8,22.4,10.9,23.6,10.9,24.8z"/>
		<path fill="#F7AEA8" d="M31.4,24.6c1.6-0.6,3.4-0.8,4.4-2.6c0.1,1.5-0.6,2.4-1.5,3.2C33,26.3,32.6,26.2,31.4,24.6z"/>
		<path fill="#F7AEA8" d="M55.6,12.8c-0.2,0.1-0.5,0.3-0.5,0.2c-1.2-0.8-2.4-1.7-3.6-2.6C53.6,9.4,54.8,10.2,55.6,12.8z"/>
		<path fill="#F7AEA8" d="M58.8,11.6c2.2-0.8,3.3-0.3,3.8,1.6c-0.4,0.4-0.7,0.7-1.1,1.1c-0.3-0.6-0.5-1.2-0.9-1.7
			C60.2,12.3,59.6,12.1,58.8,11.6z"/>
		<path fill="#F7AEA8" d="M65.7,25.2c-1.2,0.5-2.3,1-3.9,0.7c0.9-0.9,1.7-1.6,2.5-2.5C64.9,23.7,65.7,24,65.7,25.2z"/>
		<path fill="#F7AEA8" d="M34.1,13.7c0.5,0.5,1,1,1.7,1.7c-1,0.3-1.8,0.6-2.6,0.9C32,14.7,32.1,14.4,34.1,13.7z"/>
		<path fill="#F7AEA8" d="M26.6,19c-1.5-0.5-2.4-1.4-2.9-2.8C25.6,15.9,26.9,17,26.6,19z"/>
		<path fill="#F7AEA8" d="M28.3,12.6c0.7-1.1,1.5-1.4,2.4-0.8c0.3,0.2,0.5,0.6,0.4,1c0,0.2-0.4,0.6-0.7,0.6
			C29.7,13.4,28.8,13.6,28.3,12.6z"/>
		<path fill="#F7AEA8" d="M65.9,19.7c-1.2,0.5-1.9-0.4-3-0.8c0.3-0.6,0.6-1,0.9-1.5C64.6,18.2,66,18.2,65.9,19.7z"/>
		<path fill="#F7AEA8" d="M48.5,22.2c0.8,0.8,1.4,1.5,2.1,2.2c-0.9,0.4-1.7,0.5-2.3-0.2C47.8,23.7,48.1,23,48.5,22.2z"/>
		<path fill="#F7AEA8" d="M30.4,22.8c-1-0.5-1.6-1.5-2.3-2.4c-0.1-0.2,0.2-0.8,0.3-1.2c0.8,1.2,1.5,2.3,2.2,3.4
			C30.6,22.6,30.5,22.7,30.4,22.8z"/>
		<path fill="#F7AEA8" d="M31.4,17.2c-0.9,0.4-1.3-0.4-1.9-0.4c0-0.2-0.1-0.4,0-0.5c0.2-0.5-0.1-1.3,0.7-1.3c0.3,0,0.6,0.7,0.8,1.1
			C31.2,16.4,31.2,16.8,31.4,17.2z"/>
		<path fill="#F7AEA8" d="M53.1,20.5c0.9,0.3,1.4,0.4,1.9,0.6c0.1,0.1,0.3,0.4,0.2,0.5c0,0.2-0.3,0.4-0.5,0.4
			C53.9,22.2,53.6,21.5,53.1,20.5z"/>
		<path fill="#F7AEA8" d="M58.1,20c-0.4-0.6-0.7-1.1-1-1.6c0.5-0.7,0.9-0.5,1.3-0.1C58.9,18.8,58.5,19.3,58.1,20z"/>
		<path fill="#F7AEA8" d="M37.6,24c0.7,0.6,1.2,1.1,1.9,1.7c-1,0.3-1.6,0-2.3-0.3C37.2,25,37.3,24.7,37.6,24z"/>
		<path fill="#F7AEA8" d="M39.6,20.1c1-0.2,1.7,0.1,1.8,0.8c0,0.2-0.1,0.4-0.3,0.5C40.6,21.7,40.1,21.2,39.6,20.1z"/>
		<path fill="#F7AEA8" d="M49.6,17.4c0.6,0.4,0.9,0.7,1.5,1.1C50.1,18.7,49.7,18.5,49.6,17.4z"/>
		<path fill="#F7AEA8" d="M16.1,17.5c-0.6,0.2-1.2,0.3-1.9,0.5c0-0.1-0.1-0.2-0.1-0.3c0.6-0.2,1.2-0.4,1.9-0.5
			C16,17.2,16,17.3,16.1,17.5z"/>
		<path fill="#F7AEA8" d="M21,16.4c0.3,0,0.5,0,0.8-0.1c0,0,0,0.2,0,0.3c-0.3,0-0.6,0-0.8,0C21,16.6,21,16.5,21,16.4z"/>
		<path fill="#F7AEA8" d="M26.8,11.6c-0.2,0.1-0.5,0.1-0.7,0.2c0-0.1,0-0.2-0.1-0.3c0.2-0.1,0.5-0.1,0.7-0.2
			C26.7,11.5,26.8,11.6,26.8,11.6z"/>
		<path d="M17.5,31.1c0.9-0.1,1.2,0.3,1.2,1c0,1.7,0,3.5,0,5.2c-1,0.1-1.3,0-1.4-1.1C16.9,34.5,16.9,32.8,17.5,31.1z"/>
		<path d="M54.6,37.2c-1.6-0.6-2.2-2-3.3-2.8c-0.2-0.2-0.1-0.8-0.1-1.2C53.2,33.4,54.5,34.8,54.6,37.2z"/>
		<path d="M25.6,36.8c-1.5,0-1.7-0.1-1.9-1.2c-0.1-0.7-0.1-1.5,0-2.2c0-0.2,0.4-0.5,0.7-0.5c0.1,0,0.4,0.3,0.6,0.5
			c0.1,0.1,0.1,0.3,0.1,0.5C25.3,34.8,25.5,35.8,25.6,36.8z"/>
		<path d="M30.7,36.9c-1.1-0.4-2-1.7-1.9-2.5c0-0.2,0.3-0.5,0.5-0.6c0.2-0.1,0.6,0.1,0.7,0.3C30.6,34.9,30.9,35.7,30.7,36.9z"/>
		<path d="M58.3,33.2c-0.1,0.6,0,1.3-0.2,1.4c-0.6,0.4-1.1-0.1-1.3-0.6c-0.3-0.5-0.6-1.1,0-1.4C57.1,32.5,57.7,33,58.3,33.2z"/>
		<path d="M36.5,34.2c-0.8,0.3-1.3,0.1-1.5-0.7c-0.1-0.5,0.2-0.9,0.7-1C36.3,32.4,36.5,32.8,36.5,34.2z"/>
		<path d="M61.1,33.1c-0.6-0.1-1-0.1-1.2-0.3c-0.4-0.4-0.3-0.9,0.2-1.1c0.3-0.1,0.8,0,1,0.2C61.2,32,61,32.5,61.1,33.1z"/>
		<path d="M72.9,22.6c0.2-0.8,0.3-1.3,0.5-2c-1-0.1-1.9-0.1-3-0.2c0.6-1.4,2.1-0.9,2.9-2.1c-0.3-0.3-0.7-0.7-1.1-1.1
			c-0.2-0.2-0.3-0.5-0.2-0.7c0.1-0.2,0.4-0.3,0.7-0.3c1.8,0,3.4,2.7,2.5,4.2C74.7,21.3,74.3,22.2,72.9,22.6z"/>
		<path d="M25.9,25.8c-1.3-0.5-2.6-1-3.9-1.4c-0.4-0.1-0.9,0.1-1.3,0.2c-1.8,0.5-3.3-0.6-3.3-2.5c0-0.3,0-0.6,0.1-0.8
			c0.2-0.9,0.4-1.8,1.4-2.2c1-0.4,1.6,0.2,2.2,0.8c0.1,0.1,0.2,0.1,0.4,0.2c0.2-0.1,0.5-0.2,0.8-0.4c0.6-0.3,1-0.2,1.5,0.3
			c0.9,1,1.8,1.9,2.7,2.8c0.3,0.3,0.6,0.5,0.8,0.9c0.7,1.1,0.5,1.7-0.8,2C26.2,25.7,26,25.7,25.9,25.8
			C25.8,25.8,25.9,25.8,25.9,25.8z M19.4,20.5c-0.9,0.7-0.6,1.3-0.3,2c0.3,0.7,0.9,0.4,1.4,0.4c1,0,2,0.3,3,0.5
			c0.5,0.1,1,0.3,1.8,0.6c-0.6-1.5-1.7-1.9-2.5-2.5C20.6,22.2,20.5,22.2,19.4,20.5z"/>
		<path fill="#F7AEA8" d="M19.4,20.5c1.2,1.8,1.2,1.8,3.4,1c0.8,0.6,1.9,1,2.5,2.5c-0.8-0.3-1.3-0.5-1.8-0.6c-1-0.2-2-0.5-3-0.5
			c-0.6,0-1.1,0.3-1.4-0.4C18.7,21.8,18.5,21.1,19.4,20.5z"/>
	</g>
</g>
</svg>
