<?xml version="1.0" encoding="utf-8"?>
<!-- Generator: Adobe Illustrator 24.2.1, SVG Export Plug-In . SVG Version: 6.00 Build 0)  -->
<svg version="1.1" id="Layer_1" xmlns="http://www.w3.org/2000/svg" xmlns:xlink="http://www.w3.org/1999/xlink" x="0px" y="0px"
	 width="100.4px" height="81.5px" viewBox="0 0 100.4 81.5" enable-background="new 0 0 100.4 81.5" xml:space="preserve">
<g>
	<path fill="#F7AEA8" d="M97.7,51c-0.7-1.6-1.8-2.7-3.3-3.1c0,0-0.3-0.2-0.3-0.3c-0.5-0.4-1-0.8-1.4-1.3c-0.7-0.7-1.5-1.3-2.2-1.9
		c-0.4-0.3-0.8-0.6-1.1-0.9c0.9-0.3,1.8-0.8,2.4-1.9c2.9-0.6,5.1-1.8,6.5-4.6c2.4-4.7,2.2-9.7-0.4-14C93.5,15.8,87,10.3,78.4,6.4
		c-1.5-0.7-3.1-1.3-4.5-1.8C69.4,3,64.6,1.3,59.5,0.6C57.2,0.2,54.7,0,52.2,0c-4.3,0-8.8,0.5-13.7,1.7C32.9,3,27.1,5.3,20.4,9
		c-3.7,2-6.2,4-8.3,6.4c-1.5,1.7-2.1,3.6-2.6,5.2c-0.8,3.1,0.5,5.3,1.6,6.7c0.4,0.5,0.9,0.8,1.6,0.9l0.8,0.1c0,0.6,0.1,1.8,1.1,2.7
		l0.4,0.4c0.5,0.5,1,0.8,1.3,1.2c-1.5,0.9-2.9,1.9-4.1,2.8c-0.4,0.3-0.9,0.6-1.3,0.9c-1.4,1-2.9,2-4.1,3.3c-3.8,4.1-6,8.8-6.6,14
		C0,54.8,0,56,0.1,57c0.4,2.7,2.5,4.4,5.2,4.4c0.2,0,0.3,0,0.5,0c0,0,0.1,0,0.1,0c0.5,3.1,2.4,4.4,4,4.9c0.2,0.1,0.2,0.1,0.4,0.4
		c0.8,1.2,2.2,1.9,3.3,2.2c0,0,0.4,0.1,0.5,0.1c0.5,0.6,1.3,1.1,2.1,1.4c0.7,0.2,1.5,0.4,2.2,0.6c1.1,0.3,2.2,0.6,3.2,0.9
		c1.7,0.6,3.5,1.2,5.5,1.2c0.2,0.1,0.6,0.3,1,0.4c1.7,0.4,3.4,0.7,5,1.1l1.2,0.3c0.2,0,0.4,0.1,0.5,0.1c0.2,0,0.4,0,0.6-0.1
		c0,0,0.7,0.4,0.7,0.4c0.7,0.4,1.7,1,2.9,1.1l0.1,0c1.4,0.1,2.8,0.2,4.1,0.5c0.9,0.2,1.8,0.4,2.6,0.5c0.7,0.1,1.3,0.2,2,0.4
		c0.9,0.2,1.8,0.3,2.6,0.5c0.8,0.1,1.5,0.2,2.3,0.4c1,0.2,2,0.3,3,0.4c1.4,0.1,2.7,0.3,3.8,0.7c0.4,0.2,0.9,0.3,1.3,0.3
		c0.3,0,0.6,0,0.8-0.1c0.2,0,0.3-0.1,0.5-0.1c0.4,0,0.9,0.1,1.5,0.2c0.2,0,0.5,0.1,0.7,0.1c0.3,0,0.6,0.1,0.8,0.1c0,0,0.4,0,0.4,0
		c0,0,0.1,0,0.1,0c0.5,0,1,0.1,1.6,0.1c1.1,0.1,2.2,0.1,3.1,0.4c1.4,0.4,2.7,0.5,3.8,0.6c0.5,0,0.9,0.1,1.4,0.1
		c0.6,0.1,1.1,0.1,1.7,0.1c0,0,0.1,0,0.1,0c0.5,0,1-0.1,1.3-0.2c0.1,0,0.1,0,0.2-0.1c0.4-0.1,0.9-0.1,1.3-0.2
		c0.7-0.1,1.3-0.2,1.8-0.2c0.1,0,0.3,0,0.4,0c0.3,0,0.6,0.1,0.9,0.1c2,0,3.4-0.9,4.6-1.6c0.3-0.2,0.6-0.4,0.9-0.5
		c1.1-0.6,1.4-1.7,1.6-2.3c0,0,0,0,0,0c0.8,0,1.5-0.1,2.3-0.2c2.7-0.3,4.6-1.8,5.4-4l0.1-0.4c1-2.9,2-5.9,1.9-9.3
		C100.3,58.9,99.4,55.2,97.7,51z"/>
	<g>
		<path d="M8.2,58.8c-1,0.1-1.7,0.2-2.5,0.3c-1.7,0.1-2.9-0.7-3.2-2.4c-0.1-0.9-0.1-1.9,0-2.8c0.6-4.9,2.7-9.1,6-12.7
			c1.4-1.6,3.4-2.7,5.1-4c3.3-2.4,6.7-4.5,10.5-5.8c5.6-1.9,11.5-2.7,17.4-2.8c4.3,0,8.6,0,12.8,0.6c5.2,0.7,10.1,2.3,15,4.3
			c4.5,1.9,8.5,4.6,12.5,7.3c1.2,0.8,1.2,0.8,2.6,0.8c0.1-2.3,2.1-1.5,3.3-1.8c0.3-0.8-0.3-1-0.8-1.3c-1.1-0.5-2.2-0.9-3.2-1.4
			c-3.7-2.1-7.4-4.2-11.2-6.2c-2.7-1.5-5.6-2.7-8.4-4c-4-1.9-8.3-2.9-12.6-3.8c-4.4-0.9-8.8-1.4-13.3-1.2c-4.1,0.2-8.1,0.9-12.1,1.6
			c-2,0.3-3.9,1.1-5.9,1.6c-1.7,0.4-2.2,1.6-2.5,3.2c0.5,0,0.8,0,1.1,0c0.7-0.1,1.1,0.4,1,1c0,0.7,0,1.1,0.7,1.5
			c0.3,0.1,0.4,0.8,0.4,1.2c0,0.2-0.7,0.4-1,0.4c-0.5,0-1.2-0.1-1.3-0.4c-0.6-1.1-1.5-1.8-2.4-2.6c-0.3-0.2-0.3-0.8-0.3-1.2
			c0-0.5,0.2-1.1,0.3-1.8C15,26.1,14,26,13.1,25.9c-1.1-1.5-1.7-2.9-1.2-4.7c0.4-1.6,1-3,2.1-4.3c2.2-2.5,4.8-4.3,7.6-5.8
			C27.1,8,32.9,5.4,39.1,3.9c6.6-1.5,13.3-2.1,20.1-1.1c4.8,0.7,9.4,2.3,13.9,3.9c1.5,0.5,2.9,1.1,4.3,1.7c7.6,3.4,14,8.4,18.4,15.6
			c2.2,3.7,2.3,7.8,0.3,11.7C95,38,93.3,39,89.8,39.5c-0.1,1.8-1.6,1.9-2.9,2c-0.4,0.6-0.8,1.2-1.3,2c1.1,0.9,2.2,1.7,3.3,2.7
			c1.2,1,2.4,2.1,3.6,3.2c0.3,0.3,0.6,0.6,1,0.7c1,0.2,1.6,1,1.9,1.8c1.4,3.4,2.4,7,2.6,10.7c0.1,3.1-0.9,6-1.9,8.9
			c-0.5,1.5-1.9,2.3-3.4,2.5c-1.2,0.1-2.5,0.2-3.8,0.2c-0.1,0.4-0.2,0.8-0.3,1.2c-0.2,0.5-0.3,1.1-0.6,1.3c-1.6,0.8-2.9,2.1-5,1.8
			c-1.3-0.2-2.8,0.2-4.1,0.4c-0.4,0.1-0.8,0.3-1.2,0.2c-1,0-2.1-0.2-3.1-0.2c-1.1,0-2.1-0.1-3.3-0.5c-1.6-0.5-3.4-0.4-5.1-0.6
			c-0.4,0-0.9,0-1.3,0c-1.2-0.2-2.4-0.5-3.7-0.2c-0.2,0.1-0.5,0-0.7-0.1c-2.3-0.9-4.8-0.8-7.2-1.3c-1.6-0.4-3.3-0.5-4.9-0.8
			c-1.5-0.3-3.1-0.5-4.5-0.9c-1.6-0.4-3.1-0.5-4.7-0.6c-0.7,0-1.5-0.6-2.2-1c-0.6-0.4-1.2-0.9-2-0.5c-0.1,0-0.1,0-0.2,0
			c-2.1-0.4-4.2-0.9-6.2-1.3c-0.4-0.1-0.7-0.5-1-0.4c-1.8,0-3.5-0.5-5.2-1.1c-1.8-0.6-3.7-1-5.5-1.6c-0.4-0.1-0.8-0.4-1.1-0.7
			c-0.4-0.6-1-0.6-1.6-0.8c-0.7-0.2-1.6-0.6-2-1.2c-0.4-0.7-0.9-1.1-1.7-1.3c-1.8-0.6-2.4-2-2.5-3.7C8.1,59.9,8.2,59.5,8.2,58.8z
			 M87.2,73.6c-0.8-0.4-1.5-0.7-2.2-0.9c-1-0.4-2.1-0.5-3-1c-3.2-1.7-6.3-3.6-9.5-5.4c-2.3-1.3-4.5-2.7-6.8-3.8
			c-2.2-1-4.5-1.7-6.7-2.6c-2.5-1-5-2-7.6-3c-0.8-0.3-1.6-0.8-2.4-1c-3.2-0.8-6.3-1.6-9.5-2.3c-1.6-0.3-3.2-0.3-4.8-0.4
			c-5-0.2-9.9,0-14.7,1.5c-3,0.9-5.9,1.9-8.8,2.9c-0.4,0.1-0.7,0.4-1.1,0.6c0,0.6,0,1.2,0,1.7c0.1,1.9,0.6,2.5,2.6,2.6
			c0.9,0,1.4,0.4,1.4,1.3c0.1,0.7,0.3,1.3,1.1,1.1c0.9-0.2,1.4,0.2,1.8,0.9c0.2,0.3,0.8,0.7,1,0.6c0.9-0.3,1.4,0.1,2,0.5
			c0.6,0.4,1.4,0.7,2.1,0.6c0.9-0.1,1.5,0.2,2.2,0.7c0.6,0.4,1.6,0.8,2,0.6c1.2-0.6,1.8-0.1,2.6,0.5c0.9,0.7,1.9,1.3,3.1,0.5
			c0.5-0.3,1-0.2,1.5,0.2c0.4,0.3,0.8,0.6,1.1,0.8c0.6-0.3,1.1-0.6,1.7-0.9c0.5,0.5,0.9,1,1.3,1.4c1.1,1.1,2.5,1.4,3.7,0.7
			c1-0.6,1.7-0.6,2.4,0.4c0.3,0.5,0.8,0.8,1.4,0.4c1-0.7,1.8-0.3,2.6,0.4c0.9,0.7,1.9,1.2,3,0.2c0.7-0.6,1.3-0.1,1.8,0.4
			c1,1.1,2.3,1.3,3.6,0.9c1.2-0.4,2.1-0.3,3,0.5c0.5,0.4,1.7,0.8,2,0.6c1.3-1.1,2.4-1,3.5,0.1c0,0,0.1,0.1,0.2,0
			c1.6-0.7,3.1,0,4.7,0.4c0.3,0.1,0.7-0.1,1.1-0.2c0.3-0.1,0.7-0.2,1-0.4c0.3,0.3,0.6,0.5,0.9,0.8c0.9,0.9,2.1,1,2.9,0.5
			c1.1-0.8,1.9-0.5,3.1,0.3c0.2-0.4,0.4-0.8,0.7-1.1c0.2-0.2,0.9-0.3,1-0.2c0.9,0.9,1.7,0.7,2.7,0.2c0.4-0.2,1,0.1,1.4,0.1
			c0.9-0.4,1.7-0.7,2.6-1.1C86.9,75,87,74.4,87.2,73.6z M66.5,34.6c0-0.2,0-0.3,0-0.5c-0.7-0.2-1.3-0.5-2-0.7
			c-2.3-0.7-4.6-1.3-7-1.9c-0.6-0.2-1.2-0.2-1.8-0.2c-3.9,0.4-7.7,1.4-11.1,3.4c-2.3,1.3-4.8,2.3-7.4,2.9c-3.4,0.7-6.8,1.4-10.1,2.3
			c-3.8,1-7.1,3-9.7,5.9C15.6,47.4,14,49,11.8,50c-1,0.4-1.8,1.3-1.9,2.8c1.3-0.3,2.4-0.5,3.5-0.7c2.9-0.7,5.7-1.6,8.6-2.1
			c4-0.6,7-2.6,9.5-5.6c0.5-0.6,1.3-1.3,2-1.5c2.5-0.7,5-1.5,7.6-1.8c4.3-0.5,8.6-1.2,12.7-2.5c1.4-0.4,2.9-0.8,4.2-1.5
			c1.6-0.8,3.3-1.4,5.1-1.7C64.3,35.3,65.4,34.9,66.5,34.6z M82,43.4c-3.4-2.9-7-5.4-11-7.3c-1.4-0.6-2.7-0.7-4.1-0.2
			c-3,1.1-6.3,1.3-9.1,3.1c-0.2,0.1-0.5,0.2-0.7,0.2c-5,1.5-10,2.7-15.2,3.2c-2.3,0.2-4.6,0.9-6.9,1.6c-0.7,0.2-1.3,0.8-1.9,1.4
			c-0.9,0.8-1.7,1.6-2.5,2.5c-0.2,0.2-0.4,0.5-0.7,0.9c0.7,0,1.1,0,1.5,0c3.1-0.2,6.2-0.3,9.2,0.4c1.6,0.4,3.2,0.4,4.7-0.4
			c0.5-0.3,1.2-0.3,1.8-0.4c2.4-0.6,4.8-1.1,7.2-1.8c3.3-0.9,6.5-2.1,9.7-3c1.1-0.3,2.3-0.4,3.5-0.4c3.8,0,7.7,0.1,11.5,0.2
			C80,43.3,81,43.3,82,43.4z M95.2,57.8c0.1-2.7-1.2-4.8-3.1-6.6c-1.9-1.7-4-2.4-6.4-2c-1.7,0.3-3.3,1-4.8,2
			c-0.9,0.6-2.1,1.1-3.2,1.3c-3.3,0.6-6.6,1-9.9,1.5c-1.3,0.2-2.6,0.4-4.2,0.6c0.6,0.3,0.8,0.5,1,0.6c3.6,1.7,7.2,3.2,10.7,5.1
			c1.8,1,3.5,1.2,5.5,0.9c2.9-0.4,5.7-0.7,8.7,0c1.7,0.4,3.5,0,4.5-1.8C94.2,58.7,94.8,58.3,95.2,57.8z M87.6,17.4
			c-0.4-0.5-0.7-0.9-1.1-1.2c-3-2.6-6.4-4.7-10-6.3c-0.9-0.4-1.7-0.4-2.7,0c-2.3,1-4.5,2-6.8,2.9c-0.7,0.3-1.4,0.6-2.1,0.6
			c-2.3,0.2-4.7,0.3-7,0.4c-2.3,0.1-4.6,0.2-6.9,0.4c-0.8,0.1-1.7,0.2-2.3,1.1c0.5,0.2,0.8,0.4,1.1,0.5c4.8,1.1,9.4,2.8,14,4.5
			c0.7,0.3,1.2,0.2,1.9,0c1.3-0.4,2.7-0.9,4.1-0.9c3.3-0.1,6.7,0,10,0.1c0.4,0,0.8,0,1.1,0.1C83.7,20.5,85.5,18.8,87.6,17.4z
			 M47.2,49.8c0,0.2,0,0.3,0,0.5c3.2,0.8,6.5,1.7,9.7,2.5c2.8,0.7,5.7,0.6,8.5,0.3c3.8-0.4,7.6-1.1,11.4-1.8
			c1.1-0.2,2.4-0.5,3.3-1.1c2.1-1.4,4.3-2.2,6.8-2.2c0.5,0,1-0.1,1.6-0.1c-1.6-1.8-3.3-2.6-5.3-2.8c-2.6-0.2-5.3-0.6-7.9-0.7
			c-2.8-0.1-5.6-0.1-8.4,0c-0.6,0-1.2,0.2-1.8,0.3c-1.4,0.4-2.9,0.8-4.3,1.3c-3.5,1.1-7,2.2-10.5,3.3C49.2,49.4,48.2,49.6,47.2,49.8
			z M50.6,30.4c-1.1,0-1.9,0.1-2.6,0c-5.5-0.5-10.9-0.3-16.3,0.6c-3.7,0.6-7,1.8-9.6,4.7c-2.7,2.9-5.7,5.4-9.4,7.2
			c-1.6,0.8-3.1,2-4.7,3c-2.6,1.7-2.8,4.5-3.3,7.2C7,53.7,7.1,53.7,8,51.9c0.6-1.3,1.4-2.5,2.8-3.1c2-0.8,3.4-2.2,4.8-3.8
			c2.1-2.4,4.6-4.2,7.5-5.3c2.6-1,5.3-1.6,8-2.3c3.4-0.8,6.9-1.3,10.2-2.8C44.2,33.3,47.2,31.9,50.6,30.4z M72.5,8.6
			c-2.7-1.3-9.4-3.3-12.1-3.8c-1.5-0.3-2.8-0.1-4.1,0.6c-1,0.5-2,0.9-3,1.5c-1.6,0.9-3.3,1.4-5.1,1.7c-4,0.7-8.1,0.9-12,2.1
			c-2,0.6-3.7,1.8-5.4,3.1c-0.1,0.1,0,0.3,0,0.5c2-0.1,4-0.3,5.9-0.2c2.5,0.1,5.1,0.4,7.6,0.6c1,0.1,1.9,0.1,2.7-0.7
			c1.2-1.2,2.7-1.4,4.3-1.5c3.7-0.1,7.4-0.2,11.1-0.4c3.6-0.2,6.7-1.9,9.9-3.4C72.4,8.8,72.4,8.8,72.5,8.6z M88.7,18.4
			c-0.4,0.3-0.7,0.6-1,0.8c-1.6,1.1-3.3,2-5.3,1.9c-4.2-0.1-8.4-0.2-12.6-0.2c-0.8,0-1.6,0.3-2.7,0.6c0.5,0.4,0.7,0.6,0.8,0.7
			c2.7,1.4,5.3,2.8,8,4.3c1.3,0.7,2.5,1.1,4,1c3-0.2,5.9-0.1,8.9,0.4c1.1,0.2,2.4,0,3.5-0.2c1.4-0.3,2.4-2.4,1.6-3.6
			C92.5,21.9,90.8,20,88.7,18.4z M55.1,4.2c-0.5,0-0.8-0.1-1.2-0.1c-4.8,0.1-9.5,0.4-14.2,1.5c-4.2,1-8.2,2.6-12.2,4.4
			c-3.4,1.6-6.8,3.3-9.7,5.7c-1.4,1.1-2.6,2.3-3.2,4.3c1.5-0.2,2.8-0.6,4-1.2c2.2-1.1,4.3-2.2,6.6-3c1.7-0.6,3.3-1.1,4-2.9
			c0.1-0.2,0.2-0.3,0.4-0.4c1.5-0.9,3-2.2,4.6-2.7c3.5-1.1,7-2,10.7-2.1C48.5,7.7,52,6.8,55.1,4.2z M80.1,62.9
			c0.2,0.2,0.5,0.4,0.7,0.5c2.1,1.1,4.1,2.3,6.2,3.3c1.6,0.8,3.3,1.5,5,2c2,0.6,3.4-0.4,3.8-2.4c0.3-1.7,0.3-3.5,0.4-5.3
			c0-0.5-0.3-0.9-0.5-1.6c-1.7,2.9-4.1,3.7-6.9,3C85.9,61.6,83.1,62.2,80.1,62.9z M43.3,16.5c-0.5-0.1-0.9-0.3-1.3-0.3
			c-1.5-0.1-3.1-0.2-4.6-0.4c-3-0.4-5.8,0.3-8.6,0.9c-2,0.4-3.1,2.5-2.6,4.6c5.4-0.5,10.8-1.7,16.3-1.1
			C42.8,18.9,43.1,17.7,43.3,16.5z M93.7,71.5c0-0.1,0-0.2-0.1-0.3c-1.1-0.3-2.3-0.5-3.3-1c-2.7-1.3-5.3-2.7-7.9-4
			c-1.7-0.9-3.3-1.9-5-2.8c-0.9-0.5-2.1-0.3-2.5,0.4c-0.4,0.6-0.3,1.7,0.5,2.4c0.5,0.5,1.1,0.8,1.7,1.1c3.4,1.9,6.8,3.5,10.5,4.6
			c1.5,0.5,3,0.6,4.6,0.3C92.7,72,93.2,71.7,93.7,71.5z M74,61.5c-0.3-0.2-0.6-0.5-0.9-0.7c-3.9-1.8-7.7-3.6-11.6-5.4
			c-0.7-0.3-1.4-0.5-2.1-0.6c-1.2-0.3-2,0.1-2.4,1.1c-0.3,0.8,0,1.1,1.4,1.7c3.8,1.7,7.7,3,11.3,5.1c1,0.6,2.2,1.1,3.3,1.6
			C73.3,63.4,73.6,62.5,74,61.5z M44.1,20.2c1.7,0.2,2.9,0.3,4.1,0.4c3.8,0.4,7.5,1.5,11.2,2.4c2,0.5,2,0.5,2.7-1.6
			c-0.5-0.2-1-0.6-1.5-0.7c-3.2-1-6.4-2.1-9.6-3.1c-1.4-0.4-2.8-0.6-4.2-0.9c-0.7-0.1-1.5-0.2-1.8,0.5C44.7,18.2,44.5,19,44.1,20.2z
			 M76.9,31.6c3.8,1.8,7.3,3.6,10.9,5.3c0.7,0.3,1.6,0.4,2.4,0.5c1.9,0.1,3.4-1.1,3.7-2.9c-0.4,0-0.7-0.1-1.1-0.1
			c-3.1,0-5.9-1-8.7-2.3c-1.9-0.9-4-1.6-6-2.5C77.7,30.2,77.4,30.8,76.9,31.6z M76.5,28.6c-3.5-2.4-6.9-4.3-10.6-5.6
			c-1.2-0.4-2-0.1-3,1.1c4.3,2.2,8.6,4.3,12.9,6.5C76,30,76.2,29.4,76.5,28.6z M82.2,28.9c0,0.2-0.1,0.4-0.1,0.6
			c1.7,0.7,3.3,1.6,5.1,2.1c1.9,0.5,3.9,0.7,5.8,0.9c0.5,0.1,1.4-0.2,1.6-0.6c0.6-1.1,1.1-2.3,0.3-3.5c-2.3,0.8-4.5,1.2-6.8,0.9
			C86.2,29,84.2,29,82.2,28.9z M24.5,18.1c-0.5,0.2-1.1,0.4-1.6,0.7c-2.7,1.2-5.3,3-8.4,3.2c-0.7,0.1-0.9,0.6-0.8,1.2
			c0.1,0.6,0.3,1.1,1,1.1c0.8,0,1.6-0.1,2.4-0.3c2-0.6,4-1.2,6-1.9c0.4-0.1,0.8-0.3,1.1-0.5C24.3,20.4,24.4,19.3,24.5,18.1z
			 M55.9,54.2c-0.4-0.2-0.7-0.4-1.1-0.5c-2.9-0.8-5.7-1.5-8.6-2.3c-0.5-0.1-1.1-0.1-1.7-0.1c-0.8,0-1.1,0.4-0.9,1.2
			c3.8,1.3,7.5,2.6,11.3,3.9C55.3,55.6,55.6,54.9,55.9,54.2z M42,52.1c0.2-1.1-0.4-1.2-0.8-1.3c-4-0.9-13.2-0.5-15.2,1
			C31.6,51,36.8,51.4,42,52.1z M20,35.3c-3.2,1.9-6.4,3.8-9.3,6.2c-0.4,0.3-0.8,0.8-0.8,1.4C13.7,40.9,17.5,39,20,35.3z M23.6,51.8
			c-1.6-0.2-13.2,2.7-14.1,3.4c0.6,0.8,1.4,0.6,2.2,0.4C15.6,54.3,19.6,53.1,23.6,51.8z M8,56.5c-0.9-1.4-2.2-1.2-3.5-1
			C5,57.5,5.8,57.7,8,56.5z"/>
		<path fill="#F7AEA8" d="M87.2,73.6c-0.2,0.8-0.3,1.4-0.4,1.9c-0.9,0.4-1.7,0.7-2.6,1.1c-0.4,0-1-0.3-1.4-0.1
			c-1,0.5-1.8,0.8-2.7-0.2c-0.1-0.1-0.7,0-1,0.2c-0.3,0.3-0.5,0.7-0.7,1.1c-1.2-0.8-2-1-3.1-0.3c-0.8,0.5-2,0.5-2.9-0.5
			c-0.2-0.3-0.5-0.5-0.9-0.8c-0.4,0.1-0.7,0.3-1,0.4c-0.3,0.1-0.7,0.3-1.1,0.2c-1.5-0.4-3-1.1-4.7-0.4c0,0-0.1,0-0.2,0
			c-1.1-1.1-2.2-1.2-3.5-0.1c-0.3,0.3-1.5-0.2-2-0.6c-1-0.8-1.8-1-3-0.5c-1.3,0.5-2.6,0.2-3.6-0.9c-0.5-0.5-1.1-1-1.8-0.4
			c-1.1,1-2.1,0.5-3-0.2c-0.8-0.7-1.6-1.1-2.6-0.4c-0.6,0.4-1.1,0.1-1.4-0.4c-0.7-1-1.4-1-2.4-0.4c-1.2,0.7-2.6,0.4-3.7-0.7
			c-0.4-0.4-0.8-0.9-1.3-1.4c-0.6,0.3-1.1,0.6-1.7,0.9c-0.4-0.3-0.8-0.5-1.1-0.8c-0.5-0.4-1-0.6-1.5-0.2c-1.2,0.7-2.2,0.1-3.1-0.5
			c-0.8-0.6-1.5-1.2-2.6-0.5c-0.4,0.2-1.4-0.2-2-0.6c-0.7-0.5-1.3-0.8-2.2-0.7c-0.7,0.1-1.4-0.3-2.1-0.6c-0.7-0.4-1.2-0.8-2-0.5
			c-0.3,0.1-0.8-0.3-1-0.6c-0.5-0.7-0.9-1.1-1.8-0.9c-0.8,0.2-1.1-0.5-1.1-1.1c-0.1-0.9-0.5-1.3-1.4-1.3c-2-0.1-2.5-0.6-2.6-2.6
			c0-0.6,0-1.1,0-1.7c0.4-0.2,0.7-0.5,1.1-0.6c2.9-1,5.9-2,8.8-2.9c4.8-1.4,9.7-1.7,14.7-1.5c1.6,0.1,3.2,0.1,4.8,0.4
			c3.2,0.6,6.4,1.5,9.5,2.3c0.8,0.2,1.6,0.6,2.4,1c2.5,1,5,2,7.6,3c2.2,0.9,4.6,1.6,6.7,2.6c2.3,1.1,4.6,2.5,6.8,3.8
			c3.2,1.8,6.3,3.7,9.5,5.4c0.9,0.5,2,0.7,3,1C85.7,72.9,86.4,73.2,87.2,73.6z"/>
		<path fill="#F7AEA8" d="M66.5,34.6c-1.1,0.3-2.2,0.7-3.3,0.9c-1.8,0.3-3.4,0.9-5.1,1.7c-1.3,0.7-2.8,1.1-4.2,1.5
			c-4.1,1.3-8.4,2-12.7,2.5c-2.6,0.3-5.1,1.1-7.6,1.8c-0.8,0.2-1.5,0.9-2,1.5c-2.5,3-5.6,4.9-9.5,5.6c-2.9,0.5-5.8,1.4-8.6,2.1
			c-1.1,0.3-2.2,0.5-3.5,0.7c0.1-1.6,0.8-2.4,1.9-2.8c2.2-1,3.9-2.6,5.5-4.4c2.7-2.9,5.9-4.9,9.7-5.9c3.4-0.9,6.8-1.5,10.1-2.3
			c2.6-0.6,5.1-1.5,7.4-2.9c3.5-2,7.2-2.9,11.1-3.4c0.6-0.1,1.2,0,1.8,0.2c2.3,0.6,4.7,1.3,7,1.9c0.7,0.2,1.3,0.5,2,0.7
			C66.5,34.3,66.5,34.4,66.5,34.6z"/>
		<path fill="#F7AEA8" d="M82,43.4c-1,0-2-0.1-2.9-0.1c-3.8-0.1-7.7-0.2-11.5-0.2c-1.2,0-2.4,0.1-3.5,0.4c-3.3,0.9-6.5,2.1-9.7,3
			c-2.4,0.7-4.8,1.2-7.2,1.8c-0.6,0.1-1.3,0.1-1.8,0.4c-1.5,0.8-3.1,0.8-4.7,0.4c-3.1-0.7-6.2-0.6-9.2-0.4c-0.4,0-0.9,0-1.5,0
			c0.3-0.4,0.4-0.7,0.7-0.9c0.8-0.8,1.6-1.7,2.5-2.5c0.6-0.5,1.2-1.2,1.9-1.4c2.3-0.6,4.5-1.3,6.9-1.6c5.2-0.5,10.3-1.6,15.2-3.2
			c0.2-0.1,0.5-0.1,0.7-0.2c2.8-1.8,6.1-2.1,9.1-3.1c1.4-0.5,2.7-0.4,4.1,0.2C74.9,38,78.5,40.5,82,43.4z"/>
		<path fill="#F7AEA8" d="M95.2,57.8c-0.5,0.5-1,1-1.3,1.5c-1,1.8-2.8,2.2-4.5,1.8c-2.9-0.7-5.8-0.4-8.7,0c-2,0.3-3.7,0.1-5.5-0.9
			c-3.5-1.9-7.1-3.4-10.7-5.1c-0.2-0.1-0.4-0.2-1-0.6c1.6-0.2,2.9-0.4,4.2-0.6c3.3-0.5,6.6-0.9,9.9-1.5c1.1-0.2,2.3-0.7,3.2-1.3
			c1.5-1,3.1-1.7,4.8-2c2.4-0.4,4.6,0.3,6.4,2C94.1,53,95.3,55.1,95.2,57.8z"/>
		<path fill="#F7AEA8" d="M87.6,17.4c-2.1,1.4-3.9,3.1-6.6,2.2c-0.3-0.1-0.7-0.1-1.1-0.1c-3.3,0-6.7-0.2-10-0.1
			c-1.4,0-2.8,0.5-4.1,0.9c-0.7,0.2-1.3,0.3-1.9,0c-4.6-1.8-9.2-3.4-14-4.5c-0.3-0.1-0.7-0.3-1.1-0.5c0.6-0.9,1.5-1,2.3-1.1
			c2.3-0.2,4.6-0.3,6.9-0.4c2.3-0.1,4.7-0.2,7-0.4c0.7-0.1,1.4-0.3,2.1-0.6c2.3-0.9,4.6-1.9,6.8-2.9c0.9-0.4,1.8-0.4,2.7,0
			c3.6,1.6,7,3.8,10,6.3C86.9,16.5,87.2,16.9,87.6,17.4z"/>
		<path fill="#F7AEA8" d="M47.2,49.8c1-0.2,2-0.4,3-0.7c3.5-1.1,7-2.2,10.5-3.3c1.4-0.4,2.8-0.9,4.3-1.3c0.6-0.2,1.2-0.3,1.8-0.3
			c2.8,0,5.6-0.1,8.4,0c2.7,0.1,5.3,0.5,7.9,0.7c2.1,0.2,3.8,1,5.3,2.8c-0.7,0.1-1.1,0.1-1.6,0.1c-2.5,0-4.7,0.7-6.8,2.2
			c-0.9,0.6-2.2,0.9-3.3,1.1c-3.8,0.7-7.6,1.4-11.4,1.8c-2.8,0.3-5.7,0.4-8.5-0.3c-3.2-0.8-6.5-1.7-9.7-2.5
			C47.2,50.1,47.2,50,47.2,49.8z"/>
		<path fill="#F7AEA8" d="M50.6,30.4c-3.4,1.6-6.4,2.9-9.3,4.3c-3.2,1.5-6.8,2-10.2,2.8c-2.7,0.6-5.4,1.3-8,2.3
			c-2.9,1.1-5.4,3-7.5,5.3c-1.3,1.6-2.8,3-4.8,3.8c-1.4,0.5-2.2,1.8-2.8,3.1c-0.9,1.8-1,1.8-3.2,1.1c0.5-2.7,0.7-5.5,3.3-7.2
			c1.5-1,3-2.2,4.7-3c3.6-1.8,6.7-4.3,9.4-7.2c2.7-2.9,5.9-4.1,9.6-4.7c5.4-0.9,10.8-1.1,16.3-0.6C48.7,30.4,49.5,30.4,50.6,30.4z"
			/>
		<path fill="#F7AEA8" d="M72.5,8.6c-0.1,0.2-0.1,0.3-0.2,0.3c-3.2,1.5-6.3,3.2-9.9,3.4c-3.7,0.2-7.4,0.2-11.1,0.4
			c-1.6,0.1-3.1,0.3-4.3,1.5c-0.8,0.8-1.7,0.8-2.7,0.7c-2.5-0.2-5-0.5-7.6-0.6c-2-0.1-3.9,0.1-5.9,0.2c0-0.2-0.1-0.4,0-0.5
			c1.7-1.3,3.4-2.5,5.4-3.1c3.9-1.2,8-1.5,12-2.1c1.8-0.3,3.5-0.8,5.1-1.7c1-0.6,2-1,3-1.5c1.3-0.7,2.6-0.9,4.1-0.6
			C63.1,5.3,69.9,7.3,72.5,8.6z"/>
		<path fill="#F7AEA8" d="M88.7,18.4c2.1,1.6,3.8,3.5,5.2,5.7c0.7,1.2-0.3,3.3-1.6,3.6c-1.1,0.2-2.4,0.4-3.5,0.2
			c-2.9-0.5-5.9-0.6-8.9-0.4c-1.5,0.1-2.7-0.3-4-1c-2.6-1.5-5.3-2.9-8-4.3c-0.2-0.1-0.4-0.3-0.8-0.7c1.1-0.3,1.9-0.6,2.7-0.6
			c4.2,0,8.4,0.1,12.6,0.2c2,0,3.7-0.9,5.3-1.9C88,19,88.3,18.7,88.7,18.4z"/>
		<path fill="#F7AEA8" d="M55.1,4.2c-3,2.6-6.5,3.5-10.2,3.5c-3.7,0.1-7.2,1-10.7,2.1c-1.7,0.5-3.1,1.8-4.6,2.7
			c-0.2,0.1-0.3,0.2-0.4,0.4c-0.7,1.8-2.3,2.3-4,2.9c-2.3,0.8-4.4,1.9-6.6,3c-1.2,0.6-2.5,1-4,1.2c0.6-2,1.9-3.2,3.2-4.3
			c2.9-2.5,6.3-4.2,9.7-5.7c4-1.8,8-3.4,12.2-4.4c4.7-1.1,9.4-1.5,14.2-1.5C54.3,4.1,54.6,4.2,55.1,4.2z"/>
		<path fill="#F7AEA8" d="M80.1,62.9c2.9-0.7,5.7-1.3,8.7-0.5c2.7,0.6,5.1-0.1,6.9-3c0.2,0.7,0.5,1.2,0.5,1.6
			c-0.1,1.8-0.1,3.6-0.4,5.3c-0.3,2.1-1.8,3-3.8,2.4c-1.7-0.5-3.4-1.2-5-2c-2.1-1-4.2-2.2-6.2-3.3C80.6,63.2,80.4,63,80.1,62.9z"/>
		<path fill="#F7AEA8" d="M43.3,16.5c-0.3,1.2-0.5,2.3-0.8,3.7c-5.5-0.6-10.9,0.5-16.3,1.1c-0.5-2.1,0.6-4.1,2.6-4.6
			c2.8-0.6,5.6-1.3,8.6-0.9c1.5,0.2,3.1,0.2,4.6,0.4C42.4,16.3,42.8,16.4,43.3,16.5z"/>
		<path fill="#F7AEA8" d="M93.7,71.5c-0.5,0.2-1.1,0.5-1.6,0.6c-1.5,0.3-3,0.2-4.6-0.3c-3.7-1.1-7.2-2.8-10.5-4.6
			c-0.6-0.3-1.2-0.7-1.7-1.1c-0.7-0.6-0.9-1.7-0.5-2.4c0.4-0.7,1.6-0.9,2.5-0.4c1.7,0.9,3.3,1.9,5,2.8c2.6,1.4,5.3,2.8,7.9,4
			c1,0.5,2.2,0.7,3.3,1C93.7,71.3,93.7,71.4,93.7,71.5z"/>
		<path fill="#F7AEA8" d="M74,61.5c-0.4,1-0.7,1.9-1,2.9c-1.1-0.5-2.3-1-3.3-1.6c-3.6-2.1-7.6-3.4-11.3-5.1
			c-1.4-0.6-1.7-0.9-1.4-1.7c0.3-1,1.1-1.4,2.4-1.1c0.7,0.2,1.5,0.3,2.1,0.6c3.9,1.8,7.8,3.6,11.6,5.4C73.4,61,73.6,61.3,74,61.5z"
			/>
		<path fill="#F7AEA8" d="M44.1,20.2c0.4-1.2,0.6-2.1,1-2.9c0.4-0.7,1.2-0.7,1.8-0.5c1.4,0.2,2.8,0.5,4.2,0.9c3.2,1,6.4,2,9.6,3.1
			c0.5,0.2,1,0.5,1.5,0.7c-0.7,2.1-0.7,2.1-2.7,1.6c-3.7-0.9-7.4-2.1-11.2-2.4C46.9,20.5,45.7,20.4,44.1,20.2z"/>
		<path fill="#F7AEA8" d="M76.9,31.6c0.5-0.9,0.8-1.4,1.2-2.1c2.1,0.8,4.1,1.5,6,2.5c2.8,1.3,5.6,2.3,8.7,2.3c0.4,0,0.7,0.1,1.1,0.1
			c-0.4,1.8-1.9,3-3.7,2.9c-0.8,0-1.6-0.1-2.4-0.5C84.2,35.2,80.7,33.5,76.9,31.6z"/>
		<path fill="#F7AEA8" d="M76.5,28.6c-0.3,0.8-0.5,1.4-0.7,2c-4.4-2.2-8.6-4.3-12.9-6.5c1-1.3,1.8-1.6,3-1.1
			C69.6,24.3,73,26.3,76.5,28.6z"/>
		<path fill="#F7AEA8" d="M82.2,28.9c2,0.1,3.9,0.1,5.9,0.3c2.3,0.3,4.5-0.1,6.8-0.9c0.7,1.2,0.3,2.4-0.3,3.5
			c-0.2,0.4-1.1,0.7-1.6,0.6c-2-0.2-3.9-0.4-5.8-0.9c-1.8-0.5-3.4-1.4-5.1-2.1C82.2,29.3,82.2,29.1,82.2,28.9z"/>
		<path fill="#F7AEA8" d="M24.5,18.1c-0.1,1.2-0.2,2.4-0.4,3.6c-0.3,0.1-0.7,0.3-1.1,0.5c-2,0.6-4,1.3-6,1.9
			c-0.8,0.2-1.6,0.3-2.4,0.3c-0.7,0-1-0.5-1-1.1c-0.1-0.6,0.1-1.2,0.8-1.2c3.1-0.2,5.7-2,8.4-3.2C23.5,18.5,24,18.3,24.5,18.1z"/>
		<path fill="#F7AEA8" d="M55.9,54.2c-0.3,0.7-0.6,1.4-1,2.2c-3.8-1.3-7.5-2.6-11.3-3.9c-0.1-0.8,0.1-1.2,0.9-1.2
			c0.6,0,1.1,0,1.7,0.1c2.9,0.7,5.7,1.5,8.6,2.3C55.2,53.8,55.5,54,55.9,54.2z"/>
		<path fill="#F7AEA8" d="M42,52.1c-5.2-0.7-10.4-1.1-16-0.3c2-1.5,11.2-1.9,15.2-1C41.6,50.9,42.2,50.9,42,52.1z"/>
		<path fill="#F7AEA8" d="M20,35.3c-2.4,3.8-6.2,5.7-10.1,7.6c0.1-0.6,0.4-1.1,0.8-1.4C13.5,39.1,16.7,37.1,20,35.3z"/>
		<path fill="#F7AEA8" d="M23.6,51.8c-4,1.3-8,2.5-12,3.8c-0.8,0.2-1.6,0.4-2.2-0.4C10.4,54.6,21.9,51.7,23.6,51.8z"/>
		<path fill="#F7AEA8" d="M8,56.5c-2.2,1.2-3,1-3.5-1C5.9,55.3,7.2,55.1,8,56.5z"/>
	</g>
</g>
</svg>
