<?xml version="1.0" encoding="utf-8"?>
<!-- Generator: Adobe Illustrator 24.2.1, SVG Export Plug-In . SVG Version: 6.00 Build 0)  -->
<svg version="1.1" id="Layer_1" xmlns="http://www.w3.org/2000/svg" xmlns:xlink="http://www.w3.org/1999/xlink" x="0px" y="0px"
	 width="163.9px" height="132.3px" viewBox="0 0 163.9 132.3" enable-background="new 0 0 163.9 132.3" xml:space="preserve">
<path d="M161.9,59.3c-0.8-14.4,2.9-28.8,1.6-43.2c-0.5-5.3-2.3-11.3-7.2-13.1c-4.1-1.6-8.5,0.4-12.8,1.4c-4.1,1-8.4,1.1-12.6,0.4
	c-3.6-0.6-7.9-3.6-11.4-3.3c-4.4,0.4-8.8,2.3-13.3,2.7c-4.4,0.4-8.9,0.1-13-1.6c-2.2-0.9-4.3-2.3-6.7-2.6c-4.4-0.6-8.4,2.3-12.7,3.3
	c-4.6,1-9.4-0.1-14-1C46.9-0.1,33.6-0.2,20.8,2C16.1,2.8,11,4.2,8.6,8.2c-3.2,5.4-0.2,12.2-0.6,18.5c-0.6,7.8-6.7,14.4-7.8,22.1
	c-1.2,8.9,4.3,17.3,5.6,26.2c1.4,9.6-2.2,19.9,1.7,28.7c2.1,4.7,6,8.3,10.3,11.1c4.8,3.2,10.3,5.8,16.1,6.2c1.8,0.1,3.6,0.1,5.3,0.7
	c2.8,0.9,4.7,3.4,7,5.1c7.2,5.2,17.1,2.8,26,3c5.8,0.2,11.4,1.5,17.2,2.1c8.8,0.9,17.7-0.1,26.6-1c3.3-0.4,6.7-0.7,9.7-2.3
	c3.9-2.1,6.5-5.9,8.9-9.7c1-1.5,1.9-3,3.4-4c1.4-0.9,3-1.3,4.6-1.8c10-3.2,18-11.8,20.5-22C165.4,80.8,162.5,70,161.9,59.3z"/>
<g>
	<path fill="#F7AEA8" d="M15.5,47.8v1c0.6-0.1,1.3-0.3,1.9,0.1c0.1,0,0.2-0.1,0.3-0.1c0.2-0.1,0.4-0.1,0.6-0.2
		c0.2-0.1,0.4-0.2,0.5-0.3c0,0,0-0.1,0-0.1C17.7,48,16.6,47.9,15.5,47.8z M155.8,82c0-2.5,0-4.9,0-7.4c0-1.5,0.1-3.1,0.1-4.6
		c1.3-2.8,0.5-6,0.4-9.3c0-0.7,0-1.4-0.1-2.1c0-0.8,0-1.7,0-2.5c0-1.8,0-3.6,0-5.4c0-0.6,0-1.2-0.1-1.8c-0.1,0-0.1,0-0.2,0
		c0-1.5-0.1-3-0.1-4.4c0-0.1,0-0.3,0-0.4c0-1.1,0-2.2-0.1-3.3c0-0.1,0-0.2-0.1-0.3c0-0.4,0-0.7,0-1.1c0.3,0,0.5-0.1,0.8-0.3
		c-0.1-0.1-0.2-0.2-0.3-0.2c-0.2,0-0.3,0-0.5,0c-0.1-3.7-0.2-7.3-0.3-11c-0.1-2.3-0.1-4.6-0.2-6.9c0.1-0.1,0.1-0.3,0.1-0.5
		c0-1.6-0.1-3.1-0.1-4.7c0-0.6,0-1.1,0-1.7c-0.1,0-0.1,0-0.2,0c0-1.5-0.1-3.1-0.1-4.6c-8.3-1.1-16.7,4.1-24.9,2.2
		c-2-0.5-3.9-1.3-6-1.5c-1.9-0.2-3.9,0.2-5.8,0.5c-14,2.2-28.3,1-42.4,0.6c-19.8-0.6-39.7,0.2-59.5,0.9c-1.8,5.7-1.3,11.7,0,17.5
		c-0.3,0.3-0.5,0.7-0.4,1.1c0,0.1,0.1,0.2,0.1,0.4c0.1,0.4,0.3,0.8,0.4,1.2c0.1,1.5,0.1,3.1,0.1,4.6c0,0.7,0,1.4,0,2.1H19
		c0.1,0.2,0.1,0.5,0.2,0.7c-0.6,0-1.3,0.1-1.9,0.1c-0.2,0-0.3,0.1-0.5,0.1c0,0.1,0,0.1,0,0.2c0.8,0,1.7,0,2.5,0
		c0.1,0.2,0.1,0.5,0.2,0.7c-0.7,0-1.4,0-2.1,0c-0.5,0-0.7,0.2-0.6,0.6c0,0.9,0,1.7,0,2.6c0,1,0,1.9,0,2.9c0.4-0.1,0.7-0.1,1-0.2
		c0.1-1.2,0.4-1.6,1.3-2.2c0.2-0.1,0.4-0.3,0.4-0.4c0.1-0.5,0.3-0.8,0.7-0.8c0.1,0.3,0.1,0.5,0.2,0.8c-0.1,0-0.1,0.1-0.2,0.2
		c0.1,0.1,0.2,0.2,0.3,0.4l0.1,0.5c0,0,0,0.1,0,0.1c-0.1,0.1-0.4,0.2-0.5,0.1c-0.5-0.4-0.9,0-1.3,0.2c-0.3,0.2-0.6,0.6-0.3,0.9
		c0.3,0.4,0.7,0.1,1,0c0.2-0.1,0.4-0.1,0.6-0.2c0,0.2,0.2,0.5,0.1,0.7c-0.2,0.4-0.6,0.7-0.9,1.1c0,0.2,0.2,0.6,0.7,0.6
		c0.5,0,0.7-0.2,0.8-0.7c0-0.2,0.3-0.3,0.5-0.5c0,0.1,0.1,0.2,0.2,0.3c0.2,0.9,0.5,1.7,0.7,2.6c-0.5,0-1.1,0-1.6,0
		c-0.3,0-0.5,0.1-0.5,0.4c0,0.9-0.1,1.7,0,2.6c0,1.9,0.1,3.8,0.1,5.7c0,2.7-0.1,5.4,0.1,8c0.2,3.1,0.1,6.1-0.1,9.1
		c-0.1,0.9,0,1.8,0,2.8c1.1-0.1,2.1-0.3,3-0.8l-0.7,1c-0.6,0.1-1.1,0.3-1.7,0.4c-0.3,0.1-0.4,0.6-0.1,0.7c0.2,0.1,0.4,0,0.7,0.1
		c0,0.2,0,0.3,0,0.4l-1.1,1.6c0-0.1,0-0.2-0.1-0.3c-0.1-0.2-0.1-0.4-0.2-0.7c0,0,0,0,0,0c0,0.4,0,0.9,0,1.3l-0.9,1.4
		c0-0.9,0-1.8,0.1-2.7c0.1-2.3,0.3-4.5,0.3-6.8c0-2.8,0-5.5,0-8.3c0-3.9,0-7.8,0-11.8c0-1.3-0.1-2.6-0.1-3.9c0-0.4-0.2-0.6-0.6-0.6
		c-0.7,0.1-1.3,0.1-2,0.2c-0.4,0-0.6,0.2-0.5,0.6c0.1,0.4,0.3,0.8,0.3,1.1c0,0.7,0,1.3,0,2c0,1.6-0.1,3.2-0.1,4.8
		c0,1.9,0.1,3.8,0.1,5.7c0,1.9-0.1,3.8-0.1,5.8c0,2.3,0,4.6,0,6.9c0,2.3-0.1,4.6-0.1,6.9c0,1.4,0,2.8,0,4.2l-0.3,0.5
		c0,2.8,0.1,5.6,0.1,8.4c0,0.4,0,0.8,0.2,1.1c0.2,0.5,0.8,0.8,1.3,1.1c5,2.5,10.6,4,16.2,4.4c12.5,0.8,24.9-3.9,37.5-3.1
		c12.3,0.8,23.9,7,36.2,6.4c9.1-0.4,17.7-4.6,26.9-5.2c3.6-0.2,7.2,0.1,10.7-0.8c4.8-1.2,8.9-4.7,10.9-9.2c-0.1-0.4-0.2-0.8-0.3-1.3
		c0-0.3,0-0.7,0-1c0.1-0.1,0.1-0.3,0.1-0.5c0-0.8,0-1.5,0.1-2.3C155.8,85.4,155.8,83.7,155.8,82z M19.6,42c0.1-0.1,0.1-0.1,0.2-0.2
		c0,0.1,0.1,0.3,0.1,0.4C19.8,42.2,19.7,42.1,19.6,42z M153.7,78.1c-0.2-0.2-0.5-0.4-0.7-0.6c0-1.2-0.1-2.4-0.1-3.6
		c0.3-0.3,0.6-0.6,0.8-0.9C153.7,74.7,153.7,76.4,153.7,78.1z M16.9,49.6c-0.1,0-0.2,0-0.4-0.1c0.2,0.4,1.5,0.4,2.6,0.1
		c-0.4-0.5-0.6-0.6-1.1-0.2C17.7,49.7,17.3,49.8,16.9,49.6z"/>
	<path d="M106.4,17.7c0,0.3-0.1,0.7-0.2,1.1c-0.1,0.4-0.3,0.8-0.3,1.3c0,0.8,0.1,1.6,0.1,2.4c0,0.5-0.1,1,0.5,1.2
		c0.1,0,0.1,0.2,0.1,0.3c0,0.3,0.1,0.7,0.1,1.1c0.1,2.9,0.1,5.8,0.2,8.7c0,1,0,2,0,3c0,0.1,0.1,0.3,0.2,0.4c0.5,0.1,0.9,0.3,1.4,0.3
		c1.7-0.1,3.5-0.4,5.2-0.5c1.3-0.1,2.7,0.1,4,0.1c2.1,0,4.2,0,6.4-0.1c1.1,0,1.4-0.4,1.4-1.5c0-0.5,0-1.1,0-1.6c0-1.3,0.1-2.6,0-3.9
		c-0.1-2-0.2-4-0.3-6c0-0.2,0.1-0.4,0.3-0.5c0.7-0.5,1.1-1.2,0.8-2c-0.3-1.2-0.1-2.4-0.6-3.5c-0.3-0.6-0.2-1.4-0.2-2.2
		c0,0,0.1,0,0.1,0c-0.1-0.9-0.2-1.7-0.3-2.6c0-0.3-0.3-0.5-0.5-0.7c-0.5-0.6-1.1-0.4-1.8-0.3c-1.8,0.2-3.7,0.6-5.5,0.7
		c-1.7,0.1-3.3,0.1-5-0.1c-1.8-0.2-3.6-0.3-5.5-0.4c-0.9-0.1-1.4,0.5-1.3,1.4C106,15,106.3,16.3,106.4,17.7z M109,36.5
		c-0.4,0-0.5-0.1-0.5-0.5c-0.1-1.2-0.1-2.5-0.2-3.7c0-0.5-0.1-1.1-0.1-1.6c-0.2-2.6-0.3-5.2-0.1-7.8c0-0.5,0.3-0.4,0.6-0.3
		c0.1,1.1,0.2,2.2,0.3,3.3c0.1,0.7,0,1.4,0.1,2c0.1,0.7,0.1,1.2-0.4,1.8c-0.3,0.4,0,0.8,0.5,0.8c0.8,0,1.7,0.1,2.5,0.1
		c0.4,0,0.5,0.2,0.5,0.5c0,1.1,0,2.1,0.1,3.2c0,0.4-0.1,0.8-0.1,1.3c0,0.3,0.1,0.5,0.2,0.8C111.3,36.4,110.1,36.4,109,36.5z
		 M110.4,23.2c1.1-0.1,2-0.3,3-0.3c0.7,0,1.3,0.1,2,0.1c1.1-0.1,2.2-0.2,3.3-0.3c0.7-0.1,1.3-0.1,2.1-0.1c0.1,0.6,0.1,1.2,0.2,1.7
		c0.1,0.4-0.1,0.5-0.5,0.5c-0.7,0-1.3,0-2,0c-0.1,0-0.4-0.2-0.4-0.3c-0.1-0.6-0.5-0.7-0.9-0.7c-0.7,0.1-1.4,0-1.9,0.7
		c-0.1,0.1-0.3,0.1-0.4,0.1c-1.2,0.1-2.4,0.1-3.5,0.2c-0.9,0-1,0-1-1C110.4,23.6,110.4,23.4,110.4,23.2z M121.1,26
		c0,0.9,0,1.8,0,2.6c-0.8,0-1.4,0.1-2,0.1c-2,0-4.1-0.1-6.1-0.1c-0.7,0-1.4,0-2.1-0.1c-0.1,0-0.4-0.1-0.4-0.2
		c-0.1-0.8-0.1-1.6-0.1-2.5c0-0.1,0.3-0.3,0.4-0.3c2-0.1,4-0.1,6-0.2c0.5,0,1.1,0,1.6,0c0.7,0,1.4,0.1,2.1,0.1
		C120.8,25.6,121.1,25.9,121.1,26z M111.8,29.3c1.6,0,3.3,0.2,4.9,0.2c0.9,0,1.8-0.1,2.6-0.1c0.5,0,0.9,0,1.4,0.1
		c0.1,0,0.2,0.2,0.3,0.4c0,0.1-0.2,0.3-0.3,0.3c-1.1-0.1-2.2-0.1-3.3-0.2c-0.3,0-0.7,0-1,0c-1.1,0-2.2-0.1-3.3-0.1
		c-0.8,0-1.6,0-2.4,0c-0.2,0-0.5-0.1-0.7-0.1c0-0.1,0-0.1,0-0.2C110.6,29.4,111.2,29.3,111.8,29.3z M118.3,35.3
		c-0.4,0.1-0.7,0.1-1,0.1c-1.2,0-2.4,0-3.5,0c-0.5,0-0.7-0.2-0.7-0.7c0.1-1.1,0-2.1,0-3.2c0-0.4,0.1-0.6,0.6-0.5
		c0.6,0.1,1.3,0.2,1.9,0.1c1-0.3,1.9,0.3,3,0.2C118.5,32.6,118.4,33.9,118.3,35.3z M123.8,36.1c-1.7,0.1-3.4,0.1-5.2,0.2
		c0.6-1.4,0.6-2.9,0.6-4.4c0-0.9,0.1-1,0.9-0.8c0.9,0.2,1.6-0.3,2.4-0.6c0.3-0.1,0.5-0.5,0.1-0.9c-0.3-0.2-0.3-0.4-0.1-0.8
		c0.2-0.5,0.2-1.1,0.2-1.6c0-0.5-0.1-1.1-0.1-1.6c0-0.1,0.1-0.3,0.1-0.4c0-0.1,0.1-0.3,0.1-0.3c-0.5-0.6-0.3-1.2-0.3-1.8
		c0-0.2,0-0.4,0-0.7c0.8-0.2,0.9-0.1,1.1,0.8c0.4,2.4,0.2,4.9,0.3,7.3C123.9,32.3,123.8,34.1,123.8,36.1z M124.8,35.6
		c-0.4-0.5-0.8-11.5-0.6-12.6c0.1,0,0.1-0.1,0.2-0.1c0.1,0.2,0.2,0.3,0.2,0.5c0.1,2.8,0.3,5.6,0.4,8.5
		C125.1,33,124.9,34.3,124.8,35.6z M107.4,19c1.5-0.4,3-0.6,4.6-0.4c1.1,0.1,2.1,0.1,3.2,0.2c1.3,0.1,2.6,0.4,4,0.4
		c1.5,0.1,2.9,0,4.4-0.1c0.6,0,1.1-0.1,1.8-0.2c0,0.2,0.1,0.5,0.1,0.8c0,0.1-0.1,0.1-0.1,0.2c-0.3-0.8-0.8-0.6-1.3-0.5
		c-1.7,0.4-3.5,0.1-5.2,0c-1.5-0.1-3-0.1-4.5-0.2c-0.9,0-1.7-0.2-2.6-0.2c-1.5,0-3.1,0.1-4.6,0.2C107.1,19.2,107.2,19.1,107.4,19z
		 M20.3,25.8c0.1-0.1,0-0.2,0-0.4c0-0.7,0-1.4,0-2c0.1-3.3,0.1-6.6,0.2-9.9c0-0.3,0.1-0.6-0.3-0.6c-0.1,0-0.3,0.4-0.3,0.6
		c-0.1,2.6-0.2,5.2-0.3,7.6c0,0.7,0,1.2,0,1.7c0,1,0,1.9,0,2.9c0,0.2,0.2,0.3,0.3,0.5C20,26.1,20.2,26,20.3,25.8z M115.5,32.2
		c-0.1,0.7-0.1,1.4-0.1,2.1c0,0.5,0.1,0.6,0.6,0.5c0.2,0,0.4-0.1,0.5-0.1c0,0,0,0.1,0,0.1c0.2,0.1,0.5,0.3,0.7,0.2
		c0.2-0.1,0.3-0.4,0.4-0.6c0.2-0.4,0.3-0.8,0.5-1.1c0-0.1,0-0.3,0-0.4c-0.1-0.2-0.2-0.4-0.3-0.5c-0.1-0.1-0.3-0.3-0.5-0.4
		c-0.4-0.1-0.9-0.2-1.3-0.3C115.8,31.7,115.5,32,115.5,32.2z M15.7,16.6c0,2.8,0,5.5,0,8.3c0,0,0,0,0.1,0c0,0.4,0,0.9,0,1.3
		c0,0.2,0.3,0.4,0.4,0.5c0.1-0.2,0.3-0.4,0.3-0.5c0-1.3-0.1-2.7-0.1-4c0-2.7,0-5.4,0-8.1c0-0.4,0-0.8,0-1.2c0-0.2-0.2-0.3-0.3-0.5
		c-0.2,0.2-0.4,0.3-0.5,0.5c-0.1,0.1,0,0.3,0,0.5C15.6,14.5,15.7,15.5,15.7,16.6z M129.1,62.4c-0.3,0.9,0.1,1.7,0.2,2.6
		c0,0.1,0.1,0.1,0.2,0.2c0.3-0.6,0.6-1.3,0.9-1.9c0,0,0.1,0,0.1,0.1c0.1,0.5,0.2,1,0.3,1.5c0.3-0.2,0.4-0.3,0.5-0.4
		c0.3,0.5,0.7,0.6,1.2,0.3c0.4,0.4,0.4,0.4,0.8-0.7c0,0.2,0.1,0.3,0.1,0.5c0,0.4,0.1,0.5,0.5,0.4c0.7-0.2,1.4-0.2,2-0.3
		c0.4-0.1,0.4-0.3,0.3-0.6c-0.1-0.2-0.1-0.4,0-0.5c0-0.2,0.1-0.4,0.2-0.5c-0.2,0-0.4-0.1-0.6-0.1c-0.2,0-0.3,0.1-0.4,0.2
		c-0.1-0.2-0.2-0.4-0.3-0.5c-0.5,0.1-0.9,0.1-1.4,0.2c-0.1-0.2-0.1-0.3-0.2-0.5c-0.1,0-0.1,0-0.2,0c-0.1,0.3-0.2,0.6-0.3,1
		c0.2-0.8-0.5-0.8-0.8-0.9c-0.4-0.1-0.8-0.2-1,0.2c-0.3,0-0.5-0.1-0.9-0.1c0,0-0.1-0.2-0.2-0.2c-0.2-0.1-0.5-0.3-0.7-0.3
		C129.3,61.8,129.2,62.2,129.1,62.4z M157,47.2c-0.1-0.1-0.2-0.3-0.2-0.4c0-2.1,0-4.1,0-6.2c0-0.2,0.1-0.5,0.3-0.6
		c0.6-0.5,0.5-1.4-0.2-1.6c-0.7-0.2-0.8-0.5-0.6-1.1c0,0,0-0.1,0-0.2c0-3.8,0-7.5-0.1-11.3c0-2.5-0.1-5-0.1-7.5
		c0-2.8,0.1-5.6,0.1-8.4c0-0.3,0-0.5,0-0.8c0-0.2-0.2-0.3-0.3-0.4c-0.1,0.1-0.2,0.2-0.3,0.4c-0.1,0.1,0,0.3,0,0.4c0,1.2,0,2.5,0,3.7
		c0,0.3-0.1,0.4-0.5,0.5c-0.7,0-1.5,0.1-2.2,0.1c-1.5,0-3.1,0-4.6,0c-0.4,0-0.9,0-1.2,0c0-1.3,0-2.4,0-3.6c0-0.1-0.2-0.3-0.2-0.3
		c-0.2,0-0.4,0.1-0.5,0.2c-0.1,0.2-0.1,0.4-0.1,0.6c0,0.8,0.1,1.6,0.1,2.4c0,0.3,0,0.7-0.5,0.7c-0.3,0-0.7,0.2-0.8,0.4
		c0,0.3,0.2,0.6,0.3,0.9c0.1,0.1,0.3,0.2,0.5,0.2c0.3,0.1,0.5,0.2,0.4,0.6c-0.1,0.9-0.1,1.7-0.1,2.6c0,1,0.1,2,0.1,3.1
		c-0.1,0-0.2,0-0.3,0.1c-0.5,0.1-0.5,0.5-0.5,0.9c0,0.4,0.3,0.4,0.5,0.5c0.1,0.1,0.3,0.2,0.3,0.4c0.1,1.1,0.1,2.2,0.2,3.3
		c0,0.9,0,1.8,0,2.8c-0.2,0.3-0.5,0.7-0.7,1.1c-0.2,0.5-0.1,0.7,0.4,0.7c0.4,0,0.5,0.2,0.5,0.5c0,0.9,0.1,1.8,0.2,2.7
		c0.1,1.1,0.1,2.3,0.1,3.5c-0.4,0-0.8,0-1.3,0c-1.2,0-2.3,0-3.5,0.1c-1.3,0-2.6,0-3.9,0c-1.6,0-3.2,0.1-4.9,0.1c-1.5,0-3,0-4.5,0
		c-1.6,0-3.3,0-4.9,0c-1.3,0-2.7-0.1-4,0c-1.7,0-3.3,0.1-5,0.1c-1.3,0-2.6,0-3.9,0.1c-1.6,0.1-3.3,0.2-4.9,0.2
		c-1.1,0-2.2-0.1-3.3-0.1c-1.3,0-2.7,0.2-4,0.2c-2.3,0-4.7,0-7.1,0c-1.7,0-3.4,0.1-5,0.1c-1.7,0-3.4-0.1-5-0.2c-1.4,0-2.8,0-4.3,0
		c-1.6,0-3.3,0-4.9,0.1c-1,0-2.1,0.1-3.1,0.1c-0.4,0-0.8,0-1.2,0c-1.1,0-2.2,0-3.3,0c-0.9,0-1.8,0.1-2.7,0.2
		c-0.8,0.1-1.8-0.2-2.5,0.5c0,0-0.2,0-0.3,0c-0.6-0.1-1.1-0.2-1.7-0.3c0.9-1.3,2.1-2.4,3.9-2.6c-0.2,0.6-0.2,0.8,0.3,0.9
		c0.2,0.1,0.3,0.1,0.5,0.1c2.2,0.1,4.4,0.1,6.6,0.1c1.8,0,3.6,0,5.3-0.1c0.9,0,1.8-0.1,2.7-0.2c0.7,0,1.4-0.1,2.1-0.1
		c0.5,0,0.7-0.4,0.5-0.9c-0.2-0.5-0.4-1-0.6-1.6c0.1-0.1,0.3-0.1,0.4-0.2c0.1-0.1,0-0.4,0-0.4c-0.6-0.1-0.4-0.6-0.4-1.1
		c0.3,0.2,0.6,0.4,0.7,0.6c0.2,0.3,0.3,0.7,0.4,1.1c-0.1,0.1-0.2,0.1-0.3,0.3C80,35.8,80.1,36,80.4,36c0.5,0.1,1.1-0.7,1-1.2
		c-0.1-0.2-0.1-0.5,0-0.7c0.2-0.5,0.1-0.7-0.5-0.7c-0.3,0-0.6-0.1-0.6-0.4c0-1.2-0.1-2.4-0.1-3.6c-0.1-1.6-0.1-3.3-0.2-4.9
		c0-0.3,0-0.5,0.3-0.5c0.2,0,0.3-0.3,0.4-0.5c0.1-1,0.2-1.9,0.1-2.9c-0.1-1,0-2.1-0.1-3.2c-0.1-1.5-0.2-2.9-0.3-4.4
		c0-0.3-0.1-0.5-0.5-0.5c-0.4,0-0.8,0.1-1.2,0.1c-1.7,0-3.4,0.1-5.2,0c-1.7-0.1-3.4-0.3-5-0.5c-1.5-0.1-2.6,0.3-3.5,1.6
		c-0.9,1.3-1.9,2.6-2.8,3.9c-0.7,1-1.4,2.1-2.1,3.2c-0.9-0.9-1.7-1-2.5,0c-0.5,0.6-1.5,0.5-2-0.1c-0.5-0.7-1.1-1.4-1.7-2.1
		c-0.3-0.3-0.6-0.6-1.2-0.3c-0.1,0.1-0.3,0-0.5-0.1c-0.3-0.1-0.7-0.2-1-0.3c-0.2-0.1-0.4-0.2-0.4-0.3c-0.2-0.6-0.5-1-1.2-1
		c0-0.3,0.1-0.6,0.1-0.9c0-0.6-0.2-1.2-0.6-1.6C48,12.8,45,13.3,44.2,15c-0.1,0.1,0,0.3,0,0.5c0.2,0,0.3-0.1,0.5-0.1
		c0.5-0.4,0.9-0.8,1.4-1.1c0.7-0.5,2-0.4,2.6,0.2c0.7,0.6,0.8,1.4,0.5,2.2c-0.1,0.3-0.4,0.5-0.5,0.8c-0.1,0.2,0,0.4,0,0.6
		c0.2,0,0.4,0,0.5-0.1c0.1-0.1,0.3-0.2,0.4-0.3c0.3-0.3,0.5-0.2,0.6,0.1c0.1,0.3,0.1,0.7,0.2,1c0,0.2,0.1,0.4,0.2,0.5
		c0.1-0.1,0.3-0.1,0.4-0.2c0.2-0.2,0.3-0.5,0.6-0.3c0.2,0.1,0.5,0.2,0.7,0.4c0.5,0.5,0.5,0.5,1,0c0.6,0.5,1.1,0.9,1.4,1.6
		c0.6,1.4,2.5,1.6,3.4,0.5c0.2-0.3,0.5-0.6,1-0.4c0.4,0.2,0.6,0.7,0.5,1.2c-0.1,0.4,0,0.5,0.3,0.7c0.3,0.1,0.6,0.2,0.9,0.3
		c0.2,0.1,0.4,0.2,0.6,0.2c-0.2,0.2-0.4,0.4-0.4,0.6c-0.1,0.6-0.4,0.7-1,0.5c-0.3-0.1-0.6-0.2-0.8-0.2c-1,0.3-1.9-0.2-2.9-0.5
		c-0.8-0.2-1.4-0.8-2.3-0.9c-0.3,0-0.6-0.1-0.9,0.1c-0.3,0.3-0.6,0.3-1,0.1c-0.1-0.1-0.4-0.2-0.5-0.1c-0.5,0.4-0.9,0.1-1.3-0.2
		c-0.3-0.3-0.6-0.3-0.8,0.1c-0.3,0.4-0.6,0.5-1,0.1c-0.1-0.1-0.2-0.2-0.3-0.3c-0.4-0.3-0.7-0.7-1.3-0.2c-0.1,0.1-0.6-0.1-0.9-0.2
		c-0.1-0.1-0.2-0.3-0.3-0.4c-0.2-0.1-0.4-0.2-0.5-0.1c-0.1,0-0.2,0.3-0.3,0.5c0,0.4-0.2,0.8-0.6,0.9c-0.4,0-0.8-0.3-0.8-0.7
		c0-0.3-0.1-0.6-0.5-0.5c-0.4,0.1-0.5,0.5-0.3,0.8c0.3,0.4,0.6,0.8,0.9,1.3c-0.2,0.2-0.4,0.4-0.9,0.3c-0.5-0.2-0.9,0.1-1.1,0.6
		c-0.1,0.3-0.2,0.6-0.3,0.9c-0.6-0.1-1-0.4-0.9-1c0-0.2-0.2-0.5-0.3-0.5c-0.7-0.3-1.3-0.8-2.1-0.5c-0.1,0-0.3-0.1-0.5-0.2
		c-0.4-0.3-0.9-0.4-1.3-0.1c-0.4,0.3-0.7,0.8-1.3,0.5c0,0-0.1,0-0.2,0.1c-1,0.3-1.5,1.1-1.7,2c-0.2,0.8-0.5,0.9-1.3,0.7
		c-0.7-0.1-1.3-0.2-2-0.3c0,0.1,0,0.1-0.1,0.2c0.2,0.1,0.3,0.2,0.5,0.3c0.5,0.2,0.9,0.3,1.4,0.4c0.8,0.3,1.3,0.1,1.7-0.7
		c0.2-0.4,0.3-0.9,0.6-1.3c0.2-0.3,0.6-0.5,0.9-0.7c0.1-0.1,0.4,0.2,0.6,0.3c0.2,0.1,0.4,0.5,0.5,0.4c0.4-0.1,0.4-0.4,0.3-0.8
		c0-0.1,0-0.2,0-0.3c0.1-0.2,0.2-0.4,0.3-0.4c0.2,0,0.4,0.1,0.6,0.2c0.1,0.1,0.1,0.3,0.2,0.4c0.1,0.2,0.2,0.4,0.3,0.6
		c0.1-0.2,0.3-0.3,0.4-0.5c0.1-0.3,0.3-0.5,0.6-0.4c0.3,0.1,0.6,0.2,0.9,0.4c0.3,0.2,0.5,0.4,0,0.7c-0.2,0.1-0.2,0.4-0.3,0.6
		c0.2,0.1,0.4,0.2,0.6,0.3c0.3,0.1,0.7,0.3,1,0.4c0.2,0.1,0.5,0.1,0.6,0c0.5-0.2,0.5-0.8,0.7-1.3c0.1-0.2,0.2-0.3,0.3-0.4
		c0.1,0.1,0.3,0.3,0.4,0.4c0.2,0.2,0.4,0.5,0.5,0.4c0.4,0,0.4-0.3,0.3-0.7c0-0.4,0.1-0.6,0.6-0.5c0.4,0.2,0.8,0.3,1.2,0.5
		c0.4,0.2,0.5,0.5,0.4,0.9c-0.1,0.2-0.1,0.4-0.1,0.7c0.2-0.1,0.4-0.2,0.6-0.4c0,0,0.1,0,0.2,0c-0.2,1.2-0.3,2.4-1,3.5
		c-0.5,0.8-0.7,1.5-0.6,2.5c0.1,0.5,0,1.1-0.2,1.6c-0.2,0.7-0.7,1.4-1,2.1c-0.1,0.3,0,0.6,0.1,0.9c0.3,0.8,0.6,1.6,1,2.4
		c-0.3,0-0.6,0-0.9,0c-0.5-0.1-1.1-0.1-1.6-0.4c-0.2-0.1-0.2-0.7-0.3-1.1c0-0.1-0.1-0.2-0.1-0.4c-0.1-0.4-0.3-0.8-0.4-1.3
		c0.1,0,0.1,0,0.2-0.1c0,0.1,0,0.3,0.1,0.4c0.1,0.1,0.2,0.3,0.3,0.4c0.1-0.1,0.4-0.3,0.4-0.4c0-0.3-0.1-0.7-0.3-1
		c-0.1-0.2-0.5-0.2-0.8-0.3c-0.2,0-0.6,0-0.6,0c-0.2-0.4-0.5-1-0.4-1.4c0.2-1.1,0.6-2.2,1-3.2c0-0.1,0.1-0.3,0.2-0.3
		c0.7-0.1,1-0.7,1.2-1.3c0.9,0.2,1.5,0.1,1.9-0.5c0.4-0.6,0.3-1.7-0.2-2.4c-0.1,0.3-0.2,0.5-0.2,0.8c0,0.3,0.1,0.6,0.1,0.9
		c0,0.6-0.4,0.8-0.9,0.6c-1.1-0.4-1.1-0.4-1.6,0.6c-0.2,0.4-0.5,0.7-1,0.7c-0.5,0-0.4-0.4-0.6-0.7c-0.2-0.2-0.4-0.4-0.6-0.5
		c-0.2,0.2-0.3,0.4-0.6,0.7c-0.3,0-0.8-0.1-1.3-0.2c0-0.2,0.1-0.3,0.1-0.4c0-0.2-0.1-0.4-0.2-0.6c-0.2,0.1-0.3,0.2-0.5,0.3
		c-0.2,0.1-0.3,0.3-0.5,0.3c-0.9,0.1-1.9,0.2-2.8,0.3c-0.2,0-0.4,0-0.7,0.1c0,0.1,0,0.1,0,0.2c0.2,0.1,0.5,0.2,0.8,0.2
		c0.8,0,1.5,0,2.3,0c0.3,0,0.7-0.1,0.8,0c0.6,0.5,1.3,0.4,1.9,0.6c0.7,0.2,1.4,0.5,2.1,0.7c-0.4,1-0.8,1.9-1.2,2.9
		c-0.3,0.7-0.2,1.4,0.2,2c0.9,1.3,1.5,2.6,1.6,4.2c0,0.8,0.2,1.6,0.6,2.3c0.6,1.1,1.4,2.1,2.2,3.2c0.1,0.1,0.3,0.3,0.4,0.2
		c0.3-0.2,0.7-0.5,0.9-0.8c0.2-0.3,0.3-0.7,0.5-0.9c0.6-0.8,0.8-1.7,0.8-2.7c0-1,0-1.9-1.1-2.5c-1-0.5-0.8-1.6-1.2-2.5
		c0,0,0-0.1,0-0.1c0.5-1,1-2,1.5-3c0.1-0.1,0.3-0.2,0.4-0.3c1.1-0.7,2.4-0.9,3.7-1.1c0.2,0,0.5,0,0.6,0.1c1,0.6,2,0.6,3.1,0.5
		c0.4,0,0.7-0.1,1.1-0.1c0,0.7,0,0.7,0.7,0.8c1,0.2,1.9,0.5,2.7,1.1c0.8,0.6,1.8,0.7,2.7,0.5c0.2,0,0.3-0.2,0.5-0.3
		c-1.2-0.2-2.3-0.5-3.2-1.3c-0.6-0.5-1.4-0.7-2.1-0.9c-0.2,0-0.4-0.1-0.7-0.2c0.4-0.2,0.6-0.4,0.9-0.6c0.8-0.5,1.6-0.5,2.4,0.1
		c0.4,0.3,0.8,0.4,1.3,0.1c0.2-0.2,0.5-0.4,0.8-0.5c0.4-0.2,0.6-0.5,0.5-1c0-0.3,0.2-0.7,0.4-0.8c0.3-0.1,0.8-0.1,1.1,0.1
		c0.3,0.2,0.2,0.5,0,0.8c-0.2,0.4,0,0.7,0.4,0.6c0.4,0,0.6,0,0.6,0.5c0,0.1,0.1,0.4,0.3,0.4c0.1,0,0.3-0.1,0.5-0.2
		c0.2-0.1,0.3-0.3,0.4-0.3c0.5,0.4,0.9,0.6,1.4,0.9c0.1,0.1,0.2,0.2,0.2,0.3c0,0.6,0.2,0.9,0.8,0.9c0.1,0,0.3,0.2,0.4,0.4
		c0.1,0.2,0.3,0.4,0.4,0.5c0.2,0.2,1,0.2,1.2,0.1c0.1-0.1,0.1-0.3,0-0.3c-0.4-0.4-0.1-0.6,0-0.8c0.4,0,0.6,0,0.9-0.1
		c1-0.3,1-0.4,1.6,0.5c0.2,0.3,0.4,0.6,0.3,0.9c-0.1,0.3-0.3,0.7-0.6,0.9c-1.3,0.9-2.7,1.2-4.2,0.9s-3.1-0.7-4.7-0.4
		c-0.1,0-0.4-0.1-0.5-0.2c-0.3-0.3-0.4-0.3-0.7,0.1c-0.1,0.2-0.3,0.5-0.5,0.5c-1.4,0.3-2.5,0.9-3.4,2c-0.6,0.8-1.5,1.2-2.5,1.3
		c-0.8,0.1-1.6,0.1-2.3,0.2c-1.1,0.2-2.2,0.5-3,1.4c-0.3,0.3-0.5,0.7-0.7,1.2c-0.1-0.2-0.2-0.4-0.2-0.6c-1.8,1.3-2.4,3.1-2.5,5.1
		c-0.1,2,0,3.9,0,5.9c0,1.2,0,2.4,0.5,3.5c0.1,0.3,0.1,0.6,0.1,0.9c-0.1,1.3-0.2,2.5,0,3.8c0.2,0.8,0.3,1.7,0.5,2.6
		c0.2,0.9,0.4,1.8,0.6,2.8c0.1,0.5,0.1,1-0.4,1.5c-0.3,0.3-0.1,0.5,0.3,0.7c0.1,0.1,0.3,0.1,0.4,0.2c0.4,0.9,0.8,1.8,0.8,2.9
		c0,1.5-0.2,3,0.2,4.5c0.2,0.5,0.3,1.1,0.5,1.6c0.3,1.1,0.6,2.3,1.1,3.4c0.3,0.9,1,1.7,1.2,2.6c0.6,2.6,1.2,5.3,1.7,7.9
		c0.3,1.3,0.6,2.6,0.9,3.9c0.1,0.3,0.1,0.7,0.1,1c0,0.7-0.1,1.4-0.1,2.2c0,0.2,0.2,0.4,0.3,0.6c0.1-0.2,0.3-0.3,0.4-0.5
		c0.1-0.3,0.1-0.6,0.1-0.9c0-1,0.2-2.1-0.3-3.1c-0.1-0.3-0.2-0.7-0.3-1.1c-0.2-0.9-0.3-1.8-0.5-2.7c0.4-0.1,0.8-0.1,1.2-0.2
		c1.3,0,2.6,0,3.9,0c0.4,0,0.5,0.1,0.5,0.5c0,1.1-0.1,2.3-0.1,3.4c0,0.5-0.1,1.1,0,1.6c0,0.3,0.1,0.8,0.5,0.7c0.4,0,0.5-0.4,0.5-0.8
		c0-0.6-0.1-1.1-0.1-1.7c0-0.7,0.1-1.5,0.1-2.3c0.3,0.1,0.5,0.1,0.7,0.2c0,0.2,0,0.3,0,0.5c0.1,1.5,0.2,3,0.4,4.5
		c0,0.2,0.2,0.4,0.3,0.5c0.2-0.2,0.7-0.1,0.6-0.6c-0.1-0.6-0.2-1.1-0.2-1.7c-0.1-1-0.2-1.9-0.2-2.9c0-0.3,0.1-0.5,0.5-0.4
		c0.4,0.1,0.9,0.1,1.3,0.1c0.4,0,0.8,0,1.2,0c0,0.3-0.1,0.4-0.1,0.6c0,1,0.1,1.9,0.1,2.9c0,0.4,0.1,0.7,0.1,1.1
		c0,0.1,0.3,0.3,0.3,0.2c0.3-0.2,0.8-0.3,0.4-0.9c-0.1-0.2-0.1-0.5-0.1-0.8c0-0.8,0-1.6,0.1-2.3c0-0.3,0.2-0.5,0.4-0.8
		c0.1,0,0.1,0,0.2,0.1c0,1.8-0.2,3.6,0.3,5.5c0.5-0.2,0.8-0.4,0.7-0.9c-0.1-0.5-0.2-1-0.2-1.4c0-1.4,0.1-2.8,0.1-4.2
		c0-0.1,0.1-0.1,0.3-0.3c0.1,0.5,0.2,0.9,0.1,1.2c-0.2,1.8,0.3,3.5,0,5.3c-0.1,0.4,0.3,1,0.6,0.9c0.5-0.1,0.3-0.6,0.3-0.9
		c0-1.4-0.1-2.9-0.1-4.3c0-0.5,0.1-1.1,0.1-1.6c-0.1-1.3-0.1-1.3,1.2-1.2c0.4,0,0.5,0.2,0.5,0.5c0,1.2,0,2.4,0,3.7
		c0,0.8-0.1,1.6,0,2.4c0,0.2,0.3,0.3,0.4,0.5c0.1-0.2,0.4-0.4,0.4-0.6c0.1-0.3,0-0.5,0-0.8c0-1.1,0.1-2.2,0.1-3.3c0-0.7,0-1.5,0-2.3
		c1.6,0.1,3.2,0.1,4.7,0.2c0,0,0,0.1,0,0.1c-0.5,0-1,0.1-1.5,0.1l0,0.1c0.2,0,0.4,0,0.6,0c1,0,2,0,3,0c0.3,0,0.5,0.1,0.5,0.5
		c0,2.6-0.1,5.2-0.1,7.9c0,0.2,0.2,0.3,0.3,0.5c0.2-0.1,0.5-0.3,0.5-0.4c0-1.1,0-2.3,0-3.4c0-1.5,0-3,0-4.4c0-0.3,0-0.5,0.4-0.5
		c0.3,0,0.4,0.2,0.4,0.5c0,0.3,0,0.7,0,1c0,1.3,0,2.6,0,3.9c0,0.1,0.1,0.3,0.2,0.3c0.1,0,0.3-0.1,0.3-0.2c0.1-0.3,0.1-0.6,0.1-0.9
		c0-1.4,0-2.8,0-4.3c0-0.1,0.1-0.3,0.2-0.3c0.6-0.2,1.1-0.4,1.7-0.4c1.4-0.1,2.8-0.1,4.3-0.1c0.8,0,1.7,0,2.6,0.1
		c-0.2,3,0,5.9,0.4,8.8c0.2-0.2,0.5-0.5,0.5-0.7c-0.1-1.9-0.2-3.9-0.3-5.8c-0.1-1.4,0-2.8,0-4.2c0.6,0,1,0.1,1.4,0.1
		c0.3,0,0.4,0.2,0.4,0.4c0,0.5,0,1.1,0,1.6c0.1,0.6-0.1,0.8-0.7,0.7c-0.1,0-0.2,0-0.2,0c-0.2,0.1-0.6,0.2-0.7,0.4
		c-0.2,0.4,0.1,0.6,0.4,0.7c0.9,0.4,1.4,0.8,1.3,2c-0.2,1.9-0.1,3.8-0.1,5.6c0,0.2,0.1,0.4,0.1,0.6c0.1,0,0.2,0,0.3,0
		c0.1-0.4,0.3-0.8,0.4-1.2c0-0.4-0.1-0.8-0.1-1.2c0-1.5,0.1-3.1,0.1-4.6c0-0.3,0-0.6,0.4-0.5c0.3,0.1,0.9,0,0.9,0.5
		c0,2.2,0,4.3,0,6.5c0,0.3,0.1,0.6,0.2,0.9c0.1-0.3,0.4-0.6,0.4-0.9c0.1-2,0.1-4.1,0.1-6.1c0-0.2,0-0.4,0.1-0.6c0.1,0,0.1,0,0.2,0
		c0,0.1,0.1,0.3,0.1,0.4c0,1.6,0,3.1,0,4.7c0,0.2,0.1,0.5,0.1,0.7l0.2,0.1c0.1-0.2,0.3-0.3,0.3-0.5c0.1-0.6,0.2-1.2,0.2-1.8
		c0-0.9-0.1-1.8-0.1-2.8c0-1.1,0.1-1.1,1.2-1.3c0.1,0,0.2,0,0.4-0.1c0,0.1,0.1,0.2,0.1,0.2c0,1.7,0.1,3.5,0.1,5.2
		c0,0.3-0.1,0.6-0.1,0.8c0,0.1,0.1,0.3,0.2,0.3c0.1,0,0.3,0,0.3-0.1c0.1-0.1,0.2-0.3,0.2-0.5c0-0.6,0-1.2,0-1.8c0-1.4,0-2.7,0-4.1
		c0-0.4-0.1-0.9-0.2-1.3c-0.1-0.5-0.4-0.9-1-0.7c-0.1,0-0.3,0-0.5-0.1c-0.5-0.2-0.3-0.7-0.3-1.1c0-0.1,0.3-0.3,0.5-0.3
		c1.3,0,2.5,0.1,3.8,0.1c0.7,0,1.4,0,2,0c0.5,0,0.7,0.2,0.7,0.7c0,1.8,0.1,3.6,0.2,5.4c0,0.2,0.2,0.4,0.2,0.6
		c0.1-0.1,0.3-0.2,0.4-0.3c0.1,0,0.1-0.1,0.2-0.1c0.1,1.1,0.1,2.2,0.2,3.4c0,0.2,0.1,0.5,0.2,0.7c0.2-0.2,0.3-0.4,0.5-0.7
		c0.1-0.1,0.1-0.2,0.1-0.3c0-0.5-0.1-1.1-0.2-1.6c-0.1-1-0.1-2-0.1-3.1c0-0.4,0-0.7,0-1c0.5-0.2,0.7-0.1,0.8,0.4
		c0.1,0.8,0.2,1.5,0.2,2.3c0.1,1,0.1,1.9,0.1,2.9c0,0.2,0.3,0.3,0.4,0.5c0.1-0.2,0.3-0.3,0.4-0.5c0-0.1,0-0.1,0-0.2
		c-0.1-1.6-0.2-3.2-0.3-4.8c0-0.5,0.1-0.7,0.6-0.7c1.3-0.1,2.5,0.1,3.8,0.3c0.3,0.1,0.4,0.3,0.4,0.6c0.1,1.3,0.2,2.7,0.2,4
		c0,0.3,0,0.7,0.4,0.6c0.1,0,0.3-0.4,0.3-0.6c0-0.1,0-0.3,0-0.4c-0.1-0.9-0.1-1.8-0.2-2.8c-0.1-1.5-0.1-3-0.1-4.4
		c0-0.1,0.2-0.4,0.3-0.4c0.5-0.1,1.1,0,1.6-0.1c1.5-0.1,3.1-0.1,4.6-0.2c0.3,0,0.8,0,0.6-0.6c0,0,0.2-0.2,0.4-0.3
		c0,0.3,0.1,0.5,0.1,0.7c0.1,1.9,0.2,3.8,0.3,5.6c0.1,1,0.1,2,0.3,2.9c0,0.2,0.2,0.4,0.4,0.5c0.2-0.2,0.3-0.4,0.4-0.6
		c0.1-0.1,0-0.3,0-0.4c-0.1-0.9-0.2-1.7-0.3-2.6c0-0.6,0-1.2,0-1.8c0.2,0.2,0.2,0.4,0.3,0.7c0.1,1.4,0.2,2.9,0.3,4.3
		c0,0.2,0.2,0.4,0.3,0.6c0.1-0.2,0.3-0.4,0.4-0.6c0-0.1,0-0.2,0-0.3c-0.1-0.5-0.1-1.1-0.2-1.6c-0.2-0.9-0.1-1.9,0.1-2.8
		c0.1,0.1,0.2,0.3,0.2,0.5c0,1.5,0.1,3.1,0.1,4.6c0,0.1,0,0.2,0,0.3c0.1,0.1,0.2,0.3,0.3,0.3c0.1,0,0.3-0.1,0.4-0.3
		c0.1-0.1,0.1-0.4,0.1-0.5c0-1.4-0.1-2.7-0.1-4.1c0-1.1,0-1.1,1.1-1.2c0.5-0.1,0.7,0.1,0.7,0.6c-0.1,1.5-0.1,3-0.2,4.4
		c0,0.3-0.1,0.7,0.3,0.7c0.3,0,0.5-0.4,0.4-0.7c0-0.1,0-0.2,0-0.3c0-1.5,0.1-3,0.1-4.5c0-0.1,0.1-0.2,0.2-0.3
		c0.1,0.1,0.2,0.2,0.2,0.3c0,1.5-0.1,3.1-0.1,4.6c0,0.2,0.1,0.4,0.2,0.6c0,0,0.3,0,0.3,0c0.1-0.2,0.2-0.4,0.2-0.6
		c0-0.5-0.1-0.9-0.1-1.4c0.1-1.3-0.2-2.6,0.5-3.8c0.1-0.1,0.1-0.4,0-0.5c-0.5-0.6-0.6-1.6-1.7-1.6c-0.1,0-0.1,0-0.1,0
		c0-0.3-0.1-0.6-0.1-0.9c0.4-0.1,0.7-0.1,0.9,0.4c0.1,0.2,0.4,0.4,0.6,0.6c0.1-0.2,0.2-0.5,0.3-0.7c0,0,0-0.1,0.1-0.1
		c1.1,0.1,2.2,0.2,3.3,0.3c-0.1,0.1-0.3,0.1-0.4,0.2c-0.3,0.1-0.7,0.1-0.8,0.3c-0.2,0.4-0.4,0.9-0.4,1.3c0.2,2,0.4,3.9,0.6,5.9
		c0,0.2,0.1,0.4,0.2,0.4c0.1,0,0.3-0.1,0.4-0.1c0.2,0.1,0.3,0.2,0.5,0.4c0.1-0.2,0.3-0.5,0.4-0.7c0,0,0-0.1,0-0.2
		c-0.1-1.2-0.3-2.4-0.3-3.6c-0.1-1.4,0-1.4,1.4-1.4c0.7,0,0.7,0.1,0.7,0.8c0,1.7,0.1,3.4,0.1,5c0,0.2,0.2,0.4,0.4,0.6
		c0.2-0.2,0.4-0.4,0.4-0.6c0-0.9-0.1-1.7-0.1-2.6c0-1,0-2,0-3c0.4-0.1,0.7,0,0.7,0.5c0,0.5,0.1,1,0.1,1.6c0,0.9,0,1.7,0,2.6
		c0,0.3-0.1,0.8,0.4,0.8c0.1,0,0.4-0.5,0.4-0.8c0-1.4-0.1-2.8-0.1-4.3c0-0.1,0-0.2,0-0.3c0.4-0.7,0.3-1.3,0.2-2.1
		c0-0.1,0.2-0.4,0.3-0.5c0.5-0.1,1-0.1,1.4-0.1c0.1,0,0.2,0.1,0.2,0.1c0.3,0.4,0.5,0.4,0.8,0c0.1-0.1,0.3-0.3,0.5-0.3
		c0.8,0,1.6,0.1,2.4,0.2c0.1,0.7,0.1,0.7,0.7,0.3c0.1-0.1,0.2-0.1,0.2-0.1c0.1,0.2,0.2,0.5,0.3,0.7c0.2-0.1,0.5-0.2,0.5-0.4
		c0.1-0.6,0.5-0.5,0.8-0.4c0.2,0,0.4,0,0.7,0c0.6,0,1.3,0,1.9,0c0.5,0,1,0.1,1.5,0.1c0.4-0.1,0.7-0.4,1.1-0.5
		c1.3-0.5,2.6-0.3,3.8,0.1c0.6,0.2,1.2,0.3,1.8,0.4c0.6,0.2,1.4,0.1,1.6-0.6c0.2-0.4,0.1-1,0.1-1.5c0-1.8,0-3.5,0-5.3
		c0-0.9,0-1.9,0-2.8c0-1.8,0-3.5,0-5.3c0-1.4,0.2-2.7,0.2-4.1c0.1-1.9,0.1-3.7,0.1-5.6c0.1-2,0.1-4,0.2-6c0-1.1,0-2.3,0-3.4
		c0-1.9,0-3.8,0-5.8c0-0.5-0.1-1.1,0.1-1.5C157.6,48.3,157.6,47.8,157,47.2z M79.4,30.4L79.4,30.4l0.1,2.4l-0.1,0V30.4z M46.8,24.8
		c-0.6-0.3-1.2-0.6-1.9-0.9c0.3-0.4,0.6-0.7,0.8-0.9C46.6,23.2,46.9,23.8,46.8,24.8z M46.6,41.3c-0.1,0.5-0.1,1.1-0.2,1.6
		c-0.1,0.5-0.4,0.9-0.7,1.4c-0.1,0.1-0.2,0.3-0.4,0.5c-0.7-1.4-1.8-2.4-2.4-3.7c0-0.1,0.1-0.1,0.1-0.2c1.1,0.1,2.3,0.1,3.4,0.2
		C46.4,41.1,46.6,41.3,46.6,41.3z M46.4,40.2C46.4,40.2,46.4,40.3,46.4,40.2l-3.5,0.1c0-0.1,0-0.3-0.1-0.5
		C44,40,45.2,40.1,46.4,40.2z M61.2,29.3c-0.3,0.2-0.3,0.5-0.2,0.8c0,0.2-0.1,0.5-0.2,0.6c-0.3,0.2-0.6,0.5-1,0.3
		c-0.5-0.3-1.1-0.4-1.6-0.7c-0.4-0.3-0.7-0.6-1-1c-0.6-0.9-0.7-0.9-1.6-0.4c-0.1,0.1-0.3,0.1-0.5,0c-0.6-0.3-1.2-0.6-1.1-1.4
		c0-0.4-0.3-0.8-0.5-1.2c-0.7-1.3-2.2-1.5-3.3-0.4c-0.6,0.6-0.8,1.4-0.8,2.2c0,0.7,0.5,0.8,1,0.5c-0.5-0.5-0.4-1.3,0-2
		c0.4-0.5,1.4-0.8,1.9-0.5c0.7,0.3,1.2,2.2,0.8,2.8c-0.4,0.5-0.3,0.8,0.1,1.1c0.4,0.3,0.6,0.2,0.8-0.2c0.2-0.4,0.4-0.4,0.7-0.1
		c0.2,0.2,0.4,0.5,0.6,0.6c0.1,0.1,0.4,0.1,0.5,0.1c0.1,0,0.1-0.3,0.1-0.5c0-0.1,0-0.3,0.1-0.4c0.2,0,0.4,0.1,0.5,0.1c0,0,0,0,0,0
		c0.9,1.4,1,1.4-0.7,1.9c-1.4,0.4-2.9,0.4-4.2-0.5c-0.3-0.2-0.8-0.1-1.1,0c-1.4,0.4-2.8,0.8-4.2,1.2c-0.3-0.6,0-1.2,0.3-1.8
		c1.1-2,1.3-4,0.8-6.2c0-0.1-0.1-0.3-0.1-0.4c0-0.1,0.1-0.3,0.2-0.4c0.1-0.1,0.3-0.1,0.4,0c0.2,0.1,0.3,0.2,0.5,0.4
		c0.4,0.4,0.9,0.6,1.4,0.1c0.1-0.1,0.5-0.1,0.7-0.1c1,0.2,2,0.6,3,0c0,0,0.1-0.1,0.2-0.1c0.6,0.2,1.2,0.3,1.7,0.5
		c1.2,0.5,2.4,1.1,3.8,0.9c0.1,0,0.3,0,0.4,0.1c0.4,0.1,0.8,0.2,1.4,0.3c0.2,0.6,0.3,1.3,0.2,1.9c-0.5,0-0.9,0-1.3-0.1
		c-0.2-0.1-0.4-0.2-0.6-0.4c-0.3-0.3-0.7-0.8-1.1-0.5c-0.4,0.2-0.7,0.7-0.9,1.2c-0.1,0.1,0.1,0.3,0.2,0.5c0.2-0.1,0.4-0.2,0.5-0.3
		c0.4-0.7,0.7-0.8,1.2-0.1c0.1,0.2,0.2,0.4,0.4,0.5c0.1,0.1,0.4,0.1,0.5,0c0.3-0.2,0.5-0.1,0.7,0.1c0.2,0.3,0.5,0.5,0.8,0.8
		C61.4,29,61.3,29.2,61.2,29.3z M76.4,36.1c-0.3-0.2-0.6-0.3-0.8-0.6c-0.4-0.4-0.8-0.5-1.3-0.4c-0.1,0-0.3,0.2-0.4,0.2
		c-0.2,0.1-0.4,0.3-0.6,0.3c-0.1,0-0.3-0.2-0.3-0.2c0.1-0.2,0.1-0.4,0.3-0.6c0.1-0.1,0.3-0.2,0.5-0.3c-0.1-0.3-0.2-0.7-0.4-1.1
		c0.3,0,0.5,0.1,0.8,0c0.3,0,0.5-0.1,0.7-0.2c-0.1-0.2-0.3-0.3-0.3-0.5c-0.1-0.2-0.1-0.5,0-0.7c0-0.1,0.4-0.1,0.6-0.1
		c0.4,0.3,0.8,0.7,1.2,1.1c0.1,0.1,0.1,0.3,0,0.5c0,0.2-0.2,0.3-0.3,0.4c-0.2,0.4,0,0.7,0.4,0.6c0.5-0.2,0.7,0.1,1,0.4
		c-0.2,0-0.4,0-0.5,0.1c-0.5,0.1-0.6,0.3-0.4,0.7c0,0.1,0,0.2,0.1,0.3C76.6,36.1,76.5,36.2,76.4,36.1z M78.8,37H77
		c0.3-0.5,0.5-0.9,0.8-1.5c-0.1,0.8,0.5,1.1,1,1.3C78.8,36.9,78.8,36.9,78.8,37z M78.4,18.9c0,0,0.1,0,0.1,0c0,0.5-0.2,1.2,0.6,1.2
		c-0.3,0-0.6,0.1-1,0.1C78.3,19.7,78.4,19.3,78.4,18.9z M76.6,30.2c-0.1-2.1-0.1-4.2-0.2-6.3C77.1,25.7,77.2,29.6,76.6,30.2z
		 M73.6,21c0,0,0,0.1,0,0.1c-0.5,0-1,0.1-1.5,0.1c0-0.1,0-0.1,0-0.2C72.6,21.1,73.1,21.1,73.6,21z M72.9,23.6c0.1,0,0.3,0.1,0.4,0.1
		c0.4-0.1,0.8-0.2,1.2-0.2c0.4,0,0.8,0.2,1.2,0.3c0,0.9,0,0.9-0.8,1c-1.2,0.1-2.4,0.2-3.5,0.3c-0.3,0-0.4-0.1-0.4-0.3
		c-0.1-0.4-0.3-0.8-0.5-1.2C71.2,23.2,72,23.3,72.9,23.6z M70.1,25.1h-1.4c0.1-0.4,0.3-0.6,0.7-0.7C69.8,24.5,70.1,24.6,70.1,25.1z
		 M62.4,28.4c-0.2,0-0.3-0.2-0.4-0.4c-0.1-0.8-0.2-1.7-0.3-2.5c-0.1-0.7,0-0.6,0.6-0.7c0.4,0,0.8-0.2,1.3-0.4
		c-0.2,0.5-0.3,0.8-0.4,1.1c0,0,0.1,0,0.1,0c0.1,0.2,0.3,0.5,0.3,0.7c0.1,0.9,0.1,1.7,0.2,2.5C63.5,28.6,62.9,28.5,62.4,28.4z
		 M62,23.6c0.3-0.3,0.6-0.5,0.9-0.7c0.2-0.1,0.5-0.2,0.8-0.1c0.3,0.1,0.3,0.4,0.1,0.7C63.5,23.8,62.4,23.9,62,23.6z M62.3,20.8
		c0.6-0.4,3.2-0.2,3.8,0.3C64.8,21,63.6,21,62.3,20.8z M65.1,24.8c0-0.1,0-0.2,0.1-0.3c0.2-0.2,0.4-0.5,0.6-0.7
		c0.1-0.1,0.3-0.1,0.5-0.1c0.5,0.1,0.9,0.1,1.3-0.3c0.5-0.5,1,0,1.6,0.1c-0.5,0.5-1,0.9-1.4,1.4c-0.1,0.1-0.3,0.2-0.5,0.2
		c-0.6,0-1.3-0.1-1.9-0.1C65.2,24.9,65.1,24.9,65.1,24.8z M65.5,28.8c-0.1-1-0.2-1.9-0.3-3c1,0,1.8,0,2.7,0c1.6,0,3.3,0,4.9-0.1
		c0.8,0,1.7-0.1,2.5-0.2c0.3,0,0.6,0,0.6,0.4c0,1.1,0,2.2,0,3.3c-1,0-2,0-3,0c-1.7,0-3.4,0-5.1,0c-0.6,0-1.1,0-1.7,0
		C65.7,29.3,65.5,29.2,65.5,28.8z M66,30.1c3.2-0.4,6.3,0,9.4,0C74.5,30.7,66.8,30.7,66,30.1z M72.6,32.6c-0.5-0.9-1.4-0.8-2.2-1
		c-0.4-0.1-0.7,0.2-0.9,0.6c-0.2,0.3-0.4,0.7-0.6,1.1c-0.8-0.5-1.4-1.1-1.4-2c0.8,0,1.8,0,2.8,0c1.5,0,3-0.1,4.5-0.2
		c0.4,0,0.9,0,1.3,0c0.8,0.1,1.4-0.4,1.4-1.2c0-1.7-0.1-3.3-0.2-5c0-0.2-0.1-0.3-0.1-0.5c0-0.1,0-0.3,0-0.4c1-0.1,1.2,0.1,1.2,1
		c0,2,0,4,0.1,5.9c0,0.7,0,1.4-0.1,2c-0.1,0.4-0.3,0.8-0.6,1.3c-0.2-0.3-0.4-0.4-0.4-0.6c0-0.7-0.5-1.2-1-1.6
		c-0.3-0.2-0.5-0.4-0.8-0.6c-0.9-0.7-1.6-0.4-1.9,0.7c0,0.1-0.1,0.2-0.1,0.3c-0.3,0.1-0.6,0.1-1,0.2C72.8,32.8,72.7,32.7,72.6,32.6z
		 M64.5,36.8c1.1,0,2.3,0.1,3.4,0.1c0.7,0,1.4,0.1,2.2,0.1c0.2,0,0.3-0.1,0.5-0.2c0.4-0.2,0.7-0.4,1.1-0.6c0.4-0.2,0.7-0.2,1.1-0.1
		c0.3,0.1,0.8,0.1,1.1-0.1c0.6-0.4,0.9-0.1,1.3,0.2c0.4,0.3,0.8,0.6,1.2,0.8c-4.1,0.3-8.4,0.2-12.6,0c0-0.1,0-0.1,0-0.2
		C63.9,36.9,64.2,36.8,64.5,36.8z M145.9,14.7c0-0.1,0-0.1,0-0.2c3.1-0.1,6.3-0.1,9.5-0.2c0,0.6,0,1.1,0,1.7c0,1.6,0,3.1,0.1,4.7
		c0,0.6,0,0.7-0.7,0.7c-2,0-3.9,0.1-5.9,0.1c-0.8,0-1.5,0.1-2.2,0.2c0.1-0.4,0.2-0.7,0.2-1.1c0-1.4,0-2.8,0-4.3
		c0-0.7,0.1-0.8,0.8-0.8c1.7,0.1,3.4,0.2,5.1,0.3c0.6,0,1.3,0,1.9,0c0.1,0,0.3-0.2,0.4-0.3c-0.1-0.1-0.3-0.3-0.4-0.4
		c-0.2-0.1-0.5,0-0.8,0c-0.7,0-1.4,0-2.1,0c-1.7-0.1-3.5-0.2-5.2-0.3C146.4,14.9,146.1,14.8,145.9,14.7z M154.9,31.5
		c0.4,0,0.5,0.2,0.5,0.5c0,1,0,2.1,0,3.1c0,0.8,0,1.7,0.1,2.5c0,0.3,0,0.6-0.5,0.6c-1,0-2.1,0-3.1,0c-1.2,0-2.4,0-3.5-0.1
		c-0.4,0-0.6-0.2-0.7-0.6c-0.1-1.8-0.2-3.7-0.3-5.5c0-0.7,0-0.7,0.7-0.7c0.1,0,0.3,0,0.4,0c0.1,0,0.3,0,0.4,0v0.1
		C150.9,31.5,152.9,31.5,154.9,31.5z M155.4,29.3c-2.3,0.1-4.6,0.3-6.8,0.4c-1.1,0.1-1.4-0.2-1.5-1.5c-0.1-1.5-0.1-3.1-0.2-4.7
		c0-0.4,0.1-0.5,0.5-0.5c1.5,0,3,0.1,4.5,0.1c0.7,0,1.4,0.1,2.2,0.1c0.4,0,0.8,0.1,1.1,0.2c0.1,0,0.2,0.3,0.2,0.5c0,1.4,0,2.9,0,4.3
		C155.4,28.7,155.4,29.1,155.4,29.3z M155.4,23c-1.4-0.5-2.9-0.3-4.3-0.3c-1.2,0-2.5,0-3.7,0c0-0.1,0-0.2,0-0.2
		c0.8-0.1,1.6-0.3,2.5-0.3c1.6-0.1,3.2-0.1,4.9-0.1C155.5,21.9,155.6,22.1,155.4,23z M146.8,30.7c0-0.1,0-0.1,0-0.2
		c0.2,0,0.3-0.1,0.5-0.1c1.9-0.1,3.7-0.3,5.6-0.4c0.7,0,1.4,0,2.1,0.1c0.4,0,0.4,0.1,0.4,0.6H146.8z M59.5,40.4
		c0.8,0.1,1.6,0.3,2.3-0.3c0.2-0.1,0.5,0,0.8-0.1c1.5-0.1,2.9-0.2,4.4-0.2c1.2-0.1,2.5-0.2,3.7-0.2c2.3,0,4.5,0,6.8,0
		c1.4,0,2.7-0.1,4.1-0.1c0.8,0,1.7,0.1,2.5,0.1c1.7,0,3.4-0.1,5.1-0.1c1.5,0,3,0.1,4.5,0.1c0.6,0,1.1-0.1,1.7-0.1
		c1.6,0,3.1-0.1,4.7-0.1c0.2,0,0.4,0,0.6,0c0,0.1,0,0.1,0,0.2c-1.7,0-3.4,0-5.1,0c-2,0-4,0-6,0.1c-1.9,0.1-3.9,0.2-5.8,0.3
		c-2.7,0.1-5.5,0.3-8.2,0.3c-2.3,0.1-4.5,0.1-6.8,0.1c-2.1,0-4.3,0.1-6.4,0.2c-0.9,0-1.9,0-2.8,0c-0.1,0-0.3-0.1-0.4-0.2
		C59.3,40.5,59.4,40.4,59.5,40.4z M47.9,44.6c0.2-0.6,0.5-1.3,1.3-1.3c0.5,0,0.8-0.4,1-0.9c0.6-1.3,1.8-1.7,3-1.9
		c1.4-0.3,2.8-0.4,4.2-0.6c-0.1,0.1-0.2,0.1-0.2,0.2c0,0.1-0.1,0.3,0,0.4c0.1,0.1,0.3,0.1,0.4,0.1c0.2,0,0.3-0.2,0.5-0.2
		c0.1,0,0.2,0,0.3,0.1c-0.1,0.1-0.1,0.2-0.2,0.3c-0.1,0.1-0.3,0-0.3,0.1c-0.1,0.2-0.2,0.5-0.4,0.7c0.2,0.1,0.4,0.2,0.6,0.3
		c0.2,0,0.4,0,0.7,0c0.3,0.1,0.6,0.1,0.5,0.6c0,0.1,0.2,0.3,0.4,0.4c0.3,0.1,0.6,0.1,0.9,0.2c-0.3,0.4-0.8,0.6-0.4,1.1
		c-0.2-0.1-0.3-0.2-0.4-0.3c-0.6-0.5-0.7-0.4-1.3,0.1c-0.3,0.3-0.7,0.5-1,0.6c-0.1,0.1-0.3,0-0.5,0c0-0.2,0-0.3,0.1-0.5
		c0.2-0.6,0.1-0.9-0.3-1c-0.2,0-0.5,0.2-0.5,0.3c0,0.5-0.3,0.5-0.6,0.4c-0.3-0.1-0.6-0.2-1-0.3c-0.4-0.1-0.9-0.2-0.8-0.8
		c0-0.1-0.1-0.3-0.2-0.3c-0.1,0-0.3,0.1-0.4,0.2c-0.6,0.7-1,0.7-1.8,0.4c-0.2-0.1-0.6,0-0.6,0.2c-0.2,0.3-0.5,0.5-0.8,0.5
		c-0.3,0-0.5,0.1-0.7,0.2c-0.1,0.1-0.2,0.2-0.4,0.5c0.7,0,1.2,0.1,1.7,0c0.3,0,0.6-0.3,0.9-0.4c0.5,0,1.1-0.1,1.7-0.1
		c0.3,0,0.6,0,0.8,0.1c0.5,0.2,1,0.3,1.5,0.6c0.4,0.2,0.7,0.4,1,0.6c0.3,0.1,0.6,0.3,0.9,0.2c0.7-0.1,1.3-0.4,1.6-1
		c0.3,0.2,0.6,0.4,0.9,0.6c0.5,0.3,0.8-0.1,1.1-0.3c0.3-0.2,0.4-0.4,0.1-0.7c-0.1-0.1,0.1-0.3,0.1-0.4c0.2-0.4,0.2-0.6-0.2-0.8
		c-0.3-0.1-0.5-0.3-0.7-0.5c-0.1-0.1-0.2-0.3-0.2-0.4c0.1,0,0.3-0.1,0.4-0.1c2.4-0.1,4.8-0.1,7.3-0.2c1.7-0.1,3.4-0.2,5.1-0.2
		c1.2,0,2.4,0.1,3.6,0c3.1-0.1,6.2-0.3,9.2-0.4c1.7-0.1,3.4-0.1,5.2-0.1c1.6,0,3.2-0.1,4.8-0.1c1.8,0,3.5,0,5.3-0.1
		c1.2,0,2.4-0.1,3.7-0.1c1.2,0,2.5-0.1,3.7-0.1c2.8,0,5.7,0,8.5,0c3.7,0,7.4-0.1,11-0.1c2.3,0,4.7,0,7,0c1.7,0,3.4-0.1,5.1-0.1
		c2,0,3.9,0.1,5.9,0.2c1.5,0.1,3,0.3,4.5,0.3c1,0,1.9-0.1,2.9-0.2c0.7,0,1.4,0,2.1,0c0.3,0,0.5,0.1,0.5,0.5c0,1.1,0,2.2,0.1,3.3
		c0,1,0,1.9,0,2.9c0,0.3-0.1,0.4-0.4,0.4c-2.2,0.1-4.4,0.2-6.6,0.3c-1.3,0-2.7,0-4,0c-1.7,0-3.4,0.2-5.1,0.2
		c-2.4,0.1-4.8,0.1-7.2,0.1c-2.8,0.1-5.6,0.2-8.4,0.2c-1.6,0-3.3,0-4.9,0c-2.9,0-5.7,0-8.6,0.1c-2,0-4.1,0-6.1,0.1
		c-2.6,0.1-5.2,0.2-7.8,0.4c-2.5,0.2-4.9,0.4-7.4,0.6c-3.7,0.2-7.4,0.4-11.1,0.5C75.2,50,72,50,68.8,50c-3.8,0-7.7-0.2-11.5-0.2
		c-2.8,0-5.5,0-8.3,0c-0.2,0-0.4,0-0.6,0c-1,0-1,0-1-0.9C47.4,47.3,47.5,46,47.9,44.6z M110.7,57.8c-0.4-0.1-0.8,0-1.2,0
		c-0.1,0-0.2,0.4-0.1,0.5c0.1,0.1,0.3,0.2,0.5,0.3c0.1,0.1,0.4,0.2,0.4,0.3c-0.1,0.3,0.2,0.7-0.3,0.9c-0.1,0-0.1,0-0.2,0
		c-1.1,0-2.1,0-3.2,0c-0.3,0-0.5-0.2-0.5-0.5c0-0.8-0.2-1.5-0.2-2.3c-0.1-1.7-0.1-3.4-0.2-5c0-0.4-0.1-0.8-0.1-1.1
		c0-0.2,0.2-0.5,0.3-0.5c1.3,0,2.5,0,3.8,0c0,0.2,0.1,0.3,0.1,0.5c0.1,0.5,0.4,0.7,0.9,0.6c1.1-0.4,2.3-0.2,3.4-0.1
		c0.7,0,0.8,0,0.9-0.7c0-0.1,0-0.2,0-0.3c0.7,0,1.4-0.1,2.1-0.1c0.1,0,0.3,0.2,0.3,0.3c0.1,1.3,0.1,2.6,0.2,3.9c0,1.3,0,2.7,0,4
		c0,0.2,0,0.4,0,0.6c0,0.4-0.1,0.6-0.7,0.7c-1.6,0.3-3.2,0-4.8,0c-0.4,0-0.8-0.1-1.2-0.1c0-0.4,0.1-0.8,0.1-1.1
		C111.1,58.2,111,57.9,110.7,57.8z M112.4,49.5c-2.5,0-5.1,0.1-7.6,0.2c-1.7,0-3.4,0.1-5.2,0.1c-1.7,0.1-3.5,0.1-5.2,0.2
		c-2,0.1-4,0.2-6,0.2c-0.4,0-0.7,0-1.1,0c0,0,0-0.1,0-0.1c0.4,0,0.9-0.1,1.3-0.1c1.5-0.1,3.1-0.2,4.6-0.3c1.7-0.1,3.5-0.2,5.2-0.3
		c2.6-0.1,5.1-0.2,7.7-0.3c1.1,0,2.3,0,3.4-0.1c2.3,0,4.5-0.1,6.8-0.1c2.6,0,5.2,0.1,7.8,0.1c2.2,0,4.5-0.1,6.7-0.2
		c2.5-0.1,5-0.1,7.4-0.2c1.4,0,2.8,0,4.2,0c1.4,0,2.8-0.3,4.1-0.3c1.6,0,3.3,0.1,4.9,0.1c0.7,0,1.4-0.1,2.1-0.1c0,0.1,0,0.1,0,0.2
		c-2.2,0.2-4.5,0.4-6.7,0.5c-3.1,0.1-6.2,0-9.2,0c-2,0-4,0-6,0c-1.9,0.1-3.8,0.2-5.6,0.3c-1.3,0-2.7,0-4,0c-1.2,0-2.4,0.1-3.6,0.1
		C116.5,49.5,114.4,49.5,112.4,49.5z M96.6,56.1c0.5,0.3,0.5,0.9,0.3,1.5c-0.1-0.1-0.2-0.2-0.2-0.3c-0.5-0.8-1-1.7-1.7-2.3
		c-1.3-1.1-2.9-1.7-4.7-1.6c-1.7,0.1-3.1,0.9-4.4,2c-0.4,0.4-0.8,0.9-1.1,1.3c-0.9-0.6-1.6-1.1-2.4-1.6c-1.1-0.7-2.4-1-3.6-0.8
		c-1.1,0.1-2.1,0.5-2.9,1.2c-1.8,1.6-2.5,3.6-2.2,6c0.1,0.6,0.2,1.2,0.2,1.7c0,0.1,0,0.2-0.1,0.3c-1,0.9-1.4,1.8-1.5,3.3
		c0-0.4-0.1-0.8-0.1-1.2c0-0.2,0.1-0.4,0.3-0.6c0.3-0.5,0.7-0.9,0.9-1.4c0.1-0.3,0-0.7-0.1-1c0-0.1-0.1-0.2-0.1-0.3
		c0.2-0.5,0-0.9-0.2-1.4c-0.2-0.3-0.2-0.5,0.1-0.8c0.3-0.4,0.5-0.8,0.2-1.3c-0.1-0.2,0-0.5,0.2-0.6c0.5-0.5,0.8-0.9,0.5-1.6
		c0-0.1,0.2-0.4,0.3-0.5c0.7-0.2,1.1-0.6,1.2-1.3c0-0.1,0.4-0.3,0.6-0.2c0.6,0.2,1.1,0,1.5-0.5c0.1-0.1,0.3-0.2,0.5-0.2
		c1.1,0,1.2,0,1.5-1.1c0.3,0.1,0.6,0.4,0.9,0.4c0.3,0,0.6-0.2,0.9-0.4c0.2,0.2,0.4,0.4,0.6,0.6c0.1,0.1,0.2,0.1,0.3,0.1
		c0.4-0.3,0.6,0,0.7,0.3c0.2,0.3,0.3,0.4,0.7,0.3c0.3-0.1,0.7-0.2,0.8,0.3c0,0.1,0.2,0.2,0.3,0.2c0.7,0.2,1.6-0.2,2.1-0.7
		c0.1-0.2,0.4-0.4,0.6-0.5c1.2-0.3,1.2-0.3,2.1-0.9C90,53,90.2,53,91,52.7c0.5-0.2,0.9-0.4,1.3,0.2c0.3,0.4,0.9,0.4,1.4,0.3
		c0.4-0.1,0.6,0,0.7,0.4c0.1,0.3,0.3,0.5,0.7,0.5c0.2,0,0.5,0.1,0.7,0.2c0,0.1,0.1,0.1,0.1,0.2C95.7,55.1,96,55.7,96.6,56.1z
		 M97.2,60.3c0.9,0.7,0.5,1.4,0.1,2C96.8,61.7,97.5,61,97.2,60.3z M97.2,58.4c0.6,0.5,0.7,0.9,0.2,1.6
		C97.3,59.4,97.2,58.9,97.2,58.4z M97.6,62.8c0.8,0.6,0.1,3-1.2,3.8C97.3,65.4,97.6,64.2,97.6,62.8z M90.8,66.8
		c-1.3,0.4-2.6,0.8-3.8,1.4c-1.8,0.9-3.6,1.4-5.5,1.9c-2.1,0.6-4.2,0.3-6.1-0.7c-0.7-0.4-1.4-0.8-1.8-1.5c-0.4-0.8-0.3-2.3,0.3-3.1
		c0.3,0.5,1.1,0.5,1.1,1.3c1.1,0.7,0.3,1.8,0.7,2.7c0.1,0.2,0.2,0.4,0.3,0.6c0.2-0.2,0.4-0.4,0.5-0.6c0.1-0.3,0-0.6,0.1-0.8
		c0.4-0.3,0.9-0.5,1.1-0.9c0.2-0.5-0.1-1.1-0.7-1.4c0.3,0,0.6-0.1,0.8-0.1c1.1,0,2.1-0.3,3.1-0.8c1.1-0.5,2.3-0.9,3.4-1.4
		c1.3-0.5,2.7-0.9,4-1.4c1.8-0.7,3.7-1.2,5.6-1.3c0.5,0,1,0.3,1.4,0.5c-0.6,0.1-1.2,0.2-1.7,0.2c-0.1,0-0.1,0-0.2,0
		c-0.5-0.2-0.7-0.1-0.8,0.5c-0.1,0.5-0.3,1.1-0.4,1.6c-0.1,0-0.1,0-0.2,0c-0.1-0.4-0.2-0.8-0.2-1.1c-0.1-0.6-0.3-0.6-0.8-0.4
		c-0.5,0.2-0.9,0.4-0.7,1.1c0.2,0,0.5-0.1,0.8-0.1c0.1,0.2,0.1,0.4,0.2,0.7c0.1,0.4,0.3,0.8,0.4,1.1c0.2,0.4,0.6,0.4,0.8,0
		c0.2-0.6,0.4-1.2,0.6-1.9c0.1-0.2,0.2-0.3,0.2-0.5c0.1,0.2,0.3,0.4,0.3,0.5c0,0.5,0,1-0.2,1.5c-0.2,0.5,0.1,0.7,0.5,0.7
		c0.7,0,1.5,0,2.2,0c-0.3,0.7-0.8,1.3-1.5,1.8c-0.1,0.1-0.3,0.1-0.4,0C93.2,66.2,92,66.5,90.8,66.8z M93.4,67.9
		c-1.1,1.7-2.2,3.4-3.3,5c-0.6,0.9-1.1,1.7-1.8,2.6c-0.7,0.9-1.5,1.8-2.2,2.7c-0.2,0.3-0.4,0.7-0.6,1c-2.5-2.4-4.5-5.1-6.6-7.9
		c0.1-0.1,0.2-0.1,0.3-0.1c1.7-0.4,3.4-0.7,5.1-1.2c1.7-0.5,3.4-1.3,5.1-2c1.2-0.5,2.4-0.8,3.7-0.8C93.6,67.4,93.7,67.5,93.4,67.9z
		 M75.8,70.6c-0.9,0.2-2.6-0.3-3.2-1c-0.5-0.6-0.5-0.6-0.3-2.1C72.9,69.2,74.3,70,75.8,70.6z M74.8,58.5c0.9-2.5,3.7-4.1,6.4-3
		c1.2,0.4,2.2,1.1,3,2.2c0.3,0.4,0.5,0.3,0.8,0c1.2-1.5,2.7-2.7,4.6-3.1c1.4-0.3,2.9,0,4.1,0.9c1.6,1,2.3,2.6,2.7,4.4
		c0.1,0.3,0,0.6,0,0.9c-0.7-0.3-1.2-0.6-1.8-0.7c-1,0-2,0.1-3,0.2c-1.8,0.2-3.5,1.1-5.2,1.7c-1.7,0.5-3.4,1.1-5,1.7
		c-0.5,0.2-1,0.4-1.6,0.7c-1.2,0.5-2.4,0.5-3.7,0.5c-0.6,0-1-0.1-1.3-0.8C74.3,62.1,74.1,60.3,74.8,58.5z M95.4,64.1
		c-0.4,0.3-0.7,0.1-1.1,0c0.1-0.1,0.1-0.1,0.1-0.2c0.2-0.2,0.4-0.3,0.7-0.5c-0.2-0.1-0.5-0.2-0.6-0.4c-0.2-0.3-0.2-0.6-0.3-1
		c0.4,0.1,0.6,0.1,0.8,0.1c0.2,0,0.4,0.1,0.6,0.2c0.9,0.2,1,0.4,0.9,1.2C96.1,63.8,95.7,63.9,95.4,64.1z M72.1,63.6v-2.5
		c0.1,0,0.1,0,0.2,0c0,0.3,0.1,0.6,0.1,0.9c0,0.3,0.1,0.7,0,1c0,0.2-0.1,0.5-0.1,0.7C72.3,63.6,72.2,63.6,72.1,63.6z M80.9,51.5
		c0.1-0.1,0.2-0.2,0.3-0.2c1,0,2-0.1,3-0.1c0.3,0,0.4,0.2,0.3,0.4c0,0.4,0,0.9-0.1,1.4c-0.6,0-1.1,0.1-1.5-0.5c0,0-0.1-0.1-0.1-0.1
		c-0.6-0.2-1.1-0.4-1.7-0.6C81.1,51.7,81,51.6,80.9,51.5z M47.6,54.9c-0.1-1.1-0.1-2.1-0.2-3.2c0-0.1,0.2-0.3,0.4-0.3
		c2.4-0.2,4.9-0.5,7.3-0.4c1.5,0,3.1,0,4.6,0c1.9,0,3.9,0.1,5.8,0.1c1.7,0,3.5,0,5.2,0c0,0.1-0.1,0.1-0.1,0.2
		c0.2,0.3,0.5,0.6,0.8,0.8c0.6,0.5,1.2,1,1.8,1.4c0.2,0.1,0.7,0.2,0.8,0.1c0.2-0.3,0.2-0.6-0.2-0.9c-0.5-0.3-1-0.7-1.4-1
		c-0.2-0.1-0.3-0.2-0.5-0.3c0-0.1,0.1-0.1,0.1-0.2c0.9,0,1.8,0,2.7,0c0.2,0,0.3,0.3,0.5,0.5c0.3,0.2,0.6,0.4,0.9,0.5
		c0.1,0.1,0.4,0,0.4-0.1c0.1-0.1,0-0.3,0-0.4c-0.1-0.1-0.2-0.3-0.3-0.5c0.9,0,1.8,0,2.6,0c0.1,0,0.3,0,0.4,0c0.9,0,0.9,0,1.2,0.9
		c-0.3-0.1-0.5-0.1-0.7-0.2c-0.5-0.2-1,0-1.1,0.6c-0.1,0.3-0.2,0.4-0.5,0.4c-0.6,0-1.1,0-1.4,0.7c-0.1,0.1-0.5,0.2-0.7,0.2
		c-1-0.1-1.1,0-1.4,0.9c-0.1,0.2-0.2,0.3-0.3,0.4c-0.4,0.3-0.9,0.6-1.3,1c-0.1,0.1-0.2,0.1-0.3,0.1c-0.2,0.1-0.4,0.2-0.5,0.4
		c0,0.1,0.1,0.4,0.2,0.4c0.2,0,0.4-0.1,0.6-0.1c0,0,0.1-0.1,0.1-0.1c0.3,0.4,0.1,0.6-0.2,0.8c-0.5,0.4-0.6,0.9-0.4,1.5
		c0.1,0.3-0.2,0.6-0.3,0.9c-0.1,0-0.1,0-0.2,0c0-0.4,0-0.7,0-1.1c0-0.7-0.2-0.9-0.9-1.1c-0.5-0.2-0.9-0.4-1.3-0.7
		c-0.3-0.2-0.5-0.4-0.8-0.1c-0.1,0.1-0.1,0.4-0.2,0.8c-0.2,0-0.5,0.1-0.8,0.1c-0.7,0.1-1.3,0.2-2,0.2c-0.4,0-0.8,0.1-1.2,0.1
		c-0.4,0-0.7,0.1-1.1,0.1c-1,0-2,0-3,0c-1.4,0-2.7-0.1-4.1-0.1c-1.4,0-2.8-0.1-4.3-0.1c-1.4,0-2.9,0-4.2,0
		C48,56.9,47.7,55.9,47.6,54.9z M71.5,72.3c0,1.4-0.1,1.5-1.6,1.5c-0.5,0-0.8-0.1-0.7-0.7c0-1.5,0-3,0-4.5c0-2.5,0-5.1,0-7.6
		c0-0.8,0-1.6,0-2.5c0.5,0,0.9-0.1,1.4-0.1c0.6,0,0.8,0.3,0.8,0.9c0,1.5,0.1,3.1,0.1,4.6C71.5,66.7,71.5,69.5,71.5,72.3z M68.5,73.4
		c0,0.3,0,0.6-0.5,0.6c-0.4,0-0.7-0.1-0.7-0.6c0-2.1-0.1-4.1-0.2-6.2c-0.1-2.6-0.1-5.2-0.2-7.9c0-0.6,0.2-0.7,0.7-0.7
		c0.4,0,0.8,0,0.8,0.6c0,0.7,0.1,1.4,0.1,2c0,0,0,0,0.1,0c0,1.8,0,3.5,0,5.3c0,1.4-0.1,2.8-0.1,4.2C68.5,71.7,68.5,72.5,68.5,73.4z
		 M65,66.4c0-1.9,0-3.8,0-5.6c0-0.1,0.1-0.3,0.1-0.4c0-0.2,0.1-0.4,0-0.6c-0.2-0.4-0.1-0.7,0.3-0.7c0.8-0.1,0.9-0.1,0.9,0.7
		c0.1,2.8,0.1,5.5,0.2,8.3c0,1.8,0.1,3.5,0.2,5.3c0,0.6,0,0.6-0.9,0.8c-0.5,0.1-0.4-0.3-0.5-0.6c-0.1-0.4-0.1-0.8-0.1-1.3
		c0,0,0,0,0,0C65.1,70.3,65,68.3,65,66.4z M48,59.2c0-0.4,0.1-0.5,0.5-0.5c1.8,0,3.7,0,5.5,0.1c1.8,0,3.6,0,5.4,0.1
		c1.5,0,2.9,0.1,4.4,0.1c0.2,0,0.6,0,0.5,0.4c0,0.1-0.3,0.3-0.5,0.3c-2.3,0-4.5-0.1-6.8-0.1c-1.6,0-3.2,0.1-4.8,0.1
		c-1.3,0-2.5,0.1-3.7,0.2c-0.1,0-0.2,0-0.4-0.1C48,59.5,48,59.3,48,59.2z M52.9,62.5c0-0.1,0-0.4,0.1-0.4c0.3-0.1,0.6-0.1,0.8,0.3
		C53.5,62.6,53.2,62.8,52.9,62.5z M53.9,63.3c0,0,0.2,0.1,0.2,0.2c0.1,0.5,0.3,1.1,0.4,1.6c0,0.1-0.1,0.4-0.3,0.4
		c-0.8,0.3-1.6,0.3-2.4,0.1c0.3-0.7,0.5-1.4,1-1.9C52.9,63.4,53.5,63.4,53.9,63.3z M49.1,67.4c0-1.1-0.1-2.2-0.3-3.2
		c-0.2-1-0.4-2.1-0.7-3.1c-0.1-0.4,0-0.6,0.5-0.6c1.3-0.1,2.6-0.2,4-0.2c0.1,0,0.4,0.1,0.4,0.2c0,0.2,0.1,0.5-0.1,0.7
		c-0.6,0.5-0.7,1.2-0.9,2c-0.1,0.8-0.5,1.5-0.9,2.2c-0.5,0.9-0.4,1.2,0.6,1.4c1.1,0.2,2.1,0.1,3.1-0.3c1.1-0.4,1.1-0.4,0.6-1.5
		c-0.3-0.8-0.5-1.7-0.8-2.6c-0.1-0.4-0.5-0.6-0.6-1c-0.1-0.3-0.1-0.6-0.2-1.1c1.5-0.1,2.9-0.2,4.3-0.1c1.9,0,3.7,0.1,5.6,0.2
		c0.5,0,0.7,0.2,0.7,0.7c0,2.3,0,4.7,0.1,7c0,1.2,0.1,2.4,0.1,3.7c0,0.6-0.1,0.7-0.8,0.6c-1.4-0.1-2.8-0.2-4.3-0.2
		c-1.6,0-3.2,0.1-4.9,0.1c-1,0-2.1-0.1-3.1-0.1c-0.2,0-0.4,0-0.5,0c-0.3,0-0.5,0-0.8-0.1c0-0.1,0-0.1,0-0.2c0.1-0.1,0.2-0.1,0.2-0.2
		c0.6-0.2,0.9-0.5,0.9-1.1c0-0.4-0.5-0.8-1.1-1c-0.1,0-0.2,0-0.3,0C49.8,68.8,49,68.3,49.1,67.4z M50.1,73.8c-0.1-0.8,0-0.9,0.6-0.9
		c3.6,0,7.2-0.1,10.7,0c0.9,0,1.8,0.1,2.8,0.2c0.1,0,0.2,0.1,0.3,0.2c-0.1,0.1-0.2,0.3-0.3,0.3c-0.3,0-0.7,0-1,0
		c-1.8,0-3.5,0.1-5.3,0.1c-2,0-4,0-6,0C51.3,73.6,50.7,73.7,50.1,73.8z M53.9,86.3c-0.1-0.6-0.4-1.2,0.1-1.9c0,0.7,0.1,1.3,0.1,1.9
		L53.9,86.3z M58.9,89.6c-1.4,0.1-2.8,0.3-4.2,0.4c0.3-0.7,0.1-1.6,0.1-2.4c0-1.2-0.1-2.5-0.1-3.7c0-0.1,0.2-0.4,0.3-0.4
		c1.1,0.1,2.2,0.2,3.3,0.3c0.4,0,0.5,0.3,0.5,0.6c0,1.1,0,2.1,0,3.2C58.9,88.3,58.9,88.9,58.9,89.6z M59.7,89.8v-2.4
		c0,0,0.1,0,0.1,0c0.1,0.7,0.2,1.3,0.2,2C60,89.5,59.9,89.7,59.7,89.8z M59.6,81.7c-2-0.1-4-0.2-6.1-0.4c-0.1,0-0.2,0-0.3-0.1
		c0-0.1,0-0.1,0-0.2h7.5C60.5,81.6,60,81.7,59.6,81.7z M60.4,85.2c0-0.1,0-0.1,0-0.2c0-0.8,0.2-1,0.8-0.9c0.3,0,0.5,0.2,0.6,0.5
		c0,0.2,0.1,0.3,0.1,0.5c0.1,0.7,0,0.9-0.5,1C60.6,86.1,60.4,85.9,60.4,85.2z M61.4,91.1c-0.3-0.6-0.2-0.7,0.5-0.6
		C61.7,90.7,61.5,90.9,61.4,91.1z M60.9,88.9c0-0.4-0.1-0.7-0.1-1.1c-0.2-1-0.1-1,1-1.1c0.1,0.9,0.2,1.9,0.3,2.8
		C61.1,89.8,61,89.7,60.9,88.9z M66.9,91.5c-1.4-0.1-2.8-0.3-4.2-0.4c0-0.1,0-0.1,0-0.2c1.4,0.1,2.9,0.2,4.3,0.3c0,0,0,0.1,0,0.1
		C67,91.4,66.9,91.5,66.9,91.5z M67.4,90.4c0-0.3,0.1-0.6,0-0.7c-0.1-0.1-0.4-0.2-0.6-0.2c-0.6,0-1.2,0.1-1.8,0.1
		c-0.1,0-0.4-0.2-0.4-0.3c0-1,0-2,0.1-2.9H68c0.2,1.2-0.1,2.4,0.4,3.7C68.1,90.2,67.8,90.3,67.4,90.4z M64.4,85.3c0-0.1,0-0.2,0-0.3
		c0.4,0,0.8-0.1,1.2-0.1c0.7,0,1.5,0,2.2-0.1c0.5,0,0.7,0.1,1,0.7C67.3,85.5,65.8,85.4,64.4,85.3z M69.3,81.8
		c0.2,0.2,0.4,0.4,0.4,0.5c0,0.8-0.2,1.5-0.3,2.3c-0.1,0-0.1,0-0.2,0c-0.2-0.2-0.5-0.4-0.7-0.7C69.3,83.4,68.8,82.5,69.3,81.8z
		 M69.2,80.7c0.1-0.3,0.1-0.6,0.1-0.8c0.1-0.2,0-0.6,0.5-0.5c0.5,0.1,0.7,0.3,0.6,0.8c0,0.2-0.1,0.5-0.2,0.7
		c-0.1,0.2-0.2,0.5-0.5,0.4C69.5,81.1,69.1,81.1,69.2,80.7z M69,87.6c-0.1-0.5-0.1-0.8-0.2-1.1c0.4-0.1,0.8-0.2,1.2-0.3
		c0,0,0.1,0.1,0.1,0.1C69.8,86.6,69.4,87.1,69,87.6z M80.2,90.6c0.2-0.3,0.4-0.5,0.6-0.8c0,0.3,0,0.5,0.1,0.8H80.2z M80.2,88.4
		c-0.1,0.2-0.5,0.3-0.8,0.3c-1.3,0-2.7,0.1-4,0c-1.6-0.1-3.3-0.3-4.9-0.5c-0.3,0-0.7,0-1,0c0-0.1-0.1-0.1-0.1-0.2
		c0.5-0.6,1-1.2,1.5-1.7c0.2-0.2,0.6-0.1,0.9-0.1c2.2,0.2,4.3,0.3,6.5,0.5c0.6,0,1.2,0,1.8,0c0.3,0,0.5,0,0.9,0
		C80.7,87.5,80.5,88,80.2,88.4z M92.6,87.2c0,0.2,0,0.4-0.1,0.5c0,0.1-0.1,0.2-0.2,0.3c-0.6,0.3-1.6-0.4-1.7-1c0-1,0-1,0.9-0.6
		c0.2,0.1,0.4,0.1,0.6,0.2c0.2,0.1,0.3,0.3,0.5,0.5C92.6,87.1,92.6,87.2,92.6,87.2z M95,92.6c-0.4,0-0.8-0.1-1.4-0.1
		c0.3-0.6,0.7-0.5,1.1-0.4c0.1,0,0.2,0.3,0.4,0.4C95.1,92.4,95,92.5,95,92.6z M95.3,87c-0.1,0.2-0.1,0.3-0.2,0.5
		c-0.1,0.6-0.3,1.1-0.4,1.7c0,0.1,0,0.3,0.1,0.4c0.3,0.5,0.1,1,0.1,1.4c-0.5,0.1-0.9,0.1-1.4,0.2c0-0.5-0.1-1.1-0.1-1.7
		c0-0.3,0.1-0.6,0.1-0.8c-0.1-0.7-0.1-1.5-0.2-2.2c-0.1-0.2-0.4-0.5-0.6-0.6c-0.4-0.2-0.9-0.3-1.3-0.4c-0.4,0-0.8,0-1.2,0.1
		c-0.1,0-0.3,0.3-0.3,0.4c0,0.8,0.1,1.5,0.2,2.3c0.1,0.6,0.3,1.2,0.5,1.8h-8.8c-0.3-0.7,0.3-1.2,0.4-1.8c0.1-0.5,0.1-1.1,0.1-1.6
		c0-0.4-0.3-0.5-0.7-0.5c-1.3,0-2.5,0-3.8-0.1c-1.3-0.1-2.6-0.2-3.9-0.3c-0.9-0.1-1.8-0.2-2.6-0.3c-0.1,0-0.1,0-0.2,0
		c-0.9-0.1-1-0.2-0.8-1.1c0.2-1.2,0.3-2.4,0.8-3.5c0.1-0.3,0.2-0.6,0.2-0.9c0-0.7-0.3-1.1-0.9-1.2c-0.3-0.1-0.6-0.2-1-0.3
		c-0.4-0.1-0.7,0-0.8,0.4c-0.1,0.3-0.1,0.7-0.2,1c-0.1,1.1-0.1,2.2-0.2,3.3c-0.1,1-0.2,1.1-1.2,1.2c-1.1,0.1-2.1,0.2-3.2,0.2
		c-0.4,0-0.6,0.2-0.6,0.6c0,1,0,2,0.1,3c0,0.6,0,1.1,0.1,1.7c-0.1,0-0.1,0-0.2,0c-0.1-0.3-0.1-0.5-0.2-0.8c-0.1-1.7-0.3-3.4-0.4-5.1
		c0-0.3-0.2-0.5-0.2-0.8c0-0.3,0.1-0.6,0.1-0.9c-0.2-2.1-0.9-2-2.4-1.9c-1.5,0.1-3,0.1-4.5,0.1c-0.9,0-1.7,0.1-2.6,0
		c-0.3,0-0.5,0.1-0.6,0.4c0,0.2,0.2,0.3,0.3,0.5c0,0,0.1,0.1,0.2,0.1c0,0.1,0,0.1-0.1,0.2c-0.2-0.1-0.5-0.1-0.5-0.3
		c-0.3-0.7-0.7-1.5-0.9-2.3c-0.4-1.2-0.7-2.5-1-3.7c-0.1-0.4,0-0.6,0.4-0.6c1.3-0.1,2.6-0.1,3.9-0.2c3.2-0.1,6.4-0.1,9.6-0.1
		c0.2,0,0.4,0.1,0.5,0.2c0.2,0.5,0.6,0.4,1,0.4c0.3,0,0.7,0,1-0.1c0.5-0.1,1-0.3,1.5,0.1c0,0,0.1,0,0.1,0c0.8-0.1,1.5-0.2,2.3-0.3
		c0.1,0,0.3-0.1,0.4-0.1c1.1-0.1,1.3-0.3,1.3-1.4c0-0.8,0-1.6,0-2.3c1,0.2,2,0.4,3,0.6c0.5,0.1,1.1,0,1.6-0.2
		c0.7-0.2,1.1-0.1,1.5,0.4c1.8,2.3,3.7,4.6,5.5,6.9c0.4,0.5,0.9,1,1.4,1.6c0.4,0.4,0.7,0.3,1-0.1c0.3-0.6,0.6-1.1,1-1.6
		c2-2.4,3.7-5,5.4-7.5c0.5-0.8,1-1.5,1.5-2.2c0.1-0.1,0.3-0.3,0.4-0.3c1.6-0.1,2.7-0.8,3.6-2.1c0.1-0.1,0.1-0.1,0.2-0.2
		c0.1-0.6,0.3-1.1,0.4-1.7c0.1-0.6,0-1.1,0-1.7c0-0.3,0-0.6,0-0.9c0-0.4-0.1-0.8-0.1-1.2c0-0.2-0.2-0.5-0.1-0.6
		c0.5-0.8-0.1-1.4-0.4-2.1c-0.1-0.2-0.2-0.4-0.2-0.5c0.2-0.9-0.3-1.5-0.8-2c-0.1-0.1-0.2-0.4-0.2-0.6c0-1.1-0.3-1.1-1.1-1.4
		c-0.2-0.1-0.4-0.2-0.5-0.4c-0.4-0.6-0.6-0.7-1.4-0.5c-0.2,0.1-0.6,0-0.7-0.2c-0.6-0.7-1-0.7-2-0.4c-0.3,0.1-0.5,0.2-0.8-0.2
		c-0.2-0.4-0.8-0.4-1.1-0.1c-0.5,0.6-1.1,0.9-1.9,0.9c-0.2,0-0.5,0.2-0.7,0.4c-0.4,0.2-0.8,0.5-1.2,0.7c-0.1,0-0.2,0-0.3-0.1
		c-0.1-0.1-0.1-0.2,0-0.3c0.1-0.4,0.2-0.8,0.3-1.2c0.1-0.3-0.1-0.8,0.4-0.8c1.2,0,1.1,0,1.2,0.6c0,0.2,0.2,0.3,0.3,0.5
		c0.1-0.2,0.3-0.3,0.3-0.5c0-0.6,0.2-0.7,0.8-0.7c1.5,0,3.1-0.2,4.6-0.3c1.1,0,2.1,0,3.3,0c-0.3,0.4-0.5,0.7-0.7,1
		c-0.1,0.1-0.1,0.3-0.1,0.5c0.2-0.1,0.3-0.1,0.5-0.2c0.3-0.3,0.6-0.7,0.9-1c0.1-0.1,0.3-0.3,0.5-0.3c2.1-0.1,4.2-0.2,6.3-0.3
		c0.7,2.1,0.3,4.2,0.3,6.2c0,1.9,0.1,3.8,0.1,5.8c0,0.5-0.1,1-0.1,1.5c0,0.4-0.1,0.7-0.1,1.1c0,3.3,0.1,6.5,0.1,9.8
		c0,1.4-0.2,2.7-0.2,4.1c0,1,0.1,2,0.1,3c0,0.8,0.1,1.6,0.1,2.4c0,0.1,0,0.1,0,0.2c0.2,1,0,1.2-1.1,1.2c-0.9,0-1.8,0.1-2.6,0.1
		c-0.8,0-1.7-0.1-2.5-0.2c-0.3,0-0.6-0.1-0.9-0.1c-0.4,0-0.7,0.1-0.8,0.5C95.9,86.3,95.6,86.6,95.3,87z M95.6,91
		c0.1-0.4,0.2-0.8,0.3-1.1c0.2,0.1,0.4,0.1,0.4,0.3C96.5,90.6,96.3,90.9,95.6,91z M97.3,92c0.2,0,0.4,0,0.7,0.1c0,0,0,0.1,0,0.1
		c-0.7,0.1-1.4,0.2-2.2,0.4c-0.1-0.5,0-0.7,0.5-0.6C96.6,92.1,96.9,92,97.3,92z M105.2,94.2C105.2,94.2,105.2,94.2,105.2,94.2
		l-0.2-3.1c0.1,0,0.1,0,0.2,0V94.2z M105.2,86.8c-0.1,0.3-0.1,0.7-0.1,0.9c-0.3,0.2-0.6,0.3-0.9,0.4c-0.2,0.1-0.4,0.1-0.5,0.1
		c-1.5,0-3,0-4.5,0c-0.6,0-1.1,0-1.7,0c-0.1,0-0.2,0-0.3-0.1c-0.3-0.3-0.6-0.4-0.9,0.1c0-0.1-0.1-0.1-0.1-0.2c0.2-0.5,0.4-1,0.6-1.5
		c0.1-0.1,0.3-0.3,0.4-0.3c0.6,0,1.2,0.1,1.8,0.1c0.3,0,0.7,0.1,1,0.1c1.4,0,2.8-0.1,4.2-0.2c0.2,0,0.4,0,0.6,0
		C105.1,86.3,105.3,86.4,105.2,86.8z M111.1,92.5c-1.2,0-2.3,0-3.5,0c-0.1,0-0.3-0.1-0.4-0.2c0.1-0.1,0.2-0.3,0.3-0.4
		c0.5-0.1,1.1-0.2,1.6-0.2c0,0,0,0.1,0,0.1c0.7,0,1.4,0,2,0c0.1,0,0.2,0.2,0.4,0.4C111.4,92.3,111.3,92.5,111.1,92.5z M111.8,90.9
		c-0.7,0.1-1.3,0.1-2,0.2c-0.4,0-0.8,0-1.2,0c-0.3,0-0.6,0.1-0.9,0c-0.8,0-1,0.2-1.2,0.9c0,0.2-0.2,0.3-0.3,0.5
		c-0.1,0-0.1-0.1-0.2-0.1c-0.1-1.1-0.1-2.3-0.2-3.4c0.1,0,0.1-0.1,0.2-0.1c0.2,0.3,0.5,0.5,0.7,0.8c0.2,0.2,0.5,0.4,0.8,0.4
		c1.4,0.1,2.9,0.2,4.3,0.3c0.1,0,0.3,0.2,0.3,0.3C112,90.7,111.9,90.9,111.8,90.9z M106.4,81.6c0,0.6,0,1.3,0.1,1.9
		c0,0.3,0,0.5-0.1,0.8l-0.1,0c0-0.7-0.1-1.4-0.1-2.1c0-2.8,0-5.5-0.1-8.3c0-1.9,0-3.9,0-5.8c0-1.8-0.1-3.5-0.1-5.3
		c0-0.2,0.2-0.4,0.2-0.6c0.1,0.2,0.4,0.4,0.4,0.6c0,1.9-0.1,3.9-0.1,5.8c-0.1,2.9-0.1,5.8-0.2,8.7C106.4,78.7,106.4,80.2,106.4,81.6
		z M106.2,85.2c0.1,0,0.1,0,0.2,0c0,0.9,0.1,1.8,0.1,2.7c0,0.1-0.1,0.2-0.2,0.3c-0.1-0.1-0.2-0.2-0.2-0.3
		C106.1,87,106.1,86.1,106.2,85.2z M107.4,63.9c0-0.5,0.2-0.7,0.7-0.7c0.6,0,1.3,0,1.9,0c1.9-0.1,3.8-0.1,5.7,0.2c0.1,0,0.2,0,0.3,0
		c1.1,0,1.2,0,1.2,1.1c0,2.2,0,4.4,0,6.6c0,1,0,2.1,0,3.1c-0.7-0.3-0.7-0.3-1,0.6c0,0.1-0.2,0.2-0.3,0.2c-0.4,0.1-0.7,0.2-1.1,0.2
		c-1.6,0-3.1,0-4.7,0c-0.5,0-0.9-0.2-1.4-0.1c-0.5,0-0.9,0.2-1.4,0.3c0,0,0,0,0-0.1c0.1-2.5,0.1-5,0.2-7.5
		C107.4,66.5,107.4,65.2,107.4,63.9z M107.6,62.2h3.2c-0.3,0.2-2.4,0.3-3.2,0.2L107.6,62.2z M111.1,62.3c2-0.6,3.8,0.3,5.7-0.1
		c0,0.1,0,0.2,0,0.3C114.9,62.4,113.1,62.3,111.1,62.3z M112.7,76.3h-2c0,0,0,0,0-0.1L112.7,76.3C112.7,76.2,112.7,76.3,112.7,76.3z
		 M107.9,89c0.6,0,1.2-0.1,1.8-0.1c0.7,0,1.3,0.1,2,0.1c0.1,0,0.2,0.2,0.3,0.2c-0.1,0.1-0.2,0.2-0.3,0.2c-0.8,0-1.7-0.1-2.5-0.1
		c-0.4,0-0.8-0.1-1.3-0.1C107.9,89.2,107.9,89.1,107.9,89z M113,87.1c0-0.4-0.1-0.7-0.1-1.2C113.4,86.2,113.4,86.2,113,87.1z
		 M117,89.5c-1.2,0-2.4,0-3.6,0c-0.1,0-0.3-0.1-0.4-0.2c0.1-0.1,0.2-0.2,0.3-0.2c1.2,0.1,2.5,0.2,3.7,0.3
		C117,89.4,117,89.5,117,89.5z M117.5,88.3c-1.4,0.3-2.6,0.1-4-0.2c0.2-0.5,0.3-1,0.5-1.5c0.4-1,0-1.7-1-1.8c-0.4,0-0.9,0.7-0.8,1.3
		c0,0.4,0.1,0.9,0.2,1.3c0.1,0.7-0.1,0.8-0.7,0.8c-1.1,0-2.1,0-3.2-0.1c-0.7,0-0.9,0.1-0.8,0.9c-0.1-0.1-0.2-0.2-0.2-0.2
		c0-3.5-0.1-7.1-0.1-10.6c0-0.6,0-1.2,0-2c0.5,0.7,1.1,0.7,1.7,0.8c2.5,0.1,5-0.1,7.5-0.4c0.3,0,0.5-0.2,0.9-0.3
		C117.7,80.4,117.3,84.3,117.5,88.3z M118.3,78.5c-0.1,0-0.1,0-0.2,0c-0.1-5-0.2-9.9-0.3-14.9c0,0,0.1,0,0.1,0
		C118.5,68.6,118.4,73.6,118.3,78.5z M119.8,87c0,0.3-0.1,0.6-0.1,0.9c0,0.6-0.3,0.7-0.9,0.5c0.1-1,0.1-2,0.1-3c0-2.2,0-4.4,0-6.5
		c0-1.8,0.1-3.5,0-5.3c-0.1-3.2-0.3-6.5-0.4-9.7c0-0.7-0.1-1.4-0.2-2c0-0.4-0.2-0.4-0.7-0.4c-1,0.1-2,0.3-3,0.1
		c-1.6-0.3-3.2-0.1-4.8,0c-0.9,0-1.8,0.1-2.8,0.1c-0.4,0-0.8-0.2-1.2-0.2c-0.6,0-0.8,0.3-0.8,0.9c0,1.5,0,3,0,4.5c0,2,0.1,4,0.1,5.9
		c0,2.1-0.1,4.3,0,6.4c0,2,0.1,3.9,0.1,5.9c0,0.2-0.2,0.4-0.2,0.6c-0.1-0.2-0.4-0.3-0.4-0.5c-0.1-0.5-0.2-0.9-0.2-1.4
		c-0.1-2.1-0.2-4.3-0.2-6.4c0-3.8,0.1-7.7,0.1-11.5c0-1.1,0.1-2.2,0-3.3c0-1.9-0.1-3.7-0.1-5.6c0-1.6,0-3.2,0-4.8
		c0-0.5-0.1-1-0.1-1.5c0.1,0,0.2,0,0.2,0c0.1,0.5,0.2,1,0.2,1.5c0.1,1.9,0.1,3.9,0.2,5.8c0,0.8-0.1,1.5-0.1,2.3
		c0,0.2,0.3,0.5,0.5,0.6c0.8,0.1,1.6,0.2,2.4,0.2c1.1,0,2.2,0,3.4,0c0.7,0,1.4,0,2.1,0c1.4,0,2.9,0,4.3,0c0.1,0,0.3-0.1,0.4-0.2
		c0.1-0.1,0.3-0.2,0.4-0.2c0.3-0.1,0.5,0,0.5-0.4c0-0.4-0.2-0.5-0.5-0.5c-0.1,0-0.1,0-0.2-0.1c0-0.6,0-1.3,0-1.9
		c-0.1-2.1-0.1-4.2-0.2-6.3c0-0.2,0-0.5,0-0.7c0.1-0.2,0.2-0.3,0.3-0.5c0.1,0.1,0.3,0.3,0.3,0.4c0.1,1.5,0.1,2.9,0.2,4.4
		c0,0.7,0.1,1.4,0.1,2c0,0.8,0,1.6,0.1,2.4c0.1,2.2,0.3,4.5,0.4,6.7c0.1,1.2,0.1,2.4,0.1,3.6c0,1,0.1,2,0.1,3c0,1.2-0.1,2.4-0.2,3.6
		c0,1,0,2,0.1,3c0,1,0.1,2.1,0.2,3.1C119.9,84,119.9,85.5,119.8,87z M119.9,58.9c0-1.4,0-2.7-0.1-4.1c0-1.3-0.1-2.7-0.2-4
		c0-0.5,0.1-0.7,0.7-0.7c0.3,0,0.5,0,0.8,0c1-0.1,1-0.1,1.2,1c0,0.2,0.1,0.4,0.1,0.6c-0.8,0.3-1,0.9-1.1,1.7c0,0.7-0.3,1.4-0.4,2.1
		c0,0.1-0.1,0.2-0.2,0.3c-0.5,0.5-0.5,0.5,0.1,0.9c1.2,0.8,2.8,0.8,3.6-0.1c0.5-0.5,0.5-0.9,0.1-1.5c-0.3-0.5-0.5-1.1-0.8-1.7
		c-0.2-0.4-0.4-0.9-0.6-1.3c-0.1-0.1-0.2-0.3-0.2-0.4c0-0.5,0-1,0-1.6c5.9-0.3,11.9-0.3,17.8-0.5c0,0.5,0,0.9,0.1,1.4
		c0.1,0.4,0,0.8-0.2,1.2c-0.6,1.3-1.1,2.7-1.3,4.1c0,0.1,0.1,0.3,0.3,0.4c1.2,0.4,2.3,0.3,3.4-0.2c0.4-0.2,0.9-0.4,1-1
		c0-0.1,0-0.2,0-0.3c-0.3-0.7-0.6-1.5-1-2.2c-0.3-0.5-0.8-1-1.1-1.5c-0.2-0.3-0.2-0.6-0.3-1c-0.1-0.2-0.1-0.5-0.1-0.8
		c0.5,0,1,0,1.5,0c0.6,0,1.3,0.1,1.9,0c0.6,0,0.8,0.2,0.7,0.7c0,0.5-0.1,1-0.1,1.4c-0.2,3.3,0.2,6.5,0.4,9.8
		c0.1,1.9,0.2,3.8,0.2,5.7c0.1,2.8,0.1,5.6,0.1,8.4c0,0.6-0.1,1.2-0.1,1.8c0,0.3-0.2,0.4-0.5,0.4c-0.9,0-1.9-0.1-2.8-0.1
		c-0.3,0-0.5,0-0.9,0c0-0.4,0-0.8,0.1-1.1c0-0.1,0.2-0.2,0.4-0.3c0.3-0.1,0.6-0.1,1-0.2c0.5-0.2,0.9-0.6,0.8-1.1
		c0-0.1-0.3-0.3-0.4-0.3c-0.6-0.1-1.3-0.2-1.9-0.2c-0.1,0-0.3-0.1-0.4-0.1c-2.8,0.3-5.5,0-8.3-0.2c-1,0-2,0.1-3,0.1
		c-0.5,0-1,0-1.5,0c-0.1,0-0.4-0.2-0.4-0.4c-0.1-0.9-0.1-1.7-0.1-2.6c0-1.3-0.1-2.5-0.1-3.8c0-0.6,0-1.1,0-1.7
		c0.3-0.1,0.5-0.1,0.5,0.3c0,0.1,0.1,0.4,0.2,0.4c0.9,0.5,1.8,0.9,2.7,1.4c0.5,0.3,0.9,0.4,1.4,0.2c0.6-0.2,1.1-0.4,1.7-0.6
		c0.4-0.2,0.8-0.3,1.1-0.7c0.5-0.6,1.3-1,1.7-1.7c0.4-0.7,0.8-1.5,0.5-2.3c-0.2-0.6-0.4-1.2-0.6-1.9c0.6,0,1,0,1.5,0
		c1.4,0.1,2.8,0.2,4.3,0.3c0.5,0,0.9,0.1,1.4,0.1c0.1,0,0.2-0.3,0.3-0.4c-0.1-0.1-0.3-0.3-0.4-0.2c-1.8,0.3-3.6-0.1-5.5-0.2
		c-0.6,0-1.2-0.1-1.8-0.1c-0.4,0-0.6-0.1-0.5-0.5c0.1-0.4,0-0.6-0.5-0.8c-0.6-0.2-1.1-0.5-1.7-0.8c-0.2-0.1-0.4-0.1-0.5-0.1
		c-0.6-0.1-1.2-0.1-1.7-0.2c0-0.1,0-0.1,0-0.2c0.2,0,0.5-0.1,0.7-0.1c0.4-0.1,0.8,0,1.1-0.1c0.3-0.1,0.8-0.3,0.8-0.5
		c0-0.5,0.3-1-0.3-1.4c-0.5-0.4-0.8-0.9-1.2-1.4c-0.1-0.1-0.1-0.3-0.1-0.4c-0.1-0.3-0.2-0.6-0.3-0.9c-0.1-0.2-0.2-0.4-0.2-0.5
		c0-0.6,0-1.1,0-1.7c0-0.2-0.2-0.3-0.4-0.5c-0.1,0.2-0.3,0.3-0.3,0.5c0,0.5,0,1,0.1,1.5c0,0.3,0,0.4-0.4,0.6
		c-0.3,0.1-0.6,0.4-0.6,0.7c-0.3,1-0.7,1.9-1.2,2.7c-0.2,0.3-0.3,0.8-0.4,1.2c0,0.1,0.2,0.4,0.3,0.4c0.4,0.2,0.8,0.2,1.1,0.3
		c-0.6,0.6-1.3,1.2-2,1.9c-0.2,0-0.5,0.1-0.8,0.1c-1,0-2-0.1-3-0.1c-0.6,0-1.2,0-1.8,0c-0.9,0-1.8,0-2.7,0c-0.1,0-0.3-0.2-0.4-0.4
		C119.9,59.4,119.9,59.1,119.9,58.9z M123.5,54.6c0.6,1.4,0.6,1.4-0.8,1.8c-0.3,0.1-0.8,0.1-1-0.1c-0.2-0.2-0.1-0.6-0.1-1
		c0.1-0.5,0.3-1,0.5-1.5C123,53.5,123.2,54,123.5,54.6z M141.7,53.8c0.2,0,0.3-0.2,0.6-0.4c0.3,0.5,0.5,1,0.8,1.5
		c0.1,0.3,0.1,0.6-0.2,0.7c-0.6,0.2-1.2,0.3-1.8,0.3c-0.5,0-0.8-0.3-0.6-0.9C140.7,54.5,140.8,53.8,141.7,53.8z M137.6,75.6
		c-3-0.1-5.9-0.3-8.9-0.4c-0.2,0-0.3,0-0.5-0.1c0-0.1,0-0.1,0-0.2c0.3,0,0.5,0,0.8,0c1.3-0.1,2.5-0.2,3.8-0.2
		c2.1,0.1,4.1,0.2,6.2,0.3c0.6,0,1.2,0,1.8,0c0.7,0,1.3,0.1,2,0.2c0,0.1,0,0.2,0,0.3c-0.4,0.1-0.8,0.2-1.2,0.2
		C140.3,75.8,139,75.7,137.6,75.6z M140.4,76.4c-0.1,0.6,0,1.1-0.2,1.4c-0.2,0.2-0.8,0.1-1.2,0.1c-1.1,0.1-2.2,0.1-3.3,0.2
		c-1.2,0.1-2.4,0.2-3.6,0.3c-0.5,0-1,0-1.5,0c-0.9,0-1.8,0-2.8,0c0.1-0.7,0.1-1.3,0.2-1.9c0-0.1,0.3-0.3,0.5-0.3
		c1.2,0,2.4,0.2,3.6,0.2c1.5,0,3-0.1,4.5-0.2C137.9,76.2,139.1,76.3,140.4,76.4z M127.6,62.4c-0.1,0-0.1,0-0.2,0
		c0-0.5,0-0.9,0.1-1.4c0-0.2,0.4-0.2,0.6-0.4l0.2,0.2C128.1,61.3,127.8,61.9,127.6,62.4z M131.6,55.3c0.2,0,0.4-0.1,0.7-0.2
		c0.4,0.5,0.8,1,1.3,1.6c-0.9,0.2-1.8,0.4-2.7,0.5c-0.7,0.1-1-0.3-0.6-1C130.5,55.6,130.9,55.1,131.6,55.3z M131.3,54.1
		c0.1-0.1,0.2-0.3,0.4-0.3c0.1,0,0.2,0.2,0.5,0.3c-0.2,0.2-0.4,0.4-0.4,0.4C131.5,54.4,131.4,54.2,131.3,54.1z M132.7,59.2
		c0.2,0.1,0.3,0.2,0.5,0.3c0.2,0.1,0.4,0.2,0.5,0.2c0.7-0.3,1.3,0.1,1.7,0.5c0.4,0.4,0.6,1.1,0.9,1.7c-0.3,0.1-0.5,0.1-0.6,0.2
		c-0.1,0.1-0.2,0.3-0.3,0.4c0.1,0.1,0.4,0.3,0.4,0.2c0.4-0.3,0.8,0,0.8,0.2c0.1,0.4,0.2,0.8,0.1,1.2c-0.1,0.8-0.8,1.2-1.2,1.8
		c-0.2,0.3-0.7,0.5-1.1,0.7c-0.4,0.2-0.8,0.4-1.2,0.6c-0.6,0.3-1.1,0.2-1.6,0c-0.6-0.1-1-0.5-1.5-0.6c-0.8-0.3-1-0.9-1.3-1.5
		c-0.3-0.7-0.3-1.4-0.1-2.1c0.2-0.7,0.4-1.4,0.7-2.1C129.7,59.5,131.1,58.5,132.7,59.2z M124.5,77.1c-0.2-1-0.1-1,0.9-0.9
		c0.6,0,1.1,0,1.8,0c0,0.7-0.1,1.4-0.1,2.2c-1.1-0.3-2.3,0.1-3.4-0.4C124.4,78,124.6,77.7,124.5,77.1z M121.7,75.7
		c0.6-0.7,5.2-0.8,5.5-0.2C125.3,75.6,123.5,75.6,121.7,75.7z M120.4,69.6c-0.1-2.8-0.2-5.6-0.4-8.4c0-0.5,0.2-0.7,0.6-0.6
		c0.7,0.1,1.3,0.1,2,0.1c0.5,0,0.9-0.1,1.4-0.2c0.2,0,0.4-0.1,0.5-0.1c0.6,0,1.2,0.1,1.8,0.2c0.2,0,0.4,0.3,0.4,0.4
		c0.1,1.9,0.2,3.9,0.3,5.8c0,0.9,0.1,1.9,0.1,2.8c0,1.2,0,2.3,0,3.5c0,0.4,0,0.8,0,1.3c-1,0-2,0.1-3,0.1c-0.8,0-1.7,0-2.5,0
		c-0.6,0-1,0.4-1,0.9c0,0.4,0.6,0.9,1,0.9c1.1,0,1.1,0.1,1.2,1.1c0,0.2,0,0.4,0,0.6c-0.7,0-1.4,0-2.1,0c-0.1,0-0.3-0.4-0.3-0.6
		c0-1.1,0.1-2.2,0.1-3.3C120.5,72.7,120.5,71.1,120.4,69.6z M121.3,88.8c0-0.1,0.2-0.2,0.3-0.3c0.1,0.1,0.1,0.1,0.2,0.2l-0.2,2.1
		c0,0-0.1,0-0.1,0C121.4,90.2,121.3,89.5,121.3,88.8z M121.6,93c0-0.5-0.1-1.1-0.1-1.6c0,0,0.1,0,0.1,0c0.1,0.5,0.1,1.1,0.2,1.6
		C121.7,93,121.6,93,121.6,93z M121.7,87c-0.8,0-0.9-0.3-0.8-1.4C121.8,85.9,121.9,86,121.7,87z M122.4,90.8v-2c0.1,0,0.1,0,0.2-0.1
		c0.2,0.4,0.6,0.8,0.7,1.2C123.4,90.8,123.2,91,122.4,90.8z M126.5,92.1c0,0.1,0,0.1,0,0.2c-0.8,0.1-1.7,0.2-2.6,0.2
		c-0.1-0.5,0-0.7,0.5-0.7C125.1,92,125.8,92.1,126.5,92.1z M124.1,90.5c0-0.1,0.1-0.3,0.1-0.4c0.4-0.3,0.9-0.1,1.1,0.3
		c0.1,0.1,0.1,0.3,0.2,0.5c-0.5-0.1-0.9-0.1-1.3-0.2C124.1,90.8,124.1,90.6,124.1,90.5z M126,88.2c-0.7,0-1.4-0.1-2.1-0.2
		c-0.3,0-0.5-0.2-0.6-0.6c0-0.3-0.1-0.6-0.2-1c0.6,0,1.1,0,1.5,0c0.6,0,1.3,0.1,1.9,0.1c1.8,0,3.6,0,5.4-0.1c0.6,0,0.9,0.3,1,0.8
		c0.3,1,0.2,1-0.8,1C130.2,88.3,128.1,88.3,126,88.2z M124.9,82.1c-0.6-0.3-0.7-0.6-0.4-1.6c0.2,0.2,0.6,0.3,0.6,0.4
		C125.1,81.3,125,81.7,124.9,82.1z M125.6,84.7c-0.1,0-0.2,0-0.2,0.1c-0.4-0.6-0.3-1.3-0.5-1.9c0.1,0,0.2,0,0.2-0.1
		C125.3,83.5,125.4,84.1,125.6,84.7z M127.8,84c-0.6,0-0.7-0.1-0.7-0.9c1.5-0.1,3-0.3,4.5-0.4c0.8-0.1,1.7-0.1,2.5-0.1
		c0.2,0,0.5-0.1,0.7,0c0.2,0.1,0.3,0.4,0.4,0.6c0,0-0.3,0.2-0.4,0.3c-0.4,0.1-0.8,0.1-1.2,0.2c-0.4,0-0.7,0-1.1,0
		c-0.6,0-1.3-0.1-1.9,0C129.6,83.8,128.7,83.9,127.8,84z M128.4,85.8c-0.4,0.2-0.7,0.1-0.9-0.3c0,0,0.1-0.3,0.2-0.3
		C128.1,85.1,128.4,85.3,128.4,85.8z M129.2,82c-0.2,0-0.5,0.1-0.7,0.1c-0.4,0-0.8,0.1-1.3,0c-0.1,0-0.2-0.2-0.3-0.3
		c0.1-0.1,0.2-0.2,0.3-0.2c2.1-0.5,4.2-0.6,6.2-0.2c0.2,0,0.4,0.1,0.6,0.2C132.4,81.8,130.8,81.9,129.2,82z M130.8,97.1
		c-0.1-0.9-0.2-1.8-0.4-2.7c0-0.1,0-0.3,0.1-0.4C130.6,95,130.7,96,130.8,97.1C130.8,97.1,130.8,97.1,130.8,97.1z M132.8,92.1
		c-0.2,0-0.3,0-0.5,0c0,0,0,0,0,0c-0.3,0-0.7,0.1-1,0.1c-0.2,0-0.4-0.2-0.6-0.3c0.1-0.1,0.3-0.3,0.4-0.4c0.6-0.1,1.1-0.2,1.7-0.3
		c0.4-0.1,0.4,0.2,0.5,0.5C133.3,92.1,133.1,92.1,132.8,92.1z M135.3,89.6c-0.1,0.7,0,1.4,0,2.3c-0.9-0.9-1.6-1.6-1.2-3
		c0.3-1-0.3-2-0.8-2.9c-0.1-0.1-0.3-0.2-0.4-0.1c-1,0-2.1,0.1-3.1,0.1c-0.3,0-0.5-0.1-0.5-0.4c-0.1-0.4-0.3-0.7-0.9-0.7
		c1.3-0.1,2.5-0.6,3.8-0.2c0.2,0.1,0.5,0,0.8-0.1c0.2,0,0.4-0.2,0.6-0.2c0.4,0,0.8,0.1,1.1,0.3c0.1,0.1,0,0.6-0.1,0.9
		c-0.1,0.6-0.3,1.1-0.4,1.7c0,0.2,0.2,0.5,0.3,0.6C135.2,88.3,135.5,88.8,135.3,89.6z M135.3,87.5c-0.1-0.3-0.1-0.7,0-1.1
		c0-0.3,0.2-0.6,0.3-0.9c1,0.4,0.3,1.3,0.6,2C135.8,87.5,135.3,87.6,135.3,87.5z M138.8,89.6C138.8,89.6,138.7,89.6,138.8,89.6
		c-0.1-0.7-0.2-1.4-0.2-2.1c0.1,0,0.2,0,0.2,0V89.6z M138.8,86.6c-0.2,0-0.5,0-0.5-0.3c0-0.4,0.2-0.6,0.5-0.6c0.4,0,0.9,0,1.3,0
		c0,0,0,0,0,0c0.4,0,0.8,0,1.2,0c0.3,0,0.5,0,0.5,0.4c0,0.3,0.1,0.6-0.4,0.7c-0.6,0-1.2,0-1.8,0C139.3,86.7,139.1,86.6,138.8,86.6z
		 M141.9,88.6c0,1.7,0.1,1.3-1.4,1.3c-0.7,0-0.9-0.4-0.9-1.1c0-0.2,0-0.3,0.1-0.5c0.1-1,0.1-1,1.1-0.9
		C141.9,87.4,141.9,87.4,141.9,88.6z M142.7,89.5c-0.4-0.7-0.1-5.4,0.4-6.4C143.3,85.2,142.6,87.3,142.7,89.5z M143.3,81.9
		c-0.4-0.3-0.6-0.5-0.7-0.7c-0.1-0.2-0.1-0.5-0.1-0.8c0-0.1,0.2-0.2,0.2-0.2c0.2,0.1,0.6,0.2,0.6,0.4
		C143.4,81,143.3,81.4,143.3,81.9z M146.7,87.2c0,0.9,0,1.7-0.1,2.6c0,0.1-0.2,0.3-0.4,0.3c-0.8,0-1.7-0.1-2.5-0.1
		c-0.4,0-0.4-0.2-0.4-0.5c0.1-1.8,0.2-3.6,0.4-5.4c0-0.4,0.1-0.8,0.1-1.3c0.1-0.8,0.2-1.6,0.2-2.4c0-0.6-0.3-1-0.9-1
		c-0.1,0-0.3-0.1-0.4-0.2c-0.1-0.1-0.3-0.2-0.3-0.2c-0.2,0.1-0.4,0.3-0.4,0.4c-0.1,0.7-0.2,1.5-0.3,2.2c0,0.2-0.1,0.4-0.1,0.7
		c-0.1,0.3,0,0.6,0.3,0.6c0.1,0,0.2,0,0.2,0c0,0.5,0,0.9-0.1,1.4c0,0.1-0.3,0.3-0.4,0.3c-0.7,0-1.5,0.1-2.2,0.1
		c-0.8,0-1.4,0.2-1.7,1c-0.2,0.5-0.2,1.1,0.1,1.6c0.1,0.1,0.1,0.3,0.2,0.4c0.1,0.5,0.1,1,0.1,1.5c0,0.7,0,0.8-0.8,0.8
		c-0.1,0-0.2,0-0.3,0c-0.3,0-0.5-0.1-0.9-0.1c0-0.7,0-1.3,0.5-1.8c0.1-0.1,0.2-0.4,0.2-0.6c0-0.2,0-0.5,0.1-0.7
		c0.5-1.1-0.3-1.6-1.1-2.1c-0.1,0-0.1-0.1-0.1,0c0.2-0.7,0.4-1.4,0.4-2c0-0.4,0.1-0.9-0.6-0.9c-0.1,0-0.2-0.4-0.4-0.4
		c-0.6-0.3-1.2-0.6-1.8-0.8c-0.2-0.1-0.4,0.1-0.6,0.1c-0.1,0-0.2,0.1-0.3,0.1c-0.7,0-1.3,0-2,0c-0.5,0-1,0-1.5,0.1
		c-0.5,0-1,0.1-1.5,0.2c-0.3,0-0.6,0-0.9,0c-0.4-0.1-0.6,0-0.5,0.4c0.1,0.7,0.2,1.4,0.4,2.1c0.1,0.4,0.2,0.8,0.2,1.2
		c0,0.1-0.1,0.2-0.1,0.3c-0.1-0.1-0.2-0.2-0.2-0.3c-0.1-0.6-0.2-1.2-0.4-1.8c-0.2-0.4-0.3-0.8-0.1-1.3c0.2-0.4,0-0.8-0.4-1.1
		c-0.1-0.1-0.2-0.2-0.3-0.2c-0.2-0.1-0.5-0.4-0.6-0.3c-0.3,0.2-0.6,0.5-0.6,0.7c0,0.8,0.1,1.5,0.3,2.3c0.2,0.9,0.4,1.7,0.6,2.5
		c0.1,0.3-0.1,0.5-0.4,0.5c-0.4,0-0.8,0-1.2-0.1c-0.3-0.1-0.5-0.3-0.7-0.4c-0.3-0.2-0.7-0.4-1-0.5c-0.5-0.2-0.6-0.5-0.6-1
		c0-1.4-0.1-2.8-0.1-4.2c0-0.4,0.1-0.6,0.6-0.6c1.8,0,3.6,0,5.4,0.1c0.8,0,1.7,0,2.5,0c0.2,0,0.3-0.1,0.5,0c1.5,0.4,2.9,0,4.4,0
		c1.7,0,3.3-0.3,5-0.3c2.2,0,4.4,0.1,6.6,0.1c0.4,0,0.8,0.1,1.2,0.2c0.1,0,0.2,0.3,0.2,0.4c0,1.4-0.1,2.8-0.1,4.1
		C146.7,84.8,146.7,86,146.7,87.2z M147.7,88.4c-0.1,0-0.1,0-0.2,0v-6c0.1,0,0.1,0,0.2,0V88.4z M147.6,81.9v-1.2c0,0,0.1,0,0.1,0
		L147.6,81.9C147.7,81.9,147.6,81.9,147.6,81.9z M153,77.5c0,2.1,0.1,4.1,0.1,6.2c0,1.5,0,3,0,4.5c0,0.4,0.1,0.8,0.2,1.3
		c-1.2,0-2.2,0-3.3,0c-0.3,0-0.5,0.1-0.8,0.1c-0.5,0.1-0.6,0-0.6-0.5c0-2.7,0-5.4,0-8c0-3.1,0.1-6.1,0.1-9.2c0-2.7-0.1-5.5,0-8.2
		c0-2.7,0.1-5.3,0.1-8c0-1.3,0.1-2.6,0.1-3.8c0-0.5,0.2-0.8,0.8-0.7c0.9,0,1.8-0.1,2.7,0c1.1,0.1,1.1,0.1,1.1,1.2
		c0,3.3,0,6.6-0.1,9.9c-0.1,3.7-0.3,7.3-0.4,11C152.8,74.7,152.9,76.1,153,77.5z M156.4,59.3c-0.1,2.8-0.2,5.6-0.3,8.4
		c-0.1,2.3-0.2,4.7-0.2,7c0,2.5,0,4.9,0,7.4c0,1.7-0.1,3.4-0.1,5.1c0,0.8-0.1,1.5-0.1,2.3c0,0.4,0,0.6-0.4,0.7
		c-0.4,0.1-0.9,0.1-1-0.4c-0.2-0.8-0.4-1.6-0.5-2.5c-0.1-2.7-0.1-5.5-0.1-8.2c0-3,0-5.9,0.1-8.9c0-2.6,0-5.2,0.1-7.9
		c0-1.5,0.1-3,0.1-4.5c0-0.6,0-1.3,0-1.9c0-1.3,0-2.6,0-3.9c0-0.1,0.1-0.3,0.1-0.4c0.2-0.8-0.1-1.2-0.9-1.4
		c-1.4-0.3-2.8-0.1-4.2,0.1c-0.5,0.1-0.8,0.4-0.8,1c-0.1,3.8-0.2,7.6-0.3,11.4c0,2.4,0,4.7,0,7.1c0,1.3-0.1,2.6-0.1,3.9
		c0,1.3,0,2.7-0.1,4c0,0.2,0,0.4,0,0.7c-0.8,0-0.9-0.4-0.9-1c0-1.7,0.1-3.3,0.1-5c-0.1-2.8-0.2-5.5-0.3-8.3
		c-0.1-2.6-0.4-5.1-0.5-7.7c-0.1-2,0.1-4,0.2-6c0-0.2,0.1-0.3,0.1-0.4c3.4-0.3,6.7-0.6,10.1-1c0,0.7,0.1,1.3,0.1,1.8
		c0,1.8,0,3.6,0,5.4C156.4,57.2,156.4,58.3,156.4,59.3z M154.4,39.6c-0.9,0-1.9-0.1-2.8,0c-1.2,0.1-2.3,0-3.5-0.2
		c-0.7-0.1-1.4,0-2.2,0c-0.9-0.1-1.9-0.2-2.8-0.2c-1.1,0-2.2,0-3.4,0c-2.6,0-5.2,0-7.8,0.1c-1.7,0-3.4,0.1-5,0.2
		c-3.4,0-6.8,0.1-10.1,0.1c-2.1,0-4.1,0-6.2-0.1c-0.1,0-0.2,0-0.3,0l0-0.1c0.4,0,0.8-0.1,1.2-0.1c2.9-0.1,5.8-0.1,8.6-0.2
		c1.4,0,2.7,0.1,4.1,0.1c1.4,0,2.8-0.1,4.3-0.1c1.6,0,3.1,0,4.7,0c1.8,0,3.5-0.2,5.3-0.2c2.6,0,5.2,0.1,7.8,0.1c2,0,4,0,6,0.1
		c1.3,0,2.6,0.1,4,0.1c0.1,0,0.1,0.1,0.3,0.2C155.9,39.6,155.2,39.6,154.4,39.6z M114.2,31.7c-0.2,0-0.4,0.3-0.5,0.5
		c0,0,0,0.1,0,0.2c0,0.3,0,0.6,0,0.9c0,0,0,0,0,0c0,0.3,0,0.5,0,0.8c0,0.7,0.5,1,1.2,0.6c0.1-0.1,0.3-0.3,0.3-0.4
		c0.1-0.7,0.1-1.4,0.1-2.1C115.3,31.2,114.6,31.8,114.2,31.7z M29.2,34.7c1.7-1,1.3-0.9,2.6,0.3c0.2,0.2,0.4,0.3,0.5,0.4
		c0.1,0,0.1-0.1,0.2-0.1c-0.1-0.3-0.1-0.7-0.3-0.9c-0.3-0.3-0.7-0.6-1.1-0.9c-0.3-0.2-0.6-0.2-0.9,0c-0.9,0.6-1.8,1.3-2.7,1.9
		c0,0,0,0.1,0,0.1C28,35.2,28.7,35,29.2,34.7z M19.6,42c0.1,0.1,0.3,0.3,0.4,0.3c0.2,0,0.3-0.2,0.5-0.3c-0.2-0.2-0.4-0.4-0.5-0.4
		C19.9,41.7,19.7,41.9,19.6,42z M33.1,37.1c0.1,0.1,0.3,0.1,0.4,0c0.1-0.1,0.1-0.3,0.1-0.4c-0.1-0.2-0.2-0.4-0.3-0.6
		c0.5-0.2,0.8-0.2,1.1,0.1c0.1,0.1,0.4,0.1,0.7,0.2c0-0.3,0.1-0.6,0-0.8c-0.3-0.4-0.1-0.5,0.3-0.6c0.2,0,0.3-0.1,0.5-0.2
		c0.4-0.2,0.7,0,1,0.4c0.1,0.2,0.4,0.4,0.5,0.3c0.3-0.2,0.2-0.4,0-0.7c-0.6-0.8-2.1-1-2.9-0.3c-0.1,0.1-0.2,0.2-0.2,0.3
		c-0.1,0.4-0.3,0.4-0.6,0.4c-0.5,0-0.8,0.1-0.9,0.6C32.4,36.4,32.7,36.8,33.1,37.1z M49.9,39.4c-0.2-0.1-0.5-0.2-0.5,0.2
		c0,0.2,0.2,0.4,0.4,0.6c0.1,0.1,0.3,0,0.4,0c0.2,0,0.3,0,0.5-0.1c0.8-0.2,1.6-1.4,1.2-2c-0.2-0.4-0.2-0.7,0-1.1
		c0.5-1.3,0.1-2.2-1.2-2.4c-0.2,0-0.5,0.1-0.6,0.3c-0.1,0.3,0.1,0.4,0.4,0.5c0.9,0.2,1.2,0.9,0.7,1.7c-0.1,0.2-0.4,0.3-0.6,0.5
		c-0.2,0.2-0.2,0.4-0.3,0.7c0.2,0,0.3,0.1,0.5,0.1c0.1,0,0.3,0,0.3,0c0.1,0.1,0.1,0.3,0,0.4C51.1,39.4,50.6,39.6,49.9,39.4z
		 M53.6,33.3c-0.1-0.1-0.3,0-0.5,0c-0.2,0.1-0.4,0.2-0.5,0.3c0.1,0.3,0.3,0.5,0.3,0.7c0.3,1,1.3,1.6,2.3,1.2c0.2-0.1,0.4,0,0.6,0
		c0.6-0.1,1.1,0,1.5,0.6c0.3,0.4,1.7-0.1,2-0.9c-0.3,0.1-0.6,0.1-0.9,0.2c-0.5,0.1-0.9,0.1-1.1-0.5c-0.1-0.4-0.5-0.3-0.8-0.3
		c-0.2,0-0.4,0-0.5-0.1c-0.4-0.5-0.6-0.5-0.8,0c-0.2,0.4-0.5,0.4-0.8,0.3c-0.7-0.2-0.8-0.5-0.7-1.2C53.7,33.6,53.7,33.4,53.6,33.3z
		 M47.7,35.9c0-0.3-0.3-0.7-0.7-0.6c-0.5,0.1-0.9,0.3-1,0.8c-0.1,0.5,0,0.9,0.5,1.2c0.2,0.1,0.6,0,0.8-0.1c0.2-0.1,0.2-0.4,0.4-0.8
		c-0.3,0.1-0.5,0.1-0.6,0.1c-0.1,0-0.2-0.1-0.2-0.2c0.1-0.1,0.2-0.2,0.3-0.2C47.4,36.4,47.6,36.3,47.7,35.9z M79.8,78.9
		c-0.1,0.4-0.1,0.9-0.2,1.3c0,0.2,0,0.3,0,0.5c0.1,0,0.1,0,0.2,0c0.3-0.6,0.8-1.1,0.8-1.8c0-0.2-0.2-0.4-0.3-0.6
		C80,78.5,79.8,78.7,79.8,78.9z M90.7,78.6c-0.3-0.4-0.6-0.7-1.1-1.2c-0.1,0.3-0.2,0.4-0.2,0.5c0,0.2,0.1,0.4,0.2,0.6
		c0.3,0.4,0.6,0.8,1,1.1c0.1,0.1,0.2,0.2,0.3,0.3c0.1,0,0.2,0,0.3,0c0,0,0-0.2,0-0.3C91,79.3,90.9,78.9,90.7,78.6z M83.3,80.1
		c-0.1-0.2-0.2-0.4-0.3-0.6c-0.2,0.2-0.5,0.3-0.5,0.5c0,0.4,0,0.8,0.1,1.2c0,0.1,0.2,0.2,0.4,0.3c0.1-0.1,0.2-0.3,0.3-0.4
		c0-0.2,0-0.4-0.1-0.6C83.2,80.4,83.3,80.2,83.3,80.1z M103.4,54.4c0-0.1-0.2-0.2-0.3-0.3c-0.1,0.2-0.3,0.3-0.4,0.5
		c0,0.1,0.1,0.2,0.3,0.5C103.2,54.8,103.4,54.6,103.4,54.4z M85.5,81.2c-0.1,0.1-0.3,0.4-0.3,0.6c0.1,0.4,0.3,0.9,0.4,1.3
		c0.1,0.3,0.2,0.7,0.3,1c0.1,0.1,0.4,0.2,0.5,0.3c0.1,0,0.2-0.2,0.3-0.3c-0.3-0.9-0.6-1.8-0.9-2.6C85.9,81.3,85.5,81.1,85.5,81.2z
		 M78.9,66.7c0.1-0.1,0.2-0.4,0.1-0.5c-0.3-0.4-1.2-0.1-1.3,0.4c-0.1,0.7,0,1.4,0,2.1h0.2c0,0,0,0.1-0.1,0.1
		c-0.3,0.2-0.5,0.4-0.3,0.7c0.2,0.3,0.8,0.4,1.1,0.2c0.3-0.2,0.4-0.4,0.1-0.8c-0.1-0.2,0-0.4,0-0.7c0-0.1,0.1-0.3,0-0.4
		C78.3,67.2,78.3,67.2,78.9,66.7z M103.2,60.8c-0.3-0.1-0.5-0.3-0.7-0.3c-0.1,0-0.2,0.2-0.4,0.4c0.1,0.1,0.3,0.3,0.4,0.3
		C102.8,61.2,102.9,61,103.2,60.8z M83.4,65.5c-0.1,0.1-0.2,0.2-0.3,0.3c0.1,0.4,0.1,0.7,0.2,1c0,0.1,0.2,0.2,0.3,0.3
		c0.1-0.1,0.3-0.3,0.3-0.4c0-0.3-0.1-0.6-0.2-0.9C83.7,65.7,83.5,65.6,83.4,65.5z M81.8,68.4c-0.3,0.1-0.6,0.1-1,0.2
		c0.3-0.4,0.4-0.6,0.7-0.9c-0.4-0.1-0.7-0.1-0.9-0.2c-0.1-0.1-0.3-0.3-0.3-0.4c0-0.1,0.2-0.3,0.3-0.4c0.3-0.1,0.6-0.1,0.8-0.2
		c0.1,0.2,0.3,0.4,0.4,0.6c0.4-0.4,0.4-1,0.1-1.3c-0.1-0.1-0.3-0.2-0.4-0.1c-0.6,0.1-1.1,0.3-1.7,0.5c-0.3,0.1-0.6,0.3-0.5,0.7
		c0.1,0.5,0.3,1.1,0.4,1.6c0.1,0.9,0.2,1,1.1,1c0.7,0,1.3-0.1,1.8-0.7C82.4,68.3,82.2,68.2,81.8,68.4z M85.3,65.6
		c0-0.2-0.1-0.5-0.1-0.7c-0.2,0.2-0.5,0.3-0.6,0.6c-0.1,0.2-0.1,0.5,0,0.7c0,0.2,0.1,0.3,0.1,0.5c0,0-0.1,0.1-0.1,0.1
		c0.1,0.1,0.2,0.4,0.3,0.4c0.2,0,0.4-0.2,0.5-0.3c0.1-0.2,0-0.5,0-0.7C85.4,66,85.3,65.8,85.3,65.6z M50.9,99
		c-0.4-0.3-0.8-0.6-0.8-1.1c0-0.7,0.1-1.4,0.1-2.1c0-0.7,0.1-1.3,0.1-2c0-0.5-0.2-1-0.2-1.5c-0.1-1.5-0.4-3.1-0.3-4.6
		c0.1-1.5-0.2-2.9-0.5-4.4c-0.4-1.6-0.8-3.1-1.3-4.7c-0.3-1-0.6-1.9-1-2.8c-0.2-0.5-0.4-1-0.5-1.6c0-0.1,0-0.4,0.2-0.5
		c0.6-0.3,0.3-0.5,0-0.7c-0.7-0.4-0.9-1.1-0.9-1.9c0.2,0.2,0.4,0.3,0.5,0.4c0.2,0.1,0.4,0.3,0.5,0.4c0.6,0.4,1.3,0,1.4-0.7
		c0.1-0.6-0.2-1-0.5-1.4c-0.1-0.1-0.3-0.1-0.4-0.1c0,0.1-0.1,0.3-0.1,0.4c0.1,0.3,0.2,0.7,0.2,1c-0.1,0-0.1,0.1-0.2,0.1
		c-0.6-0.2-0.9-0.7-1.3-1.2c-0.4-0.6-0.7-1.2-1.2-1.7c-0.8-0.8-1.6-1.5-2.5-2.3c-0.7-0.6-1.5-1.2-2.2-1.8c-0.2-0.2-0.5-0.3-0.7-0.5
		c-1.2-1.2-2.5-2.3-3.6-3.6c-0.6-0.7-1.2-1.5-1.6-2.3c-0.6-1.2-1.1-2.6-1.6-3.8c-0.4-1-0.7-2-1.1-3.1c2.1,0,4.2,0,6.3,0
		c2.1,0,4.1,0.1,6.2,0.1c0.4,0,0.5,0.1,0.5,0.4c0.1,1.1,0.1,2.3,0.3,3.4c0.1,0.9,0.3,1.7,0.4,2.5c0,0.1,0.2,0.2,0.4,0.3
		c0,0,0.2-0.1,0.2-0.2c0.1-0.6,0.4-1.1-0.1-1.7c-0.1-0.1-0.1-0.4-0.1-0.6c-0.1-1.3,0.1-2.7-0.3-4c-0.3-0.9-0.3-1.9-0.6-2.8
		c-0.2-0.6-0.5-1.2-1-1.7c-1.1-1-1.6-2.1-1.8-3.5c-0.1-0.6-0.2-1.2-0.5-1.8c-0.5-1.2-1.1-2.3-1.6-3.5c-0.4-0.8-0.6-1.6-0.5-2.4
		c0.1-1,0.3-2,0.3-3.1c0-0.6-0.3-1.1-0.6-1.6c-0.1-0.1-0.4-0.1-0.7-0.2c-0.8-0.4-1.3,0-1.9,0.5c-0.2,0.1-0.4,0.2-0.7,0.2
		c-0.5,0-1.1,0.1-1.4,0.5c-0.3,0.5-0.6,0.5-1,0.3c-0.2-0.1-0.5-0.2-0.7-0.3c-0.1-0.1-0.2-0.2-0.4-0.4c0.8-0.2,0.9-0.4,0.8-0.9
		c-0.1-0.6-0.4-0.7-1-0.3c0.1-0.3,0.2-0.5,0.1-0.7c0-0.3-0.1-0.6-0.2-0.9c0,0-0.3,0-0.3,0c-0.1,0.3-0.2,0.6-0.3,0.8c0,0,0,0,0,0.1
		c0.1,0.3-0.1,0.4-0.4,0.4c-0.6-0.1-1.1-0.3-1.7-0.4c-0.2,0-0.4,0-0.5,0.1c-0.1,0.1,0,0.3,0,0.5c0,0.2,0,0.3,0.1,0.5
		c-0.2,0-0.4,0.1-0.5,0c-0.5-0.4-1-0.1-1.4,0.1c-0.4,0.2-0.7,0.3-1.1,0.1c-0.5-0.3-0.9-0.6-1.3-1c-0.2-0.2-0.1-0.6-0.1-0.9
		c0-0.1-0.1-0.1-0.1-0.2c-0.5,0.5-1.2,0.4-1.7,0c-0.2-0.2-0.7-0.2-1-0.2c-0.4,0-0.8,0-1.2,0c-0.4,0-0.7,0.1-1.1,0.2
		c-0.2,0-0.4,0.1-0.6,0.2c-0.6,0-1.1,0-1.7,0c-0.5,0-1,0.1-1.3-0.3c-0.1-0.1-0.1-0.4,0-0.5c0.1-0.2,0.4-0.3,0.6,0
		c0.2,0.3,0.4,0.4,0.8,0.2c0.5-0.2,0.7-0.5,0.5-1c0.9-0.5,1.1-0.5,1.8,0.2c0.5,0.5,1.1,0.6,1.7,0.6c0.2,0,0.4-0.3,0.6-0.5
		c-0.2-0.1-0.3-0.3-0.5-0.4c-0.1-0.1-0.2-0.1-0.4-0.1c0.2-0.1,0.3-0.1,0.5-0.1c0.2-0.1,0.5-0.1,0.5-0.3c0.1-0.2,0.1-0.5,0-0.7
		c-0.3-0.4-0.2-0.6,0.2-0.8c0.7-0.3,2.5,0,2.9,0.6c0.5,0.8,1.2,0.9,2,0.9c1.1,0,1.3-0.3,1.4-1.4c0.1-2.3,1-3.3,3.1-3.2
		c0.5,0,1,0,1.2,0.6c0.5-0.6,0.4-1-0.2-1.1c-1-0.2-1.9,0-2.8,0.4c-1.2,0.5-2,2.1-1.9,3.5c0,0.2-0.1,0.6-0.2,0.7
		c-0.8,0.4-1.9,0.1-2.3-0.7c-0.4-0.9-1.1-1-1.9-1c-0.4,0-0.7,0-1.1,0c-0.6,0-1.2,0.3-1.3,0.8c-0.1,0.7-0.7,1-1,1.6
		c-1-1-1.9-0.7-2.9-0.1c-0.3,0.2-0.6,0.2-0.9,0.3c-0.2,0.1-0.5,0.2-0.7,0.4c-0.2,0.2-0.3,0.4-0.5,0.6c-0.3,0.3-0.3,0.7,0,0.9
		c0.6,0.4,0.6,1,0.6,1.6c0,1.1,0.2,2.2,0.3,3.4c0.1,1,0,1.9,0.1,2.9c0,0.8,0,1.6,0,2.5c-0.2,0.1-0.4,0.1-0.6,0.2
		c-0.3,0.1-0.6,0.3-0.5,0.7c0.1,0.4,0.2,0.8,0.6,0.9c0.6,0.1,0.7,0.4,0.6,0.9c0,0.1,0,0.2,0,0.3c0,1.6,0,3.2,0,4.7
		c-0.4,0.1-1,0-1,0.2c-0.3,0.6-0.5,1.3-0.7,1.9c0,0.1,0.1,0.2,0.1,0.2c0.4,0.2,0.2,0.5,0,0.7c-0.3,0.4-0.1,0.6,0.3,0.7
		c0.2,0.1,0.4,0.1,0.5,0c0.4,0,0.5,0.1,0.5,0.5c0,1.3,0.1,2.5,0.1,3.8c0,1.7-0.1,3.4-0.1,5c0,2.2,0.1,4.4,0.1,6.6
		c0,1.8-0.1,3.6-0.2,5.4c0,2.7,0,5.5,0,8.2c0,1.8-0.1,3.7-0.1,5.5c0,1.3,0,2.5,0.1,3.8c0,0.3,0,0.5-0.5,0.5c-0.4,0-0.9,0-1.3,0
		c-0.3,0-0.5,0.2-0.8,0.3l0,0.2c0.3,0.1,0.6,0.4,0.8,0.4c2.6,0,5.2,0,7.9,0c0.8,0,1.7,0.1,2.5,0.1c1.1,0,2.2-0.2,3.2-0.2
		c1,0,2,0,3,0c1,0,2.1,0,3.1,0c0,0.4-0.1,0.9-0.1,1.3c0,0.7,0,0.8,0.7,0.5c0.1,0,0.2,0,0.3-0.1c0-0.3,0-0.6,0-0.9
		c0-0.3,0-0.5,0.1-0.8c0.2,0.1,0.2,0.2,0.2,0.3c0.1,0.2,0.3,0.5,0.4,0.4c0.2-0.1,0.4-0.3,0.6-0.4c0,0,0-0.2,0-0.2
		c0.1-0.1,0.2-0.2,0.2-0.2c0,0.1,0.1,0.2,0.1,0.3c0,0.3-0.1,0.7-0.2,1c0,0.1,0.2,0.3,0.3,0.4c0.2-0.2,0.7-0.2,0.6-0.7
		c0-0.3,0-0.6,0.2-0.8c0.1-0.2,0.3-0.4,0.5-0.4c0.6,0,1.1,0,1.7,0.1c0.1,0,0.2,0,0.2,0.1c0.2,0.5,0.5,0.3,0.7,0.2
		c0.2-0.1,0.4-0.1,0.5-0.2c0.4,0.8,0.5,0.8,1,0.1c0.1-0.1,0.3-0.1,0.4-0.1c2.3-0.1,4.5-0.2,6.8-0.3c0.3,0,0.5,0.1,0.4,0.5
		c0,0.3,0,0.7,0,1c0.2,1.8,0.3,3.6-0.1,5.4c-0.3,1.1,0.4,2,1.3,2.3c0.2,0.1,0.4,0,0.6-0.1C51.1,99.3,51,99.1,50.9,99z M42.4,67.3
		c0.5,0.5,1.1,1,1.6,1.6c0.3,0.3,0.6,0.8,0.9,1.1c0,0,0,0,0,0c0,0.7,0.1,1.5,0.1,2.2c0,0.1-0.3,0.2-0.5,0.2c-0.6,0-1.2,0-1.8-0.1
		c-0.1,0-0.3-0.2-0.3-0.3c-0.1-1.5-0.1-3.1-0.2-4.6C42.3,67.3,42.4,67.3,42.4,67.3z M45.7,73.3c-0.6,0.5-3.6,0.4-3.8-0.1
		C43.1,73,44.4,72.9,45.7,73.3z M41.3,66.3c0.1,0.2,0.2,0.3,0.2,0.5c0.1,1.4,0.1,2.9,0.2,4.3c0,0.4,0,0.8,0,1.2l-0.2,0
		c-0.1-2-0.2-4-0.4-5.9L41.3,66.3z M39.1,64.7c0.6,0.4,1.3,0.6,1.3,1.6c0,2.2,0.2,4.5,0.3,6.7c0,0.3,0.1,0.7-0.4,0.6
		c-0.4,0-0.7-0.1-0.7-0.6c-0.1-1.5-0.3-3.1-0.4-4.6c-0.1-1.2-0.2-2.4-0.3-3.6C39,64.8,39,64.8,39.1,64.7z M36.8,62.8
		c0.9,0.6,1.5,1.1,1.5,2.4c0,2,0.3,3.9,0.5,5.9c0.1,0.7,0.1,1.4,0.1,2c0,0.4-0.2,0.5-0.5,0.4c-0.1,0-0.3,0-0.4,0
		c-0.4,0-0.5-0.2-0.5-0.5c0-1.4,0-2.9-0.1-4.3c-0.1-1.9-0.3-3.7-0.5-5.6C36.7,63,36.7,62.9,36.8,62.8z M34.1,60.9c0-0.4,0-0.8,0-1.3
		c0.2,0.3,0.4,0.6,0.7,0.9c0.2,0.3,0.5,0.5,0.7,0.7c0.2,0.2,0.4,0.5,0.4,0.8c0.3,2.5,0.6,5.1,0.8,7.6c0.1,1.2,0,2.3,0,3.5
		c0,0.2,0,0.4,0,0.7c-0.6,0-1.1-0.1-1.7-0.1c-0.1,0-0.2-0.3-0.2-0.4c-0.2-2.5-0.3-5-0.5-7.5c0-0.4-0.1-0.8-0.1-1.3
		C34.1,63.3,34.1,62.1,34.1,60.9z M40.3,41.4c0.2,0.7,0.6,1.5,0.7,2.2c0.2,1.6,0.9,2.9,2,3.9c0.5,0.5,0.8,1.2,1.1,2
		c-0.6,0-1.2-0.1-1.7-0.1c-2.2,0-4.4,0-6.6,0c-0.6,0-1.1,0-1.7-0.1c-0.1,0-0.3-0.2-0.4-0.4c-0.2-0.4-0.3-0.9-0.6-1.2
		c-0.2-0.3-0.6-0.4-1-0.5c-0.5-0.1-0.8-0.2-1-0.7c-0.1-0.4-0.5-0.7-1-0.8c-0.3-0.1-0.6-0.4-0.9-0.5c0.5-1.2,0.5-1.8-0.3-2.6
		c-0.5-0.6-0.8-0.6-1.5-0.1c-1.1-0.9-1.8-0.8-2.3,0.3c-0.4-0.1-0.8-0.2-1.3-0.2c-0.6,0-0.7,0.5-0.7,1c-0.4-0.1-0.7-0.3-1.1-0.3
		c-0.5,0-0.9,0.1-1.4,0.1c-0.1,0-0.2,0.1-0.3,0.1c-0.6,0-0.9,0.3-1,0.8c0,0.2-0.3,0.3-0.4,0.4c-1,0.6-1.3,1-1.3,2.2
		c-0.3,0.1-0.7,0.1-1,0.2c0-1,0-2,0-2.9c0-0.9,0-1.7,0-2.6c0-0.5,0.1-0.7,0.6-0.6c1.9,0,3.9,0,5.8,0c0.9,0,1.8,0.1,2.7,0.2
		c0.7,0,1.4-0.1,2.1-0.1c0.3,0,0.7,0,1,0c1.1,0,2.2,0,3.3,0c0.2,0,0.4,0,0.6,0c0.4,0,0.7,0.1,0.9,0.7c0.4,1.1,0.9,1.3,2,0.7
		c0.1-0.1,0.3-0.1,0.5-0.2c0.2,1,0.2,1,1.2,0.9c0.2,0,0.5,0.2,0.7,0.3c0.2,0.1,0.3,0.3,0.5,0.4c0.3,0.3,0.7,0.5,1,0.8
		c0.3,0.3,0.7,0.5,1,0.2c0.1-0.1,0.1-0.3,0.1-0.4c0-0.1-0.2-0.1-0.3-0.2c-0.1-0.1-0.3-0.2-0.4-0.3c-0.3-0.3-0.7-0.5-1-0.8
		c-0.1-0.1-0.1-0.3-0.2-0.4c-0.1-0.2-0.2-0.4-0.3-0.5c0,0-0.3,0.1-0.4,0.2c-0.3,0.2-0.7,0.1-0.9-0.2c-0.3-0.3-0.5-0.7-0.9-1
		c-0.3-0.3-0.6-0.2-0.7,0.2c-0.2,0.4-0.4,0.7-0.8,0.5c-0.3-0.1-0.5-0.8-0.3-1.1c0.3-0.5,0.4-0.9-0.2-1.3c-0.1-0.1-0.1-0.3-0.1-0.5
		c0.3,0,0.6-0.1,0.8,0c0.4,0.2,0.8,0.6,1.2,0.8c0.2,0.1,0.5,0.1,0.8,0.1c0.2,0,0.5,0.1,0.7,0.1c0,0.1,0,0.1,0,0.2h-1.6
		c0,0.1,0,0.1,0,0.2c0.1,0.1,0.3,0.2,0.4,0.2c1,0.1,1.9,0.2,2.9,0.3C40,40.9,40.2,41,40.3,41.4z M16.8,40.2c0.2,0,0.3-0.1,0.5-0.1
		c1.1-0.1,2.1-0.1,3.2-0.1c1.3,0,2.6,0,3.9,0c0.6,0,1.3,0.1,1.9,0.2c1.2,0,2.5,0.1,3.7,0.1c0.2,0,0.5,0,0.7,0.1
		c-4.6,0.4-9.2,0.1-13.8,0.2C16.9,40.3,16.8,40.2,16.8,40.2z M20.4,29.7c0.5-0.1,0.8-0.2,1.2-0.3c0.3-0.1,0.5-0.1,0.7,0.3
		c0.1,0.2,0.4,0.3,0.6,0.3c0.3,0,0.5-0.1,0.8-0.2c0.2,1.5,1.5,1.5,2.5,1.9c0.2,0.1,0.6-0.2,1-0.3c0.3-0.1,0.6-0.2,0.9-0.1
		c0.8,0.2,1,0.1,1.4-0.6c0.1-0.1,0.3-0.2,0.4-0.2c0.4,0.1,0.8,0.1,1.2,0.3c0.3,0.1,0.6,0.3,0.4,0.7c-0.1,0.4,0,0.6,0.3,0.8
		c0.5,0.2,1,0.5,1.5,0.7c0.5,0.2,0.8,0,1.1-0.4c0.6-0.7,0.6-0.7,1.1,0c0.1,0.2,0.2,0.5,0.6,0.3c0.3-0.2,0.3-0.4,0.2-0.7
		c-0.2-0.6,0.4-0.7,0.7-1c0.2-0.1,0.5,0.1,0.7,0.1c0.1,0,0.1,0.1,0.1,0.2c0.2,1.2,1,2.2,0.5,3.5c-0.5,1.2,0.1,2.4,0.6,3.6
		c0.1,0.1,0.1,0.3,0.2,0.5c-0.8,0-1.4,0.1-2.1,0.1c0.9-1.2,1-2,0-2.5c0,0.3-0.1,0.6-0.1,0.9c0.1,0.8-0.4,1.2-1.2,0.9
		c-0.2-0.1-0.3-0.3-0.4-0.5c-0.1-0.1-0.1-0.3-0.1-0.5c-0.2-0.3-0.4-0.4-0.6,0c-0.2,0.3-0.3,0.4-0.7,0.4c-0.6-0.1-1.1-0.1-1.7-0.2
		c-0.1,0-0.3,0-0.4,0c-0.3,0.1-0.6,0.3-1,0.4c-0.5,0.1-0.8-0.1-0.8-0.6c0-0.3,0-0.6-0.3-0.6c-0.2,0-0.3,0.3-0.5,0.5
		c-0.1,0.1-0.1,0.2-0.2,0.3c-0.8,0.5-2.3,0.3-3.1-0.4c0.1-0.1,0.2-0.2,0.3-0.3c0.2-0.2,0.4-0.4,0-0.6c-0.2-0.1-0.2-0.5-0.2-0.7
		c0,0,0.3-0.1,0.4-0.2c0,0,0,0,0,0c-0.2-0.3-0.4-0.6-0.5-0.8c-0.2,0.3-0.6,0.5-0.6,0.8c0,0.6-0.3,1.1-0.6,1.6
		c-0.3,0.4-0.1,0.6,0.4,0.8c0.3,0.1,0.7,0.2,1,0.4c0.7,0.4,1.4,0.6,2.1,0.4c0.5-0.1,0.9-0.2,1.4-0.2c0.2,0.5,0.7,0.6,1.2,0.5
		c0.5-0.1,1-0.2,1.6-0.3c0.5-0.1,0.5,0.4,0.7,0.8c-0.8,0-1.6,0-2.3,0c-1.1,0-2.2,0-3.3-0.1c-0.3,0-0.6,0-0.9,0
		c-1.2-0.4-2.4-0.3-3.7-0.2c-1,0-1.9,0-2.8,0V29.7z M18.2,29.5c0.4,0.1,0.9,0.2,1.6,0.3c-0.1,3-0.1,6.2-0.2,9.4h-2.8
		c0-0.7,0-1.4,0-2.1c0-1.5,0-3.1-0.1-4.6c0-0.4-0.2-0.8-0.4-1.2c0-0.1-0.1-0.2-0.1-0.4C16.1,30,17.2,29.2,18.2,29.5z M15.5,48.8v-1
		c1.1,0.1,2.2,0.2,3.3,0.3c0,0,0,0.1,0,0.1c-0.2,0.1-0.3,0.2-0.5,0.3c-0.2,0.1-0.4,0.2-0.6,0.2c-0.1,0-0.2,0.2-0.3,0.1
		C16.8,48.5,16.1,48.8,15.5,48.8z M19.1,49.7c-1.1,0.3-2.3,0.3-2.6-0.1c0.2,0,0.3,0,0.4,0.1c0.4,0.2,0.8,0.1,1.1-0.2
		C18.5,49.1,18.7,49.2,19.1,49.7z M19.7,75.2c0,2.3-0.3,4.5-0.3,6.8c-0.1,2.2-0.1,4.5-0.1,6.7c0,0.5-0.1,0.9-0.1,1.4
		c-0.8,0-1.5,0-2.3,0c-0.4,0-0.4-0.2-0.4-0.5c0-1.6-0.1-3.3,0-4.9c0-2.3,0.1-4.6,0.1-6.9c0-2.3,0-4.6,0-6.9c0-1.9,0.1-3.8,0.1-5.8
		c0-1.9-0.1-3.8-0.1-5.7c0-1.6,0.1-3.2,0.1-4.8c0-0.7,0-1.3,0-2c0-0.4-0.2-0.8-0.3-1.1c-0.1-0.4,0.1-0.6,0.5-0.6
		c0.7,0,1.3-0.1,2-0.2c0.4,0,0.6,0.2,0.6,0.6c0,1.3,0.1,2.6,0.1,3.9c0,3.9,0,7.8,0,11.8C19.6,69.6,19.7,72.4,19.7,75.2z M21,87.2
		c0,0.8,0,1.5,0,2.3c0,0.2-0.1,0.5-0.3,0.6c-0.1,0.1-0.4,0.1-0.6,0C20,90,20,89.7,20,89.5c0.1-1.7,0.2-3.4,0.2-5.1
		c0-0.9,0-1.7,0-2.6c0,0,0,0,0,0c0.1,0.2,0.1,0.4,0.2,0.7c0,0.1,0.1,0.3,0.1,0.4c0.7,0.2,0.4,0.8,0.3,1.1C20.7,85.1,21,86.1,21,87.2
		z M21.5,80.8c-0.3,0-0.5,0-0.7-0.1c-0.2-0.1-0.2-0.6,0.1-0.7c0.8-0.2,1.7-0.4,2.5-0.6c0.1,0,0.3,0.2,0.3,0.3
		c0.3,1.3-0.3,2.2-1.7,2.3c-0.4,0-0.6-0.1-0.6-0.5C21.6,81.3,21.6,81,21.5,80.8z M21.8,84.5c-0.4-1.2,0.3-2.1,1.6-2.2
		c0.1,0.4,0.2,0.9,0.4,1.4C23.1,84,22.5,84.2,21.8,84.5z M22.5,88.2c0,0.6-0.1,1.2-0.1,1.9c-0.1,0-0.3-0.1-0.6-0.1
		c0-1.1,0-2.3,0-3.4c0-0.2,0.1-0.5,0.3-0.5c0.3-0.1,0.5,0.2,0.5,0.5C22.6,87.1,22.6,87.6,22.5,88.2z M23.7,85.3
		c-0.4,0-0.8-0.1-1.1-0.1c0-0.1,0-0.1,0-0.2c0.3-0.2,0.6-0.4,0.9-0.5c0.2,0,0.5,0.1,0.5,0.2C24.1,85,24,85.3,23.7,85.3z M25.4,89.8
		c0,0.1-0.2,0.2-0.3,0.2c-0.1-0.1-0.2-0.3-0.2-0.4c0-0.7,0-1.5,0-2.2c0-0.7-0.2-1.5,0.9-1.5C26.1,87.3,25.8,88.6,25.4,89.8z
		 M25,85.2c0-0.2,0-0.4,0.1-0.5c0.1-0.1,0.3-0.1,0.5-0.1c0,0.1,0.1,0.1,0.1,0.2c-0.2,0.2-0.3,0.3-0.5,0.5
		C25.1,85.2,25.1,85.2,25,85.2z M33.2,89.9c-2.1,0-4.2,0.1-6.2,0.1c-0.3,0-0.6,0.1-0.6-0.3c0-0.4-0.2-1,0.4-1
		c0.6-0.1,0.6-0.3,0.5-0.7c-0.1-0.4,0-0.8,0-1.2c0-1-0.1-1.9-0.2-3c2,0.1,3.9,0.2,5.8,0.2c0,0.1-0.1,0.1-0.1,0.2
		c0.3,0.3,0.6,0.5,0.8,0.8c0.1,0.1,0.2,0.3,0.2,0.4c0.1,1.3,0.1,2.6,0.1,3.9C33.9,89.7,33.7,89.9,33.2,89.9z M32.6,82.1
		c-1.8-0.3-3.7-0.4-5.5-0.6c-0.2,0-0.4,0-0.7,0.1c0-0.1,0-0.1,0-0.2c0.5-0.1,1-0.3,1.6-0.3c2.4,0,4.8,0.1,7.3,0.1
		c0.1,0,0.1,0,0.3,0.1C34.5,81.9,33.7,82.3,32.6,82.1z M34.9,89.8c-0.1,0-0.1,0-0.2,0v-3.5c0,0,0.1,0,0.1,0
		C35.1,87.4,35.1,88.6,34.9,89.8z M34.6,85.2c0-0.2-0.1-0.4-0.1-0.6c-0.1-0.4,0-0.7,0.5-0.9c0.4-0.1,0.7-0.4,1.1-0.6
		c0,0.3,0.1,0.6,0.1,0.8c0,0.3-0.1,0.4-0.4,0.5C35.4,84.7,35,85,34.6,85.2z M36.3,89.6c0,0.1-0.2,0.2-0.3,0.2
		c-0.1,0-0.2-0.2-0.2-0.3c0-0.9,0.1-1.9,0.2-2.8c0,0,0.1,0,0.1,0C36.4,87.7,36.4,88.7,36.3,89.6z M35.7,85.7c0-0.1,0-0.1-0.1-0.2
		c0.1-0.1,0.3-0.3,0.4-0.3c1,0,2.1,0,3.1,0.1c0.1,0,0.2,0.1,0.5,0.2C38.3,86.5,37,85.5,35.7,85.7z M39.8,86.9
		c-0.1,0.7-0.2,1.4-0.2,2.1c0,0.8,0,0.8-0.8,0.8c-0.5,0-1,0-1.5-0.1c-0.1,0-0.3-0.2-0.3-0.3c0-0.9,0-1.9,0-2.9
		c1,0.3,1.9,0.2,2.8-0.3C39.8,86.6,39.9,86.7,39.8,86.9z M40.9,89.7c-0.1,0-0.1,0-0.2,0c-0.4-0.6,0.4-7,1.1-7.4
		C41.5,84.7,41.2,87.2,40.9,89.7z M42.5,79.8c-0.3,0.6-0.7,1.1-1.1,1.7C41.1,80.8,41.7,80.1,42.5,79.8z M49.1,89.3
		c0,0.3-0.2,0.4-0.5,0.4c-0.9,0-1.8,0-2.7,0c-1.2,0-2.3,0.1-3.5,0.2c-0.5,0.1-0.6-0.1-0.6-0.6c0.1-0.6,0.2-1.2,0.2-1.8
		c0.2-1.9,0.3-3.8,0.6-5.7c0.1-0.6,0.4-1.2,0.7-1.8c0.4-0.7,0.3-1.1-0.5-1.2c-0.5-0.1-0.9,0.1-1.4,0.5c-1.1,0.9-0.9,2.1-1,3.2
		c-0.1,0.6-0.1,1.2-0.2,1.8c0,0.3-0.2,0.4-0.5,0.4c-0.7,0-1.3-0.1-2,0c-0.4,0-0.7-0.1-0.7-0.6c0-0.5-0.3-1,0.3-1.4
		c0.1-0.1-0.1-0.4-0.1-0.5c0-0.3-0.1-0.6,0-0.8c0.2-0.5,0-0.8-0.5-0.8c-2.2-0.1-4.3-0.2-6.5-0.2c-0.8,0-1.6,0-2.4-0.1
		c-0.4,0-0.8,0-1.2,0.3c-0.6,0.4-1.3,0.6-2,0.9c-0.1-0.8-0.1-1.5-0.1-2.1c0-0.1,0-0.3-0.1-0.4c-0.2-0.6-0.3-0.7-0.9-0.3
		c-1,0.6-2.1,0.8-3.3,0.9c0-1-0.1-1.9,0-2.8c0.2-3,0.2-6.1,0.1-9.1c-0.1-2.7,0-5.4-0.1-8c0-1.9-0.1-3.8-0.1-5.7c0-0.9,0-1.7,0-2.6
		c0-0.3,0.2-0.4,0.5-0.4c2.1,0.1,4.2,0.1,6.4,0.2c0.7,0,1.4,0.1,2.1,0.1c0.2,0,0.4-0.2,0.5-0.3c0-0.1-0.1-0.3-0.2-0.4
		c-0.3-0.8-1-1-1.7-1.2c-0.1,0-0.2-0.1-0.3-0.2c-0.3-0.3-0.6-0.3-0.8,0.1c-0.2,0.3-0.3,0.6-0.7,0.3c-0.4-0.2-1-0.1-0.9-0.9
		c0-0.1,0-0.2,0-0.3c0-0.3-0.1-0.7-0.5-0.6c-0.2,0-0.4,0.4-0.4,0.6c0,0.5-0.3,0.7-0.8,0.7c-0.4,0-0.8,0.1-1.1,0.2
		c-0.4,0.1-0.5-0.1-0.5-0.4c0-0.2-0.2-0.4-0.3-0.6c-0.2,0.2-0.4,0.3-0.5,0.5c-0.1,0.5-0.4,0.7-0.8,0.7c-0.5,0-0.7-0.3-0.7-0.6
		c0.4-0.4,0.7-0.7,0.9-1.1c0.1-0.1-0.1-0.4-0.1-0.7c-0.2,0.1-0.4,0.1-0.6,0.2c-0.3,0.1-0.7,0.4-1,0c-0.3-0.4,0-0.7,0.3-0.9
		c0.4-0.3,0.8-0.6,1.3-0.2c0.1,0.1,0.4,0,0.5-0.1c0.1-0.1,0.1-0.4,0-0.5c-0.1-0.2-0.3-0.4-0.4-0.5c1.1-1,2.2-0.4,3.3,0
		c0.2,0.1,0.5,0.1,0.8,0.1c0-0.3,0-0.5,0-0.8c0-0.1-0.1-0.3-0.2-0.6c0.5,0.2,0.8,0.3,1.2,0.4c0.2,0.1,0.5,0.1,0.8,0.1
		c0-0.2,0.1-0.5,0.1-0.7c0-0.1,0-0.2,0.1-0.4c0.3,0.2,0.6,0.4,0.9,0.7c0.6,0.7,0.7,0.7,1.1-0.1c0,0,0.1-0.1,0.1-0.1
		c0.7,0.3,1,1,0.5,1.6c-0.1,0.1-0.2,0.2-0.3,0.4c-0.1,0.2-0.1,0.5-0.2,0.7h0.7c0.1,0.5,0.6,0.8,1.2,1c0.3,0.1,0.3,0.3,0.1,0.6
		c-0.1,0.1-0.1,0.4-0.1,0.5c0.2,0,0.4,0.1,0.6,0.1c0.5,0,1.1,0,1.6,0.1c0.3,0.1,0.5,0.7,0.4,0.9c-0.2,0.3-0.6,0.6-1,0.6
		c-0.5,0-0.8,0-0.6,0.6c0,0.1-0.1,0.2-0.3,0.5c-0.5-1.8-1.8-2.7-3-3.9c0,0.2-0.1,0.4,0,0.5c0.1,0.2,0.2,0.4,0.4,0.6
		c1.7,1.2,2.3,3.1,3,4.9c0.7,1.7,1.3,3.4,1.9,5.1c0.2,0.5,0.1,1,0.2,1.5c0,0.6,0.1,1.3,0.1,1.9c0,0.4,0,0.9,0,1.3
		c0.1,2.7,0.2,5.5,0.3,8.2c0,0.9,0.1,1.7,0.1,2.6c0,0.4,0.2,0.8,0.3,1.1c0,0.1,0.1,0.2,0.2,0.2c0.5,0,1,0.1,1.5,0
		c0.9-0.1,1.8-0.3,2.7-0.3c2,0.1,4.1-0.2,6.1-0.1c0.9,0,0.9,0,1.2,0.9c0.2,0.7,0.6,1.4,0.9,2.1c0.3,0.9,0.5,1.8,0.8,2.7
		c0.4,1.4,0.8,2.8,1.2,4.2C49.2,85.9,49.1,87.6,49.1,89.3z M22.5,49.6c1,0,2-0.5,3,0.4c-1.1-0.1-2-0.1-3-0.2
		C22.5,49.8,22.5,49.7,22.5,49.6z M26.8,50.1c0-0.1,0-0.2,0-0.2c0.5-0.3,0.9,0.1,1.4,0.1c0,0.1,0,0.1,0,0.2
		C27.7,50.2,27.2,50.1,26.8,50.1z M87.7,79.6c0,0.2-0.1,0.5,0,0.6c0.3,0.5,0.7,0.9,1.1,1.3c0.1,0.1,0.2,0.1,0.3,0.1
		c0.1,0,0.1-0.2,0.3-0.4c-0.3-0.5-0.7-1.1-1.1-1.5C88.2,79.6,87.9,79.7,87.7,79.6z M98.2,66C98.2,66,98.2,66,98.2,66L98.2,66
		C98.2,66,98.2,66,98.2,66C98.2,66,98.2,66,98.2,66C98.2,66,98.2,66,98.2,66z M98.4,66.7c1.1,0.3,2.1,0.5,3.2,0.7c0,0,0.1,0,0.1,0
		c0.2-0.1,0.4-0.2,0.6-0.3c-0.2-0.1-0.3-0.3-0.5-0.4c-0.2-0.1-0.5-0.2-0.7-0.2c-0.8-0.2-1.5-0.4-2.3-0.5c-0.2,0-0.4,0-0.6,0.1
		C98.3,66.2,98.3,66.7,98.4,66.7z M56.2,71.5c0.4,0,0.6-0.2,0.7-0.6c0-0.2,0.2-0.4,0.2-0.6c0.1,0,0.1,0,0.2,0.1c0,0.2,0,0.4,0.1,0.6
		c0.2,0.5,0.8,0.7,1.1,0.3c0.3-0.4,0.5-0.9,0.9-1.6c-0.6,0-1.1-0.1-1.5,0c-0.2,0.1-0.4,0.2-0.7,0c-0.9-0.5-1.4-0.4-1.6,0.4
		c-0.1,0.2,0,0.4,0,0.7C55.7,71.2,55.8,71.5,56.2,71.5z M51.5,71.2c0.1,0.2,0.1,0.3,0.2,0.5c0.1-0.1,0.3-0.1,0.4-0.2
		c0.1-0.1,0.3-0.2,0.4-0.3c0.2-0.2,0.5-0.4,0.4-0.5c-0.1-0.3-0.2-0.8-0.5-0.9c-0.7-0.3-1.1,0.1-1.1,1C51.5,70.9,51.4,71.1,51.5,71.2
		z M53.4,71.2c0,0-0.1,0-0.1,0c0.1,0.2,0.2,0.4,0.3,0.7c0.2-0.2,0.3-0.3,0.5-0.5c0.1-0.1,0.3-0.2,0.4-0.3c0.4-0.2,0.6-0.4,0.3-0.9
		c-0.3-0.6-0.6-0.5-1-0.4c-0.4,0.1-0.7,0.4-0.5,0.9C53.4,70.9,53.4,71,53.4,71.2z M71.3,56.2c0.2,0.1,0.6-0.1,0.7-0.2
		c0.2-0.3-0.1-0.5-0.3-0.6c-0.7-0.4-1.4-0.8-2-1.2c-0.1-0.1-0.2-0.1-0.4-0.2c-0.1,0.1-0.4,0.3-0.4,0.4c0,0.2,0.1,0.5,0.2,0.6
		C69.8,55.3,70.5,55.8,71.3,56.2z M73.6,54.7c0-0.1-0.2-0.4-0.2-0.4c-0.4,0-0.5,0.3-0.5,0.7C73.3,55.2,73.6,55.1,73.6,54.7z
		 M73.9,72c0-0.1-0.2-0.2-0.3-0.2c-0.3,0-0.8,0.9-0.9,1.3C73.2,72.9,73.9,72.3,73.9,72z M78.8,75.6c-0.2,0.1-0.4,0.3-0.5,0.5
		c-0.5,1-1,2.1-1.4,3.1c-0.1,0.2,0,0.4,0,0.6c0.2-0.1,0.4-0.3,0.5-0.4c0.4-0.7,0.7-1.5,1.1-2.3c0.2-0.4,0.4-0.9,0.7-1.4
		C79.1,75.7,78.9,75.6,78.8,75.6z M77.7,73.2c-0.1-0.1-0.2-0.3-0.4-0.4c-0.2,0.2-0.4,0.3-0.5,0.5c-0.6,1.2-1.2,2.3-1.9,3.5
		c-0.1,0.3-0.3,0.5-0.5,0.7c-0.1,0.1,0,0.3,0,0.5c0.2,0,0.4,0,0.5-0.1c0.2-0.2,0.4-0.5,0.5-0.7c0.7-1.1,1.3-2.2,1.9-3.4
		C77.5,73.7,77.6,73.5,77.7,73.2z M75.4,72.5c-0.1-0.1-0.2-0.3-0.3-0.3c-0.1,0-0.4,0.1-0.4,0.2c-0.5,1-1.2,1.8-2,2.6
		c-0.1,0.1-0.1,0.3-0.1,0.4c0.1,0,0.3,0,0.4-0.1c0.7-0.7,1.4-1.5,2.1-2.2C75.3,73,75.3,72.8,75.4,72.5z M87.5,66.4
		c0-0.3-0.1-0.5-0.1-0.7c0-0.6-0.4-1.3,0.3-1.8c0,0,0.1-0.2,0-0.2c-0.1-0.1-0.2-0.2-0.3-0.1c-0.4,0.1-0.7,0.3-1,0.5
		c-0.1,0.1-0.1,0.4-0.1,0.5c0.1,0.6,0.4,1.2,0.5,1.9c0.2,1.3,0.2,1.3,1.3,0.6c0.2-0.1,0.3-0.3,0.4-0.5c-0.2-0.1-0.4-0.2-0.6-0.2
		C87.8,66.3,87.7,66.4,87.5,66.4z M96.2,71.4c1.2,0.3,2.3,0.7,3.4,1.4c0-0.2,0-0.4-0.1-0.6c-0.2-0.3-0.4-0.6-0.7-0.7
		c-0.8-0.4-1.6-0.7-2.4-1.1c-0.4-0.1-0.6,0-0.7,0.3C95.8,71,96,71.4,96.2,71.4z M95,74.5c0.2-0.1,0.4-0.1,0.5-0.1
		c0.1-0.1,0.2-0.2,0.4-0.4c-0.1-0.1-0.2-0.2-0.4-0.3c-0.2-0.1-0.5-0.2-0.7-0.3c-0.2,0-0.4-0.1-0.5,0c-0.1,0.2-0.1,0.5,0,0.5
		C94.5,74.3,94.8,74.4,95,74.5z M90.2,63.1C90.2,63.1,90.2,63.1,90.2,63.1L90.2,63.1C90.2,63.1,90.2,63.1,90.2,63.1
		C90.2,63.1,90.2,63.1,90.2,63.1C90.2,63.1,90.2,63.1,90.2,63.1z M99.6,69c0.6,0.2,1.2,0.3,1.9,0.5c0.5,0.1,1,0.3,1.5,0.4
		c0.2-0.1,0.3-0.2,0.5-0.3c-0.2-0.1-0.3-0.2-0.5-0.2c-0.4-0.1-0.8-0.2-1.2-0.3c-0.7-0.3-1.3-0.6-1.9-0.9c-0.3-0.2-0.6-0.2-0.8,0.2
		C98.9,68.7,99.2,68.9,99.6,69z M97.2,69.4c0.4,0.1,0.9,0.1,1.5,0.2c0.1,0,0.3,0,0.4-0.1c0.1-0.1,0.1-0.4,0-0.4
		c-0.6-0.2-1.1-0.5-1.7-0.6c-0.1,0-0.4,0.2-0.5,0.4C97,69,97.1,69.3,97.2,69.4z M93.9,77.9c-0.6-0.7-1.3-1.4-1.9-2.1
		c-0.1-0.1-0.4-0.1-0.6-0.2c0,0.2-0.1,0.4-0.1,0.7c0,0.1,0.2,0.2,0.3,0.4c0.6,0.6,1.1,1.2,1.7,1.8c0.5,0.6,1.1,1.1,1.6,1.7
		c0.1,0.1,0.3,0.1,0.4,0.1c0.1,0,0.1-0.2,0.2-0.4c-0.2-0.3-0.4-0.6-0.6-0.9C94.6,78.6,94.2,78.3,93.9,77.9z M45.6,58.1
		c0,0.1-0.1,0.2-0.1,0.2c0.2,0.4,0.3,0.8-0.1,1.1c-0.1,0.1,0.2,0.5,0.3,0.7c0.1,0.1,0.4,0,0.5-0.1C46.8,59.5,46.5,58.5,45.6,58.1z
		 M54,41.5c0.2,0,0.4-0.2,0.4-0.3c0-0.2-0.2-0.4-0.3-0.6c-0.1,0.1-0.2,0.1-0.3,0.2c-0.1,0.2-0.3,0.4-0.2,0.5
		C53.6,41.4,53.9,41.6,54,41.5z M46.1,68.5c0,0.1,0.2,0.3,0.3,0.4c0.4,0.2,0.8,0.4,1.2,0.6c0.1,0.1,0.3,0,0.5,0.1
		c0-0.2,0.1-0.4,0-0.5c-0.4-0.5-0.9-0.8-1.7-0.9C46.4,68.2,46.2,68.4,46.1,68.5z M44.7,58.1c0-0.1-0.2-0.4-0.4-0.4
		c-0.6,0-1.2,0.1-1.8,0.1c-0.7,0-1.5,0.4-2-0.4c-0.1-0.1-0.3,0-0.4,0c-0.5,0-1,0.2-1.4,0c-0.6-0.2-1.1-0.2-1.7-0.1
		c-0.2,0-0.5,0-0.8,0c-0.3,0-0.5,0-0.8,0c-0.3,0-0.6,0-1.1,0.1c0,0.2,0,0.7,0.2,0.9c0.8,1,1.7,2,2.7,3c0.4,0.4,0.9,0.8,1.4,1.1
		c1.3,1,2.7,2,4,3c0.2,0.1,0.4,0.3,0.5,0.4c0.7,0.7,1.4,1.5,2.2,2.2c0.1,0.1,0.4,0.1,0.7,0.1c0-0.2,0-0.5-0.1-0.7
		c-0.1-0.2-0.4-0.4-0.4-0.6c-0.1-0.8-0.2-1.6-0.2-2.4c0-0.8,0.1-1.6,0.2-2.4c0.1-0.6-0.1-1.1-0.4-1.6c-0.4-0.5-0.6-1.1-0.4-1.8
		C44.7,58.5,44.8,58.3,44.7,58.1z M36.4,58.6c0-0.1,0.2-0.3,0.3-0.4c0.4-0.1,0.8-0.1,1.2-0.2c0.1,0.9,0.1,1.8,0.2,2.7
		C37.3,60.5,36.3,59.6,36.4,58.6z M40.2,62.7c-0.2-0.2-0.4-0.3-0.5-0.4c-0.5-0.4-1-0.7-0.8-1.5c0.2-0.6-0.1-1.2-0.1-1.9
		c0-0.2,0.2-0.5,0.2-0.5c0.2,0,0.5,0.1,0.7,0.3c0.1,0.1,0.1,0.4,0.1,0.5c-0.4,0.5,0,1,0,1.5c0,0.1,0,0.3,0.1,0.4
		C40.4,61.5,40.3,62,40.2,62.7z M40.6,59.2c0-0.4,0.2-0.4,0.5-0.4c0.9-0.1,1.8-0.1,2.7-0.2c0,0.9,0,0.9-0.8,0.9
		c-0.6,0-1.2,0.1-1.8,0.2C40.8,59.7,40.6,59.6,40.6,59.2z M40.8,63.2c0.1,0,0.1,0,0.2,0c-0.1-0.8-0.1-1.6-0.2-2.3
		c0-0.1,0.1-0.3,0.2-0.5c0.1,0.1,0.3,0.3,0.3,0.4c0.1,0.9,0.1,1.8,0.2,2.8C41.2,63.4,41,63.3,40.8,63.2z M44.7,62
		c-0.1,1.2-0.1,2.4-0.2,3.5c0,0.1,0,0.2-0.1,0.3c-0.8-0.6-1.6-1.2-2.2-1.7c0-0.8-0.1-1.4-0.1-2.1c0-0.5-0.1-0.9,0-1.4
		c0-0.2,0.2-0.4,0.4-0.5C43.7,59.9,44.8,60.8,44.7,62z M96.4,77.3c0-0.2,0-0.4-0.1-0.5c-0.8-0.7-1.6-1.4-2.4-2.1
		c-0.1-0.1-0.3-0.1-0.4-0.2c-0.1,0.1-0.3,0.2-0.3,0.3c0,0.2,0,0.5,0.2,0.6c0.8,0.7,1.7,1.3,2.5,1.9C96,77.4,96.3,77.3,96.4,77.3z
		 M95.5,73.1c0.7,0.5,1.4,1.1,2.1,1.6c0.2,0.2,0.5,0.3,0.8,0.4c0.1,0,0.3-0.1,0.5-0.2c-0.3-0.2-0.4-0.4-0.6-0.5
		c-0.8-0.7-1.7-1.4-2.5-2.1c-0.1-0.1-0.4,0-0.6,0c0,0.2,0,0.4,0,0.7C95.3,73,95.4,73,95.5,73.1z M100.1,58.8c-0.3,0-0.6,0.1-0.8,0.2
		c-0.1,0-0.1,0.2-0.1,0.3c0,0.1,0.1,0.2,0.2,0.2c0.4,0,0.8,0,1.3,0c0.6,0,1.4-0.5,1.5-1C101.5,58.8,100.8,58.9,100.1,58.8z
		 M102.2,58.6C102.2,58.6,102.2,58.6,102.2,58.6C102.2,58.6,102.2,58.6,102.2,58.6C102.2,58.6,102.2,58.6,102.2,58.6
		C102.2,58.6,102.2,58.6,102.2,58.6L102.2,58.6z M102.1,58c0,0.2,0,0.4,0.1,0.6c0.2,0,0.4-0.1,0.5-0.1c0.1-0.1,0.2-0.3,0.1-0.4
		c0-0.1-0.2-0.2-0.3-0.2C102.4,57.8,102.1,57.9,102.1,58z M88.5,63.4c-0.4,0.6-0.3,1.2-0.1,1.9c0.2,0.7,0.6,1,1.2,1.1
		c0.5,0.1,0.6-0.4,0.8-0.7c0.4-0.6,0.3-1.3-0.1-2c-0.1-0.1-0.1-0.4-0.1-0.6C89.6,62.6,89,62.7,88.5,63.4z M89.9,64.6
		c0,0,0.1,0.1,0.1,0.1l-0.5,0.8c-0.2-0.3-0.3-0.5-0.5-0.8C89,64.5,89,64.3,89,64C89.3,64.3,89.3,65.1,89.9,64.6z M102.1,64.3
		c-0.6-0.1-1.3-0.2-2-0.3c-0.2,0-0.5-0.1-0.7,0c-0.1,0-0.4,0.3-0.3,0.3c0,0.2,0.2,0.4,0.4,0.4c0.7,0.1,1.3,0.2,2,0.3c0,0,0,0,0-0.1
		c0.2,0,0.4,0.1,0.6,0c0.2-0.1,0.4-0.3,0.6-0.4C102.5,64.5,102.3,64.4,102.1,64.3z M99.9,61.7c-0.3,0-0.7,0.1-0.7,0.5
		c0,0.5,0.4,0.3,0.7,0.3c0.1,0,0.3,0,0.4-0.1c0.5-0.1,1-0.1,1.5-0.1c0.4,0,0.8-0.1,0.8-0.5c0-0.1-0.4-0.3-0.6-0.4
		C101.2,61.5,100.5,61.6,99.9,61.7z M112,57.7c-0.1-0.1-0.2-0.2-0.3-0.2c-0.1,0-0.2,0.1-0.3,0.2c-0.2,0.3,0.2,1.5,0.5,1.8
		C112.2,59.2,112.3,58,112,57.7z M113,59.1c0.4-0.1,0.6,0.1,0.7,0.4c0,0.1,0.2,0.2,0.3,0.2c0.1,0,0.3-0.2,0.3-0.3c0-0.3,0-0.7-0.1-1
		c-0.2-0.8-0.3-0.8-0.9-0.4c-0.3-0.2-0.6-0.4-0.7-0.4c-0.4,0.2-0.4,0.6-0.3,0.9C112.5,58.8,112.8,59.1,113,59.1z M99.7,53.9
		c-0.2-0.1-0.5-0.3-0.6-0.2c-0.5,0.3-1,0.6-1.5,0.9c-0.1,0.1-0.1,0.4-0.1,0.6c0.2,0,0.4,0.1,0.6,0c0.4-0.2,0.8-0.4,1.1-0.7
		C99.4,54.4,99.5,54.2,99.7,53.9z M97.8,52.6c-0.2,0-0.5-0.1-0.6,0c-0.3,0.3-0.2,0.6,0.4,0.8C97.7,53.1,97.7,52.9,97.8,52.6z
		 M102.3,55.5c0-0.1-0.1-0.3-0.2-0.4c-0.1-0.1-0.3,0-0.5,0.1c-0.3,0.1-0.5,0.3-0.8,0.4c-0.6,0.2-1.3,0.4-1.9,0.7
		c-0.2,0.1-0.4,0.3-0.5,0.5c0,0.1,0.1,0.2,0.1,0.4c0.2-0.1,0.3-0.1,0.4-0.1c1-0.4,2-0.7,3-1.1C102.1,55.9,102.2,55.7,102.3,55.5z"/>
</g>
<g>
	<g>
		<path fill="#F7AEA8" d="M52.5,123.8c-0.3,0-0.5-0.2-0.6-0.5c0-0.6-0.1-1-0.1-1.4l0-0.7c0-0.5,0-0.8,0-1.2c0-0.4,0-0.8,0-1.4
			c0-0.4,0-0.7,0-1c0-0.3,0-0.7,0-1.1c-0.1-0.7-0.1-1.1,0.1-1.3c0.1-0.1,0.3-0.2,0.6-0.2c0.3,0,0.6,0,0.8,0.1c0.2,0,0.3,0.1,0.6,0.1
			c0.2,0,0.4,0,0.5,0c0.2,0,0.4,0,0.5,0c0.2,0,0.3,0,0.5,0c0.2,0,0.5,0,1,0.1c0.7,0.1,1.7,0.3,2.3,1.2c0.3,0.6,0.5,1,0.5,1.8
			c-0.1,0.8-0.5,1.1-1.1,1.6c-0.6,0.4-1.7,0.7-3.3,0.8c-0.3,0-0.5,0-0.7,0c-0.9,0-1,0-1,0.3c-0.1,0.4,0,1.3,0.2,2.2
			c0,0.2,0,0.3-0.1,0.5C53,123.7,52.7,123.8,52.5,123.8z M53.3,116.3c-0.4,0-0.4,0.1-0.4,0.3c0,0.5,0,0.9,0,1.4c0,0.2,0,0.5,0,0.7
			c0,0.9,0.1,0.9,0.2,0.9c0.3,0,0.6,0,0.8,0h0.3c0.2,0,0.3,0,0.5,0l0.2,0c0.5,0,0.6,0,1.2-0.1c0.1,0,0.2,0,0.3,0
			c0.3,0,0.7-0.1,0.9-0.3c0.5-0.4,0.6-0.5,0.7-1c0.1-1-0.1-1.4-1.3-1.6c-0.7-0.1-0.9-0.1-1.7-0.1l-0.3,0c-0.4,0-0.6,0-1,0l-0.1,0
			C53.5,116.3,53.4,116.3,53.3,116.3z"/>
	</g>
	<g>
		<path fill="#F7AEA8" d="M62.6,123.8c-0.3,0-0.5-0.2-0.5-0.5c-0.1-0.8-0.1-1.3-0.1-2c0-0.6,0-1.2,0-1.8l0-1c0-0.2,0-0.5,0-0.8
			c0-0.3,0-0.6,0-0.9l0-0.4c0-0.3,0-0.5,0-0.8c0-0.2,0.1-0.3,0.1-0.4c0.1-0.1,0.2-0.2,0.4-0.2c0.3,0,0.8,0.3,0.8,0.7
			c0,0.3,0,0.4,0,0.5c0,0.1,0,0.2,0,0.5c0,0.3,0,1.5,0,1.8c0,0.2,0,0.3,0,0.5c0,0.1,0,0.2,0,0.2c0,0.3,0,0.6,0,1l0,0.5
			c0,0.2,0,0.5,0,0.8c0,0.5,0,1.1,0.1,1.6c0,0.2,0,0.3-0.2,0.5C63,123.7,62.8,123.8,62.6,123.8z"/>
	</g>
	<g>
		<path fill="#F7AEA8" d="M68,123.8c-0.5,0-0.7-0.2-0.8-0.4c-0.1-0.2-0.2-0.4-0.2-0.8l0-1.3c0-1.4,0-2.3,0-4.1c0-0.2,0-0.3,0-0.4
			c0-0.2,0-0.3,0-0.7c0-0.3,0-0.6,0.2-0.8c0.1-0.2,0.4-0.3,0.7-0.3l0.1,0c0.3,0,0.5,0,0.6,0c0.2,0,0.4,0,0.6,0c0.5,0,0.8,0,1.1,0
			l0.6,0c0.2,0,0.4,0,0.6,0c0.3,0,0.6-0.1,1-0.1l0.2,0c0.3,0,0.5,0.3,0.5,0.6c0,0.3-0.2,0.5-0.4,0.5c-0.4,0-0.8,0-1.1,0
			c-0.2,0-0.4,0-0.6,0c-0.2,0-0.4,0-0.5,0c-0.1,0-0.3,0-0.5,0c0,0-0.5,0-0.5,0c-0.3,0-0.6,0-0.9,0.1l-0.4,0c0,0-0.1,0-0.1,0
			c0,0.1,0,0.7,0,0.9c0,0.4,0,0.7,0,1.1c0,0.4,0,0.8,0,1.1c0,0.1,0,0.1,0,0.2c0,0,0,0,0,0c0,0,0.1,0,0.2,0c0.1,0,0.7,0,0.7,0
			c0.6,0,1,0,1.4,0l0.5,0l0.5,0c0.3,0,0.5,0,0.8,0c0.2,0,0.3,0,0.5,0c0.3,0,0.4,0.3,0.5,0.6c0,0.3-0.2,0.5-0.4,0.5
			c-0.2,0-0.4,0-0.6,0c-0.5,0-0.9,0-1.3,0l-0.9,0c-0.2,0-0.3,0-0.9,0c-0.4,0-1,0-1,0.1c0,0.3,0.1,0.6,0.1,1.1l0,0.8
			c0,0.1,0,0.1,0.3,0.1c0.1,0,0.3,0,0.5,0c0.1,0,0.3,0,0.4,0c0.5,0,0.8,0,1,0c0.2,0,0.4,0,0.7,0c0.4,0,0.7,0,1,0c0.2,0,0.7,0,0.7,0
			c0.2,0,0.4,0.2,0.4,0.4c0,0.2,0,0.6-0.3,0.7c-0.2,0-0.3,0.1-0.6,0.1c-0.2,0-0.4,0-0.6,0c-0.2,0-0.3,0-0.5,0l-0.7,0
			c-0.3,0-0.6,0-1.1,0c-0.4,0-0.6,0-0.8,0C68.5,123.8,68.1,123.8,68,123.8L68,123.8z"/>
	</g>
	<g>
		<path fill="#F7AEA8" d="M81.7,123.8c-0.2,0-0.4-0.1-0.4-0.2c-0.2-0.4-0.2-0.9-0.2-1.4c0-0.2,0-0.4,0-0.6c0-0.7,0-1.2,0-1.7
			c0-0.4,0-0.7,0-1.2c0-0.3,0-0.6,0-0.8c0-0.2,0-0.5,0-0.8c0-0.2,0-0.4,0-0.6c0-0.3,0-0.5,0-0.9l0-0.1l0.1-0.2
			c0.1-0.1,0.4-0.2,0.5-0.2c0.3,0,0.5,0.1,0.6,0.4c0,0.4,0,0.7,0,1.1c0,0.2,0,0.4,0,0.6c0,0.3,0,0.5,0,0.7c0,0.2,0,0.5,0,0.8
			s0,0.6,0,0.9l1.1,0c0.2,0,0.3,0,0.5,0c0.1,0,0.2,0,0.4,0c0.3,0,0.6,0,0.9-0.1l0.2,0c0.3,0,0.6,0,0.8,0c0.3,0,0.6,0,0.9,0l0.5,0
			c0.1,0,0.1,0,0.1,0c0,0,0,0,0,0c0,0,0-0.1,0-0.2c0-0.5,0-0.8,0.1-1.2c0-0.4,0.1-0.8,0-1.3c0-0.6-0.1-0.9-0.1-1.1
			c0-0.2,0-0.3,0-0.5c0-0.3,0.3-0.5,0.7-0.5c0.3,0,0.5,0.2,0.5,0.4c0.1,0.6,0.1,0.9,0.1,1.4l0,0.4c0,0.5,0,1,0,1.4
			c0,0.3,0,0.7,0,1.1c0,0.3,0,0.6,0,0.9c0,0.4,0,0.7,0,1.2c0,0.4,0,0.6,0,0.9c0,0.3,0,0.5,0,0.9c0,0.3-0.3,0.4-0.6,0.4
			c-0.2,0-0.4-0.1-0.5-0.2c-0.1-0.1-0.1-0.2-0.1-0.3c0-0.4,0-0.5,0-0.7c0-0.2,0-0.3,0-0.6c0-0.2,0-0.4,0-0.7c0-0.1,0-0.3,0-0.4
			c0,0,0,0,0,0c0,0-0.2,0-0.7,0c-0.4,0-0.9,0-1.5,0.1c-0.2,0-0.3,0-0.5,0c-0.3,0-0.6,0-0.8,0c-0.3,0-0.6,0-0.8,0l-1,0
			c0,0.2,0,0.5,0,0.8l0,0.1c0,0.6,0,0.8,0.1,1.2c0,0.1,0.1,0.3,0.1,0.5l0,0.1l-0.1,0.1C82.1,123.7,81.8,123.8,81.7,123.8z"/>
	</g>
	<g>
		<path fill="#F7AEA8" d="M95.4,123.6c-0.6,0-1.1-0.1-1.6-0.4c-0.7-0.4-1.4-1.2-1.7-2.1c-0.2-0.4-0.3-0.9-0.4-1.5
			c-0.1-2.3,0.8-3.8,2.6-4.2c0.3-0.1,0.9-0.2,1.4-0.2c1.3,0,2.4,0.4,3.2,0.9c0.8,0.6,1.2,1.5,1.3,3c0.1,1,0,1.7-0.3,2.3
			c-0.3,0.7-0.8,1.2-1.4,1.6c-0.7,0.4-1.6,0.6-2.3,0.6C95.8,123.5,95.6,123.6,95.4,123.6z M95.5,116.3c-0.8,0-1.4,0.2-1.8,0.6
			c-0.6,0.6-0.9,1.7-0.8,2.8c0.1,0.9,0.5,1.8,1.2,2.2c0.4,0.3,0.9,0.4,1.6,0.4c0.1,0,0.2,0,0.3,0c0.7,0,1.3-0.2,1.8-0.5
			c0.5-0.3,0.8-0.6,1-1.1c0.1-0.3,0.3-0.9,0.3-1.6c-0.1-1.2-0.2-2-0.9-2.4c-0.5-0.3-1.2-0.5-2.5-0.5L95.5,116.3z"/>
	</g>
	<g>
		<path fill="#F7AEA8" d="M104.9,123.8c-0.3,0-0.5,0-0.6,0c-0.1,0-0.1,0-0.3,0c-0.4,0-1-0.1-1.1-1c-0.1-0.5,0-0.9,0-1.4
			c0-0.2,0-0.4,0-0.7l0-0.4c0-0.6,0-1.3,0-1.9c0-0.4,0-0.6,0-0.9c0-0.3,0-0.6,0-1c0-0.1,0-0.3,0-0.4c0-0.2,0-0.4,0-0.6
			c0-0.1,0-0.3,0.1-0.4c0.1-0.1,0.3-0.2,0.5-0.2c0.2,0,0.4,0.1,0.5,0.2c0.1,0.1,0.2,0.2,0.2,0.4c0,0.4,0,0.7,0,1.1
			c0,0.5,0,1-0.1,1.7c0,0.8-0.1,1.9-0.1,2.7c0,0.7,0,1.1,0.1,1.5c0,0.1,0.3,0.1,0.6,0.1c0,0,0.5,0,0.5,0c0.4,0,0.7,0,0.9-0.1
			c0.2,0,0.5,0,0.8,0l0.3,0c0.2,0,0.4,0,0.6,0c0.1,0,0.2,0,0.3,0c0.2,0,0.4,0,0.5-0.1c0.1,0,0.3,0,0.4-0.1c0,0,0,0,0,0
			c0.4,0,0.6,0.2,0.6,0.6c0,0.3-0.1,0.7-0.4,0.7c-0.3,0-0.6,0-0.9,0c-0.3,0-0.5,0-0.8,0c-0.3,0-0.5,0-0.8,0l-0.4,0
			c-0.2,0-0.5,0-0.8,0.1C105.5,123.8,105.1,123.8,104.9,123.8z"/>
	</g>
	<g>
		<path fill="#F7AEA8" d="M118.2,123.8c-0.3,0-0.6,0-0.9,0c-0.2,0-0.4,0-0.6,0c-0.3,0-0.6,0-0.9,0c-0.3,0-0.7,0-1.1,0
			c-0.3,0-0.6,0-0.8,0c-0.2,0-0.4,0-0.7,0h0c-0.6,0-0.7-0.7-0.7-0.9c-0.1-2.4-0.2-3.3-0.1-5.7c0-0.2,0-0.4,0-0.5c0-0.3,0-0.5,0-0.9
			c0-0.3,0-0.4,0.1-0.6c0.1-0.1,0.3-0.2,0.5-0.2c0.1,0,0.1,0,0.2,0c0.5,0.1,0.7,0.1,1.1,0.1l0.3,0c0.4,0,0.7,0,1-0.1
			c0.3,0,0.5,0,0.8,0c0.2,0,0.4,0,0.6,0c0.4,0,0.8,0,1.2,0c0.3,0,0.5,0.3,0.5,0.6s-0.2,0.5-0.4,0.5c-0.3,0-0.6,0-0.9,0
			c-0.3,0-0.6,0-0.8,0c-0.2,0-0.4,0-0.5,0c-0.3,0-0.6,0-0.9,0c-0.1,0-0.3,0-0.4,0l-0.2,0c-0.2,0-0.4,0-0.6,0c-0.1,0-0.2,0-0.3,0
			c-0.1,0-0.1,0-0.1,0c0,0.1,0,0.6,0,0.9c0,0.9,0,1.6,0,2.3c0,0.1,0.1,0.1,0.4,0.1c0.1,0,0.3,0,0.5,0c0.3,0,0.5,0,0.8,0l1.3,0
			c0.6,0,1.2,0,2,0c0.3,0,0.4,0.3,0.4,0.6c0,0.4-0.2,0.5-0.4,0.5c-0.3,0-0.6,0-0.9,0c-0.4,0-0.7,0-1.1,0c0,0-1.2,0-1.4,0l-0.5,0
			c-0.5,0-1,0-1.1,0.1c0,0.3,0.1,0.8,0.1,1.2c0,0,0,0.6,0,0.6c0.3,0,0.6,0,1,0c0.2,0,0.3,0,0.5,0c0.4,0,0.7,0,1,0l0.5,0
			c0.2,0,0.5,0,0.7,0c0.3,0,0.7,0,1,0c0.2,0,0.4,0.2,0.4,0.6C118.7,123.4,118.5,123.8,118.2,123.8z"/>
	</g>
</g>
</svg>
