<svg xmlns="http://www.w3.org/2000/svg" x="0px" y="0px" width="803px" height="803px" viewBox="0 0 803 803">
  <circle cx="401.5" cy="401.5" r="400"/>
  <path d="M389.026 209.622c-1.2.2-1.1 1.3-.9 3 .1.6.1 1.1.1 1.7v.7c-.1.6-.1 1.4.2 1.7.2.2.4.2.7.2H392.426c1.3 0 2.8 0 4.3-.1 1.3-.2 1.2-.6 1.2-1.3v-.4c-.1-.7-.1-1.4 0-2.1v-1-.7-.9c0-.1 0-.3-.1-.4-.2-.2-.5-.3-.7-.3-.3 0-.5.1-.7.2-.1.1-.1.2-.1.4v4.8h-1.7v-.3V212.222v-1c.1-.6.1-1.1-.2-1.6-.2-.2-.4-.2-.6-.2-.2 0-.5.1-.6.2-.3.3-.3 1-.2 1.6v3.6l-.1.3h-3.2v-.3-2.2-2.5c.1-.2-.3-.5-.7-.5.1 0 0 0 0 0zm96.8 35.4c-.1.2-.2.4-.2.7 0 .5.3 1.1.9 1.1h.5c.8 0 1.6 0 2.4-.1h.3v.3c-.2 1.7-.2 3.4-.2 5.1v.8c0 .2 0 .4-.1.6-.1.6-.2 1.3.1 1.6.2.2.5.3.7.2.3 0 .6-.1.8-.3.4-.4.3-1.2.2-2-.1-.4-.1-.8-.1-1.3 0-1.5.1-3.2.1-4.8v-.2h.8c.6 0 1.2.1 1.8.1h.2c.5 0 .8-.4.7-.9 0-.4-.2-.8-.7-.9h-.8c-2.3 0-4.6-.1-6.9-.4-.1.1-.4.2-.5.4zm67.9-187.2l1.8.2v.2c-.1 1.7-.4 3.3-.8 5-.1.2 0 .4.1.6.2.2.5.4.8.3.4 0 .7-.2.8-.5l.3-2.1c.1-1 .3-2 .4-3v-.3h.3c.3 0 .6.1.9.2.3.1.6.1.8.2.4 0 .6-.4.6-.8 0-.3-.1-.7-.6-.7-.3 0-.6-.1-.9-.1-.5-.1-1.1-.2-1.6-.2s-1-.1-1.4-.2c-.5-.1-.9-.2-1.4-.2-.4 0-.7.5-.7.9.1-.1.1.5.6.5zm-46.9 191.6c-.6.7-1.2 1.2-1.9 1.7-1.4 1.1-3.1 2.4-3 3.4 0 .4.3.7.9 1h3.4c.9 0 1.7 0 2.4.1h.2c.4 0 .6-.4.7-.8.1-.4-.2-.9-.7-1h-4.6l.4-.4c.6-.6 1.2-1.1 1.8-1.5 1.3-1 2.6-1.9 2.8-3.7 0-2.4-1.8-2.9-3.4-3h-.3c-1.1 0-3.2 1.2-3.4 2.1-.1.4.2.7.9.9.4-.1.7-.3.9-.6.3-.4.8-.7 1.3-.7h.2c.9 0 1.4.1 1.7.4.2.2.2.5.2.7.1.5-.1 1-.5 1.3v.1zm18.7-198.3c.9.1 1.9.2 2.8.3h.3l-.1.3c-.1.3-.1.5-.2.8s-.1.6-.2.8c-.1.7-.2 1.5-.3 2.2-.1 1.2-.3 2.3-.6 3.4-.1.2-.1.5.1.7.2.3.6.5 1 .5s.8-.2.9-.6c.3-2.7.6-4.9 1.1-7.6v-.2h.3c.4 0 .9.1 1.3.2s.8.2 1.2.2c.4 0 .7-.1.8-.8 0-.9-.7-1-1.9-1.1-.3 0-.7-.1-1-.1-1.7-.2-3.5-.6-5.1-1.1h-.2c-.5 0-.8.5-.8 1-.2.5.1 1 .6 1.1zm16 10.9c.8 0 .9-.7.9-1.7 0-.4 0-.8.1-1.2.3-1.8.4-2.7.6-4.4v-.1c0-.4.1-.7.3-1.1.2-.6.4-1 .1-1.4-.2-.2-.5-.4-.9-.4-.5-.1-.9.3-1 .8-.1 1.5-.3 2.9-.6 4.4-.3 1.5-.5 3-.6 4.6.4.3.7.5 1.1.5zm10.6 185.5c.2 0 .4 0 .6.1h.7c.4 0 .7-.5.7-.9s-.2-.9-.7-.9c-1 0-2-.1-3-.1-1.5 0-3-.1-4.6-.1-.5 0-.7.5-.7 1 0 .2.1.4.2.6.1.2.3.2.5.2H548.626v.2c.1 1.6.2 3.3.1 4.9 0 .5 0 1-.1 1.5-.2.6-.1 1.2.1 1.7.3.2.6.3 1 .3.2 0 .4-.1.5-.2.6-.6.4-2.4.4-3.2v-1.9c.1-1 0-2.1 0-3.1v-.3h.3c-.3.2 1.1.2 1.2.2zm-33.1.8c-.3-.2-.6-.3-.9-.4-.1 0-.3 0-.3.1-.5.5-.4 2.1-.4 3.2v1.7l-.4-.3c-1.4-1.2-2.6-2.7-3.6-4.2-.2-.2-.5-.3-.8-.3-.1 0-.2 0-.3.1-.5.6-.5 2.5-.4 3.9v1.8c-.1.5 0 1 .3 1.5.1.1.2.2.4.2.3 0 .5-.1.7-.3.3-.6.4-1.3.2-2-.1-.6 0-1.1.1-1.7l.1-.4.3.3c.2.2.4.4.6.7 1 1.2 2.7 3.3 3.7 3.3.5 0 .7-1 .7-1.8.1-.7.1-1.3 0-2v-.7c0-.4 0-.9.1-1.3 0-.4 0-.9-.1-1.4zm-130.4-26.3c.7-.1 1.4-.1 2.1-.1.7 0 1.4 0 2.2.1h.2v2.6c0 .9.1 1.7 0 2.5v.2h-.2c-.7 0-1.4 0-2 .1-.6 0-1.2.1-1.8.1h-.1c-.4.1-.7.4-.6.8 0 .4.4.8.8.8.1 0 .3 0 .4-.1h.9c.3 0 .7 0 1-.1.3 0 .7-.1 1-.1.5 0 1 0 1.5.1s.9.1 1.4.1c.8 0 1.5-.1 2.3-.3.3-.2.4-.6.3-.9-.1-.4-.3-.7-.6-.7l-.4.1c-.5.1-.9.2-1.4.2h-.7v-.2-5.2H397.326c.4 0 .7-.4.7-.8v-.1c0-.5-.3-.9-.7-.9h-5.8c-1 0-1.9 0-2.7.1-.6.1-.6.7-.6.8-.3.5 0 .9.4.9zm152.7 31.9c-.6.2-1.3.2-2 .2-1.4.1-2.7-.4-3.7-1.3h-.1c-.4 0-.8.3-.9.7-.1.4 0 .8.3 1.1 1.2.9 2.6 1.3 4 1.3.8 0 1.6-.1 2.4-.3 2.3-.3 3-1.9 2.9-3.1-.2-1.9-1.9-3.2-3.7-3.1-.4 0-.7 0-1 .1h-.3c-1.2-.1-2.3-.2-2.6-.8-.2-.5.3-.9.5-1.1.5-.3 1.1-.4 1.7-.4 1.1.1 2.2.3 3.1.8h.1c.4 0 .7-.2.8-.6 0-.4-.1-.7-.3-1-.6-.7-2.1-.8-3.2-.9-.3 0-.5 0-.7-.1h-.5c-1.7-.1-3.2 1.2-3.3 2.9-.1 1.4 1 2.7 2.4 2.8h.1c.8.2 1.6.2 2.5.2.7 0 1.4 0 2.1.1h.2c.5.4.6 1 .4 1.5-.3.7-.7 1-1.2 1zm-297.7-204.8c-.4-1-.8-2-1.3-3-.6-1.3-1.1-2.6-1.6-3.9 0-.7-.5-1.4-1.3-1.5-.3 0-.6.1-.9.4-.5.7-1.2 1.8-1.8 2.9-.4.7-.7 1.2-1 1.7-.4.7-.8 1.4-1.3 2.3-.5.6-.9 1.5-.7 1.9.1.3.4.4.9.4.6 0 .7-.4 1-1 .1-.3.2-.5.4-.7l.1-.1h.1c.8.1 1.8.2 2.7.4.8.1 1.6.3 2.4.3h.2l.1.3c.3.9.8 2.3 1.6 2.3.3 0 .6-.2.9-.5.3-.5 0-1-.3-1.6 0-.1-.1-.4-.2-.6zm-3.1-1.9c-.5-.1-1.1-.1-1.6-.2-.4 0-.9-.1-1.3-.1l-.4-.1s.3-.6.4-.7c.3-.4.6-1 .9-1.5.2-.3.3-.6.5-.9l.3-.5.2.5c.2.6.5 1.3.8 1.9.2.4.4.8.5 1.2l.2.4h-.5zm308.8 15.9H550.126c1.2.1 2.2-.8 2.3-2v-.2c0-.6-.2-1.2-.7-1.7-.6-.5-1.4-.8-2.1-.8-.7-.1-1.3-.3-2-.5l-.3-.1.2-.3c.2-.4.7-.7 1.2-.6.8.1 1.6.4 2.3.8.1 0 .2.1.2.1.4-.2.9-.4.9-.8-.1-.7-1.9-1.6-3-1.6-.2-.1-.5-.1-.7-.1-1.2 0-2.2.9-2.4 2-.1 1 .6 2 1.6 2.2.6.2 1.3.3 1.9.4.3.1.7.1 1 .2h.1l.1.1c.2.2.3.6.1.9-.1.3-.4.4-.7.4h-.6c-1.2.1-2.4-.4-3.2-1.3h-.1c-.4 0-.7.2-.9.5-.1.4 0 .9.3 1.2.8.9 2.5 1.2 3.7 1.2zm-159.4 81.8c0-.4-.4-.6-.8-.6-.3 0-.6.1-.8.4v5.6c0 .5-.1 1.2-.1 1.7s.5.8.9.8c.3 0 .6-.1.8-.4 0-.4-.1-2.8-.1-2.8h.2c1.2-.1 2.4-.2 3.6-.2 1.2 0 2.3 0 3.5.2.5 0 .7-.4.7-.8 0-.5-.2-1-.7-1h-3.7c-1 0-2.2 0-3.3.1h-.3v-.3c0-.6 0-1.1.1-1.7v-1zm-1.3 15.9c.4.9 1.2 1.4 2.2 1.4 1.4.1 2.5-1 2.7-2.3.1-.7.2-1.5.2-2.2 0-.7 0-1.3.1-2v-.1l.1-.1c.3-.3.7-.4 1.1-.4.4 0 .9.2 1.2 1.1.5 1.5.1 4.4-.7 5-.2.2-.3.4-.2.7.2.4.6.6 1 .6.2 0 .5-.1.6-.3 1.2-1.5 1.4-3.5.8-6 0-1.5-1.2-2.6-2.7-2.7-.8 0-1.7.4-2.2 1-.7.9-.9 2-.7 3.1v.3c0 1.2-.1 2.6-.7 2.9h-.2c-1.1-.2-1.2-1-1.3-1.8-.1-.7 0-1.4.3-2 .2-.7.5-1.4.2-1.8-.2-.2-.4-.3-.6-.3-.5.2-1 .6-1.1 1.1-.7 1.4-.7 3.2-.1 4.8zm5.1 13.5h.9c.8 0 1.7.1 2.5.2.5 0 .7-.4.7-.8 0-.5-.2-1-.7-1h-3.7c-1.1 0-2.2 0-3.4.1h-.3v-.3c0-.6 0-1.1.1-1.7v-.9c0-.4-.4-.6-.8-.6-.3 0-.6.1-.8.4v5.6c0 .5-.1 1.2-.1 1.7s.5.8.9.8c.3 0 .6-.1.8-.4 0-.4-.1-2.8-.1-2.8h.2c1.4-.2 2.6-.3 3.8-.3zm-5.1 64.9c.7-.1 1.4-.1 2.1-.1.7 0 1.4 0 2.2.1h.2v2.6c0 .9.1 1.7 0 2.5v.2h-.2c-.7 0-1.4 0-2 .1-.6 0-1.2.1-1.8.1h-.1c-.4.1-.7.4-.6.8 0 .4.4.8.8.8.1 0 .3 0 .4-.1h.9c.3 0 .7 0 1-.1.3 0 .7-.1 1.1-.1.5 0 1 0 1.5.1s.9.1 1.4.1c.8 0 1.5-.1 2.3-.3.3-.2.4-.6.3-.9-.1-.4-.3-.7-.6-.7l-.4.1c-.5.1-.9.2-1.4.2h-.7v-.2-5.2H397.426c.4 0 .7-.4.7-.8v-.1c0-.5-.3-.9-.7-.9h-5.8c-1 0-1.9 0-2.7.1-.6.1-.6.7-.6.8-.4.5-.1.9.3.9zm6.5 51.3c.3.3.6.5 1 .6.4 0 .7-.3.8-.6.9-1.8 1.1-3.8.6-5.7 0-1.5-1.3-2.6-2.8-2.6-.8 0-1.5.3-2.1.9-.6.7-.9 1.6-.8 2.4 0 .9 0 1.8-.1 2.6-.1 1.1-.6 1.2-.8 1.2-.3 0-.5-.2-.7-.4-.4-.4-.6-.9-.5-1.5-.1-.7 0-1.3.3-1.9.2-.7.5-1.4.2-1.8-.2-.2-.4-.3-.6-.3-1.3.3-1.4 1.9-1.5 3.2 0 .3 0 .6-.1.8.1 2.2 1 3.4 2.8 3.5 2.6-.2 2.6-2.4 2.7-4.7 0-.6 0-1.2.1-1.9v-.1l.1-.1c.3-.3.7-.5 1.1-.5.3 0 .5.1.7.3.8.8.7 2.9.7 3 .1.8-.2 1.6-.6 2.3-.3.5-.5.9-.5 1.3zm10.7-203.4c-.7 21.8-1 44-1.2 65.4l-.3 24-.2 8c-.3 17.1-.6 31-.9 49.2.2 3 .6 3.4 3.6 3.6 8 0 16.2.2 24.2.4 4.3.1 8.6.2 12.9.2h.3v.3c7.8.4 15.8.5 23.6.7l12.3.3c2.1-.1 4.9-.5 6-2.1.6-1 .6-2.2.1-3.2-1.3-12.7-.1-25.2 1.1-37.3 1-10.9 2.1-22.2 1.4-33.7-.4-12.9-1-26-1.5-38.7-.2-4.4-.4-8.8-.5-13.2-.2-1.5-.3-3.1-.2-4.6.1-3.9.2-7.8-3.6-8.7-3.6-.7-7.3-1.4-10.8-2.2-5-1-10.1-2.1-15.2-3-12.6-2.2-25.4-4.4-37.8-6.4l-9.8-1.6c-.5-.1-1-.1-1.5-.2-1.6-.1-1.9.5-2 2.8zm2.3 41.3c-.2-13.3-.4-27.1 1.3-40.6v-.2h.2c14.4 1.7 28.6 4.3 42.4 6.7 3.8.7 7.5 1.3 11.3 2 3.5.6 7 1.6 10.3 2.5 1.8.5 3.6 1 5.4 1.4 2.5.6 3.6 2 3.7 4.7.1 10.5.8 21.1 1.3 31.4 1.3 22.6 2.7 46-1 69-.5 4.8-.6 9.6-.7 14.2-.1 5-.3 10.3-.8 15.4v.2l-74.3-1v-.2c-1.6-19.1-.8-38.5-.1-57.3.2-5.1.4-10.4.6-15.7.7-10.6.6-21.7.4-32.5zm73.8 125c-.5.1-1 .1-1.6.1-1.4.1-2.7-.3-3.8-1.3h-.1c-.4 0-.8.3-1 .8-.2.4-.1.8.2 1 1.2.9 2.7 1.3 4.2 1.3.8 0 1.7-.1 2.5-.3 1.5-.4 2.5-1.9 2.2-3.5-.3-1.6-1.7-2.8-3.4-2.7h-1.3c-.3 0-.7 0-1-.1-.8-.1-1.4-.4-1.5-.9 0-.2 0-.6.6-1 .5-.2 1.1-.3 1.7-.3 1.1 0 2.1.3 3 .9h.1c.5 0 .9-.4 1-.8.1-.2 0-.5-.1-.7-.6-.8-2.4-1.1-4-1.1-.8 0-1.6.1-2.3.4-1.1.4-1.8 1.6-1.5 2.8.1 1.3 1.1 2.3 2.4 2.5.6.1 1.1.2 1.7.2h1.2c.4 0 .9 0 1.3.2s.5.8.4 1.3c-.1.8-.5 1.2-.9 1.2zm-143.9-191.6c19.6 3 40.4 6.3 60.5 10.7h.1l1 3.8c6.5-.2 7.8-1.5 8-2.2.2-.8-.4-2.6-6.2-5.8-.6 1.5-2.1 2.6-3.7 2.5-1.4-.1-2.8-.4-4.1-.9-1.3-.5-2.6-.7-3.9-.8h-.1c-18-3-39.2-6.5-60.1-9.8h-.1c-.4 0-.8.2-1.2.4-.1 0-.2.1-.3.1 2 1.3 4.1 1.4 6.3 1.6 1.3 0 2.5.2 3.8.4zm239.7-3l2.8.3v.2c-.1 1.6-.3 3.3-.6 4.9 0 .5-.1 1-.3 1.5-.3.6-.3 1.2-.1 1.8.3.2.6.4 1 .4.7 0 1.1-1.1 1.2-3.3.1-.6.2-1.2.3-1.9.2-1 .3-2.1.4-3.1v-.3h.3c.5.1 1.1.2 1.6.3.4.1.8.2 1.2.2.4 0 .7-.5.7-1 0-.1 0-.8-.6-.8-1-.2-2-.3-3-.5-1.5-.2-3-.5-4.6-.7-.5 0-.8.5-.8 1.1-.1.3-.1.9.5.9zm7.5 8.5c-.1.3-.1.7.1.9.3.3.7.5 1.1.5.3 0 .6-.1.8-.3.2-.2.3-.5.3-.8 0-.4-.1-.7-.3-1-.2-.2-.5-.3-.8-.3-.6.1-1.1.5-1.2 1zm-184.7 343.8c.8.8 1.9 1.1 3 1 .4 0 .9 0 1.3-.1 9.3-1.2 18.6-3 27.5-4.8 9.3-1.9 18.9-3.8 28.4-4.9 2.6-.6 5.3-1 8.1-.9 5.1-.2 10.4-.5 12.8-3.2 1.1-1.3 1.6-3 1.4-4.7.8-23.8 1.2-48.1 1.6-71.5l.2-13.9c.2-7.7.4-15.3.5-23 .2-6.2.3-12.4.5-18.6.1-4.2-.6-5-4.7-5.4-.9.1-1.8.1-2.8.1-4.3-.1-8.5-.6-12.7-1.5-.9-.2-1.9-.3-2.8-.5l-2.8-.2c-3.8-.3-7.8-.6-11.7-1v.2h-.3c-12.4.5-24.4.8-36.7.8h-9c-.2 10.8-.4 21.6-.7 32.4-.7 32.1-1.4 65.3-1.3 97.9v4.2c.2 4.5 0 9-.6 13.4-.1 2 .1 3.4.8 4.2zm5.1-149.2v-.2H409.526c4.6 0 9.2-.1 13.7-.1 4.5-.1 9.2-.1 13.8-.1 13.5 0 29.5.5 45.4 3.9h.2v.2c-.7 39.4-1.5 80.7-2.5 126.2-.1 4.1-.2 4.4-4.4 5.2-3.2.6-6.5 1-9.7 1.4-2.8.4-5.8.8-8.6 1.2-6.5 1-13.1 2.2-19.5 3.5-11.2 2.2-22.7 4.4-34.1 5h-.2v-.2c-.7-10.4.5-135.9 2-146zm-8.6-71.6c-.9.1-1.8.1-3 .1h-4.6c-.6-.1-1.1.4-1.2.9v.1c0 .2.1.4.2.6.2.2.5.3.8.3.2 0 .4 0 .6-.1h3.5c1.3 0 2.7 0 4-.2.4 0 .7-.3.7-.7v-.1c-.1-.5-.5-.9-1-.9zm57.2 64.6c.6 0 1.2-.1 1.8-.1 1 0 1.9 0 2.8.1.4 0 1.3.1 1.3.1.5 0 .7-.6.7-1 0-.2-.1-.4-.2-.6-.1-.2-.3-.3-.5-.2H455.026v-.2-1.5h4.1c.3 0 .5.1.8.1.8 0 1.1-.3 1.2-.9 0-.7-.4-1-1.4-1h-4.8v-.5-3h3.5c.2 0 .5 0 .7.1.3 0 .5.1.8.1.7 0 1-.2 1-.8 0-.8-.6-1.1-1.8-1.1-.5 0-1 0-1.5.1-.5 0-.9.1-1.3.1h-.6c-.4-.1-.9-.1-1.3-.1s-.7.1-1 .3c-.3.3-.3 1.1-.3 2.3.1.8.1 1.6 0 2.5-.1 2-.3 5.1 1.1 5.2zm10.8-.7c.1-.4.2-.8.4-1.2l.1-.2h5.4l.2.3c.4.8 1.1 2 1.8 2 .3 0 .7-.2.9-.5.3-.5-.1-1-.4-1.6-.2-.2-.3-.5-.4-.7-.5-.9-1.1-1.9-1.6-2.8-1-1.5-1.8-3.1-2.6-4.7-.2-.2-.5-.3-.8-.4-1.1 0-1.9 2.3-2.5 4-.2.6-.4 1.2-.7 1.8-.2.5-.4 1.1-.6 1.6-.5.9-1 1.9-.7 2.6.2.3.5.4.8.4.2.1.6-.2.7-.6zm1.5-3.9c.2-.5.4-1 .6-1.6.1-.3.3-.7.4-1l.2-.5.3.5c.3.6.7 1.2 1.1 1.8.2.4.5.8.7 1.1l.2.4H466.326c-.1.1.1-.5.2-.7zm104.7-184H572.426c1.6.2 3-1 3.2-2.6v-.3c0-.8-.3-1.7-.9-2.2-.8-.7-1.9-1.1-3-1.1h-.3c-1.3-.2-2.7-.5-2.9-1.2-.1-.3.1-.7.6-1 .4-.1.8-.2 1.2-.2 1.3.1 2.5.5 3.6 1.3h.1c.4 0 .7-.3.8-.7.1-.3 0-.7-.2-1-1.3-.9-2.8-1.4-4.4-1.4-.6 0-1.1.1-1.6.3-1.2.3-2 1.4-1.9 2.7 0 1.3.9 2.4 2.1 2.6.8.3 1.5.4 2.3.5.7.1 1.4.2 2.1.4h.1v.1c.4.4.5 1 .3 1.5s-.6.8-1.1.8h-1c-1.6 0-3.7-.5-4.6-1.9h-.1c-.4 0-.8.3-1 .7-.2.3-.1.7.1 1 1.5 1.1 3.4 1.8 5.3 1.7zm-50.1 187.2c0 .8-.1 1.6.3 2 .2.2.5.3.8.3h.3c.3 0 .6.1.8.1 1.2 0 2.4-.4 3.3-1.3.6-.6 1-1.5.9-2.4.1-1-.3-2-1-2.7-1.1-1-2.6-1.5-4.1-1.4h-.6c-1 .1-.9 1.4-.8 3.1.1.6.1 1.3 0 2l.1.3zm2.2.3c.6 0 1.3-.2 1.8-.6.3-.3.5-.7.5-1.2h.5c0 .6-.2 1.1-.6 1.5-.6.5-1.3.8-2.1.8v-.5zm-348.2 149.5c.1-6.7.1-13.7.3-20.5.9-20.2 1.3-40.7 1.6-60.6.1-8.7.3-17.7.5-26.6.7-7.4-3.9-12.3-7.9-15.8l-5.3-4.4c-10.9-9.1-22.2-18.5-33.4-27.5-6.9-5.7-14.1-11.3-21-16.8-9.8-7.8-20-15.8-29.6-24.1-.6-.6-1.4-1-2.2-1.1-2.9 0-5.1 6-5.3 8.7-.6 4.5-1.3 9.1-1.9 13.6-1.2 8.1-2.4 16.5-3.4 24.8-1.4 18.5-3.7 37.1-5.9 55.2-2.3 19.2-4.7 39-6.2 58.5 12.5 6.5 25.5 12.5 38 18.4 14.3 6.6 29.1 13.5 43.3 21.1 12.8 7.6 23 12.8 32.9 16.9.7.4 1.6.6 2.4.6.6 0 1.3-.2 1.7-.7 1.5-1.6 1.4-5.5 1.4-8.4v-2.1c-.1-2.9-.1-6.1 0-9.2zm-1.6-83.7c0 5 .1 10.1.2 15 .1 5.4.2 11 .2 16.6v4.2c.1 7.6-.2 15.3-.9 22.9-.9 7.4-1.2 14.8-1.1 22.2.1 6.3-.1 12.6-.7 18.9v.3l-.3-.1c-6.7-2.2-13.2-5-19.3-8.4-15.1-8.9-31.2-16.3-46.8-23.5-8.5-3.9-17.2-8-25.8-12.2-3.7-2-6.9-3.5-9.4-4.8-12-6-12.1-6.1-10.5-16.5.9-5.9 1.6-11.9 1.9-17.9 2.9-23 5.4-46.3 7.5-66 .8-5.7 1.4-11.5 2-17.1 1.5-14.3 3.1-29 7.3-43l.1-.3.3.2c6.8 5.3 13.8 10.5 20.5 15.7 24.2 18.4 49.3 37.3 71.4 59 5.2 6.2 4.5 14.8 3.8 23.1-.6 3.9-.7 7.8-.4 11.7zm-133 130.7c-.3.4-.4 1-.3 1.5 0 .6-.1 1.2-.2 1.7-.1.7-.2 1.4-.2 2.1v.3h-.3s-.9 0-1.2-.1h-.2v-.2c0-.8.1-1.6.2-2.4.2-1 .2-2.1.2-3.2-.2-.3-.5-.4-.9-.4s-.8.2-.9.6c-.1.7-.1 1.3-.2 1.9-.1 1.1-.2 2.1-.3 3.3v.3h-.4c-.8-.1-1.8-.2-2.8-.3h-.2v-.2c0-.2 0-.4.1-.6v-.2c.1-.8.1-1.6.2-2.3.1-.7.1-1.4.2-2.2-.3-.3-.6-.4-1-.5-.9 0-1 2.5-1 3.9v1c0 .3-.1.7-.1 1-.2.5-.2 1.1.1 1.6.2.3.8.3 1.2.3h.6c2.8.3 4.3.4 7.2.5 1.4-.1 1.4-.7 1.3-1.5v-1.1c0-.7.1-1.3.2-2 .1-.8.2-1.6.2-2.5-.2-.3-.6-.5-.9-.5-.2-.1-.5 0-.6.2zm.9-5.1c-.6 0-1.1.5-1.2 1.1-.1.6.3 1.2 1 1.3h.3c.5 0 .8-.3 1-.8.2-.4.1-.9-.2-1.3l-.9-.3zm-2.5 17.8c-.2-.1-.4-.1-.6-.2-.8-.4-1.4-.8-2.1-1.2-1.4-.9-2.9-1.6-4.5-2.2-.4 0-.7.3-.7.7-.1.5.2 1 .7 1.3 1.4.6 2.7 1.2 4 2 .6.3 1.2.7 1.9 1l.5.3-.5.2c-.2.1-.5.2-.7.3-1.6.8-3.2 1.6-4.8 2.2l-.3.1c-1 .3-1.6.5-1.5 1.3 0 .4.4.8.8.7.6-.1 1.2-.3 1.7-.6 1.2-.7 2.5-1.2 3.8-1.6 1.7-.5 3.2-1.2 4.6-2.3-.2-1.2-1-1.6-2.3-2zm141.9 187.5c-2.4.2-4.5 1.8-5.1 4.2-.7 2.2.1 4.7 2.1 5.9.8.4 1.7.7 2.7.7 2 0 3.9-1.2 4.7-3.1 1-2.1.6-4.5-.9-6.2-1-1-2.3-1.5-3.5-1.5zm3 5.3c0 1-.3 1.9-.7 2.8-.6.6-1.4.9-2.2.8-1.2 0-2.3-.5-3.1-1.3-.5-.7-.7-1.5-.5-2.4-.1-.9.2-1.7.8-2.3.7-.7 1.6-1.1 2.6-1.1.9 0 1.9.4 2.5 1 .6.7.8 1.6.6 2.5zm-4.7-146c-.2-.2-.6-.3-.9-.4-.4 0-.7.3-1 .8-.8 1.7-.7 4.9-.1 5.6.4 1 1.4 1.6 2.4 1.5 1.4.1 2.7-1 2.8-2.5 0-.4.1-.7.1-.9.1-.7.1-1.5.1-2.2-.1-.6 0-1.2.3-1.7.2-.2.4-.3.7-.3h.1c1.5 0 1.6 1.5 1.6 2.6v.9c0 1.1-.3 2.1-1 2.9-.2.2-.3.5-.2.7.2.4.5.7.9.7.8 0 1.7-1.2 1.8-2.2.4-1.5.6-4.6-.6-6.3-.5-.7-1.4-1.2-2.3-1.2-.9 0-1.7.4-2.2 1-.7.9-1.1 2.2-.9 3.3v.3c0 1.3-.1 2.7-.8 3h-.2c-1.2-.2-1.3-1.1-1.4-1.9-.1-.7 0-1.4.3-2.1.5-.3.6-1 .5-1.6zm-139.7-39.7h-.2c-1.2.5-2.5 1.2-3.7 1.8-1.9 1-3.8 1.9-5.8 2.6-.3.2-.4.4-.4.8-.1 1 1 1.5 2.2 2.1l1.2.6c.8.4 1.4.7 2.1 1.1 1.2.6 2.2 1.1 3.5 1.8h.1c.5 0 .7-.5.8-.9.1-.4-.1-.9-.6-1-.4-.1-.8-.3-1.2-.5l-.1-.1v-.2c0-.8.1-1.8.2-2.7.1-.8.2-1.7.2-2.4v-.1l.1-.1c.2-.1.5-.2.8-.4.4-.2.8-.3 1.1-.5.4-.2.5-.6.4-1 0-.5-.3-.9-.7-.9zm-3.6 4.1c-.1.5-.1 1.1-.1 1.6 0 .4 0 .9-.1 1.3v.4l-.3-.2c-.7-.3-1.4-.7-2.1-1l-1.2-.6.5-.2c.6-.3 1.3-.6 1.9-1 .4-.2.7-.4 1.1-.6l.4-.2-.1.5zm146.6 188.6c-.8 0-1.6.3-2.2.9-.6.7-1 1.7-.9 2.6 0 .9 0 1.9-.1 2.8-.1 1.1-.6 1.3-.9 1.3-.3 0-.6-.2-.7-.4-.4-.4-.6-1-.6-1.6-.1-.7 0-1.4.3-2 .3-.8.5-1.6.3-2-.2-.2-.4-.3-.7-.3-1.4.4-1.5 2-1.6 3.4 0 .3 0 .6-.1.9 0 1.7.6 3.7 3 3.8 2.8-.1 2.8-2.7 2.9-5.3 0-.6 0-1.2.1-1.8v-.1l.1-.1c.3-.3.7-.5 1.1-.5.3 0 .5.1.7.3.8.9.7 3.1.7 3.3 0 1.1-.3 2.1-1 2.9-.2.2-.3.4-.2.7.3.4.7.6 1.2.7.3 0 .6-.2.9-.7.9-1.9 1.2-4.1.7-6.1-.1-1.5-1.4-2.7-3-2.7zm-145.7-164.8h-.2c-1.2.5-2.5 1.2-3.7 1.8-1.9 1-3.8 1.9-5.8 2.6-.3.2-.4.5-.4.8-.1 1 1 1.5 2.2 2.1l1.2.6c.8.4 1.5.8 2.1 1.1 1.1.6 2.2 1.1 3.4 1.7h.1c.5 0 .7-.5.8-.9.1-.4-.1-.9-.6-1-.4-.1-.8-.3-1.2-.5l-.1-.1v-.2c0-.8.1-1.7.2-2.7.1-.8.2-1.7.2-2.5v-.1l.5-.3c.5-.2.9-.4 1.5-.7.4-.2.5-.6.4-1 .1-.3-.1-.7-.6-.7zm-3.6 4c-.1.5-.1 1.1-.1 1.6 0 .4 0 .9-.1 1.3v.4l-.3-.2c-.6-.3-1.4-.7-2.1-1l-1.2-.6.5-.2c.6-.3 1.3-.6 1.9-1 .4-.2.7-.4 1.1-.6l.4-.2-.1.5zm242-455.9c-.5 0-.9.3-1 .8-.1 1.5-.3 2.9-.6 4.4-.3 1.5-.5 3.1-.6 4.6.2.3.6.5 1 .5.8-.1.8-.7.9-1.7 0-.4 0-.8.1-1.2.3-1.8.4-2.7.6-4.3v-.3c0-.4.1-.7.3-1 .2-.6.4-1.1.1-1.5-.1-.2-.5-.3-.8-.3zm-10.7-1.6c-.3 0-.7-.1-1-.1-1.7-.2-3.3-.6-4.9-1-.1 0-.2-.1-.4-.1-.5 0-.9.4-.9 1 0 1.1.8 1.2 2.2 1.3.5 0 .9 0 1.4.1l.2.1v.2c-.1.3-.1.5-.2.8s-.1.6-.2.9c-.2.7-.2 1.5-.3 2.2-.1 1.2-.3 2.3-.6 3.4-.1.2-.1.5.1.7.2.3.6.5 1 .5s.8-.2.9-.6c.3-2.8.6-5 1.1-7.6l.1-.2h.2c.4 0 .9.1 1.3.2s.8.2 1.2.2c.4 0 .7-.1.8-.8 0-1-.8-1.1-2-1.2zm-226.9 443.1c-.4 0-.8.2-.8.6-.1.9-.2 1.7-.3 2.6-.1 1-.2 2-.4 3v.3h-.3c-1.1-.2-2.2-.3-3.2-.3-1.4-.1-2.8-.3-4.2-.5-.6.1-1 .6-.9 1.1 0 .4.2.7.6.8h.1c2.2.1 4.5.3 6.7.5l1.9.2c1.1 0 1.1-.9 1.2-2.2 0-.5 0-1.1.2-1.6 0-1.3.2-2.6.4-3.8-.2-.5-.6-.7-1-.7zm213.6-441.1c-.8 0-2-.5-2.2-1.2-.1-.3 0-.6.8-1 .3-.1.7-.1 1.1-.1 1.3 0 2.6.5 3.6 1.4.5 0 .9-.3 1.1-.8.1-.3 0-.5-.2-.7-.7-.9-3.2-1.6-4.9-1.6-.4 0-.8 0-1.1.2-1.2.3-2 1.3-1.9 2.5-.1 1.3.8 2.4 2 2.8.5.2 1.1.3 1.6.4.3 0 .7.1 1.1.2.4 0 .9.2 1.3.4s.4.8.2 1.3-.5 1-1.1 1h-.1c-.9 0-3.9-.1-5.1-1.9-.5 0-.9.2-1.1.7-.1.4 0 .9.3 1.2.8 1.1 3.1 1.5 4.5 1.7l.3.1h.5c2.6 0 3.8-1.5 3.8-3 0-1.8-1.6-3.6-4.5-3.6zm-67.5 592.2c-.8-.4-1.8-.6-2.7-.5h-3.7c-.6 0-1.4 0-1.7.4-.2.4-.1.8 0 1.1.3.3.6.5 1 .4.3 0 .6 0 .8-.1.3-.1.7-.1 1-.1h2c1.2 0 2.5.1 3.2.9.5.7.7 1.7.5 2.5.1.6-.1 1.3-.5 1.8-.9 1-2.7 1-4.3 1H176.626c-.8 0-1.1.3-1.1 1 0 .2.1.4.2.6.2.2.5.3.9.3H181.226c2.1 0 4-1.4 4.6-3.4.7-2.2-.2-4.6-2.2-5.9zm-148-128.3c-.1 0-.1 0 0 0-.7.3-1.2.7-1.6 1.2-.5.5-1 .9-1.6 1.3l-.2.1-.1-.3c-.3-1.3-1.5-2.2-2.8-2.2-1 0-1.9.5-2.5 1.2-.8.9-1.2 2.1-1.1 3.3l-.1.4c-.3 2.1-.5 3.2-.2 3.7.3.4 1.1.4 2.4.6.5 0 1 .1 1.7.2 1.8.3 3.5.5 5.3.6h.1c.5 0 .8-.6.8-1.1 0-.4-.2-.9-.7-.9h-1.9c-.4 0-.7 0-1.1-.1h-.2v-.2c0-2.9 1.1-3.6 2.5-4.5.7-.4 1.3-.9 1.8-1.4.3-.4.3-1 .1-1.4-.1-.4-.3-.5-.6-.5zm-5.3 5.8c-.1.5-.2 1-.2 1.6v.3h-.3c-.7-.1-1.5-.2-2.3-.3h-.2v-.2c0-.5.1-1.1.1-1.8v-.4c.1-1.3.2-2.8 1.2-2.8h.4c.5 0 1 .2 1.4.6.2.9.2 2-.1 3zm251.7-463.5c-.7-.1-1.3-.3-2-.5l-.3-.1.2-.3c.2-.4.7-.7 1.2-.6.8.1 1.6.4 2.3.8l.3.1c.3 0 .7-.2.8-.5 0-.3-.1-.7-.3-.9-.8-.7-1.8-1-2.9-1-1.2 0-2.6.4-2.8 1.7-.2.5 0 1.1.3 1.6.6.7 1.8 1.2 3.7 1.4.4-.1.8.2.9.7v.1c0 .4-.4.8-.8.7h-.6c-1.2.1-2.4-.4-3.2-1.3-.4-.1-.8.2-1 .5-.1.4 0 .8.3 1.1.7.8 2.4 1.2 3.7 1.2h.7c1.2.1 2.2-.8 2.3-2v-.2c0-.6-.2-1.2-.7-1.7-.6-.5-1.3-.8-2.1-.8zm236.5 6h.8c1.3.1 2.6-.5 3.4-1.6.5-.9.5-2.1 0-3-.9-1.3-2.4-2.1-4-1.9-.8 0-2-.5-2.2-1.2-.1-.3 0-.6.7-1 .4-.1.7-.1 1.1-.1 1.3 0 2.6.5 3.6 1.4h.1c.5 0 .9-.3 1.1-.8.1-.3 0-.6-.2-.8-.7-.9-3.1-1.6-4.9-1.6-.4 0-.8 0-1.2.2-1.2.3-1.9 1.4-1.9 2.5 0 1.3.8 2.4 2 2.8.5.2 1.1.3 1.6.4.3 0 .7.1 1.2.2.4 0 .9.2 1.3.4s.4.8.2 1.3c-.1.6-.6 1-1.1 1h-.1c-.9 0-3.9-.1-5.1-1.9h-.1c-.4 0-.9.2-1 .6-.1.4 0 .9.2 1.2.8 1.4 3.2 1.7 4.5 1.9zm-332.3 465.9c-.1 0-.3 0-.4.1-.8.5-1.6.9-2.3 1.4-1 .6-2.1 1.2-3.1 1.9-.7.6-1.6 1-2.4 1.4-.4.2-.7.3-1.1.5-.2.2-.4.5-.3.8 0 1 1.1 1.4 2.4 1.9.4.1.9.3 1.3.5 1 .4 1.9.8 2.7 1.1.9.4 1.8.7 2.9 1.2h.3c.4 0 .7-.5.7-.9.1-.5-.2-.9-.7-1-.4-.1-.8-.2-1.2-.4l-.2-.1v-.2-2.7-2.6l.1-.1c.3-.2.6-.4.9-.5 1-.5 1.5-.8 1.3-1.6-.1-.4-.4-.7-.9-.7zm-3.9 7.3c-.5-.2-1-.4-1.6-.6-.3-.1-.7-.3-1-.4l-.5-.2.5-.3c.6-.3 1.2-.7 1.8-1.1.4-.2.7-.5 1.1-.7l.4-.2V532.122c0 .1-.6-.1-.7-.2zm252.9-492.2h.2c2.6.4 5.1.8 7.6 1.2 5.8.9 11.2 1.8 16.8 2.5 2.2.3 4.4.7 6.5 1.1 4 .9 8.1 1.4 12.3 1.6 1.4 0 2.7-.1 4.1-.3-10.2-2.4-20.9-4.1-31.2-5.8-4.8-.8-9.7-1.5-14.4-2.4h-.1l-1.4-4.1-9.5 4.2 8 5.2 1.1-3.2zm57.3 15.1c1.4.1 2.8.3 4.1.6l1.8.3c.5 0 .8-.5.8-1 0-.3-.1-.8-.6-.9-.9-.1-1.7-.2-2.4-.4s-1.6-.3-2.4-.4h-.2l.1-.7c0-.2 0-.5.1-.7v-.2h.2c.8.1 1.8.3 2.6.4h.2c.3 0 .6.1.9.1.4.1.9.2 1.3.2.6 0 .9-.2 1-.8.1-.9-.7-1.1-1.8-1.2-.3 0-.7-.1-1-.2-.9-.1-1.9-.3-2.9-.4h-.3l.1-.6c.1-.8.2-1.7.4-2.6v-.3h.2c.9.2 1.7.3 2.4.4.9.1 1.7.2 2.7.4.4 0 .7-.4.7-.8.1-.4-.2-.8-.6-1-1-.2-2-.3-3-.4-1.1-.1-2.3-.3-3.4-.5-.7 0-.8.8-1 1.9 0 .2-.1.4-.1.6l-.3 2.4c-.4 1.9-.8 4.3-.2 5.2.2.4.4.6.6.6zm9.9 1.3c.6 0 .8-.4 1-1 .1-.3.2-.5.4-.7l.1-.1h.1c.8.1 1.8.2 2.7.4l2.4.3h.2l.1.3c.3.9.8 2.3 1.6 2.3.3 0 .6-.2.9-.5.3-.5 0-1-.3-1.6-.1-.2-.2-.5-.3-.7-.8-2.1-1.7-4.1-2.6-6.1-.1-.3-.2-.6-.2-.8-.1-.4-.2-.7-.3-1.1 0-.2-.5-.4-.9-.4-.3 0-.7.1-.9.4-.5.8-1.2 1.9-1.8 2.9-.4.6-.7 1.2-1 1.6-.4.7-.8 1.4-1.3 2.4-.5.6-.9 1.4-.7 1.9 0 .4.3.5.8.5zm2.6-3.8c.1-.1.1-.2.2-.3.3-.4.6-1 .8-1.5.2-.3.3-.6.5-.9l.3-.5.2.5c.2.6.5 1.3.8 1.9.2.4.4.8.5 1.2l.2.4-.4-.1c-.5-.1-1.1-.1-1.6-.2-.4 0-.9-.1-1.3-.1h-.4l.2-.4zm-3.7 179.6c.1.7.1 1.5.1 2.3 0 2.6 0 5.2 2.8 5.3 1.4.1 2.9.2 4.8.2h4.8c2.3 0 4.7.1 7 .4 7.4.1 14.9.6 22.1 1 8.3.5 16.9 1 25.4 1 4.3 0 8.3-.1 12.1-.4 1.7-.1 3.4-.1 5.4-.1 3.3 0 6.7.1 9.9.2s6.6.2 9.8.2h.8c2.2 0 3.2-.9 3.3-2.8.1-1.5.3-3 .4-4.4.2-1.9.4-3.9.5-5.8-.4-17.1 0-34.5.4-51.2.3-14.1.6-28.7.5-43.1-.1-1.2 0-2.5 0-4 .2-5.3.3-11.3-5.7-12.2-14.6-2.6-29.6-4.7-43.8-6.6l-18-3c-11.7-1.9-23.7-3.9-35.5-6.2-1.3-.6-2.6-1.1-4.1-1.2-1.9 0-2.2 1.6-2.6 5.8-.3 16.4-.1 33.1.1 49.3.1 9.8.2 19.9.3 29.8-.1 3.6-.3 6.9-.4 10-.3 12.1-.7 21.5-.4 35.5zm3.3-19.7c.1-6.2.3-12.1.5-17.9.4-12.5.8-24.3.3-38 .1-6.3 0-12.7-.2-18.9-.3-10.5-.5-21.3.6-31.9v-.3h.3c13.2 1.9 26.4 4.1 39.2 6.3 13.1 2.2 26.7 4.5 40.2 6.4 5.5.9 11.1 1.9 17.3 3.1 4.4.9 5.4 2 5.7 6.6v28.5c0 25.2 0 51.2-1.1 77-.2 4.2-1.7 5.6-6.2 5.7-2.5 0-5.1.1-7.6.2-3.5.1-7.2.3-10.8.3h-4.5c-12.1 0-24.3-.7-36.1-1.4s-24.1-1.4-36.3-1.4h-1.4v-.3-8c0-5.4-.1-10.7.1-16zm50.8 41.7c-.6 0-1.2.5-1.2 1.2v.1c0 .6.4 1.1 1 1.1h.2c.3 0 .6-.1.8-.3.2-.2.3-.5.3-.8 0-.6-.3-1.3-1-1.3h-.1zm-368.9 248H182.426c-.4 0-.8-.1-1.2-.1-.6 0-1.3 0-2 .1h-.6v-.3c0-.6 0-1.2.1-1.8 0-.3 0-.6.1-.9 0-.5-.5-.7-.9-.7-.3 0-.7.1-.9.4v2.1c0 1.3 0 2.6-.1 3.9 0 .5-.1 1.3-.1 1.8s.5.9 1 .8c.3 0 .7-.2.9-.4 0-.4-.1-3-.1-3h.2c.8-.1 2.1-.1 3.4-.1 1.4 0 2.8.1 4.2.2.5 0 .8-.5.8-.9.1-.5-.2-1-.7-1.1zm-.7 71.3c-.1 0-.3 0-.4.1-.8.5-1.6.9-2.3 1.4-1 .6-2.1 1.2-3.1 1.9-.7.6-1.6 1-2.4 1.4-.4.2-.7.3-1.1.5-.2.2-.4.5-.3.8 0 1 1.1 1.4 2.4 1.9.4.1.9.3 1.3.5 1 .4 1.9.8 2.7 1.1.9.4 1.8.7 2.9 1.2h.3c.4 0 .7-.5.7-.9.1-.5-.2-.9-.7-1-.4-.1-.8-.2-1.2-.4l-.1-.1v-.2-2.7-2.5l.1-.1c.3-.2.6-.4.9-.5 1-.5 1.5-.8 1.3-1.6-.3-.5-.6-.8-1-.8zm-3.9 7.3c-.5-.2-1.1-.4-1.6-.6-.3-.1-.7-.2-1-.4l-.5-.2.5-.3c.6-.3 1.2-.7 1.8-1.1.4-.2.7-.5 1.1-.7l.4-.2V580.722c0 .1-.6-.2-.7-.2zm.2-43.5c-1.8 0-3.5.9-4.6 2.3-1.3 1.8-1.6 4.2-.9 6.3.3.2.7.3 1.1.2H185.526c.4 0 .7-.1 1-.3.3-.4.4-1 .3-1.5.3-2-.2-4-1.4-5.5-.8-1-2.1-1.5-3.3-1.5zm3 6.9v.2h-6.9v-.2c0-1.7.1-5.1 3.4-5.1v-.5h.5v.5c.8.1 1.5.4 2.1 1 .8 1.2 1.2 2.7.9 4.1zm.4 41.8c-.4 0-.8.3-.9.7 0 .9-.1 1.7-.1 2.5 0 1 0 2-.1 3.1v.3h-.3c-1-.1-1.9-.1-2.8-.1h-.9c-1.2 0-2.5 0-3.7-.1-.5 0-.9.6-.9 1.1 0 .4.2.8.6.8h.1c1.3 0 2.8-.1 4.5-.1h4c.4 0 .8-.1 1.1-.4.2-.5.3-1 .1-1.5-.1-.5-.1-1 0-1.4v-1.6c-.1-.7 0-1.4.1-2.1 0-.2.1-.5.1-.7-.1-.4-.5-.5-.9-.5zm0 36.6c-.2 0-.4 0-.6.1h-.1c-.4.1-.8.1-1.2.1H182.726v-.2-5.6h.7v-.5l.5-.1.1.6h1.4c.5 0 .7-.5.7-1 0-.3-.1-.9-.7-.9h-1.9c-1.9 0-3.8 0-5.7-.1-.6 0-1.1 0-1.7.1-.4.1-.7.4-.6.9 0 .5.3.9.8.9.7-.1 1.3-.1 2-.1.8 0 1.6 0 2.5.1h.2v.2c-.1.8 0 1.6 0 2.6V622.322h-4.5c-.4.1-.7.5-.7.9 0 .5.4.9.9.9.1 0 .3 0 .4-.1H180.526c.3 0 .7 0 1 .1h1.3c.4 0 .9.1 1.3.1 1.1 0 1.7-.2 2-.5.2-.3.2-.6.1-.9-.2-.4-.5-.4-.7-.5zm0-26.2h-.2c-.8.5-1.7 1-2.5 1.4-1.1.6-2.1 1.2-3.1 1.9-.6.5-1.2.9-1.9 1.1-.9.4-1.8.8-2 1.4 0 .5.2.9.5 1.2 2.1 1 4.5 1.9 6.8 2.8.7.3 1.5.6 2.1.9h.1c.5 0 .7-.5.8-.9.1-.5-.2-.9-.7-1-.4-.1-.8-.2-1.2-.4l-.1-.1v-.2-2.7-2.5l.8-.4c.4-.2.8-.4 1.2-.7.3-.2.5-.6.4-1-.2-.4-.5-.8-1-.8zm-3.9 7.3c-.5-.2-1-.4-1.6-.6-.3-.1-.7-.3-1-.4l-.5-.2.5-.3c.6-.3 1.2-.7 1.8-1.1.4-.2.8-.5 1.1-.7l.4-.2V603.622c0 .1-.5-.1-.7-.2zm5.1-51.5c.1-.8 0-1.6 0-2.4-.1-.4-.5-.6-.8-.5-.4 0-.7.2-.9.5v1.8c-.1 1.1 0 2.1.1 3.2v.3l-2 .1v-.3c0-.9 0-1.7.1-2.4 0-.8.1-1.6 0-2.5 0-.5-.4-.7-.8-.7-.3 0-.6.1-.8.3-.1.1-.2.3-.2.4v1.8c0 1-.1 1.9 0 3.1v.3h-.3c-.5 0-3-.1-3-.1v-.2c-.1-.8-.1-1.7 0-2.4 0-.9 0-1.8-.1-2.8-.2-.2-.5-.4-.8-.4-.5 0-.9.3-.9.7v1.5c0 .4.1.8.1 1.2.1.5 0 1 0 1.5-.1.9-.2 1.8.2 2.3.2.2.5.3.9.3h7c.8.1 1.6-.1 2.2-.6.3-.4.3-1 .2-1.4-.2-.9-.2-1.7-.2-2.6zm-1.4 78.4c-1.4 0-2.7.1-4.1.1-1.3 0-2.4 0-3.5-.1h-.2v-.2-1.7c0-.4.1-.8.1-1.2-.2-.3-.6-.5-.9-.4-.4 0-.8.3-.8.7v2.3c0 1.7-.1 3.5-.3 5.2 0 .2 0 .4.2.6.2.2.5.3.8.3.3 0 .6-.1.8-.3.1-.1.2-.3.2-.5v-.3c0-.9 0-1.7-.1-2.6v-.3h.3c.8.1 1.5.2 2.3.2h2.6c.9 0 1.8.1 2.7.2.5 0 .8-.5.8-1.1-.1-.4-.3-.9-.9-.9zm.2-70.1h-1.2c-1 0-2.1 0-3.1-.1h-1.4c-.9 0-1.9.1-2.8.4-.4.1-.6.4-.6.8-.1.5.2 1.1.7 1.3l.2.1c.2.1.5.2.7.3.9.5 1.8.8 2.6 1.2.9.4 1.8.7 2.8 1.3l.4.2-.3.2c-2.1 1.4-4.3 2.6-6.7 3.5-.4.2-.6.7-.5 1.2.1.4.4.7.8.7.8-.1 1.6-.1 2.3-.1 1 0 2.1.1 3.1.1s2 .1 3 .1h.6c.5 0 .7-.5.7-1 0-.2-.1-.4-.2-.6-.1-.2-.3-.3-.5-.2h-1.3c-.8 0-1.9 0-2.9-.1l-.9-.1.8-.4c2.5-1.3 4.6-2.4 4.6-3.3 0-.8-1.9-1.7-4.7-3l.1-.5h1.7c.2 0 .4-.1.5 0 .3 0 .6 0 .9.1s.6.1.9.1c.8 0 1.1-.2 1.2-.8 0-.2-.1-.5-.2-.7-.5-.6-.9-.7-1.3-.7zm202.7-372.8c.2.2.5.3.7.3.3 0 .6-.1.8-.3.1-.1.2-.3.2-.5v-.5c0-.7 0-1.4-.1-2.2v-.3h.3c.7.1 1.3.1 2 .1h2.8c.8 0 1.5 0 2.3.2.5 0 .7-.6.7-1s-.2-.9-.7-.9c-1.5.1-3 .1-4.6.1h-2.7v-.2-1.6c0-.4.1-.7.1-1.1-.2-.3-.5-.4-.8-.4-.4 0-.7.2-.8.6v2.2c0 1.6-.1 3.3-.3 4.9-.1.3 0 .5.1.6zm73.9 231.4c-5.6.8-11.4 1.6-17.1 2.5-.4.1-.7.1-1.1.1-.4 0-.8 0-1.3-.1-1 .2-2 .2-3 .3-.9.1-1.9.1-2.9.3l.1.1-.5.1c-11.2 1.6-22.6 2.9-33.7 4.1-2.5.3-5 .6-7.5.8-4.4.5-8.9.9-13.2 1.2h-.4c-1.4-.1-2.7.7-3.3 2-.4 1.4.2 2.9 1.4 3.7 2 2.2 3.9 4.4 5.9 6.5 20.3 22.5 41.3 45.8 66.5 63.7 5.9 4.2 12 8.2 17.9 12 12.7 8.3 25.9 16.9 37 28 5-3.9 8.5-9.2 11.8-14.3 2.3-3.7 4.9-7.3 7.8-10.6 5.6-6 2.9-15.9.5-24.6-1-3.3-1.8-6.7-2.3-10.2-.9-3.7-1.8-7.5-2.7-11.3-4.9-20.6-9.9-42-19.1-61.1-13.6 2.9-27.4 4.9-40.8 6.8zm62 76.7c.8 3.3 1.5 6.5 2.3 9.8 1.1 4.4.5 7.9-2 11.2-2.7 3.5-5.3 7.1-7.8 10.6-2.9 4.1-5.9 8.3-9.2 12.3l-.2.2-.2-.2c-11.1-10.4-23.9-18.7-36.3-26.7-8.5-5.5-17.4-11.2-25.6-17.6-24.5-19.4-45.3-40.7-61.9-63.2l-.3-.4h.4c29.4-2.4 58.8-6.7 87.2-10.8 10-1.4 20.3-2.9 30.5-4.3h.2l.1.2c10.3 25.4 16.6 52.6 22.8 78.9zm85.9-212.5c-.1-2.4 0-4.8.3-7.2.7-7 1.5-14.3-6.4-15.6-1.9 0-3.9.1-5.8.1-4.4.1-9 .1-13.6.1-5.5 0-10-.1-14.4-.3-1.1-.1-2.2-.2-3.3-.2-2.7.1-5.4.3-8 .6-2.7.4-5.4.6-8.1.6-2.6 0-5.1-.3-7.5-1.2h-41c-3.5 4.4-3.1 9.5-2.6 14.8.4 2.8.4 5.6.2 8.5-.9 17-.8 34.3-.7 51 .1 20.7.3 42-1.6 63 1 .5 2.1.8 3.3.8 1.2 0 2.4-.2 3.5-.5l.5-.1 6.3-1.2c6.1-1.2 12.4-2.5 18.6-3.2 9.5-.7 19.5-1.1 30.6-1.1 11.1 0 23 .3 38.5 1.1h1.7c3.4 0 5.3-.2 6.3-1.2 1.2-1.2 1.2-3.7 1.2-8.1-.1-9.3 0-18.9.3-29.4 1.2-25.1 2.1-47.9 1.7-71.3zm-2.7-12.8c-.4 9.8-.3 19.7-.3 29.3 0 6.6 0 13.3-.1 20-.3 6.5-.6 13.1-.9 19.5-.8 16.4-1.7 33.4-1.6 50.3v.2h-.2c-2.6.1-5.3.1-8.1.1-7.1 0-14.3-.2-21.3-.4s-14.2-.4-21.2-.4c-14.4 0-33.3.7-51.9 5.9l-.3.1v-2.1-3.3c.7-24.4.9-49.1 1-73.1.1-17.2.2-34.9.5-52.4v-.2h.2c5.7-.4 11.7-.5 19.4-.5 3.5 0 6.9 0 10.4.1 3.5 0 7 .1 10.5.1h2.5l21.8.1c10.1 0 20.1.1 30.2.1h.8c3.7 0 6.1.7 7.6 2.3.8 1 1.2 2.6 1 4.3zm-142 274.6c-7.7-5.9-15.6-12-23.5-17.8-12.2-8.8-23.1-17.1-31.9-28-.8-.8-1.6-1.6-2.3-2.5-2.2-2.5-5-5.6-7.3-5.6-.8 0-1.6.4-2.1 1.1-3.4 4-6.5 8.1-9.3 12.5-1.9 2.9-3.9 5.9-6.1 8.7-3.3 4.5-6.6 8.9-9.9 13.3-9.8 13.3-20 27-30.5 40.5 4.4 6.2 10.9 10.8 17.2 15.3 3.3 2.4 6.8 4.8 9.8 7.5 12.2 10.5 25.6 20 38.5 29.2l3.7 2.7c32.8 21.6 63.5 46 89.8 67.1 16.9 13.4 34.5 25.8 52.7 37.3 2 1.4 3.3 1.9 4.3 1.9 1.3 0 2.4-.9 4.2-3.4 4.8-7.7 10.9-15.2 17.4-23.2 12.8-15.7 26-32 29-49.8-.6-6.2-10.6-12.2-18.6-17-3.1-1.7-6-3.6-8.8-5.8-11-7.9-22.2-15.7-33.1-23.2-21.2-14.7-43.2-30-63.9-46.1-6.5-4.9-13-9.9-19.3-14.7zm123.2 91.9l10.6 7.2c6.8 4.7 7.5 5.8 5.2 14-1.3 4-3.1 7.8-5.2 11.4l-.5.9c-7.9 13.5-17.8 25.9-27.4 37.9-4.1 5.2-8.4 10.5-12.5 15.9l-.1.2-.2-.1c-20.9-11.3-39.9-26.2-58.3-40.6-5.2-4.1-10.6-8.3-15.9-12.4-27.1-22.2-56.3-42.6-84.6-62.3l-2.7-1.9c-7.3-5.1-14.3-10.5-20.9-16.3-2-1.7-4-3.3-6-5-2.8-2.3-5.6-4.4-8.6-6.4-4.9-3.4-10-6.9-14-11.8l-.1-.1.1-.2c10.5-15.7 22-31.1 33.1-45.9 6.5-8.7 13.2-17.8 19.8-26.8l.2-.2.2.2c3.1 3 6 6.1 8.9 9.2 6.3 6.7 12.2 12.9 19.8 18.2 9.8 7.2 19.7 14.6 29.2 21.8 3.3 2.5 6.6 5 9.9 7.4 38.7 30.3 80 58.5 120 85.7zm-116.6 121.7c0 .4.1.9.1 1.2v.1l-.1.1c-.2.3-.5.4-.8.5-.9 0-1.3-1.6-1.3-2.3-.1-.6-.1-1.1.2-1.7.1-.2.2-.5.2-.8-.2-.2-.4-.3-.6-.3-.1 0-.3 0-.5.4-.5 1.3-.4 2.8.1 4.1.1.9.9 1.5 1.8 1.5 1.1 0 2-.8 2-1.9 0-.2 0-.4-.1-.6-.1-.6-.2-1.2-.2-1.8 0-.3 0-.6.2-.8.1-.1.2-.2.4-.2.5 0 1 .6 1 1.2.1.5.1 1 0 1.4-.1.5-.2 1 0 1.2.1.1.2.2.4.2s.4-.1.5-.3c.5-1.3.4-2.7-.3-3.9-.3-.5-.9-.8-1.5-.8-1.8.2-1.8 1.5-1.5 3.5zm86.4-356.8c-.4-.8-.9-1.5-1.4-2.3-.8-1.2-1.5-2.5-2.1-3.9-.2-.2-.4-.3-.6-.3-.9 0-1.5 1.9-2 3.2l-.6 1.5c-.1.5-.3.9-.5 1.3-.4.6-.6 1.3-.6 2.1.2.2.4.3.6.3.4 0 .7-.2.8-.5.1-.3.2-.7.3-1l.1-.2h4.7l.1.1c.3.6.9 1.8 1.5 1.8.3 0 .5-.2.7-.4.2-.4 0-.7-.4-1.3-.4 0-.5-.2-.6-.4zm-2.9-1.2H552.726l.3-.7c.2-.4.3-.9.5-1.3.1-.3.2-.6.3-.8l.2-.5.3.5.9 1.5.6.9.2.4h-.6zm40.9 2.1c-.2-.2-.4-.3-.6-.5l-.3-.2.3-.2c.9-.3 1.4-1.2 1.2-2.1-.4-1.1-1.5-1.8-2.6-1.6-.3 0-.6 0-.9.1-.3 0-.5-.1-.8-.1-.3 0-.6 0-.8.2-.2.2-.2.8-.2 1.5v.9c0 .5 0 1-.1 1.6 0 .5 0 1-.1 1.4 0 .3.3.6.6.6s.5-.1.6-.3v-1.9h.4c.8 0 1.4.7 2 1.4.5.5 1 1 1.4 1 .2 0 .5-.2.7-.6-.1-.6-.4-1-.8-1.2zm-2.1-1.8h-1.2l-.2-.1v-.3-1.4l.3.1h1.4c.3 0 .6.1.8.3.1.2.2.4.1.6v.3l-.1-.1-.2-.1.2.4c-.2.2-.7.3-1.1.3zm-119.7 361.7c-.4-.2-.8-.2-1.3-.2-1.4 0-2.6 1-3.1 2.3-.5 1.4-.1 3 1.1 4 .6.4 1.2.6 1.9.6 1.6-.1 2.9-1.3 3.2-2.9.5-1.6-.3-3.2-1.8-3.8zm.7 4.4c-.4.8-1.3 1.2-2.1 1.2-.7 0-1.3-.3-1.7-.8-.5-1-.5-2.2-.1-3.2.5-.5 1.1-.8 1.8-.8.8 0 1.6.4 2 1.1.4.7.5 1.7.1 2.5zm125.1-369h-.8c-.3 0-.5 0-.8.2-.1.1-.1.2-.1.4v5.1c.1.6.4.6.9.6h.3c.2 0 .4.1.7.1 1 0 2-.4 2.7-1 .5-.5.8-1.2.7-2 0-.8-.3-1.6-.8-2.2-.8-.9-1.8-1.3-2.8-1.2zm1.8 4.4c-.5.4-1.1.7-1.8.6v-.5c.5 0 1-.2 1.4-.5.3-.3.4-.6.4-1h.5c.1.6-.1 1.1-.5 1.4zm-26.1-6.8h-1.1c-1.7 0-3.4 0-5.1-.3h-.2c-.4 0-.6.4-.6.8 0 .3.1.8.7.8h.5c.6 0 1.2 0 1.8-.1h.3v.3c-.1 1.4-.2 2.8-.1 4.2v1.2c-.1.5-.1 1.1.1 1.3.2.2.4.2.6.2.2 0 .5-.1.6-.3.3-.3.2-1 .1-1.6-.1-.4-.1-.7-.1-1.1 0-1.2 0-2.5.1-3.8v-.4h.7c.5 0 .9 0 1.4.1h.2c.4 0 .6-.4.6-.7 0-.2-.1-.6-.5-.6zm11.3 3.1l-.1-.5c.8-.3 1.4-1 1.5-1.9 0-.1 0-.5-.7-.6-.8.1-1.5.1-2.3.1-.7 0-1.3 0-2-.1-.3 0-.5.2-.5.5-.1.3.1.7.4.8.3.1.5.1.8.1h2.1l-.4.4c-.3.3-.7.5-1.1.7-.9.4-1.4.7-1.3 1.4.1.3.3.5.6.5h.1c.4-.1.9-.2 1.3-.2.7 0 1.3.2 1.9.5.5.3.7.9.5 1.5-.2.7-.9 1.1-1.6 1-.2.1-.4.1-.6.1-.6 0-1.2-.3-1.8-.6-.3-.2-.6-.3-.9-.5-.3 0-.6.2-.8.4-.1.2 0 .5.1.7 1 .8 2.2 1.3 3.5 1.3h.1c2.3 0 3.4-1.5 3.5-2.8.2-1.5-.8-2.7-2.3-2.8.1 0 0 0 0 0zm-22.4 0c-.3 0-.6 0-.9.1h-.1c-.6 0-1.5-.2-1.6-.8-.1-.2 0-.6.5-.9.5-.2 1-.3 1.5-.3.9 0 1.7.2 2.5.7.4 0 .7-.3.8-.7.1-.2 0-.4-.1-.6-.5-.6-1.9-.9-3.2-.9-.7 0-1.3.1-2 .3-.9.4-1.4 1.3-1.2 2.3.1 1 .9 1.9 1.9 2.1.5.1.9.1 1.4.1h1.2c.6 0 1.1.3 1.2.9.1.6-.3 1.3-.9 1.4-.4.1-.9.1-1.4.1-1.1.1-2.2-.3-3.1-1-.3 0-.6.2-.8.5-.1.3 0 .7.2.9.7.8 2.6.9 3.6.9h.3c2.4 0 3.5-1.3 3.5-2.6 0-1.1-1.1-2.5-3.3-2.5zm-192.8 216.1c-.2 0-.3 0-.5-.1-1.6-.9-3.3-2.3-3.5-3.7 0-.4-.3-.6-.7-.6-.4 0-.7.2-1 .5-.2.2-.2.4-.1.7.9 2.6 3.2 4.5 5.8 4.9 1.7 0 2.8-.8 3.1-2.1.2-1.9-.8-3.8-2.5-4.6-.5-.3-1.5-1.3-1.4-2 0-.2.2-.5.9-.6 1.6.3 3 1.5 3.6 3 .1.3.4.5.7.5.4 0 .8-.2 1-.6.1-.2.1-.5 0-.8-1.1-1.9-3.3-3.9-5.2-3.9-.7 0-1.4.3-2 .9-1.9 2.3-.1 3.8 1.7 5.4.5.4 1 .9 1.5 1.3.1.3.1.6-.1.9-.2.5-.7.8-1.3.9zm54.2 37.5c.4-.5.8-.9 1.1-1.3.3-.5.7-1 1.1-1.4.7-.7 1.2-1.2 1-2.1-.2-.4-.5-.6-.9-.6-.3 0-.6.2-.7.4-1.5 2-2.9 3.9-4.5 5.8l-.6.7c-.2.2-.3.6-.2.9.2.8 1.3 1.7 2.2 2.2.6.4 1.2.8 1.8 1.3.5.5 1.1.9 1.7 1.3h.1c.5 0 .9-.4 1-.8.1-.4 0-.7-.3-.9-1.1-.7-2.2-1.4-3.3-2.2-.4-.3-.7-.5-1.1-.8l-.2-.1.1-.2c.6-.8 1.1-1.5 1.7-2.2zm-28.8-29c-.2.1-.5.2-.7.3-.1.1-.3.2-.4.3-.8.3-1.7.4-2.5.5-1 .1-2.1.3-3.1.6l-.9.2c-.8.2-1.7.5-1.8 1.1-.1.3.7 1.1 1.3 1.4.7.4 1.4 1 2.1 1.5l1 .7-.3.2c-.5.3-.7.9-.6 1.5.1.4.5.7.9.7s.8-.4 1.1-1l.1-.4.3.3c.1.2.3.3.6.3.4 0 .7-.3.8-.7.1-.3 0-.7-.3-.8l-.2-.1.2-.2c.4-.6 1.2-1.6 1.6-2.2.2-.2.4-.5.7-.8.7-.8 1.6-1.9 1.4-2.6-.3-.5-.6-.7-1.3-.8zm-2.3 3c-.1.1-.4.5-.4.5-.4.4-.7.8-1 1.2l-.4.6-.7-.5c-.5-.4-1.3-1-1.5-1.1l-.4-.3.5-.1c.7-.2 1.4-.3 2.1-.4.5-.1.9-.1 1.5-.3l.7-.1-.4.5zm75.9 146.6c-.2 1.7-.4 3 1.8 4.2.3.1.7.2 1 .2.6 0 1.2-.1 1.8-.2l1.8-.3c.4 0 .4-.5.4-.5 0-.2-.1-.6-.4-.6-.5 0-1 .1-1.5.3-.7.2-1.4.3-2.1.3-.9.1-1.8-.5-1.9-1.5v-.4c-.2-.5-.1-1 .1-1.5.6-.9 2.2-1.1 3.5-1.2.2 0 .5-.1.7-.1H476.626c.3 0 .6-.3.6-.6 0-.2-.1-.5-.4-.5-.6.1-1.1.2-1.7.2-1.8.2-3.5.4-4 2.2zm-92.6-154.9l-.4.6c-.3.4-.7.8-1.1 1.1-.2.2-.3.6-.2.8.2.4.6.8 1 .8.8-.2 1.1-.8 1.5-1.5.2-.4.4-.8.7-1.1.8-1.1 1.7-2.1 2.5-3.2l.6-.7.2.1c.5.3.9.7 1.4 1.1.3.2.5.5.8.7h.1c.5 0 .9-.3 1-.7.2-.6-.2-.9-.9-1.4-.2-.1-.4-.2-.5-.3-.9-.6-1.8-1.3-2.6-2-.4-.3-.8-.6-1.1-1-.4-.5-.9-.9-1.5-1.1-.5 0-.9.4-1 .8-.1.4 0 .8.3 1.1.7.5 1.5 1 2.3 1.6l.2.2-.2.2c-1.1 1.2-2.1 2.5-3.1 3.9zm26.8 17.5c.4-.5.8-1.1 1.1-1.6-.2-.5-.6-.8-1.1-.8h-.2l-.6.9c-.5.7-1 1.5-1.6 2.1-.2.2-.3.4-.5.7-.6.6-1.1 1.4-1.2 2.3.3.4.7.6 1.1.5h.2c.1-.2.2-.3.2-.5.2-.4.4-.8.7-1.1l.2-.2.2.2c.7.6 1.9 1.4 2.6 1.9l.2.2-.2.2c-.2.2-.4.5-.5.7-.3.3-.5.7-.4 1.1.1.4.5.6.9.6h.2c.5-.7 1.1-1.5 1.6-2.2 1-1.1 1.8-2.4 2.6-3.7-.3-.5-.6-.7-.8-.7-.5 0-1 .8-1.5 1.5-.3.4-.6.9-1 1.2l-.2.1-.2-.1c-.3-.3-.8-.6-1.2-.9-.5-.3-1-.7-1.4-1.1l-.2-.1.1-.2c.4-.3.6-.6.9-1zm-2.4-4.4c-.2-.1-.4-.3-.5-.4-.7-.5-1.3-1-1.9-1.6-.4-.3-.8-.7-1.1-1h-.1c-.4 0-.8.3-.9.7-.1.3 0 .7.2.9.2.1.4.3.6.4.3.2.5.4.8.6l.3.2-.2.2c-.7.8-1.3 1.6-1.9 2.4l-.5.7c-.6.5-1 1.1-.9 1.5.1.4.5.5.9.6.6-.1.8-.6 1.1-1.1.1-.3.3-.5.5-.8.4-.6.9-1.2 1.4-1.8l.7-.9.2.1c.3.2.6.4.8.7.2.2.4.3.6.5h.1c.4 0 .7-.3.9-.6.1-.3 0-.6-.2-.7-.4-.2-.6-.4-.9-.6zm18.6 10.6l-.5-.4c-.4-.7-1.1-1.1-1.8-1.3-.5 0-.9.4-1.3 1.2-.5.8-1.1 1.5-1.6 2.2-1 1.3-2 2.6-2.9 4.1-.2.2-.2.5 0 .8.2.4.6.6 1 .6h.1c.6 0 .9-.7 1.3-1.4.2-.4.4-.8.7-1.1l.2-.1.1.1c1.5 1.4 3.4 2.2 5.4 2.5 1.6 0 2.5-1 2.7-2.9.1-1.8-1.9-3.2-3.4-4.3zm1.1 5.2c-.3.2-.6.3-.9.3-1.1-.2-2.1-.7-2.9-1.5-.3-.3-.7-.5-1-.7l-.2-.1.2-.2c.2-.2.4-.5.5-.8.3-.5.7-1 1-1.5l.2-.2.2.2c.4.4.8.7 1.3 1 1.1.8 2.2 1.6 2.2 2.5-.1.4-.3.7-.6 1zm54.7 131.7c-.2.4-.2.9 0 1.4.1.3.1.6.2.9v.3h-.4c-.7 0-1.5.1-2.2.2-.7.1-1.5.2-2.3.2h-.3c-.3 0-.4.4-.4.6s.1.6.5.6h.2c1.6-.3 3.1-.5 4.8-.7h.2v.2c0 .2.1.5.1.7.1.7.1 1.3.5 1.3.2 0 .3-.1.5-.1.2-.3.1-.7 0-1.2-.1-.2-.1-.5-.1-.7-.1-.8-.2-1.5-.2-2.3v-.2c.1-.4 0-.9-.2-1.3-.1-.1-.2-.1-.3-.1-.2 0-.4.1-.6.2zm.8 7.4c-.2 0-.3.1-.5.1-.7.2-1.3.3-2 .3-1.1.1-2.4.1-2.8.6-.1.1-.1.3-.1.5.1.3.3.4.3.4.2 0 .4-.1.6-.2.4-.1.8-.2 1.2-.2h.2v.2c.1.9.4 2.7.5 3.4v.3h-.3c-.3 0-.7.1-1 .1h-.1c-.4 0-.7.2-.7.6 0 .3.1.5.5.6.8-.1 1.7-.2 2.5-.3 1.2-.1 2.4-.3 3.6-.5.2-.1.3-.3.3-.5 0-.3-.2-.5-.5-.5-1 .2-2 .4-3 .4h-.2v-.2c0-.5-.1-1.1-.2-1.7s-.2-1.2-.2-1.8v-.2h.2c.3 0 .7-.1 1-.2.3-.1.6-.1 1-.2h.4c.6-.1.8-.1.7-.6 0-.4-.2-.5-.5-.5-.5.1-.7.1-.9.1zm-46-123.7c.6 0 1.1-.5 1.1-1.2v-.1c0-.6-.4-1.1-1-1.1h-.2c-.6 0-1.1.5-1.1 1.1v.1c0 .3.1.6.3.8.3.3.6.4.9.4zm113.9-261.4h1.5c.7 0 .9-.2 1-.7 0-.6-.3-.8-1.1-.8h-4.1v-.4V396.222h4.2c.6 0 .8-.2.8-.6-.1-.6-.5-.9-1.4-.9-.4 0-.8 0-1.3.1-.4 0-.8.1-1.2.1h-.5c-.3-.1-.7-.1-1.1-.1-.3 0-.6 0-.8.2-.2.3-.3.9-.2 1.9.1.7.1 1.4 0 2.1-.1 1.8-.2 4.3.9 4.4.5 0 1.1-.1 1.6-.1.7 0 1.5 0 2.2.1h1.1c.4 0 .5-.5.5-.8 0-.3-.1-.7-.5-.7H543.326l-.1-1.5h.8c.9.3 1.6.3 2 .3zm183.6 80c-.3 0-.5.1-.7.3-.1.1-.2.3-.1.4 0 .9 0 1.7-.1 2.5s-.1 1.6-.1 2.5v.2H727.026v-.2c0-.8 0-1.7.1-2.4v-.4-1c.1-.6.1-1.2-.2-1.8-.2-.2-.4-.3-.7-.3-.2 0-.5.1-.7.2-.3.3-.3 1.1-.3 1.7v1c0 .9-.1 1.9-.1 2.9v.3h-.4c-.9 0-1.8 0-2.8-.1h-.3v-.3c.1-.8.1-1.6.1-2.4 0-.9 0-1.8.1-2.7 0-.4-.3-.7-.7-.7-1.3.1-1.2 1.4-1.1 3.2.1.6.1 1.2 0 1.8 0 .2 0 .5-.1.8-.1.7-.2 1.5.2 1.8.2.2.5.3.8.3h5.5c.9 0 1.8 0 2.6-.1 1.4-.2 1.3-.6 1.3-1.3v-.5-2.2c0-.4 0-.7.1-1.1 0-.3 0-.5.1-.8 0-.3.1-.6.1-.9 0-.2 0-.3-.2-.4-.2-.2-.5-.3-.8-.3zm.6-10.3h-2.6v-.2c-.1-.8 0-1.7 0-2.5.2-1.1.1-2.1-.1-3.2-.3-.2-.5-.3-.8-.3-.2 0-.3.1-.5.2-.6.7-.5 2.9-.5 4.3v1.7h-.2c-.5 0-1.1-.1-1.7-.1-.4 0-.9-.1-1.3-.1h-.2v-.2c0-.9 0-1.7.1-2.5s.1-1.7.1-2.6c0-.5-.5-.9-1-.9-.4 0-.8.3-.8.7v.1c.1 1.7.1 3.4 0 5.1 0 .4 0 .8-.1 1.2.1 1 .5 1.1.9 1.1h.6c.3 0 .6-.1.9-.1h.3c1.1.1 2.3.2 3.4.2 1 0 2 0 3.1.1h.2c.6-.1 1-.5 1-1.1-.1-.5-.4-.9-.8-.9zm-.8 24.3c-1 0-2 0-2.9-.1s-1.9-.1-2.9-.1h-2v-.3c0-.6 0-1.2.1-1.8 0-.3.1-.6.1-.9 0-.5-.5-.7-.9-.7-.3 0-.7.1-.9.4v2c0 1.3-.1 2.6-.1 3.9 0 .5-.1 1.3-.1 1.8 0 .2.1.4.2.5.2.2.5.3.8.3.3 0 .7-.1.8-.4v-3h.2c.6-.1 1.6-.1 2.7-.1 1.7 0 3.3.1 5 .3.5 0 .7-.5.8-.9 0-.4-.4-.9-.9-.9zm1.7-38.7v-.6c.1-.4.1-.9 0-1.3s-.5-.6-.9-.5c-.4 0-.7.2-.9.5v1.8c-.1 1.1-.1 2.1 0 3.2v.3h-2v-.3c0-.9 0-1.7.1-2.5s.1-1.6.1-2.5c0-.2-.1-.3-.2-.4-.2-.2-.4-.3-.7-.2-.4-.1-.9.3-.9.7 0 .7 0 1.3-.1 1.8 0 .9-.1 1.8 0 3v.3l-3.3-.1v-.2-2.5-2.4c0-.2 0-.3-.2-.5s-.4-.3-.7-.2c-.5 0-.9.2-.9.7v1.6c.1 1.4 0 2.8-.1 4.2 0 .3.1.6.3.9.4.3 1 .4 1.5.4h.9c1.9 0 3.1.1 4.5.1h1.9c.4 0 .8-.2 1.1-.5.3-.4.4-1 .3-1.5v-2.3c.2-.4.2-.7.2-1zm-2.6 49.6c1.4-1.3 1.5-1.9 1.4-2.1-.3-.8-3.2-.8-4.6-.8h-2c-1.1.1-2.1 0-3.2-.3-.5 0-.9.4-.8.9 0 .8.8 1.2 2.5 1.2.6 0 1.3 0 1.9-.1.6 0 1.1-.1 1.6-.1.3 0 .7 0 1 .1l.4.1-.3.3c-1.8 1.9-3.7 3.7-5.9 5.2-.7.4-1.4.9-1.1 1.4.2.5.6.8 1.5.8h1.5c1.5.1 3 .1 4.5.1h2.1c.4 0 .7-.3.7-.6v-.1c0-.5-.4-1-.9-1.1-.5 0-1 .1-1.5.1-1.2 0-2.5-.1-3.8-.2l-.6-.1.5-.4c1.9-1.3 3.6-2.8 5.1-4.3zm1.3-77.4c-.2-.1-.4-.1-.7-.2l-1.3-.6c-1.7-.8-3.1-1.4-5.2-2.2-.1 0-.2-.1-.3-.1-.4 0-.7.3-.7.7-.2.9.6 1.2 1.7 1.6.2.1.4.2.6.2.9.3 1.8.7 2.7 1.2.6.3 1.2.6 1.9.8l.5.2-.5.2c-.7.3-1.3.7-2 1.1-1.4.9-2.9 1.6-4.5 2.2-.4.2-.7.6-.6 1 0 .4.4.8.8.8h.2c1.2-.5 2.6-1.3 3.9-1.9.9-.5 1.9-1 2.6-1.3.4-.3.9-.5 1.3-.7.7-.2 1.3-.6 1.7-1.1.1-1.2-.8-1.5-2.1-1.9zm41.6-183c-86.3-205-322.5-301.3-527.5-215-205 86.3-301.3 322.5-215 527.5s322.5 301.3 527.5 215c149.4-62.9 246.5-209.2 246.5-371.3.1-53.6-10.6-106.8-31.5-156.2zm-44.1-73.3c-.9 7-1.8 13.8-2.7 20.4-2 14.9-4 30.3-6.2 47.4v.2h-.2c-6.9.5-14 .8-21.5.8-18.3 0-36-1.5-54.8-3-4.3-.4-8.7-.7-13.1-1.1h-.2v-.2c-.1-7.4-.2-14.6-.4-21.5-.5-30.2-1-56.3.4-87.9v-.2h.2c7.9.1 15.6 1.8 23.1 3.6 4.5 1 9.1 2.1 13.7 2.8 6.1 1.2 12.3 2.1 18.3 3 5.7.8 11.4 1.7 17.2 2.8 9.4 10.4 18.1 21.5 26.2 32.9zm-325.8-168.9c53.3-.1 106 10.5 155.1 31.3 10.4 4.4 20.6 9.2 30.5 14.5-16.5-2.6-33-5.3-49.3-8.1-30.4-4.6-61.1-9.8-90.9-14.9-27.6-4.7-56.1-9.6-84.3-13.9-8-1.2-16-2.6-23.8-4 20.7-3.3 41.7-4.9 62.7-4.9zm-70.5 6.2c37.4 6.1 75 12.6 111.5 18.8 30.7 5.3 62.5 10.7 93.7 15.9 19.7 3.2 39.5 6.3 59.3 9.4 16.9 9.4 33 20 48.3 31.8-6.8-1.2-13.6-2.5-20.2-3.7-28.9-5.4-58.9-11-88.6-14.9-34.7-4.2-69.9-10.4-103.9-16.4-55.6-9.8-112.9-19.9-170.1-21.6 22.7-8.6 46.1-15.1 70-19.3zm-70.7 22.9c60.4.9 120.8 11.8 179.2 22.4 12.8 2.3 26.1 4.7 39.1 7 53.2 6.7 106.8 16.2 158.7 25.4l11.4 2c5.2 4.1 10.3 8.4 15.4 12.8-27-4.7-54.3-9.2-80.8-13.5-24.9-4.1-50.7-8.3-76.1-12.7-16.7-2.8-33.5-6.1-49.8-9.2-20.8-4-42.2-8.2-63.5-11.4-5.8-1-11.7-2.2-17.4-3.3-13.6-2.7-27.7-5.6-41.9-6.6-8.1-1.3-16.5-2.2-24.6-3-16.6-1.7-33.7-3.5-49.7-9.3v-.6zm-53 191c.8-5.8.9-11.6.5-17.4-.2-3.3-.3-6.8-.3-11.3.2-9.6.4-19.3.6-28.7.1-5.4.2-10.7.4-16.1.7-15.9.5-31.9.3-47.5-.2-15.5-.4-31.6.3-47.4v-.3l.3.1c13.7 2.5 26.4 5 38.7 7.4 12.2 2.4 24.8 4.9 38.3 7.3h.2v.2c.1 14.8.4 29.9.6 44.4.7 38.6 1.4 78.5-1.2 117.9v.2h-.2c-1.9.1-4 .1-6.1.1-6.7 0-13.6-.3-20.2-.7-6.5-.3-13.2-.7-19.7-.7-1.8-.1-3.6-.1-5.6-.1-3.1 0-6.2.1-9.2.1s-6.1.1-9.2.1c-2.9 0-5.5-.1-7.9-.2h-.2v-.2c0-.8-.1-1.7-.2-2.5-.3-1.4-.3-3.1-.2-4.7zm-123.5-62v-.3c26-34.3 57.4-64.2 93-88.5v15.4c0 18.9 0 38.4.5 57.6 0 8.1-.4 16.3-.7 24.3-.5 12.9-1 26.2-.4 39.4-.1 6.2-.5 12.4-.8 18.5-.1 2.6-.3 5.1-.4 7.7-.3 3.2-3.2 4.3-5.8 4.3-2.1 0-4.1-.6-5.7-1.9-29.4-24.8-54.2-44.7-78.3-62.6-3.3-2.6-2.3-8.6-1.4-13.9zm-49.5 85.3c2.8-6.7 5.8-13.2 9-19.7-.2 1.2-.4 2.3-.6 3.5-3.3 18.7-6.6 38-9.1 57.1-.3 1.7-.4 3.4-.6 5-.6 5-1.1 10.1-3.6 14.8-.2.4-.2.8-.2 1.2v.4c-.2 5.2-.5 10.4-.7 15.5-.4 8.5-.9 17.3-1 26.1v.4l-.3-.1c-1.8-.7-9.1-4-19.7-9 4.9-32.8 13.9-64.7 26.8-95.2zm-31.3 155.1c0-9.5.3-19 1-28.5 9.6 4.7 16.5 7.9 18.8 9 2.1.8 3.3 3 3 5.3l-.4 5.4c-.8 11.5-1.6 23.5-2.5 35.2-2.6 26.5-4.2 53.6-5.6 80-9.6-34.7-14.4-70.5-14.3-106.4zm23.1 134.2c.5 0 1.1.1 1.6.1 1 0 2 .1 3 .3l.4.2-.3.3c-1.1.8-2.3 1.6-3.5 2.4-.4-1.2-.8-2.2-1.2-3.3zm93.6 147.6c-31.3-31.3-57.2-67.5-76.6-107.4 1.6-22.8 2.9-45.9 3.5-68.7 1.4-18.8 3.1-37.8 4.7-56.3 1.4-15.9 2.9-32.4 4.1-48.7.4-1.9.9-3.2 2.5-3.2.8 0 1.5.2 2.2.5 10.5 3.8 20.6 8.5 30.3 14.1 8.2 4.6 16.9 8.5 25.4 12.3 9.8 4.4 19.9 8.9 29.3 14.5 3.4 2.1 6.9 4.1 10.4 6 4.4 2.5 9 5 13.2 7.9 2.4 1 2 8.2 1.7 14.4-.2 2.4-.2 4.9-.1 7.3.4 35 .6 69.3-2 103.3.4 23.6-1.2 47.5-2.8 70.7-1.1 15.8-2.2 32.2-2.6 48.3v.3l-.3-.1c-11.1-4.1-22.5-8.1-33.4-12l-9.3-3.3c-.1.2-.2.1-.2.1zm70.2 55.9c.9-3.3 2.8-6 7.2-6.6 5.2-1 9.5-1.8 13.3-2.4.7-.1 1.5-.2 2.3-.2 2.7 0 3.9 1.3 4.7 5 1.7 7.3 3 14.7 4.1 22.2-10.8-5.5-21.3-11.5-31.6-18zm56.5 29.5c-1.2-.5-2.3-1-3.5-1.5-1.6-12.7-3.1-25.4-4.4-38v-.2h.2c1.1-.2 2.2-.4 3.2-.6 2-.4 3.9-.8 5.8-1.1 3.7-.5 7.4-1.1 11.1-1.7 18.5-2.8 37.6-5.6 56.5-7.4 5.6-.6 12.2-1.2 18.9-1.4h1c3.9 0 4.7 1.2 5.3 5.5 1.5 11.7 3 23.3 4.6 35 1.7 13.1 3.4 26.3 5.1 39.6-35.6-4.7-70.6-14.2-103.8-28.2zm155.1 31.3c-10 0-19.9-.4-29.8-1.1-1-5.2-2-10.4-3-15.5-4.2-21.6-8.6-43.9-9.4-66.5v-.2h.2c16.8-3.9 33.8-6.2 49.8-8.2 2.2-.3 4.4-.6 6.5-.9 7.7-1.1 15.7-2.2 23.5-2.2 5.7-.1 11.3.6 16.8 2h.1v.1c.1.4.2.8.4 1.2.3.9.5 1.8.7 2.7 4.1 21.1 6.3 42.8 8.5 63.7.7 6.3 1.3 12.8 2 19.2-21.8 3.9-44.1 5.7-66.3 5.7zm155.1-31.3c-14.6 6.2-29.6 11.5-44.8 15.9-2.2-.3-4.4-.6-6.6-.8-4.2-.4-8.4-.5-12.6-.5h-1c-5.7 0-5.8-.2-6.7-5.8-3.1-22.9-6.1-45.3-8.1-68.4v-.4l.4.1c12.8 4.6 23 12 33.9 19.9l1.9 1.4c7.7 5.6 15.7 11.2 23.4 16.6 8.9 6.2 18 12.5 26.9 19.1-2.3.9-4.5 1.9-6.7 2.9zm151-204c-1.3 19-.8 38.4-.4 57.1.3 11.4.5 23.1.4 34.8-7.7 9.2-15.8 18.1-24.3 26.6-26.8 26.9-57.3 49.8-90.6 68-3.3-2.8-6.7-5.5-10.1-8.1l-.2-.1.1-.2c6.2-10.4 14.1-20 21.7-29.3 13-15.9 26.5-32.3 31.6-52.9 3.9-18-9.3-32.7-21.3-43.5-20.6-19.8-44.6-36-67.8-51.7-7.5-5.1-15.2-10.3-22.7-15.5l-.2-.1.1-.2c6-9.8 12.7-19.1 19.9-28 3-3.8 3.6-7.9 2-13.4-8.3-29-17.7-61.8-24.4-94.8l-.1-.3h.3c15-2.1 30.1-3.1 45.2-2.9 11.5 0 23.3.4 34.6.8 6.2.2 12.6.4 18.9.6 9.4 1.1 18.9 1.6 28.5 1.5 4.5 0 9.1-.1 13.6-.1h3c5.9.1 11.8.3 17.5.5 7.1.3 14.5.5 21.9.5h5.3v.2c4.8 21.5 3.2 43.5 1.7 64.7-.3 4.5-.6 9.1-.9 13.7-.5 10.6-1 21.3-1.4 31.8-.6 13.1-1.1 26.9-1.9 40.3zm2.8 88.5c0-9-.2-18.1-.3-26.9-.3-19.9-.7-40.4.5-60.6.8-13.6 1.4-27.4 2-40.8.7-16.4 1.4-33.4 2.5-50 1.3-12.4 1.7-24.9 1.2-37.4-.3-6.1-1.1-12.2-1.9-18.1l-.6-4.8c-.4-3-.8-3.3-4.2-3.6-1.5-.1-2.3-.2-2.9-.3-1.2-.2-2.3-.2-3.5-.3-22.1-.1-44.6-.8-66.3-1.6-22.8-.8-46.4-1.6-69.6-1.6-11 0-21 .2-30.7.5-4.5.2-9 .6-13.4 1.3-3.3.5-4.8.7-5.4 1.6-.6.9-.1 2.5.6 5.5 2.9 9.9 5.3 20.1 7.6 29.9 3 12.9 6.2 26.2 10.5 39 1.1 3.6 1.9 7.3 2.6 11 .8 3.9 1.7 8 2.9 11.8 1.5 4.8 1 8.5-1.6 12.1-4.1 6.3-8.7 12.5-13.1 18.4-2.5 3.3-5 6.8-7.5 10.2-.7.9-.9 1.5-.8 2s.6.9 1.6 1.5c9.1 5.3 18 11 26.5 17.1 2.8 1.9 5.5 3.7 8.3 5.6 24.2 16.2 49.2 33 68 56.1 7.4 7.4 10.3 16.8 8.9 28.1-2 15-11.5 27.5-20.7 39.5-1.1 1.4-2.1 2.8-3.1 4.1-11.7 14.3-21.4 27.2-30.6 40.7 3.9 3.2 7.7 6.4 11.6 9.5-7.6 4-15.3 7.9-23.1 11.4-4.4-3.3-9.1-6.7-14.3-10.5-8.1-5.3-16-11.3-23.7-17.1-15.5-11.6-31.5-23.6-49.6-31.3-.8-.3-1.6-.5-2.5-.5-.8-.1-1.6.3-2.1.8-.7.8-.9 2.1-.7 3.8.4 3.2.9 6.4 1.4 9.6.7 4.5 1.4 9.1 1.9 13.7 1.1 7 1.9 14.3 2.6 21.2 1.2 10.7 2.4 21.8 4.7 32.4 1.9-.1 3.8-.1 5.8-.1 4.3 0 8.5.2 12.6.6-10.4 2.7-21 5-31.6 6.9-2.4-20.5-4.7-41.2-7-62.1-.7-5.8-1.7-11.7-2.7-17.4-.5-2.7-.9-5.4-1.4-8.1-.3-1.6-.7-2.6-2.1-2.7-5.8-1-11.7-1.5-17.6-1.5-7.6 0-15.2.8-22.7 2.2-18.8 2.6-37.9 5.3-56.3 7.9l-2.7.4c-2.4.3-3.2 1.3-2.9 3.7 1.4 14.6 3.6 29.6 6.4 44.6 2.2 12.4 4.4 25 6.5 37.5-5-.4-10.1-.9-15.1-1.5-1.5-13-3.1-26.5-4.8-40.8-1.4-11.4-3-23.6-5.3-39.4-.3-1.9-.8-3-2.8-3-1.7-.1-3.4-.1-5.2-.1-9.3 0-18.7 1.2-27.8 2.4-6 .8-12.2 1.6-18.2 2-17 1.6-34.6 4.3-55.4 8.4.2.8.5 1.5.7 2.2.5 1.4.9 2.8 1.2 4.2 2 11 3.6 22.1 5.1 33.2-5.3-2.3-10.6-4.8-15.7-7.4-.7-5.3-1.6-10.6-2.6-15.8-.2-1.3-.4-2.6-.6-3.8-.4-3.6-.9-7.4-3.6-10.6-1.3-1.5-2.4-2.1-3.7-2.1-.3 0-.7 0-1 .1l-4.1.8c-4.9 1-9.9 2-14.9 3.1-4.9.9-7 3.1-7.8 6.6-22.6-14.5-43.8-31.3-63-50.1 1.9.7 3.8 1.3 5.6 2 10.8 3.8 21.9 7.7 32 13.5.6.4 1.3.6 2.1.7.6 0 1.1-.2 1.5-.6 1.2-1.2 1.7-4.2 1.5-8.9.2-3.2.3-6.4.4-9.6.4-8.2.8-16.8 1.3-25.1 2.7-26.3 3.3-53 3.8-78.9.3-11.9.5-24.1 1-36.2.8-13.1.6-26.4.5-39.3-.2-12.2-.3-24.8.3-37.2h-.1v-.2c-.1-1.9-.1-3.9.1-5.8.4-4.8.6-8.3-6.2-11.2-4.6-2.2-9-4.9-13.4-7.5-3.8-2.3-7.7-4.7-11.8-6.7-23.6-11.2-49-23.4-79.8-38.4-1.2-.5-2.6-1.3-4-2-1.5-.8-3.1-1.6-4.3-2.1-.8.7-1.3 1.6-1.4 2.6-.2 11.3-1.3 22.8-2.3 33.9-.4 4.3-.8 8.7-1.2 13-.7 7.1-1.5 14.3-2.3 21.3-1.5 13.5-3 27.4-3.9 41.1l-.1 7.1c-.3 17.4-.5 35.3-1.8 52.9-.2 1.9-.3 3.7-.5 5.6-2.2-4.7-4.3-9.4-6.3-14.1-.6-1.5-1.3-3.1-1.9-4.6.1-.5.1-1 .2-1.5l.3-2.7c-.2-.3-.6-.5-.9-.5-.2 0-.5.1-.6.3-.2.2-.3.5-.3.8l-1.8-4.5c.7 0 1.3.1 2 .3.4.1.8.1 1.1.1.7 0 1.1-.3 1.1-.9 0-.2 0-.4-.2-.6-.6-.7-2.5-.7-4-.7h-.7l-.6-1.5c.2-.1.3-.2.5-.3.2-.2.7-.5 1.2-.8 1.6-1 4.6-2.9 4.5-4.1 0-.3-.4-.6-.9-.8l-1.3-.1c-2.3-.2-4.4-.5-6.6-.8-.3-.9-.6-1.7-.9-2.6.1.1.3.1.5.1.5.1.9-.3 1-.8v-.4c0-.8.1-1.6.1-2.4v-.3l.3.1c1.7.3 3.4.5 5.1.6l.8.1c.3 0 .6.1.9.2.3.1.6.1.9.1.4 0 .7-.1.8-.9 0-.8-.5-1.1-1.7-1.1h-1.2c-.2 0-.5 0-.7-.1-1.3-.1-2.7-.3-4.1-.4l-.9-.1v-.2c0-.6.1-1.1.2-1.6.1-.4.1-.8.2-1.2-.6-.5-.9-.6-1.1-.6-.8 0-.9 2.1-.9 3-.1 1.6-.4 3.2-.7 4.7-1.3-3.9-2.6-7.8-3.8-11.8 1.4-26.6 2.9-54 5.2-80.9.7-9.6 1.4-19.1 2.1-28.6.6-7.6 1.1-15.1 1.7-22.7.3-4 .3-4-3-5.6-3-1.3-11-5.1-22-10.4.7-8.5 1.6-16.9 2.8-25.3 2.8 1.3 5.6 2.8 8.3 4.3 4.6 2.5 9.3 5.2 14.4 6.5 1.9-3.2 1.7-6.4 1.5-9.8-.2-1.8-.2-3.6 0-5.4l.3-4.4c.4-7.3.9-14.8 1.6-22.1 2.3-26 7-52.1 11.6-77.3 1.1-6.3 2.3-12.7 3.4-19.1 9.3-17.9 20-35 32-51.3-.1.9-.2 1.8-.4 2.6-1.2 6.3 4.2 9.7 9.4 13.1 2.4 1.4 4.6 3 6.6 4.9 17.7 13.9 35.9 28.5 55.6 44.8 1.3 1.1 2.6 2.3 3.9 3.5 4.7 4.4 9.2 8.6 15.1 8.6 2.2 0 4.3-.5 6.3-1.5 2.4-.7 2.4-9 2.4-15.1-.1-2.2 0-4.4.2-6.5.2-8.5.1-17.2 0-25.6-.1-14.1-.2-28.8.8-43.1 0-10.3-.2-20.6-.3-31.5-.2-14.4-.4-29.3-.3-44.9v-2.4-2.3c8.6-5.8 17.4-11.2 26.4-16.2-.3 59.4-.6 108.6-1.1 154.8-.1 3.1-.3 6.3-.5 9.4-.1 2.1-.3 4.2-.4 6.4 0 .5-.1.9-.1 1.4-.2 2.7-.4 5.4 1.4 7.9h3.9c6 0 12 0 17.9-.1 16.9 0 36.9.2 56.7 1.6.7 0 1.3.1 1.7.1.3 0 .5.1.8.1.7 0 1.1-.4 2.8-2.3v-1.2c-.2-1.3 0-2.5.6-3.7 0-1.4.1-2.9.1-4.3.1-5.3.2-10.7.6-16.1.2-2.4.2-4.9-.1-7.3-.3-2.8-.2-5.6.2-8.3v-.2h.3c-.1-6.3-.3-12.6-.5-19-.6-22.3-1.3-45.3-.1-68 0-7.9-.1-15.8-.3-23.6-.1-4-.2-8.1-.2-12.1.1-2.7-2.5-3.3-4.8-3.8-.3-.1-.6-.1-.9-.2-4-.7-6.9-1.4-9.8-2.1-2.9-.7-5.9-1.4-10-2.1l-8.9-1.6c-8.2-1.4-16.6-2.9-24.9-4.4-5.1-.9-10.2-2-15.2-3-1.5-.3-3.1-.6-4.6-.9 4.5-2.4 9-4.8 13.6-7-.3 1.7-.5 3.4 0 4.2.1.2.3.3.5.3 1.3.1 2.7.3 4 .6.6.1 1.3.2 2 .3.5-.1.8-.5.8-1 .1-.4-.2-.8-.6-.9-.9-.1-1.7-.2-2.4-.4s-1.6-.3-2.4-.4h-.2l.1-.6c0-.3.1-.6.1-.8v-.3h.2c.8.1 1.7.3 2.5.4h.3c.3 0 .6.1.9.1.4.1.9.2 1.3.2.6 0 .9-.2 1-.8 0-.9-.6-1-1.7-1.1-.4 0-.7-.1-1.1-.2-.9-.1-1.9-.3-2.9-.4h-.3l.1-.4c1.6-.8 3.3-1.6 4.9-2.3.3.1.6.1 1 .2.4 0 .7-.4.7-.8v-.1c4.4-2.1 8.9-4.1 13.5-6 .3-.1.6-.2.9-.4 3.9.9 7.8 1.9 11.6 2.8 5.9 1.5 11.9 3 17.9 4.2 10.7 1.6 21.7 2.9 32.2 4.1 6 .7 12.3 1.5 18.4 2.3 41.1 5.6 82.6 13.3 122.7 20.7 12.9 2.4 26.3 4.9 39.4 7.2 36.6 6.4 73.8 12.6 109.9 18.6 22.7 3.8 45.8 7.7 68.9 11.6 5.1 4.6 10.1 9.4 15 14.2 5.2 5.2 10.2 10.5 15 15.9-6.5-1.1-12.9-2.2-19.3-3.2-5.5-.9-11.2-1.8-16.8-2.8-5.3-1-10.8-2.2-16-3.3-4.2-.9-8.5-1.8-12.8-2.7-.8-.2-1.6-.4-2.5-.4-1.3 0-2.6.5-3.6 1.4-1.5 1.5-2.3 4.2-2.2 7.7-.1 5.8-.2 11.5-.3 17.2-.5 30.6-1 59.4.6 89.5h.3c23.8 2.3 48.5 4.7 72.8 4.7 6.2 0 12.3-.2 18.1-.5 4.1-.2 4.4-.9 4.9-5 1.6-13.6 3.5-27.2 5.5-40.4 1-7.1 2.1-14.3 3.1-21.6 7.3 10.6 14.1 21.6 20.3 32.9-.2 2.5-.4 4.9-.5 7.4-3.6 44.9-5.2 90.4-6.3 132.8l-.9 25.5c-2.8 79.5-5.8 161.2-6.2 242.4-8.1 12.5-16.8 24.5-26.2 36zm58.3-96.6c-8.2 19.4-18 38.2-29.2 56 .3-57.8 2.3-116.2 4.3-172.9 1-29.6 2.1-60.2 2.9-90.4.7-34.2 2.4-69 4.1-102.6l.7-13.9c.4-6.3 1-12.5 1.8-18.8 5.6 10.5 10.7 21.2 15.4 32.2 41.7 99.4 41.7 211.2 0 310.4zm-37.5-146.2c-.6-.1-1.2.4-1.3 1-.1.7.4 1.2 1.1 1.3h.2c.6 0 1.1-.6 1.1-1.2.1-.6-.4-1.1-.9-1.2l-.2.1zm-.3 24.9c-1.6.7-3.2 1.5-4.7 2.5s-3.1 1.9-4.8 2.6c-.3.3-.4.7-.3 1 .3 1 2.3 1.7 3.8 2.3.6.2 1.3.5 1.9.8.5.2.9.4 1.4.6.7.3 1.5.6 2.2.9.5 0 .7-.4.8-.9.1-.5-.2-.9-.7-1-.4-.1-.8-.2-1.2-.4l-.1-.1v-.2-1.6-3.7l.6-.3c.4-.2.9-.5 1.4-.8.3-.2.5-.6.4-1-.1-.3-.3-.7-.7-.7zm-3.4 7.6l-.4-.2c-.1-.1-.2-.1-.4-.2-.5-.2-1.1-.4-1.6-.7-.3-.1-.7-.3-1-.4l-.5-.2.5-.2c.6-.3 1.2-.7 1.8-1.1.4-.2.7-.5 1.1-.7l.4-.2v3.3l.1.6zm-112.9-44.1c-.3 0-.6 0-.9.1h-.3c-1-.1-2-.2-2.2-.7-.2-.4.3-.8.4-1 .4-.2.9-.4 1.4-.4.8.1 1.6.2 2.4.5l.4.1c.3 0 .5-.2.6-.4.1-1.3-1.3-1.4-3-1.5h-.6c-2 0-3 1.3-3 2.4 0 1.3 1.2 2.4 2.5 2.4h.4c.3.1.5.1.8.1h1.2c.3 0 .6 0 1 .1h.1l.1.1c.4.3.5.9.3 1.3-.4.8-1.7.8-2.3.8-1.3 0-2.9-.4-3.4-1.1h-.1c-.3 0-.6.3-.7.6-.1.3 0 .6.2.8.9.7 2.1 1.1 3.3 1 .7 0 1.4-.1 2.1-.3 1.9-.3 2.4-1.5 2.4-2.5-.2-1.4-1.6-2.5-3.1-2.4zm116.5 16.4c-.3 0-.5.1-.7.3-.1.1-.2.3-.1.4 0 .9 0 1.7-.1 2.5s-.1 1.6-.1 2.5v.2H728.526v-.2c0-.8 0-1.6.1-2.4v-.4-1c.1-.6.1-1.2-.2-1.8-.2-.2-.4-.3-.7-.3-.2 0-.5.1-.7.2-.3.3-.3 1.1-.3 1.7v1c0 .9-.1 1.9-.1 2.9v.3h-.4c-.9 0-1.8 0-2.8-.1h-.3v-.3c.1-.8.1-1.6.1-2.4 0-.9 0-1.8.1-2.7 0-.2-.1-.4-.2-.5-.2-.1-.4-.2-.6-.2-1.2.1-1.2 1.4-1.1 3.3.1.7.1 1.3 0 2v.3c-.1.8-.2 1.7.2 2 .2.2.6.3.9.3h1c.4 0 1 0 1.8.1 1 .1 2 .1 3.1.1 1.8 0 2.9-.2 3.3-.7.1-.1.2-.3.2-.5-.1-1.5-.1-3.1.1-4.6 0-.4.1-.8.1-1.3 0-.2 0-.3-.2-.4-.2-.2-.5-.4-.8-.3zm-2.2 99.3c-.1 0-.2 0-.4.1-.8.5-1.6.9-2.4 1.3-1 .6-2.1 1.2-3.1 1.8-.8.6-1.6 1-2.5 1.3-.4.2-.7.3-1.1.5-.2.2-.4.5-.3.8 0 1 1.1 1.5 2.3 1.9.4.2.9.3 1.3.5 1 .4 1.9.8 2.7 1.1.9.4 1.8.8 2.9 1.2h.3c.4 0 .7-.5.7-.9.1-.5-.2-.9-.7-1-.4-.1-.8-.2-1.2-.4l-.2-.1v-.2-2.7-2.5l.1-.1c.3-.2.6-.4.9-.5 1-.5 1.5-.8 1.4-1.6.1-.1-.2-.5-.7-.5zm-3.3 7.6l-.3-.2c-.1-.1-.2-.1-.4-.2-.5-.2-1.1-.4-1.6-.7-.3-.1-.7-.3-1-.4l-.5-.2.5-.2c.6-.3 1.2-.7 1.8-1.1.4-.2.7-.5 1.1-.7l.4-.2v3.9zm-7.5-129.3v-23.3h-.8v-.3c1.2-19.2 1.7-38.7 2.2-57.6.4-14.8.7-30.2 1.5-45.3.1-2.2-.5-3.1-2.3-3.2-5.7-.4-11.3-.5-15.6-.5h-6.9-5.1c-5.1 0-10.4.1-15.5.3-1.8.1-3 .5-3.7 1.3-.7.8-.9 2.1-.7 4.1.8 11.8.1 23.9-.5 35.5-.4 7.3-.8 14.8-.9 22.3l-.1 1.8c-1 20-2 40.6-2 60.9 0 4.8.9 5.3 5.8 5.3 13.3.1 26.8.7 41.5 1.9h.7c.7.1 1.4-.1 2-.5.3-.2.4-1.1.4-2.7zm-2.3-60.8c-.8 19.8-1.5 40.3-1.3 60.5v.2h-3.2c-4.9 0-9.5-.3-14.3-.6-2.6-.2-5.2-.3-7.9-.5-5.8-.3-10.5-.5-14.9-.6-2.5 0-3.7-1.3-3.7-4-.2-16.3.8-32.9 1.6-48.9.5-9 1-18.2 1.3-27.4.2-4.4.4-8.9.6-13.2.5-10.5 1-20.5.9-31.1v-.2h.2c4.8-.6 9.6-.8 14.4-.8 3.5 0 7.1.1 10.5.2 3.5.1 7.1.2 10.7.2 2.2 0 4.1 0 6-.1h.3v.3c.5 22.1-.3 44.4-1.2 66zm-58.4-56.1v-8.9c0-1.4-.4-3.1-1-3.4-3.6-1.8-7.6-2.6-11.6-2.5-2.9 0-6 .3-8.9.6-2.6.3-5.3.5-7.9.6-4.1.3-4.8 1.2-4.8 5.6.6 23.4-.1 47.2-.6 70.1l-.1 3-.3 15.4c-.2 10.8-.4 22-.7 32.9-.1.9.2 1.8.8 2.5 1.2 1.2 3.4 1.4 5.1 1.4 7.1.5 14.3.8 21.9.8h5.5l.4-8.9c1.6-31.2 3.2-63.4 2.5-95.1-.3-4.6-.3-9.4-.3-14.1zm-5.1 91.9c0 1.8.1 3.5.1 5.1.2 6 .4 11.6-1.3 18l-.1.2-26.5-.9v-.2c0-1.6-.1-3.1-.1-4.5-.1-3.1-.2-6.1-.1-9 .2-12.3.7-24.8 1.2-36.9.9-24 1.9-48.8.8-73.2v-.2h.2c5.5-1.1 11.1-1.7 16.6-1.6 3.5 0 7 .1 10.2.3h.2v.2c2.5 35.6.9 70.4-1.2 102.7zm-25.2 34.6h-.1c-.5 0-.9.4-.9.9v.1c0 .5.3.9.8.9h.2c.3 0 .6-.1.7-.4.2-.4.2-.8 0-1.2-.2-.1-.4-.3-.7-.3zm97.5 190.1c-.9 0-1.8.4-2.4 1.1-.7.9-1 2.1-.8 3.2 0 2.2-.4 3.4-1.1 3.4-.2 0-.5-.1-.8-.6-.7-1.5-.6-3.3.3-4.7.1-.2.1-.5 0-.7-.2-.3-.4-.4-.7-.4-1.4.3-1.5 2-1.7 3.4 0 .3-.1.6-.1.9.1 2.3.9 3.5 2.7 3.8h.2c2.9 0 3-2.6 3.1-5.2 0-.6.1-1.3.1-1.8v-.1l.1-.1c.3-.3.7-.5 1.1-.5.3 0 .5.1.7.3.8.8.7 2.9.7 3.3 0 1.1-.4 2.1-1.1 2.9-.2.2-.3.4-.2.7.3.4.7.7 1.2.7.3 0 .6-.2.9-.7 1-1.5 1.3-4.9.7-6.1 0-1.5-1.3-2.8-2.9-2.8zm-99.4-196.7h-4.8c-.4 0-.9-.1-1.3-.1h-.3c-.4 0-.6.5-.6.8 0 .2 0 .3.1.5.1.1.2.2.4.2H621.026l.1.2c.2 1.2.2 2.3.1 3.5-.1 1.1-.1 2.2 0 3.3.2.1.5.2.7.3.1 0 .3-.1.4-.2.4-.8.5-1.7.3-2.6v-1.6-2.9h.4c.4 0 1 0 1.4.1h.7c.4 0 .5-.5.5-.7s.1-.8-.4-.8zm103.4 132.5c-.6-.8-1.5-1.3-2.5-1.3-.9 0-1.8.5-2.3 1.3-.6 1-.8 2.1-.7 3.2 0 .4 0 .9-.1 1.3-.2 1.2-.7 1.4-1 1.4-.2 0-.5-.1-.6-.3-.4-.5-.6-1.2-.5-1.8-.1-.8 0-1.6.4-2.2.3-.4.4-.9.4-1.4-.2-.3-.6-.6-1-.6-1 0-1.5 2.7-1.6 4.2-.2 1 .1 2.1.8 2.9.6.6 1.4 1 2.2 1 1.4 0 2.5-1 2.7-2.4.1-.6.2-1.2.2-1.8 0-.8.1-1.5.3-2.3v-.1h.1c.3-.2.7-.3 1.1-.4.3 0 .6.1.9.4.7.8.5 2.4.5 2.9 0 1-.3 2.1-1 2.8-.2.2-.3.4-.2.7.4.5.8.7 1.1.7.3 0 .6-.2.7-.4.9-1.3 1.3-2.9 1.2-4.5 0-1.3-.4-2.4-1.1-3.3zm-2.1 18.3H728.226c.5 0 .7-.5.7-1 0-.3-.1-.9-.7-.9h-.5c-1.2 0-2.4 0-3.6-.1-1.2 0-2.3-.1-3.5-.1h-1.7c-.4.1-.7.4-.6.8 0 .5.3.9.7.9.6-.1 1.2-.1 1.8-.1.9 0 1.9.1 2.8.2h.2v.2c-.1.8-.1 1.6 0 2.6s0 1.9-.1 2.7v.2h-4.5c-.4.1-.7.4-.7.9s.4.9.9.9c.1 0 .3 0 .4-.1H722.726c.6 0 1.3 0 1.9.1s1.2.1 1.8.1c.7 0 1.5-.1 2.2-.3.3-.2.4-.6.3-1-.1-.4-.4-.7-.7-.7l-.5.1c-.5.1-.9.1-1.4.1H725.426v-.2c.1-1.4.1-4 .1-5.3v-.3h.3c.2.3.4.3.7.3zm-3.2 33.7h-.6c-3.2 0-4.9 2.9-4.9 5.6 0 1.2.4 2.5 1.1 3.4.8 1 2.1 1.6 3.4 1.5h.9c1.6 0 3-.9 3.7-2.2 1.1-1.9 1.1-4.3.1-6.3-.7-1.3-2.1-2.1-3.7-2zm2.8 5.3c0 1-.3 1.9-.8 2.8-.6.5-1.4.8-2.2.8-1.2 0-2.3-.5-3.1-1.4-.5-.7-.7-1.6-.5-2.4-.1-.8.3-1.7.8-2.3.7-.7 1.6-1 2.6-1s1.9.4 2.5 1.1c.7.6.9 1.5.7 2.4zm1.8-25.5h-2.6c-1.9 0-3.5 0-5-.1h-.2v-.2c0-.6 0-1.1.1-1.7.1-.4.1-.8.1-1.2-.2-.3-.6-.5-.9-.5-.4 0-.8.3-.8.7v2.3c0 1.8-.2 3.5-.4 5.2 0 .2 0 .4.2.6.2.2.5.3.8.3.3 0 .6-.1.8-.3.1-.1.2-.3.2-.5v-.6-2.5l.3.1c.9.1 1.8.2 2.8.2h1.6c1.1 0 2.1.1 3.2.2.5 0 .8-.5.8-1.1-.2-.4-.4-.9-1-.9zm-1.8 8.4c-.9-.4-1.9-.6-3-.6H719.526c-.7 0-1.2.1-1.4.4-.2.4-.2.8 0 1.1.3.3.7.5 1.1.4.3 0 .6 0 .8-.1.3 0 .6-.1.9-.1h1.5c1.4 0 2.9 0 3.7.9.5.7.7 1.7.5 2.6.1.6-.1 1.3-.5 1.8-.8.9-2.3 1-3.7 1h-2.4c-.3-.1-.6-.1-.9-.1-1 0-1.1.5-1.1.9 0 .8.6.9 1.2.9h.3c.4 0 .8 0 1.2.1.7 0 1.5.1 2.2.1H723.826c2.1 0 4-1.4 4.5-3.4.6-2.2-.2-4.6-2.2-5.9zm-430.3-322.2c1.3.1 2.4-.9 2.5-2.2 0-.4.1-.6.1-.8.1-.7.1-1.3.1-2-.1-.5 0-1.1.3-1.5.2-.2.4-.3.6-.3h.2c.4 0 1 .2 1.3 1.1.5 1.5 0 4.2-.8 4.8-.2.2-.3.4-.2.6.2.4.5.6.9.6.2 0 .4-.1.6-.3 1.3-2 1.5-4.4.7-6.6-.4-1-1.4-1.8-2.5-1.8-.8 0-1.5.3-2 .9-.7.8-.9 1.9-.8 3v.3c0 1.2-.1 2.5-.7 2.7h-.2c-.5-.1-.9-.4-1.1-.9-.5-1.1 0-2.7.5-3.9.1-.2.1-.4 0-.5-.1-.2-.4-.4-.7-.4-.5.2-.9.6-1.1 1.1-.6 1.5-.5 3.2 0 4.7.5.8 1.4 1.4 2.3 1.4zm42.3 157.1c.5-.1 1-.3 1.1-.6.2-.8-1.6-2.3-2.6-3.1-.3-.2-.6-.5-.7-.6-.3-.2-.5-.5-.7-.7-.3-.5-.8-.8-1.3-.9-.3 0-.7.4-1 .8-.1.1-.2.3-.4.4-2 2-2.9 3-4.8 5.2-.8 1.1-.5 1.4.1 1.9.1.1.2.2.4.3.7.6 1.4 1.3 2.1 2 .6.6 1.1 1.2 1.8 1.7.6 0 1.1-.3 1.2-.7.1-.7-.3-1.3-.9-1.6-.5-.4-.8-.8-1.2-1.2-.5-.5-1-1-1.5-1.4l-.2-.2.4-.4.6-.6.2-.2.2.2c.6.6 1.2 1.1 1.7 1.7.7.8 1.5 1.5 2.3 2.1h.1c.4 0 .8-.3 1-.7.1-.3.1-.6-.1-.8l-1.3-1.3c-.8-.8-1.5-1.5-2.4-2.3l-.2-.2.3-.4c.6-.6 1.2-1.3 1.9-1.9l.2-.2.2.2c1 1 2 1.9 3 2.8l.5.7zm-91.1 49.4c-3.1.9-5.3 2.3-6.1 6 21.9 19.6 41.4 42.3 60.2 64.3 8.3 9.7 17 19.8 25.7 29.4 1.6 1.6 4.6 4.6 7.1 4.6 1.3-.1 2.5-.9 3-2.1 6.4-8.6 13.1-17.8 19.3-27.3 5.3-7.6 10.7-15.1 16-22.7 4.8-6.8 9.6-13.7 14.4-20.5 1.8-2.6 1.7-4.4-.6-6.9-2.4-2.6-4.7-5.2-7.1-7.8-1.8-2-3.6-4-5.4-5.9-8.7-9.5-18-19.7-27.5-30-.5-.4-1-.8-1.6-1.1-.3-.1-.6-.3-.9-.5-.3 3.2-2.4 3.9-4.2 4.2-5.3 1.2-10.7 1.8-16 2.4-3.8.5-7.8.9-11.7 1.6-7.6 1.5-15.4 2.7-22.9 3.9-13.7 2.4-27.9 4.7-41.7 8.4zm86.6-11.9h.2c1.7-.1 3.3-.4 4.9-1 1.6-.6 3.3-.9 5-1 1.6 0 3.1.6 4.2 1.7 1.9 2 3.7 3.9 5.6 5.9 10.4 10.9 21.1 22.2 30.6 34.4l.1.1-.1.1c-2.5 6.1-44.3 65.7-51.9 73.1l-.2.2-.2-.2c-9.3-12.2-19.9-23.8-30.1-35-6.7-7.4-13.7-15-20.2-22.7-3.2-3.5-6.3-7.1-9.3-10.7-8.2-9.5-16.7-19.4-26.7-27.7l-.2-.2.3-.2c2.6-1.9 5.6-3.2 8.8-3.8 26-5.6 52.5-10 79.2-13zm2.1-30.4c-.6 0-1.1.4-1.1 1v.1c0 .6.4 1.2 1.1 1.2s1.2-.4 1.2-1.1v-.2c0-.6-.4-1.1-1-1.1h-.1l-.1.1zm-31-15.7c-.5.6-.8 1.2-1 1.9-.9 7.9-2 17.2-2.9 26.4-.3 2.9.4 3.3 3.4 3.7 1.9.1 3.8.2 5.5.2 8.2.1 16.3-1.6 23.7-5.1l-28-28.3c-.2.4-.4.8-.7 1.2zm3 6.6l.1-.3.3.2c3.9 3.1 7.6 6.5 10.8 10.3 2.4 2.7 5 5.3 7.7 7.7l.1.1-.1.2c-.1.2-.1.3-.2.5-.1.3-.2.6-.5.6-1.5.2-3 .5-4.5.7-4.2.7-8.6 1.4-12.9 1.8h-.9c-.8.1-1.6-.2-2.3-.7-.5-.6-.7-1.6-.5-3.4.3-2.1.5-4.2.6-6.2.5-3.8.8-7.8 2.3-11.5zm81.3-144.3c.3 0 .6-.1.8-.3.1-.2.2-.4.2-.6 0-.8-.1-1.7-.1-2.6v-.3h.3c.6.1 1.3.1 1.9.1h2.8c.8 0 1.5 0 2.3.2.5 0 .7-.5.7-1 0-.4-.2-.9-.7-.9-1.5.1-3 .1-4.6.1h-2.7v-.2-1.6c0-.4.1-.7.1-1.1-.2-.3-.5-.4-.8-.4-.4 0-.7.2-.8.6v2.2c0 1.6-.1 3.3-.3 4.9 0 .2 0 .4.2.5.1.3.4.4.7.4zm-94.3-44.8c.3 0 .6-.1.7-.4v-2.7h.2c.5-.1 1.8-.1 2.9-.1h1.8c.3 0 .7 0 1 .1.3.1.6.1.9.1.6 0 .8-.2.9-.8 0-.3 0-.5-.2-.7-.3-.2-.7-.3-1.2-.3H297.026c-.4 0-.9 0-1.3.1h-.3v-.3c0-.5 0-1.1.1-1.7 0-.3 0-.6.1-.8 0-.4-.4-.6-.8-.6-.3 0-.6.1-.8.4v1.8c0 1.2 0 2.3-.1 3.6 0 .5-.1 1.1-.1 1.6 0 .2.1.3.2.5.2.1.4.2.7.2zm-1.1 22.9c.2.3.7.4 1.4.4h6.4c.4 0 .8-.1 1.1-.4.4-.4.3-1.3.2-2.1-.1-.4-.1-.9 0-1.3v-1.1c.1-.5.1-.9 0-1.4-.1-.3-.4-.5-.7-.5-.3 0-.6.1-.8.4v1.6c-.1 1 0 1.9 0 2.9v.3h-1.8v-.3c0-.8 0-1.5.1-2.2 0-.7.1-1.4.1-2.2 0-.1 0-.3-.1-.4-.2-.1-.4-.2-.6-.2-.2 0-.5.1-.7.2-.1.1-.2.2-.1.4v1.6c0 .9-.1 1.7 0 2.8v.3l-3-.1v-.2-2.2-2.5c-.2-.2-.4-.3-.7-.3-.4 0-.8.2-.8.6v1.7c.1.9.1 1.8 0 2.7-.3.5-.3 1 0 1.5zm2.6-13.7c1.3 0 2.4-.9 2.5-2.2 0-.4.1-.6.1-.9.1-.7.1-1.3.1-2-.1-.5 0-1.1.3-1.5.2-.2.5-.3.7-.3 1.4 0 1.4 1.4 1.4 2.4v.8c.1.8-.2 1.6-.7 2.2-.3.3-.4.7-.5 1.1.2.4.5.6.8.6.7 0 1.5-1.1 1.6-2 .4-1.4.6-4.1-.5-5.7-.5-.7-1.2-1.1-2.1-1.1-.8 0-1.5.3-2 .9-.7.8-.9 1.9-.8 3v.3c0 1.2-.1 2.4-.7 2.7h-.2c-.5-.1-.9-.4-1.1-.9-.5-1.1 0-2.7.5-3.9.1-.2.1-.4 0-.5-.1-.2-.4-.4-.7-.4-.5.2-.9.6-1.1 1.1-.6 1.5-.5 3.2 0 4.8.6.9 1.5 1.5 2.4 1.5zm20.8 171.8l-.3 1.2c0 .3 0 .6.2.8.2.2.4.3.7.3.3 0 .5-.1.7-.3.2-.3.3-.6.3-.9.3-1.2.6-2.4.8-3.6.3-1.6.6-3.1 1.1-4.7.3-.4.4-1 .2-1.5-.2-.4-.6-.6-1-.7-1.9.7-3.7 1.5-5.5 2.4-1.1.5-2.3 1.1-3.4 1.5-.3.2-.4.5-.3.9.1.5.5.8 1 .8.3 0 .6-.2.9-.4.2-.2.5-.3.8-.4h.1l.1.1c.6.6 1.3 1.2 2 1.9.6.6 1.2 1.1 1.8 1.7l.1.1v.1c-.1.2-.2.4-.3.7zm-.7-4.3c-.3-.3-.6-.6-.9-.8l-.3-.3.4-.2c.7-.3 1.4-.6 2.1-1l1.3-.6-.1.5c-.2.7-.3 1.5-.5 2.1-.1.4-.2.8-.2 1.2l-.1.4-.3-.3c-.6-.3-1-.7-1.4-1zm65 5.5c2.4-34.5 4.9-70.1 3.9-105.4-.1-3.2-.2-6.4-.4-9.5-.3-5.5-.5-11.1-.4-16.7 0-2.4-.9-3.4-3.1-3.4h-.1c-24.4-.9-46.9-1.6-75.2-2.3-1.7 14.1-1.7 28.8-1.6 43 0 8.8.1 17.9-.3 26.8 0 4.6.1 9.3.3 13.8.1 2.2.1 4.4.2 6.6-1 9.9.4 11.9 8.1 17.5 2 1.8 4 3.5 6.1 5.3 15.6 13.6 31.7 27.6 44 44.8.6.9 1.1 1.9 1.4 3 .4 1.3.7 1.8 1.7 1.8.7 0 1.4-.2 2-.4 1.7-.4 3.4-.7 5.1-.9 2.4-.1 4.7-.6 6.9-1.5.3-7.5.8-15 1.4-22.5zm-11.3 21.2c-1.5 0-2.9.3-4.4.7-.2.1-.5.1-.7.1h-.3l-.1-.2c-.1-.2.1-.3.2-.5.5-.5.9-1 .3-1.7-.6-.7-1.2-1.5-1.7-2.2-2.4-3-4.8-6.1-7.4-8.9-14.3-15.7-30-30-46.1-44.6-1.7-1.3-2.6-3.4-2.5-5.6v-24.4c-.1-21.8-.2-44.4 1-67.1v-.2h.2c5.5-.4 11.4-.7 18.1-.7 6.4 0 12.8.2 19.1.4 5.7.2 11.6.3 17.5.4 1.4.1 2.6.2 3.8.2 4.6.2 9.2.6 13.7 1.3h.2v.2c1.2 20.5 1.6 41.3 1.1 61.8-1.4 33.9-3 61.4-4.9 86.6-.2 3.9-3.8 4.2-7.1 4.4zm-69.9-355.7c1.2.5 2.5.8 3.9.8 1.6 0 3.6-.5 4-2.6.1-.8-.1-1.7-.7-2.4s-1.5-1.2-2.5-1.2c-.2 0-.4-.1-.7-.1-1.2-.2-2.9-.4-3.3-1.2l-.1-.1.1-.1c.3-.7 1.1-1.2 1.8-1.1 1.3.2 2.5.6 3.6 1.3l.2.1c.4 0 .7-.2.8-.6.2-1.9-2.9-2.3-4.6-2.5h-.5c-1.5 0-2.8 1.1-3 2.6-.2 1.4.7 2.7 2.1 3 .8.3 1.5.4 2.3.5.7.1 1.4.2 2.1.4h.1v.1c.4.4.5 1 .3 1.5s-.6.8-1.1.8h-.9c-1.6 0-3.6-.4-4.4-1.6-.1-.2-.3-.3-.5-.3-.6.2-1 .5-1 .9.1.5 1.1 1.5 2 1.8zm23.9 336.4c.3-1.7.7-3.4 1.3-5.1.1-.2.2-.4.2-.6.3-.6.4-1 .1-1.4-.2-.3-.4-.4-.8-.5-.7 0-1.2 1.1-1.3 2-.2 1.4-.6 2.7-1.1 4-.6 1.6-1 3.3-1.1 5 .2.3.6.4.9.5.7-.1 1.3-.4 1.9-.8.2-.1.4-.2.5-.3.6-.3 1.2-.6 1.8-.8 1.8-.7 5.1-2 5.1-2.9 0-.3-.4-.6-1.2-.9-1.1.4-2.1.9-3.1 1.4-1.1.5-2.2 1-3.4 1.5l-.5.2.2-.6c.4-.3.5-.5.5-.7zm-13.9-343.2c.7.1 1.7.2 2.5.3h.2v.2c-.1 1.6-.3 3.2-.6 4.8 0 .5-.1 1-.3 1.5-.3.6-.3 1.2-.1 1.8.3.2.6.4 1 .4 1 0 1.2-2.4 1.2-3.3.1-.6.2-1.2.3-1.9.2-1 .3-2 .4-3.1v-.3h.3l1.5.3c.4.1.8.2 1.3.2.4 0 .7-.5.7-1 0-.1 0-.8-.6-.8l-7.6-1.2c-.5 0-.7.5-.8 1 0 .5 0 1.1.6 1.1zm85.5 143.2c-.5-.1-1-.2-1.5-.5-1.7-.7-3.5-1.1-5.3-1.4-.4 0-.7.3-.7.7-.1.5.3 1 .8 1.1 1.7.2 3.3.7 4.9 1.3l1.1.4-.8.4c-1.5.9-3.2 1.7-4.9 2.3-.7.2-1 .7-1 1.1.1.4.4.6.7.6h.3c1.3.1 2.6.3 3.8.7.3.1.7.2 1 .3l.8.2-.8.3c-.8.3-1.7.7-2.5 1-.9.4-1.9.8-2.8 1.1-.5.1-.8.6-.7 1.1 0 .4.3.6.6.6 1.4-.4 2.8-.9 4.1-1.6.8-.4 1.6-.8 2.5-1.1.5-.3 1.1-.4 1.6-.6.5-.1.7-.7.6-1.2 0-.3-.2-.8-.5-.8-1.5-.1-3.1-.5-4.5-1.1l-.6-.2.6-.2c.7-.3 1.3-.6 2-1 .6-.3 1.1-.6 1.8-.9l.2-.1c.9-.3 1.5-.6 1.5-1.2 0-.8-1.3-1.1-2.3-1.3zm-78.1-134.7c-.1.3-.1.7.1.9.3.3.7.5 1.1.5.3 0 .6-.1.8-.3.2-.2.3-.5.3-.8 0-.4-.1-.7-.3-1-.2-.2-.5-.3-.8-.3-.5.1-1 .5-1.2 1zm73 218.4c.8.4 1.6.6 2.5.6 1.9 0 3.6-1.2 4.4-2.9.9-1.9.5-4.2-.9-5.8-.9-.8-2-1.3-3.2-1.3-2.3.1-4.2 1.7-4.8 3.9-.8 2.1.1 4.3 2 5.5zm0-6.4c.7-.9 1.7-1.4 2.8-1.3.8-.1 1.5.3 2 .9 1.3.9.8 3.9.1 5-.6.5-1.4.8-2.3.8-1.2 0-2.2-.6-2.8-1.6-.6-1.3-.6-2.7.2-3.8zm5.2-14c-.8-.4-1.6-.5-2.5-.5-.5 0-.9 0-1.4.1-.4 0-.9.1-1.4.1H389.626c-.8 0-1.2.1-1.4.4-.1.3-.1.7 0 1 .2.3.6.4.9.4.3 0 .6 0 .8-.1.3-.1.6-.1.9-.1h1.9c1-.1 2 .2 2.8.8.5.7.7 1.6.5 2.4.1.6-.1 1.2-.5 1.7-.9 1-2.9 1-4.2 1h-1.4c-.3 0-.5-.1-.8-.1-.3 0-.6.1-.9.3-.1.2-.2.4-.2.6 0 .5.4.8 1 .8h4.3c2 0 3.7-1.3 4.2-3.3.9-2.1 0-4.3-1.8-5.5zm-88-187.9c1.1 19 .5 38.4-.1 57.1-.3 10.1-.7 20.6-.7 30.9l-.1.3h-.1c.1 1.3.1 6.3 0 20.2 0 6.6-.1 12.8 0 13.6v.2h-.7v2.9l.4.1.1 7.7c.1 8.7.2 15 .2 25.2-.1 4.4.2 4.6 4.4 5.1 9.1.4 18 .7 26.8 1 12.1.4 24.7.9 37.4 1.4h.6c.7 0 1.5.1 2.4.2.9.1 1.8.2 2.6.2 1.1.1 2.1-.2 3-.9.5-.7.8-1.5.7-2.3l-.1-5.3c0-3.5-.1-7-.1-10.5-1.1-14.7-.7-28.6-.2-43.2l.2-5.3c.3-14.6 1-29.4 1.7-43.7.6-12.7 1.3-25.9 1.6-38.8-.6-4.1-6.6-5.5-10.6-6.5l-.7-.2c-4.1-.8-7.2-1.6-10.2-2.4-3.5-1-7.1-1.9-10.7-2.5-7.8-1.4-15.8-2.7-23.4-3.9-6.9-1.1-14.1-2.3-21.1-3.5-.7-.2-1.4-.3-2.2-.3-.3 0-.6 0-.8.2-.4.5-.4 1.5-.3 3zm1.9 77.1c0-11.5.4-23.1.8-34.4.4-13.8.9-28.1.7-42.2v-.3h.3c14.2 1.3 26.8 4.2 39 7.1 9.4 2.2 19.2 4.5 29.8 6h.1l.1.1c1.9 4.2 2 8.5 2 13.4 0 8.6-.2 17.3-.4 25.7-.1 5.9-.3 12.1-.3 18.1-.2 14.3-.2 28.6-.1 42.4.1 16 .1 32.5-.3 49v.2h-6.9c-14.3 0-27.1-.6-40.7-1.3-7.3-.4-14.9-.7-22.9-1h-.2v-.2c-1-25.8-1.2-51.4-1-82.6zm-31.7 210.8c.8-.3 1.4-.9 1.8-1.6.3-.4.6-.8 1-1.2 1-1 1.9-2 2.7-3.1l.2-.2.2.2c.4.3.7.6 1.1 1 .4.4.8.8 1.2 1.1h.1c.6-.1 1.1-.6 1.2-1.2-.8-.7-1.5-1.3-2.3-2-.6-.6-1.3-1.1-2-1.8-1-1.1-1.8-1.7-2.4-1.7-.4 0-.7.4-.9 1.2l2.4 2-.1.2c-1 1.3-2 2.6-3.1 3.8-.6.7-1.2 1.3-1.9 1.8-.2.2-.3.5-.2.8.1.4.5.7 1 .7zm79.7 233.3c-.5-.3-1-.6-1.5-1-.3-.2-.5-.4-.8-.6-.4-.4-.9-.7-1.4-.8-.3 0-.9.8-1.1 1.1l-.2.2c-1.8 2.3-2.7 3.5-4.2 5.8-.7 1.2-.3 1.5.3 1.8.1.1.3.2.4.3.8.5 1.6 1.1 2.4 1.8.6.5 1.2 1 1.8 1.4h.1c.5 0 .9-.3 1-.8.1-.3 0-.6-.2-.8-.7-.5-1.4-1-2-1.5s-1.2-1-1.9-1.5l-.2-.1.3-.5c.2-.2.3-.5.5-.7l.1-.2.2.1c.8.5 1.4 1.1 2.1 1.6s1.3 1 2.1 1.6c.1.1.2.1.3.1h.1c.4 0 .7-.3.8-.7.1-.3 0-.6-.2-.8l-1.5-1.2c-.8-.7-1.6-1.3-2.6-2l-.2-.1.2-.2c.5-.7 1.2-1.6 1.8-2.4l.2-.2.2.2c.8.7 1.6 1.2 2.4 1.8.6.5 1.2.9 1.9 1.4h.1c.4 0 .8-.3.9-.6.1-1.2-1.1-1.9-2.2-2.5zm-73.6-227.8c.9-.5 1.7-1.2 2.2-2.1.4-.6.9-1.1 1.4-1.6.6-.5 1.1-1.1 1.6-1.7.2-.2.3-.4.4-.5l.2-.1c.6-.6 1-1.1.7-1.8-.2-.4-.5-.6-.7-.6-.6 0-1.3.9-1.9 1.6-.3.4-.7.8-1.1 1.2-.4.5-.8 1-1.3 1.5-1.1 1.2-2.6 2.8-2.3 3.6 0 .2.3.4.8.5zm-12.6-19.4c.5-.3 1-.5 1.6-.5 1.8.1 3.2 1.4 3.5 3.1.1.4.5.6.8.6.4 0 .7-.2.8-.6 0-1.2-.5-2.3-1.4-3.2-1-1.1-2.4-1.7-3.9-1.7h-.3c-2.6.3-4.6 2.3-4.9 4.8-.2 1.9.7 4.3 3.8 5.4.3.2.7.3 1 .3.2 0 .4 0 .6-.1h.4c.4 0 .8-.4.8-.8v-.1c0-.5-.3-.9-.7-.9-.2 0-.4.1-.6.1-1.1-.1-2.1-.6-2.9-1.4-.6-.5-.9-1.2-.8-2 .2-1.3 1.1-2.4 2.2-3zm32.6 25.2c.1-.4.1-.8.1-1.2-.1-.6-.7-1-1.3-1.1-.2 0-.5.1-.6.3-1 1.2-2.1 2.4-3.2 3.5l-2.7 3c-.2.2-.2.5 0 .8.2.4.6.6 1 .6 1.1-.7 2-1.6 2.7-2.7.5-.7 1.1-1.4 1.8-2.1l.4-.3v.5c0 .7 0 1.4-.1 2.1-.2 2.4-.6 6.4.4 7.4.1.1.3.2.5.2.3 0 .6-.1.8-.3.7-.8 1.4-1.6 2.2-2.4.6-.6 1.1-1.2 1.7-1.8.6-.8 1.3-1.5 2.1-2.1.3-.2.4-.6.2-.9-.1-.4-.5-.7-1-.8-1.1.7-2 1.6-2.7 2.7-.6.9-1.3 1.6-2.1 2.3l-.4.3v-.5c-.1-2.1.2-5.7.3-7.1-.1 0-.1-.2-.1-.4zm-3.3 330.6l-.9.1c-1.4.3-2.9.4-4.4.5-.4 0-.7.4-.7.8v.1c0 .5.4.9.8.9.6-.1 1.1-.2 1.7-.3l.3-.1v.3c0 .8.1 1.6.3 2.4.2.9.3 1.9.3 2.8.4.4 1 .5 1.5.1.1-.1.2-.3.2-.5-.3-1.8-.6-3.3-.8-5.1v-.2h.2c.3-.1.7-.1 1-.1H300.526c.5 0 .8-.4.8-.9.2-.4-.1-.7-.6-.8.1.1.1.1 0 0zm-7.1 5h-.2l-.3.1v-.3l-.3-2.1c-.1-.6-.2-1.3-.3-2-.1-1.2-.2-2.4-1-2.4h-.2c-.9 0-1.1 1.2-1.2 1.6-.3.6-.7 1.2-1.1 1.7-.9 1.1-1.7 2.3-2.3 3.6l-.2.3c-.4.7-.8 1.5-.5 2 .1.3.5.3.8.3.4 0 .8-.1 1.2-.2.8-.2 1.8-.3 2.7-.5l1-.2v.3c-.1.4 0 .9.3 1.2.2.2.5.3.8.3.3 0 .6-.1.7-.4.2-.4.2-1-.1-1.4l-.2-.4h.4c.4 0 .8-.3.8-.7v-.1c0-.3-.3-.6-.8-.7zm-4.4.6c-.2 0-.3 0-.5.1l-.5.1.2-.4c.4-.6.7-1.2 1.2-1.8.3-.4.5-.8.9-1.2l.4-.7v.8c0 .9.2 1.7.4 2.6l.1.3-2.2.2zm-23.8 1.2c-.4 0-.8.1-1.1.1-.6.1-1.3.2-1.9.2-.5 0-1.1 0-1.3-.5-.1-.3 0-.7.4-1.2.8-.5 1.6-.7 2.5-.7.8 0 1.6.1 2.3.4.4-.1.8-.4.8-.9.1-.4-.2-.9-.6-1-.7-.2-1.5-.3-2.3-.3-1.3-.1-2.6.2-3.7.9-1 .6-1.5 1.8-1.1 2.9.3 1.3 1.4 2.2 2.7 2.2h.3c.6 0 1.1-.1 1.6-.2.6-.1 1.2-.2 1.8-.2h.2c.5.1.6.2.8.8l.1.3c.1.4-.1.7-.3 1-.9.7-2 1-3.1.9-1 .1-2-.2-2.8-.7-.4 0-.8.3-.9.7 0 .4.1.8.4 1.1.7.5 1.6.8 2.4.7.9 0 1.9-.1 2.8-.3h.1c1.9-.1 3.3-1.8 3.2-3.6 0-1.2-.9-2.6-3.3-2.6zm44.4-6.5c0-1.1-.5-1.9-1-1.9-.3 0-.6.2-.9.7 0 .2.1.4.1.6.2.8.3 1.7.4 2.5v.2h-.2c-.5 0-1 .1-1.4.2-.4.1-.8.2-1.1.2-.2 0-.4 0-.6.1h-.2l-.2-1.1c-.1-.6-.2-1.2-.4-1.9-.1-.3-.4-.5-.7-.4-.4 0-.7.2-.9.5.1.4.1.8.2 1.2.2.8.3 1.7.4 2.5 0 .3.1.6.1.9 0 .9.3 1.8.8 2.5h.1c.5 0 .9-.2 1.1-.6-.1-.2-.1-.3-.2-.5-.2-.4-.3-.8-.3-1.2v-.2h.2c.9-.1 2.2-.3 3.2-.5l.3-.1v.3c0 .2.1.4.1.7.1.2.1.5.1.7 0 .4.4.7.7.6.4 0 .7-.2.9-.5-.1-.8-.2-1.5-.4-2.3.1-1.1 0-2.1-.2-3.2zm-32.9.6l-1.1.2c-2.1.4-4.3.6-6.4.7-.5 0-.8.4-.8.9v.1c-.1.5.3 1 .9 1.1.7-.1 1.3-.2 2-.4.3-.1 1.2-.2 1.2-.2v.3c.1 1.7.3 3.4.7 5l.1.8c0 .3.1.5.1.8 0 1.1.1 1.6.9 1.6h.1c.3 0 .7-.1.9-.4.3-.5.1-1.4-.1-2.2-.1-.4-.2-.7-.2-1.1l-.6-3.9-.1-1.1.4-.1c.5-.1 1-.2 1.6-.2h.4c.5 0 1-.5 1-1-.2-.5-.5-.9-1-.9zm46.9-3.2c-.8 0-1.6.1-2.5.2l-.5.1c-.2 0-.5.1-.7.1-1.1 0-1.3-.6-1.3-.8-.1-.6.7-1.3 1.7-1.5.4-.1.8-.1 1.2-.1.8 0 1.5.1 2.3.3h.1c.4 0 .7-.3.7-.7.1-.4-.1-.9-.5-1-.7-.2-1.5-.4-2.2-.4h-.7c-2.6 0-4.3 1.7-4.4 3.3-.1 1.4 1 2.4 2.8 2.7h.8c.8 0 1.7-.1 2.5-.3.3-.1.7-.1 1-.1.9 0 1.1.5 1.1.8.2 1.1 0 1.3-.9 1.6-1 .4-2.1.7-3.2.7-.9 0-1.8-.2-2.5-.8-.5-.1-.9.3-.9.7-.1.4 0 .9.4 1.1.6.3 1.3.5 2 .6h.9c1.8 0 4.2-.5 5.4-1.8.6-.6.8-1.5.7-2.3-.3-1.7-1.3-2.4-3.3-2.4zm42-100c-.3-.3-.7-.5-1.1-.5-.1 0-.2 0-.3.1-1.6.9-3.4 2-5.1 3-1 .6-2.1 1.3-3 1.8-.3.2-.4.5-.3.8.1.4.5.7 1 .8.3 0 .7-.2.9-.5.2-.2.5-.4.7-.5l.1-.1.1.1c.7.5 1.4 1 2.2 1.6.7.5 1.3 1 2 1.5l.1.1-.1.9c-.1.4-.1.9-.2 1.4 0 .2 0 .4.2.6.2.2.6.4.9.4.4 0 .8-.3.8-.7l.3-2.7c.1-1.2.3-2.4.4-3.6-.1-.8 0-1.5.2-2.2.4-.8.4-1.6.2-2.3zm-2 2.3c-.1.7-.2 1.4-.2 2.1 0 .4-.1.9-.1 1.3v.4l-.4-.3c-.4-.3-.8-.6-1.3-.9-.4-.2-.7-.5-1.1-.7l-.3-.2.3-.2c.6-.4 1.3-.8 1.9-1.2l1.2-.8v.5zm-106.7 111.7c-1.4-1.8-2.9-3.5-4.3-5.1-.8-1.6-1.4-1.9-1.8-1.9-.8 0-1.5 1.6-1.9 4.1-.2.9-.4 1.7-.6 2.5-.3 1.2-.6 2.5-.8 3.8.2.3.6.5.9.5.5 0 1-.3 1-.8 0-.4.1-.8.2-1.3v-.2h.2c.8-.2 1.7-.3 2.6-.4.8-.1 1.7-.3 2.4-.4h.2l.2.3c.5.7 1.3 1.7 2 1.7.4 0 .7-.3.8-.6.2-.5-.1-.9-.7-1.5-.1-.3-.3-.5-.4-.7zm-3.5-.9c-.5.1-1.1.2-1.6.3-.4.1-.8.2-1.3.2l-.4.1s.1-.6.2-.8c.1-.5.2-1.1.4-1.7.1-.3.1-.7.2-1l.1-.5.3.4c.4.5.9 1.1 1.3 1.6.3.3.6.7.9 1l.3.3-.4.1zm44.6-463.9h-.5c-2.9 0-4.4 2.5-4.4 5 0 1.1.3 2.2 1 3.1.7.9 1.9 1.4 3 1.4h.9c1.4 0 2.7-.8 3.3-2 1-1.7 1-3.8.1-5.6-.7-1.2-2-2-3.4-1.9zm2.5 4.7c0 .9-.3 1.7-.7 2.5-.5.5-1.3.8-2 .7-1.1 0-2.1-.4-2.8-1.2-.5-.6-.7-1.4-.5-2.1-.1-.8.2-1.5.8-2.1.6-.6 1.5-1 2.4-.9.9 0 1.7.3 2.3 1 .5.5.7 1.3.5 2.1zm38 447.9h-.2c-.6.1-1.1.6-1 1.2 0 .6.5 1.1 1.1 1.1h.2c.6 0 1-.5 1-1v-.1c-.1-.6-.6-1.2-1.1-1.2zm-3.5-7.6h-.2c-1.1.1-2.2.3-3.3.5l-1.8.3c-.3.1-.6.1-1 .1-.7 0-1.5.1-1.8.5-.2.2-.2.5-.2.8 0 .6.3.8.8.8s.9-.1 1.4-.2c.4-.1.8-.2 1.1-.2h.2l.1.2c.6 2.4 1 4.9 1.1 7.4 0 .4.4.8.8.8h.1c.3 0 .7-.1.9-.4.1-.2.2-.4.2-.6-.2-1-.3-1.9-.5-2.9-.2-1.5-.5-3.1-.8-4.6l-.1-.3h.3c.2 0 .6-.1.9-.1.2 0 .5-.1.7-.1h.4c.4 0 .8-.1 1.2-.3.1-.2.2-.5.2-.7-.1-.6-.4-1-.7-1zm107.8-19.6l-.1-.1c-9.3-4.4-17.8-10.5-26-16.4-2.8-2-5.6-4-8.5-6-21.8-14.5-42.3-31.4-62.1-47.9-5.5-4.6-11.3-9.3-16.9-13.9-12.8-9.1-22.7-21.3-32.3-33.2-3.9-4.7-7.8-9.6-11.9-14.3-2.5-2.8-5.1-5.6-7.6-8.4-4.6-5-9.4-10.2-13.6-15.7-5.4-5.2-10.5-11.1-15.5-16.8-12.8-14.6-26-29.7-45.2-35.3-.3-.1-.5-.1-.8-.1-4.4 0-4.5 9.2-4.5 15.4 0 1.5 0 3-.2 4.6-.8 23.3-.2 46.9.3 69.8.4 16.9.8 34.5.7 51.7.2 14.9-1.6 30-3.3 44.5-1.2 10.5-2.5 21.3-3 32-.1 2.3-.3 4.6-.4 6.9-.3 3.7-.5 7.4-.6 11.2-.1 1.7.1 2.7.6 3.2.5.4 1.2.7 1.9.6.6 0 1.2-.1 1.8-.2 15-2 30.3-4.2 45-6.3 25.3-3.6 51.4-7.4 77.2-10.3 10.2-.9 20.3-1.8 30.5-2.7 21.6-1.9 43.9-3.8 65.8-6 6-.5 12.1-.6 18.1-.8 2.7-.1 5.4-.1 8.1-.2h.3c2-.1 3.9-.1 5.1-1.9.1-1.7-1.4-2.6-2.9-3.4zm-6.9.9c-23.2 2.9-46.8 4.9-69.8 6.9-20.8 1.8-42.3 3.6-63.3 6.1-17.7 2.4-35.7 4.9-53.1 7.4-17.9 2.5-36.5 5.1-54.7 7.6h-.2l-.1-.2c-1.1-3.8-.8-7.3-.4-10.7.1-.6.1-1.3.2-1.9.8-11.3 2.1-22.8 3.3-33.9 2.6-23.8 5.3-48.4 3.7-72.8l-.1-3.5c-1.4-36-2.9-73.2.6-109.9v-.3l.3.1c14.9 3.3 24.8 13.9 34.4 24.2 2.7 2.9 5.5 5.9 8.4 8.7 22.3 23.8 43.8 48.3 63.8 72.7 6 7.4 13.5 13.2 20.6 18.8 32.7 26.8 67.8 55.1 106.6 80.3l.6.4h-.8zm-231.8-409.7c.3 1.9.4 3.8.5 5.8.3 5.5 5.3 8.7 10.3 11.8 2.5 1.4 4.8 3.1 6.9 5.1 13.1 10.3 23.8 19.3 33.7 29.4 9.4 9.7 19.4 18.8 30 27.2.6.5 1.3.8 2.1.9h.3c1.5-1.1 1.3-3.4 1.2-5.4v-1c-.5-15.4 0-31.1.5-46.2.2-5.4.3-10.7.5-16.1v-.2h.5v-4.2-10.4c0-3.2-.7-3.9-3.6-3.9h-4.8c-5.8 0-11.6 0-17.4.1s-11.6.1-17.4.1c-6.3 0-11.8 0-16.8-.1-3.8-.1-7.6-.3-11.3-.6-3.2-.2-6.6-.4-9.9-.5h-.8c-2.1 0-3.3.3-4 1-.7.8-.9 2.2-.7 4.7 0 .6.1 1.6.2 2.5zm3.7.2c.2-1.8.2-3.6 0-5.4v-.3h.3c1.4-.1 2.8-.1 4.3-.1 5 0 10 .3 14.9.7s10 .7 15 .7c2.1 0 4.1-.1 6-.2 4.7-.3 9.7-.5 15.8-.5 3.8 0 7.7.1 11.5.1 2.5 0 5 .1 7.5.1 3.4.1 4 .6 4 3.9v3.6c0 5.3 0 10.9-.2 16.3-.6 9.9-.8 20-1 29.8-.2 8.3-.4 17-.8 25.4v.5l-.4-.3c-9.5-7.4-18.3-15.7-26.8-23.8-9-8.5-18.3-17.3-28.3-24.9-2.8-2.3-5.6-4.5-8.5-6.8-3.3-2.7-6.8-5.5-10.2-8.2-3.6-2.7-3.4-6.5-3.1-10.6zm81.7 98.5c-1.3 1.3-1.6 3.3-.9 5 .9 2 2.9 3.2 5 3.3 1.5 0 3-.8 3.8-2.1 1.2-1.2 1.6-3.1.8-4.7-.9-2.1-2.9-3.5-5.2-3.7-1.4.1-2.8.9-3.5 2.2zm3.7-.4v-.6h.5v.5c1.3.1 3.2 2.3 3.3 3.1.1.7-.1 1.5-.6 2.1-.6 1-1.5 1.6-2.6 1.8-2.6-.2-3.6-1.8-3.7-3.1-.1-1.8 1.2-3.5 3.1-3.8zm-1.2-311.2c0-.3-.1-.7-.6-.7-1-.2-1.9-.3-2.9-.5l-2.4-.4c-.4 0-.7.5-.7.9 0 .1 0 .7.5.7l1.8.2v.2c-.1 1.1-.2 2.1-.4 3.1 0 .4-.1.7-.2 1.1-.2.4-.2.9-.1 1.3.2.2.5.4.8.4.2 0 .3-.1.4-.2.4-.7.7-1.4.6-2.2 0-.4.1-.9.2-1.3.1-.6.2-1.2.2-1.9v-.3h.3c.3 0 .6.1.9.2.3.1.6.1.9.2.5 0 .7-.5.7-.8zm2.4 215.9h1.9c.7.1 1.5.1 2.3.1.9 0 1.7.1 2.6.1.4.1.8-.2.9-.6v-.3c0-.4-.2-.7-.6-.7h-.7c-.7 0-1.4 0-2-.1h-.2v-.2c-.1-1.8 1-2.7 2-3.6.5-.4 1-.9 1.4-1.3.3-.3.4-.8.2-1.2-.1-.3-.4-.5-.7-.5-.6.4-1.1.8-1.5 1.4-.3.5-.7.9-1.1 1.3l-.3.3-.1-.4c-.3-1.3-1.4-2.2-2.8-2.1-.7 0-1.4.3-1.9.7-.9.8-.9 2.6-.9 4.2v1.7c-.1.3 0 .7.2.9.3.2.8.3 1.3.3zm-.2-2v-.3c.1-.5.1-1 .1-1.5-.2-.8-.1-1.5.3-2.2.2-.2.5-.3.8-.3v-.4h.5l.1.5c.6.1 1.1.6 1.2 1.2.1.7.1 1.3 0 2-.1.4-.1.7-.1 1.1v.3l-1-.1c-.5 0-1-.1-1.6-.1h-.2l-.1-.2zm-49.7 449.9c-.8.2-1.6.3-2.4.4-.8.1-1.6.2-2.5.4h-.2l-.1-.2s-.2-.9-.2-1.2v-.2h.2c.8-.1 1.6-.3 2.3-.4l.4-.1c.3-.1.7-.1 1-.1 1.2-.1 2-.2 1.9-1.1 0-.6-.4-.8-1.1-.8-.4 0-.9.1-1.3.2-.3.1-.5.1-.8.1-.9.1-1.9.3-2.9.5h-.3v-.3c-.1-.8-.3-1.9-.4-2.9v-.2h.2c.2 0 .5-.1.7-.1h.2c.6-.1 1.1-.2 1.6-.3.9-.2 1.7-.3 2.6-.4.4-.1.6-.4.6-.8 0-.5-.4-.9-.9-.9-.9.1-1.8.2-2.7.4-.5.1-1.1.2-1.7.3-.3.1-.6.1-.9.1-.5-.1-1 .1-1.4.4-.2.5-.2 1 0 1.5.1.3.1.6.1.9.2.8.3 1.6.4 2.5.2 2.2.6 5.1 1.9 5.1 1.6-.4 3.2-.6 4.8-.8l1.1-.1c.4-.1.7-.5.6-1 .1-.5-.3-.9-.8-.9zm22.4-379.4c-.3-.3-.7-.5-1.1-.5h-.2c-.8.3-2.4 1.1-3.7 1.8-.6.3-1.1.6-1.5.8l-1.2.6c-.5.2-.9.5-1.4.7-.8.3-1.2.7-1 1.2.3.7.6.8.9.8.6-.1 1.2-.4 1.7-.8l.2-.1.1.1c.6.5 1.3 1.1 2 1.8.6.6 1.3 1.1 1.9 1.6l.1.1-.2.8c-.1.4-.2.9-.3 1.4-.1.2 0 .5.2.6.2.3.6.4.9.4.4 0 .7-.2.8-.6.1-.9.3-1.8.5-2.7.2-1.2.5-2.4.6-3.5 0-.8.1-1.5.4-2.2.4-.9.6-1.7.3-2.3zm-2.1 2.2c-.2.7-.3 1.4-.4 2-.1.4-.1.9-.2 1.3l-.1.4-.3-.3c-.4-.3-.7-.6-1.3-1-.3-.3-.7-.5-1-.8l-.3-.2.3-.2c.7-.3 1.4-.7 2.1-1.1l1.2-.7v.6zm-45.4 106.1l.3.1c1.4.8 2.9 1.2 4.5 1.3 1.5 0 2.9-.4 4.2-1.2 16.3-10.1 35.5-11.9 54-13.6 1.4-.1 2.8-.3 4.2-.4.7-10.1.8-20 .8-29.6 0-5 .1-10.1.2-15.3.1-5.7-1.4-9.9-4.9-13.3-9-8.5-18.7-16.6-28-24.5-4.3-3.6-8.7-7.3-13-11-12.4-10.3-22.8-18.9-32.7-27-1.2-1-2.6-1.5-4.2-1.6-.7 0-1.4.2-1.9.7-.5.7-.8 1.6-.6 2.5.3 17.9-.5 36-1.2 53.6-1 23.1-1.9 47.1-.6 70.5 6.4 2.6 12.8 5.5 18.9 8.8zm-16.4-48.7c.2-15.3.9-30.7 1.5-45.5.5-12.1 1.1-24.7 1.4-37.2v-.4l.4.2c15.7 9.3 29.6 21.9 42.9 34.1 6.6 6 13.5 12.3 20.5 18.1 1.6 1.7 3.3 3.3 5.1 4.7 4.4 3.7 8.9 7.5 9 13.4-.2 7.8-.2 15.7-.1 23.3 0 5.2.1 10.7 0 16 0 4.7-.7 5.1-5.5 5.6-16.5 1.7-35.3 3.5-51 13.3-.9.6-2 1-3.1 1-.9 0-1.8-.3-2.6-.7-4.2-2.1-8.5-4.1-13-6.3-1.8-.9-3.7-1.8-5.7-2.7l-.1-.1v-5.5c0-10.7-.1-20.8.3-31.3zm41.6-68.5c.2-.4.5-.7.8-1.1l2.7-3 .6-.7.2.1c.4.3.9.7 1.2 1.1.3.3.6.6.9.8.5 0 .9-.2 1.1-.7.2-.6-.3-1.1-1.1-1.7-.3-.2-.6-.4-.8-.7-1.3-1.2-2.6-2.4-3.7-3.7-.1-.2-.4-.3-.6-.3-.5.1-.9.4-1 .8-.1.3-.1.7.2.9l.5.4c.6.5 1.1.9 1.7 1.4l.2.2-.2.2c-1.2 1.2-2.4 2.5-3.5 3.8l-.4.5c-.2.3-.4.5-.7.7-.6.5-.9.8-.7 1.3.2.5.6.8 1 .8.7.1 1.3-.4 1.6-1.1zm-1.5 1.4zm12.4 6l.3.1c.3.1.7.2 1 .2 1.4 0 2.6-1 3-2.4.2-1.7-.6-3.4-2-4.3-.5-.4-.9-.9-1.3-1.3-.7-.7-1.3-1.3-1.8-1.3s-1.2.6-2.1 1.8c-.5.5-.9 1-1.4 1.5-1.1 1.1-2.2 2.2-3.1 3.5-.2.3-.2.6-.1.9.2.4.6.7 1 .7.6-.1 1-.8 1.4-1.4.3-.5.6-.9 1-1.2l.2-.1.2.1c.7.5 1.3 1.1 1.8 1.7.3.9.4 1.9.3 2.9 0 1.2-.1 2.4.5 2.9.3.2.6.4.9.3h.4c.2-.7.2-1.5 0-2.2-.1-.7-.2-1.3-.1-2l-.1-.4zm-1.5-3.4c-.3-.4-.7-.8-1.1-1.1l-.2-.2.6-.6 1.3-1.3.2-.2.2.2c.3.2.6.5 1 .8 1 .6 1.8 1.5 2.4 2.5 0 .4-.2.7-.4.9-.3.4-.7.7-1.2.7-1.3-.2-2.2-.8-2.8-1.7z" fill="#f96447"/>
</svg>
