<?xml version="1.0" encoding="utf-8"?>
<!-- Generator: Adobe Illustrator 24.2.1, SVG Export Plug-In . SVG Version: 6.00 Build 0)  -->
<svg version="1.1" id="Layer_1" xmlns="http://www.w3.org/2000/svg" xmlns:xlink="http://www.w3.org/1999/xlink" x="0px" y="0px"
	 width="72.6px" height="92px" viewBox="0 0 72.6 92" enable-background="new 0 0 72.6 92" xml:space="preserve">
<g>
	<path fill="#F7AEA8" d="M71.8,86.3l-0.1-0.2c-0.2-0.6-0.2-1,0.1-1.4c0.5-0.9,0.8-1.9,0.8-2.9c0.1-1.9-0.7-3.6-2.1-5.1l0-0.8
		c0.1-1.3,0.1-2.7,0.2-4l0-0.7c0.1-1.9,0.2-3.9,0.1-5.9c0-2.1,0-4.3-0.1-6.4c0-1.5-0.1-3-0.1-4.4l0-0.3c0-0.9,0-1.2,0.2-1.4
		c0.6-0.6,0.8-1.4,0.8-1.8l0.1-0.8c0.1-1,0.1-2,0.1-3c0-1.5-0.2-3-0.3-4.1c-0.1-0.6-0.2-1-0.4-1.4c-0.1-0.1-0.1-0.3-0.1-0.4
		c0-0.2-0.1-0.4-0.2-0.5c-0.1-0.5-0.3-0.9-0.3-1.3c-0.1-0.7,0-1.4,0-2.2l0-0.1c0-1,0.1-2.1,0.1-3.1c0.1-1.7,0.2-3.4,0.2-5.1
		c0-2.1,0.1-4.3,0.1-6.4c0-2.4,0.1-4.8,0.1-7.2c0-0.2,0.2-0.6,0.3-0.9c0.1-0.2,0.1-0.3,0.2-0.5l0.1-0.2c0.5-1.3,1.1-3,0.2-5
		c-0.3-0.7-0.2-1,0-1.2c0.9-1.4,0.6-3.1-0.9-4.3c-0.7-0.6-1.4-0.7-1.9-0.7c-0.8,0-1.4,0.3-1.8,0.6c-0.1,0.1-0.2,0.1-0.3,0.2
		c-0.1-0.1-0.2-0.2-0.4-0.3c-0.6-0.4-1.4-1-2.4-1c-0.1,0-0.2,0-0.3,0c-1.5,0.2-3.3,0.4-4.8,1.6c-0.1,0-0.1,0.1-0.6,0.1
		c-1.7,0-3.4,0.1-5.1,0.2c-2.8,0.1-5.7,0.2-8.5,0.2c-0.1,0-0.2,0-0.3,0c-0.9,0-1.1-0.2-1.2-0.4c-0.7-1-1.8-1.4-2.4-1.6
		c-0.9-0.3-2-0.5-3-0.6c-0.1,0-0.2,0-0.3,0C36.9,0.2,36,0,35.4,0c-0.5,0-1.3,0.2-2.1,1c-0.3,0.3-0.5,0.5-0.6,0.8
		c0,0.1-0.1,0.1-0.1,0.2C32.5,2,32.5,2,32.4,2.1c-0.5-0.2-1.1-0.3-1.6-0.3c-1.6,0-2.7,0.8-3.5,1.4c-0.3,0.3-0.5,0.3-0.5,0.3
		c-0.3,0-0.6,0-1,0c-0.4,0-0.7,0-1.1,0l-0.5,0c-0.5,0-1,0-1.5-0.1c-0.8,0-1.5-0.1-2.3-0.1l-0.3,0c-1.2,0-2.5,0.1-3.7,0.2
		c-0.7,0-1.3,0.1-2,0.1l-0.1,0c0,0,0,0-0.1,0c0,0,0,0,0,0c-0.7-1.1-1.6-2.4-3.4-2.4c-0.7,0-1.4,0.2-2.2,0.5C8.4,1.8,8,1.9,7.6,1.9
		c-0.3,0-0.7,0-1-0.1c0,0-0.1-0.1-0.1-0.1C6.1,1.4,5.5,1,4.6,1c-0.5,0-1,0.2-1.5,0.4c-0.6,0.4-1,0.9-1.4,1.3C1.6,3,1.5,3.2,1.3,3.3
		c-1.1,1-1.5,2.4-1.3,3.8c0.1,0.8,0.4,1.5,0.7,2C1,9.5,0.9,9.6,0.8,9.7c-0.2,0.4-0.4,0.8-0.5,1.2c-0.4,1.5-0.3,2.7,0.2,3.7
		c0.4,0.7,1,1.2,1.8,1.7c0,0.6,0,1.1,0,1.6c0,0.7,0,1.5,0,2.2c0,1.8,0,3.6,0.1,5.5c0.2,3.3,0.2,6.9-0.2,11.4
		c-0.1,0.6-0.2,0.7-0.3,0.9c-1,0.7-1.8,2.4-1.5,3.8c0.1,0.8,0,1.6-0.1,2.5c-0.1,0.4-0.1,0.8-0.2,1.2c-0.1,0.7-0.2,2,0.5,3
		C1,48.7,1,49,0.9,49.8c-0.2,0.9-0.6,2.5,0.5,3.9c0.4,0.5,0.4,1.1,0.4,2C1.9,58,2,60.2,2.1,62.4c0.1,1.6,0.1,3.2,0.2,4.8l0,0.5
		c0.1,2,0.1,4,0.1,5.9c0,0.8-0.1,1.2-0.4,1.6c-1.8,2-2.2,4.6-1.1,7.1C1,82.6,1,82.8,0.8,83.3c-0.1,0.1-0.1,0.3-0.2,0.4
		c-0.1,0.3-0.2,0.5-0.3,0.8c-0.5,1.3-0.7,2.7,1.1,4.2c0.6,0.5,1.2,0.8,1.8,1.1c0.2,0.1,0.3,0.2,0.5,0.3c0.4,0.2,0.8,0.3,1.2,0.3
		c0.4,0,0.9-0.1,1.2-0.4c0.1,0,0.3,0.1,0.4,0.2c0.3,0.1,0.6,0.3,1,0.4c0.6,0.2,1.4,0.3,2.2,0.3c1.4,0,2.6-0.5,3.5-1.6
		c0,0,0.1,0,0.1,0c4-0.2,7.6-0.4,11.2-0.6c0.2,0,0.3,0,0.5,0c1.2,0,2,0.2,2.7,0.7c1,0.8,2.3,1.2,3.7,1.2c0.6,0,1.2-0.1,1.8-0.3
		c0,0,0,0,0,0c0,0,0,0.1,0.1,0.1c0.7,1.1,1.5,1.6,2.5,1.6c1.2,0,2-0.8,2.2-1.1c0.1-0.2,0.2-0.2,0.7-0.2h0.1c1,0,2-0.2,2.8-0.5
		c0.8-0.3,1.9-0.9,2.5-1.9l1,0c0.5,0,1,0,1.4,0c1,0,1.8,0,2.5,0c1.8,0.1,3.7,0.2,5.5,0.3c1.4,0.1,2.8,0.2,4.2,0.3
		c0.7,1.4,2.1,2.2,3.9,2.2c0,0,0.1,0,0.1,0c0.5,0,1,0,1.5-0.1c0.5,0,1.1-0.1,1.6-0.1c0.9,0,1.6,0.1,2.3,0.3c0.2,0.1,0.5,0.1,0.8,0.1
		h0c1.2,0,2.2-0.5,2.8-1.4c0.6-0.9,0.8-2,0.4-3.1C72,86.7,71.9,86.5,71.8,86.3z"/>
	<g>
		<path d="M4.3,14.9c-2.1-0.5-2.7-1.6-2.2-3.5c0.1-0.3,0.2-0.6,0.3-0.8c0.4-0.8,0.4-1.5,0-2.3C2.3,7.8,2,7.3,1.9,6.7
			C1.8,5.9,2,5.2,2.6,4.7C3.2,4.1,3.6,3.4,4.2,3C5,2.5,5.5,3.6,6.2,3.7c1,0.1,2,0.2,3-0.1c2.1-0.7,2.3-0.6,3.5,1.2
			c0.5,0.7,1.1,0.9,1.8,0.8c1.9-0.1,3.7-0.2,5.6-0.3c1.4,0,2.7,0.1,4.1,0.2c1,0,1.9,0.1,2.9,0c0.5-0.1,1-0.4,1.4-0.7
			c1-0.8,2-1.3,3.3-0.8c0.9,0.3,1.6-0.1,2.1-0.8c0.2-0.3,0.4-0.6,0.6-0.8c0.6-0.5,1.1-0.6,1.5,0.1c0.4,0.6,1,0.7,1.7,0.8
			c0.9,0.1,1.8,0.2,2.7,0.5c0.5,0.1,1.1,0.4,1.4,0.8c0.8,1.1,2,1.2,3.1,1.2c4.5-0.1,9.1-0.3,13.6-0.4c0.6,0,1.2-0.1,1.7-0.5
			c1.1-0.9,2.5-1.1,3.9-1.2c0.4,0,0.9,0.3,1.3,0.6c1.2,0.9,1.5,1,2.8,0.2c0.5-0.3,1-0.5,1.5-0.1c0.6,0.5,0.9,1.2,0.5,1.9
			c-0.7,1-0.6,2-0.2,3c0.6,1.4,0.1,2.6-0.3,3.8c-0.2,0.7-0.6,1.3-0.6,2c-0.1,4.5-0.1,9.1-0.2,13.7c-0.1,2.7-0.2,5.5-0.3,8.2
			c0,0.9-0.1,1.7,0,2.6c0.1,0.7,0.3,1.4,0.5,2.2c0.1,0.5,0.4,1,0.5,1.6c0.1,1.3,0.3,2.6,0.3,3.9c0,1.2-0.1,2.5-0.2,3.7
			c0,0.2-0.1,0.4-0.2,0.6c-0.9,0.9-0.8,2-0.8,3.1c0,3.6,0.1,7.2,0.2,10.8c0,2.2-0.1,4.3-0.2,6.5c-0.1,1.9-0.2,3.8-0.3,5.7
			c1.4,1.1,2.2,2.5,2.2,4.2c0,0.7-0.2,1.4-0.6,2c-0.6,1-0.6,2-0.2,3.1c0.1,0.2,0.2,0.5,0.3,0.7c0.4,1.2-0.2,2-1.4,2
			c-0.1,0-0.1,0-0.2,0c-2-0.7-4-0.4-6-0.3c-1.1,0-1.9-0.4-2.3-1.4c-0.3-0.7-0.8-0.8-1.4-0.8c-3.3-0.2-6.6-0.4-9.8-0.6
			c-1.7-0.1-3.4,0-5.2,0c-0.6,0-1.1,0.2-1.4,0.9c-0.3,0.5-1,1-1.6,1.2c-0.6,0.3-1.4,0.4-2.1,0.4c-0.9,0-1.5,0.2-2.1,0.8
			c-0.7,0.7-1.1,0.7-1.7-0.2c-0.6-0.9-1.2-1.2-2.3-0.9c-1.3,0.4-2.8,0.1-3.8-0.7c-1.4-1.1-2.9-1.2-4.4-1.1
			c-3.7,0.1-7.5,0.3-11.2,0.6c-0.5,0-1.1,0.2-1.3,0.5c-1.1,1.4-2.5,1.1-3.9,0.8c-1-0.2-1.9-1.1-3-0.2c-0.1,0.1-0.3,0-0.4,0
			c-0.7-0.4-1.4-0.8-2-1.2c-0.8-0.6-0.9-1-0.5-2c0.1-0.4,0.3-0.7,0.5-1.1c0.3-0.8,0.4-1.5,0.1-2.4c-0.8-1.8-0.6-3.6,0.7-5.1
			c0.7-0.8,0.9-1.8,0.9-2.8c0-2.2-0.1-4.3-0.2-6.5C4,63.4,3.8,59.5,3.7,55.7c0-1.1-0.1-2.2-0.8-3.1c-0.5-0.7-0.4-1.6-0.2-2.3
			c0.2-1,0.2-1.9-0.4-2.9c-0.3-0.4-0.2-1.2-0.2-1.7c0.1-1.4,0.5-2.7,0.3-4.2c-0.1-0.6,0.3-1.6,0.8-2c0.8-0.6,1-1.4,1.1-2.2
			c0.3-3.9,0.5-7.8,0.2-11.7c-0.2-2.5-0.1-5.1-0.1-7.6C4.3,16.9,4.3,16,4.3,14.9z M34.9,4.3c-1,1.1-2.2,1.6-3.7,1
			c-1-0.3-1.2-0.1-1.9,0.9c-0.2,0.3-0.5,0.6-0.8,0.6c-1.5,0-3,0.2-4.4-0.1c-1.9-0.3-3.8-0.3-5.7-0.2c-1.9,0.1-3.7,0.6-5.6,0.3
			c-0.7-0.1-1-0.3-1.3-1c-0.4-1.2-0.6-1.3-1.8-0.9C8.6,5.3,7.5,5.4,6.3,5.1C6,5,5.6,4.9,5.3,4.9C4.1,5,3.5,5.9,3.8,7
			c0.1,0.3,0.3,0.6,0.4,0.8c0.5,1,0.5,2,0,3.1c-0.2,0.4-0.4,0.8-0.5,1.3c0,0.3,0.1,0.8,0.4,1c1,0.9,1.6,2,1.5,3.4
			c-0.1,3.3,0,6.7,0.2,10c0.2,3.8-0.1,7.6-0.2,11.4c0,0.9-0.3,1.8-1.1,2.4c-0.3,0.2-0.6,0.7-0.6,1c0.4,1.3-0.1,2.5-0.3,3.8
			c-0.1,0.7-0.1,1.3,0.2,1.9c0.5,1.1,0.7,2.2,0.2,3.4c-0.2,0.6-0.1,1.1,0.2,1.7C4.7,52.9,5,53.8,5,54.7c0.2,6.1,0.4,12.1,0.6,18.2
			c0.1,1.9-0.2,3.7-1.4,5.3c-0.5,0.7-0.7,1.5-0.4,2.3c0.7,1.6,0.5,3,0,4.6c-0.4,1.1,0.2,1.8,1.3,1.6c1.1-0.2,2.1,0,3.1,0.5
			c0.4,0.2,0.8,0.4,1.3,0.4c0.4,0,1.1-0.2,1.2-0.4c0.4-1.4,1.4-1.4,2.5-1.3c0.3,0,0.6,0,0.9-0.1c3.7-0.2,7.4-0.4,11.1-0.5
			c1.6,0,3.2-0.1,4.5,1.2c0.6,0.6,1.7,1.1,2.7,0.7c1.4-0.5,2.6-0.3,3.4,0.6c1-0.2,1.8-0.4,2.5-0.5c0.4-0.1,0.9,0,1.4,0
			c1.1-0.1,1.3-0.3,1.6-1.4c0-0.2,0.1-0.4,0.2-0.6c0.5-0.1,1-0.3,1.5-0.3c2.3,0,4.6-0.1,6.8,0c3.4,0.2,6.7,0.6,10.1,0.8
			c0.9,0.1,1.4,0.3,1.8,1.1c0.5,1.1,0.9,1.2,2.2,1c0.9-0.1,1.8-0.2,2.7-0.2c0.6,0,1.2,0.2,1.9,0.3c0-0.4,0-0.6-0.1-0.8
			c-0.6-1.5-0.4-2.9,0.5-4.3c0.9-1.4,0.3-3-1.2-3.8c-0.2-0.1-0.4-0.3-0.6-0.4c0-0.8,0-1.6,0-2.3c0.1-3.1,0.4-6.3,0.4-9.4
			c0-4.3-0.2-8.7-0.3-13c0-1.1-0.1-2.1,0.8-3c0.1-0.1,0.2-0.4,0.2-0.5c-0.3-1,0.1-1.9,0.2-2.8c0.1-0.7-0.2-1.4-0.3-2.1
			c-0.1-0.5-0.2-1-0.1-1.4c0.2-0.8,0-1.4-0.4-2c-0.3-0.6-0.6-1.2-0.6-1.8c0.1-3.3,0.3-6.7,0.4-10c0.1-5,0.2-10,0.3-15
			c0-0.5-0.1-1-0.3-1.4c-0.4-0.6-0.3-1,0.4-1.4c0.8-0.4,1-1.1,0.9-1.9c-0.1-0.7-0.4-1.4-0.5-2.1c-0.1-0.7,0-1.5,0-2.3
			c-1.3,0.4-2.5,0.3-3.4-0.5C64,4.9,63.2,5,62.4,5.4C61.9,5.6,61.5,6,61,6.2c-0.4,0.2-0.9,0.5-1.4,0.5c-3,0.1-6.1,0.1-9.1,0.1
			c-2.7,0-5.5,0.1-8.2,0.1c-0.6,0-1.1-0.1-1.3-0.8c-0.2-0.9-0.9-1.1-1.7-1.2C37.9,4.8,36.6,4.6,34.9,4.3z"/>
		<path fill="#F7AEA8" d="M34.9,4.3c1.6,0.2,3,0.5,4.4,0.7c0.8,0.1,1.5,0.4,1.7,1.2c0.2,0.7,0.7,0.8,1.3,0.8c2.7,0,5.5-0.1,8.2-0.1
			c3,0,6.1-0.1,9.1-0.1c0.5,0,0.9-0.3,1.4-0.5c0.5-0.2,0.9-0.6,1.4-0.9C63.2,5,64,4.9,64.8,5.6c0.9,0.9,2.1,0.9,3.4,0.5
			c0,0.8-0.1,1.6,0,2.3c0.1,0.7,0.4,1.4,0.5,2.1c0.1,0.8-0.1,1.5-0.9,1.9c-0.6,0.3-0.7,0.7-0.4,1.4c0.2,0.4,0.3,0.9,0.3,1.4
			c-0.1,5-0.1,10-0.3,15c-0.1,3.3-0.3,6.7-0.4,10c0,0.6,0.3,1.2,0.6,1.8c0.3,0.7,0.6,1.2,0.4,2c-0.1,0.4,0.1,1,0.1,1.4
			c0.1,0.7,0.4,1.4,0.3,2.1c-0.1,0.9-0.5,1.8-0.2,2.8c0,0.1-0.1,0.4-0.2,0.5c-0.9,0.8-0.8,1.9-0.8,3c0.1,4.3,0.3,8.7,0.3,13
			c0,3.1-0.3,6.3-0.4,9.4c0,0.7,0,1.5,0,2.3c0.2,0.1,0.4,0.3,0.6,0.4c1.5,0.8,2.1,2.4,1.2,3.8c-0.9,1.4-1.1,2.8-0.5,4.3
			c0.1,0.2,0,0.4,0.1,0.8c-0.7-0.1-1.3-0.3-1.9-0.3c-0.9,0-1.8,0.1-2.7,0.2c-1.3,0.2-1.7,0.1-2.2-1c-0.4-0.8-0.9-1.1-1.8-1.1
			c-3.4-0.2-6.7-0.6-10.1-0.8c-2.3-0.1-4.6,0-6.8,0c-0.5,0-1,0.2-1.5,0.3c-0.1,0.2-0.2,0.4-0.2,0.6c-0.3,1.1-0.5,1.3-1.6,1.4
			c-0.5,0-0.9,0-1.4,0c-0.8,0.1-1.5,0.3-2.5,0.5c-0.8-0.9-2-1.1-3.4-0.6c-1,0.4-2.1-0.1-2.7-0.7c-1.4-1.3-3-1.2-4.5-1.2
			c-3.7,0.1-7.4,0.3-11.1,0.5c-0.3,0-0.6,0.1-0.9,0.1c-1.1-0.1-2.1-0.1-2.5,1.3c-0.1,0.2-0.8,0.4-1.2,0.4c-0.4,0-0.9-0.2-1.3-0.4
			c-1-0.5-1.9-0.7-3.1-0.5C4,86.8,3.4,86.1,3.8,85c0.5-1.5,0.8-3,0-4.6c-0.4-0.8-0.2-1.6,0.4-2.3c1.2-1.6,1.5-3.4,1.4-5.3
			C5.4,66.8,5.2,60.7,5,54.7c0-0.9-0.3-1.8-0.7-2.6c-0.3-0.6-0.5-1.1-0.2-1.7C4.6,49.1,4.4,48,3.9,47c-0.3-0.6-0.3-1.2-0.2-1.9
			c0.2-1.2,0.6-2.5,0.3-3.8c-0.1-0.3,0.3-0.8,0.6-1c0.9-0.6,1.1-1.4,1.1-2.4c0.1-3.8,0.4-7.6,0.2-11.4c-0.2-3.3-0.2-6.7-0.2-10
			c0-1.4-0.5-2.5-1.5-3.4c-0.2-0.2-0.4-0.7-0.4-1c0-0.4,0.3-0.9,0.5-1.3c0.5-1,0.5-2,0-3.1C4.1,7.6,3.9,7.3,3.8,7
			C3.5,5.9,4.1,5,5.3,4.9C5.6,4.9,6,5,6.3,5.1c1.2,0.3,2.3,0.2,3.4-0.1c1.2-0.4,1.4-0.3,1.8,0.9c0.2,0.7,0.6,0.9,1.3,1
			c1.9,0.4,3.7-0.2,5.6-0.3c1.9-0.1,3.8-0.2,5.7,0.2c1.4,0.2,2.9,0.1,4.4,0.1c0.3,0,0.6-0.3,0.8-0.6c0.7-1,0.9-1.3,1.9-0.9
			C32.8,5.9,34,5.4,34.9,4.3z M64.6,80.8c1.1-1,1.1-1,1.2-2.4c0.1-2,0.3-3.9,0.2-5.9c-0.2-3.4-0.5-6.7-0.7-10.1c0-0.3,0-0.6,0-0.9
			c0.1-2.4,0.1-4.7,0.2-7.1c0-1.6-0.1-3.2,0-4.8c0.1-1.2,0.9-2.4,0.2-3.7c-0.1-0.1,0-0.4,0.1-0.6c0.4-0.9,0.2-1.8-0.3-2.6
			c-0.5-0.7-0.5-1.4,0.1-2.1c0.6-0.7,0.7-1.6,0.6-2.4C66,35,65.8,32,65.7,29c-0.1-2.4-0.2-4.9,0-7.3c0.2-2.2,0.2-4.3-0.3-6.5
			c-0.1-0.4-0.1-1,0.1-1.3c0.4-0.7,0.2-1.2-0.2-1.6c-0.6-0.6-0.4-1.2,0.1-1.7c0.3-0.3,0.7-0.7,0.8-1.1c0.4-1-0.1-1.5-1.1-1.3
			c-0.7,0.2-1.2,0.1-1.6-0.5c-0.4-0.6-1-0.6-1.6-0.4c-0.3,0.1-0.6,0.3-1,0.5c-1.2,0.6-2.4,1.1-3.8,0.6c-0.3-0.1-0.7-0.1-1.1-0.1
			c-3.8,0.1-7.6,0.2-11.4,0.4c-1.2,0.1-2.4-0.1-3.5-0.7c-0.3-0.2-0.9-0.3-1.1-0.2c-0.9,0.7-1.7,0.4-2.5,0c-1-0.4-1.5,1.2-2.6,0.8
			c-0.1-0.1-0.3,0-0.5,0c-0.3,0-0.5,0-0.7,0.1c-1,0.6-1.8,0.2-2.7-0.4c-0.3-0.2-0.7-0.4-1.1-0.4c-2.3,0.2-4.5,0.4-6.7,0.6
			c-4.6,0.4-9.1-0.1-13.5-1.1C9.2,7.3,8.7,7.3,8.6,8c-0.1,0.6-0.4,1-1.1,1c-0.7,0.1-1,0.6-1,1.3c0,0.9,0,1.7,0.1,2.6
			c0.2,0.8,0.5,1.6,1,2.3c0.8,1.1,0.9,1.2,0.2,2.4c-1.1,1.7-1.3,3.5-1.4,5.4c0,2.4-0.1,4.8-0.1,7.1c-0.1,3.2,0,6.5-0.2,9.7
			c0,0.9,0.1,1.5,0.7,2.1c-0.7,1.3-0.7,1.3-0.1,2.6C6,45.3,5.6,46.3,6.5,47c-0.1,0.9-0.3,1.6-0.3,2.3c0,1.1,0.2,2.1,0.3,3.2
			c0.2,3.7-0.1,7.5,0.4,11.2c0.3,2.8,0.3,5.6,0.3,8.3c0,2.1-0.3,4.2-0.5,6.3c-0.1,0.9-0.4,1.8,0.6,2.5c-0.4,0.5-0.7,1-1,1.5
			C6,82.6,5.9,83,5.9,83.3c0,0.2,0.6,0.3,0.9,0.2c0.8-0.2,1.3,0,1.7,0.6c0.5,0.7,1.1,0.9,1.8,0.4c1.4-0.9,2.9-1.3,4.6-1.2
			c0,0,0.1,0,0.2,0c3.1-0.3,6.1-0.5,9.2-0.8c1.8-0.2,3.6,0.1,5.4-0.6c0.5-0.2,0.9-0.1,1.3,0.5c0.6,1,1,1.2,2.1,0.9
			c0.9-0.3,1.8-0.5,2.8-0.3c0.4,0.1,0.8,0.1,1.1,0.1c1,0.2,2,0.4,2.9-0.3c0.5-0.4,1.1-0.4,1.6,0c0.6,0.4,1.1,0.5,1.7,0.1
			c0.3-0.2,0.8-0.1,1.1,0c0.5,0.1,1,0.2,1.5,0.2c1.2,0,2.3-0.1,3.5-0.1c3.8-0.1,7.6-0.3,11.4,0.2c0.7,0.1,1.4,0,1.9,0.7
			c0.1,0.2,0.5,0.2,0.8,0.2c0.4,0,0.8-0.2,1.2-0.2c0.8-0.2,1-0.5,0.8-1.3C65.1,82,64.8,81.4,64.6,80.8z"/>
		<path d="M64.6,80.8c0.2,0.7,0.4,1.3,0.6,1.9c0.2,0.8,0,1.1-0.8,1.3c-0.4,0.1-0.8,0.2-1.2,0.2c-0.3,0-0.7,0-0.8-0.2
			c-0.5-0.7-1.2-0.6-1.9-0.7c-3.8-0.5-7.6-0.3-11.4-0.2c-1.2,0-2.3,0.1-3.5,0.1c-0.5,0-1-0.2-1.5-0.2c-0.4,0-0.8-0.1-1.1,0
			c-0.6,0.3-1.1,0.2-1.7-0.1c-0.5-0.3-1.1-0.3-1.6,0c-0.9,0.7-1.9,0.5-2.9,0.3c-0.4-0.1-0.8,0-1.1-0.1c-1-0.2-1.8,0-2.8,0.3
			c-1,0.4-1.5,0.1-2.1-0.9c-0.3-0.6-0.8-0.7-1.3-0.5c-1.7,0.8-3.6,0.5-5.4,0.6c-3.1,0.3-6.1,0.5-9.2,0.8c-0.1,0-0.1,0-0.2,0
			c-1.7-0.1-3.2,0.3-4.6,1.2c-0.7,0.4-1.3,0.3-1.8-0.4c-0.4-0.6-1-0.8-1.7-0.6c-0.3,0.1-0.9-0.1-0.9-0.2c-0.1-0.3,0-0.7,0.2-1.1
			c0.3-0.5,0.6-0.9,1-1.5c-1-0.7-0.7-1.6-0.6-2.5C6.7,76.2,7,74.1,7.1,72c0-2.8,0-5.6-0.3-8.3c-0.4-3.7-0.2-7.5-0.4-11.2
			c0-1.1-0.2-2.1-0.3-3.2c0-0.7,0.2-1.3,0.3-2.3c-0.9-0.7-0.5-1.7,0.2-2.6c-0.7-1.2-0.7-1.2,0.1-2.6c-0.6-0.5-0.7-1.2-0.7-2.1
			c0.1-3.2,0.1-6.5,0.2-9.7c0-2.4,0.1-4.8,0.1-7.1c0-1.9,0.3-3.7,1.4-5.4c0.7-1.2,0.6-1.3-0.2-2.4c-0.5-0.7-0.8-1.5-1-2.3
			c-0.2-0.8-0.1-1.7-0.1-2.6c0-0.7,0.2-1.2,1-1.3c0.7-0.1,1-0.4,1.1-1c0.1-0.7,0.6-0.7,1.2-0.6c4.4,1,8.9,1.5,13.5,1.1
			c2.2-0.2,4.5-0.4,6.7-0.6c0.4,0,0.8,0.2,1.1,0.4c0.8,0.6,1.7,1,2.7,0.4c0.2-0.1,0.5-0.1,0.7-0.1c0.1,0,0.3,0,0.5,0
			c1.1,0.5,1.6-1.1,2.6-0.8c0.9,0.3,1.7,0.7,2.5,0c0.2-0.2,0.8,0,1.1,0.2c1.1,0.6,2.3,0.7,3.5,0.7c3.8-0.2,7.6-0.3,11.4-0.4
			c0.4,0,0.7,0,1.1,0.1c1.4,0.6,2.6,0,3.8-0.6c0.3-0.2,0.6-0.4,1-0.5C62.4,7.1,63,7,63.5,7.7c0.4,0.6,0.9,0.7,1.6,0.5
			c1-0.2,1.5,0.3,1.1,1.3c-0.2,0.4-0.5,0.7-0.8,1.1c-0.5,0.5-0.7,1.1-0.1,1.7c0.5,0.5,0.6,1,0.2,1.6c-0.2,0.3-0.2,0.9-0.1,1.3
			c0.5,2.2,0.5,4.3,0.3,6.5c-0.2,2.4,0,4.8,0,7.3c0.1,3,0.3,6.1,0.5,9.1c0,0.9,0,1.7-0.6,2.4c-0.6,0.7-0.5,1.4-0.1,2.1
			c0.5,0.8,0.7,1.7,0.3,2.6c-0.1,0.2-0.2,0.4-0.1,0.6c0.7,1.3-0.1,2.5-0.2,3.7c-0.1,1.6,0,3.2,0,4.8c0,2.4-0.1,4.7-0.2,7.1
			c0,0.3-0.1,0.6,0,0.9c0.2,3.4,0.6,6.7,0.7,10.1c0.1,2-0.1,3.9-0.2,5.9C65.7,79.8,65.7,79.8,64.6,80.8z M8,13.6
			c1.8,1.4,2,2.2,0.9,4.1c-0.7,1.3-1.1,2.6-1.2,4c0,1.7,0,3.4-0.1,5.2c-0.1,3.8-0.2,7.7-0.2,11.5c0,0.6,0,1.3,0.3,1.7
			c0.7,0.8,0.7,1.5,0.4,2.4C8,42.9,8,43.4,8,43.8c-0.1,1.2-0.3,2.4,0.1,3.6c0.1,0.2,0,0.4-0.1,0.6c-0.6,0.9-0.3,1.9-0.3,2.8
			c0.1,1.3,0.2,2.5,0.2,3.8c0,2.1-0.2,4.2,0,6.2c0.5,4.8,0.4,9.6,0.3,14.4c0,1.1-0.2,2.3,0.1,3.3c0.3,1.2,0.4,2.4-0.2,3.5
			c0.5,0.4,0.9,0.8,1.4,0.9c0.4,0.1,1.2,0.2,1.4,0c0.8-0.8,1.7-0.7,2.7-0.7c0.7,0,1.4,0,2.1-0.1c2.9-0.2,5.7-0.4,8.6-0.6
			c1.6-0.1,3.1-0.1,4.6-0.6c1.7-0.6,2.4-0.3,3.4,1.1c0,0.1,0.2,0.1,0.3,0.1c0.3-0.1,0.6-0.3,0.9-0.4c0.8-0.2,1.5-0.4,1.8-1.3
			c0.2-0.5,0.9-0.4,1.3,0.1c0.2,0.2,0.3,0.5,0.5,0.8c0.5,0.8,1,1,1.9,0.6c0.3-0.2,0.6-0.5,0.9-0.5c1.3,0.1,2.6,0.4,4,0
			c1.7,1,3.5,0.6,5.3,0.6c3.7-0.1,7.4-0.4,11.1,0.2c0.9,0.1,1.9,0.1,2.8,0.2c0.1-0.2,0.1-0.2,0.1-0.3c0-1.2-0.4-2.4,0.8-3.3
			c0.1-0.1,0.1-0.3,0.1-0.4c0.1-2.7,0.3-5.3,0-8c-0.3-3-0.5-6.1-0.4-9.1c0.1-3.3,0.2-6.7,0-10c-0.1-0.9,0-1.8,0.4-2.7
			c0.4-0.7,0.5-1.5,0-2.3c-0.1-0.2-0.2-0.7-0.1-0.9c0.7-0.9,0.2-1.7-0.2-2.5c-0.6-1-0.5-1.9,0.2-2.8c0.3-0.4,0.5-0.9,0.6-1.4
			c0-1.5,0-2.9-0.1-4.4c-0.2-4-0.3-8.1-0.5-12.1c0-0.3,0.1-0.6,0.1-0.9c0.1-0.8,0.2-1.6,0.1-2.4c-0.1-1.8-0.4-3.5-0.6-5.3
			c0-0.1-0.1-0.3-0.2-0.4c-0.6-0.7-0.4-1.5-0.1-2.3c0.2-0.3,0.3-0.7,0.4-1.1c-0.7-0.4-1.2-0.7-1.8-1.1c-1.8,0.9-3.6,1.8-5.6,0.9
			c0,0-0.1,0-0.2,0c-3.1,0-6.2,0-9.3,0c-1.4,0-2.8,0.1-4.2,0.1c-1.3,0-2.6-0.6-4-0.1c-0.2,0.1-0.5,0-0.7-0.1
			c-0.5-0.2-0.9-0.1-1.4,0.1c-0.4,0.2-1,0.2-1.5,0.3c-0.3,0-0.8-0.1-1,0.1c-0.9,0.7-1.7,0.2-2.6-0.1c-0.6-0.2-1.2-0.5-1.9-0.5
			c-2.3,0.1-4.5,0.4-6.8,0.4c-2.8,0-5.7-0.1-8.5-0.3c-1.4-0.1-2.9-0.5-4.2-0.8c-0.4,0.4-0.7,0.8-1,1.1c-0.3,0.3-0.8,0.5-1,0.7
			C8.2,11.5,8.1,12.5,8,13.6z"/>
		<path fill="#F7AEA8" d="M8,13.6c0.1-1.1,0.2-2.1,0.3-3.2c0.3-0.2,0.7-0.4,1-0.7c0.3-0.3,0.6-0.6,1-1.1c1.4,0.3,2.8,0.7,4.2,0.8
			c2.8,0.2,5.7,0.3,8.5,0.3c2.3,0,4.5-0.3,6.8-0.4c0.6,0,1.3,0.3,1.9,0.5c0.9,0.3,1.6,0.8,2.6,0.1c0.2-0.2,0.7-0.1,1-0.1
			c0.5-0.1,1-0.1,1.5-0.3c0.5-0.2,0.9-0.3,1.4-0.1c0.2,0.1,0.5,0.2,0.7,0.1c1.4-0.5,2.7,0,4,0.1c1.4,0,2.8-0.1,4.2-0.1
			c3.1,0,6.2,0,9.3,0c0.1,0,0.1,0,0.2,0c2.1,0.9,3.8,0,5.6-0.9C62.8,9,63.3,9.3,64,9.7c-0.1,0.4-0.2,0.7-0.4,1.1
			c-0.3,0.8-0.6,1.5,0.1,2.3c0.1,0.1,0.1,0.3,0.2,0.4c0.2,1.8,0.5,3.5,0.6,5.3c0.1,0.8-0.1,1.6-0.1,2.4c0,0.3-0.1,0.6-0.1,0.9
			c0.2,4,0.4,8.1,0.5,12.1c0.1,1.5,0.1,2.9,0.1,4.4c0,0.5-0.3,1-0.6,1.4c-0.7,0.9-0.8,1.8-0.2,2.8c0.4,0.8,0.9,1.6,0.2,2.5
			c-0.1,0.2-0.1,0.7,0.1,0.9c0.6,0.8,0.4,1.6,0,2.3c-0.4,0.9-0.5,1.7-0.4,2.7c0.2,3.3,0.1,6.7,0,10c-0.1,3,0.1,6.1,0.4,9.1
			c0.3,2.7,0.1,5.4,0,8c0,0.1,0,0.4-0.1,0.4c-1.2,0.9-0.9,2.1-0.8,3.3c0,0.1-0.1,0.2-0.1,0.3c-0.9-0.1-1.9,0-2.8-0.2
			c-3.7-0.6-7.4-0.2-11.1-0.2c-1.8,0-3.7,0.4-5.3-0.6c-1.3,0.4-2.6,0.1-4,0c-0.3,0-0.6,0.3-0.9,0.5c-0.9,0.4-1.4,0.3-1.9-0.6
			c-0.2-0.3-0.3-0.5-0.5-0.8c-0.4-0.5-1.1-0.6-1.3-0.1c-0.4,0.9-1.1,1.1-1.8,1.3c-0.3,0.1-0.6,0.3-0.9,0.4c-0.2-0.1-0.3-0.1-0.3-0.1
			c-1.1-1.4-1.7-1.8-3.4-1.1c-1.5,0.6-3.1,0.5-4.6,0.6c-2.9,0.2-5.8,0.4-8.6,0.6c-0.7,0-1.4,0.1-2.1,0.1c-1-0.1-1.9-0.2-2.7,0.7
			c-0.2,0.2-1,0.2-1.4,0c-0.5-0.2-0.9-0.6-1.4-0.9c0.6-1.2,0.5-2.3,0.2-3.5c-0.3-1-0.1-2.2-0.1-3.3c0-4.8,0.2-9.6-0.3-14.4
			c-0.2-2.1,0-4.1,0-6.2c0-1.3-0.1-2.5-0.2-3.8c-0.1-1-0.3-1.9,0.3-2.8c0.1-0.2,0.1-0.4,0.1-0.6c-0.4-1.2-0.2-2.4-0.1-3.6
			c0-0.4,0-0.8,0.2-1.2c0.3-0.9,0.3-1.6-0.4-2.4c-0.3-0.4-0.3-1.1-0.3-1.7c0-3.8,0.1-7.7,0.2-11.5c0-1.7,0-3.4,0.1-5.2
			c0-1.4,0.4-2.8,1.2-4C10,15.8,9.8,15.1,8,13.6z M61.7,12.8c-2.1,0.8-4,0.2-5.9,0c-0.7-0.1-1.4-0.1-2.1-0.1c-2.2,0-4.5,0.1-6.7,0
			c-1.8,0-3.6-0.2-5.5-0.2c-1,0-1.9,0.1-2.9,0.1c-5.8-0.1-11.5-0.2-17.3-0.2c-2.7,0-5.5,0.2-8.2,0.4c-1.5,0.1-1.9,0.6-2,2.1
			c0,0.2,0,0.4,0,0.6c-0.1,3-0.1,6-0.2,8.9c-0.1,5-0.2,10-0.2,15c0,2.1,0.2,4.2,0.2,6.4c0,3.9-0.1,7.8-0.1,11.7
			c0,5-0.1,9.9-0.1,14.9c0,1.2,0,2.4,0.1,3.6c0,0.6,0.3,1.1,1.1,1c2.3-0.1,4.5-0.3,6.8-0.4c2.2-0.1,4.4-0.4,6.5-0.2
			c5.9,0.4,11.7,0.3,17.6,0.3c5.6,0,11.2,0,16.9,0c1.3,0,1.5-0.2,1.6-1.4c0.1-1.1,0.2-2.1,0.2-3.2c0.1-2.1,0.3-4.1,0.3-6.2
			c0-2-0.2-3.9-0.2-5.9c0-1.6,0.2-3.2,0.2-4.8c0-2.7-0.2-5.5-0.2-8.2c0-4.3,0.1-8.6,0.1-12.9c0-6.2-0.1-12.4-0.1-18.7
			C61.5,14.7,61.6,13.8,61.7,12.8z"/>
		<path d="M61.7,12.8c-0.1,1-0.2,1.9-0.2,2.7c0,6.2,0.1,12.4,0.1,18.7c0,4.3-0.1,8.6-0.1,12.9c0,2.7,0.2,5.5,0.2,8.2
			c0,1.6-0.2,3.2-0.2,4.8c0,2,0.2,3.9,0.2,5.9c0,2.1-0.2,4.1-0.3,6.2c-0.1,1.1-0.2,2.1-0.2,3.2c-0.1,1.2-0.4,1.4-1.6,1.4
			c-5.6,0-11.2-0.1-16.9,0c-5.9,0-11.7,0.2-17.6-0.3c-2.2-0.2-4.3,0.1-6.5,0.2c-2.3,0.1-4.5,0.3-6.8,0.4c-0.7,0-1-0.4-1.1-1
			c-0.1-1.2-0.1-2.4-0.1-3.6c0-5,0-9.9,0.1-14.9c0-3.9,0.1-7.8,0.1-11.7c0-2.1-0.2-4.2-0.2-6.4c0-5,0.1-10,0.2-15c0-3,0.1-6,0.2-8.9
			c0-0.2,0-0.4,0-0.6c0.1-1.5,0.6-2,2-2.1c2.7-0.1,5.5-0.4,8.2-0.4c5.8,0,11.5,0.1,17.3,0.2c1,0,1.9-0.1,2.9-0.1
			c1.8,0,3.6,0.2,5.5,0.2c2.2,0,4.5,0,6.7,0c0.7,0,1.4,0,2.1,0.1C57.7,13,59.6,13.6,61.7,12.8z M46.6,45.5c-0.1,1.2-0.1,2.5-0.4,3.7
			c-0.2,1.2,0.3,1.8,1.3,2.3c0.5,0.3,1.1,0.5,1.7,0.6c0.8,0.3,1.7,0.5,2.5,0.8c2,0.7,4,1.6,6.1,2.3c0.7,0.3,1.5,0.3,2.4,0.4
			c-0.1-13.8-0.2-27.4-0.2-41c-0.5,0-1,0.1-1.4,0c-2.6-0.5-5.2-0.4-7.9-0.4c-3,0-6.1-0.2-9.1-0.3c-0.3,0-0.5,0-0.8,0
			c-3.3,0.1-6.7,0.1-10,0.2c-0.2,0-0.3,0-0.5,0c-1.4-0.1-2.8-0.2-4.2-0.2c-1.7,0-3.4,0.1-5.1,0.2c-2.4,0.1-4.9,0.2-7.3,0.4
			c-0.3,0-0.7,0.2-1.1,0.3c-0.9,14.8-0.2,29.5-0.6,44.5c1.1-0.5,1.9-0.9,2.8-1.2c3.3-1.3,6.6-2.7,9.8-4.5c0.9-0.5,1.6-1.4,2.5-2.1
			c0.2-1.9,0.1-3.7,0-5.4c-1.6-0.4-2.9-0.6-4.2-1c-1.4-0.4-2.2-1.4-2.8-2.8c-0.8-2-0.5-3.9,0-5.8c0.5-2,1.7-3.5,3.5-4.6
			c0.7-0.4,1.5-0.9,2.2-1.3c0.6-0.3,1.1-0.7,1.1-1.5c0-1,0.2-2,0.3-3c0.3-2.6,0.9-5.2,3.1-6.9c2.2-1.8,4.8-3.1,7.8-2.8
			c0.9,0.1,1.8,0.3,2.7,0.4c2.1,0.2,3.4,1.4,4,3.2c0.7,1.9,1.1,4,1.6,6c0.1,0.5,0.2,1,0.3,1.4c0.4,0,0.7,0,1,0
			c2.8-0.1,5.4,0.4,7.9,1.7c1.1,0.6,2.2,1.3,2.7,2.6c0.9,2.6,0.9,5.1-0.8,7.4C55.8,41.2,53.8,43,51,44C49.6,44.5,48.2,45,46.6,45.5z
			 M46.7,29c0,4.9,0,9.7,0,14.6c0.6-0.1,1.1-0.1,1.5-0.2c3.1-0.8,5.8-2.3,7.7-5c0.9-1.2,1.2-2.5,1.2-3.8c0-2-0.9-3.4-2.7-4.3
			c-2-1-4-1.4-6.1-1.5C47.8,28.8,47.2,28.9,46.7,29z M37.4,54.4c0.8,2.3,4.5,7.3,6.1,8c0.7-3.6,1.2-7.1,1.3-10.8
			C42.3,52.6,39.9,53.5,37.4,54.4z M40.2,75c-0.2-2.5-0.3-4.9-0.5-7.3c-0.2-2.2-0.5-4.3-0.5-6.5c0-1.2-0.7-1.8-1.7-2.7
			c0.1,2.5,0.2,4.8,0.3,7c0.2,2.8,0.4,5.5,0.5,8.3C38.5,75.1,38.6,75.2,40.2,75z M26.8,42.2c-0.6-0.2-1.2-0.4-1.7-0.6
			c-0.8-0.3-1.3-0.8-1.4-1.6c-0.2-1.1-0.3-2.3-0.3-3.5c0-1.5,0.7-2.7,2.3-3.2c0.2-0.1,0.5-0.2,0.7-0.3c0.6-0.3,0.5-0.8,0.2-1.2
			c-3.5,1-5.8,4.9-5,8.3c0.6,2.7,2.4,4,5.4,3.6c0-0.2,0.1-0.4,0.1-0.6C27,42.8,26.9,42.5,26.8,42.2z M34.3,54.8
			c-2.2-0.3-4.2-0.6-6.3-0.8c-0.1,1.7,0.3,5,0.9,6.1C31,58.7,32.7,57,34.3,54.8z M31.9,60.2c-0.1,0-0.2,0-0.3,0
			c-0.1,0.4-0.2,0.7-0.2,1.1c-0.1,1.5-0.1,3-0.1,4.5c0,2.2-0.1,4.3-0.2,6.5c0,0.9,0,1.9,0,3c0.2,0.1,0.7,0.3,0.9-0.4
			c0.1-0.5,0.2-1.1,0.2-1.6c0-4.2-0.1-8.4-0.2-12.6C32.1,60.5,32,60.3,31.9,60.2z M35.9,56.3c0,0-0.1,0-0.1,0c0,0.2-0.1,0.5-0.1,0.7
			c0,3.4,0,6.9,0,10.3c0,2.4,0.1,4.8,0.2,7.3c0,0.8,0.4,0.9,1,0.7C36.5,68.9,36.2,62.6,35.9,56.3z M33.5,75.4c0.5,0,0.8-0.1,1.1-0.1
			c0.1,0,0.1-0.2,0.1-0.2c-0.7-2.9-0.3-5.7-0.6-8.5c-0.3-2.8,0.3-5.6-0.2-8.4c-0.2,0.1-0.3,0.2-0.3,0.4c0,3.3,0,6.7,0,10
			C33.6,70.7,34.2,72.9,33.5,75.4z M26.9,40.3c-0.1-1.9,0-3.7-0.3-5.5c-1.3,0.4-1.5,0.6-1.6,1.9C24.9,38.6,25.4,39.8,26.9,40.3z"/>
		<path fill="#F7AEA8" d="M46.6,45.5c1.5-0.5,3-1,4.4-1.5c2.8-0.9,4.8-2.8,6.5-5.1c1.6-2.3,1.7-4.8,0.8-7.4c-0.4-1.3-1.5-2-2.7-2.6
			c-2.5-1.4-5.1-1.8-7.9-1.7c-0.3,0-0.6,0-1,0c-0.1-0.5-0.2-1-0.3-1.4c-0.5-2-1-4-1.6-6c-0.6-1.8-1.9-3-4-3.2
			c-0.9-0.1-1.8-0.4-2.7-0.4c-3-0.2-5.6,1-7.8,2.8c-2.1,1.7-2.8,4.3-3.1,6.9c-0.1,1-0.3,2-0.3,3c0,0.8-0.5,1.1-1.1,1.5
			c-0.8,0.4-1.5,0.9-2.2,1.3c-1.8,1.1-3,2.6-3.5,4.6c-0.5,1.9-0.8,3.8,0,5.8c0.6,1.3,1.4,2.4,2.8,2.8c1.3,0.4,2.6,0.6,4.2,1
			c0.1,1.7,0.1,3.6,0,5.4c-0.8,0.7-1.5,1.6-2.5,2.1c-3.1,1.8-6.4,3.2-9.8,4.5c-0.9,0.3-1.7,0.8-2.8,1.2c0.4-15-0.3-29.7,0.6-44.5
			c0.5-0.1,0.8-0.3,1.1-0.3c2.4-0.1,4.8-0.3,7.3-0.4c1.7-0.1,3.4-0.2,5.1-0.2c1.4,0,2.8,0.1,4.2,0.2c0.2,0,0.3,0,0.5,0
			c3.3-0.1,6.7-0.1,10-0.2c0.3,0,0.5,0,0.8,0c3,0.1,6.1,0.3,9.1,0.3c2.6,0,5.3-0.1,7.9,0.4c0.4,0.1,0.9,0,1.4,0
			c0.1,13.6,0.2,27.2,0.2,41c-0.8-0.1-1.6-0.2-2.4-0.4c-2-0.7-4.1-1.5-6.1-2.3c-0.8-0.3-1.6-0.5-2.5-0.8c-0.6-0.2-1.2-0.4-1.7-0.6
			c-0.9-0.5-1.5-1.2-1.3-2.3C46.5,48,46.5,46.7,46.6,45.5z"/>
		<path fill="#F7AEA8" d="M46.7,29c0.5-0.1,1-0.2,1.6-0.2c2.1,0.1,4.2,0.5,6.1,1.5c1.8,0.9,2.8,2.3,2.7,4.3c0,1.4-0.4,2.6-1.2,3.8
			c-2,2.7-4.6,4.2-7.7,5c-0.4,0.1-0.9,0.1-1.5,0.2C46.7,38.6,46.7,33.9,46.7,29z"/>
		<path fill="#F7AEA8" d="M37.4,54.4c2.5-0.9,4.8-1.8,7.4-2.8c-0.1,3.7-0.6,7.2-1.3,10.8C42,61.7,38.2,56.7,37.4,54.4z"/>
		<path fill="#F7AEA8" d="M40.2,75c-1.6,0.2-1.8,0.1-1.9-1.1c-0.2-2.8-0.4-5.5-0.5-8.3c-0.1-2.3-0.2-4.5-0.3-7
			c0.9,0.9,1.6,1.4,1.7,2.7c0.1,2.2,0.4,4.3,0.5,6.5C39.9,70.1,40.1,72.5,40.2,75z"/>
		<path fill="#F7AEA8" d="M26.8,42.2c0.1,0.3,0.2,0.6,0.2,0.9c0,0.2-0.1,0.4-0.1,0.6c-3,0.4-4.8-0.9-5.4-3.6c-0.8-3.5,1.5-7.4,5-8.3
			c0.3,0.5,0.4,0.9-0.2,1.2c-0.2,0.1-0.4,0.3-0.7,0.3c-1.6,0.5-2.3,1.7-2.3,3.2c0,1.2,0.1,2.3,0.3,3.5c0.1,0.8,0.6,1.3,1.4,1.6
			C25.7,41.8,26.2,42,26.8,42.2z"/>
		<path fill="#F7AEA8" d="M34.3,54.8C32.7,57,31,58.7,29,60c-0.5-1.1-1-4.3-0.9-6.1C30.1,54.2,32.1,54.5,34.3,54.8z"/>
		<path fill="#F7AEA8" d="M31.9,60.2c0.1,0.2,0.2,0.3,0.2,0.5c0.1,4.2,0.1,8.4,0.2,12.6c0,0.5-0.1,1.1-0.2,1.6
			c-0.2,0.7-0.6,0.5-0.9,0.4c0-1.1,0-2,0-3c0-2.2,0.1-4.3,0.2-6.5c0-1.5,0-3,0.1-4.5c0-0.4,0.2-0.7,0.2-1.1
			C31.7,60.2,31.8,60.2,31.9,60.2z"/>
		<path fill="#F7AEA8" d="M35.9,56.3c0.3,6.3,0.7,12.6,1,18.9c-0.6,0.2-0.9,0.1-1-0.7c-0.1-2.4-0.2-4.8-0.2-7.3c0-3.4,0-6.9,0-10.3
			c0-0.2,0.1-0.5,0.1-0.7C35.8,56.3,35.8,56.3,35.9,56.3z"/>
		<path fill="#F7AEA8" d="M33.5,75.4c0.7-2.4,0.1-4.6,0.1-6.8c0-3.3,0-6.7,0-10c0-0.1,0.1-0.2,0.3-0.4c0.5,2.8-0.1,5.6,0.2,8.4
			c0.3,2.8-0.2,5.6,0.6,8.5c0,0,0,0.1-0.1,0.2C34.3,75.3,34,75.3,33.5,75.4z"/>
		<path fill="#F7AEA8" d="M26.9,40.3c-1.5-0.6-2-1.7-1.9-3.6c0.1-1.3,0.3-1.6,1.6-1.9C26.9,36.6,26.8,38.4,26.9,40.3z"/>
	</g>
</g>
</svg>
