<?xml version="1.0" encoding="utf-8"?>
<!-- Generator: Adobe Illustrator 24.2.1, SVG Export Plug-In . SVG Version: 6.00 Build 0)  -->
<svg version="1.1" id="Layer_1" xmlns="http://www.w3.org/2000/svg" xmlns:xlink="http://www.w3.org/1999/xlink" x="0px" y="0px"
	 width="81.6px" height="55.9px" viewBox="0 0 81.6 55.9" enable-background="new 0 0 81.6 55.9" xml:space="preserve">
<g>
	<path fill="#F7AEA8" d="M81.4,11.4c-1.1-5-4.4-8.5-9.6-10.2C71.1,1,70.1,0.7,69,0.7c-1.2,0-2.4,0.4-3.4,1.1c0,0-0.1,0.1-0.2,0.1
		c-0.1,0-0.3-0.1-0.4-0.2C63.6,0.6,62,0,60.5,0c-0.8,0-1.6,0.2-2.4,0.5c-1.1,0.4-2.1,1-3.3,1.8c0,0-0.1-0.1-0.1-0.1
		c-0.2-0.2-0.3-0.3-0.5-0.5c-0.8-0.7-1.7-1-2.7-1c-0.3,0-0.6,0-0.9,0.1c-2.3,0.4-4.6,1.1-7,2c-2.4,0.9-4.2,2.6-5.6,3.9
		c-0.5,0.5-0.9,1.2-1.1,1.9c-0.2,0.1-0.4,0.1-0.5,0.2c-0.1,0-0.3,0.1-0.4,0.1c-0.2,0-0.5,0-0.7,0c-4.6,0-8.1,2.3-10.6,4.2
		c-0.5,0.4-1.1,1-1.3,1.9c-0.1,0.4-0.1,0.6-1.7,0.8l-0.2,0c-1,0.1-2.1,0.3-3.2,0.8c-1.8,1-3.5,2-5.1,3.1c-1,0.7-2.9,2.1-3.1,4.4
		c0,0.3-0.1,0.5-0.7,1c-0.7,0.6-1.2,1.2-1.7,1.8C7.4,27.6,7,27.9,6.6,28c-1.4,0.4-2.4,1.4-3,2.7C1.8,35,0.7,38.9,0.1,42.8
		c-0.7,4.7,1.8,9.3,6.2,11.4c2.6,1.2,5.3,1.7,9,1.7c0.3,0,0.6,0,0.8,0l0.2,0c4.8,0,9.5-0.9,13.7-2.5c1.8-0.7,3.6-1.4,5.5-2
		c6.1-1.9,11.4-4.5,16.2-7.9c1.6-1.1,3.3-2.1,5-3c4.1-2.1,8.1-5,12.2-8.8c2-1.8,3.9-3.8,5.7-5.7l0.9-0.9c2.6-2.7,4.4-5.5,5.4-8.6
		C81.6,14.7,81.8,13,81.4,11.4z"/>
	<g>
		<path d="M16.2,53.9c-3.6,0.1-6.4-0.3-9-1.5c-3.5-1.6-5.6-5.4-5.1-9.2c0.6-4,1.8-7.9,3.4-11.6c0.3-0.8,0.9-1.3,1.7-1.6
			c0.9-0.3,1.6-0.9,2.2-1.6c0.4-0.5,0.9-1,1.3-1.4c0.8-0.6,1.3-1.3,1.4-2.4c0.1-1.3,1.3-2.3,2.3-3c1.5-1.1,3.1-2.1,4.8-3
			c0.8-0.4,1.7-0.5,2.6-0.6c1.6-0.2,3-0.5,3.4-2.4c0.1-0.3,0.3-0.6,0.6-0.8c2.9-2.3,6.1-4,10-3.8c0.6,0,1.2-0.4,1.8-0.5
			c0.7-0.2,0.9-0.6,1.1-1.3c0.1-0.3,0.3-0.7,0.6-1c1.5-1.4,3-2.8,5-3.5c2.2-0.8,4.4-1.5,6.7-1.9c0.8-0.1,1.4,0,2,0.5
			c0.3,0.2,0.5,0.5,0.8,0.8c0.9,0.8,1.1,0.7,2.1,0c1-0.7,2-1.3,3.1-1.7c1.8-0.7,3.5-0.2,4.9,0.9c1.1,0.9,2.2,0.7,3,0.2
			c1.5-1,3.1-0.7,4.5-0.3c4.3,1.4,7.3,4.1,8.3,8.7c0.3,1.4,0.1,2.7-0.3,4c-1,3-2.8,5.6-5,7.9c-2.1,2.2-4.2,4.5-6.5,6.5
			c-3.6,3.3-7.4,6.2-11.8,8.5c-1.8,0.9-3.6,2-5.3,3.2c-4.8,3.4-10.1,5.8-15.7,7.6c-1.9,0.6-3.8,1.3-5.6,2
			C24.9,53.3,20.3,53.9,16.2,53.9z M71,13.7c0.1,0.7,0.2,1.3,0.4,2.3C72.2,14.1,72.2,14.1,71,13.7c0.2-0.7,0.5-1.4,0.8-2.2
			c-0.2-0.4-0.6-0.4-1-0.1c-0.2,0.2-0.4,0.6-0.4,0.9C70.5,12.7,70.8,13.2,71,13.7z M27.2,15.9c0.5,1.2,1.5,1.7,2.5,2.3
			c4.6,2.7,8.8,10.4,7.3,16.3c-0.4,1.4-0.9,2.7-1.9,3.7c-1,0.9-1.8,0.7-2.4-0.5c-0.2-0.4-0.4-0.9-0.5-1.4c-0.9-3-1.7-6-2.6-9
			c-0.7-2.2-1.6-4.4-3.5-5.9c-2-1.8-4.8-2.1-7.1-0.8c-1.1,0.6-2.2,1.3-3.3,2c-2,1.5-2.6,2,0,3.6c1.5,0.9,2.8,2.1,3.6,3.6
			c0.4,0.8,0.7,1.7,1,2.5c0.6,1.6,1.2,3.3,1.5,4.9c0.3,1.1,0.2,2.4,0.2,3.5c-0.1,1.6-1,2.1-2.4,1.3c-0.6-0.4-1.3-0.9-1.7-1.4
			c-1.7-2.3-3.4-4.6-5.1-6.9c-0.6-0.9-1.3-1.7-2.4-2.1c-1.7-0.7-3.4,0-4.2,1.6c-0.3,0.8-0.7,1.6-0.9,2.4c-0.9,2.6-1.8,5.2-1.8,8
			C3.4,45.8,4,47.5,5.7,49c1.8,1.6,3.9,2.5,6.2,2.9c3.6,0.6,7.2,0.2,10.8-0.3c3.9-0.6,7.6-2,11.3-3.3c5.5-1.9,10.8-4.1,15.6-7.4
			c1.7-1.2,3.6-2.2,5.4-3.3c3.9-2.2,7.6-4.8,10.8-7.9c2.3-2.2,4.5-4.3,6.7-6.6c2-2.1,3.8-4.4,4.8-7.2c0.5-1.4,0.6-2.8,0.3-4.3
			c-0.6-2.9-4.1-6.5-8-7c-0.2,0-0.5,0.1-0.8,0.1c0.3,0.4,0.4,0.6,0.6,0.8c1.1,1.3,2.2,2.5,3.2,3.9c0.6,1,1.2,2.1,1.3,3.2
			c0,1.8-0.5,3.5-1.4,5.1c-0.6,0.9-1.4,1.5-2.6,1.4c0-0.4-0.1-0.7-0.1-1c-0.2-4.6-1.7-8.7-5.1-11.9c-0.8-0.8-1.9-1.4-2.9-2
			c-1.3-0.8-2.5-0.4-3.8,0.4c0.4,0.5,0.8,0.9,1.2,1.3c0.9,1.1,2,2,2.7,3.2c2,3,2.9,6.3,2.7,9.8c-0.1,2.5-1,4.8-3.7,6
			c-1.9,0.8-2.7,0.3-2.7-1.7c0-1.3-0.1-2.6-0.1-3.9c0-4.3-1.5-8.2-3.3-11.9c-1.1-2.3-3.1-3-5.5-2.7c-2.2,0.3-4,1.2-5.9,2.1
			c-1,0.5-2,1.2-2.5,2.3c0.2,0.1,0.3,0.2,0.3,0.3c0.5,0.2,1,0.4,1.5,0.6c2.9,1.2,5.4,3.1,6.7,6c1,2,1.9,4.1,2.5,6.3
			c0.9,3.1-0.6,5.7-2.2,8.2c-0.1,0.2-0.3,0.3-0.5,0.4c-1,0.7-2.2,0.2-2.6-0.9c-1.2-3.6-2.3-7.3-3.5-10.9c-0.7-2.3-2.1-4-4.4-5.1
			c-2.4-1.2-4.8-1.7-7.5-0.6C29.8,14,28.3,14.7,27.2,15.9z M50.5,23.4c-0.7-0.3-1.3-0.3-1.5-0.6c-0.4-0.7,0.5-0.8,0.9-1.3
			c-0.8-0.1-1.4-0.1-2.1-0.2c0-1.3,1.2-0.9,1.6-1.8c-0.2-0.3-0.4-0.8-0.5-1.1c-0.8-0.2-1.6,0.5-2.3-0.2c-0.2-1,0.9-0.9,1.3-1.4
			c-0.4-0.7-0.4-0.6-1.3-0.6c-0.3,0-0.7-0.1-1-0.3c-0.1-0.1,0.1-0.6,0.2-0.9c0.1-0.2,0.2-0.3,0.3-0.5c-0.4-0.9-1-0.8-1.8-0.6
			c-0.3,0.1-0.8,0.1-1-0.1c-0.2-0.2,0-0.7,0-1c0-0.2,0.1-0.3,0.1-0.6c-0.7,0-1.3-0.1-1.8-0.1c-0.8-1.5-1.4-1.6-3.1-0.2
			c0.7,0.4,1.4,0.9,2.1,1.2c1.3,0.7,2.4,1.6,3,3c1.8,4,3.2,8.1,4.3,12.3c0.1,0.2,0.2,0.5,0.3,0.7C50,28.5,50.9,25.9,50.5,23.4z
			 M20.6,40.3c0.2-3.1-0.9-5.7-1.9-8.3c-0.4,0.2-0.7,0.5-1,0.5c-0.3,0.1-0.8,0-0.8-0.1c-0.1-0.3-0.1-0.7,0-1c0.2-0.3,0.6-0.6,1-0.9
			c-0.3-0.3-0.5-0.6-0.7-0.9c-0.4,0.3-0.7,0.5-1,0.7c-0.3,0.2-0.7,0.3-1,0.4c-0.8-1.1,0.3-1.5,0.8-2.4c-0.8,0.4-1.3,0.7-1.8,0.9
			c-0.2,0.1-0.5-0.1-0.7-0.2c-0.1-0.1-0.1-0.4,0-0.6c0.2-0.4,0.5-0.7,0.8-1.1c-0.3-0.1-0.5-0.3-0.6-0.3c-1.1,0.6-2,1.4-2.8,2.5
			c2,0.7,3,2.2,4,3.8c1.1,1.6,2.2,3.2,3.4,4.7C18.8,38.8,19.3,39.8,20.6,40.3z M34.1,36.6c0.2,0,0.3,0.1,0.5,0.1
			c0.3-0.5,0.7-1.1,0.8-1.6c0.2-0.7,0.4-1.5,0.4-2.2c0.1-1.5,0.3-3.1-1.7-3.7c0.2-0.5,0.4-0.8,0.5-1.1c0.3-0.8,0.1-1.1-0.8-1.2
			c-0.4,0-1,0-1.1-0.3c-0.4-0.5,0.2-0.9,0.5-1.2c0.1-0.1,0.2-0.2,0.3-0.3c-0.5-1.3-0.5-1.3-1.7-1.1c-0.6,0.1-1.3,0.4-1.6-0.6
			c0.4-0.3,0.8-0.7,1.3-1.1c-0.3-0.3-0.5-0.6-0.8-0.9c-0.6,0.4-1.1,0.7-1.5,0.9C31,27.1,32.6,31.8,34.1,36.6z M61.9,13.4
			c-0.5,0.1-1,0.2-1.5,0.2c-0.2,0-0.5-0.2-0.5-0.3c-0.1-0.2,0-0.6,0.1-0.7c0.3-0.3,0.8-0.5,1.1-0.8c-0.1-0.7-0.3-1-1.1-0.8
			c-0.3,0.1-0.8-0.2-1-0.5c-0.1-0.1,0.2-0.6,0.4-0.9c0.1-0.1,0.1-0.3,0.2-0.4c-0.6-1.1-1.4-0.3-2.2-0.5c0.3,1,0.5,1.9,0.8,2.7
			c1.3,3.4,1.7,6.9,1.5,10.5c0,0.5,0.1,1,0.2,1.5c2.6-0.7,3.8-3.8,2.7-6.6c-0.5-0.1-1-0.1-1.5-0.2C60.7,15.2,63.1,14.9,61.9,13.4z
			 M27.2,18.8c-1.1-1-1.1-1-2.1-0.1C25.8,18.8,26.3,19.9,27.2,18.8z M57,8.1c0.7-1.3,0.7-1.4-1-2.1C56.4,6.7,56.6,7.3,57,8.1z
			 M27.8,20.4c0.8,0.9,0.9,0.9,1.5-0.3C28.6,19.6,28.2,20,27.8,20.4z M69.3,9.4c0.3,0.2,0.5,0.4,0.7,0.5c0.1,0,0.4-0.3,0.3-0.4
			C70.2,9.2,70,9.1,69.8,9C69.7,8.9,69.5,9.2,69.3,9.4z M67.7,6.4c-0.1,0.1-0.2,0.2-0.2,0.2c0.3,0.3,0.5,0.6,1,1.2
			C68.6,6.8,68.1,6.7,67.7,6.4z"/>
		<path fill="#F7AEA8" d="M27.2,15.9c1.2-1.2,2.6-1.9,4.1-2.5c2.6-1.1,5-0.6,7.5,0.6c2.3,1.1,3.6,2.8,4.4,5.1
			c1.2,3.6,2.3,7.3,3.5,10.9c0.3,1.1,1.5,1.5,2.6,0.9c0.2-0.1,0.4-0.3,0.5-0.4c1.6-2.5,3.1-5.1,2.2-8.2c-0.6-2.2-1.5-4.3-2.5-6.3
			c-1.4-2.9-3.8-4.7-6.7-6c-0.5-0.2-1-0.4-1.5-0.6c-0.1,0-0.2-0.1-0.3-0.3c0.5-1.1,1.5-1.8,2.5-2.3c1.9-1,3.8-1.8,5.9-2.1
			c2.4-0.3,4.4,0.4,5.5,2.7c1.8,3.7,3.3,7.6,3.3,11.9c0,1.3,0,2.6,0.1,3.9c0,2,0.8,2.4,2.7,1.7c2.7-1.1,3.6-3.5,3.7-6
			c0.2-3.5-0.7-6.9-2.7-9.8C61,7.9,59.9,7,59,5.9c-0.4-0.4-0.7-0.8-1.2-1.3c1.3-0.8,2.5-1.1,3.8-0.4c1,0.6,2,1.2,2.9,2
			c3.4,3.2,4.9,7.3,5.1,11.9c0,0.3,0.1,0.6,0.1,1c1.2,0.1,2-0.4,2.6-1.4c0.9-1.6,1.5-3.3,1.4-5.1c0-1.1-0.6-2.3-1.3-3.2
			c-0.9-1.4-2.1-2.6-3.2-3.9c-0.2-0.2-0.3-0.4-0.6-0.8c0.4-0.1,0.6-0.2,0.8-0.1c3.8,0.5,7.4,4.1,8,7c0.3,1.5,0.2,2.9-0.3,4.3
			c-1,2.8-2.8,5.1-4.8,7.2c-2.1,2.3-4.4,4.5-6.7,6.6c-3.3,3.1-6.9,5.6-10.8,7.9c-1.8,1-3.7,2.1-5.4,3.3c-4.8,3.3-10.1,5.5-15.6,7.4
			c-3.7,1.3-7.4,2.8-11.3,3.3c-3.6,0.5-7.2,0.9-10.8,0.3c-2.3-0.4-4.4-1.3-6.2-2.9c-1.6-1.5-2.2-3.2-2.2-5.3c0.1-2.8,1-5.4,1.8-8
			c0.3-0.8,0.6-1.6,0.9-2.4c0.7-1.7,2.5-2.4,4.2-1.6c1,0.4,1.7,1.2,2.4,2.1c1.7,2.3,3.3,4.6,5.1,6.9c0.4,0.6,1.1,1.1,1.7,1.4
			c1.4,0.8,2.3,0.3,2.4-1.3c0.1-1.2,0.1-2.4-0.2-3.5c-0.4-1.7-1-3.3-1.5-4.9c-0.3-0.9-0.6-1.8-1-2.5c-0.9-1.5-2.1-2.7-3.6-3.6
			c-2.6-1.6-2.1-2.1,0-3.6c1-0.8,2.2-1.4,3.3-2c2.3-1.3,5.1-0.9,7.1,0.8c1.8,1.6,2.8,3.7,3.5,5.9c0.9,3,1.7,6,2.6,9
			c0.1,0.5,0.3,0.9,0.5,1.4c0.6,1.2,1.5,1.4,2.4,0.5c1.1-1,1.6-2.3,1.9-3.7c1.5-5.9-2.7-13.6-7.3-16.3
			C28.7,17.7,27.7,17.1,27.2,15.9z"/>
		<path fill="#F7AEA8" d="M50.5,23.4c0.5,2.5-0.4,5.1-2.2,6c-0.1-0.2-0.3-0.5-0.3-0.7c-1-4.2-2.4-8.4-4.3-12.3c-0.6-1.4-1.7-2.4-3-3
			c-0.7-0.4-1.4-0.8-2.1-1.2c1.7-1.4,2.2-1.4,3.1,0.2c0.5,0,1.1,0.1,1.8,0.1c-0.1,0.2-0.1,0.4-0.1,0.6c0,0.3-0.2,0.8,0,1
			c0.2,0.2,0.7,0.2,1,0.1c0.7-0.3,1.4-0.4,1.8,0.6c-0.1,0.1-0.2,0.3-0.3,0.5c-0.1,0.3-0.3,0.7-0.2,0.9c0.2,0.2,0.6,0.3,1,0.3
			c0.9-0.1,0.9-0.1,1.3,0.6c-0.3,0.5-1.5,0.4-1.3,1.4c0.6,0.7,1.4,0,2.3,0.2c0.2,0.3,0.4,0.8,0.5,1.1c-0.4,0.8-1.6,0.5-1.6,1.8
			c0.6,0.1,1.3,0.1,2.1,0.2c-0.4,0.5-1.3,0.6-0.9,1.3C49.2,23.1,49.8,23.1,50.5,23.4z"/>
		<path fill="#F7AEA8" d="M20.6,40.3c-1.3-0.5-1.8-1.5-2.4-2.3c-1.2-1.5-2.3-3.1-3.4-4.7c-1-1.5-2.1-3-4-3.8
			c0.8-1.1,1.7-1.9,2.8-2.5c0.1-0.1,0.3,0.1,0.6,0.3c-0.3,0.4-0.6,0.7-0.8,1.1c-0.1,0.2-0.1,0.5,0,0.6c0.2,0.2,0.5,0.3,0.7,0.2
			c0.5-0.2,1-0.5,1.8-0.9c-0.5,0.9-1.6,1.3-0.8,2.4c0.3-0.1,0.7-0.3,1-0.4c0.3-0.2,0.6-0.4,1-0.7c0.2,0.3,0.5,0.5,0.7,0.9
			c-0.4,0.3-0.8,0.6-1,0.9c-0.2,0.3-0.2,0.7,0,1c0.1,0.1,0.6,0.2,0.8,0.1c0.3-0.1,0.6-0.3,1-0.5C19.7,34.6,20.8,37.2,20.6,40.3z"/>
		<path fill="#F7AEA8" d="M34.1,36.6c-1.5-4.7-3.1-9.5-4.7-14.3c0.4-0.2,0.8-0.5,1.5-0.9c0.2,0.3,0.5,0.6,0.8,0.9
			c-0.5,0.4-0.9,0.7-1.3,1.1c0.3,1,0.9,0.7,1.6,0.6c1.1-0.2,1.1-0.2,1.7,1.1c-0.1,0.1-0.2,0.2-0.3,0.3c-0.4,0.3-0.9,0.7-0.5,1.2
			c0.2,0.2,0.7,0.3,1.1,0.3c0.9,0,1.1,0.4,0.8,1.2c-0.1,0.3-0.3,0.7-0.5,1.1c2,0.6,1.8,2.2,1.7,3.7c0,0.7-0.2,1.5-0.4,2.2
			c-0.2,0.6-0.6,1.1-0.8,1.6C34.5,36.6,34.3,36.6,34.1,36.6z"/>
		<path fill="#F7AEA8" d="M61.9,13.4c1.2,1.5-1.2,1.8-0.7,3.1c0.4,0.1,1,0.1,1.5,0.2c1.1,2.8-0.1,6-2.7,6.6c-0.1-0.5-0.2-1-0.2-1.5
			c0.2-3.6-0.3-7.1-1.5-10.5c-0.3-0.8-0.5-1.6-0.8-2.7c0.8,0.2,1.6-0.6,2.2,0.5c-0.1,0.1-0.1,0.2-0.2,0.4c-0.1,0.3-0.5,0.8-0.4,0.9
			c0.2,0.3,0.7,0.6,1,0.5c0.8-0.2,1,0.1,1.1,0.8c-0.4,0.3-0.8,0.5-1.1,0.8c-0.1,0.1-0.2,0.5-0.1,0.7c0,0.1,0.3,0.3,0.5,0.3
			C60.9,13.6,61.4,13.5,61.9,13.4z"/>
		<path fill="#F7AEA8" d="M27.2,18.8c-0.9,1.1-1.4,0.1-2.1-0.1C26.1,17.7,26.1,17.7,27.2,18.8z"/>
		<path fill="#F7AEA8" d="M71,13.7c-0.2-0.5-0.5-0.9-0.6-1.4c-0.1-0.3,0.1-0.7,0.4-0.9c0.4-0.3,0.8-0.3,1,0.1
			C71.4,12.3,71.2,13,71,13.7L71,13.7z"/>
		<path fill="#F7AEA8" d="M57,8.1c-0.4-0.8-0.6-1.3-1-2.1C57.7,6.6,57.7,6.8,57,8.1z"/>
		<path fill="#F7AEA8" d="M70.9,13.7c1.2,0.4,1.2,0.4,0.5,2.3C71.2,15,71.1,14.3,70.9,13.7C71,13.7,70.9,13.7,70.9,13.7z"/>
		<path fill="#F7AEA8" d="M27.8,20.4c0.5-0.3,0.9-0.8,1.5-0.3C28.7,21.3,28.6,21.3,27.8,20.4z"/>
		<path fill="#F7AEA8" d="M69.3,9.4c0.2-0.2,0.4-0.4,0.5-0.4c0.2,0.1,0.4,0.3,0.5,0.5c0,0-0.3,0.4-0.3,0.4
			C69.8,9.8,69.6,9.6,69.3,9.4z"/>
		<path fill="#F7AEA8" d="M67.7,6.4c0.4,0.2,0.9,0.4,0.8,1.4c-0.5-0.5-0.7-0.8-1-1.2C67.6,6.6,67.6,6.5,67.7,6.4z"/>
	</g>
</g>
</svg>
