<?xml version="1.0" encoding="utf-8"?>
<!-- Generator: Adobe Illustrator 24.2.1, SVG Export Plug-In . SVG Version: 6.00 Build 0)  -->
<svg version="1.1" id="Layer_1" xmlns="http://www.w3.org/2000/svg" xmlns:xlink="http://www.w3.org/1999/xlink" x="0px" y="0px"
	 width="101.1px" height="79.5px" viewBox="0 0 101.1 79.5" enable-background="new 0 0 101.1 79.5" xml:space="preserve">
<g>
	<path fill="#F7AEA8" d="M101.1,52.8c-0.2-6.4-0.5-12.2-0.8-17.8c-0.2-2.8-0.5-5.7-0.9-8.9c-0.5-3.8-2.1-4.5-5.2-4.6
		c-1,0-1.9-0.1-2.9-0.1c-1.3-2.3-2.7-2.8-5.6-2.9c-1.4,0-2.8-0.1-4.2-0.2c-0.8-0.1-1.6-0.1-2.4-0.2c-0.7,0-1.4-0.1-2.1-0.1
		c-1.6-0.1-3.2-0.2-4.8-0.2c-0.3,0-0.5,0-0.8,0c-1.1,0-2.2,0.1-3.3,0.1C66.2,18,64.4,18,62.7,18c-1.1,0-2,0-3-0.1
		c-0.7,0-1.4-0.1-2.3-0.1c-0.5,0-0.9,0-1.4,0c-0.1-0.6-0.3-1.2-0.7-1.7c-0.9-1-2.1-1.2-3.1-1.2c-0.2,0-0.3,0-0.5,0
		c-0.5,0-1,0-1.4,0.1c-0.3,0-0.7,0.1-1,0.1l-0.1,0c-0.2,0-0.5,0-0.7,0c-1.6,0-2.3-0.2-2.8-0.9c-0.6-0.8-1.2-1.5-1.5-2.3l-0.1-0.2
		c-0.2-0.3-0.3-0.6-0.4-0.9l2.8,0.2c0.2,0,0.5,0,0.7,0.1l4.5,0.5c3.5,0.4,7,0.8,10.6,1.2c0.6,0.1,1.3,0.1,2,0.1c0.2,0,0.3,0,0.5,0
		c1,0,2.3-0.2,3.1-1.2c1-1.2,0.8-2.7,0.7-3.3c-0.1-0.7-0.3-1.4-0.4-2l-0.1-0.5c-0.5-2.1-2-3.4-4.1-3.7C63.6,2.1,63.2,2,62.8,2
		c-1.4-0.2-2.8-0.3-4.1-0.6c-3.7-0.8-7.5-1.1-12.2-1.1c-1.3,0-2.6,0-4.1,0.1c-0.1,0-0.1,0-0.2,0c-0.7,0-1.4-0.1-2-0.2
		C39.7,0,39.3,0,38.9,0c-1.9,0-3.3,0.9-4.3,2.8c0,0,0,0.1,0,0.1c-1.7,1.2-1.5,3.1-1.4,4.1l0,0.1c0,0.5,0,1.1,0,1.7
		c-0.2,2.8,0.4,5.4,2,7.9c-1.3-0.3-2.6-0.5-4.1-0.5c-1.5,0-3,0.2-4.3,0.3c-1.9,0.2-3.4,1.3-4.1,2.9c-1,0.1-2,0.2-2.9,0.3
		c-0.9,0.1-1.8,0.2-2.6,0.3c-2.6,0.3-3.7,1.3-4.2,3.9l-0.1,0.6c-0.2,1-0.3,2-0.4,3.1c0,1.5,0.1,3,0.3,4.5c0.2,1.4,1.4,2.3,2.3,2.8
		c0.9,0.4,1.9,0.6,2.9,0.6c0.8,0,1.7-0.1,2.5-0.1c0.6,0,1.2-0.1,1.9-0.1c0.7,0,1.4,0,2.1,0c0.5,0,1.9,0,2.1,0
		c0.4,0.7,0.9,1.3,1.4,1.8c-0.3,0-0.6,0-0.8,0.1c-4.1,0.3-5.8,2.7-6.5,4.7c-0.1,0.2-0.2,0.5-0.3,0.8c-0.8,0.1-1.7,0.2-2.5,0.4
		c-0.5,0.1-1,0.1-1.5,0.1c-1,0-2.2-0.2-3.4-0.5c-0.7-0.2-1.4-0.3-2.1-0.3c-0.9,0-1.7,0.2-2.6,0.5c-4.6,1.7-6.6,5.7-7.9,9
		c-0.2,0.5-0.2,0.8-0.2,1.1c-0.3,4.7,1.5,8.5,5.2,11.1c0.5,0.4,0.6,0.6,0.6,1c0,0.2,0,0.5,0,0.7C6,66.1,6,66.6,6,67
		c0,3.7,1.8,5.4,5.4,5.5c0.4,0,0.8,0,1.3,0c1,0,1.9,0,2.9,0c0.6,0,1.2,0,1.7,0c0,0.1,0,0.1,0,0.2c0,0.3,0,0.6,0.1,0.9
		c0,0.6,0.1,1.3,0.2,1.9c0.1,0.9,0.5,3.8,4,3.8c0.2,0,0.3,0,0.5,0c0.3,0,0.7,0,1-0.1c0.6,0,1.1-0.1,1.7-0.1l0.1,0
		c2.5,0,5,0.1,7.2,0.2c1,0,1.9,0.1,2.9,0.1c1.7,0.1,3.5,0.2,5.3,0.2l0.3,0c2.8,0,5.6-0.2,8.3-0.3l1.1-0.1c0.8,0,1.6-0.3,2.5-0.8
		c2.1-1.1,3.1-2.8,3-4.9c0-0.5,0-1.1,0.1-1.8c0-0.2,0-0.4,0.1-0.6c1.2-0.4,2.5-0.8,3.7-1.5c0.7-0.4,1.4-0.6,2.6-0.6
		c0.2,0,0.3,0,0.5,0c0.7,0,1.3,0,2,0c2.3,0,4.2-0.2,5.9-0.7c0.7-0.2,1.5-0.2,2.4-0.3l0.2,0c6.4-0.3,12.7-0.5,18.1-0.7
		c0.1,0,0.3,0,0.4,0.1c0.6,0.2,1.1,0.4,1.6,0.4c0,0,0,0,0,0c1.5,0,2.2-1.1,2.8-1.8c0.4-0.5,0.7-1,1.1-1.5c0.8-1.1,1.5-2.2,2.3-3.3
		l0.1-0.1c0.6-0.9,1.2-1.9,1.5-3.2C101,56,101.1,54.4,101.1,52.8z"/>
	<g>
		<path d="M27.8,33.1c-1.9,0-3.7,0-5.5,0c-1.4,0-2.9,0.2-4.3,0.2c-0.7,0-1.4-0.1-2-0.4c-0.5-0.2-1-0.7-1.1-1.2
			c-0.2-1.3-0.3-2.7-0.3-4.1c0-1.1,0.3-2.3,0.4-3.4c0.3-1.6,0.7-1.9,2.3-2.1c1.9-0.2,3.9-0.5,5.8-0.7c0.7-0.1,1.2-0.4,1.4-1
			c0.4-1.1,1.3-1.7,2.5-1.9c3.1-0.4,6.3-0.6,9.3,0.7c1.1,0.5,2.4,0.5,3.8,0.4c-0.7-0.9-1.3-1.9-2.1-2.8c-2-2.3-3-4.9-2.7-7.9
			c0.1-0.7,0.1-1.4,0-2.1c-0.1-1-0.2-2,0.9-2.5c0.2-0.1,0.2-0.4,0.3-0.6c0.7-1.4,1.6-1.8,3.2-1.5c0.9,0.2,1.8,0.3,2.7,0.2
			c5.3-0.2,10.6-0.1,15.8,1c1.8,0.4,3.6,0.6,5.5,0.8c1.2,0.2,2,0.8,2.3,2c0.2,0.8,0.4,1.6,0.5,2.4c0.2,1.5-0.2,2-1.7,2
			c-0.7,0-1.5,0-2.2-0.1c-5-0.6-10.1-1.1-15.1-1.7c-0.3,0-0.7-0.1-1-0.1c-1.5-0.1-3-0.2-4.7-0.4c-0.8,1.4-0.1,2.9,0.6,4.3
			c0.4,1,1.1,1.9,1.8,2.7c1.4,1.8,3.4,1.7,5.3,1.7c0.9,0,1.8-0.2,2.7-0.1c1.6,0.1,2,0.6,1.8,2.2c0,0.2,0,0.4,0,0.8
			c2,0,3.8-0.1,5.7,0c3.9,0.2,7.8-0.1,11.7-0.2c2.5-0.1,5.1,0.2,7.6,0.4c2.2,0.1,4.5,0.3,6.7,0.4c2.7,0.1,3.2,0.3,4.2,2.8
			c1.4,0,2.8,0.1,4.2,0.1c2.4,0.1,2.8,0.3,3.1,2.7c0.4,2.9,0.7,5.8,0.9,8.7c0.4,5.9,0.6,11.8,0.8,17.7c0.1,1.5-0.1,3-0.4,4.5
			c-0.2,0.9-0.8,1.8-1.3,2.6c-1.1,1.6-2.2,3.2-3.3,4.8c-0.7,1-0.7,1-1.9,0.6c-0.4-0.1-0.8-0.2-1.2-0.2c-6,0.2-12.1,0.4-18.1,0.7
			c-1,0-2.1,0.1-3.1,0.4c-2.4,0.7-4.8,0.7-7.2,0.6c-1.5-0.1-2.9,0.1-4.3,0.9c-1.1,0.7-2.3,1.1-3.5,1.4c-0.8,0.2-1.1,0.7-1.2,1.5
			c-0.1,1-0.3,2.1-0.2,3.1c0.1,1.5-0.7,2.2-1.8,2.8C51,76.7,50.4,77,49.9,77c-3.1,0.2-6.2,0.4-9.3,0.4c-2.8,0-5.6-0.2-8.4-0.3
			c-2.4-0.1-4.8-0.2-7.2-0.2c-1,0-2,0.1-2.9,0.2c-1.6,0.1-2-0.3-2.2-1.9c-0.1-0.9-0.1-1.8-0.2-2.7c-0.1-0.7-0.1-1.3-0.2-2.2
			c-0.7,0-1.2,0-1.8,0c-2,0-4,0.1-6,0.1c-2.5-0.1-3.3-0.9-3.3-3.4c0-0.7-0.1-1.4-0.1-2.1c-0.1-1.2-0.5-2-1.5-2.7
			C3.3,60,1.9,56.8,2.2,53c0-0.2,0-0.4,0.1-0.5c1.3-3.4,3-6.4,6.6-7.7c1.1-0.4,2.2-0.5,3.3-0.1c1.9,0.6,3.9,0.8,5.9,0.5
			c1.2-0.2,2.4-0.3,3.6-0.5c0.3-0.7,0.6-1.4,0.9-2.1c0.8-2.2,2.4-3.1,4.6-3.3c2.7-0.2,5.4-0.3,8.1-0.5c0.3,0,0.5,0,0.8-0.2
			C32.8,37.7,29.5,36.7,27.8,33.1z M88.3,43.2c0-1.6,0-2.8,0-4.1c-0.2-4.9-0.4-9.9-0.7-14.8c-0.1-1.5-0.2-1.7-1.8-1.9
			c-1.5-0.2-3-0.2-4.5-0.3c-3.1-0.2-6.3-0.5-9.4-0.6c-1.4-0.1-2.7,0.2-4.2,0.3c-0.8,2.8-1.3,5.7-1.8,8.5c-0.6,3.3-1.2,6.7-1.8,10
			c-0.2,1.4-1.1,2.1-2.4,2.3c-1.5,0.2-3.1,0.3-4.6,0.4c-1.5,0.1-3,0-4.8,0.8c4,0.2,7.6,0.6,11.2,0.6c2.9,0,5.7-0.4,8.6-0.5
			c4.8-0.2,9.5-0.3,14.3-0.5C87,43.5,87.7,43.3,88.3,43.2z M45.6,58.5c1.1-0.4,2.5-0.8,3.8-1.3c1.6-0.6,3.2-1.4,4.7-2.1
			c1.3-0.6,2.5-1.4,3.8-2c1.6-0.8,2.3-0.5,3.2,1.1c0.3,0.6,0.7,1.2,1,1.7c0.8-0.1,1.5-0.3,2.1-0.4c7.2-0.6,14.4-0.6,21.6-0.2
			c1.1,0.1,2.2,0,3.3-0.1c0.4,0,1-0.4,1-0.7c0.4-1.8,0.7-3.6,1.1-5.7c-1,0-1.8,0-2.5,0c-3,0.1-6,0.3-8.9,0.4
			c-4.6,0.1-9.3,0.2-13.9,0.3c-2.8,0.1-5.5,0.3-8.3,0.1c-2.1-0.1-4.2-0.1-6.3,0.2c-1.4,0.2-2.9,0.2-4.3,0.4
			c-1.2,0.1-2.4,0.2-3.6,0.4c0,1.2,0,2.2,0,3.3C43.4,55.6,43.3,57.4,45.6,58.5z M22.4,46.4c0,0.2,0,0.3,0.1,0.4
			c1.3,1.6,2.6,3.2,3,5.4c0,0.3,0.4,0.6,0.7,0.7c1.4,0.2,2.7,0.3,4.1,0.3c0.9,0,1.7-0.1,2.6-0.2c2.8-0.1,5.7-0.2,8.6-0.2
			c0.1-1,0-1.8,0.2-2.6c0.2-0.8,0.6-1.6,0.7-2.5c0.4-2,1.2-3.4,3.5-3.3c0.1,0,0.3-0.1,0.7-0.3c-0.7-0.3-1.2-0.5-1.7-0.6
			c-1.6-0.6-3.1-1.3-3.9-3.1c-0.2-0.4-0.9-0.6-1.5-1c-0.5,1.2-1.3,1.4-2.2,1.3c-0.8-0.1-1.6-0.1-2.4-0.1c-2.6,0.1-5.1,0.3-7.7,0.5
			c-1.5,0.1-2.4,1.1-2.7,2.5C24.1,44.8,23.6,45.8,22.4,46.4z M51.8,70.3c-0.5-0.1-0.7-0.2-0.9-0.1c-2.5,0.5-5.1,1-7.6,1.7
			c-2.5,0.7-4.8,0.3-7.1-0.5c-0.8-0.3-1.4-0.8-1.7-1.6c-0.5-1.5-1-2.9-1.4-4.4c-0.5-1.9,0-3.8,1-5.5c0.7-1.2,1.3-1.4,2.7-0.9
			c1.7,0.6,3.4,0.5,5.1,0.3c-0.2-1.6-0.4-3.1-0.6-4.8c-3.9,0.6-7.7,0-11.3,0.5c0.3,3.6,0.6,6.9,0.7,10.2c0.1,3.3,0,6.7,0,10.2
			c0.8,0,1.6-0.1,2.4-0.1c1.4,0,2.8-0.1,4.1,0c2.1,0.1,4.1,0.4,6.1,0.5c1.9,0,3.9-0.2,5.8-0.3c0.7,0,1.5,0,1.7-0.8
			C51.5,73.1,51.6,71.7,51.8,70.3z M43.9,48.7c0.8,0,1.6,0.1,2.4,0c4.6-0.4,9.1-1.2,13.7-0.6c1.8,0.2,3.6,0,5.3,0
			c7.1-0.2,14.2-0.4,21.4-0.6c1.3,0,2.7-0.2,4.2-0.4c-1.1-1.5-2.1-2.2-3.8-2c-1.6,0.2-3.2,0.1-4.8,0.2c-3.5,0.1-7,0.3-10.5,0.4
			c-3.2,0.1-6.4,0.5-9.6,0.3c-3.2-0.2-6.4,0.8-9.5-0.2c-0.2-0.1-0.3,0-0.5,0c-2,0.1-3.9,0.2-5.9,0.3C44.4,46.2,44.1,46.5,43.9,48.7z
			 M61.4,64.9c1.8,0,3.4,0.1,5,0c1.4-0.1,2.8-0.5,4.2-0.6c5.3-0.2,10.7-0.3,16-0.4c1.2,0,2.4-0.2,3.7-0.3c-0.3-1-0.6-1.8-0.9-2.8
			c-4.1,0-8.2,0.1-12.3,0c-4.5-0.1-8.9,0.6-13.4,0.1c-0.7-0.1-1.4,0.1-1.7,0.9C61.9,62.8,61.7,63.8,61.4,64.9z M49.8,30
			c-0.8,0-1.4-0.1-2,0c-1.5,0.2-2.9,0.4-4.4,0.6c-2.7,0.3-5.5,0.4-8.2,0.7c-0.6,0.1-1.4,0-1.9,1c0.5,0.1,0.9,0.2,1.3,0.2
			c0.6,0,1.2-0.2,1.9-0.3c1.5-0.2,1.9,0.2,2.1,1.7c0.1,0.6,0.2,1.2,0.3,1.9c0.1,1.5,1.1,2.1,2.5,2.3c0.2-0.2,0.3-0.4,0.5-0.6
			c1.3-1.4,1.6-1.4,3.2-0.4c1.2,0.8,2.3,1.7,3.5,2.5c0.9,0.6,1.8,1.1,1.7,2.3c0,0.1,0.5,0.2,0.7,0.3C50.6,38.1,50.2,34.2,49.8,30z
			 M35.1,64.4c-0.1,1.8,0.7,2.6,2.1,2.8c1.1,0.2,2.2,0.5,3.2,0.4c4-0.1,8-0.5,11.9-1.8c2.5-0.9,4.8-1.9,6.8-3.7
			c1.2-1.1,1.8-2.3,1.4-3.8c-1.3,0.8-2.6,1.6-3.9,2.2c-3.3,1.4-6.8,2.4-10.4,3.1c-2.5,0.5-5,1.2-7.7,1.1
			C37.4,64.7,36.3,64.5,35.1,64.4z M21,55.3c0,0.6-0.1,1-0.1,1.4c0.3,2.3,0.2,4.5,0.1,6.8c-0.2,3.7,0.2,7.4,0.3,11.2
			c0,0.1,0.1,0.2,0.2,0.3c1.5,0.3,2.5,0.3,3.6-0.1c0-1.1,0-2.2,0-3.3c-0.1-4.1-0.3-8.1-0.5-12.2c-0.1-1.5-0.4-3.1-1.4-4.4
			C22.5,55,21.8,55.2,21,55.3z M89.5,56.9c-3.4-0.1-6.5-0.3-9.7-0.4c-2.7,0-5.4,0-8.1,0.1c-2.4,0.1-4.8,0.2-7.2,0.4
			c-1.7,0.2-1.8,0.4-1.5,2.4c0.5,0.1,1.1,0.2,1.6,0.2c4.7-0.1,9.3-0.3,14-0.4c1.9,0,3.9,0.1,5.8-0.1c1.7-0.1,3.4,0.5,5.1-0.3
			C89.5,58.3,89.5,57.7,89.5,56.9z M23.6,23.2c-1.9,0.2-3.9,0.4-5.9,0.6c-0.3,0-0.8,0.4-0.8,0.7c-0.3,1.3-0.5,2.5-0.8,4
			c0.7,0.1,1.3,0.3,1.9,0.3c1.6,0,3.2,0,4.8-0.1c0.8,0,1.6-0.2,2.3-0.3C24.5,26.6,24.1,24.9,23.6,23.2z M35.4,29.3
			c2.9,0.5,11.9-0.6,13.6-1.6c-0.2-0.1-0.3-0.2-0.5-0.2c-3.3-0.4-6.6-0.7-9.9-1.1c-1.4-0.2-1.5-0.5-0.9-1.8c0.1-0.2,0.2-0.4,0.3-0.6
			c0.2-1,0.9-1.4,1.8-1.5c1.3-0.1,2.5-0.2,3.8-0.3c0.8-0.1,1.6,0.1,2.2-0.5c-3-0.1-6-0.2-9.2-0.3C37.4,24.3,36.2,26.8,35.4,29.3z
			 M37,6c0,1.6,0,3,0,4.3c0,1.3,0.3,2.4,1,3.4c0.8,1.2,1.7,2.3,2.5,3.5c1,1.3,2.4,1.6,4.3,1.5c-1.8-1.2-2.7-2.7-3.6-4.2
			c-1.2-1.9-1.7-3.9-1.3-6.2c0.1-0.8,0-1.6,0-2.6C38.8,5.8,37.9,5.9,37,6z M6.4,58.9c-0.5-5.2,0.9-9.3,5.2-12.5
			c-0.7-0.1-1.2-0.2-1.7-0.1c-1.2,0.3-2.3,0.8-3,1.8c-0.8,1.2-1.6,2.4-2.2,3.7C3.6,53.9,4.4,57.1,6.4,58.9z M39.6,24.7
			c0.1,0.2,0.2,0.3,0.3,0.4c2.7,0.3,5.3,0.7,8,0.8c1.4,0.1,1.7-0.5,1.3-2.3c-2.9,0.1-5.9-0.1-8.8,0.5C40,24.2,39.8,24.5,39.6,24.7z
			 M31.1,31c0-0.1,0-0.2,0-0.3c-0.6-0.1-1.3-0.2-1.9-0.4c-1.2-0.4-2.3-0.4-3.5-0.2c-0.6,0.1-1.1,0.1-1.7,0.1
			c-2.2,0.1-4.3,0.2-6.5,0.3c-0.3,0-0.7,0.2-1,0.4c0.2,0.9,0.8,0.8,1.3,0.8c3.7-0.1,7.3-0.2,11-0.4C29.5,31.3,30.3,31.1,31.1,31z
			 M14.7,61c1.8-2,2.8-4.4,2.8-7.1c0-2.6-1-5.4-2.3-6.1c1.4,2.1,0.9,4.4,1.1,6.7C16.5,56.9,15.2,58.8,14.7,61z M61.7,29.2
			c-2.1,0-3.9,0-5.7,0c-1,0-1,0.7-0.7,1.7c2,0,4.1,0,6.2,0C61.6,30.4,61.6,29.9,61.7,29.2z M30,33c-0.1,0.1-0.1,0.3-0.2,0.4
			c1.8,1.9,4,3.1,6.8,3.2c0.3-2.6,0.2-2.6-2.1-2.3c-1.2,0.2-2.3-0.1-3.3-0.7C30.8,33.4,30.4,33.2,30,33z M43.5,38.4
			c-0.2,2.5-0.1,2.8,1.9,3.4c0.7,0.2,1.4,0.4,2.2,0.6c0.3,0.1,0.6-0.1,1.2-0.2C47,40.5,45.7,39.1,43.5,38.4z M10.9,58.9
			c0.8-2.4,2-4.8,0.7-7.4C10.6,53.9,10.3,56.4,10.9,58.9z M54.9,36.5c0.4,0.6,0.5,0.9,0.7,1c1.5,0.2,2.9,0.4,4.4,0.5
			c0.7,0,0.8-0.6,0.7-1.4C58.9,36.5,57.1,36.5,54.9,36.5z M62.3,22.2c0-0.1,0-0.2,0-0.4c-2.3-0.1-4.6-0.2-6.9-0.3c0,0.1,0,0.3,0,0.4
			C57.7,22,60,22.1,62.3,22.2z M17.4,61.2c0.9-0.2,1.4-0.4,2-0.5c-0.1-1-0.2-1.9-0.2-2.7c-0.1,0-0.2,0-0.3,0
			C18.4,58.9,18,59.8,17.4,61.2z"/>
		<path fill="#F7AEA8" d="M88.3,43.2c-0.6,0.1-1.3,0.3-2,0.3c-4.8,0.2-9.5,0.3-14.3,0.5c-2.9,0.1-5.7,0.5-8.6,0.5
			c-3.6,0-7.2-0.4-11.2-0.6c1.7-0.8,3.3-0.7,4.8-0.8c1.5-0.1,3.1-0.2,4.6-0.4c1.3-0.2,2.2-0.9,2.4-2.3c0.6-3.3,1.2-6.7,1.8-10
			c0.5-2.8,1-5.6,1.8-8.5c1.4-0.1,2.8-0.3,4.2-0.3c3.2,0.1,6.3,0.4,9.4,0.6c1.5,0.1,3,0.1,4.5,0.3c1.6,0.2,1.8,0.4,1.8,1.9
			c0.3,4.9,0.5,9.9,0.7,14.8C88.3,40.4,88.3,41.7,88.3,43.2z"/>
		<g>
			<path d="M66.4,37.9c0-0.1,0-0.1,0-0.2l1.3-1.1c1-0.8,2.6-0.7,3.4,0.4c0.8,1,0.7,2.6-0.4,3.4l-1.3,1.1c-0.1,0-0.1,0-0.2,0
				L66.4,37.9z M70.1,39.6c0.6-0.5,0.7-1.3,0.2-1.9c-0.5-0.6-1.3-0.7-1.9-0.2l-0.5,0.4l1.7,2.2L70.1,39.6z"/>
			<path d="M71.9,33.2c1.1-0.9,2.6-0.7,3.5,0.4c0.9,1.1,0.7,2.6-0.4,3.5c-1.1,0.9-2.6,0.7-3.5-0.4C70.7,35.6,70.9,34.1,71.9,33.2z
				 M74.4,36.2c0.6-0.5,0.7-1.3,0.2-1.9c-0.5-0.6-1.4-0.7-1.9-0.2c-0.6,0.5-0.7,1.4-0.2,1.9C72.9,36.6,73.8,36.7,74.4,36.2z"/>
			<path d="M76.2,29.8c1.1-0.9,2.6-0.7,3.5,0.4c0.9,1.1,0.7,2.6-0.4,3.5s-2.6,0.7-3.5-0.4S75.1,30.7,76.2,29.8z M78.6,32.8
				c0.6-0.5,0.7-1.3,0.2-1.9c-0.5-0.6-1.4-0.7-1.9-0.2c-0.6,0.5-0.7,1.4-0.2,1.9C77.1,33.2,78,33.3,78.6,32.8z"/>
			<path d="M79.2,27.5c0-0.1,0-0.1,0-0.2l0.1-0.1c0,0,0.1,0,0.1,0l3.1,1.3l0,0L82,25.2c0,0,0-0.1,0-0.1l0.1-0.1c0,0,0.1,0,0.2,0
				l3.5,3.1c0.1,0.1,0.1,0.2,0,0.2l-0.6,0.5c0,0-0.1,0-0.2,0l-1.6-1.5l0,0l0.5,2.5c0,0,0,0.1,0,0.1l-0.1,0.1c0,0-0.1,0-0.1,0l-2.3-1
				l0,0l1.1,1.9c0,0,0,0.1,0,0.2l-0.6,0.5c-0.1,0.1-0.2,0-0.2,0L79.2,27.5z"/>
		</g>
		<path fill="#F7AEA8" d="M45.6,58.5c-2.3-1.1-2.2-2.8-2.2-4.5c0-1,0-2.1,0-3.3c1.2-0.1,2.4-0.3,3.6-0.4c1.4-0.1,2.9-0.2,4.3-0.4
			c2.1-0.3,4.2-0.3,6.3-0.2c2.8,0.1,5.5-0.1,8.3-0.1c4.6-0.1,9.3-0.2,13.9-0.3c3-0.1,6-0.3,8.9-0.4c0.7,0,1.5,0,2.5,0
			c-0.4,2.1-0.7,3.9-1.1,5.7c-0.1,0.3-0.7,0.7-1,0.7c-1.1,0.1-2.2,0.1-3.3,0.1c-7.2-0.4-14.4-0.4-21.6,0.2c-0.7,0.1-1.3,0.2-2.1,0.4
			c-0.3-0.5-0.7-1.1-1-1.7c-0.9-1.6-1.6-1.9-3.2-1.1c-1.3,0.6-2.5,1.4-3.8,2c-1.6,0.8-3.1,1.5-4.7,2.1
			C48.1,57.7,46.7,58.1,45.6,58.5z"/>
		<path fill="#F7AEA8" d="M22.4,46.4c1.2-0.6,1.8-1.6,2-2.9c0.3-1.4,1.1-2.4,2.7-2.5c2.6-0.2,5.1-0.3,7.7-0.5c0.8,0,1.6,0,2.4,0.1
			c0.9,0.1,1.7-0.1,2.2-1.3c0.6,0.4,1.3,0.6,1.5,1c0.7,1.8,2.3,2.5,3.9,3.1c0.5,0.2,1,0.4,1.7,0.6c-0.4,0.2-0.5,0.3-0.7,0.3
			c-2.3-0.1-3.1,1.3-3.5,3.3c-0.2,0.8-0.6,1.6-0.7,2.5c-0.1,0.8-0.1,1.6-0.2,2.6c-2.9,0.1-5.8,0.2-8.6,0.2c-0.9,0-1.7,0.2-2.6,0.2
			c-1.4,0-2.7-0.1-4.1-0.3c-0.3,0-0.6-0.4-0.7-0.7c-0.4-2.1-1.7-3.7-3-5.4C22.4,46.7,22.4,46.6,22.4,46.4z M29.6,47
			c-0.3-1-0.7-2.4-1.2-3.7c-0.3-0.8-1-1.2-1.9-1.3c-0.4,0-0.8,0.1-1.1,0.4c-0.7,0.6-1,2.6-0.4,3.2c0.9,1,1.1,2.2,1.7,3.3
			c0.3,0.5,0.6,1.1,1.1,1.5c0.6,0.5,1.3,0.2,1.4-0.6C29.4,49,29.4,48.2,29.6,47z"/>
		<path fill="#F7AEA8" d="M51.8,70.3c-0.2,1.5-0.3,2.9-0.6,4.2c-0.2,0.8-1.1,0.8-1.7,0.8c-1.9,0.1-3.9,0.3-5.8,0.3
			c-2.1,0-4.1-0.4-6.1-0.5c-1.4-0.1-2.8,0-4.1,0c-0.8,0-1.6,0.1-2.4,0.1c0-3.5,0.1-6.9,0-10.2c-0.1-3.3-0.5-6.6-0.7-10.2
			c3.6-0.5,7.4,0.1,11.3-0.5c0.2,1.7,0.4,3.1,0.6,4.8c-1.6,0.2-3.4,0.3-5.1-0.3c-1.4-0.5-2-0.3-2.7,0.9c-1,1.7-1.4,3.5-1,5.5
			c0.4,1.5,0.9,3,1.4,4.4c0.3,0.8,0.9,1.4,1.7,1.6c2.3,0.8,4.6,1.2,7.1,0.5c2.5-0.7,5-1.1,7.6-1.7C51.1,70.1,51.4,70.2,51.8,70.3z"
			/>
		<path fill="#F7AEA8" d="M43.9,48.7c0.2-2.1,0.5-2.5,2.3-2.6c1.9-0.1,3.9-0.2,5.9-0.3c0.2,0,0.4-0.1,0.5,0c3.1,1,6.3,0,9.5,0.2
			c3.2,0.2,6.4-0.2,9.6-0.3c3.5-0.1,7-0.3,10.5-0.4c1.6-0.1,3.2,0,4.8-0.2c1.7-0.3,2.7,0.5,3.8,2c-1.5,0.1-2.8,0.3-4.2,0.4
			c-7.1,0.2-14.2,0.4-21.4,0.6c-1.8,0-3.6,0.2-5.3,0c-4.6-0.6-9.1,0.2-13.7,0.6C45.5,48.7,44.7,48.7,43.9,48.7z"/>
		<path fill="#F7AEA8" d="M61.4,64.9c0.3-1.1,0.5-2.1,0.8-3.1c0.2-0.8,1-1,1.7-0.9c4.5,0.5,8.9-0.2,13.4-0.1c4.1,0.1,8.1,0,12.3,0
			c0.3,1,0.6,1.8,0.9,2.8c-1.3,0.1-2.5,0.3-3.7,0.3c-5.3,0.2-10.7,0.2-16,0.4c-1.4,0-2.8,0.5-4.2,0.6C64.8,65,63.2,64.9,61.4,64.9z"
			/>
		<path fill="#F7AEA8" d="M49.8,30c0.4,4.1,0.8,8.1,1.2,12.1c-0.2-0.1-0.7-0.2-0.7-0.3c0-1.2-0.8-1.8-1.7-2.3
			c-1.2-0.8-2.3-1.7-3.5-2.5c-1.6-1-1.9-1-3.2,0.4c-0.2,0.2-0.3,0.3-0.5,0.6c-1.4-0.1-2.4-0.7-2.5-2.3c-0.1-0.6-0.2-1.2-0.3-1.9
			c-0.2-1.6-0.6-1.9-2.1-1.7c-0.6,0.1-1.2,0.3-1.9,0.3c-0.4,0-0.8-0.1-1.3-0.2c0.5-1,1.3-0.9,1.9-1c2.7-0.3,5.5-0.4,8.2-0.7
			c1.5-0.1,3-0.4,4.4-0.6C48.4,30,49,30,49.8,30z"/>
		<path fill="#F7AEA8" d="M35.1,64.4c1.2,0.1,2.3,0.3,3.5,0.3c2.6,0.1,5.1-0.5,7.7-1.1c3.5-0.8,7-1.7,10.4-3.1
			c1.3-0.6,2.6-1.4,3.9-2.2c0.4,1.5-0.2,2.8-1.4,3.8c-2,1.8-4.3,2.8-6.8,3.7c-3.9,1.3-7.9,1.7-11.9,1.8c-1.1,0-2.2-0.2-3.2-0.4
			C35.7,67,35,66.2,35.1,64.4z"/>
		<path fill="#F7AEA8" d="M21,55.3c0.8-0.1,1.5-0.3,2.2-0.4c1,1.3,1.3,2.9,1.4,4.4c0.2,4.1,0.3,8.1,0.5,12.2c0,1.1,0,2.2,0,3.3
			c-1.1,0.4-2,0.4-3.6,0.1c-0.1-0.1-0.2-0.2-0.2-0.3c-0.1-3.7-0.5-7.5-0.3-11.2c0.1-2.3,0.2-4.5-0.1-6.8C20.9,56.3,21,55.9,21,55.3z
			"/>
		<path fill="#F7AEA8" d="M89.5,56.9c0,0.8,0,1.4,0,2c-1.7,0.8-3.4,0.2-5.1,0.3c-1.9,0.1-3.9,0-5.8,0.1c-4.7,0.1-9.3,0.3-14,0.4
			c-0.6,0-1.1-0.1-1.6-0.2c-0.3-2-0.2-2.2,1.5-2.4c2.4-0.2,4.8-0.4,7.2-0.4c2.7-0.1,5.4-0.2,8.1-0.1C82.9,56.6,86.1,56.8,89.5,56.9z
			"/>
		<path fill="#F7AEA8" d="M23.6,23.2c0.5,1.8,1,3.4,1.5,5.3c-0.7,0.1-1.5,0.2-2.3,0.3c-1.6,0.1-3.2,0.1-4.8,0.1
			c-0.6,0-1.1-0.2-1.9-0.3c0.3-1.4,0.5-2.7,0.8-4c0.1-0.3,0.5-0.7,0.8-0.7C19.6,23.5,21.6,23.4,23.6,23.2z"/>
		<path fill="#F7AEA8" d="M35.4,29.3c0.8-2.5,2-5,1.2-7.9c3.2,0.1,6.2,0.2,9.2,0.3c-0.7,0.6-1.5,0.5-2.2,0.5
			c-1.3,0.1-2.5,0.2-3.8,0.3c-1,0.1-1.6,0.5-1.8,1.5c0,0.2-0.2,0.4-0.3,0.6c-0.6,1.3-0.4,1.7,0.9,1.8c3.3,0.4,6.6,0.7,9.9,1.1
			c0.1,0,0.3,0.1,0.5,0.2C47.3,28.7,38.3,29.8,35.4,29.3z"/>
		<path fill="#F7AEA8" d="M37,6c0.9-0.1,1.8-0.2,2.9-0.3c0,1,0.1,1.8,0,2.6c-0.4,2.3,0.1,4.3,1.3,6.2c0.9,1.5,1.8,3,3.6,4.2
			c-1.9,0.1-3.3-0.2-4.3-1.5c-0.9-1.1-1.7-2.3-2.5-3.5c-0.7-1-1.1-2.1-1-3.4C37.1,8.9,37,7.6,37,6z"/>
		<path fill="#F7AEA8" d="M6.4,58.9c-2-1.8-2.7-5-1.8-7.1c0.6-1.3,1.4-2.5,2.2-3.7c0.7-1,1.8-1.6,3-1.8c0.4-0.1,0.9,0.1,1.7,0.1
			C7.2,49.6,5.9,53.7,6.4,58.9z"/>
		<path fill="#F7AEA8" d="M39.6,24.7c0.2-0.2,0.5-0.5,0.7-0.6c2.9-0.6,5.9-0.4,8.8-0.5c0.4,1.8,0.2,2.4-1.3,2.3
			c-2.7-0.2-5.3-0.5-8-0.8C39.8,25.1,39.7,24.9,39.6,24.7z"/>
		<path fill="#F7AEA8" d="M31.1,31c-0.8,0.1-1.6,0.3-2.4,0.3c-3.7,0.1-7.3,0.3-11,0.4c-0.5,0-1.1,0-1.3-0.8c0.3-0.1,0.6-0.4,1-0.4
			c2.2-0.1,4.3-0.2,6.5-0.3c0.6,0,1.2,0,1.7-0.1c1.2-0.2,2.4-0.2,3.5,0.2c0.6,0.2,1.3,0.3,1.9,0.4C31.1,30.8,31.1,30.9,31.1,31z"/>
		<path fill="#F7AEA8" d="M14.7,61c0.6-2.2,1.8-4.2,1.6-6.6c-0.2-2.2,0.3-4.6-1.1-6.7c1.2,0.8,2.2,3.5,2.3,6.1
			C17.5,56.7,16.5,59,14.7,61z"/>
		<path fill="#F7AEA8" d="M61.7,29.2c-0.1,0.7-0.1,1.2-0.2,1.7c-2.2,0-4.2,0-6.2,0c-0.3-0.9-0.4-1.6,0.7-1.7
			C57.8,29.2,59.6,29.2,61.7,29.2z"/>
		<path fill="#F7AEA8" d="M30,33c0.4,0.2,0.7,0.4,1.1,0.6c1,0.6,2.1,0.8,3.3,0.7c2.3-0.3,2.4-0.3,2.1,2.3c-2.8-0.1-5-1.3-6.8-3.2
			C29.9,33.2,30,33.1,30,33z"/>
		<path fill="#F7AEA8" d="M43.5,38.4c2.2,0.7,3.5,2.1,5.2,3.7c-0.6,0.1-0.9,0.2-1.2,0.2c-0.7-0.1-1.4-0.3-2.2-0.6
			C43.4,41.2,43.3,40.9,43.5,38.4z"/>
		<path fill="#F7AEA8" d="M10.9,58.9c-0.6-2.6-0.4-5,0.7-7.4C12.9,54.2,11.7,56.5,10.9,58.9z"/>
		<path fill="#F7AEA8" d="M54.9,36.5c2.2,0,4,0,5.7,0c0.2,0.8,0.1,1.5-0.7,1.4c-1.5,0-2.9-0.3-4.4-0.5
			C55.4,37.4,55.3,37.1,54.9,36.5z"/>
		<path fill="#F7AEA8" d="M62.3,22.2c-2.3-0.1-4.6-0.2-6.9-0.3c0-0.1,0-0.3,0-0.4c2.3,0.1,4.6,0.2,6.9,0.3
			C62.3,22,62.3,22.1,62.3,22.2z"/>
		<path fill="#F7AEA8" d="M17.4,61.2c0.6-1.4,1.1-2.3,1.5-3.3c0.1,0,0.2,0,0.3,0c0.1,0.9,0.1,1.7,0.2,2.7
			C18.8,60.8,18.3,61,17.4,61.2z"/>
		<path d="M29.6,47c-0.1,1.2-0.2,2-0.3,2.8c-0.1,0.8-0.8,1.1-1.4,0.6c-0.5-0.4-0.8-0.9-1.1-1.5c-0.6-1.1-0.8-2.4-1.7-3.3
			c-0.6-0.6-0.3-2.6,0.4-3.2c0.3-0.2,0.7-0.4,1.1-0.4c0.9,0,1.6,0.5,1.9,1.3C28.9,44.6,29.3,46,29.6,47z"/>
	</g>
</g>
</svg>
