<?xml version="1.0" encoding="utf-8"?>
<!-- Generator: Adobe Illustrator 24.2.1, SVG Export Plug-In . SVG Version: 6.00 Build 0)  -->
<svg version="1.1" id="Layer_1" xmlns="http://www.w3.org/2000/svg" xmlns:xlink="http://www.w3.org/1999/xlink" x="0px" y="0px"
	 width="92.1px" height="72.3px" viewBox="0 0 92.1 72.3" enable-background="new 0 0 92.1 72.3" xml:space="preserve">
<g>
	<path d="M91.1,37.7c1.5-2.9,1.3-6-0.5-8.7c-0.1-0.1-0.1-0.2-0.1-0.6c0.3-2.4-0.3-4.6-1.8-6.4c-0.7-0.8-1.5-1.5-2.4-2.1
		c-0.9-0.5-1.1-1-1.2-1.4c-0.2-0.5-0.4-0.9-0.5-1.2c-0.1-0.1-0.1-0.3-0.2-0.4c-1.3-2.9-3.5-3.6-5.2-3.7c0,0-0.1-0.1-0.1-0.2
		c-0.6-1-1.3-2.1-2.3-3.1C75.5,8.7,73.7,7,71,7c-0.1,0-0.3,0-0.4,0c0,0,0-0.1-0.1-0.1c-0.3-0.6-0.7-1.1-1-1.5
		c-1.1-1.6-2.7-2.4-4.4-2.4c-0.7,0-1.3,0.1-2,0.4c-0.3,0.1-0.4,0.1-0.5,0.1c-0.1,0-0.2,0-0.5-0.3c-1.1-1-2.3-1.5-3.6-1.5
		c-0.7,0-1.5,0.2-2.3,0.5c-0.4,0.2-0.8,0.3-1.2,0.3c-0.4,0-0.9-0.1-1.4-0.3c-1-0.4-2-0.9-3.1-1.4c-1-0.5-1.9-0.7-2.8-0.7
		c-1.1,0-2.2,0.4-3.1,1.2c0,0,0,0-0.1,0c-0.7-0.3-1.5-0.5-2.3-0.5c-1.1,0-2.1,0.3-3,0.9c-0.6,0.4-1.1,0.6-1.4,0.6
		c-0.2,0-0.5-0.1-0.8-0.2c-0.7-0.4-1.4-0.6-2.1-0.6c-1.1,0-2.1,0.4-2.8,1.2C31.8,2.8,31.6,3,31,3c-0.2,0-0.4,0-0.5,0
		c-0.3,0-0.6-0.1-0.9-0.1c-1.3,0-2.5,0.4-3.4,1.2h0c-0.1,0-0.3,0-0.4,0c-0.1,0-0.3,0-0.4-0.1c-0.3-0.1-0.7-0.1-1.2-0.2
		c-0.1,0-0.3,0-0.4,0c-2.3,0-3.9,1.2-4.7,3.4c-0.6,0.1-1.2,0.2-1.8,0.2c-3.5,0.3-5.6,2.1-6.6,5.4c-0.1,0.5-0.3,0.8-0.3,0.9
		c-3.4,1.1-4.4,4.2-4.7,5.3c-0.5,1.6-1.2,2.5-2.2,3.3c-1.4,0.9-2.4,2.4-2.7,4c-0.3,1.4,0,2.7,0.8,3.7c0.2,0.3,0.3,0.4-0.1,0.9
		c-2.2,4-1.3,6.7,0.4,8.4c0,0.1-0.1,0.2-0.1,0.3c-0.8,2.1-0.3,4,1.4,5.3c0.7,1.3,1.9,2,3.3,2c0.2,0,0.4,0,0.6,0c0.1,0,0.2,0,0.2,0
		c0.2,0,0.4,0,1,1c0.2,0.4,0.5,0.8,0.7,1.2c1.8,2.7,4.1,4.3,7,4.9c1.6,0.3,3.1,0.4,4.6,0.4c1.7,0,3.3-0.2,4.9-0.6
		c2.6-0.6,5-1.6,7.4-2.5l0.5-0.2c0.6-0.2,1.1-0.5,1.7-0.7l-0.4,4.8l0,0c-0.4,0.4-0.7,0.8-0.9,1.2l0,0.1c-2.3,3.6-2.3,7.5-2.1,10.5
		c0.2,2.1,1.6,3.8,3.5,4.3c0.2,0,0.3,0.1,0.5,0.1c0.9,0.3,1.9,0.6,3,0.6c0.8,0,1.5-0.1,2.2-0.4c0.7-0.3,1.3-0.4,2-0.4
		c0.7,0,1.5,0.2,2.2,0.5c1.1,0.5,2.3,0.6,3.1,0.6c0.2,0,0.4,0,0.5,0c2.1,0,3.7-0.6,5-1.8c1.2-1.2,1.7-1.3,2-1.3c0.4,0,1,0.2,1.9,0.6
		c1,0.5,2,0.8,3,0.8c1,0,2.1-0.3,3-0.8c1.7-1,2.9-2,3.6-3.1c0.5-0.8,0.8-0.8,1.1-0.8c0.1,0,0.3,0,0.4,0c0.2,0,0.5,0.1,0.8,0.1
		c0.1,0,0.4,0,0.4,0c0.5,0.1,1,0.2,1.4,0.2c1.7,0,3-0.7,4-1.3c0.2-0.1,0.4-0.2,0.6-0.3c1.2-0.7,3-1.7,3.5-3.9c0.3-1.2,1-1.9,2.3-2.4
		c0.4-0.2,0.8-0.4,1-0.6c1.8-1.1,5.1-3.2,4.7-7.6c0-0.1,0.1-0.2,0.2-0.3c0.1-0.2,0.4-0.4,0.7-0.7c0.2-0.2,0.5-0.4,0.7-0.7
		c3-3.3,2.7-6.3,1.9-8.2C90.6,39.1,90.7,38.5,91.1,37.7z"/>
	<g>
		<path d="M36.7,56.4c0.2-3.4,0.5-6.5,0.7-9.8c-1.7,0.8-3.3,1.7-5.1,2.4c-2.5,1-5,2-7.6,2.6c-2.8,0.7-5.7,0.6-8.5,0.1
			c-2.4-0.5-4.2-1.9-5.5-3.9c-0.2-0.4-0.4-0.7-0.6-1.1c-0.8-1.4-1.8-2.4-3.6-2.1c-0.6,0.1-1.2-0.1-1.5-0.8c-0.2-0.3-0.4-0.6-0.7-0.8
			c-1-0.7-1-1.6-0.6-2.6c0.2-0.6,0.4-1.1,0.6-1.8c-2.7-1.8-2.4-4.1-1-6.5c0.6-1.1,0.8-2.1-0.1-3.4c-0.9-1.3-0.3-3.5,1.3-4.5
			c1.7-1.1,2.6-2.6,3.2-4.5c0.5-1.7,1.4-3.2,3.3-3.8c1.1-0.3,1.5-1.4,1.8-2.4c0.7-2.4,2.1-3.6,4.7-3.8c0.7-0.1,1.5-0.2,2.2-0.3
			c0.8-0.2,1.3-0.5,1.5-1.4c0.4-1.5,1.3-2,2.8-1.9c0.5,0,1,0.1,1.4,0.2c0.8,0.1,1.6,0.1,2.2-0.5c0.7-0.7,1.6-0.8,2.6-0.6
			c1.3,0.2,2.5,0,3.5-1c0.6-0.6,1.5-0.6,2.2-0.2c1.7,0.9,3.1,0.6,4.6-0.4c0.9-0.6,2-0.8,3.1-0.3C44.4,3.6,45.3,3.7,46,3
			c1.1-1,2.3-0.8,3.6-0.2c1,0.5,2.1,1,3.2,1.4c1.5,0.6,3,0.6,4.4,0c1.3-0.6,2.3-0.3,3.3,0.6c1,1,2.1,1.2,3.5,0.6
			c1.4-0.6,2.7,0,3.6,1.3C68,7.1,68.3,7.5,68.5,8c0.5,0.8,1.2,1.3,2.1,1.2c1.9-0.1,3.2,1,4.4,2.2c0.8,0.8,1.4,1.7,1.9,2.6
			c0.5,0.8,1.1,1.3,2,1.3c1.6,0,2.6,0.9,3.2,2.3c0.2,0.5,0.5,1,0.7,1.5c0.4,1.2,1.2,1.9,2.2,2.6c0.7,0.4,1.4,1,1.9,1.6
			c1.1,1.3,1.5,2.9,1.3,4.6c-0.1,0.8-0.1,1.5,0.4,2.2c1.4,2,1.5,4.2,0.4,6.4c-0.7,1.4-0.9,2.7-0.2,4.2c0.9,2.2,0.1,4.1-1.5,5.8
			c-0.5,0.5-1.1,1-1.5,1.6c-0.3,0.5-0.8,1.1-0.7,1.6c0.4,3-1.5,4.4-3.6,5.8c-0.2,0.1-0.4,0.3-0.6,0.3c-1.9,0.7-3.1,2-3.7,4
			c-0.4,1.6-1.9,2.1-3.1,2.9c-1.1,0.7-2.4,1.3-3.8,0.9c-0.4-0.1-0.9,0-1.3-0.1c-1.7-0.3-2.8,0.2-3.8,1.7c-0.7,1-1.8,1.8-2.9,2.4
			c-1.2,0.7-2.5,0.7-3.8,0c-2.8-1.4-4.2-1.2-6.5,1.1c-1.1,1.1-2.5,1.3-3.9,1.2c-0.8,0-1.6-0.1-2.3-0.4c-2-0.9-4-0.9-6-0.1
			c-1.5,0.6-2.9,0-4.3-0.4c-1-0.3-1.7-1.2-1.8-2.3c-0.3-3.2-0.1-6.3,1.7-9.1c0.2-0.3,0.4-0.6,0.6-0.9C36.3,56.6,36.7,56.4,36.7,56.4
			z M48,20.9c-0.9,1.8-1.6,3.3-2.3,4.9c-0.8,1.8-1.7,3.5-2.3,5.4c-1.2,3.7-2.1,7.4-3.1,11.2c-1.1,4.3-1.7,8.7-1.8,13.1
			c0,0.8,0.3,1.1,1,1.2c1.2,0.3,2.6,0.4,3.6,1.1c1.7,1,3.1,0.5,4.7,0c0.1,0,0.1,0,0.2-0.1c1.6-0.8,3.2-0.6,4.8,0
			c1,0.3,1.8,0.3,2.6-0.1c0.7-0.3,1.4-0.7,2.1-1c1.4-0.6,2.9-1.3,4.4-1.8c2.7-0.9,5.3-1.9,7.1-4.5c1.1-1.6,2.7-2.6,4.5-3.3
			c1.7-0.6,3.1-1.7,3.6-3.4c0.5-1.9,1.6-3.3,2.9-4.5c0.9-0.8,1.2-1.7,1.4-2.9c0.3-2.2,0.1-4.4,1-6.5c0.3-0.6,0-1.1-0.5-1.6
			c-1.1-1.4-2.2-2.9-3.3-4.3c-0.7-0.8-1.4-1.6-2.2-2.4c-1.3-1.3-2.7-2.5-3.9-3.8c-1.7-1.7-3.6-3.1-5.8-4c-2-0.8-3.9-1.7-5.8-2.6
			c-1.4-0.7-2.9-1.2-4.5-1.3c-1.2,0-2.4-0.3-3.6-0.5c-2.5-0.5-5-0.7-7.6-0.1c-4.4,0.9-8.8,1.7-13.2,2.7c-3.1,0.8-6.2,1.7-8.7,3.9
			c-1,0.8-2.1,1.4-3.2,2.1c-1.3,0.8-2.5,1.8-3.2,3.2c-1.3,2.4-2.4,4.9-3.7,7.3c-0.4,0.8-0.8,1.6-1.3,2.4c-1.9,2.6-1.9,6.9,0.2,9.5
			c1.2-1.2,2.2-2.6,2.9-4.1c0.3-0.7,0.8-1.4,1.2-2c2.8-3.7,6.6-5.9,10.7-7.7c3.8-1.7,7.7-3.3,11.9-4c2.4-0.4,4.7-1.2,7.1-1.7
			C46.4,20.7,47.1,20.8,48,20.9z M7.1,42.7c0.2-0.1,0.3-0.2,0.4-0.2c0.1-0.1,0.2-0.4,0.3-0.5c2-0.8,1.9-2.3,1.3-4
			c-0.1-0.2-0.2-0.5-0.2-0.7c-0.3-2.1-0.4-4.3,0.8-6.2c0.9-1.4,1.7-2.9,2.4-4.5c0.7-1.6,1.6-3.2,2.4-4.7c1.5-2.7,3.4-4.9,6.2-6.2
			c0.6-0.3,1.2-0.6,1.7-1.1c2.4-2.1,5.3-3.3,8.3-4c4.6-1.1,9.2-2.1,13.9-3c2.9-0.6,5.7-0.8,8.7-0.1c1.5,0.3,3,0.3,4.5,0.6
			c1.2,0.2,2.4,0.5,3.5,1c1.9,0.8,3.7,1.8,5.6,2.6c3,1.1,5.4,2.9,7.6,5.2c2,2,4,4.1,6,6c0.2,0.2,0.6,0.4,0.9,0.4
			c0.8,0.1,1.2,0.6,1.3,1.3c0.2,1.1,0.8,2,1.5,2.9c0.4,0.5,0.6,1.4,0.5,2c-0.3,2.4-0.8,4.8-1.1,7.2c-0.2,1.3-0.6,2.4-1.6,3.3
			c-1.2,1-2.1,2.3-2.6,3.8c-0.6,1.8-1.9,3.5-3.9,4.1c-2.4,0.8-4,2.4-5.6,4.2c-0.9,1-2,2-3.3,2.5c-3.2,1.4-6.6,2.4-9.7,4.1
			c-1,0.6-2.6,0.9-3.7,0.6c-2.3-0.7-4.3-0.5-6.4,0.4c-0.3,0.1-0.6,0.1-0.9,0.2c-0.9,0.3-1.6,0.2-2.4-0.3c-1.4-0.9-3-1.3-4.7-1.4
			c-1.4-0.1-2,0.2-2.3,1.5c-0.4,1.5-0.7,3.1-0.8,4.6c-0.1,2.5,0.9,3.4,3.4,3.3c0.6,0,1.2-0.2,1.7-0.5c1.3-0.7,2.6-0.6,3.9-0.1
			c0.5,0.2,1,0.4,1.6,0.5c2,0.6,3.8,0.8,5.7-1c2-1.9,4.6-2.4,7.2-0.9c1.3,0.7,2.4,0.6,3.4-0.2c0.8-0.6,1.5-1.4,2-2.3
			c0.7-1.2,1.5-1.8,2.9-1.7c1.1,0.1,2.2,0.2,3.3,0.2c2.6,0.1,4.5-1.1,5.3-3.5c0.6-1.9,1.9-2.9,3.5-3.7c0.9-0.4,1.7-0.9,2.5-1.5
			c1-0.7,1.5-1.7,1.3-3c-0.2-1.2,0.3-2.2,1-3c0.5-0.7,1.1-1.3,1.8-1.9c1.4-1.3,1.7-2.8,0.9-4.5c-0.7-1.6-0.6-3,0.3-4.5
			c1-1.8,1.1-3.7-0.3-5.5c-0.6-0.8-0.9-1.6-0.7-2.5c0.6-2.3-0.3-3.9-2.3-5c-1.5-0.8-2.5-2-3-3.7c-0.4-1.4-1.2-2.5-2.9-2.5
			c-1.2,0-2-0.8-2.5-1.8c-0.4-0.8-1-1.5-1.5-2.3c-0.9-1.2-2-2-3.7-2c-1.5,0-2.8-0.7-3.4-2.2c-0.2-0.4-0.5-0.8-0.8-1.2
			c-0.4-0.5-1-0.8-1.6-0.5c-1.8,0.8-3.3,0.1-4.8-0.7c-0.9-0.5-1.7-0.8-2.7-0.3c-0.6,0.3-1.3,0.3-2,0.3c-2-0.1-4-0.6-5.7-1.6
			c-0.9-0.5-1.7-0.6-2.5,0c-0.9,0.7-1.9,0.8-2.9,0.5c-1.1-0.4-2.1-0.3-3.1,0.4c-1.5,0.9-3.1,1.2-4.7,0.3c-0.6-0.3-1.1-0.2-1.7,0.2
			c-1.1,0.8-2.3,1-3.6,1c-0.8,0-1.6,0.3-2.4,0.6C27.2,8,26.1,8.3,24.9,8c-0.5-0.2-1.2-0.1-1.8-0.1c-0.6,2.5-2.2,3.5-4.5,3.3
			c-0.4,0-0.8,0.1-1.3,0.2c-1.5,0.4-2.7,1.1-3,2.8c-0.3,1.5-1.2,2.6-2.6,3.3c-1.2,0.6-2,1.4-2.3,2.7c-0.6,2.1-1.6,3.7-3.4,5
			c-1.5,1.1-1.6,2-0.7,3.6c0.5,0.8,0.5,1.6,0.2,2.4c-0.4,1-0.7,1.9-1.1,2.9c-0.5,1.1-0.4,2.2,0.5,3c1,0.9,1.1,1.9,0.7,3.1
			C5.3,41.7,5.4,41.9,7.1,42.7z M38.5,42c-1,0.6-1.8,1.1-2.6,1.4c-2.1,1-4.1,2.1-6.3,2.8c-3.3,1.1-6.8,1.8-10.2,2.7
			c-1,0.3-1.8,0.1-2.6-0.4c-2.2-1.4-3.6-3.4-4.5-5.8c-0.2-0.5-0.4-1.1-0.6-1.7c-0.8,0.6-1.4,1-2,1.5c1.2,1.6,2.2,3.4,3.5,4.8
			c0.9,1,2.2,1.9,3.5,2.2c2.9,0.7,5.9,0.7,8.8,0c4.4-1,8.3-3.1,12-5.4C38.3,43.8,38.6,43.2,38.5,42z"/>
		<path fill="#F7AEA8" d="M48,20.9c-0.9,0-1.6-0.2-2.1-0.1c-2.4,0.5-4.7,1.3-7.1,1.7c-4.2,0.7-8,2.3-11.9,4c-4.1,1.8-7.9,4-10.7,7.7
			c-0.5,0.6-0.9,1.3-1.2,2c-0.7,1.6-1.7,2.9-2.9,4.1c-2.1-2.6-2.1-6.9-0.2-9.5c0.5-0.7,0.9-1.6,1.3-2.4c1.2-2.4,2.4-4.9,3.7-7.3
			c0.7-1.4,1.9-2.4,3.2-3.2c1.1-0.7,2.2-1.3,3.2-2.1c2.5-2.2,5.6-3.2,8.7-3.9c4.4-1.1,8.8-1.8,13.2-2.7c2.6-0.5,5.1-0.4,7.6,0.1
			c1.2,0.3,2.4,0.5,3.6,0.5c1.6,0,3.1,0.6,4.5,1.3c1.9,0.9,3.9,1.8,5.8,2.6c2.2,0.9,4.1,2.3,5.8,4c1.3,1.3,2.6,2.5,3.9,3.8
			c0.8,0.8,1.5,1.6,2.2,2.4c1.1,1.4,2.2,2.9,3.3,4.3c0.4,0.5,0.7,1,0.5,1.6c-0.9,2.1-0.6,4.3-1,6.5c-0.2,1.1-0.5,2.1-1.4,2.9
			c-1.4,1.2-2.4,2.6-2.9,4.5c-0.5,1.7-1.9,2.8-3.6,3.4c-1.9,0.6-3.5,1.7-4.5,3.3c-1.8,2.6-4.3,3.6-7.1,4.5c-1.5,0.5-2.9,1.2-4.4,1.8
			c-0.7,0.3-1.4,0.7-2.1,1c-0.9,0.4-1.7,0.5-2.6,0.1c-1.6-0.6-3.2-0.7-4.8,0c-0.1,0-0.1,0-0.2,0.1c-1.6,0.5-3,1-4.7,0
			c-1.1-0.6-2.4-0.8-3.6-1.1c-0.7-0.2-1-0.5-1-1.2c0.1-4.5,0.7-8.8,1.8-13.1c0.9-3.8,1.8-7.5,3.1-11.2c0.6-1.8,1.5-3.6,2.3-5.4
			C46.4,24.2,47.1,22.7,48,20.9z"/>
		<path fill="#F7AEA8" d="M7.1,42.7c-1.7-0.9-1.8-1.1-1.4-2.7C6,38.9,6,37.8,5,36.9c-0.9-0.8-1.1-1.8-0.5-3C4.9,33,5.2,32,5.6,31.1
			c0.3-0.8,0.3-1.6-0.2-2.4c-0.9-1.6-0.8-2.5,0.7-3.6c1.8-1.3,2.8-2.9,3.4-5c0.3-1.2,1.1-2.1,2.3-2.7c1.4-0.7,2.3-1.8,2.6-3.3
			c0.3-1.7,1.5-2.4,3-2.8c0.4-0.1,0.8-0.2,1.3-0.2c2.3,0.2,3.9-0.8,4.5-3.3c0.6,0,1.2,0,1.8,0.1c1.2,0.3,2.3,0,3.4-0.4
			C29,7.3,29.9,7,30.7,7c1.3,0,2.5-0.2,3.6-1c0.6-0.4,1.1-0.5,1.7-0.2c1.6,0.8,3.2,0.6,4.7-0.3c1-0.6,2-0.8,3.1-0.4
			c1.1,0.4,2.1,0.2,2.9-0.5c0.9-0.7,1.6-0.6,2.5,0c1.8,1,3.7,1.6,5.7,1.6c0.7,0,1.4,0,2-0.3c1-0.5,1.8-0.2,2.7,0.3
			c1.5,0.8,3.1,1.5,4.8,0.7c0.7-0.3,1.2,0,1.6,0.5c0.3,0.4,0.6,0.8,0.8,1.2c0.6,1.6,2,2.2,3.4,2.2c1.7,0,2.8,0.8,3.7,2
			c0.5,0.7,1.1,1.5,1.5,2.3c0.5,1.1,1.3,1.8,2.5,1.8c1.7,0.1,2.5,1.1,2.9,2.5c0.5,1.7,1.5,2.9,3,3.7c2,1.1,2.9,2.7,2.3,5
			c-0.2,1,0.1,1.8,0.7,2.5c1.3,1.8,1.3,3.7,0.3,5.5c-0.9,1.5-1,2.9-0.3,4.5c0.7,1.7,0.4,3.2-0.9,4.5c-0.6,0.6-1.2,1.2-1.8,1.9
			c-0.7,0.9-1.2,1.8-1,3c0.2,1.3-0.3,2.3-1.3,3c-0.8,0.5-1.6,1-2.5,1.5c-1.6,0.8-2.9,1.9-3.5,3.7c-0.8,2.4-2.7,3.6-5.3,3.5
			c-1.1,0-2.2-0.1-3.3-0.2c-1.4-0.1-2.2,0.5-2.9,1.7c-0.5,0.9-1.2,1.7-2,2.3c-1,0.8-2.1,0.9-3.4,0.2c-2.6-1.5-5.2-1.1-7.2,0.9
			c-1.8,1.8-3.6,1.6-5.7,1c-0.5-0.2-1-0.3-1.6-0.5c-1.3-0.5-2.6-0.5-3.9,0.1c-0.5,0.3-1.2,0.5-1.7,0.5c-2.5,0.1-3.5-0.8-3.4-3.3
			c0-1.6,0.3-3.1,0.8-4.6c0.4-1.3,1-1.6,2.3-1.5c1.7,0.1,3.2,0.5,4.7,1.4c0.8,0.5,1.5,0.6,2.4,0.3c0.3-0.1,0.6-0.1,0.9-0.2
			c2.1-0.9,4.1-1.1,6.4-0.4c1.1,0.3,2.6,0,3.7-0.6c3.1-1.7,6.5-2.7,9.7-4.1c1.2-0.5,2.4-1.5,3.3-2.5c1.6-1.8,3.2-3.5,5.6-4.2
			c2-0.7,3.2-2.3,3.9-4.1c0.6-1.6,1.5-2.8,2.6-3.8c1-0.9,1.4-2,1.6-3.3c0.4-2.4,0.8-4.8,1.1-7.2c0.1-0.7-0.1-1.5-0.5-2
			c-0.7-0.9-1.3-1.7-1.5-2.9c-0.1-0.7-0.5-1.2-1.3-1.3c-0.3-0.1-0.7-0.2-0.9-0.4c-2-2-4-4-6-6c-2.2-2.2-4.6-4.1-7.6-5.2
			C64.8,11,63,9.9,61.1,9.1c-1.1-0.5-2.3-0.8-3.5-1c-1.5-0.3-3-0.3-4.5-0.6c-2.9-0.7-5.8-0.4-8.7,0.1c-4.6,0.9-9.3,1.9-13.9,3
			c-3,0.7-5.9,1.9-8.3,4c-0.5,0.4-1.1,0.8-1.7,1.1c-2.8,1.4-4.7,3.6-6.2,6.2c-0.8,1.5-1.7,3.1-2.4,4.7c-0.7,1.5-1.4,3-2.4,4.5
			c-1.2,1.8-1.1,4-0.8,6.2c0,0.2,0.1,0.5,0.2,0.7c0.7,1.7,0.8,3.2-1.3,4c-0.1,0.1-0.2,0.3-0.3,0.5C7.5,42.6,7.3,42.6,7.1,42.7z"/>
		<path fill="#F7AEA8" d="M38.5,42c0,1.1-0.2,1.7-0.9,2.1c-3.8,2.4-7.7,4.4-12,5.4c-2.9,0.7-5.9,0.7-8.8,0c-1.3-0.3-2.6-1.2-3.5-2.2
			c-1.3-1.4-2.3-3.2-3.5-4.8c0.7-0.5,1.2-0.9,2-1.5c0.2,0.6,0.4,1.2,0.6,1.7c0.8,2.4,2.3,4.4,4.5,5.8c0.8,0.5,1.6,0.7,2.6,0.4
			c3.4-0.9,6.8-1.6,10.2-2.7c2.2-0.7,4.2-1.9,6.3-2.8C36.7,43.1,37.5,42.6,38.5,42z"/>
	</g>
</g>
</svg>
