<svg xmlns="http://www.w3.org/2000/svg" width="106.6" height="9.9" viewBox="0 0 106.6 9.9">
  <g id="Group_17" data-name="Group 17" transform="translate(-0.7 -0.1)">
    <path id="Path_33" data-name="Path 33" d="M85,3.2l-.6,2.1h1.4L85,3.2Zm-42-1-3.8.2v.9h3.4V5.1s-2.2.1-3.4.1V9H37.4s-.1-3.7-.1-5.7c0-1,.1-2.8.1-2.8H43V2.2Zm5.9,6.9c-2.1,0-3.8-.8-3.8-4.3,0-1.5.1-4.4.1-4.4h1.9V4.8c0,1.8.8,2.3,1.9,2.3s1.9-.5,1.9-2.3V.4h1.9s.1,2.9.1,4.4C52.7,8.3,51,9.1,48.9,9.1ZM62.3,9H60.4L56.9,3.7,57.1,9H55.3s0-3.3-.1-5.3c0-1,.1-3.2.1-3.2H57l3.7,5.8L60.6.5h1.8s0,3.2.1,5.2C62.4,6.7,62.3,9,62.3,9Zm8.9,0h-2s-1.3-2.3-2-3.6l-.5.6V9H65s0-3.3-.1-5.2c0-1,.1-3.3.1-3.3h1.7v3c.8-1,2.1-2.7,2.3-3h2.2L68.7,4Zm8.3,0H77.6V5.6H74.8L74.7,9H72.9s0-3.3-.1-5.2c0-1,.1-3.2.1-3.2h1.9V3.8h2.8L77.7.7h1.8s0,3.2.1,5.2C79.6,6.7,79.5,9,79.5,9Zm7.4,0-.6-2H84l-.7,2h-2c0-.5,2.8-8.5,3.1-8.5h1.4c.3,0,3,8.1,3,8.5Zm7.1.1c-2.1,0-3.8-.8-3.8-4.3,0-1.5.1-4.4.1-4.4h1.9V4.8c0,1.8.8,2.3,1.9,2.3S96,6.6,96,4.8V.4h1.9s.1,2.9.1,4.4C97.9,8.3,96.2,9.1,94,9.1Zm9.7,0c-1.9,0-3.4-.5-3.6-2.9l1.9-.1c.2,1,.9,1,1.7,1,.9,0,1.7,0,1.7-.8s-.8-.8-1.7-.8c-1.9,0-3.3-.6-3.3-2.6S101.8.3,103.7.3c1.7,0,3.1.5,3.3,2.7l-1.9.1c-.2-.8-.8-.9-1.4-.9-.7,0-1.4,0-1.4.7s.7.7,1.4.7c2.1,0,3.6.6,3.6,2.7C107.3,8.5,105.8,9.1,103.7,9.1Z"/>
    <g id="Group_16" data-name="Group 16">
      <path id="Path_34" data-name="Path 34" d="M1.6,6A1.875,1.875,0,0,0,3.5,7.2c1,0,1.6-.5,1.6-1.3,0-.6-.3-.9-1.1-1.2L2.6,4.4C1.6,4.1.8,3.6.8,2.5A2.195,2.195,0,0,1,3.2.4,2.572,2.572,0,0,1,5.9,2.3H5.1A1.842,1.842,0,0,0,3.3,1.2c-.9,0-1.5.5-1.5,1.2,0,.6.4.9,1.2,1.1l1.3.3c1.2.3,1.8.9,1.8,2C6.1,7.2,5,8,3.5,8A2.574,2.574,0,0,1,.7,6Z"/>
      <path id="Path_35" data-name="Path 35" d="M7.7,1.5A.645.645,0,0,1,7.1.9.645.645,0,0,1,7.7.3a.645.645,0,0,1,.6.6A.576.576,0,0,1,7.7,1.5Zm.5,6.4H7.3V2.6h.9Z"/>
      <path id="Path_36" data-name="Path 36" d="M10,3.3H9.2V2.6H10V1.1h.9V2.5h1.3v.8H10.9V6.4a.632.632,0,0,0,.7.7,1.445,1.445,0,0,0,.7-.2v.8a1.135,1.135,0,0,1-.8.3A1.368,1.368,0,0,1,10,6.5V3.3Z"/>
      <path id="Path_37" data-name="Path 37" d="M17.7,6.3A1.992,1.992,0,0,1,15.6,8c-1.5,0-2.4-1.1-2.4-2.8a2.543,2.543,0,0,1,2.4-2.8c1.5,0,2.2,1.1,2.2,2.6v.3H14c0,1.1.6,1.8,1.5,1.8.7,0,1.2-.3,1.3-.9h.9v.1ZM14.1,4.7h2.8c0-.8-.4-1.5-1.3-1.5A1.536,1.536,0,0,0,14.1,4.7Z"/>
      <path id="Path_38" data-name="Path 38" d="M22.6,7.9h-.9V.1h.9V3.2a1.806,1.806,0,0,1,1.5-.7c1.6,0,2.4,1.3,2.4,2.8s-.8,2.8-2.4,2.8a1.806,1.806,0,0,1-1.5-.7Zm0-1.6a1.508,1.508,0,0,0,1.4.9c1,0,1.6-.8,1.6-2s-.6-2-1.6-2a1.508,1.508,0,0,0-1.4.9Z"/>
      <path id="Path_39" data-name="Path 39" d="M28.3,9.9l.8-2L27,2.6h1l1.6,4.2,1.5-4.2H32L29.1,10l-.8-.1Z"/>
      <path id="Path_40" data-name="Path 40" d="M33.3,2.9a.669.669,0,0,1,.6.7.6.6,0,0,1-1.2,0A.563.563,0,0,1,33.3,2.9Zm0,3.7a.669.669,0,0,1,.6.7.6.6,0,0,1-1.2,0A.563.563,0,0,1,33.3,6.6Z"/>
    </g>
  </g>
</svg>
