<svg xmlns="http://www.w3.org/2000/svg" width="289.429" height="38.863" viewBox="0 0 289.429 38.863"><defs><style>.a{fill:#d8d9be;}</style></defs><path class="a" d="M501.247,146.31c-2.628-2.4-4.921-3.635-8.612-3.635-8.332,0-14.482,7.325-14.482,15.657,0,9.618,5.7,15.545,14.035,15.545a12.6,12.6,0,0,0,8.947-3.635v2.908h9.114V143.234h-9Zm-7.1,19.459c-4.194,0-6.822-3.411-6.822-7.549a6.9,6.9,0,0,1,7.157-7.157,7.043,7.043,0,0,1,7.1,7.381A7.2,7.2,0,0,1,494.146,165.769ZM572.71,159c0-10.624-6.1-16.328-14.706-16.328-8.835,0-15.322,6.542-15.322,15.6,0,10.009,6.374,15.6,15.545,15.6a15.649,15.649,0,0,0,13.979-7.772l-7.046-4.138c-1.566,2.013-3.523,4.138-6.486,4.138-3.411,0-6.207-1.734-6.99-5.257H572.71Zm-20.69-4.473c1.118-2.8,2.8-4.25,5.871-4.25,2.852,0,4.362,1.342,5.48,4.25ZM465.4,142.675c-5.48,0-7.437,2.293-9.785,4.753a9.288,9.288,0,0,0-8.444-4.753c-5.033,0-8.388,4.473-8.388,4.473v-3.914h-8.947a38.771,38.771,0,0,1-6.878,21.472l-5.871-3.8h6.6a.693.693,0,0,0,.727-.671v-1.789c0-10.177-5.592-16.719-15.1-16.719a15.111,15.111,0,0,0-15.266,12.134.678.678,0,0,0,.727.839h7.772a50.448,50.448,0,0,1-5.032,9.226c-.839,1.231-1.677,2.293-2.46,3.244a46.279,46.279,0,0,1-8.835-8.444l-1.789-2.237,11.127-13.029a.706.706,0,0,0-.5-1.174H384.324a.688.688,0,0,0-.559.28l-7.046,9V135.741a.74.74,0,0,0-.727-.727h-8.835a.74.74,0,0,0-.727.727v7.27c0,5.2,1.789,8.164,5.144,12.469l1.006,1.4c-1.23,1.4-2.852,2.8-4.529,2.8-3.8,0-4.753-4.529-4.753-9.506V143.01a.74.74,0,0,0-.727-.727h-8.723a.74.74,0,0,0-.727.727v1.342a12.275,12.275,0,0,0-7.716-2.628c-8.891,0-13.084,6.71-15.937,15.433a21.555,21.555,0,0,1-.615-4.921c0-6.095-4.026-10.512-10.121-10.512-5.088,0-7.269,1.957-9.394,4.194a9.957,9.957,0,0,0-8.388-4.194,11.108,11.108,0,0,0-7.549,3.243V143.01a.74.74,0,0,0-.727-.727h-8.667a.7.7,0,0,0-.727.727v29.245a.7.7,0,0,0,.727.727H292.9a.74.74,0,0,0,.727-.727V156.263c0-3.131,1.454-4.977,4.026-4.977,2.4,0,3.075,1.007,3.075,3.8v17.167a.74.74,0,0,0,.727.727h9a.74.74,0,0,0,.727-.727V156.263c0-3.075,1.566-4.977,4.026-4.977,2.8,0,3.3,1.342,3.3,3.914v17.111a.74.74,0,0,0,.727.727h4.026c2.013,0,3.131-1.845,3.746-3.243a60.409,60.409,0,0,0,2.572-8c3.971,7.941,7.773,11.855,15.377,11.855a13.449,13.449,0,0,0,8.052-2.684v1.286a.693.693,0,0,0,.671.727h8.947a.74.74,0,0,0,.727-.727V169.4c0-3.02.615-6.039,1.454-6.039s1.51,3.02,1.51,6.039v2.852a.693.693,0,0,0,.671.727h9a.74.74,0,0,0,.727-.727v-9.73l7.325,9.954a.688.688,0,0,0,.559.28h4.473c1.51,0,3.243-.839,5.032-2.516.391-.391.783-.783,1.174-1.23a25.982,25.982,0,0,0,14.259,4.641c5.759,0,10.177-2.4,13.811-7.045,4.642,3.075,6.6,4.026,6.487,6.319v.224h9.114V156.766c0-3.69,1.957-5.759,4.865-5.759,2.852,0,3.914,1.342,3.914,4.641v17.5H456.9V156.822c0-3.579,1.957-5.815,4.865-5.815,2.964,0,4.138,1.342,4.138,4.7v17.558h9.058V152.684C474.966,147.036,471.331,142.675,465.4,142.675ZM323.262,171.64h-3.3V155.2c0-3.69-1.454-5.368-4.753-5.368-3.467,0-5.48,2.852-5.48,6.43v15.266h-7.549v-16.44c0-3.411-1.286-5.256-4.529-5.256-3.467,0-5.48,2.684-5.48,6.43v15.266h-7.493V143.737H292v3.075a.719.719,0,0,0,1.286.447c.5-.5,3.243-4.138,7.661-4.138a8.266,8.266,0,0,1,7.605,4.306.6.6,0,0,0,.5.391c.447,0,.559-.168.951-.559,3.02-3.02,4.473-4.138,8.723-4.138,5.424,0,8.667,3.914,8.667,9.114a21.954,21.954,0,0,0,1.342,7.381C326.393,167.782,325.5,171.64,323.262,171.64Zm29.916-16.328a.749.749,0,0,0,.783.447.671.671,0,0,0,.615-.671v-7.045a10.966,10.966,0,0,1,1.678,5.983c0,5.7-4.25,10.233-9.338,10.233-3.858,0-5.983-3.132-5.983-6.654a6.019,6.019,0,0,1,6.263-6.263C351.388,151.342,352.786,154.082,353.178,155.312Zm22.087,16.216h-7.549V169.4c0-3.131-.615-7.493-2.908-7.493-2.349,0-2.908,4.641-2.908,7.493v2.125h-7.493V169.4a.715.715,0,0,0-1.23-.5,11.564,11.564,0,0,1-8.22,3.355c-4.194,0-6.822-1.062-9.338-3.8a27.615,27.615,0,0,1-5.368-8.891c2.74-9.338,6.6-16.439,15.154-16.439a10.31,10.31,0,0,1,7.716,3.131v6.095a7.942,7.942,0,0,0-5.927-2.46,7.48,7.48,0,0,0-7.661,7.716c0,4.529,2.908,8.108,7.381,8.108,5.983,0,10.792-5.368,10.792-11.687a12.313,12.313,0,0,0-3.132-8.332v-1.957h7.27v6.43c0,5.983,1.566,10.96,6.207,10.96,2.125,0,3.97-1.566,5.368-3.075l1.845,2.516Zm0-13.364-.895-1.23.895-1.174Zm0-4.753-1.789,2.293-.783-1.062c-3.411-4.585-4.865-6.766-4.865-11.631v-6.543h7.437ZM389.077,171.3h-4.138l-8.22-11.184v-6.207l7.941-10.177h8.835l-10.512,12.246a.757.757,0,0,0,0,.951l2.125,2.684a46.4,46.4,0,0,0,9,8.612C392.208,170.242,390.475,171.3,389.077,171.3Zm20.466.951a24.179,24.179,0,0,1-13.253-4.306c.783-.951,1.566-2.013,2.4-3.243a48.016,48.016,0,0,0,5.368-10.009h10.513a.723.723,0,0,0,.671-.951c-1.174-3.187-3.02-4.585-5.983-4.585-3.02,0-4.809,1.174-6.151,4.138h-7.437a13.727,13.727,0,0,1,13.644-10.177c8.835,0,13.7,6.151,13.7,15.321v1.007H403.112a.781.781,0,0,0-.671.895c.783,3.579,3.635,5.7,7.549,5.7,2.908,0,4.921-1.845,6.486-3.8l5.648,3.635C418.825,169.963,414.631,172.255,409.543,172.255ZM404.734,153.3a4.4,4.4,0,0,1,4.529-2.74,4.252,4.252,0,0,1,4.25,2.74Zm10.96,7.6c-1.454,1.957-3.187,3.691-5.7,3.691-2.908,0-5.033-1.342-5.928-3.691Zm14.147,8.587a26.818,26.818,0,0,0-5.648-4,42.59,42.59,0,0,0,5.648-12.036Zm113.568-26.256h-10.96l-8.556,10.792V135.853h-9.059v37.3h9.059V161.071c.671.895,8.947,12.078,8.947,12.078h11.407l-12.637-16.1Z" transform="translate(-283.281 -135.014)"/></svg>