<svg xmlns="http://www.w3.org/2000/svg" width="103" height="34.49" viewBox="0 0 103 34.49"><defs><style>.a{fill:#3296b8;}.b{fill:#fec658;}.c{fill:#ce1141;}.d{fill:#fff;}</style></defs><rect class="a" fill="#3296b8" width="34.359" height="34.49"/><path class="a" fill="#3296b8" d="M1329.3,1009.028" transform="translate(-1314.022 -992.768)"/><rect class="b" fill="#fec658" width="34.36" height="34.49" transform="translate(34.281)"/><path class="b" fill="#fec658" d="M1353.8,1009.028" transform="translate(-1304.239 -992.768)"/><rect class="c" fill="#ce1141" width="34.36" height="34.49" transform="translate(68.64)"/><path class="c" fill="#ce1141" d="M1378.422,1009.028" transform="translate(-1294.406 -992.768)"/><path d="M1344.8,1010.5c-.106-.331-.26-.591-.344-.91-.3-.319-.332-.827-.6-1.158.035-.3-.273-.368-.249-.651h-.06c-.284-.472-.45-.98-.735-1.454a6.92,6.92,0,0,0-.627-.91c-.344-.614-.782-1.24-1.174-1.867a5.924,5.924,0,0,0-.651-.876c.024-.2-.154-.188-.167-.377-.213-.4-.7-.284-1.138-.307-.083.07-.178.212-.319.2-.379.651-1.008,1.088-1.363,1.786-.107.188-.273.485-.486.567.011.2-.13.33-.249.485a.882.882,0,0,0,.106.732c.154.118.26.319.379.4-.106.012-.024.2-.178.142-.071.072-.178.189-.249.248.036.167-.2.131-.141.285-.06.307-.439.142-.569.142-.225.106-.356-.177-.6-.084-.046-.176-.343.012-.39-.165-.1-.036-.332.072-.379-.083-.308.059-.51-.129-.817-.059-.106-.189-.462.012-.546-.177v.036c-.035-.07-.26.023-.308-.083-.473.036-.817-.2-1.2-.118v-.059h-.83l-.048-.083a4.7,4.7,0,0,1-1.112-.059c-.048.107-.143-.083-.143.059-.071-.023-.19.048-.225-.059-.119.107-.51.036-.628.059a3.649,3.649,0,0,0-1.339.023v.059a1.876,1.876,0,0,0-1.16.91c-.061.023-.107.036-.084.118a3.228,3.228,0,0,0-.319.709c-.13.2.035.567-.143.734.037.284-.059.508-.024.792-.13.461-.2.921-.366,1.359-.249.012-.249.26-.486.284-.036.237-.344.2-.427.4-.154-.036-.167.178-.321.165a2.04,2.04,0,0,1-.39.4c-.048.036-.059.19-.178.165-.083.178-.2.379-.308.569h.024c.094.33.178.686.26.969a3.236,3.236,0,0,0,.308,1.395c.083.011.249.07.26.165h.084c.035.011.035.059.035.083.047.011.106-.023.143.036a3.946,3.946,0,0,0-.06,1.748,3.56,3.56,0,0,0,.509.745c.047.059.2-.023.167.106.141.059.308.059.4.178.213-.07.319.118.544.059.167.154.485.048.735.083a2.657,2.657,0,0,0,.4,1.561c.071.189.331.33.39.508a.108.108,0,0,1,.142.083c.3-.012.332.237.629.224a1.975,1.975,0,0,0,1.018-.248c.178.354.2.614.344.957.13.019.139.153.2.243a.738.738,0,0,0,.322.272,1.655,1.655,0,0,0,.985.029,5.832,5.832,0,0,0,1.1-.211c.781-.222,1.625.116,2.313-.3a3.353,3.353,0,0,0,.539-.408,3.653,3.653,0,0,0,.556-.553,4.642,4.642,0,0,1,.541-.712c.172-.161.335-.333.509-.493s.41-.272.6-.424.294-.355.528-.421c.084-.025.024-.167.142-.142.178-.226.451-.343.664-.568.119-.236.4-.307.533-.567.19-.034.238-.284.4-.33.024-.119.2-.119.2-.237.438-.472,1.031-.886,1.162-1.642.024-.142.2-.165.2-.307-.095-.273-.047-.556-.119-.768.024-.167.237-.036.284-.119.3.047.3-.3.546-.307a.064.064,0,0,1,.083.083h.083c.048,0,.119-.013.119.059h.2c0,.2.32.094.45.083v-.059a3.456,3.456,0,0,0,1.647-.851c.189-.084.356-.343.545-.332.056-.2.25-.277.389-.4a.457.457,0,0,0,.1-.118A5.416,5.416,0,0,0,1344.8,1010.5Z" transform="translate(-1316.451 -995.421)"/><path class="d" fill="#fff" d="M1331.3,1010.716l.007-.011a.228.228,0,0,1,.18.011Z" transform="translate(-1313.224 -992.142)"/><path class="d" fill="#fff" d="M1325.642,1013.525c.379.011.119-.332.119-.484a8.3,8.3,0,0,0-.6-1.868c-.1-.2-.167-.461-.331-.567-.345.307-.689.531-1.032.851-.143.485.13.875.178,1.324.047.165,0,.413.143.485.035.023.022.059.022.083h.084a.114.114,0,0,1,.141.059c.013.024.214.2.344.059A3.535,3.535,0,0,0,1325.642,1013.525Zm14.017.248-.011.017C1339.644,1013.822,1339.645,1013.825,1339.659,1013.773Zm1.314-3.227a5.213,5.213,0,0,0-.343-.686c-.368-.425-.616-1.064-1.019-1.442-.273-.461-.5-.768-.771-1.194a7.681,7.681,0,0,1-.913-1.111c-.26-.154-.4-.474-.651-.592-.012.107-.119.083-.2.083-.108.154-.32.2-.309.4a8.8,8.8,0,0,1,1.245,1.585c.391.756.947,1.6,1.255,2.387.119.544.533.756.735,1.241.332.131.249.77.711.568a1.7,1.7,0,0,0,.6-.592A2.294,2.294,0,0,0,1340.973,1010.546Zm-1.03,2.152c-.106-.131-.013-.355-.083-.508a2.617,2.617,0,0,0-.427-.734c-.167.036-.143-.189-.225-.237-.071-.07-.1-.189-.2-.225a12.519,12.519,0,0,1-1.079-1.926,6.406,6.406,0,0,0-.592-1.052,4.705,4.705,0,0,0-.806-1.159c-.284-.083-.284-.413-.652-.366-.046-.011-.141.025-.141-.059l-.368-.059v-.023l-.366-.059v-.034c-.059,0-.237.023-.26-.108a2.43,2.43,0,0,1-.8-.118c-.106-.023-.284.072-.308-.083-.4.1-.651-.165-1.03-.118v-.047c-.2-.023-.463.047-.593-.059-.486.059-.7-.106-1.173-.083v-.059h-1.138c-.308-.271-.557.154-.936-.034v-.025l-.343-.059v-.059c-.19.036-.5-.07-.593.095-.041.025-.075-.023-.085-.04l0,0c-.072.1-.191.048-.284.059v.059c-.284-.047-.332.272-.6.248a1.157,1.157,0,0,1-.427.4,3.749,3.749,0,0,0-.107.734c-.106.544-.249.957-.32,1.513a8.246,8.246,0,0,1-.248.934c-.024.378-.379.827-.084,1.217.024.19.167.332.167.567a9.043,9.043,0,0,1,.46,1.513,5.24,5.24,0,0,0,.227.7c.273.295.486.153.936.178v-.059c.119,0,.094-.131.225-.083-.084-.154.141-.167.141-.319a3.434,3.434,0,0,0,.049-.414,3.719,3.719,0,0,0-.309-1.714c-.048-.26-.249-.366-.143-.673a1.385,1.385,0,0,1,.427-.237c.214.059.214-.153.427-.106a7.554,7.554,0,0,1,.995-.65c-.011-.154.154-.214.262-.237l.366.745c.083.154.2.271.284.425s.273.248.4.366a3.053,3.053,0,0,0,1.528.993c.013.131.238-.034.2.142.084.012.19-.023.262.025v.059c.106,0,.248-.012.284.083,0-.025-.013-.059.024-.083a.087.087,0,0,1,.035.083c.083.011.178-.025.249.035v.025c.509-.059,1.172.142,1.5-.167.273.048.486-.176.771-.059v.025h.083v.035c.178-.035.237.131.284.224.106.213-.071.273-.047.485-.087.041-.125.12-.183.178a.236.236,0,0,1-.2.071c-.094.165-.39.059-.592.094a.1.1,0,0,1-.083-.094.331.331,0,0,1-.222-.071h-.187c-.088.138-.318.048-.479.071-.012.13-.143.083-.225.094-.214-.153-.486-.07-.771-.058-.05-.112-.2-.059-.277-.107a.082.082,0,0,1-.031-.036l-.343-.058v-.059c-.1-.012-.2.023-.284-.025-.084-.117-.262-.106-.368-.224-.26-.023-.32-.354-.568-.284-.084.1-.072.237-.119.366-.164.121-.159.22-.1.319s.162.191.221.308c.046.058.011.2.118.189a1.961,1.961,0,0,1-.035.827h.2c.048.188.319-.012.367.165.036,0,.1.023.119-.023.072.083.26-.012.249.142a.89.89,0,0,1,.52.307.487.487,0,0,1,.286.379c.117.319-.108.567-.119.874a3.2,3.2,0,0,1,.856.485l.08.059c.035.129.141.154.225.224a1.491,1.491,0,0,1,.284,1.526l-.106.059c-.061.235-.332.366-.51.426-.1.177-.273-.1-.286.034-.024-.023-.047-.034-.035-.058a.217.217,0,0,1-.249-.118c-.141-.284.225-.45.331-.675a1.1,1.1,0,0,0-.106-.8,2.239,2.239,0,0,0-.77-.568.179.179,0,0,0-.161-.106c-.122-.011-.263.036-.325-.118.035-.106.035-.248.118-.307.178-.366-.071-.662-.225-.91a.815.815,0,0,1-.462-.165l-.592.023c-.154.024-.321-.142-.368,0-.024-.023-.071-.047-.059-.083l-.059.059-.119-.119a.535.535,0,0,1,.059-.544.683.683,0,0,0-.165-.591,2.582,2.582,0,0,1-.368-.343h-.178c-.273-.154-.639-.059-.96-.083-.024.083,0,.224-.094.26-.071.07.059.2-.108.189v.118c-.189.094-.094.413-.4.366-.214.319-.676.118-1.021.177-.319-.012-.343-.4-.711-.26v.059c-.046.047-.118.011-.177.024v.059c-.189,0-.26.2-.449.118-.214.165-.676-.107-.734.33a1.228,1.228,0,0,0,.331,1.312c.154-.047.165.072.284.106a1,1,0,0,1,.379.2c.106.036.3-.07.332.083h.177a.172.172,0,0,0,.039.036c.114.076.254-.041.328.106.89.036.072,1.088.487,1.538.047.165.189.248.248.366.108-.036.072.083.119.118.143.034.191.142.308.224.1.011.214-.025.284.024v.036c.048-.084.1.023.119.023.024-.154.249-.059.368-.083-.036-.107.106-.059.117-.118a1.416,1.416,0,0,1,.308-.142c.1-.249.487-.178.569-.391.213-.058.284-.248.509-.259v-.059c.024-.048.083-.012.119-.025v-.058c.011-.036.059-.025.083-.025v-.059c.035-.047.095-.023.141-.023.036-.153.214-.047.262-.235.249-.025.3-.26.509-.332.059-.106.141-.177.284-.095.284.036.178.414.2.6-.13.167-.189.415-.427.391v.059c-.024.059-.083.024-.118.035v.048c-.19.059-.309.248-.535.26-.236.259-.592.295-.8.544-.13.33.117.532.117.815a.159.159,0,0,1,.06.142c.178.781.794.07,1.3.224.368-.013.57-.2.971-.142v-.047c.261.023.463-.165.676-.178a1.049,1.049,0,0,0,.889-.083,1.115,1.115,0,0,0,.392-.343c.224-.048.284-.224.425-.343a1.074,1.074,0,0,1,.238-.224v-.059c.011-.036.047-.023.083-.023.047-.2.237-.284.366-.45.221-.469.722-.738,1.1-1.051a5.555,5.555,0,0,0,.768-.71,4.606,4.606,0,0,0,.4-.284.446.446,0,0,1,.284-.26,2.869,2.869,0,0,1,.4-.425,1.97,1.97,0,0,0,.368-.449,4.229,4.229,0,0,0,.949-1.154c.015-.12.124-.664.152-.607.1-.131.2-.319.1-.45l.013-.023C1339.918,1012.7,1339.928,1012.689,1339.943,1012.7Zm-11.482-1.479c-.083.378.26.615.143.97-.024.094.011.235.165.224s.392-.118.6,0c.1-.131.39.034.474-.142a.773.773,0,0,0,.2-.876c-.119-.212-.32-.224-.392-.485-.237-.153-.462-.059-.746-.083v.059c-.238-.047-.284.2-.533.106C1328.39,1011.077,1328.332,1011.208,1328.462,1011.219Z" transform="translate(-1316.236 -994.134)"/><path d="M1333.348,1011.079c.236-.036.236.142.344.26-.084.189-.154.591-.427.614l-.486.036c0-.131-.167-.048-.2-.118-.19-.119-.462-.3-.308-.627a1.334,1.334,0,0,1,1.018-.248Z" transform="translate(-1312.853 -992.032)"/><path d="M1372.739,1010.409c-.734-1.549-.964-3.406-1.828-4.953a9.005,9.005,0,0,0-.551-1.354c-.207-.1-.252-.458-.379-.652-.414-.426-.459-1.009-1.023-1.239-.022-.138-.194-.1-.218-.218h-.092c-.126-.045-.287-.058-.356-.172-.2-.092-.057.161-.2.172-.035-.023-.022-.058-.022-.092-.115.161-.391.058-.575.092v.046c-.093.058-.207.023-.311.034v.058c-.24-.08-.172.241-.413.16-.1.081-.2.161-.3.253l-.057-.092a.12.12,0,0,1-.139.092v.045c-.276.034-.183.218-.436.275.013.16-.252.114-.229.276-.057-.013-.252.183-.379.275a2.069,2.069,0,0,0-.39.779c-.161-.023-.161.149-.333.1-.2.16-.437.252-.5.527a.712.712,0,0,0-.194.688c.333.239-.1.4-.243.573a4.189,4.189,0,0,1-.769.058c-1.045.114-2.207.011-3.23.08-.046,0-.092-.046-.079-.08h-1.058a.1.1,0,0,1-.08-.081c-.507.058-.921-.1-1.4-.08v-.034l-.61-.058v-.022c-.172-.023-.425.069-.529-.081-.333.092-.448-.183-.792-.08a.083.083,0,0,1-.035.08l-.046-.08v.045a1.055,1.055,0,0,0-.781.275c-.3-.045-.311.31-.553.333v.056c-.241.081-.287.288-.516.391.035.183-.161.125-.218.218a4.086,4.086,0,0,1-.747.79c.046.15-.08.15-.115.253-.172.172-.379.286-.552.47.034.275-.15.4-.161.654a1.463,1.463,0,0,1-.553.366v.047c-.022.057-.08.022-.115.034v.056c-.022.047-.069.012-.1.023v.058c-.045.046-.115.011-.172.022a2.333,2.333,0,0,1-.437.39.58.58,0,0,0-.494.333c-.068.034.023.194-.115.16a2.548,2.548,0,0,0,.057.8h.057c.047.047.011.127.023.184a1.106,1.106,0,0,1-.39.31c.011.08-.15.068-.046.16l-.413.275c-.063.124-.213.213-.315.315a.451.451,0,0,0-.077.1c-.218.08-.229.3-.413.413-.092.035-.024.229-.161.218.034.194-.288.194-.2.366-.425.448-.666,1.02-1.1,1.56a1.736,1.736,0,0,1-.277.5,1.573,1.573,0,0,0-.033,1.618c.068.377.425.435.723.549a4.913,4.913,0,0,1-.69,1.1h-.057v.057c-.033.034-.033.116-.115.081a.834.834,0,0,1-.322.446.994.994,0,0,0,.081.768c.068.116.172.161.241.333h.057c.046.194.185.263.357.379.046.046.023.114.115.08.035.023.022.058.022.092.2-.035.253.1.392.137.344-.034.77.057,1.023-.092.069-.023.23-.183.3-.023-.022.207.218.31.172.527a1.191,1.191,0,0,0,.875.516v.058l1.08-.023.057.3a1.071,1.071,0,0,0,.77.71c.069.114.229.045.276.138.333.114.575-.1.943-.1.194-.058.366-.241.6-.252v-.058c.033-.045.091-.011.137-.023.035-.08.15-.16.2-.218a1.182,1.182,0,0,0,.529-.413c.3-.205.609-.412.908-.63.068-.057.057-.218.194-.172a2.053,2.053,0,0,0,.3-.332c.265-.241.54-.321.748-.63.424-.3.862-.814,1.321-1.158.035-.161.23-.183.253-.321a.761.761,0,0,1,.77-.275V1019a.485.485,0,0,1,.357,0v.058c.161-.138.345-.092.448-.2.357.161.609-.172,1.045-.138v-.08a1.981,1.981,0,0,0,.714-.172c.344-.011.609-.31.964-.355a.158.158,0,0,1,.139-.058V1018c.046-.047.115-.012.172-.023v-.058c.172-.034.3-.114.5-.16,0-.034-.013-.069.022-.081a9.119,9.119,0,0,0,1.045-.641,14.137,14.137,0,0,0,1.851-1.95c.114-.091.091-.252.252-.3.1-.562.621-.768.932-1.192h.091v-.047c.1,0,.092-.125.218-.091.1-.127.288-.116.357-.275.137-.034.24-.148.413-.1v-.058c.023-.045.07-.022.116-.022.011-.184.252.011.276-.172a.52.52,0,0,1,.516.218,2.008,2.008,0,0,0,.667.2c.194-.15.194.16.414.057v-.057l.516-.058v-.023a1.388,1.388,0,0,0,.793-.43,5.587,5.587,0,0,1,.759-.694l-.035-.034a3.253,3.253,0,0,1,.529-.516c.046-.035.011-.149.115-.114.069-.218.242-.321.357-.527C1372.958,1010.706,1372.808,1010.512,1372.739,1010.409Z" transform="translate(-1307.54 -995.491)"/><path class="d" fill="#fff" d="M1367.188,1011.069c-.183-.218-.241-.505-.437-.768a2.5,2.5,0,0,0-.333-.625,1.119,1.119,0,0,1-.115-.257,5.628,5.628,0,0,1-.379-.665c-.184-.092-.15-.447-.39-.551-.057-.092-.092-.241-.2-.275-.011-.241-.218-.355-.3-.551-.242-.252-.392-.687-.668-.928a2.55,2.55,0,0,0-.551-.8c-.183.034-.287.16-.46.217-.022.183-.264-.011-.276.172l-3.01.023h-.162a7.045,7.045,0,0,0-1.08-.058c-.08-.069-.229.034-.3-.08h-1.023c-.046,0-.092-.047-.081-.081l-.666-.022v-.058a12.313,12.313,0,0,1-1.356-.08v-.034c-.15-.012-.344.045-.46-.058-.091.114-.287.023-.367.092a.812.812,0,0,0-.242.16c-.035.047-.092.023-.138.023a1.886,1.886,0,0,0-.47.366c-.024.047-.07.012-.115.023-.242.3-.449.585-.736.883-.1.161-.322.288-.39.471-.231.1-.368.355-.529.516-.069.091.035.241-.081.308-.022.241-.309.253-.413.436a5.173,5.173,0,0,1-.851.551c-.063.157-.29.132-.371.257a.146.146,0,0,0-.02.04c-.023.058-.092.023-.138.034v.058c-.022.046-.092.011-.137.022-.057.15-.264.034-.242.253-.08.412.264.584.46.825.241-.125.333.219.448.1.011.023.035.034.022.058.1.023.276-.069.311.08.15.08.1-.138.242-.08a.06.06,0,0,1,.08.08h.057v-.057c.115.022.2-.161.218-.047.035-.022.046-.069.093-.057.011.011.035.022.022.057l.058-.114c.138,0,.161-.114.3-.114-.011-.138.15-.047.172-.161a1.292,1.292,0,0,0,.494-.469c.227-.1.308-.392.54-.511l.012-.005.005.005h.123a.169.169,0,0,1,.169-.1c.024-.172.276.023.311-.16.161,0,.3-.207.518-.138v-.058a2.466,2.466,0,0,1,.494-.2c.057-.149.276-.16.448-.16v-.058c.022-.046.092-.011.139-.022.011.022.068.046.057.08.194.011.229.23.3.39.115-.035.126.058.2.1a3.115,3.115,0,0,1,.343.315.528.528,0,0,1,.07.132c.185-.024.288.229.438.218.069.045.08.1.115.161.206-.1.276.194.437.138.046.011.115.056.08.114h.092c.046-.011.057.045.046.08h.092a.062.062,0,0,1,.08.08c.092.012.2-.022.276.034v.047h.081c.058,0,.137.011.115.091.093.024.252-.069.276.081l.1-.081c.069.172.391-.022.448.161-.011-.035.035-.058.046-.08.137.16.414.045.586,0a.832.832,0,0,1,.161.435c-.126.127-.069.471-.333.471-.013.149-.231.056-.357.08,0,.034.011.069-.023.08a.173.173,0,0,1-.2-.08c0,.034.011.069-.023.08-.139-.149-.425-.045-.644-.08-.081-.1-.276-.034-.414-.058a1.382,1.382,0,0,0-.69-.241c-.115-.138-.3-.16-.379-.31-.414-.091-.551-.459-.908-.6-.08-.034,0-.205-.137-.138-.2-.274-.426-.377-.644-.641a6.775,6.775,0,0,1-1.047.471c-.08.171-.3.114-.413.252-.139-.012-.161.114-.3.1a1.956,1.956,0,0,1-.391.47c-.011.034-.046.034-.081.034-.091.241-.39.183-.494.413-.322.023-.62.332-1.023.218-.148-.011-.287.138-.436.023-.161.034-.391-.069-.472.08-.252-.207-.712-.241-.942-.493-.311.172-.472.551-.827.745a10.791,10.791,0,0,0-.989,1.1,1.871,1.871,0,0,1-.228.493,10.335,10.335,0,0,0-.817,1.181c-.172.091-.15.366-.311.469.011.138-.1.161-.137.252.022.161-.046.368.057.493a.94.94,0,0,1,.3.3c.057.069.207-.023.231.092a.534.534,0,0,1,.494,0c.1.149.265.252.276.458a2.947,2.947,0,0,1-.445.843c-.224.306-.489.584-.739.866a1.389,1.389,0,0,0,.218,1.077c.15.138.459.034.551.161l.058-.08c.15-.047.345-.092.379-.3.242-.011.253-.332.551-.252.1.08.218.034.277.16.286.058.32.379.391.609.046.344.4.516.609.768.2-.045.632.114.712-.138.035-.045.115-.011.161-.023.1-.056.1-.217.253-.217a4.906,4.906,0,0,1,.712-.493,4.69,4.69,0,0,0,.529-.389c-.022-.218.3-.092.3-.275.022-.046.08-.023.115-.023-.057-.207.206-.194.252-.275.013-.034.046-.034.081-.034v-.057c.161.011.195-.183.333-.183v-.092c-.011-.058.057-.045.1-.045.15-.333.459-.357.633-.665a.337.337,0,0,0,.038-.1c.02-.063.048-.128.134-.121.08-.275.287-.458.3-.687a9.031,9.031,0,0,0,.828-.585c.183-.011.137-.183.311-.218v-.058c.138.011.161-.2.3-.183v-.058c.161,0,.126-.206.253-.252a.417.417,0,0,1,.437.172h.079c.276.688-.527.859-.792,1.261a1.2,1.2,0,0,0-.253.218c-.28.023-.431.253-.546.511-.061.133-.112.274-.167.4h-.057a5.856,5.856,0,0,1-.724.86,2.909,2.909,0,0,0-.735.63,1.276,1.276,0,0,0-.334.218c-.057.138-.206.058-.252.218-.288.023-.379.275-.575.413-.1-.023-.115.058-.172.092-.218.172-.437.308-.655.458-.127.069-.264.16-.275.275.08.228.263.332.379.469.08.023.184-.046.229.058a1.172,1.172,0,0,0,.6-.058.538.538,0,0,1,.414-.161c.091-.171.24-.194.333-.332.229.114.115-.286.355-.161v-.057c.207-.081.276-.172.449-.253-.1-.24.172-.08.218-.24.207-.115.229-.322.413-.471.311.046.346-.286.61-.31a2.574,2.574,0,0,1,.437-.355c.161-.1.183-.241.355-.275.035-.207.207-.252.335-.379-.07-.286.333-.114.309-.39a1.368,1.368,0,0,0,.367-.647,1.454,1.454,0,0,1,.231-.453c.116.011.185-.149.253-.023a4.263,4.263,0,0,1,1.023-.091c.057-.069.138-.023.2,0a2.294,2.294,0,0,1,.827-.161c.011-.183.31.011.357-.161.344-.022.609-.149.849-.172a.664.664,0,0,0,.471-.194c.185.023.253-.127.391-.183.242.069.277-.23.5-.172a6.615,6.615,0,0,1,.849-.436c-.022-.172.207-.011.218-.138.046-.138.161-.229.277-.194.183-.2.413-.275.586-.493a1.269,1.269,0,0,0,.379-.31v-.045a1.215,1.215,0,0,0,.276-.253c.022-.125.195-.08.172-.252a.686.686,0,0,0,.334-.355.985.985,0,0,1,.137-.2c.194-.125.1-.5.379-.573.033-.058-.013-.2.114-.161.069-.183.265-.286.413-.389.024-.069.046-.207.161-.16.024-.241.333-.047.333-.31l.024.035.333-.252c.185.091.15-.184.333-.081.046-.172.311-.091.392-.252C1367.315,1011.321,1367.13,1011.241,1367.188,1011.069Zm1.023-1.708c-.115-.161-.217-.333-.333-.493-.022-.379-.39-.688-.574-.986-.046-.413-.392-.6-.5-1h-.057c0-.217-.218-.217-.218-.413-.149-.046-.1-.274-.229-.3-.1-.149-.137-.3-.241-.471a1.257,1.257,0,0,1-.449-.573c-.1-.024-.126-.218-.183-.252-.022-.047-.081-.081-.058-.138-.184-.045-.092-.206-.218-.3-.139,0-.057-.207-.2-.229.046-.217-.379-.161-.414-.047-.194,0-.091.3-.194.379v.138a.78.78,0,0,0,.161.218.1.1,0,0,1,.034.092c.127-.034.07.149.161.138a5.63,5.63,0,0,1,.311.516,3.8,3.8,0,0,1,.713.962c.127.413.414.458.495.861.126,0,.091.161.137.241.241.057.207.355.357.47,0,.2.206.149.172.355a1.76,1.76,0,0,1,.276.413,16.4,16.4,0,0,1,.828,1.685c.183.206.194.494.355.712l.139-.058c.333.045.333-.138.494-.332C1368.74,1010.438,1368.464,1009.9,1368.211,1009.36Z" transform="translate(-1307.263 -994.638)"/><path d="M1357.961,1007.472a.1.1,0,0,0,.08.091.826.826,0,0,1,.633.551c-.08.149.172.241,0,.355.185.172.242.424.449.551.023.263.379.459.435.745.1.31.5.643.253,1.009a.567.567,0,0,1-.413.2c-.024-.058-.07-.1-.139-.081a4.131,4.131,0,0,0-.69-1.123,5.553,5.553,0,0,0-.494-.779c-.172-.161-.448-.436-.609-.6a.882.882,0,0,1,.022-.779C1357.686,1007.6,1357.743,1007.425,1357.961,1007.472Z" transform="translate(-1302.806 -993.357)"/><path d="M1351.568,1010.2c.011-.034.046-.034.08-.034.161.218.438.5.277.8-.035.011-.092-.023-.116.022v.058c-.183-.045-.286.218-.413,0-.2.034-.276.207-.357.333-.161.114-.356.16-.356.412h-.081c-.54.54-1.1,1.1-1.574,1.594-.172-.046-.1.241-.275.2a3.117,3.117,0,0,0-.333.355c-.2.149-.265.263-.438.379.012.229-.287.24-.413.308-.011-.149-.172-.034-.218-.138a.621.621,0,0,1-.138-.469c.092,0,.057-.114.1-.161a1.336,1.336,0,0,0,.575-.527c.241-.022.194-.263.413-.355s.253-.413.507-.469v-.047c.207-.033.229-.263.355-.366l.242-.241c.137-.058.183-.229.276-.31.126.058.1-.08.139-.137a3.3,3.3,0,0,0,.333-.355,4.578,4.578,0,0,0,.666-.825c.093-.012.139-.15.2-.219A.639.639,0,0,1,1351.568,1010.2Z" transform="translate(-1306.872 -992.405)"/><path d="M1353.986,1011.508a.467.467,0,0,1-.034.6c-.115.263-.586-.069-.632.31l-.115.056c-.15.286-.483.436-.655.712-.231-.012-.207.228-.334.3a4.252,4.252,0,0,1-.551.448c-.15.172-.355.344-.494.493-.035.011-.093-.023-.115.024v.057c-.024,0-.069,0-.081.034v.047c-.3.125-.4.435-.666.549-.046.023-.011.081-.023.116-.07.069-.231,0-.218.138-.035,0-.07-.012-.081.022v.058a.1.1,0,0,0-.092.035c-.034.194-.345.1-.379.355a4.128,4.128,0,0,0-.77.63c-.057,0-.218-.045-.229.08h-.379c-.1-.08-.127-.252-.2-.379.035-.067.057-.24.161-.252.069-.183.311-.16.391-.355.057-.011.127.023.161-.035a.7.7,0,0,0,.174-.218,6.5,6.5,0,0,0,.631-.493c.207-.081.31-.344.553-.413.08-.161.355-.2.413-.413a1.914,1.914,0,0,0,.471-.39c.287-.149.391-.448.69-.573a3.416,3.416,0,0,1,.494-.574l.022.024c.3-.436.8-.779,1.138-1.239A.841.841,0,0,1,1353.986,1011.508Z" transform="translate(-1306.577 -991.935)"/><path d="M1397.057,1009.378c-.043-.1.011-.248-.129-.289-.074-.442-.238-.757-.348-1.2-.193-.1-.094-.365-.174-.563a.3.3,0,0,0-.1-.135c-.108-.242-.215-.46-.311-.724a1.285,1.285,0,0,0-.206-.436c-.224-.27-.19-.742-.526-.935.011-.235-.159-.4-.232-.6-.1-.169-.238-.246-.241-.436-.146-.185-.192-.459-.4-.587-.172-.127-.075-.417-.311-.475.1-.434-.365-.289-.347-.691-.022-.025-.14-.066-.1-.146a.891.891,0,0,0-.39-.3c-.043.176-.354-.028-.434.146-.22-.1-.232.179-.454.062-.116.219-.467.121-.586.376-.2-.057-.187.2-.376.183-.072.281-.413.194-.54.4-.155.017-.21.167-.34.184l0,.083c-.193.062-.1.385-.337.376a1.424,1.424,0,0,0-.2.76c.006.142.21.317,0,.426-.217.061-.276.295-.413.442-.292.176-.325.6-.662.727a.7.7,0,0,0-.167.537,3.477,3.477,0,0,0-.3.4.419.419,0,0,1-.376.16l0,.059c-.109.054-.238.012-.346.019v.048a.1.1,0,0,1-.085.032c-.052-.157-.269-.072-.4-.1-.081.209-.187-.056-.344-.015v.047c-.014.034-.049.033-.084.031-.011-.025-.035-.037-.022-.061-.1.043-.29-.143-.346.044l-.056-.085c-.1-.006-.223-.035-.263.07-.01-.036-.057-.05-.043-.085-.117-.017-.25.012-.342-.051l0-.059-.18.087-.044-.1-.122.054v-.025l-.447-.08v-.023l-.625-.063a.571.571,0,0,0-.461-.045,3.121,3.121,0,0,1-.909.183l0,.059c-.26-.023-.374.124-.631.054l0,.059c-.061.044-.154,0-.225.012l0,.059c-.06.046-.154.017-.237.012l0,.059c-.2,0-.323.069-.538.059l0,.058c-.085.056-.19.015-.286.023.028.179-.213-.022-.208.156-.064-.157-.087.067-.2-.01l0,.059c-.049.045-.13.005-.2.015a.456.456,0,0,1-.434.121v.059c-.027.047-.1.019-.144.018l0,.058c-.027.058-.1.019-.143.029l0,.048c-.048.01-.112.1-.168.027,0,.024.01.072-.027.081-.1-.029-.16.123-.187.216-.207.109-.293.413-.418.584.01.3-.269.4-.269.662a4.223,4.223,0,0,0-.376.978c-.126.147-.081.469-.341.446-.1.172-.427,0-.464.285a1.577,1.577,0,0,0-.667.313.341.341,0,0,0-.236.132.285.285,0,0,1-.3.092c-.011.271-.3.175-.462.263a.292.292,0,0,1-.269.165l0,.059c-.014.035-.049.021-.084.019l0,.059c-.165-.032-.256.154-.354.208-.025.047-.1.019-.143.018a4.281,4.281,0,0,1-.676.489c.038.24-.177.277-.324.376-.115.172-1.816,1.064-1.942,1.2-.177-.032-.13.255-.273.271l0,.047a3.725,3.725,0,0,0-.635.421c-.058.186-.271.212-.3.388-.2.085-.337.387-.566.458a2.874,2.874,0,0,0-.028,1.325c.02.087.043.177.073.275.251.237.424.564.876.549l0,.059c.2-.026.327.109.543.072.141-.23,2.089-.815,2.186-1.094a4.92,4.92,0,0,0,.916-.478,5.331,5.331,0,0,1,.749-.4,3.378,3.378,0,0,1,.67-.372c.116-.219.366-.231.505-.427a8.391,8.391,0,0,1,1-.615c.048.025.008.083.018.118a1.518,1.518,0,0,0-.386.432c-.236-.023-.233.414-.506.438a12.579,12.579,0,0,1-.953.832l-.046.045a1.6,1.6,0,0,1-.484.416l0,.059c-.027.045-.072.008-.108.018l0,.059c-.027.047-.084.019-.12.018-.028.117-.16.135-.21.191-.028.106-.058.223-.21.168-.383.61-.908,1.177-1.365,1.808a1.177,1.177,0,0,1-.476.545c.1.147-.115.421.059.512a1.474,1.474,0,0,0,.326.9,2.022,2.022,0,0,1,.364.348l.143.007a.1.1,0,0,1,.079.1.666.666,0,0,1,.306.037l0,.059.4.019c.1-.184.438.032.542-.153.161-.146.441-.051.536-.307.148.114.14-.207.314-.1l0-.083a3.047,3.047,0,0,0,.736-.534c.076-.1.207-.132.27-.212.072-.01.1-.138.194-.087.02-.176.224-.238.393-.313l0-.059c.015-.058.073-.021.109-.03.189-.263.477-.346.656-.621.214-.014.16-.347.417-.288.112.158.062.452.221.6a1.042,1.042,0,0,0,.522.533c.06.227.33.039.329.3l.189.044c.066.37.55.155.76.237l.063-.092c.2.056.305-.164.552-.117.151.326.338.867.775.924.03.131.213.022.217.176.1.04.3-.058.316.1.2-.014.506.1.6-.055.186.08.173-.169.347-.091,0-.154.164-.193.273-.248.133-.289.491-.368.707-.654.062-.032.009-.176.125-.136.044-.187.246-.178.3-.376.3-.187.381-.267.778-.165v.023c.094.028.374.112.452-.026.035.014.021.048.02.084.043-.187.3.025.327-.163.224.046.246-.2.438-.229.227-.037.3-.235.466-.322l0-.059c.025-.045.083-.008.119-.018.422-.419.969-.938,1.4-1.355a2.144,2.144,0,0,1,.5-.522,1.3,1.3,0,0,0,.138-.23.546.546,0,0,1,.313-.317,1.412,1.412,0,0,1,.365-.469c.455-.582.87-1.119,1.363-1.747.035-.246.3-.306.365-.468a3.774,3.774,0,0,0,.951-.832c.35-.114.489-.57.8-.673.031-.14.211-.215.264-.332.171-.015.252-.154.347-.267a.372.372,0,0,1,.182-.133c.022.025.068.049.056.085.177-.015.421.091.512-.059.077.133.049-.046.141.005.036,0,.031.1.035.026.112-.113.322-.044.4-.183.2.116.186-.169.382-.065l0-.059c.026-.047.095-.007.143-.018.085-.28.536-.295.6-.622,0-.154.231-.12.157-.312A1.9,1.9,0,0,0,1397.057,1009.378Z" transform="translate(-1297.739 -995.472)"/><path class="d" fill="#fff" d="M1373.683,1015.864c-.052-.134.2-.051.152-.194.236,0,.307-.235.522-.26a1.02,1.02,0,0,0,.44-.288c.024.012.046.026.033.061.017-.129.231-.143.26-.248.34.087.277-.343.584-.316.057-.2.319-.211.4-.349.013-.036.049-.022.084-.021.041-.116.136-.112.177-.229.337-.114.4-.537.8-.555.024.025.07.051.056.085.014-.047-.018-.107.031-.141.278.131.2-.31.494-.178v-.048c.039-.056.1-.019.144-.029.122-.054.081-.209.075-.339a6.725,6.725,0,0,1-.459-1.867l-.064.091a.751.751,0,0,0-.459.2c-.42.087-.613.41-1.021.521-.156.3-.549.33-.736.534-.586.127-.68.585-1.121.907-.309.282-2.295,1.4-2.618,1.7-.073.044-.056.187-.208.156-.137.172-.494.439-.577.684a1.256,1.256,0,0,0,.27,1.077c.179-.015.411.066.536-.035s.292.085.326-.127C1371.948,1016.707,1373.52,1015.786,1373.683,1015.864Zm6.326-.076a1.685,1.685,0,0,1-1.019-.024v-.023l-.177-.008a.1.1,0,0,1-.078-.087.557.557,0,0,1-.354-.3c-.1-.135.008-.45-.2-.435-.555.448-1.051.91-1.583,1.37l-.082,0c-.032.189-.322.306-.449.465-.214.037-.2.227-.438.263l0,.059a2.288,2.288,0,0,0-.923.975c-.3.259-.431.608-.728.878-.2.286-.576.412-.633.823a1.152,1.152,0,0,0,.206.435c.035.013.022.048.019.084.154.03.214.246.419.184.158.173.471.081.707.127l0-.059c.211.035.313-.127.47-.179.017-.117.218-.109.259-.213.073-.279.413-.182.483-.439.309-.021.413-.442.758-.5.063-.057.011-.235.151-.171.2-.132.29-.377.531-.449a6.1,6.1,0,0,1,.571-.541c.087-.091.174-.182.273-.271.015-.059.073-.021.107-.032.074-.3.445-.381.519-.686.225-.014.236-.261.439-.288C1379.494,1016.4,1379.757,1016.1,1380.009,1015.789Zm13.176-5.357a4.069,4.069,0,0,0-.9-1.012c-.183-.387-.568-.535-.778-.852a3.736,3.736,0,0,0-.414-.3c-.071-.252-.407-.161-.406-.445-.55-.416-1.075-.866-1.626-1.271l-.262.273c-.252.07-.589.186-.841.245a8.516,8.516,0,0,1-1.686.029c-.036.01-.081-.04-.078-.087l-.508-.047,0-.059c-.36.078-.56-.191-.906-.16v-.023c-.219-.117-.536.069-.766-.119-.182.1-.473-.022-.621.113-.269-.1-.364.161-.666.052-.1.161-.311.021-.375.149-.21-.069-.361.113-.536.034-.032.187-.271-.025-.292.164a4.99,4.99,0,0,0-.985.286c-.209-.1-.2.18-.407.076.014.226-.262.011-.315.151-.276.578-.515,1.113-.791,1.691a9.7,9.7,0,0,1-.75,1.362,6.113,6.113,0,0,0,.454,2.459l.009.065a4.023,4.023,0,0,1,.2,1.625c.069.038.135.16.23.153.037-.01.094.017.08.063.025-.023.052-.069.086-.055.013.011.035.036.022.059l.12-.054c.007.118.138.077.221.094.123-.1.384-.077.36-.326.336-.1.309-.53.406-.834l.035,0a4.733,4.733,0,0,0,.031-.644,4.1,4.1,0,0,0-.278-1.439h-.035c-.085-.218-.042-.392-.115-.6.076-.1.108-.267.251-.273l.045.062c.129-.479.122.183.4.043-.109.326.294.308.258.6.127.054.146-.088.173-.158.209.094.209-.168.406-.063.046-.223.382-.066.554-.176,0-.083.1-.09.169-.074.155.231.4.3.485.531l.062-.056c.207.139.338.358.636.348.108.241.41.089.53.308.127.077.441-.039.527.131l.746.035a1.514,1.514,0,0,0,.749-.273l.078.085c.031-.151.252-.047.383-.065l0-.059a.49.49,0,0,1,.367.016l0,.059.083,0a.817.817,0,0,1-.006.626.9.9,0,0,1-.524.343c-.116.185-.423.158-.64.219-.148-.113-.414-.03-.588-.11,0-.07-.138-.077-.194-.15a1.443,1.443,0,0,1-.82.021l0-.058c-.152-.032-.393.052-.457-.1-.083-.015-.19.015-.248-.035l0-.059a.428.428,0,0,1-.372-.16l-.082,0c-.048.01-.142-.018-.1-.087-.071,0-.166-.019-.173-.1a.721.721,0,0,1-.379-.266c-.267.129-.13-.266-.372-.16a.62.62,0,0,1-.4.147c-.039.094-.132.041-.2.051l0,.058c-.062.045-.156.005-.227.014a5.949,5.949,0,0,1,.064.86,5.875,5.875,0,0,1-.147,1.443,4.835,4.835,0,0,1,1.542-.757c.064-.127.246.047.266-.13.211.057.418-.063.568.026.153.03.406-.052.447.1a1.7,1.7,0,0,1,.372.16c.066.1.182.173.237.271l.059,0c.036.249.242.4.112.679l.792.037c.023.036.069.051.055.1l.083,0c.06-.008.154.007.115.088.208.128.47.092.579.311a1.1,1.1,0,0,1,.379,1.01c-.123.125-.122.35-.248.5a.543.543,0,0,1-.6.091,1.372,1.372,0,0,0-.015-.947c-.262.023-.153-.292-.453-.211-.014-.19-.284,0-.3-.192l-.063.08a2.227,2.227,0,0,0-1.027.131c-.053-.11-.116-.29-.042-.369-.028-.179.115-.432-.094-.526-.116-.076-.216-.222-.354-.3l-.533-.023a.366.366,0,0,1-.288.081l0,.047c-.231.1-.5.107-.644.314a1.7,1.7,0,0,0-.818.507l-.034-.037a7.161,7.161,0,0,0-1.27,1.053c-.062.056-.067.186-.174.158l0,.058a.1.1,0,0,1-.095.031c-.125.113-.181.311-.35.375-.112.373-.361.871-.1,1.309.083,0,.091.1.076.169l.1,0c.033.014.019.059.019.084.021.036.006.119.079.085a.069.069,0,0,1,.054.1l.082,0c.049-.01.07.039.056.085l.143.007c.087.157.34.075.505.106.08.038.136-.113.183-.134.062-.045.143-.018.225-.014l0-.059c.027-.058.071-.021.108-.03.078-.162.312-.092.392-.266l.022.036c.411-.454.7-.974,1.082-1.346.111-.089.147-.359.3-.376l0-.059c.216-.061.508-.226.712-.026.05.452-.455.618-.578.966-.043.153-.223.191-.241.333-.326.127-.355.516-.52.745l-.06,0c.016.19-.155.289-.242.379a1.3,1.3,0,0,0,.337.643c.006.154.3.026.192.234.077-.139.27.048.287-.045.007.106.115.087.2.1.066-.139.253-.084.34-.162a.572.572,0,0,1,.356-.231c-.01-.048.042-.14.123-.113-.013-.237.284-.248.364-.434.241-.083.21-.439.5-.5l.219-.356c.175-.205.266-.391.429-.573.093.052.2.057.217.176.186.067.245.33.436.3a2.683,2.683,0,0,0,.574-.08l0-.059c.025-.058.083-.021.119-.03a.641.641,0,0,1,.418-.312c.091-.2.274-.295.412-.442.241-.071.267-.4.567-.458.071-.27.369-.28.476-.547s.423-.4.516-.651c.172-.134.206-.346.424-.442a4.94,4.94,0,0,1,.418-.571,1.948,1.948,0,0,1,.427-.525c.156-.235.336-.5.5-.764.076-.124.146-.246.209-.363.409-.135.677-.55,1.01-.829.2.08.047-.212.234-.168l0-.058c.189,0,.131-.278.357-.292a.526.526,0,0,1,.322-.293,4.893,4.893,0,0,1,.427-.5c.216-.039.273-.248.41-.408C1393.346,1010.781,1393.348,1010.521,1393.185,1010.432Zm1.184-.975a18.529,18.529,0,0,0-.9-1.651c-.164-.032-.119-.23-.21-.329a1.463,1.463,0,0,1-.349-.407c-.391-.5-.73-.885-1.133-1.389-.248-.047-.248-.307-.385-.42-.027-.167-.218-.128-.234-.318-.141-.03-.227-.223-.308-.274l-.076-.146c-.172-.387-.346.032-.574.092-.143.253-.371.314-.535.508-.142.029-.2.251-.3.306.02.083-.042.128-.068.2.1.16.379.267.491.414.361.123.557.511.8.664l.025-.023c.053.121.244.106.273.261a1.2,1.2,0,0,0,.527.391c-.035.223.252.178.269.332a3.042,3.042,0,0,1,.645.657c.28.131.382.479.661.622,0,.154.253.154.244.354a13.01,13.01,0,0,1,.856,1c.183-.121.225-.273.424-.453C1394.474,1009.734,1394.471,1009.543,1394.369,1009.457Z" transform="translate(-1297.518 -994.527)"/></svg>