<svg xmlns="http://www.w3.org/2000/svg" width="206.791" height="24.61" viewBox="0 0 206.791 24.61"><defs><style>.a{fill:#52a94d;}</style></defs><path class="a" d="M561.951,708.268v-2.19h-4.8v16.244h4.967V715.23c0-3.236,1.8-4.413,3.791-4.413a6.767,6.767,0,0,1,1.569.163v-4.9a4.892,4.892,0,0,0-1.307-.163A4.587,4.587,0,0,0,561.951,708.268Zm-25.491,3.954L534.3,711.8c-.719-.13-1.274-.523-1.274-1.209a1.582,1.582,0,0,1,1.765-1.406,2.135,2.135,0,0,1,2.32,1.994l4.117-.751c-.163-1.9-1.8-4.837-6.5-4.837-3.627,0-6.242,2.419-6.242,5.392,0,2.288,1.374,4.25,4.837,5l1.864.425c1.209.262,1.6.753,1.6,1.339,0,.719-.621,1.406-1.9,1.406a2.312,2.312,0,0,1-2.548-2.189l-4.217.751c.131,1.8,1.765,5.1,6.864,5.1,4.347,0,6.47-2.713,6.47-5.49C541.46,714.935,539.826,712.908,536.46,712.222Zm14.183-10.883H546.2v2.092a2.386,2.386,0,0,1-2.516,2.647h-.816v4.347h2.876v6.962c0,3.234,2.058,5.228,5.425,5.228a5.909,5.909,0,0,0,2.581-.456v-4.119a6.132,6.132,0,0,1-1.307.163c-1.078,0-1.8-.36-1.8-1.7v-6.079h3.171v-4.347h-3.171Zm-42.538-2.68h-4.9v8.694c-.393-.621-1.6-1.667-4.379-1.667-4.608,0-7.876,3.628-7.876,8.464,0,5,3.463,8.531,8.039,8.531a5.238,5.238,0,0,0,4.346-1.929,11.1,11.1,0,0,0,.131,1.569h4.772c-.033-.36-.131-1.439-.131-2.909Zm-8.5,19.577c-1.929,0-3.661-1.372-3.661-4.052,0-2.713,1.732-4.021,3.661-4.021s3.659,1.307,3.659,4.021C503.268,716.863,501.536,718.236,499.609,718.236Zm-34.755,4.086h5.228V699.149h-5.228Zm18-16.669a5.322,5.322,0,0,0-4.543,2.288v-1.863h-4.8v16.244h4.967v-9.315a2.636,2.636,0,0,1,2.68-2.843,2.516,2.516,0,0,1,2.648,2.811v9.347h4.968v-10.2C488.773,708.562,486.943,705.653,482.857,705.653Zm35.27-.065a8.62,8.62,0,0,0,.36,17.224c4.117,0,6.7-2.354,7.483-5.163l-4.15-1.177a3.138,3.138,0,0,1-3.268,2.125,3.517,3.517,0,0,1-3.694-3.138h11.309a10.5,10.5,0,0,0,.1-1.536C526.265,708.692,523.159,705.588,518.127,705.588Zm-3.171,6.667a3.1,3.1,0,0,1,3.236-2.746c2.353,0,3.2,1.5,3.268,2.746ZM648.2,722.321h4.968V698.659H648.2Zm-10.059-16.635a5.833,5.833,0,0,0-4.705,1.929v-8.956h-4.87v23.662h4.8v-1.83a5.241,5.241,0,0,0,4.577,2.19c4.542,0,7.745-3.562,7.745-8.531C645.691,709.28,642.848,705.686,638.141,705.686Zm-1.078,12.55c-1.929,0-3.694-1.372-3.694-4.052,0-2.746,1.765-4.021,3.694-4.021s3.661,1.274,3.661,4.021C640.724,716.9,638.992,718.236,637.063,718.236Zm-51.616-12.158h-4.967v9.25a2.59,2.59,0,0,1-2.713,2.777,2.523,2.523,0,0,1-2.615-2.81v-9.217h-4.967V716.34c0,3.464,2.222,6.341,6.176,6.341a5.053,5.053,0,0,0,4.347-1.994,11.684,11.684,0,0,0,.131,1.634h4.772a25.307,25.307,0,0,1-.165-2.909Zm86.2,7.844c0-5.23-3.1-8.334-8.138-8.334a8.62,8.62,0,0,0,.36,17.224c4.117,0,6.7-2.354,7.484-5.163l-4.15-1.177a3.139,3.139,0,0,1-3.269,2.125,3.514,3.514,0,0,1-3.693-3.138h11.307A10.3,10.3,0,0,0,671.645,713.922Zm-11.308-1.667a3.1,3.1,0,0,1,3.236-2.746c2.354,0,3.2,1.5,3.269,2.746Zm-37.8-14.054a2.909,2.909,0,1,0,2.941,2.909A2.908,2.908,0,0,0,622.533,698.2Zm-25.882,20.035a3.717,3.717,0,0,1-3.791-4.02c0-2.615,1.667-4.052,3.726-4.052a3.193,3.193,0,0,1,3.268,2.419l4.445-1.341c-.719-2.908-3.333-5.653-7.811-5.653a8.385,8.385,0,0,0-8.562,8.628,8.473,8.473,0,0,0,8.725,8.6,7.693,7.693,0,0,0,7.746-5.653l-4.38-1.341A3.347,3.347,0,0,1,596.651,718.236Zm23.432,4.086h4.967V706.078h-4.967Zm-6.7-20.982h-4.444v2.092a2.386,2.386,0,0,1-2.517,2.647H605.6v4.347h2.876v6.962c0,3.234,2.059,5.228,5.425,5.228a5.926,5.926,0,0,0,2.583-.456v-4.119a6.15,6.15,0,0,1-1.308.163c-1.079,0-1.8-.36-1.8-1.7v-6.079h3.171v-4.347h-3.171Z" transform="translate(-464.854 -698.201)"/></svg>