<svg xmlns="http://www.w3.org/2000/svg" width="112.339" height="35.289" viewBox="0 0 112.339 35.289">
	<g transform="translate(45.328 9.966)">
		<path class="a" fill="#1b8e83" d="M516.17,818.055a7.239,7.239,0,0,1-.42,2.592,5,5,0,0,1-1.18,1.834,4.8,4.8,0,0,1-1.822,1.1,7.33,7.33,0,0,1-2.371.362,6.507,6.507,0,0,1-3.212-.724,7.535,7.535,0,0,1-2.137-1.729l2.266-2.523a6.5,6.5,0,0,0,1.413,1.2,2.981,2.981,0,0,0,1.577.432,2.069,2.069,0,0,0,1.612-.642,3.023,3.023,0,0,0,.584-2.067V807.357h3.691Z" transform="translate(-505.028 -807.24)"/>
		<path class="a" fill="#1b8e83" d="M882.738,822.493l-1.495-3.667h-6.914l-1.5,3.667h-3.667l7.008-16.468h3.317l7.008,16.468Zm-4.952-12.147-2.172,5.3h4.345Z" transform="translate(-846.15 -806.025)"/>
		<path class="a" fill="#1b8e83" d="M1305.4,823.708l-3.667-5.606-3.691,5.606h-4.088l5.7-8.316-5.466-8.035h4.2l3.433,5.3,3.457-5.3h4.088l-5.466,7.988,5.7,8.362Z" transform="translate(-1242.594 -807.24)"/></g><g transform="translate(0 0)">
		<path class="a" fill="#1b8e83" d="M825.5,159.251h0c-4.454,5.277-5.377,5.993-6.3,5.923s-3.131-3.264-5.8-6.044-3.7-2.654-4.225-1.283,4.666,8.792,4.854,9.6-2.123.153-2.123.153h0c-.823.094-1.4,2.167-.655,2.7h0l3.65,1.3s-3.935,7.1-4.753,8.422a4.217,4.217,0,0,1,2.365,1.375l6.54-6.688s4.639,5.408,7.146,6.574,1.8-1.594,1.8-1.594l-3.462-6.629,4.535.2a4.784,4.784,0,0,1,.362-3.367l-5.695-1.775,3.724-7.406h0A1.668,1.668,0,0,0,825.5,159.251Z" transform="translate(-803.967 -153.106)"/>
		<g class="b" opacity="0.75" transform="translate(0 0)">
			<path class="a" fill="#1b8e83" d="M717.541,298.9a3.98,3.98,0,1,0-.655,2.7C716.139,301.071,716.718,299,717.541,298.9Z" transform="translate(-709.606 -284.405)"/>
			<path class="a" fill="#1b8e83" d="M1118.552,87.7a3.906,3.906,0,1,0-7.107,2.239A1.668,1.668,0,0,1,1113.4,91.4a3.906,3.906,0,0,0,5.154-3.7Z" transform="translate(-1089.911 -83.791)"/>
			<path class="a" fill="#1b8e83" d="M736.423,600.866a4.227,4.227,0,1,0,2.365,1.375A4.245,4.245,0,0,0,736.423,600.866Z" transform="translate(-730.247 -573.941)"/>
			<circle class="a" fill="#1b8e83" cx="4.768" cy="4.768" r="4.768" transform="translate(24.942 14.182)"/>
		</g>
	</g>
</svg>