<svg xmlns="http://www.w3.org/2000/svg" width="165.11" height="27.97" viewBox="0 0 165.11 27.97">
  <path class="a" fill="#f25952" d="M1110.613,1001.547c.727,1.675,1.476,3.342,2.163,5.033a1.7,1.7,0,0,1,.015,1.12c-1.582,4.32-3.2,8.628-4.809,12.939-.081.216-.145.438-.244.736h2.612c2.562,0,5.122-.006,7.682.012.219,0,.573.1.637.259,1.067,2.48,2.1,4.976,3.18,7.576h-2.117c-1.066,0-2.135-.031-3.2.014a.8.8,0,0,1-.921-.636c-.256-.736-.4-1.732-.945-2.087-.571-.373-1.548-.138-2.347-.142-1.921-.008-3.841.016-5.762-.014-.523-.009-.818.1-.963.65a11.072,11.072,0,0,1-.68,1.795.76.76,0,0,1-.53.4c-1.824.031-3.647.019-5.58.019l11.239-27.676Z" transform="translate(-1050.711 -1001.547)"/>
  <path class="b" fill="#e61f1a" d="M1075.04,1002.037h13.329v5.111H1080.5v5.569h6.875v5.3h-.653c-1.894,0-3.791-.018-5.687.012a1.307,1.307,0,0,1-1.192-.56c-1.4-1.8-2.838-3.566-4.266-5.339a6.094,6.094,0,0,0-.54-.532Z" transform="translate(-1075.04 -1001.039)"/>
  <path class="c" fill="#6fc0de" d="M1145.607,1002.255v26.177h-5.363c-.01-.206-.03-.434-.03-.662q0-7.055.006-14.111a2.117,2.117,0,0,1,.158-.891q2.474-5.086,4.984-10.152C1145.4,1002.538,1145.462,1002.471,1145.607,1002.255Z" transform="translate(-1008.317 -1000.813)"/>
  <path class="a" fill="#f25952" d="M1165.265,1002.861l-.566,5.475c-3.095-1.359-6.191-1.795-9.111.136-2.985,1.975-3.568,5.058-3.309,8.532-.2-.242-.32-.375-.423-.522-1.359-1.915-2.706-3.839-4.076-5.744a.883.883,0,0,1-.117-.966,12.432,12.432,0,0,1,12.789-7.8c.965.086,1.924.238,2.88.406C1163.956,1002.488,1164.567,1002.684,1165.265,1002.861Z" transform="translate(-1000.784 -1001.162)"/>
  <path class="d" fill="#764b4f" d="M1114.946,1014.719c1.51.561,2.958,1.221,4.474,1.616a11.375,11.375,0,0,0,3.309.238,3,3,0,0,0,2.505-1.944c1.02-1.95,2.115-3.86,3.228-5.875a6.9,6.9,0,0,1,2.07,6.107,12.617,12.617,0,0,1-1.342,3.713c-1.113,2.066-3.108,2.914-5.31,3.287a14.671,14.671,0,0,1-9.138-1.669.618.618,0,0,1-.313-.461C1114.586,1018.014,1114.778,1016.3,1114.946,1014.719Z" transform="translate(-1034.713 -994.067)"/>
  <path class="b" fill="#e61f1a" d="M1126.167,1007.244v-5.188h18.574v5.188Z" transform="translate(-1022.697 -1001.02)"/>
  <path class="d" fill="#764b4f" d="M1128.633,1003.133l-.561,4.984c-1.1-.293-2.149-.632-3.226-.844a11.47,11.47,0,0,0-2.262-.153,2.48,2.48,0,0,0-2.635,2.494,3.107,3.107,0,0,1-.3,1.069c-.818,1.6-1.666,3.185-2.542,4.85a6.939,6.939,0,0,1-2.542-5.123,8.023,8.023,0,0,1,8.12-8.46A20.539,20.539,0,0,1,1128.633,1003.133Z" transform="translate(-1034.582 -1001.137)"/>
  <path class="b" fill="#e61f1a" d="M1134.775,1024.429h-5.345v-1.571a24.438,24.438,0,0,0-.018-2.777,11.083,11.083,0,0,1,1.741-7.144c1.273-2.134,2.326-4.4,3.475-6.608a1.767,1.767,0,0,1,.148-.191Z" transform="translate(-1019.445 -996.785)"/>
  <path class="a" fill="#f25952" d="M1151.827,1012.362a10.986,10.986,0,0,0,9.071-.44c.2,1.5.4,2.945.569,4.393.16,1.369.154,1.418-1.241,1.712-1.178.247-2.38.385-3.576.538a.758.758,0,0,1-.6-.224C1154.671,1016.419,1153.316,1014.479,1151.827,1012.362Z" transform="translate(-996.426 -990.782)"/>
  <path class="b" fill="#e61f1a" d="M1079.762,1012.553h4.2v5.182Z" transform="translate(-1070.205 -990.128)"/>
  <path class="c" fill="#6fc0de" d="M1087.993,1017.75v-5.194H1101.7v5.194Z" transform="translate(-1061.779 -990.123)"/>
  <path class="c" fill="#6fc0de" d="M1087.979,1002.05h5.219v11.105l-.154.177a2.084,2.084,0,0,0-.174-.424c-1.54-2.221-3.088-4.438-4.622-6.663a1.267,1.267,0,0,1-.257-.634C1087.964,1004.45,1087.979,1003.289,1087.979,1002.05Z" transform="translate(-1061.797 -1001.026)"/>
</svg>