<svg xmlns="http://www.w3.org/2000/svg" width="138.236" height="34" viewBox="0 0 138.236 34">
	<defs>
		<style>.a{fill:#cd1a45;}</style>
	</defs>
	<g transform="translate(-887.512 -474.547)">
		<path class="a" fill="#cd1a45" d="M899.744,474.547a11.3,11.3,0,0,1,4.331.74,8.123,8.123,0,0,1,2.906,1.956,7.506,7.506,0,0,1,1.633,2.774,10.343,10.343,0,0,1,0,6.44,7.471,7.471,0,0,1-1.633,2.791,8.1,8.1,0,0,1-2.906,1.957,11.317,11.317,0,0,1-4.331.741h-6.267v9.724h-5.965V474.547Zm-1.633,12.763a12.407,12.407,0,0,0,1.975-.152,4.585,4.585,0,0,0,1.672-.588,3.209,3.209,0,0,0,1.158-1.234,5.214,5.214,0,0,0,0-4.179,3.2,3.2,0,0,0-1.158-1.234,4.586,4.586,0,0,0-1.672-.589,12.524,12.524,0,0,0-1.975-.153h-4.634v8.129Z"/><path class="a" fill="#cd1a45" d="M917.409,482.031v3.647h.076a6.59,6.59,0,0,1,1.025-1.691,6.752,6.752,0,0,1,1.481-1.329,7.211,7.211,0,0,1,1.786-.855,6.458,6.458,0,0,1,1.976-.3,4.223,4.223,0,0,1,1.177.189V486.7q-.379-.075-.912-.133a9.893,9.893,0,0,0-1.025-.057,5.754,5.754,0,0,0-2.508.494,4.354,4.354,0,0,0-1.652,1.349,5.413,5.413,0,0,0-.893,2,10.845,10.845,0,0,0-.266,2.468v8.851H912.28V482.031Z"/><path class="a" fill="#cd1a45" d="M942.1,482.031v2.659h.076a7.665,7.665,0,0,1,2.564-2.356,6.956,6.956,0,0,1,3.438-.835,7.919,7.919,0,0,1,3.4.722,4.775,4.775,0,0,1,2.337,2.545,8.37,8.37,0,0,1,2.374-2.28,6.314,6.314,0,0,1,3.552-.987,10.489,10.489,0,0,1,2.887.38,5.823,5.823,0,0,1,2.28,1.216,5.579,5.579,0,0,1,1.481,2.183,8.871,8.871,0,0,1,.531,3.248V501.67h-5.393V490.539q0-.986-.077-1.861a3.985,3.985,0,0,0-.417-1.52,2.539,2.539,0,0,0-1.007-1.025,3.647,3.647,0,0,0-1.8-.379,3.444,3.444,0,0,0-1.843.437,3.163,3.163,0,0,0-1.1,1.139,4.571,4.571,0,0,0-.532,1.6,12.166,12.166,0,0,0-.133,1.8v10.94h-5.394V490.654q0-.873-.038-1.728a4.816,4.816,0,0,0-.323-1.577,2.428,2.428,0,0,0-.949-1.158,3.578,3.578,0,0,0-1.956-.437,4.069,4.069,0,0,0-1.007.17,3.378,3.378,0,0,0-1.216.646,3.77,3.77,0,0,0-1.007,1.368,5.546,5.546,0,0,0-.418,2.337v11.4H937.01V482.031Z"/><path class="a" fill="#cd1a45" d="M970.047,488.071a6.274,6.274,0,0,1,.949-3.154,6.5,6.5,0,0,1,2.128-2.013,9.284,9.284,0,0,1,2.906-1.083,16.606,16.606,0,0,1,3.248-.322,21.9,21.9,0,0,1,3,.21,9.142,9.142,0,0,1,2.773.816,5.458,5.458,0,0,1,2.052,1.689,4.725,4.725,0,0,1,.8,2.869V497.3a20.632,20.632,0,0,0,.152,2.547,4.576,4.576,0,0,0,.532,1.822h-5.47a7.494,7.494,0,0,1-.247-.93,8.116,8.116,0,0,1-.134-.968,7.03,7.03,0,0,1-3.038,1.86,12.187,12.187,0,0,1-3.571.532,9.641,9.641,0,0,1-2.621-.342,5.969,5.969,0,0,1-2.127-1.064,4.927,4.927,0,0,1-1.425-1.823,6.156,6.156,0,0,1-.513-2.62,5.721,5.721,0,0,1,.589-2.755,4.934,4.934,0,0,1,1.519-1.729,6.832,6.832,0,0,1,2.128-.968,22.348,22.348,0,0,1,2.412-.512q1.215-.191,2.393-.306a14.545,14.545,0,0,0,2.089-.34,3.65,3.65,0,0,0,1.444-.666,1.457,1.457,0,0,0,.494-1.272,2.869,2.869,0,0,0-.285-1.388,2.112,2.112,0,0,0-.76-.8,3.041,3.041,0,0,0-1.1-.38,9.185,9.185,0,0,0-1.348-.094,4.1,4.1,0,0,0-2.507.683,3.054,3.054,0,0,0-1.064,2.28Zm12.46,3.988a2.4,2.4,0,0,1-.855.475,8.577,8.577,0,0,1-1.1.285q-.59.114-1.235.191t-1.292.189a10.08,10.08,0,0,0-1.2.3,3.581,3.581,0,0,0-1.025.514,2.428,2.428,0,0,0-.7.817,2.626,2.626,0,0,0-.266,1.253,2.535,2.535,0,0,0,.266,1.215,2.025,2.025,0,0,0,.722.779,3.024,3.024,0,0,0,1.064.4,6.779,6.779,0,0,0,1.254.113,4.77,4.77,0,0,0,2.468-.531,3.553,3.553,0,0,0,1.292-1.273,4.092,4.092,0,0,0,.513-1.5,10.361,10.361,0,0,0,.1-1.216Z"/><path class="a" fill="#cd1a45" d="M996.208,482.031v3.647h.076a6.6,6.6,0,0,1,1.026-1.691,6.73,6.73,0,0,1,1.481-1.329,7.177,7.177,0,0,1,1.786-.855,6.451,6.451,0,0,1,1.975-.3,4.235,4.235,0,0,1,1.178.189V486.7c-.254-.05-.557-.094-.912-.133a9.912,9.912,0,0,0-1.026-.057,5.749,5.749,0,0,0-2.507.494,4.358,4.358,0,0,0-1.653,1.349,5.411,5.411,0,0,0-.892,2,10.845,10.845,0,0,0-.266,2.468v8.851H991.08V482.031Z"/><path class="a" fill="#cd1a45" d="M1015.112,507.52a7.813,7.813,0,0,1-4.331,1.027c-.557,0-1.108-.02-1.652-.057s-1.1-.083-1.653-.134v-4.445q.76.076,1.558.152a11.175,11.175,0,0,0,1.6.039,2.1,2.1,0,0,0,1.577-.836,2.7,2.7,0,0,0,.513-1.6,3.238,3.238,0,0,0-.228-1.215l-6.876-18.424h5.736l4.445,13.447h.076l4.292-13.447h5.584l-8.205,22.071A6.643,6.643,0,0,1,1015.112,507.52Z"/><path class="a" fill="#cd1a45" d="M930.007,482.031h-1.8v19.64H933.6v-19.64h-3.6Z"/><path class="a" fill="#cd1a45" d="M931.8,474.547h-3.6v4.445H933.6v-4.445Z"/>
	</g>
</svg>