<svg xmlns="http://www.w3.org/2000/svg" viewBox="0 0 138.535 23">
  <path class="a" d="M50.26 0c.61 1.377 1.238 2.748 1.815 4.139a1.37 1.37 0 01.012.921c-1.328 3.552-2.686 7.095-4.035 10.64-.068.178-.122.36-.205.6h2.192c2.15 0 4.3-.005 6.445.01.184 0 .481.085.535.213.895 2.039 1.759 4.092 2.668 6.23h-1.776c-.895 0-1.792-.025-2.685.011a.67.67 0 01-.772-.523c-.215-.6-.339-1.424-.793-1.716-.479-.307-1.3-.114-1.97-.117-1.612-.007-3.223.013-4.835-.012-.438-.007-.686.08-.808.535a9 9 0 01-.57 1.476.636.636 0 01-.445.33c-1.53.025-3.06.015-4.681.015l9.43-22.758zM0 .821h11.183v4.2h-6.6V9.6h5.768v4.357h-.548c-1.589 0-3.181-.015-4.772.01a1.105 1.105 0 01-1-.461c-1.175-1.478-2.381-2.932-3.58-4.39a5.042 5.042 0 00-.453-.437zM115.192 1.186v21.525h-4.5c-.008-.169-.026-.357-.026-.545q0-5.8.005-11.6a1.706 1.706 0 01.133-.732q2.076-4.182 4.182-8.348c.033-.067.084-.123.206-.3zM138.007 1.397l-.475 4.5c-2.6-1.117-5.194-1.476-7.645.112-2.5 1.624-2.993 4.159-2.776 7.016-.167-.2-.268-.308-.355-.429-1.14-1.575-2.27-3.157-3.42-4.723a.714.714 0 01-.1-.794 10.453 10.453 0 0110.73-6.414c.81.07 1.614.2 2.416.333.527.093 1.04.254 1.625.399zM67.318 16.983c1.267.461 2.483 1 3.754 1.329a9.745 9.745 0 002.776.2 2.511 2.511 0 002.1-1.6c.856-1.6 1.774-3.174 2.709-4.831a5.608 5.608 0 011.737 5.021 10.25 10.25 0 01-1.126 3.053 5.75 5.75 0 01-4.455 2.7 12.524 12.524 0 01-7.667-1.372.509.509 0 01-.263-.379c.133-1.412.295-2.821.435-4.121zM86.816 5.118V.852h15.585v4.266zM78.913 1.641l-.47 4.1c-.922-.241-1.8-.519-2.707-.694a9.843 9.843 0 00-1.9-.126 2.064 2.064 0 00-2.211 2.051 2.509 2.509 0 01-.253.88c-.686 1.317-1.4 2.619-2.133 3.988a5.665 5.665 0 01-2.133-4.212A6.66 6.66 0 0173.919.671a17.543 17.543 0 014.994.97zM96.766 22.732h-4.485V21.44a19.672 19.672 0 00-.015-2.284 8.972 8.972 0 011.46-5.875c1.068-1.754 1.951-3.618 2.916-5.434a1.474 1.474 0 01.124-.157zM130.388 17.745a9.387 9.387 0 007.611-.362c.165 1.233.336 2.421.477 3.613.134 1.126.129 1.166-1.041 1.408-.988.2-2 .317-3 .442a.643.643 0 01-.5-.184c-1.161-1.581-2.297-3.176-3.547-4.917zM8.018 18.441h3.522v4.261zM21.995 22.718v-4.271h11.5v4.271zM21.968.842h4.379v9.132l-.129.146a1.71 1.71 0 00-.146-.349c-1.292-1.827-2.591-3.65-3.878-5.479a1.031 1.031 0 01-.216-.521c-.023-.955-.01-1.91-.01-2.929z"/>
</svg>
