<svg xmlns="http://www.w3.org/2000/svg" width="95.554" height="30">
  <defs>
    <style>
      .a{fill:#282828}
    </style>
  </defs>
  <path class="a" d="M18.68 18.494c-.626 0-1-.325-.995-.857a2.058 2.058 0 01.208-.764l2.528-6.735-3.543.646a2.209 2.209 0 00-1.944-.719 5.808 5.808 0 00-2.779.739 8.167 8.167 0 00-3.616 6.111c0 1.574.855 2.269 2.823 2.27a5.5 5.5 0 003.312-.993 2.76 2.76 0 002.546 1.021 8.165 8.165 0 004.632-1.664l-.209-.278a6.678 6.678 0 01-2.963 1.223zm-4-2.387a4.287 4.287 0 00-.256 1.2 1.7 1.7 0 00.092.486 2.244 2.244 0 00-.232.116c-.833.463-1.089.555-1.459.555-.6 0-.949-.394-.948-1.112a11.289 11.289 0 01.951-3.311c1.09-2.731 1.647-3.518 2.574-3.518a1.524 1.524 0 011.2.626zM82.331 14.431a6.872 6.872 0 00.859-3.742c0-2.217-.557-3-2.716-3-2.068 0-2.608.724-2.61 2.531v1.042h1.749v-.876c0-.93.187-1.359.895-1.358.6 0 .931.354.93 1.6a7.093 7.093 0 01-1.045 3.761l-2.74 5.063v1.788h5.661v-1.564h-3.8z"/>
  <path class="a" d="M47.871.023A14.978 14.978 0 1062.839 15.01 14.994 14.994 0 0047.871.023zm-.039 26.366a11.333 11.333 0 1111.34-11.326 11.346 11.346 0 01-11.34 11.326zM80.586.044a14.978 14.978 0 1014.968 14.987A14.995 14.995 0 0080.586.044zm0 26.367a11.333 11.333 0 1111.339-11.326A11.346 11.346 0 0180.59 26.411zM14.986 0a14.978 14.978 0 1014.968 14.989A15 15 0 0014.989 0zm.086 26.368a11.333 11.333 0 1111.341-11.326 11.346 11.346 0 01-11.338 11.326z"/>
  <path class="a" d="M48.408 12.741a1.816 1.816 0 00-1.676.855h-.037V9.481h3.464V8.028h-5.215l-.005 8.1h1.751v-.541c0-.912.411-1.4 1.025-1.4.578 0 1.005.337 1.005 1.286v2.868c0 .782 0 1.9-1.1 1.9-.744 0-1.061-.447-1.06-1.21v-1.193h-1.751v1.451c0 1.4.911 2.291 2.755 2.293 2.122 0 2.905-1.041 2.906-2.7v-3.837a2.031 2.031 0 00-2.062-2.304z"/>
</svg>
