<svg class="logo-a52-color" xmlns="http://www.w3.org/2000/svg" viewBox="0 0 81.149 15.621">
  <path d="M70.444 8.599a3 3 0 016 0 3 3 0 11-6 0zm1.727 0a1.28 1.28 0 102.547 0 1.279 1.279 0 10-2.547 0zm-11.681 0a2.919 2.919 0 013-2.989 2.912 2.912 0 013 2.989 2.921 2.921 0 01-3 3 2.928 2.928 0 01-3-3zm1.728 0a1.28 1.28 0 102.546 0 1.279 1.279 0 10-2.546 0zm-8.047.012a2.916 2.916 0 012.978-3 2.643 2.643 0 012.722 1.965l-1.55.466a1.113 1.113 0 00-1.137-.843 1.281 1.281 0 00-1.3 1.41 1.293 1.293 0 001.319 1.4 1.166 1.166 0 001.172-.841l1.523.466a2.676 2.676 0 01-2.692 1.965 2.947 2.947 0 01-3.035-2.988zm23.386 2.819V5.78h1.672v.761a1.6 1.6 0 011.466-.818 1.7 1.7 0 01.455.057v1.705a2.342 2.342 0 00-.546-.057c-.693 0-1.319.409-1.319 1.535v2.467zm-9.954 0V3.199h1.728v8.231z" fill="#d8d9be"/>
  <path d="M9.727 9.631c-.326 0-.519-.169-.519-.447a1.076 1.076 0 01.109-.4l1.317-3.508-1.845.337a1.15 1.15 0 00-1.013-.375 3.018 3.018 0 00-1.447.386 4.255 4.255 0 00-1.883 3.181c0 .82.446 1.181 1.47 1.182A2.861 2.861 0 007.64 9.47a1.437 1.437 0 001.326.532 4.249 4.249 0 002.411-.867l-.108-.145a3.467 3.467 0 01-1.542.641zM7.642 8.388a2.262 2.262 0 00-.133.627.887.887 0 00.049.253 1.1 1.1 0 00-.121.06c-.435.241-.567.289-.76.289-.313 0-.494-.205-.494-.579a5.878 5.878 0 01.5-1.724c.568-1.423.857-1.832 1.339-1.832a.8.8 0 01.627.327z"/>
  <path d="M42.871 7.511a3.586 3.586 0 00.447-1.949c0-1.154-.29-1.561-1.415-1.562-1.076 0-1.358.377-1.358 1.318v.543h.912v-.45c0-.485.1-.708.467-.707.31 0 .485.184.484.834a3.706 3.706 0 01-.544 1.959l-1.427 2.637v.931h2.948v-.815h-1.979z" fill="#d8d9be"/>
  <path d="M24.928.011a7.8 7.8 0 107.795 7.8 7.809 7.809 0 00-7.795-7.8zm-.02 13.73a5.9 5.9 0 115.906-5.9 5.908 5.908 0 01-5.906 5.9zM41.965.022a7.8 7.8 0 107.795 7.8 7.808 7.808 0 00-7.795-7.8zm0 13.73a5.9 5.9 0 115.906-5.9 5.908 5.908 0 01-5.905 5.9zM7.804 0a7.8 7.8 0 107.795 7.8A7.808 7.808 0 007.804 0zm.046 13.73a5.9 5.9 0 115.906-5.9 5.908 5.908 0 01-5.906 5.9z" fill="#d8d9be"/>
  <path d="M25.208 6.633a.946.946 0 00-.873.445h-.019V4.933h1.8v-.756h-2.715v4.219h.912v-.281c0-.475.214-.727.534-.727.3 0 .523.175.523.67v1.493c0 .408 0 .989-.573.989-.388 0-.553-.233-.553-.63v-.62h-.912v.756c0 .727.474 1.193 1.434 1.194 1.106 0 1.513-.542 1.514-1.405v-2a1.058 1.058 0 00-1.072-1.202z" fill="#d8d9be"/>
</svg>
