<svg xmlns="http://www.w3.org/2000/svg" width="123.569" height="30.393">
  <path class="a" d="M10.934 0a10.1 10.1 0 013.871.661 7.261 7.261 0 012.6 1.748 6.709 6.709 0 011.46 2.48 9.247 9.247 0 010 5.757 6.677 6.677 0 01-1.46 2.495 7.24 7.24 0 01-2.6 1.749 10.117 10.117 0 01-3.871.662h-5.6v8.692H.002V0zm-1.46 11.409a11.091 11.091 0 001.765-.136 4.1 4.1 0 001.495-.526 2.869 2.869 0 001.035-1.1 4.661 4.661 0 000-3.736 2.863 2.863 0 00-1.035-1.1 4.1 4.1 0 00-1.495-.526 11.2 11.2 0 00-1.765-.137H5.332v7.267zM26.725 6.69v3.26h.068a5.892 5.892 0 01.916-1.512 6.035 6.035 0 011.324-1.188 6.446 6.446 0 011.6-.764 5.773 5.773 0 011.766-.272 3.775 3.775 0 011.052.169v4.483q-.339-.067-.815-.119a8.846 8.846 0 00-.916-.051 5.143 5.143 0 00-2.242.442 3.892 3.892 0 00-1.477 1.206 4.839 4.839 0 00-.8 1.783 9.7 9.7 0 00-.238 2.206v7.912H22.14V6.69zM48.797 6.69v2.377h.068a6.852 6.852 0 012.292-2.106 6.218 6.218 0 013.073-.746 7.079 7.079 0 013.038.645 4.268 4.268 0 012.089 2.275 7.481 7.481 0 012.122-2.038 5.644 5.644 0 013.175-.882 9.375 9.375 0 012.581.34 5.205 5.205 0 012.038 1.087 4.987 4.987 0 011.324 1.951 7.931 7.931 0 01.475 2.9v11.752h-4.821v-9.95q0-.881-.069-1.664a3.562 3.562 0 00-.373-1.359 2.27 2.27 0 00-.9-.916 3.26 3.26 0 00-1.613-.339 3.079 3.079 0 00-1.647.391 2.827 2.827 0 00-.985 1.018 4.085 4.085 0 00-.476 1.427 10.869 10.869 0 00-.119 1.613v9.779h-4.822v-9.847q0-.78-.034-1.545a4.3 4.3 0 00-.289-1.41 2.17 2.17 0 00-.848-1.035 3.2 3.2 0 00-1.748-.391 3.637 3.637 0 00-.9.152 3.019 3.019 0 00-1.087.577 3.37 3.37 0 00-.9 1.223 4.957 4.957 0 00-.374 2.089v10.187h-4.821V6.69zM73.779 12.089a5.608 5.608 0 01.848-2.819 5.81 5.81 0 011.9-1.8 8.3 8.3 0 012.6-.968 14.846 14.846 0 012.9-.288 19.573 19.573 0 012.683.188 8.171 8.171 0 012.479.729 4.879 4.879 0 011.834 1.51 4.223 4.223 0 01.712 2.565v9.134a18.449 18.449 0 00.136 2.277 4.091 4.091 0 00.476 1.629h-4.89a6.7 6.7 0 01-.221-.831 7.242 7.242 0 01-.12-.865 6.285 6.285 0 01-2.716 1.663 10.894 10.894 0 01-3.192.476 8.618 8.618 0 01-2.343-.306 5.336 5.336 0 01-1.9-.951 4.4 4.4 0 01-1.274-1.63 5.5 5.5 0 01-.459-2.342 5.114 5.114 0 01.527-2.463 4.41 4.41 0 011.358-1.546 6.107 6.107 0 011.9-.865 19.979 19.979 0 012.156-.458q1.086-.17 2.139-.274a13 13 0 001.867-.3 3.263 3.263 0 001.291-.6 1.3 1.3 0 00.442-1.137 2.565 2.565 0 00-.255-1.241 1.888 1.888 0 00-.679-.712 2.718 2.718 0 00-.985-.34 8.212 8.212 0 00-1.2-.084 3.662 3.662 0 00-2.241.611 2.73 2.73 0 00-.951 2.038zm11.138 3.565a2.145 2.145 0 01-.764.425 7.657 7.657 0 01-.984.255q-.527.1-1.1.171t-1.155.169a9.008 9.008 0 00-1.07.271 3.2 3.2 0 00-.916.459 2.169 2.169 0 00-.628.73 2.347 2.347 0 00-.238 1.12 2.266 2.266 0 00.238 1.086 1.81 1.81 0 00.645.7 2.7 2.7 0 00.951.358 6.059 6.059 0 001.121.1 4.264 4.264 0 002.206-.475 3.176 3.176 0 001.155-1.138 3.658 3.658 0 00.459-1.342 9.256 9.256 0 00.085-1.087zM97.164 6.69v3.26h.068a5.9 5.9 0 01.917-1.512 6.016 6.016 0 011.324-1.188 6.416 6.416 0 011.6-.764 5.766 5.766 0 011.765-.272 3.786 3.786 0 011.053.169v4.483a9.945 9.945 0 00-.815-.119 8.863 8.863 0 00-.917-.051 5.139 5.139 0 00-2.241.442 3.9 3.9 0 00-1.478 1.206 4.837 4.837 0 00-.8 1.783 9.692 9.692 0 00-.238 2.206v7.912H92.58V6.69zM114.057 29.475a6.983 6.983 0 01-3.871.918c-.5 0-.99-.018-1.477-.051s-.98-.074-1.478-.12v-3.973q.68.068 1.393.136a9.987 9.987 0 001.426.035 1.878 1.878 0 001.41-.747 2.415 2.415 0 00.459-1.427 2.894 2.894 0 00-.2-1.086l-6.146-16.469h5.127l3.973 12.02h.068l3.837-12.02h4.992l-7.334 19.729a5.938 5.938 0 01-2.179 3.055z"/>
  <g>
    <path class="a" d="M37.987 6.69H36.38v17.556h4.822V6.69h-3.215zM39.594 0h-3.215v3.973h4.822V0z"/>
  </g>
</svg>
