<svg xmlns="http://www.w3.org/2000/svg" viewBox="0 0 105.345 35.913">
  <g opacity=".65">
    <path d="M97.831 16.592a12.016 12.016 0 00-2.141-2.254c-.072-.261-.417-.166-.414-.458-.564-.432-1.1-.9-1.662-1.32l-.268.282c-2.7.561-1.9.318-2.665.193l-.52-.049v-.064c-.368.08-.573-.2-.926-.167v-.024c-.229-.122-.55.072-.783-.123-.186.1-.484-.023-.635.115-.275-.1-.371.166-.681.053-.106.167-.318.021-.384.153-.215-.07-.369.115-.547.036-.033.2-.279-.024-.3.17a5.1 5.1 0 00-1.006.3c-.215-.113-.2.189-.417.08-2.246 3.249-1.311 2.878-1.9 3.328.379 3.616.94 3.826.674 4.311.236.229.229.115.318.229.092-.115.1-.03.115 0l.125-.054c.006.122.14.08.229.1.126-.1.391-.08.366-.344.344-.106.316-.551.417-.866h.036c-.044-2.181-.163-1.663-.252-2.164h-.036c-.087-.229-.043-.408-.115-.621.077-.107.115-.278.256-.283l.044.064c.133-.5.125.189.411.044-.115.344.3.322.262.627.13.054.149-.092.177-.163.213.1.215-.176.415-.067.047-.229.391-.067.567-.183 0-.086.1-.092.173-.077.157.242.409.315.5.552l.064-.059c.21.146.344.374.65.364.885.541.965.246 1.082.458a2.287 2.287 0 001.527-.248l.082.09c.031-.159.256-.049.391-.067v-.064a.5.5 0 01.375.019v.06h.084c.2 1.048-.511.849-.544 1.008-.115.19-.431.163-.653.229-.153-.115-.422-.033-.6-.115 0-.073-.142-.08-.2-.157a1.457 1.457 0 01-.839.021v-.06c-.156-.031-.4.054-.468-.115-.084-.016-.195.014-.252-.037v-.062a.433.433 0 01-.381-.165c-.186-.034-.221-.047-.19-.094-.072 0-.167-.021-.177-.107a.751.751 0 01-.386-.276c-.273.133-.133-.278-.379-.166a.628.628 0 01-.408.152c-.041.1-.135.044-.208.053v.06c-.063.046-.159 0-.229.014a6.33 6.33 0 01-.086 2.395 4.853 4.853 0 011.576-.787c.067-.132.252.05.273-.135.979.033.935.013 1.036.135a1.914 1.914 0 01.381.166c.067.1.185.182.242.282h.06c.037.26.248.418.114.706l.81.04c.023.037.072.052.056.1.193.04.236.033.2.095.213.135.481.1.591.325a1.158 1.158 0 01.388 1.052c-.335.9-.764.581-.865.61a1.456 1.456 0 00-.014-.985c-.269.024-.156-.3-.464-.219-.016-.2-.291 0-.306-.2l-.064.084a2.244 2.244 0 00-1.049.133c-.054-.115-.115-.3-.042-.384.2-1.111-1.072-.8-1-.883a.368.368 0 01-.295.084v.05c-.229.1-.514.115-.657.325a1.75 1.75 0 00-.839.527l-.034-.04c-1.421 1.184-.824.733-1.476 1.26v.062c-.026.036-.062.033-.1.033-.127.113-.185.322-.356.388-.115.389-.371.9-.1 1.36.084 0 .093.1.077.177.2 0 .079.092.113.092.086.188.162.113.137.19.195.024.126.069.142.093l.145.007c.8.255.561-.115.936-.043.024-.152.115-.053.115-.093.08-.167.321-.094.4-.275l.023.037a20.279 20.279 0 011.416-1.791v-.06c.222-.064.52-.235.73-.027-.687 1.124-.5.761-.839 1.35-.333.132-.365.537-.532.774h-.062c.016.2-.159.3-.249.394a1.359 1.359 0 00.344.669c0 .16.3.026.195.242.079-.143.276.051.295-.046.006.115.113.092.2.107.637-.248.555-.409.711-.409-.01-.05.043-.145.126-.115-.013-.246.292-.258.374-.449.246-.087.215-.458.508-.517a5.443 5.443 0 01.663-.965c.1.053.2.059.223.182.64.67.93.135 1.029.229.027-.155.127-.052.126-.092a.657.657 0 01.428-.325c.093-.2.279-.306.421-.458.246-.074.273-.417.58-.477 1.085-1.238.849-.945 1.015-1.242.177-.139.212-.359.435-.458a17.012 17.012 0 001.586-2.312c.418-.139.693-.573 1.029-.86.2.083.047-.219.24-.173v-.062c.195 0 .135-.289.365-.3a.535.535 0 01.329-.3 4.916 4.916 0 01.437-.521c.22-.039.279-.258.421-.422-.222-.057-.222-.329-.386-.422z"/>
    <path d="M83.579 23.147c.249-.356.518-.676.776-1a1.7 1.7 0 01-1.042-.024v-.026c-.248.011-.208-.036-.262-.1-.723-.388-.269-.844-.573-.766-.573.465-1.075.946-1.617 1.424h-.086c-.033.2-.331.316-.458.484-.22.037-.2.235-.449.273v.06c-2.459 2.747-2.4 2.375-2.126 3.232.034.014.021.05.02.087.156.031.219.256.427.192.163.18.482.086.723.133v-.062c.218.036.321-.132.481-.186.608-.541.717-.449.76-.677.316-.021.421-.458.776-.517.063-.057.011-.245.153-.176.2-.139.3-.392.544-.467.67-.646.521-.511.863-.844.016-.06.074-.021.115-.031.074-.316.457-.4.53-.714.227-.007.239-.268.445-.295z"/>
    <path d="M82.003 19.497v-.05c.547-.857-.418-1.977-.245-2.323l-.064.094c-1.576.694-1.051.657-1.514.753-.16.312-.563.344-.755.555-1.41 1.211-2.99 2.1-4.038 2.87-1.28 1.6-.115 1.615-.315 1.831.953-.057.756.011.881-.166.156.044 1.765-.916 1.931-.832-.053-.137.209-.052.154-.2a6.34 6.34 0 00.985-.571c.024.011.047.026.033.063.019-.136.239-.149.268-.259.344.09.283-.355.6-.328.474-.374.275-.268.491-.384.043-.115.139-.115.18-.236.344-.115.414-.558.816-.573.023.026.07.053.056.089.014-.049-.019-.115.03-.146.285.131.209-.327.506-.187z"/>
    <path d="M70.209.051l-.023 35.844 35.137.023.024-35.844zm31.27 16.388c-.439.826-.8.721-.771.97-.183-.019-.132.013-.149.08-.2-.109-.192.188-.392.067-.08.145-.293.072-.408.19-.07-.115-.142.133-.182-.034-.092.156-.344.046-.524.062.014-.036-.033-.063-.057-.089-.448.282-.385.442-.54.417-.054.115-.239.2-.271.344-.321.107-.464.581-.82.7a3.932 3.932 0 01-.975.865c-1.115 1.4-1.677 2.2-2.143 2.787a25.217 25.217 0 01-2.532 2.6c-.737.535-.687.573-.925.573-.033.195-.291-.026-.335.167 0-.036.016-.072-.02-.087-.079.144-.366.057-.458.029v-.024c-.406-.106-.484-.023-.8.17-.059.208-.265.2-.309.391-.706.759-.78.547-.85.822-.115.056-.283.1-.279.258-.177-.083-.166.176-.356.093-.092.156-.4.043-.608.057-.017-.162-.215-.059-.323-.1 0-.16-.192-.046-.222-.182-.447-.059-.638-.621-.792-.961-.253-.049-.361.179-.564.115l-.065.1c-.215-.085-.711.139-.777-.246l-.192-.046c0-.271-.276-.076-.344-.311-.973-.814-.517-1.031-.759-1.181-.263-.062-.206.285-.425.3-.185.286-.478.371-.673.644-.147-.014-.1.043-.115.093-.173.077-.382.142-.4.325-.094-.054-.126.08-.2.089a12.133 12.133 0 01-1.031.776v.086c-.176-.107-.167.228-.319.107-.867.584-.983.229-1.1.477l-.412-.019v-.063a.687.687 0 00-.313-.04c-.09-.208-.249-.066-.229-.109-.76-.863-.686-1.039-.7-1.3-.177-.094.04-.379-.062-.531a21.037 21.037 0 001.884-2.443c.351-.265.384-.266.429-.374.155.023.115-.029.125-.08.142.026.1-.037.114-.082 1.658-1.474 1.151-.915 1.519-1.343.279-.023.276-.478.517-.457a1.579 1.579 0 01.4-.449c-.01-.037.029-.1-.019-.123-1.334.857-1.242.741-1.542 1.082-2.2 1.187-2 1.158-2.389 1.3-.1.291-2.091.9-2.236 1.136-.22.039-.344-.1-.555-.076v-.062c-2.088-1.53-.544-1.925-.939-2.233.229-.076.369-.389.58-.478.033-.182.252-.209.309-.4a3.878 3.878 0 01.65-.437v-.049c.146-.019.1-.315.281-.282 1.2-.8 2.038-1.049 2.319-1.638a4.314 4.314 0 00.686-.508c.05 0 .115.03.147-.017.1-.057.193-.249.362-.218v-.06c.12.021.076-.056.089-.082a.294.294 0 00.275-.172c.162-.092.458.01.474-.273.508-.086.4-.256.544-.229a1.579 1.579 0 01.687-.323c.037-.293.369-.115.474-.3a7.267 7.267 0 001.009-2.166c.13-.179.218-.492.428-.607.029-.1.086-.253.195-.229.036-.01.026-.06.027-.084.057.077.122-.019.172-.029v-.049c.18.007.132-.02.149-.092.182.019.132-.013.149-.079a.457.457 0 00.442-.127c.073-.009.157.031.208-.014v-.073c.115.079.139-.153.2.01 0-.185.242.023.213-.162.1-.009.206.034.292-.023v-.062c.219.01.344-.057.55-.06v-.062c.084 0 .18.033.243-.013v-.061c.074-.01.169.033.229-.014v-.062c.263.074.379-.08.646-.054v-.063c1.061-.176.9-.228 1.4-.142l.64.067v.024l.458.084v.023l.124-.054.044.1.185-.09v.062c.094.066.229.036.349.053-.013.037.034.052.044.09.042-.109.162-.08.271-.074l.056.089c.059-.195.255 0 .355-.044-.014.024.01.037.02.063.115-.007.079-.044.09-.083.159-.041.268.235.349.017.133.031.355-.057.408.106a.093.093 0 00.087-.033v-.05c.115-.007.241.037.352-.019v-.063c.727-.209.512-.564.7-.581.8-1.593 1.487-2.107 1.471-3 .243.011.149-.325.344-.391v-.086c.133-.017.19-.175.344-.192.131-.215.478-.125.552-.417.193.021.182-.249.385-.19.122-.265.481-.162.6-.389.228.12.238-.173.462-.064.082-.182.4.03.444-.152a.915.915 0 01.4.315c-.04.084.079.126.1.152-.019.418.458.269.354.719a10.276 10.276 0 00.726 1.1c.4.8.5.872.484 1.079a17.353 17.353 0 011.346 2.9c.114.458.279.789.355 1.248.145.043.089.2.132.3a2 2 0 01-.036 1.925z"/>
    <path d="M98.126 13.863c-1.626-2.19-1.354-1.673-1.729-2.208-.252-.049-.252-.319-.394-.437-.027-.173-.227-.133-.238-.331-.657-.744-.784-.279-.979-.344-.146.263-.379.326-.547.527-.146.03-.206.261-.3.318.02.087-.043.133-.07.206.1.165.386.275.5.429.371.127.573.531.817.686l.026-.023c.628.514.635.625.817.68-.034.228.258.183.275.342 1.428 1.413.965 1.1 1.334 1.331 0 .16.259.16.249.368a13.108 13.108 0 01.875 1.038c.188-.126.229-.285.434-.471-.043-.115-.046-.311-.15-.4-.191-.655-.671-1.071-.92-1.711z"/>
  </g>
  <g opacity=".8">
    <path d="M18.604 19.316h.077a.234.234 0 00-.186-.013l-.007.011h.044a.4.4 0 01.072.002z"/>
    <path d="M24.25 19.306c-.135-1.079-.514-1.065-.52-1.29-.389-.4-.313-.424-.437-.48a28.634 28.634 0 00-2.529-4.3c-.664-.509-.379-.313-.812-.442l-.375-.062v-.024l-.376-.062v-.037c-.06 0-.242.024-.266-.115-.948-.176-.763-.01-1.126-.209-.412.1-.666-.172-1.053-.125v-.043c-.206-.024-.474.049-.605-.062-.5.062-.714-.115-1.2-.086v-.062h-1.16c-.315-.283-.573.159-.956-.037v-.026l-.352-.062v-.062c-.7.034-.469.053-.693.056v.006c-.074.1-.195.05-.292.062v.062c-.291-.05-.342.282-.617.258a1.227 1.227 0 01-.438.418c-1.615 6.284.07 7.615 1.049 7.641v-.062c.122 0 .1-.136.229-.086.469-3.125-.571-2.668-.263-3.244.686-.405.648-.354.872-.355a7.56 7.56 0 011.019-.676c-.013-.159.157-.22.266-.245a4.6 4.6 0 002.639 2.632c.012.135.243-.037.206.147.084.013.193-.024.266.024v.062c.113 0 .255-.011.291.086 0-.024-.011-.06.024-.086a.094.094 0 01.036.086c.084.013.182-.024.255.039v.023c.521-.06 1.2.149 1.539-.17.278.05.5-.185.787-.06v.024h.084v.036c.617.386.074.594.242.737-.294.291-.282.229-.387.258-.653.077-.458.16-.687 0a1.007 1.007 0 00-.3-.073h-.116c-.09.142-.323.049-.49.073-.011.135-.145.086-.229.1-.218-.159-.5-.073-.787-.062-.31-.125-.207-.043-.315-.147l-.351-.063v-.06a.8.8 0 01-.667-.259c-.266-.024-.326-.368-.581-.295-.084.1-.072.246-.122.381-.279.565.242.687.242.847a2.081 2.081 0 01-.036.86h.206c.047.2.326-.011.375.172.036 0 .1.026.122-.023.072.086.266-.013.253.147 1.305.458.58 1.423.7 1.622.94.538.573.271.958.565a1.945 1.945 0 01.52 1.818l-.115.062c-.06.246-.344.381-.521.442-.1.183-.279-.1-.292.036-.024-.024-.047-.036-.036-.06.036-.975-.07-2.22-.81-2.25-.332-.3-.48-.039-.5-.229.183-1.029-.077-1.086-.109-1.258a.819.819 0 01-.471-.173c-.8.115-.706-.107-.982.024-.024-.024-.073-.049-.062-.086l-.06.06c-.156-.992-.193-1.469-.6-1.657-1.145-.057-.842-.077-1.164-.087-.212.551-.034.419-.206.467v.125c-.193.1-.1.428-.411.379-1.587.507-1.277-.344-1.771-.087v.062c-.047.049-.115.011-.18.024v.062c-.195 0-.266.209-.458.123-1.63.737-.246 1.779-.412 1.706.565.315.916.278 1.016.407h.183c.352.195.311-.03.375.147a7.311 7.311 0 00.75 1.978.93.93 0 00.726.381v.039c.049-.086.1.023.122.023.024-.159.255-.06.375-.086-.036-.113.109-.06.122-.122a1.417 1.417 0 01.315-.146c.1-.259.5-.185.583-.405.218-.063.291-.259.521-.271.017-.153.125-.042.122-.086 0-.139.089-.062.084-.086v-.061c.036-.05.1-.024.145-.024.037-.16.219-.05.268-.246.253-.024.3-.271.52-.344.557-.286.432.625.5.528-.133.172-.195.429-.435.405-.021.156-.125.057-.122.1v.05c-.193.062-.317.258-.545.271-1.506.68-.442 1.179-.7 1.411.663.8 1.984.106 2.386.229v-.049c1.882-.334 1.689-.278 2-.626a8.653 8.653 0 00.678-.59c.007-.14.077-.057.084-.086a13.92 13.92 0 012.7-2.589 18.659 18.659 0 002.05-2.376 2.456 2.456 0 01.157-.633c.1-.135.206-.331.1-.467.015-.058.028-.052.038-.051zm-3.369 1.411l-.5.036c0-.135-.169-.049-.206-.122-.193-.124-.472-.308-.315-.651a1.352 1.352 0 011.042-.258l.06.086c.243-.037.243.147.352.27-.081.197-.154.615-.433.64z"/>
    <path d="M8.79 17.123c-.352.318-.7.551-1.055.883a7.584 7.584 0 00.351 1.965c.408.014.487.308.581.123 2.395.549.166-2.616.123-2.971z"/>
    <path d="M23.958 20.426l-.01.017c-.006.03-.003.036.01-.017z"/>
    <path d="M13.444 19.004c1.473-.581.336-1.3.292-1.56-.242-.159-.472-.06-.763-.086v.063c-.243-.05-.291.208-.547.115.013.086-.047.22.086.229.154 1.364.252 1.082.932 1.239z"/>
    <path d="M21.527 11.849c-.013.115-.122.086-.206.086-.115.159-.328.209-.316.418 1.789 1.984 2.572 4.291 3.3 5.419.344.135.255.8.727.59a1.729 1.729 0 00.618-.614 21.159 21.159 0 00-4.123-5.899z"/>
    <path d="M.023 0L0 35.844l35.132.023.024-35.844zM29.08 17.726c-1.391.916-1.6 1.129-2.242 1.227v.063c-.133.011-.458.122-.458-.086h-.206c-.115-.09-.14-.054-.206-.062-.564-.074-.376.432-.643.229-.407 1.069-.932 2.6-1.565 2.947 0 .123-.182.123-.206.246-.169.05-.219.306-.412.344-1.287 1.35-.972.843-1.224 1.179-2.535 2.878-6.458 4.965-8.52 3.236-.145-.356-.167-.626-.351-.995-1.135.532-1.051.066-1.683.023a.115.115 0 00-.136-.089h-.009c-1.145-2.008-.677-1.582-.812-2.15-.253-.037-.581.073-.75-.086-.229.06-.344-.136-.558-.063-.1-.123-.266-.123-.411-.185-1.474-2.161-.458-2.256-.628-2.7-.037-.062-.1-.026-.146-.037 0-.156-.137-.06-.122-.086-.011-.1-.18-.159-.265-.172-.444-1.911-.441-1.967-.581-2.458h-.023c.109-.2.229-.405.315-.59.445-.458.535-.468.583-.59.156.013.169-.208.326-.172.084-.208.4-.172.437-.416.242-.024.242-.282.5-.3a5.884 5.884 0 00.4-2.236c.159-1.327.442-1.2.472-1.5-.024-.086.024-.1.084-.122a1.937 1.937 0 011.188-.946v-.06c1.487-.146 1.288.04 2.011-.084.036.115.157.036.229.06 0-.146.1.05.145-.06a4.82 4.82 0 001.139.062l.049.086h.849v.062c.386-.086.739.159 1.224.125.047.115.278.011.313.086v-.033c.086.2.448-.013.558.185.315-.073.521.123.836.062.047.16.291.049.386.086.049.185.351-.011.4.173.989.157 1.126.163 1.2-.062-.06-.16.182-.122.146-.295.073-.06.183-.185.255-.258.157.062.073-.135.182-.146-1.016-1.018-.213-1.347-.242-1.683A26.008 26.008 0 0022.8 7.04c.146.013.243-.135.328-.208 1.373.2 1.043.059 1.333.713a36.438 36.438 0 013.255 5.31h.06c-.026.293.291.368.255.674a15.351 15.351 0 01.966 2.151 5.633 5.633 0 01.583 1.5c-.402.51-.476.344-.5.546z"/>
  </g>
  <g>
    <path d="M60.899 12.766h-.059c0-.229-.223-.229-.223-.429-.152-.049-.1-.286-.235-.311-.408-.916-.667-.852-.7-1.085-.106-.023-.129-.229-.188-.262-.023-.047-.083-.084-.059-.143-.187-.047-.094-.215-.229-.309-.14 0-.059-.215-.2-.239.047-.229-.388-.167-.424-.049-.2 0-.094.311-.2.394v.143c.186.286.146.182.2.322.129-.036.07.155.163.143 1.5 2.372 1.426 1.92 1.55 2.432.129 0 .095.166.14.249.248.06.212.371.365.49 0 .2.212.156.176.369 1.466 2.528 1.1 2.353 1.487 2.921l.143-.06c.344.047.344-.143.5-.344a12.147 12.147 0 00-1.126-2.174c-1.154-2.108-.896-1.524-1.081-2.058z"/>
    <path d="M61.284 17.115c-.892-1.646-1.068-2-1.291-2.4-.187-.094-.153-.465-.4-.573-.059-.1-.093-.251-.2-.288a14.675 14.675 0 00-1.549-2.37c-.189.034-.293.166-.469.228-.024.192-.272-.012-.283.179-.843.006-3.03.024-3.243.021a7.309 7.309 0 00-1.1-.059c-.081-.073-.229.036-.306-.084-.873-.042-.945.1-1.128-.084l-.686-.023v-.06a12.109 12.109 0 01-1.387-.084v-.04c-.152-.013-.352.047-.47-.06-.708.115-.492.285-.764.286-.564.4-.328.285-.6.405-.784 1.038-.767.853-1.152 1.406-.681.581-.412.488-.624.857-1.181 1.125-1.016.85-1.292 1.022-.472.272-.286.239-.541.344-.033.153-.139.039-.14.084-.525.614.334 1.052.222 1.119.248-.13.344.229.458.107.011.024.034.036.023.059.106.024.282-.07.318.084.152.083.106-.142.248-.083a.062.062 0 01.082.03.066.066 0 010 .054h.06v-.06c.114.023.2-.167.229-.049.036-.023.047-.07.094-.059.011.011.034.024.023.059l.059-.115c.142 0 .165-.113.306-.113-.011-.143.153-.047.176-.166a1.347 1.347 0 00.505-.49c.561-.538.306-.4.564-.535l.006.006h.126a.175.175 0 01.175-.1c.024-.179.282.023.316-.167.166 0 .306-.215.531-.142v-.062a2.553 2.553 0 01.5-.2c.06-.153.283-.166.458-.166.033-.153.137-.037.142-.083.011.023.069.047.057.083.2.013.229.239.306.406.532.311.521.4.623.571.188-.023.293.239.446.229.07.047.082.107.115.166.212-.106.282.2.447.145.046.011.113.06.082.115.182-.009.126.073.142.083.209.013.176.063.176.084.093.011.2-.024.282.036v.047c.195.031.216.039.2.094.094.024.259-.07.283.084l.1-.084c.07.18.4-.023.458.167-.011-.036.036-.059.047-.082.14.166.424.046.6 0a.889.889 0 01.165.458c-.129.13-.07.487-.344.487-.011.156-.235.06-.364.084-.044.176-.255-.027-.223 0 0 .034.011.07-.023.083-.142-.156-.435-.049-.658-.084-.9-.1-.915-.354-1.128-.311-.115-.143-.306-.167-.388-.322-1.018-.686-.591-.474-1.068-.763-.2-.286-.435-.394-.658-.668a6.687 6.687 0 01-1.071.488c-.08.179-.3.115-.422.263-.142-.013-.165.115-.3.106-.458.528-.243.378-.484.524-.093.25-.4.19-.5.428-1.135.335-.875.3-1.489.251-.165.034-.4-.073-.481.083-.259-.215-.73-.25-.965-.512-3.158 3.1-2.466 3.232-2.929 3.656-.176.094-.152.381-.318.487-.505.935.315.995.458 1.181 2.061.474-2 3.548.362 3.538l.059-.082c.153-.049.352-.1.388-.311.538-.438.555-.271.847-.094a11.129 11.129 0 001.021 1.43c.992.027.68-.169 1.151-.392 1.008-.786 1.068-.687 1.271-.916.4-.26.229-.208.424-.309.312-.313.17-.229.344-.321v-.078c.165.013.2-.19.344-.19.011-.222.093-.1.106-.143.8-.73.429-.494.823-.916.083-.286.293-.477.306-.714a9.226 9.226 0 00.846-.607c.188-.013.142-.192.318-.229v-.062c.142.011.165-.2.306-.19v-.06a.412.412 0 01.7-.083h.083c.281.716-.541.893-.813 1.311a1.22 1.22 0 00-.258.228c-.7.5-.52.544-.73.942h-.059c-1.765 2.146-1.267 1.136-2.093 2-.295.024-.388.286-.587.43-1.32.623-1.059 1.012-.741 1.345.082.024.188-.049.229.06.988.03.81-.313 1.029-.229.094-.179.248-.2.344-.344.229.115.115-.3.364-.167v-.06a4.682 4.682 0 00.458-.26c-.1-.25.177-.083.223-.25.212-.115.236-.333.424-.488.318.047.352-.3.623-.321.737-.554.59-.591.812-.656.036-.215.212-.262.344-.394-.07-.3.344-.115.316-.4.572-.916.439-.933.613-1.145.115.013.188-.155.259-.023a4.419 4.419 0 011.046-.094c.059-.072.14-.024.2 0a2.349 2.349 0 01.847-.166c.012-.192.316.013.364-.167 1.224-.252 1.122-.272 1.351-.379.188.023.259-.13.4-.19.248.072.283-.238.507-.179a6.789 6.789 0 01.869-.458c.429-.137.375-.434.505-.344a12.447 12.447 0 00.988-.833v-.047a1.228 1.228 0 00.283-.262c.023-.132.2-.083.176-.262.7-.547.573-1.181.87-1.167.034-.06-.011-.2.115-.167.07-.19.269-.3.422-.405.024-.072.047-.215.166-.166.023-.25.344-.049.344-.322l.023.036.342-.262c.188.1.153-.19.344-.083.047-.179.318-.094.4-.262-.059-.106-.247-.19-.188-.369zm-19.24 5.682c.011.239-.295.251-.424.322-.011-.155-.176-.036-.223-.143a.655.655 0 01-.14-.488c.093 0 .059-.115.106-.167a1.377 1.377 0 00.587-.547c.248-.024.2-.273.424-.371s.259-.428.517-.487v-.049c.212-.036.236-.274.366-.381l.246-.249c.142-.06.188-.239.282-.322.129.059.106-.084.14-.143a3.2 3.2 0 00.344-.369 4.663 4.663 0 00.687-.857c.094-.011.142-.155.2-.229a.641.641 0 01.564.2c.012-.036.047-.036.083-.036.163.229.445.525.281.834-.034.011-.094-.023-.113.023v.062c-.189-.049-.295.229-.424 0-.2.036-.282.213-.365.344-.165.114-.365.166-.365.428h-.082c-.552.56-1.129 1.145-1.61 1.656-.177-.049-.107.249-.283.2a3.668 3.668 0 00-.344.371c-.208.161-.279.279-.455.398zm6.41-1.8c-.115.273-.6-.073-.647.319l-.115.06c-.153.3-.494.458-.671.739-.235-.011-.212.238-.344.309a4.51 4.51 0 01-.564.465c-.152.177-.364.358-.5.512-.036.011-.1-.024-.115.023v.06c-.024 0-.072 0-.083.036v.047c-.306.132-.412.457-.687.571-.047.024-.011.084-.023.115-.07.072-.236 0-.229.143-.034 0-.069-.013-.082.023v.06a.1.1 0 00-.094.036c-.036.2-.352.107-.388.369a4.253 4.253 0 00-.787.654c-.059 0-.223-.046-.229.084h-.388c-.106-.084-.129-.262-.2-.394.034-.072.059-.251.163-.262.072-.19.318-.166.4-.369.059-.013.129.024.163-.036a.7.7 0 00.177-.229 6.763 6.763 0 00.647-.511c.21-.084.318-.358.564-.429.083-.167.365-.2.422-.428a2.027 2.027 0 00.484-.405c.293-.155.4-.465.7-.6a3.655 3.655 0 01.507-.6l.023.023c.306-.458.824-.809 1.165-1.285a.856.856 0 01.763.262.5.5 0 01-.04.628zm9.844-2.854a.577.577 0 01-.424.2c-.023-.06-.07-.107-.142-.084a4.333 4.333 0 00-.7-1.167 5.754 5.754 0 00-.5-.81c-.176-.167-.458-.458-.623-.621a.93.93 0 01.024-.81c.2-.011.258-.19.481-.143a.1.1 0 00.083.1.846.846 0 01.646.573c-.083.155.176.249 0 .369.188.179.246.441.458.571.023.275.388.478.447.776.107.321.507.668.259 1.049z"/>
    <path d="M35.075.023l-.024 35.844 35.137.023.023-35.844zm31.321 16.524c-.544.557-.557.507-.658.654l.034.037c-1.5 1.347-1.2 1-1.586 1.165v.024l-.53.06v.059c-.229.107-.229-.215-.424-.06a1.964 1.964 0 01-.687-.2.528.528 0 00-.528-.229c-.024.189-.271-.013-.282.177-.15-.016-.1.033-.115.084-.176-.049-.282.07-.424.106-.07.167-.257.155-.365.286-.129-.037-.114.094-.222.094v.049h-.094c-.318.439-.847.654-.952 1.238a13.368 13.368 0 01-3.246 3.083c-.2.049-.329.132-.505.167v.06c-.059.011-.129-.024-.176.023v.059a.16.16 0 00-.142.06 5.079 5.079 0 01-1.718.547v.083c-.447-.034-.7.309-1.068.143-.107.107-.295.059-.458.2v-.059a.475.475 0 00-.365 0v.059c-.926.2-.749.229-1.045.62-2.126 1.985-1.586 1.27-2.423 2.2-1.526 1.1-1.33 1.111-1.669 1.26-.047.059-.165.143-.2.229-.047.013-.106-.023-.14.024v.059c-1.583.581-1.194.384-1.576.369-.047-.1-.212-.024-.282-.143-.907-.749-.687-.5-.844-1.051l-1.1.024v-.059a1.22 1.22 0 01-.893-.537c-.458-1.222-1.687-.069-1.927-.573 0-.036.013-.073-.023-.1-.388-.342-.471-.329-.482-.477h-.059a1.375 1.375 0 01-.328-1.145.866.866 0 00.329-.464c.083.036.083-.047.115-.083v-.059h.058a5.232 5.232 0 00.706-1.145c-2.523-1.2.769-4.181.707-4.4-.093-.18.236-.179.2-.384.405-.527.427-.6.588-.654a3.443 3.443 0 01.823-.714c-.106-.094.059-.083.047-.167a1.131 1.131 0 00.4-.321c-.011-.06.024-.143-.023-.19h-.059a2.732 2.732 0 01-.059-.834c.142.036.047-.13.115-.167.823-.631.8-.573.952-.75.06-.011.129.024.176-.023v-.06c.137.02.094-.04.107-.083.142 0 .1-.019.115-.083a1.487 1.487 0 00.564-.381c.011-.262.2-.394.165-.678.616-.56.54-.344.687-.751.839-.949.647-.552.988-1.048.235-.107.281-.321.528-.405v-.059c.246-.024.259-.394.565-.344a1.063 1.063 0 01.8-.285v-.04l.047.085a.092.092 0 00.036-.085c.352-.106.469.18.812.085.1.155.364.06.54.084v.023l.623.06v.036c.494-.023.916.145 1.433.084.666.229 1.039.009 1.164.084a20.633 20.633 0 004.172-.057c.142-.179.587-.344.248-.6.222-1.241.616-1.006.7-1.26.177.049.177-.13.344-.106.372-.916.458-.837.789-1.1-.024-.166.246-.115.235-.286.259-.059.165-.25.447-.285v-.047a.124.124 0 00.142-.1l.059.1c.106-.1.2-.179.3-.262.248.083.177-.25.424-.167v-.06c.106-.011.229.024.318-.034v-.047c.189-.037.469.07.587-.1 0 .036-.011.072.024.1.14-.011 0-.273.2-.179.394.2.249.155.458.179.023.114.2.083.222.229a12.439 12.439 0 011.433 1.967c1.5 3.511 1.619 4.615 2.429 6.556.349.794-.417.773-.283.995z"/>
  </g>
</svg>
