<?xml version="1.0" encoding="utf-8"?>
<!-- Generator: Adobe Illustrator 24.2.1, SVG Export Plug-In . SVG Version: 6.00 Build 0)  -->
<svg version="1.1" id="Layer_1" xmlns="http://www.w3.org/2000/svg" xmlns:xlink="http://www.w3.org/1999/xlink" x="0px" y="0px"
	 width="283.2px" height="393.9px" viewBox="0 0 283.2 393.9" enable-background="new 0 0 283.2 393.9" xml:space="preserve">
<g id="GFX-_Childish_Gambino" transform="translate(-133.942 -156.423)">
	<path id="Path_316" fill="#F49C98" d="M213.4,366.5c-0.2-0.2-0.4-0.3-0.7-0.4c-0.1,0-0.2,0.1-0.3,0.1c0.1,0.2,0.2,0.4,0.3,0.5
		C212.8,366.7,213.1,366.6,213.4,366.5 M325.2,519.8l0.2-0.2c-0.1-0.2-0.2-0.3-0.3-0.4c-0.2-0.1-0.3-0.2-0.5-0.2l-0.1,0.2
		L325.2,519.8 M220.8,376.8c-0.4-0.4-0.5-0.6-0.7-0.6c-0.2,0-0.4,0-0.6,0.1c0,0.1,0,0.2,0,0.3L220.8,376.8 M149.4,328.6l0.3,0.2
		c0.1-0.4,0.2-0.7,0.2-1.1l-0.4-0.1C149.5,327.9,149.4,328.2,149.4,328.6 M182.2,527.5l0.3-0.3l-0.7-1l-0.3,0.2L182.2,527.5
		 M176.6,531.8l0.4-0.2c-0.2-0.3-0.5-0.6-0.7-0.9l-0.2,0.2L176.6,531.8 M187.9,528.6l-0.2,0.2l0.9,1l0.2-0.2L187.9,528.6 M377.2,244
		l-0.1,0.2h2c0-0.1,0-0.1,0-0.2H377.2z M174.3,527.1l-0.5,0.3l1.2,1.5l0.3-0.2C174.9,528.2,174.6,527.7,174.3,527.1 M180.6,527.5
		l-0.4,0.3l1.2,1.6l0.3-0.2L180.6,527.5 M179,531.7c0,0.7,0.1,1.3,1.3,1.4L179,531.7 M160.7,532.4c1,0.2,1,0.2,1.6-0.5L160.7,532.4
		 M387.3,246.6l0.3,0.1c0.1-0.6,0.3-1.2,0.4-1.8l-0.4-0.1L387.3,246.6 M376.9,240.1l-0.4-0.2l-1.2,1.5l1.6,0.1
		C376.9,241,376.9,240.5,376.9,240.1 M199.9,342.4c-0.3,1.7,0.1,2.1,1.5,1.7C200.2,343.7,200.2,343.7,199.9,342.4 M190.1,524.1
		c-0.1-1-0.8-2-1.7-2.5l-0.3,0.3L190.1,524.1 M325.5,517.8l0.3-0.4c-1-0.9-2-1.9-3.5-2.1L325.5,517.8 M207.2,345.3
		c1.3-0.8,1.2-1.7-0.3-2.7C207.1,343.5,207.1,344.3,207.2,345.3 M243.7,230.9c0,0.1,0,0.3,0,0.4c1.9,0.5,2,0.5,2.8-0.7L243.7,230.9
		 M324.2,514.3c-1.7-2-2.4-2.3-3.5-1.4L324.2,514.3 M319.4,519.7c-0.9-0.8-1.7-1.7-3.2-1.1C317.2,519.6,317.2,519.6,319.4,519.7
		 M180.4,530.4l-2.3-4C178,528.1,178.9,529.6,180.4,530.4 M206.9,376.5c0.8,0.5,1.7,0.6,2.6,0.2c0.2-0.1,0.3-0.5,0.5-0.9
		C208.7,375.5,207.6,374.9,206.9,376.5 M136.6,345.1l4.8-0.4C140.2,343.7,138.7,343.8,136.6,345.1 M183.8,525.7l-0.4,0.3
		c0.4,1.7,1.6,3,3.2,3.7L183.8,525.7 M208,340.3c1.2,2.7,1.2,2.7,2.3,3.2c0-1-0.3-2-0.9-2.7C209.2,340.5,208.7,340.5,208,340.3
		 M314.3,517.7c-0.8,0.2-1.5,0.3-2.1,0.5c-0.6,0.1-1.2,0.3-2,0.5C313.1,519.8,313.8,519.7,314.3,517.7 M324.9,521.9l0.2-0.3
		c-2.3-1.4-3.8-4-6.7-4.5L324.9,521.9 M186.2,333.1c0.1,1,0.3,2,0.6,3c0.3,0.9-0.6,2,0.6,2.8C188.3,336.7,187.9,334.5,186.2,333.1
		 M190,528.9l0.4-0.3l-4-4.8C186.3,526.5,188.6,527.4,190,528.9 M150.8,325.2l0.3,0.2l4.6-7.1C153.1,320,151.9,322.6,150.8,325.2
		 M210.1,213.9c0.4,2.9,1.9,4.5,4.2,4.4c-0.2-0.4-0.3-0.9-0.5-1c-1.3-0.5-2.1-1.6-2.3-2.9C211.4,213.7,210.8,213.7,210.1,213.9
		 M142.9,320.1c-2.9-0.2-3.7,0.5-4,3.3c3.3,0.5,3.3,0.5,3.9-2.6C142.9,320.6,142.9,320.4,142.9,320.1 M202.2,346.3
		c0.7,0.4,1.4,1,2.3,0.4c0.8-0.7,1.1-1.8,0.8-2.9c0-0.1-0.1-0.2-0.2-0.4c-1.1-2.4-3.6-3.7-6.2-3.3c-0.1,0-0.2,0.3-0.4,0.5
		c0.2,0.1,0.4,0.1,0.6,0.1c1.3-0.3,2.6,0.3,3.2,1.4c0.3,0.4,0.9,0.6,1.4,1c0.3,0.2,0.6,0.5,1.1,0.8
		C203.8,344.8,202.2,344.6,202.2,346.3 M386.7,256.8c1.4,0.1,2.6-0.1,3-1.2c0.4-1.2,0.6-2.5,0.7-3.8c0-0.2-0.4-0.5-0.7-0.6
		c-1.1-0.5-2.4-0.6-3.6-0.2c0.1,0.6,0.2,1.1,0.5,1.6C387.3,254,388,255.2,386.7,256.8 M381.5,247.2c-3.1-0.4-6.1-0.8-9.1-1.2
		c-0.8-0.1-1.4,0.3-1.6,1.3c2.7,0.6,5.3,1.3,8,1.9C380.7,249.5,380.8,249.4,381.5,247.2 M318.2,510c-1.1,0.6-1.9,1-2.7,1.4
		c-3.6,1.7-7.2,3.4-10.9,5.1c-1.5,0.7-3.1,1.3-4.8,1.8c-3.5,0.8-7,1.3-10.5,2c-1,0.2-2,0.4-3,0.6l0.1,0.5c4.5-0.6,9.1-0.7,13.5-2.4
		c5.2-2,10.3-4.2,15.5-6.4C316.6,512.1,317.6,511.1,318.2,510 M152.7,318.7c-1.8-0.7-3.7-0.9-5.7-0.7c-0.4,0.1-0.8,0.3-1.1,0.7
		c-1,1.6-2,3.2-1.8,5.5c1.6,0,3.2,0,4.7,0c0.4,0,0.8-0.3,1.1-0.6C150.9,322,151.7,320.5,152.7,318.7 M189.1,334.8
		c0.1,1.2,0,2.3,0,3.5c-0.2,1,0.4,2,1.3,2.3c1.9,1,3.7,2,5.6,3c0.4,0.2,0.9,0.3,1.3,0.4v-5L189.1,334.8 M390,243.5
		c0.7,0.5,1.4,0.7,2.2,0.7c5.6,0.8,11.2,1.7,16.8,2.5c0.9,0.2,1.8,0.3,2.7,0.3c1,0,1.2-0.3,1.2-1.7c-0.6-0.1-1.2-0.3-1.9-0.4
		c-6.1-0.8-12.1-1.6-18.2-2.4C391.8,242.3,390.7,242.7,390,243.5 M351.1,528.3c-0.8-0.2-1.4-0.3-2.1-0.4c-3.8-0.6-7.5-1.9-11-3.6
		c-1.6-0.8-3.1-1.7-4.6-2.6c-0.9-0.7-2.2-0.6-3,0.3c-0.6,0.6-1.3,1.1-1.9,1.5C334.1,528.2,344.7,531.5,351.1,528.3 M251.6,222
		c-0.5,2.6-1,4.7-1.5,6.7c-0.1,0.5-0.3,0.9-0.6,1.2c-1.6,1.1-1.5,2.5-0.6,4c0.1,0.2,0.2,0.5,0.3,0.7c0.1,0.9,0.9,1.5,1.7,1.6
		c2.1,0.4,4.2,0.9,6.4,1.3c0.6,0.1,1.2,0.1,1.8,0C258.1,231.7,256.3,226.4,251.6,222 M193.3,531.1c-2,1-4,2.1-6.1,2.9
		c-2.1,0.8-4.2,1.4-6.6,2.2c1.9,1.4,4.1,2.4,6.3,3.1c3.5,1.1,7.1,1.1,10.7,1.2c1.1,0.2,2.1-0.5,2.5-1.5c0.5-1.1-0.1-1.9-0.9-2.6
		C197.3,534.7,195.4,533,193.3,531.1 M153.5,324.1c0.4,0.2,0.7,0.3,1.1,0.4c7.1,1.5,13.9,4,20.3,7.4c3,1.5,5.8,3.4,8.7,5.1
		c0.5,0.3,1.1,0.5,1.7,0.7c0-0.9-0.1-1.7-0.2-2.6c-0.6-2.4-2.1-4.5-4.2-5.7c-2.7-1.7-5.6-3.2-8.4-4.7c-0.4-0.2-0.8-0.4-1.3-0.5
		c-1.8-0.6-3.6-1.2-5.4-1.8c-2.6-0.8-5.3-1.5-8-2.3c-0.7-0.3-1.5,0-1.9,0.6C155.2,321.7,154.4,322.8,153.5,324.1 M218.7,361.2
		c-1.1,1.9-2.1,3.5-3,5.3c-0.5,0.9-1.4,1.6-2.4,1.9c-0.8,0.3-1.8,0-2.1-0.9c-0.1-0.2-0.1-0.4-0.1-0.6c-0.1-0.5,0-1.1,0.1-1.6
		c0.9-3.6,1.9-7.1,2.8-10.7c0.3-1.1,0.5-2.2,0.6-3.3c0.1-2.1-1-3.2-3.1-3.1c-0.9,0.2-1.7-0.3-2.1-1.1c-0.2-0.3-0.4-0.6-0.6-0.9
		l-2.4,1.1c0.9,2.1,0.9,4.4,0.1,6.5c-0.4,1.3-0.3,2.7,0.4,3.8c0.8,1.5,1.1,3.3,0.9,5c-0.1,1.4,0,2.9,0.3,4.3
		c0.7,3.6,0.8,3.6,4.6,3.2c1-0.3,2.1,0,2.9,0.6c-1.9,0.4-3.5,0.7-5.2,1c-1.4,0.3-1.4,0.3-1.3,2.1l9.2-1.2c0.5-2.9,0.9-5.6,1.3-8.3
		C219.6,363.2,219.4,362.1,218.7,361.2 M141.9,350.8c-0.6-1.2-1.4-2,0.1-2.8c0.1,0-0.1-0.6-0.2-0.9c-1.3,0.8-1.1-1-2.1-1.1
		c-0.8,0.2-1.9,0.4-3,0.6c-0.7,0-1.2,0.6-1.1,1.3c0,0,0,0.1,0,0.1c0,3,0.3,5.9,0.6,8.8c1,5.5,3.7,10.4,6.2,15.3
		c1.4,2.7,4.4,2.4,6.1-0.4l-1.9,0.2c0.4-0.7,0.9-1.3,1.5-1.8c0.3-0.2,0.9,0,1.8,0.1c-1.5-1.2-0.5-2.2,0-3.2c-1.8,0-2-0.2-1.8-1.7
		c0.1-0.8,0.1-1.2-0.9-1.1c-0.8,0.1-1.2-0.9-1-2c0.1-0.4,0.2-0.7,0.2-1.1c-1.8-1.2-2-1.1-1.2-3.4c-1.3-0.6-2.1-1.5-1.1-3
		c0.2-0.2,0.1-1-0.8-0.9c-0.8,0.1-1.3-0.9-0.9-1.5c1-1.1,0.4-2.1,0.1-3.2L141.9,350.8 M172.5,528.4c-2.7,1.5-5.4,3-8,4.6
		c-1.8,1.1-1.7,1.9,0,3.1c1.7,1.1,3.2,2.5,4.5,4c1.9,2.6,4.7,4.5,7.9,5.2c3.3,0.8,6.7,1.4,10.1,1.6c3.5,0.3,7,0.3,10.4,0
		c2-0.2,4-1,5.6-2.3c0.7-0.4,1-1.3,0.8-2c-0.3-1.3-1-2.5-1.9-3.4c-0.3,0.6-0.7,1.2-1.2,1.7c-0.6,0.6-1.3,1-2.2,1.2
		c-4.4,0.2-8.7,0.1-12.8-1.5c-4-1.5-7.9-3.4-10.5-7c-0.6-0.7-1-1.5-1.2-2.4C174,530,173.4,529,172.5,528.4 M249.8,464.3l0.4-0.3
		c-1.8-3.3-3.6-6.6-5.4-9.8c-1.3-2.4-3-4.5-3.6-7.2c-0.4-1.6-1.2-3.1-2.3-4.3c-0.9-0.9-1.6-2.1-1.8-3.5c-0.3-1.4-1-2.7-1.9-3.8
		c-1.2-1.5-2.6-3-2.1-5.3c0.1-0.3-0.4-0.9-0.7-1.1c-1.3-0.7-2.1-2.1-1.9-3.6c0-0.7-0.1-1.3-0.3-1.9c-1.2-4.3-2.8-8.5-5-12.4
		c-1.7-3.3-2.9-6.9-3.4-10.6c-0.3-2.2-1-4.4-2.1-6.3c-1.5-2.5-3.5-4.6-4.2-7.5c0-0.1-0.1-0.1-0.1-0.2c-0.4-0.9-1.4-1.4-2.4-1.2
		c-1.2,0.2-2.5,0.2-3.7,0.1c-0.9-0.1-1.8-0.5-1.6-1.8c1.5-0.5,3,0.6,4.5-0.3c0-0.4,0.1-0.8,0.1-1.2c0.4-1.5-0.4-3-1.9-3.4
		c0,0-0.1,0-0.1,0c-1.4-0.3-2.8-0.4-4.2-0.4c-0.1,0-0.3,0.5-0.4,0.7c0.7,0.9,2.3,0.2,2.6,1.8l-3,0.2c0.2,1.5,0.5,3,0.9,4.4
		c0.5,1.3,1.2,2.7,1.9,3.9c0.5,1,0.9,2,1.4,3c2.5,4.9,4.9,9.9,7.5,14.8c2,3.8,4.3,7.6,6.4,11.4c2,3.8,3.1,8,3.1,12.3
		c0,0.5,0.2,1,0.5,1.4c1.4,1.8,2.9,3.6,4.2,5.5c3.3,4.7,6.5,9.5,9.7,14.2c2.6,3.8,5.3,7.5,8,11.3
		C249.1,463.5,249.5,463.9,249.8,464.3 M353.5,528.2c-0.4,1.1-1.3,1.9-2.4,2.1c-3.9,1.3-7.8,0.9-11.7,0.1c-4.1-1-7.9-2.6-11.3-5
		c-3.5-2.2-7.3-3.8-11.3-4.6c-0.6-0.2-1.1-0.2-1.7-0.1c-1.7,0.6-3.3,0.2-4.9-0.1c-2.1-0.5-4.3-0.7-6.4-0.7c-2.1,0.1-4,0.8-6,1.2
		c-3.9,0.8-3.9,0.8-3.3,4.9c0.3,1.9,0.4,1.9,2.3,2.4c4,0.9,8.1,1.4,12.1,1.4c3.3,0,6.6,0.8,9.5,2.3c3.8,2.1,8,3.4,12.4,3.7
		c2,0.1,3.9,0.2,5.9,0.2c5.6,0.1,11.2-0.9,16.4-3c1.2-0.5,2.3-1,3.3-1.7c0.5-0.3,0.7-0.9,0.7-1.4c-0.1-0.5-0.5-1-1-1.2
		C355.3,528.5,354.4,528.3,353.5,528.2 M242.4,222.8c-0.1,0.2-0.3,0.4-0.5,0.6c-0.9,0.6-1.3,1.3-0.9,2.3c0.5,1,1.6,1.5,2.7,1.2
		c1-0.2,2.1-0.3,3.1-0.4c1.7,0.1,3.1-1.1,3.3-2.8c0-0.2,0-0.4,0-0.6c-0.1-1-0.4-2.1-0.8-3c-0.8-1.8-1.8-3.5-2.6-5.3
		c-0.6-1.1-0.5-2.5,0.3-3.5c0.8-1.1,1.4-2.4,1.9-3.7c0.5-1.2,0.8-2.5,0.9-3.8c-0.2-2.9-1.6-5.3-2.7-8.2c-1.5,1-2.7,1.8-4,2.6
		c-2.3,1.5-4.8,2.2-7.5,1.2c-0.4-0.1-0.9-0.3-1.3-0.6c-1.8-1.1-3.3-0.6-4.7,0.9c-1,1.1-2.3,1.9-3.4,3c-0.5,0.5-0.9,1.1-1.3,1.7
		c-0.5,0.8-0.7,1.7-1.2,2.5c-1.2,2.2-2.5,4.3-3.8,6.5c-0.6,1-0.9,2.2-0.6,3.4c0.2,1.1,0.4,2.2,0.5,3.3c0.2,1.8,0.2,1.8,1.8,2.3
		c3.3,0.9,6.5,2.3,9.4,4.1c1.9,1.2,3.8,2.3,5.7,3.5l3.5-2.5c-0.7-2.9-0.5-4.2,0.6-5c0.4-0.4,1.1-0.4,1.5,0
		C242.3,222.6,242.3,222.7,242.4,222.8 M171.1,520c-1.1-2-1.1-2.9,0.7-4.1c1.8-1.1,3-2.8,3.3-4.9c0.2-0.8,0.5-1.5,0.8-2.2
		c0.5-1.3,1-2.5,1.5-3.7l-0.3-0.2c-1.3,1.3-2.6,2.6-4,3.8s-2.3,2.9-4.1,3.7c0.4-0.9,0.9-1.8,1.5-2.6c0.8-1,1.6-1.9,2.5-2.8
		c3.2-3.1,6.4-6,8.3-10.1c2.5-5.5,5.2-10.9,5.7-17.1c0.2-2.9,0.4-5.9,1.9-8.6c0.8-1.5,1.1-3.2,1.1-5c0.1-1.2,0.4-2.3,1.1-3.3
		c1.4-2.1,2.7-4.2,1.4-7c-0.5-1.1-0.1-2.4,0.9-3c1.3-0.9,2.1-2.3,2.1-3.8c0.1-1.8,0.8-3.5,1.8-4.9c0.3-0.3,0.4-0.8,0.3-1.2
		c-0.9-2.1-2.5-3.5-4.9-4.9c0.3,1.4-0.2,2.8-1.4,3.6c-0.3,0.3-0.5,0.8-0.4,1.3c-0.1,1.1-0.5,2-1.3,2.8c-0.9,1.1-1.7,2.3-2.4,3.6
		c-3.2,6.4-5.7,13.2-7.6,20.1c-2.4,8.2-4.5,16.5-7.6,24.5c-0.3,0.8-0.5,1.7-0.8,2.4c-1.6,3.5-2.8,7.1-3.6,10.8
		c-1.8,6.8-4.4,13.4-7.6,19.6c-0.3,0.6-0.6,1.2-0.8,1.8c-0.4,1.2,0.1,1.9,1.4,2c0.5,0,0.9-0.1,1.3-0.3c2-1,4-2.1,5.9-3.2
		c1.3-0.8,1.3-1.3,0.5-2.6c-0.7-1.2-0.7-1.6,0.3-2.5C169.4,521.3,170.2,520.7,171.1,520 M210.1,338.8c0.5,1.2,1,2.1,1.4,3.1
		c0.3,0.6,0.6,1.1,1.3,0.9c1.9-0.4,3.7-0.9,5.4-1.6c1.9-1.1,3.9-1.8,6.1-2.2c1.9-0.1,3.6-1.1,4.6-2.7c3.5-5.5,7.2-10.9,10.4-16.5
		c2.5-4.6,4.4-9.6,6.5-14.4c2-5,4.4-9.9,7.1-14.5c0.6-0.9,1-1.9,1.6-2.7c0.7-1,0.7-2.4-0.1-3.3c-0.3-0.4-0.5-0.8-0.7-1.2
		c-1.8-3-3.7-5.9-5.4-8.9c-1.2-2-2.1-4.2-3.2-6.3c0.5,3.5-1.2,6.3-3,9c-1.6,2.4-3.3,4.8-5.1,7c-1.5,1.6-2.6,3.5-3.1,5.6
		c-0.5,2.5-0.9,5.1-1.4,7.6c-0.3,2.1-0.9,4.1-1.9,6c-1.9,3-3.7,6.1-5.6,9.1c-1.1,1.5-2.2,3.1-3.2,4.8c-1.4,3-2.5,6.1-3.7,9.1
		c-1.3,3.2-2.4,6.6-4.8,9.3C212.2,336.7,211.1,337.7,210.1,338.8 M197.3,439.3c0.8-1.3,1.9-2.3,1.1-3.7c-0.5-1.1-1.3-2.1-2.1-3
		c-1-0.8-1.6-2.1-1.6-3.4c0-0.6-0.1-1.2-0.5-1.6c-0.9-0.6-1.6-1.6-1.8-2.7c-0.1-0.4-0.4-0.7-0.7-0.9c-0.9-0.5-1.4-1.4-1.4-2.5
		c-0.1-1.3-0.7-2.6-1.7-3.4c-0.9-0.9-1.7-1.8-2.4-2.9c-2.1-3-4.1-6.1-6.4-9c-2.3-2.8-4.4-5.8-6.3-8.9c-2.7-4.7-5.6-9.4-7.1-14.7
		c-0.2-0.7-0.6-1.3-0.9-2c-1.2-3.3-2.4-6.7-3.6-10c-0.4-1.2-0.7-2.6-1.2-3.7c-2-4.2-4.1-8.3-6-12.4c-0.7-1.5-1.2-3.1-1.3-4.7
		c-0.1-2-0.1-3.9-1.1-5.7c-0.2-0.4-0.3-0.9-0.3-1.3c0.1-3.8-1.6-7.2-2.2-10.8l-2.2-0.3c0.4-2,0.7-3.9,1-5.9
		c-2.7-0.2-5.4-0.5-8.1-0.6c-1.9-0.1-1.9,0.1-2.2,2.2c1.4,0.6,3.2-0.6,4.5,0.7c-0.5,2.1-0.8,2.4-2.7,2.3c-0.3,0-0.7-0.1-1-0.1
		c-2.3,0.1-3.1,0.9-3.1,3.1c-0.1,2.5-0.1,5-0.1,7.5c0,0.8,0.1,1.5,0.1,2.3c1.6-0.3,2.9-0.6,4.3-0.7c1.7-0.1,2.3,0.4,2.6,2
		c1,5.4,2.5,10.6,4.5,15.8c0.7,1.6,1.5,3,2.6,4.4c1,1.2,1.5,2.8,1.2,4.4c-0.7,3.6-2.4,6.2-6.7,6.8c1.8,2.5,3.3,4.9,5,7.1
		c2.4,3.2,4.8,6.3,7.2,9.4c1.9,2.3,3.9,4.4,5.8,6.8c2.9,3.7,5.7,7.4,8.5,11.1c1.4,1.8,2.8,3.6,4.2,5.5c0.6,1,1.3,2,2.1,2.9
		c2.7,2.8,5.4,5.6,8.3,8.2c2.8,2.4,5.3,5.1,7.3,8.3C193.9,436.7,195.6,437.9,197.3,439.3 M242.1,444.7c0.2,2,0.9,3.9,2,5.6
		c1.6,2.8,3.2,5.6,4.7,8.4c1.3,2.3,2.2,4.8,3.7,7c2.6,3.9,4.9,8.1,6.7,12.5c1.9,4.6,5,8.3,7.9,12.2c3.3,4.4,6.7,8.6,9.9,13
		c1.6,2.2,3.1,4.6,4.4,7c1.6,2.7,2.8,5.5,3.6,8.5c0,0.2,0.2,0.3,0.4,0.4c3.4-0.5,6.8-1,10.1-1.7c3.5-0.6,6.9-1.7,10.1-3.3
		c2.9-1.5,6-2.8,8.9-4.2c0.8-0.4,1.5-0.8,2.2-1.4c1.1-0.9,1.1-1.2,0.2-2.3c-1.6-2.1-3.3-4.1-5-6.1c-6.3-7.3-13.2-14.2-19-21.9
		c-2-2.6-3.8-5.4-5.5-8.2c-2.8-4.9-5.6-9.9-8.4-14.7c-0.5-0.9-1.2-1.7-2.1-2.3c-1.6-1.2-2.9-2.7-4-4.3c-1.8-2.6-3.3-5.4-5.7-7.5
		c-0.8-0.8-1.4-1.9-1.5-3.1c-0.2-1.4-1-2.6-2.1-3.4c-1.3-0.7-1.9-2.1-1.6-3.5c0-0.5-0.1-1-0.5-1.4c-0.6-0.8-1.3-1.5-2-2.1
		c-1-0.7-1.5-1.9-1.2-3.1c0.1-0.9-0.2-1.8-0.9-2.4c-1.1-1.3-2.2-2.6-3-4.1c-2-3.6-3.7-7.3-5.7-10.8c-2.1-3.7-4.3-7.3-6.4-10.9
		c-2.6-4.4-5.1-8.7-7.8-13c-1.5-2.2-2.6-4.6-3.3-7.1c0-0.8-0.4-1.5-1-1.9c0,1.3,0.1,2.5,0,3.6c0,0.9-0.3,1.8-0.7,2.6
		c-0.5,0.9-1.6,1.2-2.5,0.7c-0.3-0.2-0.6-0.5-0.8-0.8c-0.2-0.4-0.4-0.8-0.4-1.3c-0.2-1.7-0.3-3.4-0.5-5.1c-0.2-2-0.4-4-0.7-6
		c-0.5,0.8-0.8,1.7-0.9,2.6c-0.4,1.7-0.7,3.5-1.1,5.2c-0.2,1.3-1.3,2.2-2.6,2.1c-1.3-0.2-1.8-0.9-1.9-2.5c0-0.5,0-0.9,0-1.5
		c-2,0-4.1,0.3-6,1.1c-0.4,0.1-0.6,0.7-1,1.2l2.8,0.8l-1.7,1c0.5,1,0.9,2.1,1.2,3.2c0.3,1.4,0.7,1.8,2,1.8c0.6,0,1.2-0.2,1.8-0.3
		c1.5-0.2,3,0,4.4,0.4c-1.3,2.2-3.7,0.4-5.1,1.7c0.4,2.1,1.1,4.2,2.1,5c2.9,2.7,3.3,6.5,4.7,9.8c0.1,0.3,0.1,0.7,0,1
		c-0.1,2.8,0.7,5.5,2.1,7.9c2.1,3.7,3.5,7.6,5.2,11.5c0.6,1.6,1,3.3,1.3,5c4.3,1.3,8.7,2,13.2,2.2c-4.1,1.8-8.2,0.5-12.4-0.3
		c0.6,0.9,1.4,1.6,2.3,2.1c3.7,1.1,7.4,2.3,11.3,2.5c1.6,0.1,3.2,0.3,4.8,0.4c-5.7,1.8-11.1,0.1-16.8-1.8c0,0.6,0.1,1.2,0.3,1.8
		c0.3,0.7,0.7,1.3,1.1,1.9c1.4,1.5,2.3,3.4,2.6,5.4c0.3,1.7,1.5,3.2,3.1,3.9c1.5,0.7,3,1.3,4.6,1.8c5.1,1.8,10.5,2.3,15.9,2.7
		c0.4,0,0.8,0.1,1.2,0.1C255.7,450.1,249,447.3,242.1,444.7 M191.7,360.6l0.5-0.3c5.3,5.4,8.2,12.4,11.4,19.2l0.4-0.1
		c0.1-0.8,0.1-1.6,0.2-2.4l1.6-1.9l-0.9-1.3c0.8-0.1,1.5-0.2,2.1-0.3c0.1,0,0.1-0.1,0.3-0.2l0.1-1.3c-4.5-0.1-4.5-0.1-5.3-1.3h5.2
		c-0.1-1-0.2-1.7-0.3-2.4c-0.5-1.9-0.7-3.8-0.6-5.7c0.1-1.2-0.1-2.5-0.6-3.7c-1-2.1-1.1-4.5-0.3-6.7c0.3-0.8,0.3-1.7,0.2-2.5
		c-0.1-0.7-0.5-1.1-1.4-1.3c-2.7-0.5-5.3-1.5-7.7-2.9c-2.4-1.4-4.8-2.8-7.2-4.2c-0.5-0.3-1.1-0.5-1.6-0.7c-0.7-0.2-1.3-0.5-2-0.8
		c-0.9-0.5-1.7-1-2.5-1.6c-5.7-3.6-11.6-7.1-18.1-9.3c-4-1.4-8.1-2.6-12.3-3.9c-0.7,1.4-1.7,2.5-1.8,3.7c-0.1,1.9,0.1,3.8,0.6,5.6
		c0.7,2.3,1.2,4.6,1.5,6.9c0,0.7,0.1,1.3,0.4,1.9c0.8,1.4,1.2,3,0.9,4.5c-0.2,2.2,0.3,4.4,1.4,6.3c2,4,4.1,8,6.1,12
		c0.4,0.9,0.8,1.8,1,2.8c0.7,2.1,1.2,4.3,1.9,6.4c0.9,2.6,2,5.2,3,7.7c1,2.4,1.9,4.9,3,7.3c0.7,1.4,1.7,2.7,2.4,4.1
		c1.9,3.6,4.2,7,6.8,10.2c0.6,0.8,1.3,1.6,1.9,2.5c2.2,3.1,4.4,6.3,6.6,9.3c1.3,1.7,2.6,3.3,2.8,5.3l7.9,3.2c0,0.2-0.1,0.3-0.1,0.5
		l-5.6-1.2c-0.2,1.1,0,1.6,0.9,1.8c0.9,0.3,1.8,0.6,2.7,1.1c2.1,1,4.1,2.1,6.1,3.2c0.8,0.4,1.7,0.9,2.5,1.3c-3.6-0.6-7-1.9-10.2-3.7
		c-0.5,1.1-0.2,2.4,0.7,3.2c0.5,0.4,1,0.9,1.3,1.4c1.3,2,2.8,4.1,1.1,6.6c0,0,0,0.1,0.1,0.4c1,0,2-0.1,3,0c1.2-0.1,2.2,0.6,2.7,1.7
		c-2.2,0.2-4.2-0.5-6.3,0.3c0.8,1.6,0.1,2.7-0.7,3.9c-1.3,1.9-1.2,4.1-1.8,6.2c1.9,0.2,3.2-0.7,4.6-1.1s2.7-1.5,4.7-1.4
		c-0.4,0.4-0.9,0.7-1.4,1c-2.7,1.6-5.6,2.7-8.7,3.1c-1.6,0.2-2.2,0.9-1.5,2.4c0.6,1.3,0.6,2.7,0,4c-0.5,1.2-1,2.3-1.7,3.3
		c-0.7,1-1.1,2.1-1,3.3c0,1.6-0.4,3.3-1.1,4.8c-0.7,1.4-1.1,3-1.3,4.5c-0.6,7.4-2.8,14.7-6.4,21.2c-1.9,3.2-3.4,6.5-4.6,10
		c-0.7,1.6-1.2,3.3-1.7,5c-0.4,1.7-1.4,3.3-2.9,4.3c-0.6,0.5-1.1,1-1.7,1.5c1.8,1.4,1.8,2.6,0.2,3.6c-0.1,0-0.1,0-0.2,0.1
		c-0.7,0.5-1.4,1-2.2,1.6l1.3,1.8c0.5-0.3,0.8-0.5,1.1-0.7c1.6-1.1,3.6-1.7,5.6-1.6c1.2,0.1,2.4,0.1,3.6-0.1c1,0,2-0.5,2.6-1.3
		c-1-0.3-2.2-0.3-3.2,0.1c-1.1,0.4-2.4,0.1-3.3-0.7c0.4-0.2,0.6-0.5,0.8-0.5c2.5-0.3,4.9-1.2,7.4-0.4c0.9,0.2,1.8,0.2,2.8,0.2
		c2.5,0,3.6-0.7,4.6-3c1.2-2.7,2.3-5.5,3.5-8.1c2.7-5.9,5.6-11.8,8.2-17.8c3.1-7.3,4.9-15,7-22.6c1.1-4.1,2.6-8,4.5-11.8
		c2.4-4.5,4.6-9,6.8-13.6c0.8-1.5,1.3-3.1,1.7-4.8c0.5-2.7,0.7-5.5,0.7-8.2c0-2.2-0.4-4.5-1.1-6.6c-1.4-3.8-2.8-7.7-5.4-10.9
		c-0.4-0.5-0.7-1-0.9-1.5c-2.9-5.6-5.8-11.1-8.5-16.7c-2.3-4.8-4.5-9.7-6.7-14.5c-2.6-5.7-4.9-11.5-9.1-16.3c-0.4-0.4-0.7-0.9-1-1.5
		C191.8,361.6,191.7,361.1,191.7,360.6 M218.5,321l-0.5-0.3c-1.7,1.5-3.5,3-5.2,4.5c-1.5,1.3-3.3,2.3-3.9,4.3
		c-0.1,0.2-0.6,0.4-0.9,0.5c-0.2-0.3-0.5-0.7-0.5-1c0.3-0.9,0.8-1.8,1.4-2.5c1.2-1.2,2.7-2.1,4-3.3c3.2-2.8,6.7-5.4,9-9.1
		c1.6-2.6,3.1-5.2,4.8-7.7c2.9-4.4,4.7-9.5,5.2-14.8c0.4-3.2,1.8-6.2,4-8.6c2.7-3.1,5.3-6.3,6.9-10.1c0.4-0.9,0.6-1.9,0.6-2.8
		c-0.1-2.5-0.5-5-0.8-7.4c-0.1-1.1-0.7-1.4-1.7-1.5c-3.1-0.2-6.2-0.5-9.2-0.8c-0.4,0-0.8,0-1.1,0.1c-0.3,3.9-0.5,7.6-0.9,11.4
		c-0.4,3-1.7,5.9-3.7,8.2c-0.4,0.8-1.4,1.1-2.2,0.9c0.4-0.6,0.6-1.1,1-1.5c1.9-2.2,3.1-4.8,3.5-7.6c0.3-3.3,0.5-6.6,0.6-9.9
		c0-0.5-0.1-1-0.2-1.6c-2.9-0.2-5.6-0.4-8.4-0.7c-2.1-0.2-4.2,0.2-6.1,1.2c-2.1,1.2-4.2,2.5-6.3,3.7c-0.8,0.5-1.7,0.9-2.6,1.3
		c-0.5,0.2-1.3,0.2-1.5-0.5c0-0.5,0.2-0.9,0.7-1.2c2.1-0.6,2.6-2.6,3-4.2c0.4-1.7,1.2-3.1,1.7-4.8c0.7,0.3,1.4,0.5,1.9,0.8
		c2.2,1.1,4.5,1.8,7,2c4,0.2,8,0.5,12,0.8c2.1,0.2,4.2,0.3,6.3,0.5c4.4,0.5,8.8,1.1,13.1,1.5c6.5,0.5,13,0.8,19.5,1.1
		c0.1,0,0.2-0.1,0.5-0.3l-5.1-2.4c0-0.1,0.1-0.3,0.1-0.4c0.4-0.1,0.8-0.2,1.2-0.1c1.3,0.4,2.5,0.8,3.7,1.4c4.6,2.3,9.8,3.2,15,2.6
		c0.6-0.1,1.3-0.2,2-0.1c0.4,0,0.7,0.4,1,0.7c-0.3,0.3-0.6,0.7-0.9,0.8c-0.9,0.2-1.7,0.3-2.6,0.4c1.1,0.8,2.5,1.3,3.8,1.3
		c2.6,0.2,5.1,0.3,7.7,0.4c6.1,0,12.1-0.1,18.2,0c8.4,0.2,16.9-0.4,25.2-1.9c3.7-0.6,7.4-1.2,11.2-0.6c1.7,0.2,3.3,0.7,4.8,1.6
		c1.5,1,3,1.8,4.6,2.6c1.6,0.9,3.5,1.2,5.4,0.7c0.7-0.2,1.4-0.2,2.1-0.1c1.9,0.3,3.7,0.8,5.6,1.2c0.7,0.2,1.4,0.3,2.1,0.4
		c1.1,0.1,1.6-0.5,1.3-1.6c-0.3-1-1.1-1.7-2.1-1.9c-0.8-0.2-1.7-0.2-2.4-1.5c1.2,0.2,2.1,0.2,3,0.4c0.8,0.2,1.7,0.1,2.5-0.3
		c0.8-0.4,1.2-1.2,1.1-2.1c-0.1-1-0.8-1.1-1.5-1.2c-1.7-0.3-3.4-0.7-5-1.1c-0.4-0.1-1.1-0.1-1-1.1c0.8,0.1,1.5,0.1,2.3,0.2
		c1.8,0.3,3.5,0.6,5.3,0.9c0.9,0.2,1.8-0.3,2.1-1.1c0.4-0.8-0.1-1.4-0.6-1.9c-1.1-1.4-2.7-2.2-4.4-2.3c-1.5,0-3-0.2-4.5-0.4
		c-0.6-0.1-1.3-0.1-1.5-1.2c1.1,0,2.2,0,3.2,0c2.2,0.1,4.3,0.2,6.5,0.2c1.8-0.1,3.6,0.2,5.2,1c0.6,0.5,1.5,0.4,2-0.2
		c-0.5-1.8-1.3-3.2-3.3-3.5c-1.1-0.2-2.2-0.5-3.3-0.8c-3.2-0.8-6.4-1.4-9.6-2.4c-2-0.7-4.2-0.4-6.1,0.7c-1.4,0.8-2.9,1.6-4.3,2.4
		c-2.6,1.2-5.4,1.8-8.2,1.6c-2.2-0.1-4.3-0.1-6.5-0.1c-3.5,0-7,0.3-10.5,0.2c-9.5-0.5-19-2.1-28.2-4.7c-9.6-2.6-19.4-4.5-29.4-3.9
		c-1.7,0-3.4,0.3-5,0.8c-2.6,1.1-5.3,0.9-8,0.9c-0.3,0-0.6-0.4-1.3-0.9c2.6-1,5.2,0.1,7.5-1.3c-0.5-0.4-1-0.8-1.5-1.1
		c-3.1-1.8-6.5-3.1-10.1-3.9c-4.4-0.9-8.8-1.6-13.2-2.7c-1.9-0.5-3.7-1.3-5.4-2.3c-2-1.2-3.9-2.7-5.8-4.1c-8.3-6-17.6-8-27.7-6.9
		c-2,0.2-3.9,0.4-5.9,0.6c-0.6,0-1.2,0.2-1.5-0.6c0.9-1,3.4-1.4,7.8-1.6c2.8,0.1,5.5-0.1,8.3-0.5c-3.5-0.5-5.1-3.1-6.3-5.9
		c-1,0.4-1.8,1.2-2.1,2.2c-0.6,1.5-1.7,2.7-3.2,3.3c-2.5,1.2-5.2,1.9-8,2.2c-3.8,0.6-7,3-8.8,6.4c-2,3.7-3.6,7.6-5.3,11.5
		c-0.2,0.4-0.3,0.9-0.4,1.3c-0.9,3.2-1.3,6.6-1.2,10c0.2,7.5-1.6,14.9-5.1,21.5c-2.6,4.9-4.7,10-6.3,15.3c-0.5,1.5-1.2,2.9-2.2,4.1
		c-1.4,1.7-3.1,3-4.6,4.6c-1.2,1.3-2.3,2.7-3.5,4c-1.1,1.3-2,2.6-3.2,3.7c-2.1,2-4.3,3.9-6.3,5.9c-1.5,1.4-2.5,3.2-3,5.2
		c2.8,0.4,5.3,0.7,7.9,1c0.5,0,1-0.1,1.5-0.2c1.8-0.7,2.3-0.5,3.6,0.9c0.4,0.5,0.9,0.9,1.5,1.1c3,1.1,6,2.1,8.9,3.1
		c1.6,0.5,3.2,1.1,4.8,1.7c2.5,1.2,5,2.7,7.5,3.9c0.9,0.5,1.9,0.8,2.9,1.1c1,0.3,1.9,0.9,2.6,1.7c0.8,1.1,1.9,2,3,2.7
		c3.2,1.8,6.5,3.5,9.9,4.9c1.7,0.6,3.5,1,5.4,1.1c0.8,0.1,1.7-0.1,2.4-0.5c2.3-1.5,4.6-3.2,5.9-5.7C215.1,329.1,216.8,325,218.5,321
		 M226.9,377.1c-0.1,0.7-0.2,1.4-0.2,2.1c0.1,0.8,0.6,1.3,1.7,0.6c-0.8-0.5-1.3-1.5-1.2-2.4C227.2,377.3,227,377.2,226.9,377.1
		c0.1-0.2,0.2-0.6,0.4-0.6c1.2-0.5,1.3-1.5,1.3-2.6c0-1.8,0.1-3.6,0.3-5.3c0-0.6,0-1.2,0.8-1.2c0.9,3,1.9,5.9,2.8,8.9l0.4-0.1
		c-0.1-1.6-0.2-3.3-0.4-4.9c-0.3-2.2-0.6-4.4-1.1-6.6c-0.3-1.4-0.3-2.9,0.1-4.3c0.7-2.7,1.5-5.5,2.2-8.2c1-3.8,2.6-7.3,4.8-10.5
		c1-1.4,2-2.7,3.1-4.1c3.2-4.3,6.4-8.5,9.5-12.8c1.4-2,2.7-4,4.1-6.1c2.8-4.2,5.5-8.5,8.3-12.7c1.9-2.8,3.9-5.4,5.9-8.2
		c2-2.4,3.1-5.4,3.2-8.6c-0.1-2.8-0.6-5.6-1.4-8.3c-1.3-5.1-2.7-10.2-4.1-15.3c-0.2-0.7-0.3-1.5-0.5-2.3l-22.1-1.3
		c1.8,5.6,4.3,10.9,7.5,15.8c0.6,0.8,1.3,1.5,2,2.1c1,1.1,2.6,1.4,4,0.7c0.7-0.3,1.4-0.8,2.3-0.1c-0.2,0.4-0.4,0.8-0.6,1.2
		c-0.7,1.2-1.5,2.4-2.3,3.7c-1.3,2.3-2.6,4.6-3.8,6.9c-1.3,2.4-2.7,4.8-3.8,7.4c-1.8,3.9-3.3,7.9-5,11.8c-1.5,3.6-3.2,7.1-5.1,10.5
		c-2.6,4.4-5.5,8.7-8.3,13c-0.8,1.2-1.7,2.3-2.6,3.5c-0.6,0.9-1.7,1.5-2.8,1.6c-2.4,0.2-4.7,0.9-6.7,2.1c-0.9,0.5-1.9,0.9-2.9,1.2
		c-1.6,0.3-3.3,0.8-4.8,1.5c0,0.9,0.6,1.7,1.5,2c2.4,1.1,3.1,2.2,2.8,4.8c-0.2,1.6-0.5,3.1-1,4.6c-0.5,2.2-1.1,4.3-1.7,6.4l2.3,1.1
		c0.3-0.6,0.5-1,0.8-1.5c0.5-0.9,1-1.7,1.5-2.5c0.3-0.5,0.9-0.7,1.4-0.5c0.2,0.1,0.4,0.3,0.5,0.5c0.7,0.9,1.1,2,1.1,3.1
		c-0.3,1.9-0.5,3.8-0.7,5.7c-0.2,1.8-0.5,3.6-0.8,5.5l2,0.5c0-0.3-0.1-0.5-0.3-0.7c-0.3-0.3-0.8-0.7-0.7-1c0.1-0.7,0.8-0.5,1.3-0.4
		c0.2,0,0.3-0.1,0.4-0.2c0.6-2.3,1.1-4.6,1.7-6.8c0.1-1,0.8-1.9,1.8-2.3c0.3,3.8,0.6,7.6,0.9,11.3
		C226.5,375.5,226.7,376.3,226.9,377.1 M169.9,527.8c0.7-0.5,1.4-0.9,2.1-1.4c1.7-1.2,3.8-1.9,5.9-1.9c1.7,0.1,3.5-0.2,5.1-0.7
		c-2.1,0.1-4.2,0.4-6.2,0.4C173.9,524.3,171.8,525.8,169.9,527.8l-1.6,0.6c0.1,0.1,0.2,0.3,0.2,0.4L169.9,527.8 M383.8,244.7
		l1.5,0.3c0-0.1,0-0.1,0-0.2L383.8,244.7l-2.2-0.5c0,0.1,0,0.2,0,0.3C382.3,244.6,383.1,244.7,383.8,244.7 M321,510.6
		c1.8,0.3,3.4,1.3,4.7,2.6c1.5,1.6,3.4,2.7,5.5,3.3c1.3,0.3,2.2,1.3,2.5,2.5c0.2,0.7,0.6,1.3,1.3,1.7c5.1,3.4,10.9,5.4,17,5.8
		c1.4,0.1,2.9,0.3,4.3,0.5c1.3,0.2,2.3,1.1,2.6,2.4c0.3,0.8,0.4,1.6,0.4,2.5c0,0.5-0.3,1-0.7,1.3c-1.4,1.1-2.9,2.1-4.5,2.9
		c-4.8,2.1-10,2.8-15.2,3.2c-6.6,0.5-12.5-1.5-18.3-4.2c-1.6-0.7-3.1-1.5-4.6-2.3c-0.6-0.3-1.2-0.6-1.8,0c-0.3,0.2-0.7,0.3-1.1,0.2
		c-5.7,0-11.3,0.3-16.9-0.8c-0.6-0.1-1.2-0.3-1.9-0.5c-0.6-3.2-1.2-6.4-1.8-9.6c-2.6-0.1-5.2,1-8,0.4c-0.1-0.3-0.2-0.7-0.3-1
		c-1.2-6.3-4.2-11.8-8-16.8c-3.8-5.1-7.8-10.1-11.6-15.3c-3.2-4.4-6.2-8.8-9-13.4c-2.6-4.3-5.2-8.5-8.2-12.5
		c-2.4-3.2-4.5-6.5-6.8-9.7c-1-1.4-2-2.7-3-4.2c-3.2-4.7-6.4-9.4-9.6-14c-0.4-0.6-0.9-1.1-1.5-1.9c-0.3,1.7-0.4,3.2-0.8,4.5
		c-0.3,1.5-0.8,2.9-1.5,4.3c-2.6,5.5-5.6,10.8-8,16.3c-1.5,3.6-2.8,7.4-3.8,11.2c-2.2,7.5-4,15.2-7.1,22.4
		c-2.7,6.2-5.7,12.2-8.5,18.3c-0.7,1.4-1.2,2.8-1.7,4.2c-0.9,2.5-1.6,5-4.5,6.4c1.1,1.5,2,2.9,3,4.1c1.3,1.3,2,3.1,1.8,5
		c0,0.6,0.2,1.1,0.6,1.5c1.7,1.5,3.5,3,5.3,4.5c2.4,1.7,3.9,4.4,4,7.3c0,0.2,0,0.4,0.1,0.6c0.8,2-0.1,3.5-2.5,4.3
		c-1.3,0.5-2.6,0.8-4,1c-7.7,1.4-15.7,0.8-23.2-1.6c-1.2-0.4-2.4-0.8-3.6-1c-1.9-0.3-2.7-1.4-3.2-3c-0.3-0.9-0.7-1.7-1.1-2.5
		c-0.6-1.2-2-1.9-3.3-1.6c-1.6,0.2-1.7,0-2.1-1.6c-0.1-0.3-0.2-0.6-0.2-1c0.1-1.8-0.4-2.9-2.5-3.4c-1.9-0.4-2.7-2.7-2-4.7
		c0.5-1.4,1.1-2.8,1.8-4.2c2.6-5.7,5.3-11.3,6.7-17.5c1.1-4.7,3-9.1,4.6-13.7c1.5-4.2,2.9-8.5,4.3-12.7c0.8-2.4,1.2-5,2-7.4
		c1.5-5.1,3-10.2,4.8-15.3c1.3-3.7,3.2-7.2,4.8-10.8c0.3-0.7,0.7-1.3,1.2-1.8c1.1-1.1,2.1-2.2,2.1-3.9c0-0.3,0.1-0.5,0.3-0.7
		c1.3-0.9,1.1-2.6,1.9-3.8c0.5-0.7,0-1.2-0.3-1.8c-1.6-2.7-3.7-5.1-6.1-7.2c-3.2-2.8-6.1-5.8-9.1-8.7c-0.4-0.4-0.7-0.8-1-1.2
		c-2.6-4.4-6.1-8.1-9-12.2c-3.8-5.2-8.1-9.9-12.1-14.8c-5-5.9-9.4-12.2-13.2-18.9c-2.8-5-5.4-10.1-6.4-15.9
		c-0.6-3.7-0.8-7.5-0.5-11.2c0.2-4.1,0.5-8.1,0.6-12.2c-0.1-2.2,0.6-4.3,1.9-6.1c0.5-0.6,0.7-1.4,0.4-2.2c-0.6-1.9,1.2-5.2,3-6.1
		c1.1-0.6,2.2-1.4,3.2-2.2c0.2-0.2,0.4-0.5,0.5-0.9c0.6-3,2.7-4.9,4.6-6.9c2.2-2.2,4.5-4.2,6.7-6.4c1.1-1.2,1.9-2.7,3-3.9
		c1.8-2,3.8-3.8,5.7-5.7c1.3-1.2,2.2-2.6,2.8-4.3c1.3-4.4,2.9-8.6,4.9-12.7c0.7-1.3,1.4-2.7,2.1-4c3-6,4.4-12.6,4.3-19.3
		c-0.1-3.7,0.4-7.4,1.3-11c0.1-0.3,0.1-0.6,0.3-1c2-4.4,3.8-9,6.2-13.2c1.8-3.4,5.2-5.8,9-6.4c2.8-0.6,5.6-1.4,8.3-2.4
		c1.1-0.3,1.9-1.3,2.1-2.5c-0.2-0.2-0.4-0.4-0.6-0.5c-1.8-0.4-3.4-1.5-4.3-3.2c-0.6-1-1.6-1.6-2.8-1.6c-1.1,0-2.1-0.8-2.3-1.8
		c-0.2-1-0.7-1.9-1.4-2.6c-0.2-0.3-0.4-0.7-0.4-1.1c-0.2-1.1-0.4-2.2-0.4-3.3c-0.1-1.2-0.5-2.5-1.3-3.4c-0.7-0.9-0.9-2.1-0.4-3.2
		c0.5-1.4,0.9-2.9,1.2-4.4c0.2-1.2,0.6-2.6-0.8-3.6c1.2-4,2.9-7.9,5.1-11.4c1.1-1.7,2.2-3.2,3.5-4.8c0.7-0.9,1.6-1.7,2.6-2.3
		c1.6-0.8,2.7-2.3,2.8-4.1c0.3-1.1,0.7-2.2,1.3-3.3c0.5-0.1,1.1-0.1,1.6-0.1c2.6,0.7,4.6-0.5,6.7-1.7c1.4-0.8,2.9-1.6,4.4-2.2
		c4.9-1.6,10.2-1.7,15.1-0.2c1.2,0.3,2.4,0.5,3.7,0.5c1.9,0,2.8,1.3,3.5,2.8c0.2,0.7,0.6,1.3,0.9,1.9c0.9,1.2,1.6,1.3,3.1,0.7l1-0.4
		c0.4,1.6,0.8,3.1,1.3,4.6c0.1,0.7,0.7,1.3,1.5,1.3c1.2,0,1.9,0.7,2.3,2c1.1-1.3,2.2,0.3,3.3-0.3c0.1,0.2,0.1,0.4,0.2,0.7
		c-0.2,1.5,0.3,3,1.2,4.1c1.1,1.4,1.1,2.2-0.1,3.4c-1.2,1.2-2.1,2.3-1.7,4.1c0.1,0.7,0,1.5-0.4,2.1c-1.6,2.3-2.1,5-3.4,7.5
		c-0.2,0.4-0.6,0.7-1,0.9c-0.5,0.4-1.1,0.7-1.9,1.1c0.1,0.6,0.3,1.2,0.5,1.8c0.5,1.4,1,2.7,1.6,4c1.2,2.6,1.2,5.4,1.2,8.1
		c-0.1,0.8-0.5,1.5-1.1,2c-0.9,1-1.9,1.8-3,2.9c1.2,2.5,1.8,5.4,4.6,7c1.9,1.3,3.5,3,4.6,5.1c2,3.4,3.3,7.2,3.9,11.1
		c0.2,1,0.4,1.6,1.4,1.9c2.9,0.9,5.7,2.2,8.2,3.9c0.8,0.5,1.8,0.7,2.8,0.6c5.1-0.4,10.3-0.3,15.4,0.3c8.6,1,16.9,3.5,25.3,5.5
		c10.3,2.4,21,3.3,31.6,2.5c1.5-0.1,3-0.1,4.5,0.1c3.5,0.5,7-0.2,10.1-2c0.9-0.6,1.8-1.1,2.7-1.5c2.3-0.8,3.3-2.6,4.5-4.8
		c-0.9-0.6-1.7-1.2-2.5-1.8c-0.4-0.3-1-0.9-0.9-1.1c0.2-0.6,0.6-1.1,1.2-1.4c0.9-0.5,2.1-0.5,3,0c0.8,0.4,1.5,0.8,2.3,1.3
		c1.9-2.6,4.5-2.6,7.3-2.1c3.2,0.5,6.4,0.8,9.6,1.3c1.4,0.2,2.7,0.3,3.8,1.3c0.5,0.3,1.1,0.5,1.7,0.5c4.7,0.6,9.4,1.2,14.1,1.8
		c2.7,0.3,5.4,0.6,8,0.9c1.1,0.1,2.8,3.2,2.4,4.2c-0.6,1.3-1.2,2.6-2,3.8c-0.7,1.1-2,1.6-3.3,1.4c-2.6-0.3-5.1-0.7-7.6-0.9
		c-2.4-0.2-4.7-0.4-7.1-0.6c-0.5,0-0.9,0.1-1.4,0.1c-1.2,0-2.3,1-2.4,2.2c-0.1,0.3-0.1,0.6-0.2,1c-0.8,2.8-2.4,4-5.4,3.9
		c-1,0-2-0.1-3-0.3c-1-0.2-1.9-0.4-3-0.7c-0.1,1.8-0.2,3.4-2.1,4.2c-0.2,0.1-0.3,0.7-0.3,1.1c0,1.4-0.3,2.6-1.7,3.3
		c-0.6,0.3-0.8,0.9-0.6,1.5c0.1,0.5,0.2,0.9,0.2,1.4c0.2,1.1-0.5,2.2-1.6,2.4c-0.1,0-0.2,0-0.4,0c-0.7,0-1.3,0-2-0.2
		c-1.9-0.4-3.9-0.9-5.8-1.3c-0.8-0.2-1.7-0.3-2.5-0.1c-2.6,0.7-4.8,0-7-1.2c-1-0.5-2-1.1-2.9-1.7c-3-2-6.6-2.8-10.2-2.2
		c-5.2,0.6-10.5,1.3-15.7,2c-5.5,0.6-11,0.8-16.6,0.6c-4,0-8-0.1-12,0c-5,0.2-10,0-15-0.7c-1-0.1-1.9-0.4-2.8-0.9
		c-2.7-1.9-5.9-1.9-8.9-2.5c-1.9-0.2-3.8-0.2-5.7-0.1c0,0.7,0,1.3,0.2,2c1.2,4.4,2.2,8.8,3.6,13.1c1.1,3.4,1.7,6.9,1.9,10.5
		c0.1,2.7-0.6,5.3-2.2,7.5c-1.9,2.8-4,5.6-5.9,8.4c-2.1,3.1-4,6.3-6.1,9.5c-2.4,3.6-4.8,7.1-7.3,10.5c-4.3,5.9-8.9,11.8-13.1,17.7
		c-2,2.7-3.5,5.8-4.3,9.1c-0.7,3.1-1.6,6.1-2.4,9.2c-0.3,1-0.3,2.1,0,3.1c0.4,1.3,0.7,2.7,0.8,4.1c0.5,3.1,0.8,6.3,0.8,9.4
		c0,2.4,0.7,4.8,2.1,6.7c2.7,4.3,5.2,8.7,7.7,13.1c2.5,4.3,5.1,8.6,7.5,13c1.3,2.4,2.4,4.8,3.7,7.2c0.9,1.4,1.8,2.7,2.9,3.9
		c0.9,1,1.5,2,1.2,3.4c-0.2,0.8,0.1,1.7,0.8,2.2c0.6,0.5,1.1,1.2,1.6,1.7c1,0.7,1.5,1.9,1.2,3.1c-0.1,0.8,0.3,1.6,1,2
		c1.4,1,2.3,2.5,2.6,4.3c0.1,0.9,0.6,1.8,1.3,2.4c2.6,2.2,4.1,5.1,6,7.8c0.9,1.4,2.1,2.7,3.4,3.8c1,0.8,1.9,1.8,2.6,2.9
		c2.6,4.4,5.1,8.9,7.7,13.4c1.9,3.7,4.2,7.1,6.9,10.3c2.9,3.2,5.4,6.7,8.2,9.9c3.4,3.9,7,7.5,10.4,11.4c2.4,2.8,4.6,5.8,6.8,8.7
		C320.5,509.2,320.8,509.9,321,510.6"/>
	<path id="Path_317" fill="none" d="M221.2,274.7c1,0,1.4-0.6,1.7-1.5C221.3,272.8,220.9,273.2,221.2,274.7 M191.3,303.5
		c-1.9,0.5-3.7,0.9-5.4,1.4c-0.2,0-0.3,0.4-0.5,0.5c2.1,1.1,4.7,0.3,5.8-1.8C191.2,303.7,191.2,303.6,191.3,303.5 M199.6,297.6
		c-1.5-0.5-2,0.8-2.9,1.1c-0.9,0.3-1.9,0.6-3,0.9c0.6,0.9,1.8,1.2,2.8,0.7C197.8,299.8,199.2,299.2,199.6,297.6 M221.6,248.6
		c0,0.1,0.1,0.3,0.1,0.4c2.2,0.2,4.4-0.5,6-2.1c0.3-0.3,0.5-0.9,0.3-1.2c-0.4-0.6-0.9-0.3-1.3,0.1c-1.1,1-2.5,1.7-3.9,2.1
		C222.4,248.1,222,248.3,221.6,248.6 M217.4,275c0.9,0.4,1.4,0.3,1.7-0.5c0.4-1.1,1.4-1.9,2.6-2.2c0.3-0.1,0.6-0.3,0.8-0.4
		c-0.9-1-1-1-2-0.7C218.9,271.7,217.6,273.2,217.4,275 M212.9,287.7c-1.7-0.5-2.3,1.1-3.4,1.4s-2.3,0.4-3.6,0.6
		C208.3,291.7,210.9,291,212.9,287.7 M239.1,253.4c0.1,0.2,0.1,0.3,0.2,0.5c0.4,0,0.8,0.2,1.1,0.1c1.6-0.4,3.1-1.1,4.5-1.9
		c1.5-1.2,3.3-1.9,5.1-1.9c0.1,0,0.1-0.2,0.2-0.4c-1.6-0.7-3.4-0.9-5.1-0.6c-0.1,1.6-1.3,2.1-2.5,2.6c-0.7,0.3-1.4,0.5-2,0.8
		C240.1,252.8,239.6,253.1,239.1,253.4 M181.4,311.9c-0.8-0.3-1,0.2-1.3,0.6c-0.2,0.5-0.5,1.1-0.8,1.6c-2.1,3-5.9,4.1-9.2,2.9
		c-1.5-0.6-3.1-1.3-4.9-0.9c0.5,0.5,1,1,1.6,1.3c0.8,0.4,1.6,0.7,2.4,1c3.6,1.4,9.2,0.4,11.7-3.9
		C181.5,313.7,181.7,312.7,181.4,311.9 M186.6,246c-0.2-1-0.3-2-0.5-2.9c-0.3-1.3-0.3-2.6,0.1-3.9c0.8-2.5,2.3-4.7,4.4-6.4
		c1.3-1.1,2.5-2.3,3.7-3.5c0.3-0.4,0.5-0.8,0.6-1.2c-0.5,0-0.9,0.1-1.3,0.4c-1.7,1.4-3.5,2.8-5.1,4.4c-2,1.9-3.4,4.2-4.1,6.9
		c-0.4,1.6-0.3,3.3,0.3,4.8C184.9,245.5,185.7,246.1,186.6,246 M201.6,293.1c0-0.2,0-0.3-0.1-0.5c-0.6-0.1-1.3-0.1-1.9-0.2
		c-3,0-6-0.6-8.8-1.8c-2.9-1.1-5.8-2.2-8.7-3.3c-0.4-0.1-0.9-0.1-1.3,0c0.3,0.8,0.9,1.4,1.8,1.6c2.8,1.1,5.6,2.4,8.4,3.3
		c2.2,0.7,4.4,1.2,6.7,1.6C199.1,294.2,200.5,293.9,201.6,293.1 M266.8,254.4c0.3,0.1,0.5,0.3,0.7,0.3c2-0.3,4-0.2,5.9,0.3
		c2.5,0.5,5,0.5,7.5,0.1c3.9-0.6,7.9-0.3,11.7,0.8c2.7,0.7,5.5,1.4,8.3,1.9c4.3,0.7,8.6,1.4,12.9,1.9c3.6,0.4,7.2,0.6,10.8,0.9
		c0.4,0,0.8-0.1,1.2-0.2c-0.4-0.4-0.9-0.6-1.5-0.7c-4.8-0.6-9.7-1.2-14.5-1.8c-5.9-0.8-11.8-1.9-17.6-3.5c-3.6-1.1-7.4-1.3-11.1-0.8
		c-2.7,0.4-5.4,0.4-8-0.1c-1.3-0.3-2.6-0.4-3.9-0.4C268,252.8,267,253.4,266.8,254.4 M218.5,321c-1.8,4-3.4,8.1-5.3,12.1
		c-1.2,2.6-3.6,4.2-5.9,5.7c-0.7,0.4-1.6,0.6-2.4,0.5c-1.8-0.1-3.6-0.5-5.4-1.1c-3.4-1.4-6.7-3.2-9.9-4.9c-1.2-0.7-2.2-1.7-3-2.7
		c-0.7-0.8-1.6-1.4-2.6-1.7c-1-0.3-2-0.6-2.9-1.1c-2.5-1.3-5-2.7-7.5-4c-1.6-0.7-3.2-1.2-4.8-1.7c-3-1-6-2.1-8.9-3.1
		c-0.6-0.3-1.1-0.6-1.5-1.1c-1.3-1.4-1.9-1.6-3.6-0.9c-0.5,0.2-1,0.3-1.5,0.2c-2.6-0.3-5.2-0.7-7.9-1c0.5-2,1.5-3.8,3-5.2
		c2.1-2,4.3-3.9,6.3-5.9c1.2-1.1,2.1-2.5,3.2-3.7c1.1-1.3,2.2-2.7,3.5-4c1.5-1.6,3.2-3,4.6-4.6c1-1.2,1.8-2.6,2.2-4.1
		c1.6-5.3,3.7-10.4,6.3-15.3c3.5-6.6,5.3-14,5.1-21.5c-0.1-3.4,0.3-6.7,1.2-10c0.1-0.5,0.2-0.9,0.4-1.3c1.7-3.8,3.3-7.8,5.3-11.5
		c1.7-3.4,5-5.8,8.8-6.4c2.8-0.3,5.4-1.1,8-2.2c1.5-0.6,2.7-1.8,3.2-3.3c0.4-1,1.1-1.8,2.1-2.2c1.2,2.9,2.7,5.4,6.3,5.9
		c-2.7,0.4-5.5,0.5-8.3,0.5c-4.4,0.1-6.9,0.6-7.8,1.6c0.3,0.8,0.9,0.6,1.5,0.6c2-0.2,3.9-0.4,5.9-0.6c10.1-1,19.4,0.9,27.7,6.9
		c1.9,1.4,3.8,2.9,5.8,4.1c1.7,1,3.5,1.8,5.4,2.3c4.4,1,8.8,1.8,13.2,2.7c3.5,0.8,7,2.1,10.1,3.9c0.5,0.3,1,0.7,1.5,1.1
		c-2.3,1.4-4.9,0.2-7.5,1.3c0.7,0.5,1,0.9,1.3,0.9c2.7,0,5.4,0.2,8-0.9c1.6-0.5,3.3-0.8,5-0.8c10.1-0.5,19.8,1.3,29.4,3.9
		c9.2,2.6,18.7,4.2,28.2,4.7c3.5,0.2,7-0.1,10.5-0.2c2.2,0,4.3,0.1,6.5,0.1c2.8,0.2,5.7-0.4,8.2-1.6c1.5-0.8,2.9-1.6,4.3-2.4
		c1.8-1.1,4-1.3,6.1-0.7c3.2,0.9,6.4,1.6,9.6,2.4c1.1,0.3,2.2,0.6,3.3,0.8c2,0.3,2.8,1.7,3.3,3.5c-0.5,0.6-1.4,0.7-2,0.2
		c-1.6-0.8-3.4-1.1-5.2-1c-2.2,0-4.3-0.2-6.5-0.2c-1,0-2,0-3.2,0c0.2,1,0.9,1.1,1.5,1.2c1.5,0.2,3,0.4,4.5,0.4
		c1.7,0.1,3.4,0.9,4.4,2.3c0.5,0.5,1,1.1,0.6,1.9c-0.4,0.8-1.2,1.3-2.1,1.1c-1.8-0.3-3.5-0.6-5.3-0.9c-0.8-0.1-1.5-0.2-2.3-0.2
		c-0.1,1,0.5,1,1,1.1c1.7,0.4,3.3,0.7,5,1.1c0.7,0.1,1.4,0.3,1.5,1.2c0.2,0.9-0.3,1.7-1.1,2.1c-0.8,0.4-1.6,0.5-2.5,0.3
		c-0.8-0.2-1.7-0.3-3-0.4c0.7,1.3,1.6,1.2,2.4,1.5c1,0.2,1.8,0.9,2.1,1.9c0.3,1.1-0.2,1.7-1.3,1.6c-0.7-0.1-1.4-0.2-2.1-0.4
		c-1.9-0.4-3.7-0.9-5.6-1.2c-0.7-0.1-1.4-0.1-2.1,0.1c-1.8,0.4-3.7,0.2-5.4-0.7c-1.6-0.8-3.1-1.7-4.6-2.6c-1.5-0.9-3.1-1.4-4.8-1.6
		c-3.8-0.6-7.5,0-11.2,0.6c-8.3,1.4-16.7,2.1-25.2,1.9c-6.1-0.2-12.1,0-18.2,0c-2.6,0-5.1-0.2-7.7-0.4c-1.4,0-2.7-0.4-3.8-1.3
		c0.9-0.1,1.8-0.2,2.6-0.4c0.4-0.1,0.6-0.5,0.9-0.8c-0.3-0.2-0.7-0.6-1-0.7c-0.7,0-1.3,0-2,0.1c-5.1,0.6-10.3-0.3-15-2.6
		c-1.2-0.5-2.4-1-3.7-1.4c-0.4,0-0.8,0-1.2,0.1c0,0.1-0.1,0.3-0.1,0.4l5.1,2.4c-0.3,0.2-0.4,0.3-0.5,0.3c-6.5-0.4-13-0.6-19.5-1.1
		c-4.4-0.3-8.8-1-13.1-1.5c-2.1-0.2-4.2-0.4-6.3-0.5c-4-0.3-8-0.6-12-0.8c-2.4-0.2-4.8-0.9-7-2c-0.6-0.3-1.2-0.5-1.9-0.8
		c-0.5,1.7-1.3,3.1-1.7,4.8c-0.4,1.6-0.9,3.5-3,4.2c-0.4,0.3-0.7,0.7-0.7,1.2c0.2,0.7,0.9,0.7,1.5,0.5c0.9-0.4,1.8-0.8,2.6-1.3
		c2.1-1.2,4.2-2.5,6.3-3.7c1.9-1,4-1.4,6.1-1.2c2.7,0.3,5.5,0.5,8.4,0.7c0.1,0.5,0.2,1,0.2,1.6c-0.2,3.3-0.3,6.6-0.6,9.8
		c-0.4,2.8-1.6,5.5-3.5,7.6c-0.3,0.4-0.6,0.9-1,1.5c0.8,0.3,1.8-0.1,2.2-0.9c2-2.3,3.3-5.1,3.7-8.2c0.4-3.7,0.6-7.5,0.9-11.4
		c0.4-0.1,0.8-0.1,1.1-0.1c3.1,0.2,6.2,0.5,9.2,0.8c1,0.1,1.6,0.4,1.7,1.5c0.2,2.5,0.6,5,0.8,7.4c0,1-0.2,2-0.6,2.8
		c-1.6,3.8-4.2,7-6.9,10.1c-2.2,2.4-3.6,5.4-4,8.6c-0.4,5.3-2.2,10.4-5.2,14.8c-1.7,2.5-3.2,5.1-4.8,7.7c-2.3,3.7-5.8,6.3-9,9.1
		c-1.3,1.1-2.7,2.1-4,3.3c-0.6,0.7-1.1,1.6-1.4,2.5c-0.1,0.2,0.3,0.6,0.5,1c0.3-0.2,0.9-0.3,0.9-0.5c0.6-2.1,2.4-3.1,3.9-4.3
		c1.7-1.5,3.5-3,5.2-4.5L218.5,321"/>
	<path id="Path_318" fill="none" d="M170.3,374.7c0.6,1.5,0.6,1.5,1.8,0.6L170.3,374.7 M182,391c-1.7-1.5-3.8-1.6-5.9-1.7
		c-0.2,0-0.3,0.4-0.7,1C177.5,390.8,179.7,391.1,182,391 M177.8,380.5c-1.9-1.2-4-1.9-6.2-2.1c-0.6,0-1.3,0-1.5,1.1
		c2,0.4,3.9,0.9,5.9,1.3c0.4,0.1,0.8,0.1,1.2,0.1C177.2,380.9,177.4,380.7,177.8,380.5 M181,386.7c-2.4-1.2-4.8-2.5-7.6-2.1
		c0.2,0.5,0.5,0.9,0.8,1C176.4,385.9,178.5,387.3,181,386.7 M179.8,344.7l-0.4,0.6c0.7,0.5,1.5,0.9,2.2,1.4c1.8,1.1,4.2,1.2,4.9,3.7
		c1.6,0.9,2.4,2.4,3.6,3.7c1.8,2,3.7,3.8,5.7,5.5c2.5,2,4.7,4.4,6.6,7c0.3,0.4,0.7,0.9,1.1,1.2c0.7-1,0.1-1.5-0.2-2
		c-1.6-2.5-3.3-4.9-4.7-7.5c-0.9-1.8-2.1-3.4-3.6-4.7c-1.8-1.5-3.6-3-5.5-4.4C186.6,347.1,183.2,345.9,179.8,344.7 M191.7,360.6
		c0.1,0.5,0.2,1,0.3,1.4c0.3,0.5,0.6,1,1,1.5c4.2,4.8,6.5,10.6,9.1,16.3c2.2,4.9,4.3,9.7,6.7,14.5c2.7,5.6,5.7,11.1,8.5,16.7
		c0.2,0.5,0.5,1.1,0.9,1.5c2.7,3.2,4,7.1,5.4,10.9c0.7,2.1,1.1,4.3,1.1,6.6c0,2.8-0.2,5.5-0.7,8.2c-0.3,1.7-0.9,3.3-1.7,4.8
		c-2.2,4.6-4.4,9.1-6.8,13.6c-1.9,3.8-3.4,7.7-4.5,11.8c-2.1,7.6-3.9,15.3-7,22.6c-2.6,6-5.5,11.8-8.2,17.8
		c-1.2,2.7-2.4,5.4-3.5,8.1c-1,2.3-2.1,3-4.6,3c-0.9,0.1-1.8,0-2.8-0.2c-2.5-0.7-5,0.2-7.4,0.4c-0.2,0-0.4,0.3-0.8,0.5
		c0.9,0.8,2.2,1,3.3,0.7c1-0.4,2.2-0.4,3.2-0.1c-0.6,0.9-1.5,1.4-2.6,1.3c-1.2,0.1-2.4,0.1-3.6,0.1c-2-0.1-4,0.5-5.6,1.6
		c-0.3,0.2-0.7,0.4-1.1,0.7l-1.3-1.8c0.8-0.6,1.5-1.1,2.2-1.6c0.1,0,0.1,0,0.2-0.1c1.7-1,1.7-2.1-0.2-3.6c0.6-0.5,1.1-1.1,1.7-1.5
		c1.5-1,2.5-2.6,2.9-4.3c0.4-1.7,1.2-3.3,1.7-5c1.2-3.5,2.7-6.8,4.6-10c3.6-6.6,5.8-13.8,6.4-21.2c0.2-1.6,0.6-3.1,1.3-4.5
		c0.7-1.5,1.1-3.1,1.1-4.8c0-1.2,0.3-2.4,1-3.3c0.7-1.1,1.2-2.2,1.7-3.3c0.6-1.3,0.6-2.7,0-4c-0.7-1.5-0.2-2.2,1.5-2.4
		c3.1-0.5,6-1.5,8.7-3.1c0.5-0.3,0.9-0.7,1.4-1c-2-0.1-3.2,1-4.7,1.4s-2.7,1.2-4.6,1.1c0.6-2.2,0.5-4.4,1.8-6.2
		c0.8-1.2,1.5-2.3,0.7-3.9c2.1-0.8,4.1-0.1,6.3-0.3c-0.5-1.1-1.5-1.7-2.7-1.7c-1-0.1-2.1,0-3,0c-0.1-0.3-0.2-0.4-0.1-0.4
		c1.7-2.6,0.2-4.6-1.1-6.6c-0.4-0.5-0.8-1-1.3-1.4c-0.9-0.8-1.2-2.1-0.7-3.2c3.1,1.9,6.6,3.1,10.2,3.7c-0.8-0.4-1.7-0.9-2.5-1.3
		c-2-1.1-4.1-2.1-6.1-3.2c-0.9-0.4-1.8-0.8-2.7-1.1c-0.9-0.3-1.1-0.8-0.9-1.8l5.6,1.2c0-0.2,0.1-0.3,0.1-0.5l-7.9-3.2
		c-0.2-2-1.6-3.6-2.8-5.3c-2.3-3.1-4.4-6.2-6.6-9.3c-0.6-0.9-1.3-1.7-1.9-2.5c-2.6-3.2-4.9-6.6-6.8-10.2c-0.7-1.4-1.7-2.7-2.4-4.1
		c-1.1-2.4-2-4.8-3-7.3c-1-2.6-2.1-5.1-3-7.7c-0.7-2.1-1.3-4.3-1.9-6.4c-0.3-0.9-0.6-1.9-1-2.8c-2-4-4-8-6.1-12
		c-1.1-1.9-1.5-4.1-1.4-6.3c0.2-1.6-0.1-3.2-0.9-4.5c-0.3-0.6-0.4-1.2-0.4-1.9c-0.3-2.4-0.8-4.7-1.5-6.9c-0.5-1.8-0.7-3.7-0.6-5.6
		c0.1-1.2,1.1-2.3,1.8-3.7c4.2,1.3,8.2,2.5,12.3,3.9c6.5,2.2,12.3,5.6,18.1,9.3c0.8,0.5,1.6,1.1,2.5,1.6c0.6,0.3,1.3,0.5,2,0.8
		c0.6,0.2,1.1,0.4,1.6,0.7c2.4,1.4,4.8,2.7,7.2,4.2c2.4,1.4,5,2.4,7.7,2.9c0.9,0.2,1.4,0.6,1.4,1.3c0.1,0.8,0,1.7-0.2,2.5
		c-0.8,2.2-0.8,4.6,0.3,6.7c0.5,1.2,0.7,2.4,0.6,3.7c0,1.9,0.2,3.8,0.6,5.7c0.1,0.7,0.2,1.4,0.3,2.4h-5.2c0.8,1.2,0.8,1.2,5.3,1.3
		c0,0.5-0.1,1-0.1,1.3c-0.2,0.2-0.2,0.2-0.3,0.2c-0.6,0.1-1.3,0.2-2.1,0.3l0.9,1.3l-1.6,1.9c-0.1,0.8-0.1,1.6-0.2,2.4l-0.4,0.1
		c-3.2-6.8-6.1-13.8-11.4-19.2L191.7,360.6"/>
	<path id="Path_319" fill="none" d="M279.9,484.3c-0.2,0.3-0.5,0.4-0.5,0.6s0.3,0.5,0.4,0.5c0.2-0.1,0.5-0.3,0.7-0.5L279.9,484.3
		 M268,457.1c-1.1-0.8-2.5-1-3.9-0.6C265.1,457.6,266.1,457.8,268,457.1 M276.8,484.2c-1.6-1.7-2.9-2.1-4.7-1.4
		C273.5,483.6,275.1,484.1,276.8,484.2 M260.5,476.6c0.4,1.5,0.4,1.5,1.7,2.4c3.1,1.9,7.1,3.4,8.8,3.1L260.5,476.6 M253.4,436.7
		c-2-0.1-3.7-0.2-5.5-0.4c-1.7-0.2-3.4-0.4-5.1-0.7c-1.7-0.3-3.4-0.8-5.3-1.3C239.7,437.2,249.8,438.6,253.4,436.7 M247.2,452.1
		l-0.1,0.4c2.9,2.2,6.5,2.7,10,3.5c1.8,0.5,3.7,0.7,5.5,0.3c-0.3-0.4-0.4-0.6-0.6-0.7c-4.7-1.4-9.7-1.7-14.2-3.7
		C247.6,452,247.4,452.1,247.2,452.1 M258.2,439.4c-1.8,0.3-3.4,0.6-5,0.7c-1.6,0.2-3.2,0.3-4.9,0.3c-1.6,0-3.2-0.2-5-0.4
		C245.9,443.1,254.9,442.6,258.2,439.4 M264.7,484.4c0.3,1,1,1.9,1.8,2.6c6.4,5.9,13.1,11.6,19.1,18c1.5,1.6,3,3.3,4.5,4.9
		c1,1.1,1.6,2.2,0.1,3.5c1.5,0.1,2.2-0.1,2.4-0.7c0.1-0.7,0-1.4-0.2-2c-0.3-0.7-0.8-1.4-1.3-1.9c-3.9-4-7.6-8.2-11.7-12
		c-4.3-4-8.9-7.6-13.3-11.4C265.6,484.9,265.2,484.6,264.7,484.4 M242.1,444.7c6.9,2.6,13.7,5.3,21.1,3.2c-0.4,0-0.8-0.1-1.2-0.1
		c-5.4-0.3-10.8-0.8-15.9-2.7c-1.6-0.5-3.1-1.1-4.6-1.8c-1.6-0.7-2.7-2.2-3.1-3.9c-0.4-2-1.3-3.9-2.6-5.4c-0.5-0.6-0.8-1.2-1.1-1.9
		c-0.2-0.6-0.3-1.2-0.3-1.8c5.7,2,11.1,3.6,16.8,1.8c-1.6-0.2-3.2-0.4-4.8-0.4c-3.9-0.2-7.6-1.3-11.3-2.5c-0.9-0.5-1.8-1.2-2.3-2.1
		c4.2,0.8,8.2,2,12.4,0.3c-4.5-0.2-8.9-0.9-13.2-2.2c-0.3-1.7-0.8-3.4-1.3-5c-1.6-3.9-3-7.9-5.2-11.5c-1.5-2.4-2.2-5.1-2.1-7.9
		c0.1-0.3,0.1-0.7,0-1c-1.4-3.4-1.8-7.2-4.7-9.8c-0.9-0.9-1.7-2.9-2.1-5c1.4-1.3,3.8,0.4,5.1-1.7c-1.4-0.5-2.9-0.6-4.4-0.4
		c-0.6,0.1-1.2,0.2-1.8,0.3c-1.4,0.1-1.7-0.4-2-1.8c-0.3-1.1-0.7-2.2-1.2-3.2l1.7-1l-2.8-0.8c0.4-0.5,0.6-1,1-1.2
		c1.9-0.8,3.9-1.1,6-1.1c0,0.6,0,1.1,0,1.5c0.1,1.7,0.6,2.4,1.9,2.5c1.3,0.1,2.5-0.8,2.6-2.1c0.4-1.7,0.7-3.5,1.1-5.2
		c0.1-0.9,0.4-1.8,0.9-2.6c0.2,2,0.5,4,0.7,6c0.2,1.7,0.3,3.4,0.5,5.1c0,0.5,0.2,0.9,0.4,1.3c0.4,0.9,1.5,1.3,2.4,0.8
		c0.3-0.2,0.6-0.4,0.8-0.8c0.4-0.8,0.6-1.7,0.7-2.6c0.1-1.1,0-2.2,0-3.6c0.6,0.4,1,1.1,1,1.9c0.6,2.6,1.7,5,3.3,7.1
		c2.7,4.3,5.2,8.7,7.8,13c2.2,3.6,4.4,7.2,6.4,10.9c2,3.6,3.7,7.3,5.7,10.8c0.9,1.5,1.9,2.8,3,4.1c0.7,0.6,1,1.5,0.9,2.4
		c-0.3,1.2,0.2,2.4,1.2,3.1c0.8,0.6,1.4,1.4,2,2.1c0.3,0.4,0.5,0.9,0.5,1.4c-0.3,1.4,0.4,2.8,1.6,3.5c1.2,0.8,1.9,2,2.1,3.4
		c0.2,1.2,0.7,2.3,1.5,3.1c2.5,2.1,3.9,4.9,5.7,7.5c1,1.7,2.4,3.2,4,4.3c0.9,0.6,1.6,1.4,2.1,2.3c2.9,4.9,5.6,9.8,8.4,14.7
		c1.6,2.9,3.5,5.6,5.5,8.2c5.9,7.7,12.7,14.6,19,21.9c1.7,2,3.4,4.1,5,6.1c0.9,1.1,0.8,1.4-0.2,2.3c-0.7,0.5-1.4,1-2.2,1.4
		c-3,1.4-6,2.7-8.9,4.2c-3.2,1.6-6.6,2.7-10.1,3.3c-3.4,0.6-6.7,1.1-10.1,1.7c-0.1-0.2-0.4-0.3-0.4-0.4c-0.8-3-2-5.9-3.6-8.5
		c-1.3-2.4-2.7-4.8-4.4-7c-3.2-4.4-6.7-8.7-9.9-13c-2.9-3.9-6-7.6-7.9-12.2c-1.8-4.4-4-8.6-6.7-12.5c-1.5-2.2-2.4-4.7-3.7-7
		c-1.5-2.8-3.1-5.6-4.7-8.4C243,448.6,242.3,446.7,242.1,444.7"/>
	<path id="Path_320" fill="none" d="M226.9,377.1c-0.2-0.8-0.4-1.6-0.5-2.5c-0.3-3.7-0.6-7.5-0.9-11.3c-1,0.4-1.7,1.2-1.8,2.3
		c-0.6,2.2-1.1,4.5-1.7,6.8c-0.1,0-0.3,0.2-0.4,0.2c-0.5,0-1.2-0.3-1.3,0.4c0,0.3,0.5,0.6,0.7,1c0.2,0.2,0.3,0.4,0.3,0.7l-2-0.5
		c0.3-1.9,0.6-3.7,0.8-5.5c0.3-1.9,0.5-3.8,0.7-5.7c0.1-1.1-0.3-2.2-1.1-3.1c-0.2-0.5-0.9-0.8-1.4-0.6c-0.2,0.1-0.4,0.3-0.5,0.5
		c-0.6,0.8-1.1,1.6-1.5,2.5c-0.3,0.4-0.5,0.9-0.7,1.5l-2.3-1.1c0.6-2.1,1.2-4.3,1.7-6.4c0.4-1.5,0.7-3.1,1-4.6
		c0.3-2.6-0.4-3.8-2.8-4.8c-0.9-0.3-1.5-1.1-1.5-2c1.5-0.7,3.1-1.2,4.8-1.5c1-0.2,2-0.6,2.9-1.2c2-1.2,4.3-1.9,6.7-2.1
		c1.1-0.1,2.2-0.7,2.8-1.6c0.9-1.2,1.8-2.3,2.6-3.5c2.8-4.3,5.7-8.6,8.3-13c1.9-3.4,3.6-6.9,5.1-10.5c1.8-3.9,3.3-7.9,5-11.8
		c1.1-2.5,2.5-4.9,3.8-7.4c1.2-2.3,2.5-4.6,3.8-6.9c0.7-1.3,1.5-2.5,2.3-3.7c0.2-0.4,0.4-0.8,0.6-1.2c-0.9-0.7-1.7-0.2-2.3,0.1
		c-1.3,0.7-3,0.4-4-0.7c-0.7-0.7-1.4-1.4-2-2.1c-3.2-4.9-5.7-10.2-7.5-15.8l22.1,1.3c0.2,0.8,0.3,1.6,0.5,2.3
		c1.4,5.1,2.9,10.1,4.1,15.3c0.8,2.7,1.2,5.5,1.4,8.3c-0.1,3.1-1.2,6.1-3.2,8.6c-2,2.7-4,5.4-5.9,8.2c-2.8,4.2-5.6,8.5-8.3,12.7
		c-1.3,2-2.6,4.1-4.1,6.1c-3.1,4.3-6.4,8.6-9.5,12.8c-1,1.4-2.1,2.7-3.1,4.1c-2.2,3.2-3.8,6.8-4.8,10.5c-0.7,2.8-1.4,5.5-2.2,8.2
		c-0.4,1.4-0.4,2.9-0.1,4.3c0.5,2.2,0.8,4.4,1.1,6.6c0.2,1.6,0.3,3.2,0.4,4.9l-0.4,0.1c-0.9-2.9-1.8-5.9-2.8-8.9
		c-0.8,0-0.8,0.6-0.8,1.2c-0.1,1.8-0.3,3.6-0.3,5.3c0,1.1-0.1,2.1-1.3,2.6C227.1,376.6,227,376.9,226.9,377.1L226.9,377.1z"/>
	<path id="Path_321" fill="none" d="M197.3,439.3c-1.8-1.4-3.4-2.6-4.5-4.4c-2-3.1-4.4-5.9-7.3-8.3c-2.9-2.6-5.6-5.4-8.3-8.2
		c-0.7-0.9-1.4-1.9-2.1-2.9c-1.4-1.8-2.8-3.6-4.2-5.5c-2.8-3.7-5.6-7.5-8.5-11.1c-1.8-2.3-3.9-4.4-5.8-6.8c-2.5-3.1-4.9-6.2-7.2-9.4
		c-1.7-2.3-3.2-4.6-5-7.1c4.3-0.5,6-3.2,6.7-6.8c0.2-1.6-0.2-3.2-1.2-4.4c-1.1-1.3-1.9-2.8-2.6-4.4c-2-5.1-3.5-10.4-4.5-15.8
		c-0.3-1.6-0.9-2.2-2.6-2c-1.4,0.1-2.7,0.4-4.3,0.7c0-0.8-0.1-1.6-0.1-2.3c0-2.5,0.1-5,0.1-7.5c0.1-2.3,0.8-3,3.1-3.1
		c0.3,0,0.7,0,1,0.1c1.9,0.1,2.2-0.2,2.7-2.3c-1.3-1.2-3.1-0.1-4.5-0.7c0.3-2.1,0.4-2.2,2.2-2.2c2.7,0.1,5.3,0.4,8.1,0.6
		c-0.4,2-0.7,3.9-1,5.9l2.2,0.3c0.6,3.6,2.3,7,2.2,10.8c0,0.5,0.1,0.9,0.3,1.3c1,1.8,1,3.7,1.1,5.7c0.1,1.6,0.6,3.2,1.3,4.7
		c1.9,4.2,4.1,8.3,6,12.4c0.6,1.2,0.8,2.5,1.2,3.7c1.2,3.3,2.4,6.7,3.6,10c0.2,0.7,0.7,1.3,0.9,2c1.5,5.3,4.3,10,7.1,14.7
		c1.9,3.1,4,6.1,6.3,8.9c2.3,2.9,4.3,6,6.4,9c0.7,1,1.5,2,2.4,2.9c1,0.8,1.7,2.1,1.7,3.4c0,1,0.5,2,1.4,2.5c0.3,0.2,0.6,0.5,0.7,0.9
		c0.2,1.1,0.9,2.1,1.8,2.7c0.4,0.4,0.6,1,0.5,1.6c0,1.3,0.6,2.6,1.6,3.4c0.9,0.9,1.6,1.9,2.1,3C199.3,437,198.2,438,197.3,439.3"/>
	<path id="Path_322" fill="none" d="M171.1,520c-0.9,0.7-1.6,1.3-2.4,1.9c-1,0.9-1,1.4-0.3,2.5c0.8,1.3,0.8,1.8-0.5,2.6
		c-1.9,1.2-3.9,2.2-5.9,3.2c-0.4,0.2-0.9,0.3-1.3,0.3c-1.3-0.1-1.8-0.7-1.4-2c0.2-0.6,0.4-1.2,0.8-1.8c3.3-6.2,5.8-12.8,7.6-19.6
		c0.8-3.7,2.1-7.4,3.6-10.8c0.4-0.8,0.5-1.6,0.8-2.4c3.1-8,5.2-16.3,7.6-24.5c1.9-6.9,4.4-13.7,7.6-20.1c0.7-1.3,1.5-2.4,2.4-3.6
		c0.8-0.7,1.2-1.7,1.3-2.8c0-0.5,0.1-0.9,0.4-1.3c1.2-0.8,1.7-2.3,1.4-3.6c2.4,1.4,4,2.7,4.9,4.9c0.1,0.4,0,0.9-0.3,1.2
		c-1.1,1.4-1.7,3.1-1.8,4.9c-0.1,1.5-0.8,2.9-2.1,3.8c-1,0.6-1.4,1.9-0.9,3c1.3,2.7,0,4.9-1.4,7c-0.7,0.9-1.1,2.1-1.1,3.3
		c0,1.7-0.4,3.4-1.1,5c-1.4,2.7-1.6,5.7-1.9,8.6c-0.5,6.2-3.2,11.6-5.7,17.1c-1.9,4.1-5.2,7.1-8.3,10.1c-0.9,0.9-1.7,1.8-2.5,2.8
		c-0.6,0.8-1.1,1.7-1.5,2.6c1.8-0.8,2.7-2.5,4.1-3.7s2.6-2.5,4-3.8l0.3,0.2c-0.5,1.2-1,2.5-1.5,3.7c-0.3,0.7-0.6,1.5-0.8,2.2
		c-0.4,2-1.6,3.8-3.3,4.9C170,517.1,170,518,171.1,520"/>
	<path id="Path_323" fill="none" d="M234.1,219.4c0.1,0.8,0.8,0.9,1.4,0.9c2.3,0.1,4.2-1.1,6.5-1.6l-0.9-2c1.3-0.6,3.1-0.6,2.4-2.7
		c-0.8-0.6-1.7-0.3-2.6-0.1c-3.6,1.1-7,2.7-10.9,2.6c-0.5,0-1.1,0.1-1,1c3.5,1.1,6.8,0.1,10.4-0.9c-0.3,0.6-0.3,1.1-0.5,1.1
		C237.5,218.3,235.8,218.9,234.1,219.4 M242.4,222.8c-0.3-0.5-0.9-0.7-1.4-0.5c-0.1,0.1-0.2,0.1-0.3,0.2c-1.2,0.8-1.3,2.1-0.6,5
		l-3.5,2.5c-1.9-1.2-3.9-2.3-5.7-3.5c-2.9-1.8-6.1-3.2-9.4-4.1c-1.7-0.5-1.6-0.5-1.8-2.3c-0.1-1.1-0.3-2.2-0.5-3.3
		c-0.3-1.2,0-2.4,0.6-3.4c1.3-2.1,2.6-4.3,3.8-6.5c0.5-0.8,0.7-1.7,1.2-2.5c0.3-0.6,0.8-1.2,1.3-1.7c1.1-1,2.4-1.9,3.4-3
		c1.4-1.5,2.9-1.9,4.7-0.9c0.4,0.2,0.8,0.4,1.3,0.6c2.7,1,5.2,0.3,7.5-1.2c1.3-0.8,2.5-1.7,4-2.6c1.1,2.8,2.5,5.3,2.7,8.2
		c0,1.3-0.3,2.6-0.9,3.8c-0.5,1.3-1.1,2.5-1.9,3.7c-0.8,1-0.9,2.4-0.3,3.5c0.9,1.8,1.8,3.5,2.6,5.3c0.4,0.9,0.7,2,0.8,3
		c0.2,1.7-1,3.2-2.7,3.3c-0.2,0-0.4,0-0.6,0c-1,0-2.1,0.2-3.1,0.4c-1.1,0.3-2.2-0.2-2.7-1.2c-0.5-1.1,0-1.8,0.9-2.3
		C242.1,223.2,242.3,223,242.4,222.8"/>
	<path id="Path_324" fill="none" d="M353.5,528.2c0.9,0.1,1.8,0.3,2.7,0.5c0.5,0.2,0.9,0.7,1,1.2c0,0.6-0.3,1.1-0.7,1.4
		c-1.1,0.7-2.2,1.2-3.3,1.7c-5.2,2.1-10.8,3.1-16.4,3c-2,0-3.9-0.1-5.9-0.2c-4.4-0.3-8.6-1.6-12.4-3.7c-2.9-1.5-6.2-2.3-9.5-2.3
		c-4.1,0-8.2-0.4-12.1-1.4c-1.9-0.4-2-0.5-2.3-2.4c-0.6-4.1-0.6-4.1,3.3-4.9c2-0.4,3.9-1.2,6-1.2c2.2,0,4.3,0.2,6.4,0.7
		c1.6,0.3,3.2,0.7,4.9,0.1c0.6-0.1,1.2-0.1,1.7,0.1c4,0.9,7.8,2.4,11.3,4.6c3.4,2.3,7.3,4,11.3,5c3.9,0.8,7.8,1.1,11.7-0.1
		C352.2,530.1,353.1,529.3,353.5,528.2"/>
	<path id="Path_325" fill="none" d="M249.8,464.3c-0.3-0.4-0.7-0.8-1-1.2c-2.7-3.7-5.4-7.5-8-11.3c-3.3-4.7-6.5-9.5-9.7-14.2
		c-1.3-1.9-2.8-3.6-4.2-5.5c-0.3-0.4-0.5-0.9-0.5-1.4c0-4.3-1.1-8.5-3.1-12.3c-2.1-3.8-4.3-7.5-6.4-11.4c-2.6-4.9-5-9.9-7.5-14.8
		c-0.5-1-1-2-1.4-3c-0.7-1.3-1.3-2.6-1.8-3.9c-0.4-1.5-0.7-2.9-0.9-4.4l3-0.2c-0.3-1.6-1.9-0.9-2.6-1.8c0.1-0.2,0.2-0.7,0.4-0.7
		c1.4-0.1,2.8,0.1,4.2,0.4c1.5,0.4,2.4,1.8,2,3.3c0,0,0,0.1,0,0.1c-0.1,0.4-0.1,0.8-0.1,1.2c-1.5,1-3-0.2-4.5,0.3
		c-0.2,1.3,0.6,1.7,1.6,1.8c1.2,0.1,2.5,0.1,3.7-0.1c1-0.3,2,0.2,2.4,1.2c0,0.1,0.1,0.1,0.1,0.2c0.7,2.9,2.8,5,4.2,7.5
		c1.1,2,1.8,4.1,2.1,6.3c0.5,3.7,1.7,7.3,3.4,10.6c2.2,3.9,3.9,8.1,5,12.4c0.2,0.6,0.3,1.3,0.3,1.9c-0.2,1.5,0.6,2.9,1.9,3.6
		c0.3,0.2,0.8,0.8,0.7,1.1c-0.5,2.3,1,3.8,2.1,5.3c0.9,1.1,1.6,2.4,1.9,3.8c0.2,1.3,0.9,2.5,1.8,3.5c1.2,1.2,2,2.7,2.3,4.3
		c0.6,2.7,2.3,4.9,3.6,7.2c1.8,3.3,3.6,6.5,5.4,9.8L249.8,464.3"/>
	<path id="Path_326" fill="none" d="M172.5,528.3c0.9,0.6,1.5,1.6,1.6,2.7c0.2,0.9,0.6,1.7,1.2,2.4c2.6,3.6,6.5,5.5,10.5,7
		c4.1,1.6,8.5,1.7,12.8,1.5c0.8-0.2,1.6-0.6,2.2-1.2c0.5-0.5,0.9-1.1,1.2-1.7c0.9,0.9,1.6,2.1,1.9,3.4c0.2,0.8-0.1,1.6-0.8,2
		c-1.6,1.3-3.5,2.1-5.6,2.3c-3.5,0.4-7,0.4-10.4,0c-3.4-0.3-6.8-0.8-10.1-1.6c-3.2-0.7-6-2.6-7.9-5.2c-1.3-1.5-2.8-2.9-4.5-4
		c-1.7-1.3-1.8-2.1,0-3.1C167.1,531.4,169.8,529.9,172.5,528.3"/>
	<path id="Path_327" fill="none" d="M144.7,372.8l0.2,0.5c0.5,0.1,1,0.1,1.3-0.9L144.7,372.8 M141.9,350.8l0.6-1.5
		c0.3,1.1,0.9,2.1-0.1,3.2c-0.5,0.5,0.1,1.5,0.9,1.5c0.9-0.1,1,0.7,0.8,0.9c-1.1,1.5-0.2,2.4,1.1,3c-0.9,2.3-0.7,2.2,1.2,3.4
		c-0.1,0.3-0.2,0.7-0.2,1.1c-0.2,1,0.3,2,1,2c1.1-0.1,1.1,0.3,0.9,1.1c-0.2,1.5,0,1.7,1.8,1.7c-0.5,1-1.6,2,0,3.2
		c-0.9-0.1-1.5-0.3-1.8-0.1c-0.6,0.5-1.1,1.1-1.5,1.8l1.9-0.2c-1.7,2.8-4.7,3.1-6.1,0.4c-2.5-4.9-5.2-9.8-6.2-15.3
		c-0.4-2.9-0.6-5.9-0.6-8.8c-0.1-0.7,0.4-1.3,1-1.3c0,0,0.1,0,0.1,0c1.1-0.2,2.2-0.4,3-0.6c1.1,0.1,0.9,1.9,2.1,1.1
		c0.1,0.3,0.3,0.9,0.2,0.9C140.5,348.8,141.3,349.7,141.9,350.8"/>
	<path id="Path_328" fill="none" d="M218.7,361.2c0.7,0.9,1,2,0.8,3.2c-0.4,2.7-0.9,5.4-1.3,8.3l-9.2,1.2c-0.1-1.8-0.1-1.8,1.3-2.1
		c1.7-0.3,3.3-0.7,5.2-1.1c-0.8-0.6-1.9-0.8-2.9-0.6c-3.8,0.5-3.9,0.5-4.6-3.2c-0.2-1.4-0.3-2.9-0.3-4.3c0.2-1.7-0.1-3.4-0.9-5
		c-0.7-1.2-0.8-2.6-0.4-3.8c0.8-2.1,0.8-4.4-0.1-6.5l2.4-1.1c0.2,0.3,0.4,0.6,0.6,0.9c0.4,0.8,1.2,1.3,2.1,1.1
		c2.1-0.1,3.2,1,3.1,3.1c-0.1,1.1-0.3,2.2-0.6,3.3c-0.9,3.6-1.9,7.1-2.8,10.7c-0.1,0.5-0.2,1-0.1,1.6c0,0.9,0.8,1.6,1.7,1.6
		c0.2,0,0.4,0,0.6-0.1c1-0.3,1.9-1,2.4-1.9C216.6,364.7,217.6,363,218.7,361.2"/>
	<path id="Path_329" fill="none" d="M153.5,324.1c0.9-1.3,1.6-2.4,2.4-3.4c0.4-0.6,1.2-0.9,1.9-0.6c2.7,0.8,5.3,1.5,8,2.3
		c1.8,0.5,3.6,1.2,5.4,1.8c0.4,0.1,0.9,0.3,1.3,0.5c2.8,1.6,5.7,3,8.4,4.7c2.1,1.3,3.6,3.3,4.2,5.7c0.1,0.9,0.2,1.7,0.2,2.6
		c-0.6-0.2-1.1-0.5-1.7-0.7c-2.9-1.7-5.7-3.5-8.7-5.1c-6.4-3.4-13.2-5.9-20.3-7.4C154.3,324.4,153.9,324.2,153.5,324.1"/>
	<path id="Path_330" fill="none" d="M193.3,531.1c2.1,1.9,4,3.6,5.9,5.3c0.8,0.7,1.4,1.4,0.9,2.6c-0.3,1-1.4,1.7-2.5,1.5
		c-3.6-0.1-7.2-0.1-10.7-1.2c-2.2-0.7-4.4-1.8-6.3-3.1c2.4-0.8,4.6-1.4,6.6-2.2C189.2,533.2,191.2,532.1,193.3,531.1"/>
	<path id="Path_331" fill="none" d="M251.6,222c4.6,4.5,6.4,9.7,7.5,15.5c-0.6,0-1.2,0-1.8,0c-2.1-0.4-4.2-0.9-6.4-1.3
		c-0.9,0-1.6-0.7-1.7-1.6c0-0.3-0.1-0.5-0.3-0.7c-0.9-1.5-1-2.8,0.6-3.9c0.3-0.3,0.6-0.7,0.6-1.2C250.7,226.6,251.1,224.5,251.6,222
		"/>
	<path id="Path_332" fill="none" d="M351.1,528.3c-6.3,3.2-16.9-0.1-22.6-4.8c0.7-0.4,1.3-1,1.9-1.5c0.7-0.9,2.1-1,3-0.3
		c1.5,0.9,3,1.8,4.6,2.6c3.5,1.7,7.2,2.9,11,3.6C349.6,528,350.3,528.1,351.1,528.3"/>
	<path id="Path_333" fill="none" d="M390,243.5c0.7-0.8,1.8-1.2,2.8-1c6.1,0.8,12.1,1.6,18.2,2.4c0.6,0.1,1.3,0.3,1.9,0.4
		c0.1,1.4-0.1,1.7-1.2,1.7c-0.9,0-1.8-0.2-2.7-0.3c-5.6-0.8-11.2-1.6-16.8-2.5C391.5,244.2,390.7,244,390,243.5"/>
	<path id="Path_334" fill="none" d="M189.1,334.8l8.2,4.3v5c-0.5-0.1-0.9-0.3-1.3-0.4c-1.9-1-3.7-2-5.6-3c-0.9-0.4-1.5-1.3-1.3-2.3
		C189.1,337.1,189.1,335.9,189.1,334.8"/>
	<path id="Path_335" fill="none" d="M152.7,318.7c-1,1.8-1.8,3.3-2.8,4.8c-0.3,0.4-0.7,0.6-1.1,0.6c-1.6,0.1-3.1,0-4.7,0
		c-0.2-2.3,0.9-3.9,1.8-5.5c0.3-0.4,0.7-0.6,1.1-0.7C149,317.8,150.9,318,152.7,318.7"/>
	<path id="Path_336" fill="none" d="M318.2,510c-0.6,1.2-1.6,2.1-2.8,2.6c-5.2,2.2-10.3,4.4-15.5,6.4c-4.3,1.6-8.9,1.7-13.5,2.4
		c0-0.2-0.1-0.3-0.1-0.5c1-0.2,2-0.4,3-0.6c3.5-0.7,7-1.2,10.5-2c1.7-0.4,3.3-1,4.8-1.8c3.6-1.6,7.3-3.4,10.9-5.1
		C316.2,511,317,510.6,318.2,510"/>
	<path id="Path_337" fill="none" d="M381.5,247.2c-0.7,2.3-0.8,2.4-2.7,2c-2.7-0.6-5.3-1.2-8-1.9c0.2-1,0.8-1.4,1.6-1.3
		C375.4,246.3,378.5,246.7,381.5,247.2"/>
	<path id="Path_338" fill="none" d="M202.2,346.3c0-1.7,1.6-1.5,2.7-2.3c-0.4-0.3-0.7-0.6-1.1-0.8c-0.5-0.3-1.1-0.5-1.4-1
		c-0.7-1.1-2-1.7-3.2-1.4c-0.2,0-0.4-0.1-0.6-0.1c0.1-0.2,0.2-0.5,0.4-0.5c2.6-0.4,5.1,1,6.2,3.3c0,0.1,0.1,0.2,0.2,0.4
		c0.3,1,0,2.1-0.8,2.9C203.6,347.3,202.9,346.7,202.2,346.3"/>
	<path id="Path_339" fill="none" d="M142.9,320.1c0,0.3,0,0.5-0.1,0.7c-0.6,3.1-0.6,3.1-3.9,2.6C139.2,320.6,140,319.8,142.9,320.1"
		/>
	<path id="Path_340" fill="none" d="M210.1,213.9c0.6-0.3,1.3-0.2,1.4,0.5c0.2,1.3,1.1,2.5,2.3,2.9c0.3,0.1,0.4,0.6,0.5,1
		C212,218.4,210.6,216.9,210.1,213.9"/>
	<path id="Path_341" fill="none" d="M170,527.9c1.8-2.1,3.9-3.6,6.9-3.6c2.1,0,4.1-0.3,6.2-0.4c-1.6,0.5-3.4,0.8-5.1,0.7
		c-2.1,0-4.2,0.7-5.9,1.9C171.4,526.9,170.7,527.4,170,527.9L170,527.9z"/>
	<path id="Path_342" fill="none" d="M150.8,325.2c1.1-2.6,2.3-5.2,4.9-6.8l-4.6,7.1L150.8,325.2"/>
	<path id="Path_343" fill="none" d="M190,528.9c-1.4-1.5-3.7-2.4-3.6-5.1l4,4.8L190,528.9"/>
	<path id="Path_344" fill="none" d="M186.2,333.1c1.7,1.4,2.1,3.5,1.2,5.8c-1.2-0.8-0.3-1.9-0.6-2.8
		C186.5,335.2,186.3,334.2,186.2,333.1"/>
	<path id="Path_345" fill="none" d="M324.9,521.9l-6.5-4.9c2.9,0.5,4.4,3.1,6.7,4.5L324.9,521.9"/>
	<path id="Path_346" fill="none" d="M314.3,517.7c-0.4,2-1.2,2.1-4.1,0.9c0.8-0.2,1.4-0.3,2-0.5C312.8,518,313.4,517.9,314.3,517.7"
		/>
	<path id="Path_347" fill="none" d="M208,340.3c0.7,0.2,1.1,0.2,1.3,0.4c0.6,0.8,1,1.7,0.9,2.7C209.2,343.1,209.2,343.1,208,340.3"
		/>
	<path id="Path_348" fill="none" d="M183.8,525.7l2.8,4c-1.6-0.6-2.8-2-3.2-3.7L183.8,525.7"/>
	<path id="Path_349" fill="none" d="M136.6,345.1c2.1-1.3,3.6-1.5,4.8-0.4L136.6,345.1"/>
	<path id="Path_350" fill="none" d="M206.9,376.5c0.7-1.6,1.8-1,3-0.7c-0.2,0.4-0.3,0.8-0.5,0.9C208.6,377,207.6,377,206.9,376.5"/>
	<path id="Path_351" fill="none" d="M180.4,530.4c-1.5-0.8-2.4-2.4-2.3-4C178.8,527.7,179.6,529.1,180.4,530.4"/>
	<path id="Path_352" fill="none" d="M319.4,519.7c-2.1-0.1-2.1-0.1-3.2-1.1C317.7,518,318.5,518.9,319.4,519.7"/>
	<path id="Path_353" fill="none" d="M324.2,514.3l-3.5-1.4C321.8,512,322.6,512.3,324.2,514.3"/>
	<path id="Path_354" fill="none" d="M243.7,230.9l2.9-0.2c-0.8,1.2-0.9,1.2-2.8,0.7C243.7,231.1,243.7,231,243.7,230.9"/>
	<path id="Path_355" fill="none" d="M207.2,345.3c-0.1-0.9-0.2-1.8-0.3-2.7C208.4,343.5,208.6,344.4,207.2,345.3"/>
	<path id="Path_356" fill="none" d="M325.5,517.8l-3.2-2.5c1.5,0.2,2.5,1.2,3.5,2.1L325.5,517.8"/>
	<path id="Path_357" fill="none" d="M226.9,377.2c0.1,0.1,0.3,0.2,0.3,0.2c-0.1,1,0.4,1.9,1.2,2.4c-1.1,0.7-1.5,0.2-1.7-0.6
		C226.7,378.5,226.8,377.8,226.9,377.2L226.9,377.2"/>
	<path id="Path_358" fill="none" d="M190.1,524.1l-2-2.2l0.3-0.3C189.3,522.1,189.9,523,190.1,524.1"/>
	<path id="Path_359" fill="none" d="M199.9,342.4c0.3,1.2,0.3,1.2,1.5,1.7C200,344.5,199.7,344.2,199.9,342.4"/>
	<path id="Path_360" fill="none" d="M376.9,240.1c0,0.5-0.1,1-0.1,1.5l-1.6-0.1l1.2-1.5L376.9,240.1"/>
	<path id="Path_361" fill="none" d="M387.3,246.6l0.4-1.8l0.4,0.1c-0.1,0.6-0.3,1.2-0.4,1.8L387.3,246.6"/>
	<path id="Path_362" fill="none" d="M160.7,532.4l1.6-0.5C161.7,532.6,161.7,532.6,160.7,532.4"/>
	<path id="Path_363" fill="none" d="M179,531.7l1.3,1.4C179.1,533,179,532.4,179,531.7"/>
	<path id="Path_364" fill="none" d="M180.6,527.5l1.1,1.7l-0.3,0.2l-1.2-1.6L180.6,527.5"/>
	<path id="Path_365" fill="none" d="M174.3,527.1l1,1.6l-0.3,0.2l-1.2-1.5L174.3,527.1"/>
	<path id="Path_366" fill="none" d="M377.2,244h1.9c0,0.1,0,0.1,0,0.2h-2L377.2,244"/>
	<path id="Path_367" fill="none" d="M383.8,244.7l-2.2-0.1c0-0.1,0-0.2,0-0.3L383.8,244.7L383.8,244.7z"/>
	<path id="Path_368" fill="none" d="M187.9,528.6l0.9,1l-0.2,0.2l-0.9-1L187.9,528.6"/>
	<path id="Path_369" fill="none" d="M169.9,527.8l-1.4,1.1l-0.2-0.4L169.9,527.8L169.9,527.8"/>
	<path id="Path_370" fill="none" d="M176.6,531.8c-0.2-0.3-0.4-0.6-0.6-1l0.2-0.2c0.2,0.3,0.5,0.6,0.7,0.9L176.6,531.8"/>
	<path id="Path_371" fill="none" d="M182.2,527.6l-0.7-1.1l0.3-0.2l0.7,1L182.2,527.6"/>
	<path id="Path_372" fill="none" d="M149.4,328.6c0.1-0.3,0.1-0.7,0.2-1l0.4,0.1l-0.2,1.1L149.4,328.6"/>
	<path id="Path_373" fill="none" d="M220.8,376.8l-1.3-0.2c0-0.1,0-0.2,0-0.3c0.2-0.1,0.4-0.1,0.6-0.1
		C220.3,376.2,220.4,376.4,220.8,376.8"/>
	<path id="Path_374" fill="none" d="M325.2,519.8l-0.7-0.6l0.1-0.2c0.2,0,0.4,0.1,0.5,0.2c0.1,0.1,0.2,0.3,0.3,0.4L325.2,519.8"/>
	<path id="Path_375" fill="none" d="M213.4,366.5c-0.4,0.1-0.6,0.3-0.6,0.2c-0.1-0.2-0.3-0.3-0.3-0.5c0.1,0,0.2-0.1,0.3-0.1
		C213,366.2,213.2,366.3,213.4,366.5"/>
	<path id="Path_376" fill="none" d="M383.8,244.8l1.5,0.1l0,0.2L383.8,244.8L383.8,244.8"/>
	<path id="Path_377" fill="#F49C98" d="M266.8,254.5c0.2-1,1.2-1.6,2.2-1.4c1.3,0,2.6,0.2,3.9,0.4c2.6,0.5,5.4,0.6,8,0.1
		c3.7-0.6,7.5-0.3,11.1,0.8c5.8,1.6,11.7,2.7,17.6,3.5c4.8,0.7,9.6,1.2,14.5,1.8c0.6,0.1,1.1,0.3,1.5,0.7c-0.4,0.1-0.8,0.2-1.2,0.2
		c-3.6-0.3-7.2-0.5-10.8-0.9c-4.3-0.5-8.6-1.1-12.9-1.9c-2.8-0.5-5.5-1.2-8.3-1.9c-3.8-1.1-7.8-1.4-11.7-0.8c-2.5,0.4-5,0.4-7.5-0.1
		c-1.9-0.5-3.9-0.6-5.9-0.3C267.3,254.7,267.1,254.6,266.8,254.5"/>
	<path id="Path_378" fill="#F49C98" d="M201.6,293.2c-1.1,0.8-2.5,1.1-3.9,0.8c-2.3-0.4-4.5-0.9-6.7-1.6c-2.9-1-5.6-2.2-8.4-3.3
		c-0.8-0.2-1.5-0.8-1.8-1.6c0.4-0.1,0.9-0.1,1.3,0c2.9,1.1,5.8,2.2,8.7,3.3c2.8,1.2,5.8,1.8,8.8,1.8c0.6,0,1.3,0.1,1.9,0.2
		C201.6,292.8,201.6,293,201.6,293.2"/>
	<path id="Path_379" fill="#F49C98" d="M186.6,246c-0.9,0.1-1.7-0.5-1.9-1.5c-0.5-1.6-0.6-3.2-0.3-4.8c0.7-2.6,2.1-5,4.1-6.9
		c1.6-1.6,3.4-2.9,5.1-4.4c0.4-0.3,0.8-0.4,1.3-0.4c-0.1,0.4-0.3,0.9-0.6,1.2c-1.2,1.2-2.4,2.4-3.7,3.5c-2.1,1.7-3.6,3.9-4.4,6.4
		c-0.4,1.3-0.4,2.6-0.1,3.9C186.4,244.1,186.5,245,186.6,246"/>
	<path id="Path_380" fill="#F49C98" d="M181.4,311.9c0.3,0.9,0.1,1.8-0.5,2.5c-2.5,4.3-8.1,5.3-11.7,3.9c-0.8-0.3-1.6-0.6-2.4-1
		c-0.6-0.3-1.2-0.8-1.6-1.3c1.8-0.4,3.4,0.3,4.9,0.9c3.4,1.3,7.2,0.1,9.2-2.9c0.3-0.5,0.6-1,0.8-1.6
		C180.4,312,180.6,311.6,181.4,311.9"/>
	<path id="Path_381" fill="#F49C98" d="M239.1,253.4c0.5-0.3,0.9-0.6,1.4-0.8c0.7-0.3,1.3-0.5,2-0.8c1.2-0.5,2.4-1.1,2.5-2.6
		c1.7-0.3,3.5,0,5.1,0.6c-0.1,0.2-0.2,0.4-0.2,0.4c-1.9,0-3.7,0.7-5.1,1.9c-1.4,0.8-2.9,1.5-4.5,1.9c-0.3,0.1-0.7-0.1-1.1-0.1
		C239.2,253.7,239.2,253.5,239.1,253.4"/>
	<path id="Path_382" fill="#F49C98" d="M212.9,287.7c-2,3.3-4.6,4-7,2c1.3-0.2,2.5-0.4,3.6-0.6S211.2,287.2,212.9,287.7"/>
	<path id="Path_383" fill="#F49C98" d="M217.4,275c0.2-1.8,1.4-3.3,3.1-3.8c1-0.3,1.1-0.3,2,0.7c-0.3,0.2-0.5,0.3-0.8,0.4
		c-1.2,0.2-2.2,1-2.6,2.2C218.8,275.2,218.3,275.3,217.4,275"/>
	<path id="Path_384" fill="#F49C98" d="M221.6,248.6c0.4-0.2,0.8-0.4,1.2-0.6c1.5-0.4,2.8-1.1,3.9-2.1c0.4-0.4,0.9-0.7,1.3-0.1
		c0.1,0.2-0.1,0.9-0.3,1.2c-1.6,1.5-3.8,2.3-6,2C221.7,248.8,221.7,248.7,221.6,248.6"/>
	<path id="Path_385" fill="#F49C98" d="M199.6,297.6c-0.5,1.7-1.8,2.2-3.1,2.7c-0.9,0.6-2.2,0.3-2.8-0.7c1.1-0.3,2-0.6,3-0.9
		C197.6,298.3,198.2,297.1,199.6,297.6"/>
	<path id="Path_386" fill="#F49C98" d="M191.3,303.5c-1,2.1-3.6,3.1-5.7,2c-0.1,0-0.1-0.1-0.2-0.1c0.2-0.2,0.3-0.5,0.5-0.6
		C187.6,304.5,189.3,304,191.3,303.5"/>
	<path id="Path_387" fill="#F49C98" d="M221.2,274.7c-0.3-1.6,0.1-1.9,1.7-1.5C222.6,274.1,222.2,274.7,221.2,274.7"/>
	<path id="Path_388" fill="#F49C98" d="M179.8,344.7c3.4,1.2,6.8,2.3,9.8,4.5c1.9,1.4,3.7,2.9,5.5,4.4c1.5,1.3,2.7,2.9,3.6,4.7
		c1.4,2.6,3.1,5,4.7,7.5c0.3,0.5,0.9,1,0.2,2c-0.4-0.4-0.8-0.8-1.1-1.2c-1.8-2.6-4.1-5-6.6-7c-2-1.7-3.9-3.5-5.7-5.5
		c-1.1-1.3-2-2.8-3.6-3.7c-0.7-2.5-3.2-2.6-4.9-3.7c-0.7-0.5-1.5-0.9-2.2-1.4C179.6,345.1,179.7,344.9,179.8,344.7"/>
	<path id="Path_389" fill="#F49C98" d="M181,386.7c-2.4,0.6-4.5-0.8-6.8-1.1c-0.3,0-0.6-0.5-0.8-1
		C176.2,384.2,178.6,385.5,181,386.7"/>
	<path id="Path_390" fill="#F49C98" d="M177.8,380.5c-0.4,0.2-0.5,0.4-0.7,0.4c-0.4,0-0.8,0-1.2-0.1c-1.9-0.4-3.9-0.9-5.9-1.3
		c0.2-1.1,0.9-1.1,1.5-1.1C173.8,378.6,175.9,379.3,177.8,380.5"/>
	<path id="Path_391" fill="#F49C98" d="M182,391c-2.2,0.1-4.4-0.2-6.6-0.7c0.4-0.5,0.6-1,0.7-1C178.2,389.4,180.3,389.5,182,391"/>
	<path id="Path_392" fill="#F49C98" d="M170.3,374.7l1.8,0.6C170.9,376.2,170.9,376.2,170.3,374.7"/>
	<path id="Path_393" fill="#F49C98" d="M264.7,484.4c0.5,0.3,0.9,0.6,1.4,0.9c4.5,3.8,9,7.4,13.3,11.4c4.1,3.8,7.8,8,11.7,12
		c0.6,0.6,1,1.2,1.3,1.9c0.3,0.6,0.4,1.3,0.2,2c-0.2,0.7-0.9,0.8-2.4,0.7c1.5-1.3,0.9-2.4-0.1-3.5c-1.5-1.6-3-3.3-4.5-4.9
		c-6-6.4-12.7-12-19.1-18C265.7,486.3,265,485.4,264.7,484.4"/>
	<path id="Path_394" fill="#F49C98" d="M258.2,439.4c-3.2,3.2-12.3,3.6-14.8,0.6c1.8,0.1,3.4,0.4,5,0.4c1.6,0,3.3-0.1,4.9-0.3
		C254.8,440,256.4,439.7,258.2,439.4"/>
	<path id="Path_395" fill="#F49C98" d="M247.2,452.1c0.2,0,0.4-0.1,0.5-0.1c4.5,2,9.5,2.4,14.2,3.7c0.1,0,0.2,0.3,0.6,0.7
		c-1.8,0.3-3.7,0.2-5.5-0.3c-3.4-0.8-7-1.3-10-3.5L247.2,452.1"/>
	<path id="Path_396" fill="#F49C98" d="M253.4,436.7c-3.6,1.9-13.8,0.5-15.9-2.3c1.9,0.5,3.6,0.9,5.3,1.3c1.7,0.3,3.4,0.5,5.1,0.7
		C249.7,436.5,251.4,436.6,253.4,436.7"/>
	<path id="Path_397" fill="#F49C98" d="M260.5,476.6L271,482c-1.7,0.3-5.7-1.1-8.8-3.1C260.9,478.1,260.9,478.1,260.5,476.6"/>
	<path id="Path_398" fill="#F49C98" d="M276.8,484.2c-1.6-0.1-3.2-0.6-4.7-1.4C273.8,482.1,275.2,482.5,276.8,484.2"/>
	<path id="Path_399" fill="#F49C98" d="M268,457.1c-1.9,0.7-2.9,0.6-3.9-0.6C265.5,456.1,266.9,456.3,268,457.1"/>
	<path id="Path_400" fill="#F49C98" d="M279.9,484.3c0.2,0.3,0.4,0.5,0.5,0.7c-0.2,0.2-0.4,0.4-0.7,0.5c-0.1,0-0.4-0.3-0.4-0.5
		S279.7,484.6,279.9,484.3"/>
	<path id="Path_401" fill="#F49C98" d="M234.1,219.4c1.7-0.6,3.3-1.1,5-1.7c0.2-0.1,0.2-0.5,0.5-1.1c-3.6,1.1-6.9,2.1-10.4,0.9
		c-0.1-0.9,0.4-1,1-1c3.8,0,7.3-1.6,10.9-2.6c0.9-0.3,1.8-0.6,2.6,0.1c0.7,2.1-1.1,2.1-2.4,2.7c0.3,0.6,0.5,1.2,0.9,2
		c-2.3,0.4-4.2,1.6-6.5,1.6C234.9,220.3,234.2,220.2,234.1,219.4"/>
	<path id="Path_402" fill="#F49C98" d="M144.7,372.8l1.5-0.4c-0.3,1-0.8,1-1.3,0.9C144.8,373.1,144.8,372.9,144.7,372.8"/>
</g>
</svg>
