<?xml version="1.0" encoding="utf-8"?>
<!-- Generator: Adobe Illustrator 24.2.1, SVG Export Plug-In . SVG Version: 6.00 Build 0)  -->
<svg version="1.1" id="Layer_1" xmlns="http://www.w3.org/2000/svg" xmlns:xlink="http://www.w3.org/1999/xlink" x="0px" y="0px"
	 width="145.4px" height="315.2px" viewBox="0 0 145.4 315.2" enable-background="new 0 0 145.4 315.2" xml:space="preserve">
<g id="GFX_-_Ghost_Camera" transform="translate(-3710.742 -2183.83)">
	<path id="Path_814" fill="#F7AEA8" d="M3738.7,2461.5c-1.2-1.6-0.8-3.4,0.7-5.2c0.6-0.7,0.6-1.7,0-2.3c-0.1-0.1-0.2-0.1-0.3-0.2
		c-1.8-1.6-1.7-3.4-0.7-5.4c0.2-0.5,0.2-1.1-0.1-1.6c-1.5-1.4-2.1-3.5-1.4-5.4c0.3-1,0.9-1.8,1.8-2.4c1.6-0.6,2.6-2.2,2.4-3.9
		c-0.3-6.5-0.4-13.1-0.4-19.6c0-1.5-0.7-2-2.1-2.1c-5.6-0.5-11.3-0.7-16.9-1.5c-3-0.4-6-1.1-8.5-3.4c-1.9-1.8-1.9-3.7-1.4-5.7
		c1.1-4.9,1.4-10,0.7-14.9c-0.7-6.6-1.9-13.3-1.6-19.9c0.5-9.6,2-19.2,3.2-28.8c0.8-6.6,1.6-13.3,2.7-19.9c0.9-5.5,2.1-11,3.3-16.5
		c0.4-1.5,0.3-3.1-0.2-4.6c-0.8-2.2-1.5-4.5-1.9-6.8c-0.4-1.8-0.2-3.7,0.8-5.3c1.3-2.3,2-5.1,4.5-6.7c0.4-0.3,0.5-1.1,0.6-1.7
		c1.3-17,2.5-33.9,4-50.9c0.4-6.3,2.2-12.5,5.1-18.1c2.3-4.2,5.9-7.3,9.6-10c4.2-3.2,8.7-6,13.5-8.2c4.6-2,9.7-3,14.6-4.2
		c6.1-1.7,12.5-2.5,18.9-2.2c7,0.5,13.7,2.3,19.3,7c1.1,0.9,2.5,1.6,3.6,2.5c5.7,4.5,11.5,8.9,14.6,16c1.9,4.4,4.5,8.4,6.4,12.8
		c3.8,8.8,5.3,18.3,4.3,27.8c-0.5,5.5-0.3,11.1-0.2,16.6c0,5.2,0.3,10.4,0.3,15.6c-0.1,1.1,0.4,2.2,1.4,2.8
		c2.7,1.8,4.3,8.5,3.1,11.6c-0.4,1.1-0.8,2.3-1.4,3.3c-1.1,1.9-0.5,3.7-0.1,5.6c0.7,3.1,1.4,6.2,2.2,9.3c1.1,3.9,2.6,7.6,3.5,11.5
		c1.8,7.5,3.6,15,4.7,22.6c1.6,10.9,2.7,21.8,3.8,32.8c0.5,5.1,0.3,10.3,0.5,15.4c0.1,2.6,0.4,5.2,0.8,7.7c0.4,2.6-1.9,6.4-5,7
		c-3.7,0.7-7.4,1.2-11.1,1.5c-4.8,0.5-9.5,1.9-13.8,4.1c-2.2,1.1-4.5,2.1-6.8,2.9c-1.1,0.4-1.3,1-1.4,2.1c-0.1,5-0.4,9.9-0.6,14.9
		c0,0.8,0.4,1.5,0.9,1.9c2.6,1.7,3.4,4.3,2.1,7.1c-0.4,0.6-0.8,1.3-1,2c-0.2,0.8-0.3,1.6,0,2.4c0.9,2.1,0.9,2.9-0.9,4.3
		c-0.9,0.7-1.4,1.5-0.7,2.6c0.1,0.1,0.1,0.2,0.1,0.4c-0.4,4.4,3,6.8,5.3,9.7c1.5,1.8,3.1,3.5,4.7,5.2c0.1,0.1,0.3,0.3,0.3,0.5
		c0.8,2.9,3.3,4.5,5.1,6.7c1.8,2,2.3,5,1.3,7.5c-0.6,1.5-0.8,3.1-1.4,4.6c-1.1,3.2-3.9,5.4-7.2,5.6c-1.9,0.2-3.8,1-5.8,1.2
		c-2.2,0.2-4.4,0-6.6-0.5c-4.8-1.3-9.5-2.8-13.3-6.2c-2.3-2.1-4.9-4-6.3-7.1c-0.3-0.6-0.4-1.2-0.4-1.8c0.3-2.2,0.9-4.4,1.1-6.6
		c0.2-2.8,2-4.1,3.9-5.6c2.5-2,5.1-4.2,5.3-7.9c0-0.8-0.4-1.7-1-2.2c-2.1-1.9-2-4,0.4-5.5c0.5-0.3,1-0.7,1.6-1.1
		c-2.8-2.8-2.8-2.8,0.7-7.5c-0.8-0.4-1.5-0.9-2.2-1.4c-2.3-2.2-1.6-5.4,1.6-6.7c1.3-0.4,2.1-1.7,1.9-3c-0.2-4.8-0.3-9.5-0.4-14.3
		c0-1.1-0.5-1.7-1.5-1.9c-6.7-1-13.3-2.4-20-2.9c-3.9-0.3-7.9,0.8-11.9,1c-5.2,0.4-10.5,0.6-15.7,0.8c-1.5,0.1-2.9,0-4.4-0.1
		c-1.1,0-1.7,0.2-1.6,1.5c0.2,5.7,0.3,11.3,0.5,17c0.2,0.6,0.6,1.1,1.1,1.3c3.7,1.3,4.5,3.7,2.5,6.9c-0.3,0.6-0.3,1.3-0.1,1.9
		c1,2,0.8,3.4-1.1,4.7c-1,0.5-1.4,1.8-0.8,2.8c0,0,0,0,0,0c0.9,2.3,1.8,4.6,2.9,6.7c0.3,0.5,1.5,0.7,2.4,0.7c3-0.1,5.1,2.6,5.7,5.4
		c0.9,4-0.6,7-3.1,9.6c-3.6,3.6-6.9,7.6-11.6,10.1c-2.3,1.2-4.3,3.1-6.7,3.9c-4.3,1.4-8.7,2.8-13.5,2.1c-3.2-0.5-6.3-0.7-9.1-2.5
		c-0.7-0.4-1.4-1-1.9-1.7c-1.4-2.1-1.6-4.8-0.3-7c0.4-0.7,0.5-1.5,0.3-2.2c-0.9-2.8,0.3-4.8,2.2-6.7c1.2-1.2,2.3-2.5,3.5-3.7
		c1.2-1.3,2.8-2,4.5-2.1c1.2-0.1,2.4-1.3,3.6-2C3734.7,2464,3736.5,2462.8,3738.7,2461.5z M3811.2,2332.7c1.7-2.1,3-3.6,4.3-5.2
		c2.8-3.4,5.8-6.7,8.5-10.2c1.8-2.4,3.2-5.1,4.9-7.5c2.8-3.9,5-8.3,6.4-12.9c0.5-1.2,0.8-2.4,0.9-3.6c0-3.8-0.4-7.5-0.4-11.3
		c-0.1-10.8-0.4-21.6-0.2-32.5c0.2-9.3-0.8-18.3-4.4-26.9c-1.8-4.3-4.5-8.3-6.3-12.6c-2.8-6.5-8-10.7-13.4-14.8
		c-1.3-1-2.7-1.7-4-2.6c-7-5.3-15-7.1-23.6-6.6c-4.1,0.3-8.1,0.9-12,1.8c-5,1.1-10,2.4-14.9,4.1c-5.3,2-10.2,4.9-14.6,8.6
		c-4.9,3.8-8.6,9-10.4,14.9c-2.7,8.5-2.7,17.3-3.7,26c-0.7,6.2-1.2,12.4-1.7,18.6c-0.4,5.8-0.6,11.7-1.1,17.5
		c-0.2,2.9-0.7,5.8-1.1,8.7c-0.4,3.4-1.5,6.7,0.1,10.1c3,6.3,6.8,12.2,11.4,17.5c4.3,5.1,9.3,9.7,14,14.5c1.6,1.6,5.1,2.3,6.7,0.8
		c1.8-1.6,3.6-1.2,5.5-1c0.5,0.1,1,0.2,1.5,0.2c2.7,0.1,5.5,0.4,8.2,0.2c3-0.2,6.2,1,9.1-0.9c0.6-0.2,1.3-0.1,1.8,0.3
		c0.7,1.2,1.7,1.1,2.8,1.1c1.7,0,3.4,0.4,4.9-0.7c0.4-0.3,1.2,0,1.8,0.1c0.9,0.1,1.8,0.3,2.6,0.4c3.9,0.1,7.9,0.2,11.8,0.4
		C3808.8,2329.4,3810.9,2329.4,3811.2,2332.7L3811.2,2332.7z M3721.5,2302.3c-0.5,2.7-1,4.9-1.4,7.2c-1,5.6-2.1,11.1-3,16.7
		c-0.5,3.3-0.5,6.7-1,10c-0.6,4.2-1.5,8.3-2,12.4c-0.6,5-1.2,10-1.4,15c-0.2,5.5-0.4,11.2,0.4,16.6c1.3,7.7,1.4,15.6,0.4,23.4
		c-0.4,1.8,0.5,3.7,2.2,4.4c1.7,0.8,3.4,1.4,5.3,1.6c6,0.7,12.1,1.1,18.1,1.7c3.6,0.4,7.5,0.3,10.4,2.6c2.1,1.7,4.8,2.6,7.5,2.4
		c5.2-0.2,10.5,0.1,15.6-0.8c7.5-1.4,15.2-1.4,22.8-0.1c3.6,0.5,7.2,1.2,10.7,2.2c6.5,1.9,13.5,1.1,19.4-2.3
		c6-3.3,12.6-4.3,19.3-4.8c2.6-0.3,5.2-1,7.6-2c0.8-0.3,1.3-2,1.4-3.2c0.2-1.1-0.4-2.3-0.5-3.5c0-3.9,0.2-7.8,0-11.6
		c-0.3-5.4-1-10.8-1.3-16.2c-0.8-14.5-3-28.9-6.6-43c-2-7.8-4.3-15.5-6.5-23.2c-0.2-0.7-0.5-1.4-0.9-2.4c-2.6,4.5-5.2,8.6-7.4,12.8
		c-4.2,7.9-9.8,15-16.5,20.9c-1.6,1.1-2.4,3.1-2,5c0.6,4,0.6,8.2-1.1,12c-1.5,3.2-3.3,6.3-4.8,9.5c-0.6,1.5-2.2,2.3-3.7,2
		c-2.6-0.1-5.3-0.6-7.9-0.9c-3-0.3-6.1-0.7-9.1-0.7c-6.1-0.1-12.2-0.1-18.3,0c-1.2,0-2.4,0.2-3.5,0.7c-3,1.3-5.9,2.9-9.4,1.9
		c-2.2-0.6-3.8-2-3.9-4.3c-0.2-3-0.4-6-0.5-8.9c-0.3-5.5-0.6-11-0.9-16.5c0-0.9-0.3-1.8-0.8-2.5c-1.4-1.6-3.1-3-4.6-4.5
		c-3-3-5.9-6.1-8.6-9.4c-2.9-3.8-5.4-8-8-12C3725.2,2307.9,3723.5,2305.3,3721.5,2302.3L3721.5,2302.3z M3765.4,2364
		c2.4,0.1,4.7,0.3,7,0.3c4.9,0,9.9-0.2,14.8,0c4.6,0.2,9.2,0.7,13.9,1c2.1,0.1,2.6-0.4,2.5-2.5c0-1.1-0.2-2.3-0.2-3.4
		c0.1-7,0.2-14.1,0.4-21.1c0-1.6-0.6-2-2.1-2.1c-4.4-0.1-9,0-13.3-0.7c-7-1.2-14-1.2-21.1-1.3c-1.7,0-2.4,0.5-2.4,2.2
		c0.1,7.8,0.2,15.5,0.3,23.3C3765.2,2361,3765.3,2362.4,3765.4,2364L3765.4,2364z M3802.4,2475c3-1.6,5.6-0.9,8,1.3
		c0.4,0.4,0.9,0.7,1.5,0.9c0.4,0.2,0.9,0.2,1.3,0c3.7-2.6,8.1-2.3,12.2-3.2c-1.2-1.3-2.4-2.7-3.5-4.2c-2.2-3.3-5.8-5.9-5.6-10.5
		c-0.1-0.3-0.2-0.6-0.4-0.9c-1.1-2.3-1-3,0.9-4.8c0.4-0.5,0.6-1,0.8-1.6c-0.7-0.3-1.5-1-2.2-1c-1.7,0.2-3.4,0.5-5,0.8
		c0.3-0.8,0.3-1.5,0.6-1.7c1.9-1.1,3.9-1.9,5.7-3.1c1-0.8,1.7-1.8,2.2-2.9c0.2-0.5-0.2-1.3-0.4-2c-0.9,3.6-0.9,3.7-4.4,3.7
		c-2.1,0-4.2-0.2-6.5-0.4c1.2,1.6,0.3,2.6-0.8,3.5c-0.4,0.3-0.8,0.7-1.1,1.1c-0.8,0.9-0.8,1.5,0.3,2.3c1.6,1,3,2.2,5,1.9
		c0.3,0,0.7,0.3,1,0.5l0.1,0.7l-8.6,2.1c1,1.5,2.1,2.4,2.4,3.5c0.9,2.7,0.1,5.8-2.1,7.6C3802.1,2470.4,3801.1,2472.4,3802.4,2475
		L3802.4,2475z M3751.2,2474.7c0.5-0.3,0.7-0.4,0.8-0.5c2.3-3.5,4.6-7,2.5-11.4c-0.1-0.2-0.1-0.4-0.2-0.5c-0.3-4-2.4-7.7-5.6-10.1
		l5.5-2.8c-2.3-2.4-2.3-4.4-0.2-6.3c0.4-0.5,0.5-1.1,0.2-1.7c-0.2-0.4-1.1-0.4-1.8-0.7c0.4,2.8-0.4,4.1-2.9,4.3
		c-3.7,0.2-7.6,1-10.4-2.5c0-0.1-0.2,0-0.5,0c-0.1,0.3-0.1,0.6-0.1,0.9c0.3,1.6,1.7,2.4,3.6,2.4c1.6,0,3.5-0.6,5,1.6
		c-1.6,0.1-3.2,0.3-4.8,0.7c-1,0.4-1.8,1.2-2.3,2.2c-0.1,0.8,0.1,1.7,0.7,2.3c1.6,1.7,1.9,3.1,0.6,5c-0.4,0.7-1.1,1.6-0.9,2.2
		c0.8,2.7-1.1,3.7-2.8,4.9c-1.6,1.1-3.2,2.2-4.8,3.4l4.4,4.8c1.6-3,3.9-4.9,7.7-4.7C3749.2,2468.2,3750.5,2471.1,3751.2,2474.7
		L3751.2,2474.7z M3743,2414.4c0,0.9,0,1.8,0,2.8c0.1,7.3,0.4,14.6,0.4,21.9c0,3.3-0.1,3.3,3.2,3.7c0.2,0,0.5,0.1,0.7,0.2
		c2,0.3,2.7-0.3,2.7-2.3c-0.2-7.2-0.4-14.4-0.7-21.5C3749.1,2415.5,3746.8,2413.8,3743,2414.4L3743,2414.4z M3815.1,2443.5
		c0.3-6.4,0.6-12.7,0.9-19c0.2-3.3,0.2-3.3-3-3.4c-1.3-0.1-2.6-0.3-3.9-0.5v22.9H3815.1z M3806.1,2342.2v18.5c0.5-0.6,1-1.2,1.5-1.8
		c0.8-1.5,1.6-2.9,2.3-4.5c0.2-0.5,0.3-1.1,0.3-1.6c0-1.6-0.2-3.2-0.2-4.7c-0.1-1.8-0.2-3.6-0.2-5.2L3806.1,2342.2z M3796.7,2482.2
		l-0.6,0.2c0,0.7,0.2,1.4,0.4,2c1,1.5,2.2,2.9,3.4,4.3c3.7,3.8,8.7,5.4,13.5,7.1c2.8,1.1,5.9,1.3,8.8,0.4c1.2-0.5,2.5-0.7,3.7-0.7
		c2.3,0.1,3.1-1.7,4.3-3.1c-6.1,3.5-12.2,3.2-18.6,1.2C3805.4,2491.8,3800.1,2487.7,3796.7,2482.2L3796.7,2482.2z M3721.2,2477.6
		l0,0.6c0.3,0.2,0.7,0.4,1.1,0.6c1.7,0.5,3.5,0.9,5.2,1.5c2.8,0.9,4.8,0,5.7-2.8c0.1-0.2,0.3-0.5,0.2-0.7c-0.2-0.8-0.2-1.8-0.7-2.3
		c-0.4-0.4-1.5-0.2-2.2-0.1c-0.5,0.1-1,0.2-1.4,0.4C3726.5,2475.7,3723.9,2476.7,3721.2,2477.6L3721.2,2477.6z M3789,2333
		c0.4,0.2,0.9,0.3,1.4,0.4c4.1,0.2,8.1,0.3,12.2,0.5c2,0.1,2.8-1.5,4.4-2.8c-1-0.1-1.6-0.2-2.1-0.2c-4.2-0.1-8.4-0.3-12.6-0.3
		C3790.7,2330.6,3789.7,2331.5,3789,2333L3789,2333z M3821.6,2480.1c-1,0.2-2,0.5-3,0.9c-0.6,0.4-1,1-1.1,1.7
		c0.1,1.6,1.5,2.9,3.2,2.8c0.3,0,0.6-0.1,0.8-0.2c0.9-0.3,1.9-0.4,2.8-0.7c1.2-0.4,2.5-1,3.6-1.6c0.9-0.5,0.8-1.4-0.2-1.6
		C3825.7,2480.9,3823.7,2480.5,3821.6,2480.1L3821.6,2480.1z M3762.6,2471c-4,3.7-7.2,8.1-11.7,11.4c-4.5,3.2-8.9,6.4-14.4,7.4
		c0.6,0.2,1.2,0.3,1.9,0.2c6.3-1.5,11.4-5,16.1-9.3c1-0.9,2-1.9,3-2.8C3759.7,2476.1,3761.5,2473.7,3762.6,2471L3762.6,2471z
		 M3802.3,2484.1c0.7,0.3,1.6,0.9,1.8,0.7c1.1-1,2.3-0.3,3.4-0.5c1-0.4,1.8-0.9,2.6-1.5c-0.5-0.8-1-1.6-1.7-2.2
		c-1.6-1-3.3-0.4-4.4,1.2C3803.5,2482.5,3803.1,2483.1,3802.3,2484.1L3802.3,2484.1z M3739.8,2479c2.3,0.8,4.9,0.7,7.1-0.3
		c0.7-0.3,1.2-1,1.3-1.8c-0.1-0.6-0.9-1.3-1.6-1.5c-1.5-0.6-3.3,0-4.1,1.5C3741.7,2477.6,3740.8,2478.4,3739.8,2479L3739.8,2479z
		 M3763.2,2330.3c1.6,2.3,12,2.7,14.7,0.8L3763.2,2330.3z M3752.2,2365c3.6,2.5,7.1,2.2,9.9-0.4c0.2-0.2,0.2-0.6,0.4-1
		c-0.4-0.1-0.8-0.2-1.2-0.2c-2.2,0.3-4.4,0.7-6.7,1.1C3753.9,2364.7,3753.3,2364.8,3752.2,2365L3752.2,2365z M3762.9,2337.3
		l-0.4-0.6c-3.8,1.8-7.6,0.7-11.8-0.4c3.5,3.2,7.2,2.4,10.8,2.3C3762,2338.5,3762.4,2337.7,3762.9,2337.3L3762.9,2337.3z
		 M3755.6,2332.6c1.9,0.8,4.2,0.7,4.8-0.1C3757.5,2331.4,3757.3,2331.4,3755.6,2332.6L3755.6,2332.6z M3808.9,2334.1
		c-1.7-0.4-2.8,1.1-2.3,3.1C3807.3,2336.2,3808,2335.2,3808.9,2334.1L3808.9,2334.1z"/>
	<path id="Path_815" fill="none" d="M3811.2,2332.7c-0.4-3.3-2.5-3.3-4.4-3.4c-3.9-0.2-7.9-0.2-11.8-0.4c-0.9,0-1.8-0.3-2.6-0.4
		c-0.6-0.1-1.4-0.3-1.8-0.1c-1.6,1.1-3.3,0.6-4.9,0.7c-1.1,0-2.1,0.2-2.8-1.1c-0.5-0.4-1.2-0.5-1.8-0.3c-2.9,1.9-6.1,0.7-9.1,0.9
		c-2.7,0.1-5.4-0.1-8.2-0.2c-0.5,0-1-0.1-1.5-0.2c-1.9-0.2-3.7-0.7-5.5,1c-1.5,1.4-5.1,0.8-6.7-0.8c-4.7-4.8-9.7-9.4-14-14.5
		c-4.6-5.3-8.4-11.2-11.4-17.5c-1.6-3.4-0.5-6.7-0.1-10.1c0.4-2.9,0.9-5.8,1.1-8.7c0.4-5.8,0.6-11.7,1.1-17.5
		c0.5-6.2,0.9-12.4,1.7-18.6c1-8.7,1-17.6,3.7-26c1.9-5.9,5.5-11.1,10.4-14.9c4.4-3.6,9.3-6.5,14.6-8.6c4.9-1.7,9.8-3,14.9-4.1
		c4-0.9,8-1.5,12-1.8c8.6-0.5,16.6,1.3,23.6,6.6c1.3,0.9,2.7,1.7,4,2.6c5.3,4.1,10.5,8.4,13.4,14.8c1.9,4.3,4.6,8.3,6.3,12.6
		c3.6,8.6,4.6,17.6,4.4,26.9c-0.2,10.8,0.1,21.6,0.2,32.5c0,3.8,0.4,7.5,0.4,11.3c-0.1,1.3-0.5,2.5-0.9,3.6c-1.4,4.6-3.6,9-6.4,12.9
		c-1.7,2.4-3.1,5.1-4.9,7.5c-2.7,3.5-5.7,6.8-8.5,10.2C3814.3,2329.1,3813,2330.6,3811.2,2332.7z M3759.4,2254.7
		c-2.2,0.4-4.6,0.5-5.9,2.6c-1.3,2.1-0.7,4.4,0.4,6.5c1.5,3.1,4.4,4.1,7.5,4.5c2.5,0.5,5-0.1,7-1.7c3.5-3.1,1.6-7.6-1.2-10.1
		C3764.9,2254.4,3762,2255.5,3759.4,2254.7L3759.4,2254.7z M3795.5,2267.1c5.5-0.2,8-1.4,10.1-4.5c1.3-2,1.1-4.7-0.6-6.4
		c-3.9-3.8-11.8-3.2-14.2,0.5c-1.5,2.3-2.3,4.7-1.2,7.1C3790.6,2266.1,3793,2267.5,3795.5,2267.1z"/>
	<path id="Path_816" fill="none" d="M3721.5,2302.3c2,3,3.6,5.6,5.3,8.1c2.7,4,5.1,8.2,8,12c2.7,3.3,5.6,6.4,8.6,9.4
		c1.5,1.6,3.2,2.9,4.6,4.5c0.5,0.7,0.8,1.6,0.8,2.5c0.4,5.5,0.6,11,0.9,16.5c0.2,3,0.3,6,0.5,8.9c0.2,2.2,1.8,3.6,4,4.3
		c3.5,1,6.4-0.5,9.4-1.9c1.1-0.5,2.3-0.7,3.5-0.7c6.1-0.1,12.2-0.1,18.3,0c3,0.1,6.1,0.4,9.1,0.7c2.6,0.3,5.3,0.8,7.9,0.9
		c1.6,0.3,3.1-0.6,3.7-2c1.5-3.2,3.3-6.3,4.8-9.5c1.8-3.8,1.7-8,1.1-12c-0.4-1.9,0.4-3.9,2-5c6.7-5.9,12.3-13,16.5-20.9
		c2.3-4.2,4.8-8.3,7.4-12.8c0.4,1,0.7,1.7,0.9,2.4c2.2,7.7,4.5,15.4,6.5,23.2c3.6,14.1,5.8,28.5,6.6,43c0.3,5.4,1,10.8,1.3,16.2
		c0.2,3.9-0.1,7.8,0,11.6c0,1.2,0.6,2.4,0.5,3.5c-0.2,1.1-0.6,2.9-1.4,3.2c-2.4,1.1-5,1.8-7.6,2c-6.8,0.5-13.3,1.5-19.3,4.8
		c-5.9,3.4-12.9,4.2-19.4,2.3c-3.5-0.9-7.1-1.6-10.7-2.2c-7.5-1.3-15.3-1.3-22.8,0.1c-5.1,0.9-10.4,0.5-15.6,0.8
		c-2.7,0.2-5.4-0.7-7.5-2.4c-3-2.3-6.8-2.3-10.4-2.6c-6-0.6-12.1-1-18.1-1.7c-1.8-0.2-3.6-0.8-5.3-1.6c-1.7-0.8-2.6-2.6-2.2-4.4
		c1-7.8,0.9-15.6-0.4-23.4c-0.9-5.4-0.6-11-0.4-16.6c0.1-5,0.7-10,1.4-15c0.5-4.2,1.5-8.3,2-12.4c0.5-3.3,0.5-6.7,1-10
		c0.9-5.6,2-11.2,3-16.7C3720.5,2307.2,3721,2305,3721.5,2302.3z"/>
	<path id="Path_817" fill="none" d="M3765.4,2364c-0.1-1.6-0.2-3-0.3-4.5c-0.1-7.8-0.2-15.5-0.3-23.3c0-1.8,0.7-2.3,2.4-2.2
		c7.1,0.1,14.1,0.2,21.1,1.3c4.4,0.7,8.9,0.6,13.3,0.7c1.5,0,2.2,0.5,2.1,2.1c-0.2,7-0.3,14.1-0.4,21.1c0,1.1,0.2,2.3,0.2,3.4
		c0.1,2.1-0.4,2.7-2.5,2.5c-4.6-0.3-9.2-0.8-13.9-1c-4.9-0.2-9.9,0-14.8,0C3770.1,2364.3,3767.9,2364.1,3765.4,2364z M3782.3,2359.6
		c4.3-0.3,8.1-2.7,10.1-6.5c1.9-3.3,3-6.7,0.9-10.7c-1.2-2.2-2.5-3.8-5-4c-1.6-0.2-3.4,0.3-4.9-0.3c-2.1-0.7-4.3-0.5-6.2,0.6
		c-4,1.9-8.1,7.9-5.7,13.7C3773.7,2357.8,3776.2,2359.8,3782.3,2359.6L3782.3,2359.6z M3793.7,2337.4c0.1,1.2,0.2,1.8,0.2,2.4
		c-0.1,3.3,1.1,4.7,4.4,4.9c3.7,0.3,3.7,0.3,4.7-3.3c0.8-3.1,0.1-4-3.1-4.2c-1,0-2,0.1-3,0.1
		C3795.7,2337.4,3794.8,2337.4,3793.7,2337.4z"/>
	<path id="Path_818" fill="none" d="M3802.3,2475c-1.2-2.6-0.3-4.6,1.4-6.1c2.2-1.9,3-4.9,2.1-7.6c-0.3-1.1-1.3-2-2.4-3.5l8.6-2.1
		l-0.1-0.7c-0.3-0.2-0.7-0.6-1-0.5c-2.1,0.3-3.5-0.9-5-1.9c-1.1-0.8-1.1-1.4-0.3-2.3c0.3-0.4,0.7-0.7,1.1-1.1c1.1-0.9,2-1.9,0.8-3.5
		c2.3,0.1,4.4,0.4,6.5,0.4c3.5,0,3.5-0.1,4.4-3.7c0.1,0.7,0.6,1.5,0.4,2c-0.5,1.1-1.2,2.1-2.2,2.9c-1.8,1.2-3.8,2-5.7,3.1
		c-0.3,0.2-0.3,0.8-0.6,1.7c1.7-0.4,3.3-0.7,5-0.8c0.7,0,1.4,0.6,2.2,1c-0.2,0.6-0.5,1.1-0.8,1.6c-1.8,1.7-2,2.5-0.9,4.8
		c0.2,0.3,0.3,0.6,0.4,0.9c-0.2,4.6,3.4,7.2,5.6,10.5c1.1,1.5,2.2,2.9,3.5,4.2c-4.1,0.9-8.5,0.6-12.2,3.2c-0.4,0.2-0.9,0.2-1.3,0
		c-0.5-0.2-1-0.5-1.5-0.9C3808,2474.1,3805.4,2473.3,3802.3,2475z"/>
	<path id="Path_819" fill="none" d="M3751.2,2474.7c-0.8-3.6-2-6.5-6.2-6.7c-3.7-0.2-6,1.8-7.7,4.7c-1.5-1.6-2.9-3.1-4.4-4.8
		c1.6-1.1,3.2-2.3,4.8-3.4c1.7-1.2,3.6-2.2,2.8-4.9c-0.2-0.6,0.5-1.5,0.9-2.2c1.2-2,1-3.4-0.6-5c-0.6-0.6-0.8-1.5-0.7-2.3
		c0.5-1,1.3-1.7,2.3-2.2c1.6-0.4,3.2-0.6,4.8-0.7c-1.5-2.2-3.4-1.6-5-1.6c-1.9,0-3.3-0.9-3.6-2.4c0-0.3,0-0.6,0.1-0.9
		c0.2,0,0.4-0.1,0.5,0c2.8,3.5,6.8,2.7,10.4,2.5c2.5-0.1,3.3-1.5,2.9-4.3c0.7,0.2,1.6,0.3,1.8,0.7c0.2,0.6,0.1,1.2-0.2,1.7
		c-2.1,1.9-2.1,3.9,0.2,6.3l-5.5,2.8c3.2,2.4,5.2,6.1,5.6,10.1c0,0.2,0.1,0.4,0.2,0.5c2.1,4.4-0.2,7.9-2.5,11.4
		C3751.9,2474.4,3751.7,2474.4,3751.2,2474.7z"/>
	<path id="Path_820" fill="none" d="M3742.9,2414.4c3.8-0.6,6.2,1.1,6.3,4.7c0.3,7.2,0.5,14.4,0.7,21.5c0.1,2-0.7,2.6-2.7,2.3
		c-0.2,0-0.5-0.1-0.7-0.2c-3.4-0.4-3.2-0.4-3.2-3.7c0-7.3-0.3-14.6-0.4-21.9C3742.9,2416.2,3742.9,2415.3,3742.9,2414.4z"/>
	<path id="Path_821" fill="none" d="M3815,2443.5h-6v-22.9c1.3,0.2,2.6,0.4,3.9,0.5c3.2,0.1,3.2,0.1,3,3.4
		C3815.6,2430.8,3815.3,2437.1,3815,2443.5z"/>
	<path id="Path_822" fill="none" d="M3806.1,2342.2l3.5,0.7c0.1,1.5,0.1,3.3,0.2,5.2c0.1,1.6,0.2,3.1,0.2,4.7c0,0.6-0.1,1.1-0.3,1.6
		c-0.7,1.5-1.5,3-2.3,4.5c-0.4,0.6-0.9,1.2-1.5,1.8L3806.1,2342.2z"/>
	<path id="Path_823" fill="none" d="M3796.7,2482.2c3.4,5.5,8.7,9.6,14.9,11.4c6.4,2,12.5,2.3,18.6-1.2c-1.3,1.4-2.1,3.1-4.3,3.1
		c-1.3,0-2.5,0.2-3.7,0.7c-2.9,0.9-6,0.8-8.8-0.4c-4.8-1.7-9.8-3.3-13.5-7.1c-1.2-1.3-2.4-2.8-3.4-4.3c-0.3-0.6-0.4-1.3-0.4-2
		L3796.7,2482.2z"/>
	<path id="Path_824" fill="none" d="M3721.2,2477.6c2.7-1,5.3-1.9,8-2.9c0.5-0.2,0.9-0.3,1.4-0.4c0.8-0.1,1.8-0.3,2.2,0.1
		c0.5,0.5,0.5,1.5,0.7,2.3c0,0.2-0.2,0.5-0.2,0.7c-0.9,2.8-2.9,3.7-5.7,2.8c-1.7-0.6-3.5-1-5.2-1.5c-0.4-0.2-0.8-0.4-1.1-0.6
		L3721.2,2477.6z"/>
	<path id="Path_825" fill="none" d="M3789,2333c0.7-1.5,1.7-2.4,3.2-2.4c4.2,0.1,8.4,0.2,12.6,0.3c0.5,0,1.1,0.1,2.1,0.2
		c-1.6,1.4-2.3,2.9-4.4,2.8c-4.1-0.2-8.1-0.3-12.2-0.5C3789.9,2333.3,3789.4,2333.2,3789,2333z"/>
	<path id="Path_826" fill="none" d="M3821.6,2480.1c2.1,0.4,4.1,0.8,6,1.3c1,0.3,1.1,1.1,0.2,1.6c-1.2,0.7-2.4,1.2-3.6,1.6
		c-0.9,0.3-1.9,0.4-2.8,0.7c-1.5,0.6-3.3-0.2-3.8-1.8c-0.1-0.3-0.2-0.5-0.2-0.8c0.1-0.7,0.5-1.4,1.1-1.7
		C3819.6,2480.6,3820.6,2480.3,3821.6,2480.1z"/>
	<path id="Path_827" fill="none" d="M3762.6,2471c-1.1,2.7-2.8,5.1-5.1,6.9c-1,0.9-2,1.9-3,2.8c-4.7,4.3-9.9,7.7-16.1,9.3
		c-0.6,0.1-1.3,0-1.9-0.2c5.6-1.1,10-4.2,14.4-7.4C3755.4,2479.2,3758.6,2474.7,3762.6,2471z"/>
	<path id="Path_828" fill="none" d="M3802.3,2484.1c0.7-1,1.2-1.6,1.6-2.3c1.1-1.6,2.8-2.2,4.4-1.2c0.7,0.6,1.3,1.4,1.7,2.2
		c-0.8,0.7-1.7,1.2-2.6,1.5c-1.1,0.2-2.3-0.5-3.4,0.5C3803.9,2485,3803,2484.4,3802.3,2484.1z"/>
	<path id="Path_829" fill="none" d="M3739.8,2479c1-0.6,1.9-1.3,2.7-2.2c0.8-1.4,2.6-2,4.1-1.5c0.7,0.2,1.6,1,1.6,1.5
		c-0.1,0.8-0.6,1.4-1.3,1.8C3744.7,2479.7,3742.1,2479.8,3739.8,2479z"/>
	<path id="Path_830" fill="none" d="M3763.2,2330.3l14.7,0.8C3775.2,2333,3764.8,2332.5,3763.2,2330.3z"/>
	<path id="Path_831" fill="none" d="M3752.2,2365c1-0.2,1.7-0.3,2.4-0.4c2.2-0.4,4.4-0.8,6.7-1.1c0.4,0,0.8,0.1,1.2,0.2
		c-0.1,0.3-0.1,0.8-0.4,1C3759.4,2367.3,3755.8,2367.5,3752.2,2365z"/>
	<path id="Path_832" fill="none" d="M3762.9,2337.2c-0.4,0.4-0.9,1.3-1.3,1.3c-3.6,0.2-7.3,1-10.8-2.3c4.2,1.1,8,2.2,11.8,0.4
		L3762.9,2337.2z"/>
	<path id="Path_833" fill="none" d="M3755.6,2332.6c1.7-1.2,1.9-1.2,4.8-0.1C3759.8,2333.4,3757.4,2333.4,3755.6,2332.6z"/>
	<path id="Path_834" fill="none" d="M3808.8,2334.1c-0.8,1.1-1.6,2.1-2.3,3.1C3806.1,2335.1,3807.2,2333.6,3808.8,2334.1z"/>
	<path id="Path_835" fill="#F7AEA8" d="M3759.4,2254.7c2.6,0.8,5.5-0.2,7.8,1.8c2.8,2.5,4.7,7,1.2,10.1c-2,1.6-4.5,2.2-7,1.7
		c-3.1-0.4-5.9-1.4-7.5-4.5c-1.1-2.2-1.7-4.4-0.4-6.5C3754.7,2255.1,3757.2,2255,3759.4,2254.7z"/>
	<path id="Path_836" fill="#F7AEA8" d="M3795.5,2267.1c-2.5,0.3-4.9-1.1-5.9-3.4c-1.1-2.5-0.3-4.8,1.2-7.1
		c2.4-3.7,10.3-4.3,14.2-0.5c1.7,1.7,1.9,4.4,0.6,6.4C3803.6,2265.7,3801.1,2266.9,3795.5,2267.1z"/>
	<path id="Path_837" fill="#F7AEA8" d="M3782.3,2359.6c-6.1,0.2-8.6-1.8-10.8-7.1c-2.4-5.8,1.7-11.8,5.7-13.7
		c1.9-1.1,4.2-1.3,6.2-0.6c1.4,0.6,3.3,0.1,4.9,0.3c2.5,0.3,3.8,1.8,5,4c2.1,3.9,1,7.3-0.9,10.7
		C3790.4,2356.9,3786.6,2359.4,3782.3,2359.6z M3787.3,2345.7l1.6,4.8l0.6-0.1c0-0.8-0.2-1.6-0.5-2.4
		C3788.5,2347.2,3787.9,2346.4,3787.3,2345.7c-1.7-2.5-3.7-3.9-5.4-2.5c1.5,0.7,3.2,1.6,4.9,2.4
		C3786.9,2345.7,3787.1,2345.7,3787.3,2345.7L3787.3,2345.7z M3792.1,2347.6c0.3-3.5-1-6.2-3.3-6.8c-2.5-0.7-5.1-1-7.7-1.1
		c-1.3,0-2.6,0.9-3.9,1.3l0.1,0.5C3784.1,2339.1,3789.2,2340.5,3792.1,2347.6L3792.1,2347.6z"/>
	<path id="Path_838" fill="#F7AEA8" d="M3793.7,2337.4c1.1,0,2.1,0,3.1,0c1,0,2-0.1,3-0.1c3.2,0.1,4,1.1,3.1,4.2
		c-1,3.6-1,3.6-4.7,3.3c-3.2-0.3-4.4-1.6-4.4-4.9C3793.8,2339.2,3793.8,2338.5,3793.7,2337.4z M3796.7,2340.2c0.2,1.9,1.5,1.8,2.5,2
		c0.3,0,1-0.4,1-0.7c0-0.5-0.3-0.9-0.7-1.1C3798.6,2340.3,3797.7,2340.2,3796.7,2340.2z"/>
	<path id="Path_839" fill="none" d="M3792.1,2347.6c-2.9-7.1-8-8.5-14.7-6l-0.1-0.5c1.3-0.5,2.6-1.4,3.9-1.3
		c2.6,0.1,5.2,0.5,7.7,1.1C3791.1,2341.4,3792.4,2344.1,3792.1,2347.6z"/>
	<path id="Path_840" fill="none" d="M3787.3,2345.7c-0.2,0-0.4,0-0.6-0.1c-1.7-0.8-3.4-1.6-4.9-2.4
		C3783.6,2341.8,3785.6,2343.2,3787.3,2345.7L3787.3,2345.7z"/>
	<path id="Path_841" fill="none" d="M3787.3,2345.7c0.7,0.7,1.2,1.4,1.7,2.2c0.3,0.8,0.4,1.6,0.5,2.4l-0.6,0.1
		C3788.3,2348.9,3787.8,2347.3,3787.3,2345.7L3787.3,2345.7z"/>
	<path id="Path_842" fill="none" d="M3796.7,2340.2c0.9,0,1.8,0,2.7,0.2c0.4,0.2,0.7,0.6,0.7,1.1c0,0.3-0.7,0.8-1,0.7
		C3798.2,2342,3796.9,2342.2,3796.7,2340.2z"/>
</g>
</svg>
