<svg baseProfile="basic" xmlns="http://www.w3.org/2000/svg" width="160.912" height="16.407" viewBox="0 0 160.912 16.407">
  <path d="M25.253 5.512A1889.02 1889.02 0 0022.93.004h-3.161a2.208 2.208 0 00-.168.28c-2.177 5.182-4.351 10.365-6.524 15.55-.145.345-.081.442.289.443.921 0 1.844-.008 2.765.007a.424.424 0 00.46-.317c.388-.99.8-1.972 1.18-2.963a.47.47 0 01.505-.357c2.009.011 4.017.011 6.025 0a.451.451 0 01.491.33c.388 1 .8 1.992 1.192 2.992a.42.42 0 00.462.314c.911-.014 1.822-.005 2.733-.005.526 0 .567-.063.363-.55a7396.794 7396.794 0 01-4.289-10.216zm-2.357 4.01h-3.223c-.389 0-.463-.106-.323-.455a872.513 872.513 0 011.673-4.139c.044-.106.162-.183.246-.273.094.091.23.165.276.276a476.892 476.892 0 011.676 4.137c.132.35.061.451-.33.454h.005zM15.365.132c-.944 0-1.888.014-2.831-.009a.522.522 0 00-.591.413 1335.923 1335.923 0 01-3.042 8.337c-.241.658-.477 1.319-.73 1.973a.377.377 0 01-.249.207c-.063.01-.159-.115-.223-.193a.597.597 0 01-.072-.182C6.38 7.273 5.135 3.867 3.891.46a.427.427 0 00-.476-.334c-1 .015-2 0-3 .012A1.507 1.507 0 000 .268v.2c.371.911.75 1.819 1.113 2.733 1.691 4.267 3.381 8.533 5.069 12.8.055.141.137.271.207.406h3.03c.043-.1.088-.2.127-.3 2.044-5.165 4.088-10.331 6.131-15.5.156-.375.088-.474-.312-.475zM160.738 15.631a11341.96 11341.96 0 01-4.512-9.9c-.873-1.911-1.748-3.822-2.627-5.731h-1.053a4.213 4.213 0 00-.252.418c-2.299 5.035-4.596 10.07-6.893 15.106-.316.691-.314.765.484.758a.526.526 0 00.568-.365c.552-1.277 1.136-2.541 1.694-3.816a.512.512 0 01.549-.351c2.886.009 5.773.009 8.66 0a.493.493 0 01.522.341 257.43 257.43 0 001.664 3.722c.076.167.212.428.33.433.343.015.722.162 1.04-.109v-.2c-.06-.097-.124-.198-.174-.306zm-4.1-4.952h-7.241c-.468 0-.542-.106-.355-.52a4264.28 4264.28 0 013.689-8.178c.078-.121.174-.231.284-.324.119.096.223.211.307.339a2049.49 2049.49 0 013.658 8.156c.192.424.125.526-.342.527zM57.72.131h-2.535c-.481 0-.5.014-.5.5v8.461c.007.11.003.22-.01.329a.212.212 0 01-.367.132 1.37 1.37 0 01-.186-.229 7111.328 7111.328 0 01-6.673-8.9.65.65 0 00-.6-.3c-.812.017-1.624.017-2.435 0-.308-.006-.426.084-.425.408.008 5.114.008 10.228 0 15.341 0 .327.12.413.426.407.856-.015 1.712 0 2.568-.005.446 0 .453-.007.453-.468v-8.79c0-.194-.09-.482.183-.524.125-.019.321.18.428.323a2714.92 2714.92 0 016.9 9.184.622.622 0 00.576.281c.691-.015 1.382-.005 2.074-.005.553 0 .553 0 .553-.539V8.198.561c.003-.401-.026-.429-.43-.43zM86.011 10.894c-.2-.3-.18-.4.114-.536a5.01 5.01 0 003.037-5.176A4.729 4.729 0 0086.486.819a7.038 7.038 0 00-3.219-.687h-6.948c-.426 0-.438.013-.438.451v7.606c0 2.557 0 5.115-.005 7.672 0 .311.088.429.412.423.867-.018 1.734-.006 2.6-.006.483 0 .484 0 .485-.471v-4.248c0-.4.035-.439.427-.44.658 0 1.318.012 1.975-.007a.6.6 0 01.583.323c.987 1.516 2 3.02 2.981 4.536a.606.606 0 00.587.312c1.02-.015 2.041 0 3.062-.012.144-.018.286-.054.421-.107a1.772 1.772 0 00-.147-.437 971.037 971.037 0 00-3.251-4.833zM83.22 7.962c-1.171.046-2.345.01-3.519.015-.267 0-.332-.146-.331-.379.005-.646 0-1.293 0-1.94V3.684c0-.25.1-.361.352-.358 1.227.013 2.457-.012 3.682.04a2.147 2.147 0 012.165 1.718 2.282 2.282 0 01-2.349 2.878zM73.197 13.624c0-.485-.016-.5-.5-.5h-7.64c-.495 0-.508-.014-.509-.495v-2.4c0-.48.015-.5.506-.5h6.553c.419 0 .454-.035.454-.448V7.107c0-.533 0-.534-.527-.534h-6.487c-.467 0-.5-.035-.5-.51V3.824c0-.531.008-.539.529-.54h7.541c.431 0 .477-.044.478-.465V.613c0-.459-.023-.481-.486-.481H61.545c-.462 0-.478.017-.478.487V15.833c0 .282.045.451.392.45 3.787-.009 7.574-.009 11.361 0 .289 0 .388-.1.383-.385-.014-.758-.006-1.517-.006-2.274zM38.593.126a.5.5 0 00-.5.283c-.586 1-1.187 2-1.783 3l-1.617 2.712c-.227.38-.362.376-.593-.011l-.051-.085A3540.493 3540.493 0 0030.765.437c-.074-.125-.225-.289-.342-.29a135.341 135.341 0 00-3.49-.009c-.238 0-.3.149-.194.36.055.107.124.207.188.309 1.838 2.939 3.674 5.879 5.508 8.82.11.185.17.394.175.609.019.921.009 1.844.009 2.766 0 .955.008 1.91-.005 2.865 0 .315.107.424.425.418.878-.018 1.756-.005 2.635-.006.427 0 .446-.017.446-.445 0-1.833.007-3.666-.005-5.5a1.55 1.55 0 01.258-.891c1.837-2.901 3.668-5.805 5.492-8.714.073-.151.129-.308.168-.471a2.35 2.35 0 00-.51-.12c-.976-.013-1.953 0-2.93-.012zM107.005.369c-.02-.078-.08-.2-.13-.206a3.788 3.788 0 00-.884-.011c-.125.02-.242.2-.33.331a4670.392 4670.392 0 00-5.805 8.668c-.323.483-.4.481-.727-.012-1.9-2.835-3.8-5.665-5.682-8.512a.927.927 0 00-.95-.506c-.5.042-.512.016-.512.526V15.828c0 .421.029.447.446.449h.165c.525 0 .525 0 .526-.538V3.325a1.006 1.006 0 01.007-.295.412.412 0 01.17-.242c.057-.026.177.043.247.1a.841.841 0 01.154.211l5.428 8.01c.3.444.388.444.689 0l5.378-7.931c.046-.087.104-.169.17-.242.084-.07.232-.176.283-.147.094.076.16.182.188.3a.966.966 0 01.006.294v12.25c0 .642 0 .642.643.641.53 0 .534 0 .534-.531V.664a1.265 1.265 0 00-.014-.295zM130.625.15c-1.753-.069-3.511-.016-5.266-.018-.48 0-.482 0-.482.473v15.236c0 .415.016.432.422.433 1.646 0 3.292.019 4.937-.009a10.461 10.461 0 001.957-.2A8.034 8.034 0 00130.624.146l.001.004zm.738 14.935c-1.192.141-2.41.072-3.616.094-.428.008-.856-.012-1.284.005-.32.014-.415-.117-.414-.427.01-2.184.005-4.368.005-6.552V1.719c0-.472.016-.492.473-.49 1.415.005 2.833-.023 4.247.027a6.946 6.946 0 01.589 13.829zM120.865 15.185c-3.083-.008-6.167-.01-9.251-.006-.438 0-.466-.028-.466-.468V9.18c0-.478.016-.493.506-.493h8.2c.307 0 .461-.09.423-.413a2.225 2.225 0 010-.231c0-.454-.012-.465-.462-.465h-8.2c-.439 0-.465-.024-.465-.468V1.777c0-.552 0-.553.545-.553h9.087c.5 0 .527-.025.528-.511V.582c0-.426-.028-.454-.444-.454h-10.438c-.44 0-.454.014-.454.47v15.238c0 .409.025.432.425.433H121c.122 0 .344-.044.349-.09.047-.288.049-.582.006-.871-.012-.068-.318-.123-.49-.123zM141.937.131c-.52 0-.52 0-.52.533v14.912c0 .767-.068.7.716.7.449 0 .46-.012.46-.467V.797c-.001-.667-.001-.667-.656-.666z"/>
</svg>
