<svg baseProfile="basic" xmlns="http://www.w3.org/2000/svg" width="149.609" height="33.211" viewBox="0 0 149.609 33.211">
  <path d="M.9.657H0V.001h8.169v.656h-2.23L10.413 23.5 14.887.657h-2.642V.001h4.871v.656h-1.435l-6.352 32.28H7.252L.9.657zM16.717 22.079h4.947L19.19 9.345l-2.473 12.734zm-4.23 10.2h1.436L20.275 0h2.076l6.352 32.279h.855v.657h-8.124v-.657h2.229l-1.878-9.543h-5.193l-1.878 9.543h2.642v.657h-4.871l.002-.657zM30.01 32.28h1.092V.657H29.08V.001h7.107l7.321 19.9V.657h-2.153V.001h4.748v.656H44.34v32.371h-1.313L31.935 2.337V32.28h2.153v.657h-4.077l-.001-.657zM46.813 32.936v-.657h1.42V.657h-1.42V.001h7.97v.656h-1.466V32.28h1.466v.657l-7.97-.001zM59.776 32.936v-.657h1.512V.595h-.092c-2.153 0-4.367 2.291-4.78 12.277h-.672V0H71.96v12.872h-.672C70.83 2.886 68.433.595 66.509.595h-.138v31.684h1.557v.657h-8.152zM77.028 32.936v-.657h1.512V17.606L73.745.657h-1.023V.001h8.291v.656h-2.321l4.458 15.529L86.968.657h-2.412V.001h4.413v.656h-1.206l-4.138 16.888V32.28h1.512v.657l-8.109-.001zM93.629 32.936v-.657h1.329V.657h-1.329V0h14.43v9.849h-.672c-.413-6.963-2.672-9.192-6.245-9.192h-1.1v14.872h.489c2.763 0 3.649-1.222 3.924-5.68h.626v12.337h-.626c-.275-4.87-1.161-6-3.665-6h-.749v16.093h2.016v.657h-8.428zM109.6 22.079h4.947l-2.473-12.734-2.474 12.734zm-4.229 10.2h1.435L113.158 0h2.076l6.352 32.279h.855v.657h-8.124v-.657h2.229l-1.878-9.543h-5.191l-1.878 9.543h2.641v.657h-4.87l.001-.657zM122.923 32.936v-.657h1.329V.657h-1.329V.001h7.788v.656h-1.374V32.28h1.374v.657l-7.788-.001zM138.062.657v14.264h.688c2.474 0 4.26.107 4.26-5.94v-1.6c0-5.863-1.786-6.718-3.986-6.718l-.962-.006zm4.673 28.065V20.66c0-4.306-1.238-5.085-3.8-5.085h-.87v16.7h2.016v.657h-8.428v-.657h1.328V.657h-1.328V0h7.374c5.405 0 8.886 2.474 8.886 8.109 0 4.947-2.992 6.687-6.809 7.145v.046c4 .6 6.672 2.2 6.672 8.017v7.665c0 1.008.336 1.282.887 1.282.326-.014.646-.086.946-.214v.657a4.824 4.824 0 01-2.337.5c-2.842.004-4.537-1.004-4.537-4.486v.001z"/>
</svg>
