<svg baseProfile="basic" xmlns="http://www.w3.org/2000/svg" width="140.118" height="20.404" viewBox="0 0 140.118 20.404">
  <path d="M38.118 7.191a5.617 5.617 0 00-3.185 1.764c-.188.193-.363.4-.548.606-.07-.08-.115-.108-.116-.135-.01-.539 0-1.078-.029-1.615-.007-.156-.068-.388-.177-.446a.728.728 0 00-1.131.7c0 3.553.002 7.107.005 10.661 0 1.184 0 1.185 1.181 1.083a.907.907 0 00.217-.105v-.685c0-2.516 0-5.032.01-7.547-.021-.275.039-.55.172-.791a4.081 4.081 0 013.228-1.8c.977-.037.977-.026.97-1.033a.801.801 0 010-.12c.051-.46-.152-.604-.597-.537zm10.61 7.3c-.037-1.357.017-2.72-.085-4.071a3.266 3.266 0 00-2.426-3.024 7.143 7.143 0 00-1.465-.274 4.628 4.628 0 00-5.313 3.423l.734.165c.451.1.751.048.95-.484a2.5 2.5 0 012.085-1.685 6.78 6.78 0 012.136.093 2.271 2.271 0 011.978 2.408c.02.422-.076.642-.549.727a44.12 44.12 0 00-3.332.723 7.368 7.368 0 00-3.631 1.857 3.171 3.171 0 00.832 5.109c1.462.763 3.196.8 4.689.1.7-.311 1.347-.75 2.059-1.154.106.438.078 1.035.355 1.266s.87.131 1.437.185c-.674-1.847-.407-3.617-.455-5.363l.001-.001zm-1.428 2.31a.798.798 0 01-.3.484 5.592 5.592 0 01-4.76 1.234 1.953 1.953 0 01-1.715-1.547 2.066 2.066 0 01.814-2.225 8.905 8.905 0 013.575-1.443c.753-.174 1.519-.293 2.4-.46-.006 1.413.01 2.686-.015 3.958l.001-.001zm76.241-11.324c1.053.028 2.108.016 3.219.016V2.587c-1.107 0-2.162-.012-3.214.016a.506.506 0 00-.334.363 22.735 22.735 0 000 2.153c.04.168.164.304.328.359l.001-.001zM12.068 16.362c0-1.132-.032-2.144.02-3.151.033-.343.178-.666.411-.92.51-.549 1.091-1.032 1.681-1.577a8.091 8.091 0 00-.936-.839 2.624 2.624 0 01-1.208-2.7c.055-.634.182-.913.844-1.074a3.137 3.137 0 002.154-4.412 3.477 3.477 0 00-3.8-1.591c.185.045.376.057.564.085.753.111 1.206.593 1.15 1.214a1.158 1.158 0 01-1.26 1.046l-.04-.004a8.223 8.223 0 01-1.763-.28c-1.44-.4-2.847-.93-4.3-1.257a4.167 4.167 0 00-4.774 2 2.693 2.693 0 001.467 4.031 4.65 4.65 0 01-.186-1.407 1.574 1.574 0 011.924-1.118c.921.151 1.829.4 2.737.619 1.623.4 3.243.808 4.858 1.239a.592.592 0 01.336.424 9.012 9.012 0 010 1.675c-.042.32-.182.62-.4.858-.495.511-1.055.957-1.661 1.494.6.541 1.165 1.007 1.668 1.535.222.236.36.537.394.859.051.916 0 1.837.029 2.756.015.44-.136.71-.568.736a32.544 32.544 0 01-3.505.132 3.475 3.475 0 01-2.178-.937c1.035-.46 1.985-.9 2.955-1.3a.732.732 0 00.523-.8c-.021-2.237-.01-4.475-.013-6.712 0-.188-.024-.375-.045-.683L5.061 8.215l.568-.035v7.554a3.687 3.687 0 01-1.533-1.876 7.118 7.118 0 01-.2-4.742c.089-.186.228-.344.4-.458.207-.175.44-.319.662-.476l-.711.348a5.571 5.571 0 012.415-3.192c-.967.281-1.902.662-2.79 1.137-4.141 2.387-5.126 7.339-2.147 10.906a8.427 8.427 0 007.733 2.927 6.486 6.486 0 005.212-3.182 7.38 7.38 0 001.05-4.278 6.755 6.755 0 01-3.652 3.514zm15.817-5.55c-.11-.045-.217-.1-.435-.194.2-.11.315-.181.437-.239a3.648 3.648 0 002.384-3.94 3.9 3.9 0 00-3.041-3.57 7.343 7.343 0 00-1.768-.267c-2.016-.033-4.032 0-6.048-.023-.446 0-.585.144-.585.585.007 5.371.003 10.741-.012 16.11 0 .405.128.56.553.553 1.517-.021 3.035.027 4.551-.02a19.951 19.951 0 003.209-.29 4.279 4.279 0 003.743-3.935 4.376 4.376 0 00-2.988-4.77zm-7.091-6.849c1.675.024 3.356-.03 5.025.078a2.613 2.613 0 012.542 1.93 2.932 2.932 0 01-.973 3.333 4.522 4.522 0 01-2.048.724c-1.607.1-3.226.033-4.96.033V7.875 4.462c-.003-.296.046-.504.414-.499zm8.224 11.908a3.24 3.24 0 01-3.237 2.519c-.835.055-1.676.009-2.515.009v.05c-.8 0-1.6-.011-2.4 0-.353.007-.5-.11-.495-.482.013-2.017 0-4.035.023-6.051 0-.157.246-.446.373-.445a44.37 44.37 0 015.492.208c2.169.316 3.195 2.052 2.759 4.192zm64.931-6.2c.639.019 1.279 0 1.918.006.3.005.438-.1.428-.419a26.976 26.976 0 010-1.558c.01-.332-.116-.467-.455-.457-.6.018-1.2-.019-1.8.013-.442.024-.6-.12-.589-.574.028-1.038-.006-2.078.013-3.116.008-.41-.121-.576-.548-.559a25.53 25.53 0 01-1.976 0c-.4-.014-.564.124-.588.541-.05.877-.143 1.751-.235 2.624-.113 1.078-.12 1.075-1.21 1.077-1.189 0-1.048-.114-1.052 1.06-.006 1.345 0 1.371 1.358 1.348.553-.01.712.162.7.711a268.185 268.185 0 00-.045 6.591 2.856 2.856 0 002.292 2.907 8.337 8.337 0 003.857-.047.434.434 0 00.256-.318c.023-.715.012-1.431.012-2.212-.563 0-1.04.012-1.516 0a1.225 1.225 0 01-1.343-1.347c-.02-1.918 0-3.835-.013-5.753-.005-.399.157-.529.536-.519v.001zm32.408-2.422c-.819.01-1.64.041-2.456-.009-.6-.037-.729.2-.725.757.022 3.676.013 7.351.015 11.028-.024.137-.02.278.013.413.072.147.221.36.341.364 1.054.029 2.11.016 3.177.016a.95.95 0 00.07-.2l.021-11.985c.001-.334-.175-.387-.456-.385v.001zm-5.613-4.665c-.858.012-1.718.025-2.575 0-.444-.014-.592.134-.586.581.023 1.517.012 3.036.01 4.554 0 .208-.018.417-.032.752a5.53 5.53 0 00-.592-.476 7 7 0 00-1.464-.774 4.284 4.284 0 00-5.131 2.68 9.88 9.88 0 00-.251 6.86 4.2 4.2 0 007.16 2.064c.095-.09.209-.161.383-.295l.072 1.262h3.4a.873.873 0 00.069-.187c.006-5.533.013-11.067.021-16.6.001-.365-.177-.425-.484-.421zm-3.656 14.54c-1.425 1.051-2.932.6-3.407-1.1a8.62 8.62 0 01.036-4.9c.613-2.021 2.571-1.945 3.794-.81a.816.816 0 01.169.536c.017.9.007 1.795.007 2.692 0 .778-.036 1.558.014 2.332.051.5-.187.985-.613 1.25zm-60.5-10.023a5.453 5.453 0 00-3.3 1.4l-.674.587a11.11 11.11 0 01.006-1.125c.068-.573-.229-.641-.708-.653-.522-.013-.683.138-.679.674.022 3.577.011 7.153.01 10.73 0 1.222.053 1.266 1.292 1.062.017 0 .03-.022.117-.093v-.645c0-2.558.035-5.116-.021-7.673a1.839 1.839 0 01.9-1.766 5.224 5.224 0 013.573-1.108 2.021 2.021 0 011.956 1.639c.091.387.137.784.135 1.182.012 2.577.007 5.155.008 7.733v.739h1.378c.017-.189.04-.324.04-.461 0-2.8.025-5.6-.012-8.393-.03-2.529-1.608-3.997-4.016-3.831l-.005.002zm83.31 4.761a5.456 5.456 0 00-3.8-4.523 5.771 5.771 0 00-5.973 1.2 7.195 7.195 0 00-2.055 5c.118.884.293 1.76.525 2.621a5.421 5.421 0 004.728 3.939 5.5 5.5 0 005.611-2.435 7.44 7.44 0 00.969-5.804l-.005.002zm-3.98 4.554a1.7 1.7 0 01-1.754 1.268 1.642 1.642 0 01-1.777-1.138 27.66 27.66 0 01-.587-2.776c.095-.923.238-1.84.43-2.748a1.839 1.839 0 012-1.529 1.9 1.9 0 011.84 1.667 9.888 9.888 0 01-.147 5.254l-.005.002zm-28.256-9.17c-.818.017-1.639.039-2.456 0-.522-.026-.627.176-.623.654.021 2.4-.042 4.8.037 7.191a1.863 1.863 0 01-1.03 1.824 1.932 1.932 0 01-2.029.266c-.687-.37-.74-1.082-.74-1.781 0-2.5-.019-4.994.006-7.491 0-.536-.16-.694-.683-.666a21.6 21.6 0 01-2.276 0c-.493-.024-.659.128-.653.634.025 2.137.006 4.274.012 6.412 0 .879-.025 1.762.051 2.635a3.184 3.184 0 003.721 3.137 4.67 4.67 0 002.654-1.128c.3-.248.586-.52 1.006-.895 0 .54.007.932 0 1.324-.007.325.125.469.462.464a89.156 89.156 0 012.637 0c.333 0 .462-.126.462-.458-.005-3.875-.005-7.75 0-11.625.004-.414-.191-.506-.553-.499l-.005.002zM71.243 2.605a1.336 1.336 0 00-.252.1v5.771c-.144-.091-.2-.117-.244-.154a4.643 4.643 0 00-7.183 1.08 8.117 8.117 0 00-.027 8.4 4.238 4.238 0 006.194 1.53c.421-.255.814-.557 1.363-.936 0 .45-.015.747.008 1.041.003.133.06.259.158.349a.767.767 0 001.179-.7V3.681c.004-1.201.003-1.205-1.191-1.079l-.005.003zm-.2 8.729a12.9 12.9 0 00-.021 2.153c0 1.058.022 2.116-.016 3.173a1.138 1.138 0 01-.354.744 4.595 4.595 0 01-2.383 1.17c-2.16.279-3.632-.863-4.081-3.172a9.184 9.184 0 01.116-4.093 3.585 3.585 0 015.109-2.466c1.129.481 1.876 1.098 1.637 2.488l-.007.003zm14.3-1.065c-.809-.329-1.661-.557-2.5-.819-1.1-.345-2.219-.633-3.3-1.035a1.289 1.289 0 01-.815-1.351c.032-.577.403-1.08.945-1.281a3.63 3.63 0 013.135-.056 18.208 18.208 0 012.287 1.591c.6-.529 1.264-1.164 1.98-1.731.459-.364.383-.609.043-1.006-2.458-2.873-7.887-2.677-10.155-.928a4.846 4.846 0 00-1.077 7.018 6.932 6.932 0 003.853 2.152c1.174.307 2.356.6 3.51.974a1.465 1.465 0 011.127 1.459 1.673 1.673 0 01-1.269 1.566 4.451 4.451 0 01-4.314-.65 22.207 22.207 0 01-1.859-1.664c-.709.612-1.427 1.272-2.187 1.876-.437.347-.426.585-.067 1a8.4 8.4 0 006.571 2.772 7.427 7.427 0 005.4-1.866c2.314-2.098 2.528-6.466-1.298-8.024l-.01.003z"/>
</svg>
