<svg baseProfile="basic" xmlns="http://www.w3.org/2000/svg" width="89.378" height="48.326" viewBox="0 0 89.378 48.326">
  <path d="M41.864 1.71c.054-.485-.164-.577-.6-.574-3.149.016-6.3.007-9.447.009-.972 0-.838-.084-.843.853 0 1.018 0 1.018 1.032.983a2.088 2.088 0 012.443 2.165 14.007 14.007 0 01-.43 4c-.979 5.4-1.964 10.797-2.955 16.19-.492 2.692-.977 5.385-1.479 8.074a1.84 1.84 0 01-.277.5 2.108 2.108 0 01-.242-.487c-.2-.961-.374-1.928-.56-2.892L23.669 5.419a1.908 1.908 0 011.733-2.385c.449-.027.898-.03 1.347-.008V1.754c0-.609 0-.609-.594-.609H14.799a.855.855 0 00-.315.01c-.1.045-.255.147-.258.229-.023.537-.012 1.076-.012 1.621h.25l.181-.011a2.086 2.086 0 012.187 1.362c.185.429.324.877.417 1.335a793.595 793.595 0 011.6 8.187c.191.648.27 1.325.232 2-.906 5.35-1.878 10.689-2.833 16.031l-.3 1.606-.136-.005a2.385 2.385 0 01-.106-.319c-.515-2.625-1.029-5.25-1.54-7.876-1.11-5.695-2.218-11.392-3.323-17.089a14.63 14.63 0 01-.489-3.538 1.6 1.6 0 011.949-1.71c.192.021.383.029.632.046 0-.481-.024-.919.007-1.352s-.132-.538-.546-.536c-3.725.014-7.448.008-11.173.008a5.5 5.5 0 00-.861.014c-.131.021-.332.183-.34.292-.037.507-.016 1.018-.016 1.53.77.117 1.487.217 2.2.342.163.029.4.1.452.224a16.66 16.66 0 011.309 3.166c1.027 4.819 1.943 9.66 2.9 14.494a31043.973 31043.973 0 015.224 26.513c.056.29.18.4.483.391a17.188 17.188 0 011.816 0c.458.032.611-.133.7-.575a9491.48 9491.48 0 015.093-24.826c.065-.316.149-.628.225-.943h.131c.046.163.1.323.137.487 1.193 6.004 2.386 12.008 3.577 18.013.491 2.475.979 4.95 1.464 7.425.06.307.181.434.51.417.56-.031 1.12-.031 1.68 0 .4.026.539-.119.62-.508a7077.905 7077.905 0 014.056-19.253c1.318-6.255 2.634-12.511 3.947-18.766.162-.937.386-1.862.669-2.769.372-1.051.907-2.042 1.348-3.07a.657.657 0 01.612-.438c.511-.053 1.019-.13 1.527-.212.377-.06.9-.021 1.084-.249.197-.24.049-.747.094-1.133zm18.389 23.269a27.959 27.959 0 00-5.6-5.653c-1.739-1.408-3.516-2.783-5.14-4.317a9.274 9.274 0 01-2.815-9.142 3.72 3.72 0 012.45-3.079 7.073 7.073 0 015.753.5 7.366 7.366 0 013.239 4.281 25.137 25.137 0 011.182 8.223c.013 1.259-.09 1.013 1.045 1.034.633.012.633 0 .633-.658V4.133 1.046a.631.631 0 00-.11-.411 1.084 1.084 0 00-1.157.249c-.3.544-.6 1.084-.875 1.64-.166.335-.306.414-.634.148a12.103 12.103 0 00-1.561-1.088 9.748 9.748 0 00-9.091-.827c-3.772 1.64-5.539 4.865-6.023 8.771a13.39 13.39 0 002.54 9.383 26.089 26.089 0 005.943 5.944 26.401 26.401 0 015.794 5.779 12.57 12.57 0 012.309 10.257 5.263 5.263 0 01-2.921 3.979 6.925 6.925 0 01-5.176.335 8.39 8.39 0 01-4.969-4.692 20.438 20.438 0 01-1.733-8.6c-.018-1.027.157-.925-.944-.955-.444-.012-.568.136-.565.571.017 2.542.008 5.085.008 7.629s.01 5.116-.009 7.674c0 .444.135.609.566.547.105-.016.212-.016.317 0 .348.055.511-.108.626-.426.224-.626.5-1.232.725-1.859.14-.393.3-.4.615-.169a13.821 13.821 0 0010.492 2.455 8.852 8.852 0 007.7-6.84c.546-2.223.697-4.525.447-6.8a17.811 17.811 0 00-3.061-8.761zM88.814 1.135c-2.18.02-4.36.009-6.54.009-2.211 0-4.421.006-6.632-.006-.35 0-.5.1-.478.464.022.347.012.7 0 1.044-.007.268.1.39.375.378s.576 0 .863 0a2.272 2.272 0 012.532 2.118c.059.327.088.659.088.991.005 10.96.006 21.92.005 32.88 0 .241.026.485.016.725.007.859-.036 1.718-.129 2.572-.369 2.351-1.689 3.636-3.909 3.747-3.007.15-4.973-1.468-5.11-4.59-.015-.356.064-.544.485-.586a3.878 3.878 0 002.095-.789 4.21 4.21 0 001.375-3.976 2.764 2.764 0 00-2.826-2.888 3.473 3.473 0 00-3.922 2.02 5.46 5.46 0 00-.427 1.518 11.557 11.557 0 001.973 7.97 7.81 7.81 0 004.919 3.4c1.448.272 2.935.253 4.375-.056a8.47 8.47 0 006.506-4.482 11.498 11.498 0 001.221-5.345c.01-10.793.01-21.587 0-32.38a8.577 8.577 0 01.009-.907 2.007 2.007 0 012.03-1.927c.393-.023.787-.026 1.18-.008.347.017.51-.094.481-.462a4.773 4.773 0 010-.862c.052-.444-.117-.575-.555-.572z"/>
</svg>
