<svg baseProfile="basic" xmlns="http://www.w3.org/2000/svg" width="77.587" height="37.565" viewBox="0 0 77.587 37.565">
  <path d="M35.613.519h1.1L36.842 0H22.964l-.13.519h2.011c1.752 0 3.178 1.233 3.178 3.633a13.926 13.926 0 01-1.557 5.254L17.45 29.321 15.244 3.438c-.194-2.01.844-2.919 3.114-2.919h1.3l.13-.519H.194L0 .519h1.232c1.558 0 2.141.973 2.27 2.79l3.5 33.473h8.238L29.057 7.525C31.203 3.178 33.408.519 35.613.519zm-1.621 36.392c-1.232 0-2.011-.389-2.011-2.465 0-2.595.973-7.72 2.011-12.39.13 2.14 1.622 4.281 3.828 4.281a9.754 9.754 0 001.427-.129c-2.076 8.887-2.855 10.703-5.255 10.703zm39.311-17.579a4.355 4.355 0 004.277-4.607 3.509 3.509 0 00-3.633-3.633c-3.827 0-5.644 3.049-8.822 8.628-.649-3.5-2.27-8.044-6.293-8.044-4.541 0-9.8 6.487-14.6 10.509-2.205 1.881-4.606 3.049-6.552 3.049-2.011 0-3.178-2.011-3.178-5.579 1.427-5.838 2.14-7.331 4.346-7.331 1.493 0 2.141.844 2.141 2.595a47.829 47.829 0 01-1.232 8.952c2.14-.649 5.384-3.374 8.109-6.293a9.224 9.224 0 00-8.952-5.773c-8.239 0-15.5 7.395-15.5 15.7 0 5.708 4.086 10.055 10.444 10.055 10.509 0 14.92-9.082 14.92-15.439 0-.908-.065-1.557-.13-2.4 1.622-1.752 3.7-3.439 5.385-3.439 1.946 0 3.5 4.865 5 12.2-1.362 1.492-2.725 4.346-3.374 4.865a4.3 4.3 0 00-4.281-4.216 4.6 4.6 0 00-4.347 4.541 3.68 3.68 0 003.763 3.892c4.476 0 5.708-4.216 8.5-7.978.843 4.021 2.854 7.978 6.293 7.978 4.086 0 7.849-3.5 9.8-5.968l-.389-.584a5.598 5.598 0 01-3.892 2.011c-2.53 0-4.347-5.449-5.709-12.066.844-1.1 2.141-3.957 3.049-5 .792 2 2.706 3.33 4.857 3.375z"/>
</svg>
