<svg baseProfile="basic" xmlns="http://www.w3.org/2000/svg" width="119.797" height="31.131" viewBox="0 0 119.797 31.131">
  <path d="M25.577 1.03v-.3h-5.7v.3h2.615L15.84 22.602 7.962 1.03h2.595v-.3H0v.3h2.778l10.906 29.824 9.375-29.819 2.518-.005zm9.766-.943a12.153 12.153 0 00-9.431 5.024 17.923 17.923 0 00.283 21.375 12.037 12.037 0 009.029 4.645 12.1 12.1 0 009.353-5.034 17.9 17.9 0 00-.293-21.377A11.958 11.958 0 0035.343.087zm-.1 30.6c-5.837 0-7.368-10.765-7.368-15.083S29.394.531 35.243.531c5.827 0 7.368 10.765 7.368 15.073s-1.539 15.082-7.368 15.083zM65.41 18.273h2.712v8.009c.044.524-.06 1.05-.3 1.518a6.383 6.383 0 01-5.349 2.833c-2.594 0-3.994-1.225-4.96-3.721a31.236 31.236 0 01-1.681-11.274c0-4.242.564-15.365 6.771-15.365 2.7 0 4.775 2.365 6.077 4.47a18.736 18.736 0 012.17 5.827h.239V.206h-.237a4.492 4.492 0 01-2.517 1.161A6.62 6.62 0 0166.1.857l-.619-.239A7.312 7.312 0 0062.822 0a10.555 10.555 0 00-6.336 2.431c-4.037 3.113-5.936 8.442-5.936 13.423 0 6.814 4.1 15.028 11.805 15.028a11.213 11.213 0 004.656-1.16l.673-.369a5.133 5.133 0 012.442-.716 3.087 3.087 0 012.691 1.617h.2v-11.98h2.323v-.314h-9.929l-.001.313zm54.146.749a27.326 27.326 0 01-.325 3.255 9.45 9.45 0 01-2.691 5.067 9.028 9.028 0 01-6.219 2.6h-4.437v-14.67a19.084 19.084 0 011.584-.077c3.374 0 4.644 3.082 5.11 5.958h.272V9.125h-.272c-.162 3.169-1.128 5.729-4.849 5.729a17.784 17.784 0 01-1.845-.108V1.03h2.962c2.745 0 5.415.217 7.379 2.441 1.942 2.2 2.484 5.1 2.8 7.921h.206V.726H91.898v.3h3.32v22.789c0 3.57-2.94 6-6.435 6-3.243 0-6.955-2.192-6.955-5.794V1.031h2.81v-.3H74.05v.3h2.9v21.94c0 5.448 5.254 7.759 10.016 7.759 4.21 0 8.7-2.095 8.7-6.825V1.03h5.253v28.918h-2.485v.3h21.363V19.022h-.241z"/>
</svg>
