<?xml version="1.0" encoding="utf-8"?><svg xmlns="http://www.w3.org/2000/svg" width="55.37" height="66.802" viewBox="0 0 55.37 66.802"><path data-name="Path 858" d="M41.492 53.628v12.038h-9.979v-3.327c-.338.223-.535.345-.724.479-6.357 4.544-13.193 5.258-20.144 1.835S.188 55.328.008 47.559a19.421 19.421 0 012.107-9.909c2.74-5.059 5.5-10.108 8.216-15.178q5.617-10.48 11.186-20.984c.091-.171.188-.339.386-.7l15.338 25.37V0h10.012v1.033q0 12.706-.01 25.411a1.113 1.113 0 00.659 1.186 13.733 13.733 0 01-5.748 25.952c-.189.01-.38.026-.662.046zm-10.011-9.235c3.477 0 6.807-.008 10.138 0a3.535 3.535 0 002.851-1.243 3.8 3.8 0 00.494-4.211c-.561-1.336-1.636-1.689-3.021-1.658-2.879.066-5.761-.027-8.64.047a1.837 1.837 0 01-1.873-1.043c-.763-1.305-1.635-2.546-2.515-3.9l-2.469 3.909c-.797 1.262-1.583 2.516-2.368 3.764-5.12-2.542-9.541-1.754-12.275 2.127a8.747 8.747 0 0013.43 11.12l6.248 5.361zm-3.49-13.582l-5.269-8.89-3.416 6.655a16.985 16.985 0 018.684 2.235z" fill="#282828"/></svg>
