<svg xmlns="http://www.w3.org/2000/svg" width="92.79" height="48.453" viewBox="0 0 92.79 48.453"><path data-name="Union 10" d="M80.284 46.935a4.889 4.889 0 01-1.755-3.87h4.133a2.631 2.631 0 00.561 1.512 3.862 3.862 0 002.817.8 4.389 4.389 0 001.919-.35 1.161 1.161 0 00.139-2.071 23.764 23.764 0 00-4.265-1.2 8.944 8.944 0 01-3.745-1.61 3.449 3.449 0 01-1.087-2.742 4.712 4.712 0 011.7-3.632 6.929 6.929 0 014.781-1.519 8.939 8.939 0 014.766 1.14 4.859 4.859 0 012.115 3.94h-4.076a2.32 2.32 0 00-.445-1.217 2.834 2.834 0 00-2.295-.812 3.365 3.365 0 00-1.9.406 1.164 1.164 0 00-.567.952 1.037 1.037 0 00.6.993 26.434 26.434 0 004.256 1.106 7.871 7.871 0 013.652 1.693 3.8 3.8 0 011.2 2.869 4.59 4.59 0 01-1.727 3.7q-1.727 1.434-5.339 1.435-3.684-.005-5.438-1.523zm-15.928-.74a8.356 8.356 0 01-1.926-5.688 9.6 9.6 0 011.9-6.3 6.241 6.241 0 015.07-2.295 5.316 5.316 0 012.6.624 5.055 5.055 0 011.845 1.728v-7.458h4.265v21.116h-4.088v-2.166a5.246 5.246 0 01-4.915 2.655 6.045 6.045 0 01-4.751-2.217zm3.276-9.354a6.148 6.148 0 00-.863 3.365 6.085 6.085 0 00.879 3.464 3 3 0 002.664 1.3 3.136 3.136 0 002.716-1.291 5.582 5.582 0 00.93-3.342 5.046 5.046 0 00-1.491-4.1 3.265 3.265 0 00-2.124-.746 2.982 2.982 0 00-2.711 1.35zM38.871 47.229a4.071 4.071 0 01-1.457-3.352 4.283 4.283 0 012.343-4.072 11.035 11.035 0 013.779-.98l1.465-.168a7.21 7.21 0 001.707-.35 1.213 1.213 0 00.922-1.134 1.321 1.321 0 00-.707-1.3 4.752 4.752 0 00-2.076-.357 2.843 2.843 0 00-2.175.7 2.787 2.787 0 00-.608 1.4h-4.126a5.589 5.589 0 011.206-3.288q1.7-2.015 5.847-2.016a11.049 11.049 0 014.791.994 3.758 3.758 0 012.094 3.75v7q0 .728.031 1.763a2.09 2.09 0 00.255 1.064 1.514 1.514 0 00.63.462v.587h-4.654a4.146 4.146 0 01-.27-.867 9.17 9.17 0 01-.12-.924 8.771 8.771 0 01-2.053 1.525 6.556 6.556 0 01-3.138.742 5.66 5.66 0 01-3.686-1.18zm7.916-6.325a7.432 7.432 0 01-1.148.273l-.974.168a6.741 6.741 0 00-1.965.546 1.8 1.8 0 00-1.011 1.693 1.713 1.713 0 00.618 1.477 2.46 2.46 0 001.5.454 4.7 4.7 0 002.582-.756 3.109 3.109 0 001.226-2.756v-1.484a4.816 4.816 0 01-.828.387zM1.456 47.229A4.071 4.071 0 010 43.877a4.284 4.284 0 012.343-4.072 11.035 11.035 0 013.779-.98l1.465-.168a7.223 7.223 0 001.708-.35 1.214 1.214 0 00.922-1.134 1.321 1.321 0 00-.707-1.3 4.756 4.756 0 00-2.076-.357 2.841 2.841 0 00-2.174.7 2.775 2.775 0 00-.608 1.4H.525a5.6 5.6 0 011.205-3.288q1.7-2.015 5.847-2.016a11.046 11.046 0 014.791.994 3.758 3.758 0 012.094 3.75v7q0 .728.031 1.763a2.1 2.1 0 00.255 1.064 1.522 1.522 0 00.63.462v.587h-4.651a4.275 4.275 0 01-.27-.867 9.785 9.785 0 01-.12-.924 8.773 8.773 0 01-2.052 1.525 6.556 6.556 0 01-3.139.742 5.661 5.661 0 01-3.69-1.18zm7.916-6.325a7.407 7.407 0 01-1.148.273l-.973.168a6.743 6.743 0 00-1.965.546 1.8 1.8 0 00-1.01 1.693 1.712 1.712 0 00.617 1.477 2.459 2.459 0 001.5.454 4.7 4.7 0 002.582-.756 3.109 3.109 0 001.226-2.756v-1.484a4.766 4.766 0 01-.829.387zm43.63 7.032V32.682h3.816v2.658a8.411 8.411 0 011.612-2.084 4.4 4.4 0 012.917-.938q.113 0 .19.008c.024 0 .281-.008.561-.018.3-.01.637-.021.73-.016v4.087c-.147-.017-.607-.011-1-.006-.283 0-.535.008-.617 0q-.294-.013-.477-.013a3.317 3.317 0 00-3.24 1.567 6.088 6.088 0 00-.463 2.714v7.291zm-24.183 0l-2.608-11.111-2.638 11.111h-4.514l-4.667-15.253h4.667l2.592 10.943 2.394-10.943h4.407l2.532 10.985 2.592-10.985h4.53l-4.819 15.253zm26.837-19.473q-3.425-2.754-3.424-8.963 0-5.816 3.091-8.92a10.826 10.826 0 018.023-3.1 12.809 12.809 0 015.277 1.049 9.128 9.128 0 013.877 3.312 10.986 10.986 0 011.787 4.628 28.444 28.444 0 01.193 4.443H58.138q.136 3.368 2.346 4.724a5.973 5.973 0 003.235.842 4.557 4.557 0 004.465-2.567h5.989a7.3 7.3 0 01-2.174 4.046q-3.015 3.265-8.441 3.266a12.249 12.249 0 01-7.902-2.761zm4.191-14.881a6.075 6.075 0 00-1.563 3.465h10.107a4.874 4.874 0 00-1.563-3.537 5.146 5.146 0 00-3.479-1.207 4.657 4.657 0 00-3.502 1.278zM2.187 29.42a6 6 0 01-2.114-4.919 6.3 6.3 0 013.4-5.976 15.89 15.89 0 015.483-1.437l2.128-.247a10.3 10.3 0 002.477-.513 1.777 1.777 0 001.338-1.664 1.94 1.94 0 00-1.026-1.9 6.816 6.816 0 00-3.012-.524 3.378 3.378 0 00-4.038 3.08H.838a8.262 8.262 0 011.75-4.826q2.47-2.957 8.483-2.958a15.9 15.9 0 016.953 1.458q3.038 1.459 3.039 5.5v10.274q0 1.068.043 2.587a3.1 3.1 0 00.37 1.562 2.2 2.2 0 00.914.677v.863h-6.752a6.236 6.236 0 01-.392-1.273q-.109-.6-.174-1.355a12.724 12.724 0 01-2.978 2.238 9.431 9.431 0 01-4.555 1.089 8.151 8.151 0 01-5.352-1.737zm11.488-9.282a10.622 10.622 0 01-1.667.4l-1.412.247a9.673 9.673 0 00-2.852.8 2.645 2.645 0 00-1.465 2.485 2.523 2.523 0 00.9 2.167 3.536 3.536 0 002.177.668 6.748 6.748 0 003.746-1.11q1.713-1.108 1.78-4.046v-2.177a7.044 7.044 0 01-1.207.565zm19.545 7.729a12.968 12.968 0 01.277-17.272 10.339 10.339 0 018.05-3.2 12.449 12.449 0 017.144 1.89q2.778 1.889 3.29 6.674h-6.212a5.078 5.078 0 00-.874-2.259 3.723 3.723 0 00-3.177-1.356 4.173 4.173 0 00-4.2 2.937 11.8 11.8 0 00-.6 4.138 10.852 10.852 0 00.6 3.954 4.048 4.048 0 004.094 2.793 3.681 3.681 0 003.028-1.109 5.388 5.388 0 001.087-2.875h6.191a9.594 9.594 0 01-2 5.052q-2.854 3.841-8.454 3.84t-8.244-3.208zm-10.309 2.591V8.071h5.949v22.386zm0-25.056v-5.4h5.949v5.4z" fill="#282828"/></svg>
